<?xml version="1.0" encoding="UTF-8" standalone="no"?>
<svg xmlns:xlink="http://www.w3.org/1999/xlink" height="47.2px" width="47.2px" xmlns="http://www.w3.org/2000/svg">
  <g transform="matrix(1, 0, 0, 1, 0.0, 0.0)">
    <path d="M36.0 0.0 L37.85 0.0 Q47.2 0.0 47.2 9.4 L47.2 37.85 Q47.2 47.2 37.85 47.2 L9.35 47.2 Q0.0 47.2 0.0 37.85 L0.0 37.25 Q5.4 39.65 11.9 39.65 23.5 39.65 31.7 31.95 39.9 24.3 39.9 13.45 39.9 6.0 36.0 0.0" fill="#848484" fill-rule="evenodd" stroke="none"/>
    <path d="M36.0 0.0 Q39.9 6.0 39.9 13.45 39.9 24.3 31.7 31.95 23.5 39.65 11.9 39.65 5.4 39.65 0.0 37.25 L0.0 9.4 Q0.0 0.0 9.35 0.0 L36.0 0.0" fill="url(#gradient0)" fill-rule="evenodd" stroke="none"/>
    <path d="M10.3 40.15 Q3.2 40.15 3.2 33.0 L3.2 11.3 Q3.2 4.2 10.3 4.2 L32.0 4.2 Q39.15 4.2 39.15 11.3 L39.15 33.0 Q39.15 40.15 32.0 40.15 L10.3 40.15" fill="url(#gradient1)" fill-rule="evenodd" stroke="none"/>
  </g>
  <defs>
    <radialGradient cx="0" cy="0" fx="569.6" fy="0" gradientTransform="matrix(-0.0252, -0.0206, 0.0206, -0.0252, 13.25, 12.55)" gradientUnits="userSpaceOnUse" id="gradient0" r="819.2" spreadMethod="pad">
      <stop offset="0.1450980392156863" stop-color="#c8c8c8"/>
      <stop offset="0.9098039215686274" stop-color="#848484"/>
    </radialGradient>
    <radialGradient cx="0" cy="0" fx="512.0" fy="0" gradientTransform="matrix(0.0246, 0.0227, -0.021, 0.0229, 20.25, 20.7)" gradientUnits="userSpaceOnUse" id="gradient1" r="819.2" spreadMethod="pad">
      <stop offset="0.1450980392156863" stop-color="#f3f2f1"/>
      <stop offset="0.9098039215686274" stop-color="#a6a6a6"/>
    </radialGradient>
  </defs>
</svg>
