<?xml version="1.0" encoding="UTF-8" standalone="no"?>
<svg xmlns:xlink="http://www.w3.org/1999/xlink" height="75.35px" width="128.2px" xmlns="http://www.w3.org/2000/svg">
  <g transform="matrix(1, 0, 0, 1, -116.15, -270.9)">
    <path d="M189.85 289.15 L173.85 289.15 181.9 270.9 189.85 289.15" fill="#666666" fill-rule="evenodd" stroke="none"/>
    <path d="M184.75 286.3 L184.75 296.2 178.95 296.2 178.95 286.3 184.75 286.3" fill="#666666" fill-rule="evenodd" stroke="none"/>
    <path d="M189.85 328.0 L181.9 346.25 173.85 328.0 189.85 328.0" fill="#666666" fill-rule="evenodd" stroke="none"/>
    <path d="M184.75 330.85 L178.95 330.85 178.95 320.95 184.75 320.95 184.75 330.85" fill="#666666" fill-rule="evenodd" stroke="none"/>
    <path d="M226.1 325.4 L244.35 333.45 226.1 341.4 226.1 325.4" fill="#666666" fill-rule="evenodd" stroke="none"/>
    <path d="M228.95 336.3 L219.05 336.3 219.05 330.5 228.95 330.5 228.95 336.3" fill="#666666" fill-rule="evenodd" stroke="none"/>
    <path d="M134.4 325.4 L134.4 341.4 116.15 333.45 134.4 325.4" fill="#666666" fill-rule="evenodd" stroke="none"/>
    <path d="M131.55 336.3 L131.55 330.5 141.45 330.5 141.45 336.3 131.55 336.3" fill="#666666" fill-rule="evenodd" stroke="none"/>
  </g>
</svg>
