<?xml version="1.0" encoding="UTF-8" standalone="no"?>
<svg xmlns:xlink="http://www.w3.org/1999/xlink" height="47.2px" width="233.2px" xmlns="http://www.w3.org/2000/svg">
  <g transform="matrix(1, 0, 0, 1, 0.0, 0.0)">
    <path d="M16.35 39.35 L77.45 38.8 Q149.1 37.95 212.3 36.35 L212.3 47.2 9.35 47.2 Q0.0 47.2 0.0 37.85 L0.0 37.25 Q5.4 39.65 11.9 39.65 L16.35 39.35" fill="#848484" fill-rule="evenodd" stroke="none"/>
    <path d="M16.35 0.0 L212.3 0.0 212.3 36.35 Q149.1 37.95 77.45 38.8 L16.35 39.35 16.35 0.0" fill="url(#gradient0)" fill-rule="evenodd" stroke="none"/>
    <path d="M16.35 0.0 L16.35 39.35 11.9 39.65 Q5.4 39.65 0.0 37.25 L0.0 9.4 Q0.0 0.0 9.35 0.0 L16.35 0.0" fill="url(#gradient1)" fill-rule="evenodd" stroke="none"/>
    <path d="M222.0 0.0 L223.85 0.0 Q233.2 0.0 233.2 9.4 L233.2 37.85 Q233.2 47.2 223.85 47.2 L211.65 47.2 211.65 36.35 Q214.9 34.6 217.7 31.95 225.9 24.3 225.9 13.45 225.9 6.0 222.0 0.0" fill="#848484" fill-rule="evenodd" stroke="none"/>
    <path d="M222.0 0.0 Q225.9 6.0 225.9 13.45 225.9 24.3 217.7 31.95 214.9 34.6 211.65 36.35 L211.65 0.0 222.0 0.0" fill="url(#gradient2)" fill-rule="evenodd" stroke="none"/>
    <path d="M16.9 4.2 L210.55 4.2 210.55 40.15 16.9 40.15 16.9 4.2" fill="url(#gradient3)" fill-rule="evenodd" stroke="none"/>
    <path d="M16.9 4.2 L16.9 40.15 10.3 40.15 Q3.2 40.15 3.2 33.0 L3.2 11.3 Q3.2 4.2 10.3 4.2 L16.9 4.2" fill="url(#gradient4)" fill-rule="evenodd" stroke="none"/>
    <path d="M210.5 40.15 L210.5 4.2 218.0 4.2 Q225.15 4.2 225.15 11.3 L225.15 33.0 Q225.15 40.15 218.0 40.15 L210.5 40.15" fill="url(#gradient5)" fill-rule="evenodd" stroke="none"/>
  </g>
  <defs>
    <radialGradient cx="0" cy="0" fx="569.6" fy="0" gradientTransform="matrix(-0.5302, -0.0206, 0.4343, -0.0252, -48.95, 12.55)" gradientUnits="userSpaceOnUse" id="gradient0" r="819.2" spreadMethod="pad">
      <stop offset="0.1450980392156863" stop-color="#c8c8c8"/>
      <stop offset="0.9098039215686274" stop-color="#848484"/>
    </radialGradient>
    <radialGradient cx="0" cy="0" fx="569.6" fy="0" gradientTransform="matrix(-0.0252, -0.0206, 0.0206, -0.0252, 13.25, 12.55)" gradientUnits="userSpaceOnUse" id="gradient1" r="819.2" spreadMethod="pad">
      <stop offset="0.1450980392156863" stop-color="#c8c8c8"/>
      <stop offset="0.9098039215686274" stop-color="#848484"/>
    </radialGradient>
    <radialGradient cx="0" cy="0" fx="569.6" fy="0" gradientTransform="matrix(-0.0252, -0.0206, 0.0206, -0.0252, 199.25, 12.55)" gradientUnits="userSpaceOnUse" id="gradient2" r="819.2" spreadMethod="pad">
      <stop offset="0.1450980392156863" stop-color="#c8c8c8"/>
      <stop offset="0.9098039215686274" stop-color="#848484"/>
    </radialGradient>
    <radialGradient cx="0" cy="0" fx="512.0" fy="0" gradientTransform="matrix(0.6279, 0.0227, -0.5358, 0.0229, 102.3, 20.7)" gradientUnits="userSpaceOnUse" id="gradient3" r="819.2" spreadMethod="pad">
      <stop offset="0.1450980392156863" stop-color="#f3f2f1"/>
      <stop offset="0.9098039215686274" stop-color="#a6a6a6"/>
    </radialGradient>
    <radialGradient cx="0" cy="0" fx="512.0" fy="0" gradientTransform="matrix(0.0246, 0.0227, -0.021, 0.0229, 20.25, 20.7)" gradientUnits="userSpaceOnUse" id="gradient4" r="819.2" spreadMethod="pad">
      <stop offset="0.1450980392156863" stop-color="#f3f2f1"/>
      <stop offset="0.9098039215686274" stop-color="#a6a6a6"/>
    </radialGradient>
    <radialGradient cx="0" cy="0" fx="512.0" fy="0" gradientTransform="matrix(0.0246, 0.0227, -0.021, 0.0229, 206.25, 20.7)" gradientUnits="userSpaceOnUse" id="gradient5" r="819.2" spreadMethod="pad">
      <stop offset="0.1450980392156863" stop-color="#f3f2f1"/>
      <stop offset="0.9098039215686274" stop-color="#a6a6a6"/>
    </radialGradient>
  </defs>
</svg>
