<?xml version="1.0" encoding="UTF-8" standalone="no"?>
<svg xmlns:xlink="http://www.w3.org/1999/xlink" height="117.95px" width="118.15px" xmlns="http://www.w3.org/2000/svg">
  <g transform="matrix(1, 0, 0, 1, -1.65, 24.4)">
    <path d="M97.1 76.6 L61.6 93.55 25.75 76.8 36.8 61.85 85.95 61.85 97.1 76.6 M90.9 75.6 L82.25 63.6 Q72.95 70.25 61.05 70.25 49.05 70.25 39.75 63.6 L31.6 75.6 61.85 89.85 90.9 75.6" fill="#bc100d" fill-rule="evenodd" stroke="none"/>
    <path d="M90.9 75.6 L61.85 89.85 31.6 75.6 39.75 63.6 Q49.05 70.25 61.05 70.25 72.95 70.25 82.25 63.6 L90.9 75.6" fill="#e4e4e4" fill-rule="evenodd" stroke="none"/>
    <path d="M89.15 13.8 Q96.1 22.9 96.5 34.8 96.9 46.8 90.55 56.25 L102.85 64.0 116.05 33.3 100.85 4.75 89.15 13.8 M88.9 59.25 L87.25 10.15 101.65 -1.5 119.8 33.45 104.25 69.8 88.9 59.25" fill="#bc100d" fill-rule="evenodd" stroke="none"/>
    <path d="M89.15 13.8 L100.85 4.75 116.05 33.3 102.85 64.0 90.55 56.25 Q96.9 46.8 96.5 34.8 96.1 22.9 89.15 13.8" fill="#e4e4e4" fill-rule="evenodd" stroke="none"/>
    <path d="M59.85 -24.4 L95.7 -7.65 84.65 7.3 35.5 7.3 24.35 -7.45 59.85 -24.4 M59.6 -20.7 L30.55 -6.45 39.2 5.55 Q48.5 -1.1 60.4 -1.1 72.4 -1.1 81.7 5.55 L89.85 -6.45 59.6 -20.7" fill="#bc100d" fill-rule="evenodd" stroke="none"/>
    <path d="M59.6 -20.7 L89.85 -6.45 81.7 5.55 Q72.4 -1.1 60.4 -1.1 48.5 -1.1 39.2 5.55 L30.55 -6.45 59.6 -20.7" fill="#e4e4e4" fill-rule="evenodd" stroke="none"/>
    <path d="M30.9 12.9 L18.6 5.15 5.4 35.85 20.6 64.4 32.3 55.35 Q25.35 46.25 24.95 34.35 24.55 22.35 30.9 12.9 M19.8 70.65 L1.65 35.7 17.2 -0.65 32.55 9.9 34.2 59.0 19.8 70.65" fill="#bc100d" fill-rule="evenodd" stroke="none"/>
    <path d="M30.9 12.9 Q24.55 22.35 24.95 34.35 25.35 46.25 32.3 55.35 L20.6 64.4 5.4 35.85 18.6 5.15 30.9 12.9" fill="#e4e4e4" fill-rule="evenodd" stroke="none"/>
    <path d="M97.45 34.95 Q97.45 50.45 86.5 61.45 75.5 72.45 59.95 72.45 44.4 72.45 33.45 61.45 22.45 50.45 22.45 34.9 22.45 19.4 33.45 8.4 44.4 -2.6 59.95 -2.6 75.5 -2.6 86.5 8.4 97.45 19.4 97.45 34.95" fill="#bc100d" fill-rule="evenodd" stroke="none"/>
    <path d="M60.45 -16.45 Q59.45 -13.8 60.0 -12.5 L61.15 -10.25 Q61.75 -9.35 61.2 -7.55 61.3 -8.85 60.75 -9.7 L59.95 -10.6 Q60.05 -8.45 58.55 -7.75 57.45 -7.15 56.15 -7.75 L56.2 -7.4 Q56.7 -5.2 60.25 -6.25 60.45 -3.75 62.25 -3.9 63.95 -4.0 63.8 -5.8 63.7 -7.7 62.3 -9.05 60.9 -10.4 60.3 -12.65 59.7 -14.85 61.8 -17.75 60.75 -16.15 61.2 -14.6 61.75 -12.1 63.7 -10.15 65.1 -8.65 65.5 -6.65 65.9 -4.9 65.1 -3.65 L65.6 -4.1 Q66.6 -5.75 66.5 -7.55 66.45 -9.4 64.55 -10.75 62.7 -12.1 65.75 -17.3 64.4 -13.7 68.5 -10.15 70.9 -8.0 71.7 -5.35 72.35 -8.85 72.05 -12.5 74.4 -9.45 75.85 -5.5 77.1 -1.9 76.75 0.75 L76.75 1.1 Q76.2 3.85 75.0 5.55 75.85 3.4 75.9 1.3 L75.95 1.0 Q75.9 -1.0 75.1 -4.3 75.5 -2.1 74.95 0.95 L74.85 1.3 Q74.1 4.35 72.15 7.8 L72.05 8.15 72.1 8.1 72.5 7.95 73.2 7.45 Q80.3 2.45 83.55 -4.8 84.0 -1.7 83.35 1.75 82.8 4.95 81.4 6.95 L81.15 7.2 Q79.7 9.25 78.05 10.2 79.65 8.8 80.55 7.2 L80.65 6.9 Q81.55 5.35 82.3 2.5 81.7 4.35 79.95 6.6 L79.7 6.85 Q77.9 9.15 75.0 11.3 L74.8 11.55 74.9 11.55 76.5 11.45 77.65 11.05 Q84.9 8.65 89.55 3.45 89.1 6.05 87.6 8.85 86.25 11.3 84.6 12.7 L84.4 12.85 Q82.6 14.2 80.95 14.55 L83.9 12.6 84.05 12.45 86.55 9.2 Q85.5 10.6 83.5 12.0 L83.25 12.15 Q81.1 13.6 78.15 14.7 L77.9 14.85 77.95 14.85 Q80.85 15.2 80.95 17.5 80.25 16.0 78.45 16.45 77.25 16.75 76.45 17.75 L76.7 17.75 87.6 17.3 Q86.15 18.6 83.95 19.65 81.9 20.6 80.3 20.8 L80.0 20.85 77.1 20.7 79.8 20.5 80.0 20.5 83.05 19.55 79.9 20.15 79.7 20.15 75.3 19.9 75.05 19.95 Q76.75 21.0 75.75 22.35 76.0 21.25 74.7 21.0 L72.65 21.1 Q69.5 21.9 69.3 19.7 69.8 18.8 70.75 18.3 69.8 18.2 68.7 17.5 L68.6 17.35 Q59.35 15.4 49.95 17.4 48.85 18.05 47.85 18.05 48.85 18.6 49.45 19.55 49.25 21.8 46.15 21.0 L44.05 20.85 Q42.75 21.1 42.95 22.2 41.95 20.85 43.6 19.8 L43.65 19.8 43.45 19.75 39.05 19.95 38.85 19.95 35.6 19.35 38.65 20.4 38.9 20.4 41.6 20.6 38.65 20.7 38.45 20.7 Q36.8 20.45 34.75 19.55 32.6 18.45 31.1 17.15 L42.05 17.6 42.4 17.55 Q41.6 16.6 40.4 16.3 38.6 15.8 37.9 17.3 38.0 15.0 40.9 14.65 L40.95 14.65 40.75 14.55 Q37.75 13.4 35.6 11.95 L35.35 11.85 Q33.3 10.45 32.25 9.0 33.7 11.2 34.8 12.25 L35.0 12.45 Q36.25 13.6 37.95 14.4 36.3 13.95 34.45 12.7 L34.25 12.5 Q32.6 11.15 31.2 8.65 29.75 5.9 29.25 3.3 33.95 8.5 41.2 10.85 L42.25 11.3 Q42.95 11.15 44.0 11.3 L44.05 11.3 43.85 11.05 40.75 8.4 39.15 6.6 38.9 6.35 Q37.2 4.15 36.55 2.3 37.35 5.15 38.2 6.7 L38.3 6.95 Q39.2 8.6 40.8 10.0 39.2 9.05 37.65 7.05 L37.45 6.75 Q36.1 4.75 35.5 1.55 34.85 -1.9 35.3 -5.0 38.55 2.2 45.65 7.2 L46.6 7.9 46.8 8.0 46.85 8.05 46.8 7.65 Q44.75 4.25 44.05 1.15 L44.0 0.8 Q43.4 -2.2 43.85 -4.5 42.95 -1.15 42.95 0.85 L42.95 1.15 Q42.95 3.25 43.9 5.45 42.65 3.7 42.15 1.0 L42.1 0.65 Q41.8 -2.0 43.05 -5.65 44.45 -9.55 46.85 -12.6 46.5 -8.65 47.35 -4.8 47.85 -7.7 50.0 -9.6 52.6 -11.85 53.55 -14.15 53.85 -12.2 53.5 -11.15 52.9 -9.6 52.7 -7.75 52.5 -5.85 53.4 -4.25 L54.75 -3.25 Q55.8 -2.65 57.95 -2.7 57.95 -3.85 57.35 -4.1 56.7 -4.5 56.2 -3.95 L54.85 -4.0 Q54.0 -4.6 53.5 -5.85 53.1 -7.1 53.5 -8.35 L54.15 -9.55 55.75 -11.4 56.15 -11.85 Q58.5 -13.95 57.45 -17.3 58.25 -16.15 58.45 -14.4 58.4 -12.75 57.35 -11.4 L57.1 -11.05 56.35 -9.8 Q56.2 -8.55 57.65 -8.55 59.55 -8.55 59.0 -10.7 58.5 -12.85 58.95 -14.15 59.4 -15.45 60.45 -16.45" fill="url(#gradient0)" fill-rule="evenodd" stroke="none"/>
    <path d="M42.1 20.95 L42.25 20.8 42.1 20.8 42.1 20.85 42.1 20.95 M35.55 -5.95 L37.45 -2.05 Q38.6 0.05 42.55 4.4 41.95 2.95 41.7 1.45 L41.65 1.4 41.6 1.05 Q41.2 -1.7 42.3 -5.1 43.45 -8.45 45.3 -10.4 L47.35 -12.45 47.35 -10.9 47.5 -6.75 Q48.2 -8.35 50.65 -10.95 53.05 -13.6 53.3 -14.25 L53.4 -14.5 Q54.35 -14.15 54.0 -10.65 L53.55 -9.3 53.75 -9.5 53.7 -9.5 55.4 -11.4 55.7 -11.75 55.8 -11.85 Q57.9 -13.8 57.0 -16.85 L57.0 -17.05 Q57.65 -17.45 58.85 -14.95 L60.05 -16.5 60.35 -16.6 60.65 -16.55 60.7 -16.55 60.75 -16.5 62.2 -17.75 62.3 -17.5 62.3 -17.15 Q61.35 -15.7 61.7 -14.35 L61.75 -14.35 Q62.2 -12.35 63.55 -10.7 62.9 -13.65 64.05 -15.25 65.25 -16.85 66.05 -17.45 L66.25 -17.15 66.25 -16.8 Q65.1 -13.5 68.8 -10.2 70.55 -8.65 71.45 -6.95 71.3 -7.4 71.3 -9.35 L71.1 -12.1 Q70.95 -12.8 73.05 -10.8 75.1 -8.75 76.5 -5.1 77.9 -1.55 77.3 1.2 L77.25 1.55 77.25 1.6 Q77.0 3.15 76.15 4.75 L82.0 -2.3 Q83.3 -4.25 83.35 -5.6 85.45 -2.75 84.95 0.3 84.5 2.85 83.3 5.5 L81.8 7.65 81.65 7.95 81.65 7.9 79.5 10.2 Q85.25 7.85 89.95 3.15 89.65 6.65 88.45 9.3 87.15 11.95 86.1 12.7 L85.0 13.4 84.7 13.65 84.65 13.65 Q83.15 14.7 80.4 15.55 81.45 16.35 81.5 17.85 L81.5 17.95 87.45 17.15 87.85 17.2 88.1 17.4 88.15 17.75 87.95 18.05 Q86.4 19.4 84.2 20.5 82.0 21.5 80.35 21.65 L80.15 21.7 80.1 21.7 77.0 21.6 76.7 21.35 76.55 20.95 76.45 20.95 76.6 21.3 Q76.85 22.1 76.15 23.0 L75.85 23.2 75.55 23.15 75.25 22.9 75.25 22.6 75.2 22.1 74.6 21.85 74.55 21.85 72.8 21.95 72.75 22.0 Q70.95 22.45 70.0 22.0 68.9 21.55 68.75 20.1 L68.8 19.8 69.55 18.9 68.4 18.3 68.25 18.15 Q59.25 16.3 50.15 18.25 L49.1 18.75 49.85 19.65 49.95 19.95 Q49.8 21.4 48.75 21.85 47.75 22.3 46.0 21.85 L45.95 21.85 44.15 21.7 44.1 21.7 43.5 22.0 43.5 22.5 43.45 22.85 43.15 23.1 42.85 23.1 42.55 22.85 Q41.85 22.0 42.0 21.25 L41.7 21.45 38.6 21.65 38.5 21.65 38.35 21.55 Q36.65 21.35 34.5 20.3 32.25 19.25 30.8 17.9 L30.6 17.6 30.65 17.3 30.85 17.05 31.25 17.0 Q34.25 17.8 37.35 17.85 L37.35 17.6 Q37.4 16.3 38.3 15.5 35.7 14.6 34.2 13.45 L34.1 13.45 33.85 13.15 Q32.1 11.8 30.95 9.8 29.8 7.85 29.3 6.4 28.8 5.0 28.3 2.1 32.3 6.4 39.05 9.85 L37.25 7.7 37.0 7.35 37.0 7.3 Q35.25 5.5 34.6 2.1 33.95 -1.25 35.55 -5.95" fill="#000000" fill-rule="evenodd" stroke="none"/>
    <path d="M57.4 -16.25 Q58.2 -15.1 58.4 -13.4 58.3 -11.8 57.35 -10.45 L57.05 -10.15 Q56.5 -9.6 56.3 -8.95 56.2 -7.75 57.65 -7.7 59.45 -7.7 58.95 -9.8 58.45 -11.9 58.85 -13.15 59.25 -14.4 60.3 -15.4 59.35 -12.75 59.9 -11.55 60.4 -10.2 60.95 -9.35 61.6 -8.5 61.05 -6.8 61.2 -8.05 60.6 -8.85 L59.8 -9.7 Q59.95 -7.55 58.55 -6.9 57.4 -6.35 56.15 -6.9 L56.2 -6.6 Q56.65 -4.5 60.1 -5.45 60.3 -3.1 62.05 -3.2 63.8 -3.35 63.6 -5.1 63.5 -6.9 62.1 -8.25 60.75 -9.55 60.25 -11.7 59.65 -13.85 61.65 -16.6 60.65 -15.1 61.1 -13.6 61.65 -11.15 63.5 -9.25 64.9 -7.8 65.3 -5.9 65.65 -4.25 64.9 -2.95 L65.35 -3.45 Q66.35 -5.0 66.25 -6.8 66.15 -8.55 64.4 -9.85 62.55 -11.15 65.55 -16.25 64.25 -12.75 68.2 -9.25 70.6 -7.2 71.35 -4.6 72.0 -8.0 71.75 -11.55 74.05 -8.6 75.4 -4.8 76.65 -1.3 76.35 1.3 L76.25 1.65 Q75.8 4.25 74.6 5.9 75.45 3.8 75.5 1.8 L75.5 1.5 Q75.5 -0.45 74.7 -3.65 75.05 -1.45 74.5 1.45 L74.4 1.8 Q73.75 4.8 71.75 8.1 L71.75 8.4 72.1 8.25 72.8 7.75 Q79.7 2.9 82.95 -4.1 83.4 -1.1 82.75 2.2 82.2 5.35 80.85 7.3 L80.65 7.55 Q79.1 9.55 77.6 10.45 79.1 9.05 80.0 7.5 L80.1 7.2 81.75 3.0 Q81.1 4.8 79.4 6.95 L79.2 7.2 Q77.35 9.35 74.6 11.45 L74.4 11.7 76.1 11.65 77.2 11.25 Q84.25 8.95 88.85 3.9 88.4 6.45 86.95 9.1 85.6 11.5 83.95 12.8 L83.75 13.0 Q82.0 14.25 80.4 14.65 L83.25 12.8 83.45 12.6 85.9 9.45 Q84.9 10.8 82.9 12.15 L82.65 12.35 Q80.55 13.65 77.65 14.75 L77.35 14.9 77.45 14.95 Q80.3 15.2 80.4 17.5 79.7 16.0 77.95 16.5 76.75 16.75 76.05 17.7 L76.2 17.75 86.9 17.3 Q85.5 18.55 83.35 19.55 81.35 20.5 79.7 20.7 L79.5 20.7 76.65 20.6 79.3 20.4 79.5 20.4 82.5 19.45 79.35 20.0 79.1 20.0 74.85 19.8 74.65 19.85 74.7 19.85 Q76.3 20.85 75.3 22.15 75.55 21.1 74.25 20.85 L72.25 21.0 Q69.15 21.75 69.0 19.6 69.5 18.75 70.45 18.2 69.5 18.15 68.45 17.5 L68.35 17.35 Q59.2 15.45 50.05 17.35 48.95 18.05 47.95 18.05 48.95 18.55 49.5 19.5 49.35 21.65 46.3 20.85 L44.25 20.7 Q42.95 21.0 43.25 22.05 42.25 20.7 43.85 19.7 L43.9 19.7 43.65 19.65 39.4 19.85 39.15 19.85 36.0 19.3 39.05 20.25 39.25 20.3 41.85 20.4 39.0 20.6 38.8 20.55 Q37.15 20.4 35.2 19.45 33.05 18.4 31.6 17.15 L42.3 17.55 42.65 17.5 Q41.9 16.6 40.7 16.3 39.0 15.8 38.25 17.3 38.35 15.05 41.2 14.75 L41.25 14.75 41.0 14.55 Q38.1 13.5 36.0 12.15 L35.75 11.95 Q33.8 10.6 32.75 9.25 34.15 11.35 35.25 12.45 L35.4 12.6 38.25 14.5 Q36.7 14.05 34.9 12.8 L34.7 12.6 Q33.05 11.3 31.75 8.9 30.3 6.3 29.8 3.7 34.4 8.75 41.5 11.05 L42.55 11.45 44.2 11.5 44.25 11.5 44.1 11.3 41.05 8.65 39.45 6.95 39.25 6.75 Q37.55 4.55 36.95 2.8 37.7 5.5 38.55 7.05 L38.6 7.25 Q39.55 8.9 41.1 10.2 39.5 9.3 38.0 7.35 L37.85 7.1 Q36.5 5.15 35.9 2.05 35.3 -1.3 35.7 -4.3 38.9 2.75 45.9 7.5 L46.8 8.2 46.95 8.3 47.0 8.3 46.9 8.0 Q45.0 4.65 44.3 1.65 L44.2 1.35 Q43.65 -1.6 44.05 -3.75 43.25 -0.55 43.25 1.35 L43.25 1.65 Q43.25 3.7 44.15 5.8 42.95 4.15 42.45 1.55 L42.4 1.15 Q42.1 -1.4 43.3 -4.9 44.7 -8.7 47.0 -11.65 46.7 -7.8 47.5 -4.1 47.95 -6.9 50.1 -8.7 52.65 -10.9 53.6 -13.15 53.85 -11.25 53.5 -10.25 52.95 -8.7 52.75 -6.9 52.6 -5.15 53.45 -3.55 53.55 -3.35 54.75 -2.6 55.75 -2.0 57.9 -2.05 57.9 -3.15 57.35 -3.45 56.7 -3.75 56.2 -3.25 L54.85 -3.35 Q54.0 -3.95 53.55 -5.1 53.2 -6.3 53.5 -7.55 53.65 -8.05 54.15 -8.65 L55.75 -10.45 56.15 -10.85 Q58.4 -13.0 57.4 -16.25" fill="url(#gradient1)" fill-rule="evenodd" stroke="none"/>
  </g>
  <defs>
    <linearGradient gradientTransform="matrix(0.0187, -0.0049, 0.0065, 0.0236, 59.4, 2.3)" gradientUnits="userSpaceOnUse" id="gradient0" spreadMethod="pad" x1="-819.2" x2="819.2">
      <stop offset="0.0" stop-color="#423e40"/>
      <stop offset="0.36470588235294116" stop-color="#d0d0d0"/>
      <stop offset="0.5176470588235295" stop-color="#9d9d9d"/>
      <stop offset="0.6901960784313725" stop-color="#dddddd"/>
      <stop offset="1.0" stop-color="#585255"/>
    </linearGradient>
    <linearGradient gradientTransform="matrix(0.0172, -0.0247, 0.0174, 0.0143, 57.95, 6.6)" gradientUnits="userSpaceOnUse" id="gradient1" spreadMethod="pad" x1="-819.2" x2="819.2">
      <stop offset="0.0" stop-color="#423e40"/>
      <stop offset="0.36470588235294116" stop-color="#d0d0d0"/>
      <stop offset="0.5176470588235295" stop-color="#9d9d9d"/>
      <stop offset="0.6901960784313725" stop-color="#ffffff"/>
      <stop offset="1.0" stop-color="#585255"/>
    </linearGradient>
  </defs>
</svg>
