<?xml version="1.0" encoding="UTF-8" standalone="no"?>
<svg xmlns:xlink="http://www.w3.org/1999/xlink" height="23.6px" width="107.55px" xmlns="http://www.w3.org/2000/svg">
  <g transform="matrix(1, 0, 0, 1, -7.7, -25.7)">
    <path d="M61.5 25.7 L110.15 25.7 110.1 25.85 115.25 25.85 113.3 30.15 108.05 30.15 107.15 32.15 112.4 32.15 110.0 37.3 104.75 37.3 103.65 39.7 108.85 39.7 104.4 49.3 61.5 49.3 61.5 25.7" fill="#bc100d" fill-rule="evenodd" stroke="none"/>
    <path d="M61.5 25.7 L61.5 49.3 18.5 49.3 14.1 39.7 20.0 39.7 18.95 37.3 12.95 37.3 10.65 32.15 16.55 32.15 15.65 30.15 9.65 30.15 7.7 25.85 13.65 25.85 13.55 25.7 61.5 25.7" fill="#ab100c" fill-rule="evenodd" stroke="none"/>
  </g>
</svg>
