<?xml version="1.0" encoding="UTF-8" standalone="no"?>
<svg xmlns:xlink="http://www.w3.org/1999/xlink" height="43.9px" width="133.1px" xmlns="http://www.w3.org/2000/svg">
  <g transform="matrix(1, 0, 0, 1, 5.25, 0.0)">
    <path d="M26.45 42.75 L26.9 42.5 26.95 41.9 26.95 32.05 30.8 32.05 30.8 41.9 Q30.75 42.3 30.85 42.5 L31.3 42.75 31.55 42.9 31.65 43.15 31.5 43.5 31.25 43.65 31.05 43.65 26.7 43.65 26.5 43.65 26.25 43.5 Q26.1 43.4 26.1 43.15 L26.2 42.9 26.45 42.75 M24.05 35.8 L24.05 35.65 24.05 32.05 26.3 32.05 26.3 32.95 25.65 33.65 25.3 34.5 25.1 35.35 25.0 35.85 24.55 36.1 24.2 36.0 24.05 35.8 M32.1 33.65 L31.5 32.95 31.5 32.05 33.7 32.05 33.7 35.65 33.7 35.8 33.55 36.0 33.2 36.1 32.75 35.85 32.65 35.35 32.45 34.5 32.1 33.65 M35.4 33.2 L34.9 32.95 34.65 32.8 34.55 32.55 34.7 32.2 34.95 32.05 35.15 32.05 39.25 32.05 39.25 41.9 39.3 42.5 39.8 42.75 40.0 42.9 40.1 43.15 40.0 43.5 39.7 43.65 39.55 43.65 35.15 43.65 34.95 43.65 34.7 43.5 34.55 43.15 34.65 42.9 34.9 42.75 35.4 42.5 35.45 41.9 35.45 33.8 35.4 33.2 M67.3 40.8 L66.95 41.85 66.15 42.85 65.0 43.6 63.75 43.9 63.75 43.0 Q64.7 42.8 65.35 42.2 66.05 41.65 66.3 40.8 L66.5 40.45 Q66.6 40.3 66.85 40.3 L67.15 40.45 67.3 40.8 M63.75 31.8 L64.5 31.95 65.35 32.25 65.95 32.45 66.2 32.35 66.35 32.15 66.55 31.9 66.8 31.8 67.15 31.95 67.25 32.2 67.3 32.35 67.3 35.95 67.25 36.15 67.15 36.4 66.8 36.55 66.4 36.35 66.2 35.95 65.8 34.65 65.0 33.45 Q64.5 32.9 63.75 32.7 L63.75 31.8 M75.45 32.5 Q75.45 32.15 75.7 32.1 L76.2 32.05 78.85 32.05 79.4 32.1 Q79.65 32.2 79.7 32.55 L79.5 32.95 79.1 33.1 78.25 33.6 77.65 34.2 77.05 35.0 76.75 35.4 79.25 41.95 79.45 42.4 79.8 42.75 80.05 42.9 80.15 43.25 80.0 43.55 79.7 43.65 79.35 43.65 75.45 43.65 74.9 43.6 74.6 43.15 74.8 42.8 75.1 42.65 75.25 42.4 75.2 42.15 75.15 41.95 74.15 39.05 74.05 38.6 73.95 38.1 74.05 37.7 74.3 37.3 76.1 34.75 76.4 34.3 76.55 33.8 76.35 33.3 75.95 33.0 75.6 32.8 Q75.45 32.75 75.45 32.5 M74.1 32.2 L74.25 32.55 74.15 32.8 73.9 32.95 73.45 33.2 Q73.35 33.35 73.4 33.8 L73.4 41.9 Q73.35 42.3 73.45 42.5 L73.9 42.75 74.15 42.9 74.25 43.15 74.1 43.5 73.85 43.65 69.3 43.65 69.1 43.65 68.85 43.5 68.7 43.15 68.8 42.9 69.05 42.75 69.5 42.5 69.6 41.9 69.6 33.8 69.5 33.2 69.05 32.95 68.8 32.8 68.7 32.55 68.85 32.2 69.1 32.05 69.3 32.05 73.85 32.05 74.1 32.2 M43.0 32.45 L44.2 33.5 Q44.6 34.1 44.6 35.0 44.6 35.9 44.25 36.45 L43.3 37.4 41.85 37.95 43.2 38.3 44.2 38.95 Q44.55 39.4 44.6 40.2 L44.6 41.6 44.6 41.85 44.75 42.05 44.95 41.9 45.15 41.7 45.4 41.6 Q45.6 41.6 45.7 41.75 L45.85 42.05 45.75 42.5 45.4 43.0 45.0 43.3 44.2 43.75 43.25 43.9 42.3 43.75 41.5 43.25 41.0 42.3 40.9 41.25 40.9 40.2 40.85 39.45 40.6 38.85 Q40.4 38.6 39.95 38.55 L39.95 37.6 40.55 37.4 40.85 36.95 40.9 36.25 40.9 34.4 40.7 33.5 Q40.5 33.15 39.95 32.95 L39.95 32.05 40.0 32.05 41.55 32.1 43.0 32.45 M58.7 34.85 Q59.3 33.5 60.45 32.7 61.55 31.85 63.05 31.8 L63.05 32.7 Q62.5 32.85 62.3 33.25 62.05 33.65 62.05 34.15 L62.05 41.5 62.3 42.4 Q62.5 42.85 63.05 43.0 L63.05 43.9 Q61.35 43.85 60.25 43.05 59.15 42.25 58.6 40.95 58.05 39.65 58.05 38.05 58.05 36.25 58.7 34.85 M52.05 32.2 L52.15 32.55 52.1 32.8 51.85 32.95 51.35 33.2 51.3 33.8 51.3 41.25 51.3 41.7 51.55 42.4 Q51.75 42.8 52.35 42.95 L52.35 43.9 50.65 43.8 49.1 43.3 48.05 42.55 47.6 41.85 47.5 41.15 47.5 33.8 47.45 33.2 46.95 32.95 46.75 32.8 46.65 32.55 46.75 32.2 47.05 32.05 47.2 32.05 51.6 32.05 51.8 32.05 52.05 32.2 M54.0 32.8 Q53.85 32.75 53.85 32.5 53.9 32.25 54.05 32.15 L54.4 32.05 54.65 32.05 56.45 32.05 56.75 32.05 57.05 32.15 57.25 32.5 57.1 32.8 56.7 33.0 56.3 33.45 Q56.1 33.8 56.0 34.5 L56.0 40.35 55.65 42.0 54.85 43.05 53.9 43.65 53.05 43.85 53.05 42.95 Q54.1 42.6 54.55 42.0 55.05 41.35 55.1 40.3 L55.1 34.5 54.8 33.45 54.4 33.0 54.0 32.8 M91.85 32.05 L92.1 32.2 92.25 32.55 92.15 32.8 91.9 32.95 Q91.5 33.05 91.45 33.2 L91.35 33.8 91.35 41.9 91.45 42.5 91.9 42.75 92.15 42.9 92.25 43.15 92.1 43.5 91.85 43.65 91.65 43.65 87.1 43.65 86.85 43.5 86.7 43.15 86.8 42.9 87.05 42.75 87.5 42.5 87.55 41.9 87.55 33.8 87.5 33.2 87.05 32.95 86.8 32.8 86.7 32.55 Q86.7 32.3 86.85 32.2 L87.1 32.05 91.65 32.05 91.85 32.05 M93.95 32.95 L93.7 32.8 93.6 32.55 Q93.6 32.3 93.75 32.2 L94.0 32.05 98.55 32.05 98.75 32.05 99.0 32.2 99.15 32.55 99.05 32.8 98.8 32.95 Q98.4 33.05 98.35 33.2 L98.25 33.8 98.25 41.9 98.35 42.5 98.8 42.75 99.05 42.9 99.15 43.15 99.0 43.5 98.75 43.65 98.55 43.65 94.0 43.65 93.75 43.5 93.6 43.15 93.7 42.9 93.95 42.75 94.4 42.5 94.45 41.9 94.45 33.8 94.4 33.2 Q94.35 33.05 93.95 32.95" fill="url(#gradient0)" fill-rule="evenodd" stroke="none"/>
    <path d="M121.7 11.75 L114.9 11.75 113.65 14.15 120.5 14.15 114.35 25.85 8.1 25.85 2.05 14.15 9.6 14.15 8.4 11.75 0.8 11.75 -2.25 5.75 5.3 5.75 4.25 3.75 -3.3 3.75 -5.25 0.0 127.85 0.0 125.9 3.75 119.05 3.75 118.05 5.75 124.85 5.75 121.7 11.75" fill="#ffffff" fill-rule="evenodd" stroke="none"/>
    <path d="M61.5 25.95 L8.1 25.95 2.05 14.25 9.6 14.25 8.4 11.85 0.8 11.85 -2.25 5.85 5.3 5.85 4.25 3.85 -3.3 3.85 -5.25 0.1 61.5 0.1 61.5 25.95" fill="#f0f0f0" fill-rule="evenodd" stroke="none"/>
  </g>
  <defs>
    <linearGradient gradientTransform="matrix(0.0, 0.0068, -0.0458, 0.0, 61.6, 37.7)" gradientUnits="userSpaceOnUse" id="gradient0" spreadMethod="pad" x1="-819.2" x2="819.2">
      <stop offset="0.0" stop-color="#ffffff"/>
      <stop offset="1.0" stop-color="#cccccc"/>
    </linearGradient>
  </defs>
</svg>
