<?xml version="1.0" encoding="UTF-8" standalone="no"?>
<svg xmlns:xlink="http://www.w3.org/1999/xlink" height="4.95px" width="90.55px" xmlns="http://www.w3.org/2000/svg">
  <g transform="matrix(1, 0, 0, 1, -16.65, -22.75)">
    <path d="M62.0 27.55 L59.7 22.75 63.0 22.75 65.3 27.55 62.0 27.55" fill="#e4e4e4" fill-rule="evenodd" stroke="none"/>
    <path d="M84.7 27.55 L81.4 27.55 79.1 22.75 82.4 22.75 84.7 27.55" fill="#e4e4e4" fill-rule="evenodd" stroke="none"/>
    <path d="M78.65 27.7 L76.35 22.95 79.65 22.95 81.95 27.7 78.65 27.7" fill="#bc100d" fill-rule="evenodd" stroke="none"/>
    <path d="M75.35 27.55 L73.05 22.75 76.35 22.75 78.65 27.55 75.35 27.55" fill="#e4e4e4" fill-rule="evenodd" stroke="none"/>
    <path d="M69.95 22.95 L73.2 22.95 75.5 27.7 72.25 27.7 69.95 22.95" fill="#bc100d" fill-rule="evenodd" stroke="none"/>
    <path d="M68.85 27.55 L66.55 22.75 69.85 22.75 72.15 27.55 68.85 27.55" fill="#e4e4e4" fill-rule="evenodd" stroke="none"/>
    <path d="M66.15 27.7 L63.85 22.95 67.1 22.95 69.4 27.7 66.15 27.7" fill="#bc100d" fill-rule="evenodd" stroke="none"/>
    <path d="M62.85 27.55 L60.55 22.75 63.85 22.75 66.15 27.55 62.85 27.55" fill="#e4e4e4" fill-rule="evenodd" stroke="none"/>
    <path d="M97.45 22.75 L100.75 22.75 103.05 27.55 99.75 27.55 97.45 22.75" fill="#e4e4e4" fill-rule="evenodd" stroke="none"/>
    <path d="M96.95 27.7 L94.7 22.95 97.95 22.95 100.25 27.7 96.95 27.7" fill="#bc100d" fill-rule="evenodd" stroke="none"/>
    <path d="M93.65 27.55 L91.4 22.75 94.7 22.75 96.95 27.55 93.65 27.55" fill="#e4e4e4" fill-rule="evenodd" stroke="none"/>
    <path d="M90.6 27.7 L88.25 22.95 91.55 22.95 93.85 27.7 90.6 27.7" fill="#bc100d" fill-rule="evenodd" stroke="none"/>
    <path d="M87.15 27.55 L84.85 22.75 88.2 22.75 90.45 27.55 87.15 27.55" fill="#e4e4e4" fill-rule="evenodd" stroke="none"/>
    <path d="M82.15 22.95 L85.45 22.95 87.75 27.7 84.5 27.7 82.15 22.95" fill="#bc100d" fill-rule="evenodd" stroke="none"/>
    <path d="M103.9 27.7 L101.6 22.95 104.85 22.95 107.2 27.7 103.9 27.7" fill="#bc100d" fill-rule="evenodd" stroke="none"/>
    <path d="M98.3 22.75 L101.6 22.75 103.9 27.55 100.6 27.55 98.3 22.75" fill="#e4e4e4" fill-rule="evenodd" stroke="none"/>
    <path d="M64.15 22.75 L61.85 27.55 58.55 27.55 60.85 22.75 64.15 22.75" fill="#e4e4e4" fill-rule="evenodd" stroke="none"/>
    <path d="M42.4 27.55 L39.1 27.55 41.45 22.75 44.75 22.75 42.4 27.55" fill="#e4e4e4" fill-rule="evenodd" stroke="none"/>
    <path d="M47.45 22.95 L45.15 27.7 41.9 27.7 44.2 22.95 47.45 22.95" fill="#bc100d" fill-rule="evenodd" stroke="none"/>
    <path d="M50.75 22.75 L48.45 27.55 45.15 27.55 47.45 22.75 50.75 22.75" fill="#e4e4e4" fill-rule="evenodd" stroke="none"/>
    <path d="M53.9 22.95 L51.6 27.7 48.35 27.7 50.65 22.95 53.9 22.95" fill="#bc100d" fill-rule="evenodd" stroke="none"/>
    <path d="M55.0 27.55 L51.7 27.55 54.0 22.75 57.3 22.75 55.0 27.55" fill="#e4e4e4" fill-rule="evenodd" stroke="none"/>
    <path d="M56.75 22.95 L60.0 22.95 57.7 27.7 54.45 27.7 56.75 22.95" fill="#bc100d" fill-rule="evenodd" stroke="none"/>
    <path d="M63.3 22.75 L61.0 27.55 57.7 27.55 60.0 22.75 63.3 22.75" fill="#e4e4e4" fill-rule="evenodd" stroke="none"/>
    <path d="M24.1 27.55 L20.8 27.55 23.1 22.75 26.4 22.75 24.1 27.55" fill="#e4e4e4" fill-rule="evenodd" stroke="none"/>
    <path d="M25.85 22.95 L29.15 22.95 26.9 27.7 23.55 27.7 25.85 22.95" fill="#bc100d" fill-rule="evenodd" stroke="none"/>
    <path d="M32.5 22.75 L30.2 27.55 26.9 27.55 29.15 22.75 32.5 22.75" fill="#e4e4e4" fill-rule="evenodd" stroke="none"/>
    <path d="M35.55 22.95 L33.3 27.7 30.0 27.7 32.3 22.95 35.55 22.95" fill="#bc100d" fill-rule="evenodd" stroke="none"/>
    <path d="M39.0 22.75 L36.7 27.55 33.4 27.55 35.65 22.75 39.0 22.75" fill="#e4e4e4" fill-rule="evenodd" stroke="none"/>
    <path d="M36.1 27.7 L38.4 22.95 41.65 22.95 39.35 27.7 36.1 27.7" fill="#bc100d" fill-rule="evenodd" stroke="none"/>
    <path d="M22.25 22.95 L19.95 27.7 16.65 27.7 18.95 22.95 22.25 22.95" fill="#bc100d" fill-rule="evenodd" stroke="none"/>
    <path d="M23.25 27.55 L19.95 27.55 22.25 22.75 25.55 22.75 23.25 27.55" fill="#e4e4e4" fill-rule="evenodd" stroke="none"/>
  </g>
</svg>
