<?xml version="1.0" encoding="UTF-8" standalone="no"?>
<svg xmlns:xlink="http://www.w3.org/1999/xlink" height="17.65px" width="147.65px" xmlns="http://www.w3.org/2000/svg">
  <g transform="matrix(1, 0, 0, 1, 0.0, 0.0)">
    <path d="M147.65 2.45 L147.65 15.2 Q147.65 17.65 145.15 17.65 L2.4 17.65 Q0.0 17.65 0.0 15.2 L0.0 2.45 Q0.0 0.0 2.4 0.0 L145.15 0.0 Q147.65 0.0 147.65 2.45 M145.15 17.3 Q147.3 17.3 147.3 15.2 L147.3 2.45 Q147.3 0.3 145.15 0.3 L2.4 0.3 Q0.3 0.3 0.3 2.45 L0.3 15.2 Q0.3 17.3 2.4 17.3 L145.15 17.3" fill="#cccccc" fill-rule="evenodd" stroke="none"/>
    <path d="M145.15 17.3 L2.4 17.3 Q0.3 17.3 0.3 15.2 L0.3 2.45 Q0.3 0.3 2.4 0.3 L145.15 0.3 Q147.3 0.3 147.3 2.45 L147.3 15.2 Q147.3 17.3 145.15 17.3" fill="url(#gradient0)" fill-rule="evenodd" stroke="none"/>
  </g>
  <defs>
    <linearGradient gradientTransform="matrix(0.0, 0.0107, -0.0106, 0.0, 8.95, 8.8)" gradientUnits="userSpaceOnUse" id="gradient0" spreadMethod="pad" x1="-819.2" x2="819.2">
      <stop offset="0.03529411764705882" stop-color="#a2a2a2"/>
      <stop offset="0.17647058823529413" stop-color="#5e5e5e"/>
      <stop offset="0.5254901960784314" stop-color="#222222"/>
      <stop offset="0.6039215686274509" stop-color="#000000"/>
      <stop offset="0.8627450980392157" stop-color="#151515"/>
      <stop offset="0.9607843137254902" stop-color="#515151"/>
    </linearGradient>
  </defs>
</svg>
