<?xml version="1.0" encoding="UTF-8" standalone="no"?>
<svg xmlns:xlink="http://www.w3.org/1999/xlink" height="11.3px" width="4.35px" xmlns="http://www.w3.org/2000/svg">
  <g transform="matrix(1, 0, 0, 1, 0.0, 0.0)">
    <path d="M1.85 0.0 L2.5 0.0 Q3.3 0.0 3.85 0.4 4.35 0.85 4.35 1.45 L4.35 9.85 Q4.35 10.45 3.85 10.85 L2.5 11.3 1.85 11.3 0.55 10.85 Q0.0 10.45 0.0 9.85 L0.0 1.45 Q0.0 0.85 0.55 0.4 1.1 0.0 1.85 0.0" fill="#000000" fill-rule="evenodd" stroke="none"/>
    <path d="M3.7 0.4 Q4.15 0.8 4.15 1.4 L4.15 9.85 Q4.15 10.45 3.7 10.85 3.2 11.25 2.55 11.25 L1.9 11.25 Q1.25 11.25 0.75 10.85 0.3 10.45 0.3 9.85 L0.3 1.4 Q0.3 0.8 0.75 0.4 1.25 0.0 1.9 0.0 L2.55 0.0 Q3.2 0.0 3.7 0.4" fill="url(#gradient0)" fill-rule="evenodd" stroke="none"/>
    <path d="M1.05 1.4 L1.45 1.9 Q2.2 2.55 2.2 2.9 L2.0 3.15 1.2 2.3 0.8 1.9 0.55 1.5 0.7 1.3 1.05 1.4 M1.9 3.8 Q3.5 1.35 3.5 2.45 L2.15 4.1 1.95 3.95 1.9 3.8 M0.4 3.6 Q0.4 3.15 0.85 3.5 L1.35 4.0 Q2.4 4.65 2.4 4.95 L2.1 5.2 Q1.8 5.2 1.8 5.05 L1.8 4.8 1.2 4.4 0.4 3.6 M0.7 5.75 L1.45 6.3 2.0 6.8 2.55 7.25 2.25 7.5 1.1 6.65 0.5 6.05 0.5 5.6 0.7 5.75 M2.3 5.45 L2.75 4.85 3.35 4.2 Q3.85 3.75 3.85 4.3 L2.15 6.3 1.9 6.05 2.3 5.45 M3.05 7.7 Q2.45 8.65 2.15 8.65 L1.9 8.4 2.95 7.05 Q4.0 5.9 4.0 6.65 L3.05 7.7 M0.5 8.55 L0.5 7.85 1.35 8.75 1.55 9.0 1.95 9.25 2.4 9.7 2.15 10.0 Q1.75 10.0 0.5 8.55" fill="#000000" fill-rule="evenodd" stroke="none"/>
  </g>
  <defs>
    <radialGradient cx="0" cy="0" gradientTransform="matrix(0.003, 0.0, 0.0, 0.007, 2.2, 5.6)" gradientUnits="userSpaceOnUse" id="gradient0" r="819.2" spreadMethod="pad">
      <stop offset="0.0" stop-color="#7b7b7b"/>
      <stop offset="1.0" stop-color="#000000"/>
    </radialGradient>
  </defs>
</svg>
