<?xml version="1.0" encoding="UTF-8" standalone="no"?>
<svg xmlns:xlink="http://www.w3.org/1999/xlink" height="24.75px" width="44.35px" xmlns="http://www.w3.org/2000/svg">
  <g transform="matrix(1, 0, 0, 1, 0.0, 0.0)">
    <path d="M41.85 24.4 Q44.0 24.4 44.0 22.3 L44.0 2.45 Q44.0 0.3 41.85 0.3 L2.4 0.3 Q0.3 0.3 0.3 2.45 L0.3 22.3 Q0.3 24.4 2.4 24.4 L41.85 24.4 M44.35 2.45 L44.35 22.3 Q44.35 24.75 41.85 24.75 L2.4 24.75 Q0.0 24.75 0.0 22.3 L0.0 2.45 Q0.0 0.0 2.4 0.0 L41.85 0.0 Q44.35 0.0 44.35 2.45" fill="#cccccc" fill-rule="evenodd" stroke="none"/>
    <path d="M41.85 24.4 L2.4 24.4 Q0.3 24.4 0.3 22.3 L0.3 2.45 Q0.3 0.3 2.4 0.3 L41.85 0.3 Q44.0 0.3 44.0 2.45 L44.0 22.3 Q44.0 24.4 41.85 24.4" fill="url(#gradient0)" fill-rule="evenodd" stroke="none"/>
  </g>
  <defs>
    <linearGradient gradientTransform="matrix(0.0, 0.0172, -0.0106, 0.0, 9.35, 11.2)" gradientUnits="userSpaceOnUse" id="gradient0" spreadMethod="pad" x1="-819.2" x2="819.2">
      <stop offset="0.03529411764705882" stop-color="#a2a2a2"/>
      <stop offset="0.17647058823529413" stop-color="#5e5e5e"/>
      <stop offset="0.5254901960784314" stop-color="#222222"/>
      <stop offset="0.6039215686274509" stop-color="#000000"/>
      <stop offset="0.8627450980392157" stop-color="#151515"/>
      <stop offset="0.9607843137254902" stop-color="#515151"/>
    </linearGradient>
  </defs>
</svg>
