<?xml version="1.0" encoding="UTF-8" standalone="no"?>
<svg xmlns:xlink="http://www.w3.org/1999/xlink" height="67.0px" width="105.85px" xmlns="http://www.w3.org/2000/svg">
  <g transform="matrix(1, 0, 0, 1, 0.0, 0.0)">
    <path d="M105.7 10.85 L105.85 33.6 Q106.0 45.25 104.7 53.5 103.4 61.7 101.0 63.1 98.55 64.45 95.0 64.9 92.85 65.8 65.0 64.95 37.4 64.0 2.25 66.85 L2.2 66.85 0.75 66.95 0.25 66.95 0.2 67.0 0.2 66.95 Q-0.2 66.95 0.2 66.85 0.7 64.85 1.1 45.2 1.5 23.6 1.3 12.1 1.05 0.6 1.45 0.85 L24.45 2.0 Q47.1 2.9 76.6 1.35 L105.7 0.05 105.7 10.85" fill="url(#gradient0)" fill-rule="evenodd" stroke="none"/>
    <path d="M95.65 56.2 L95.05 58.1 93.65 61.15 Q92.25 62.65 64.95 61.8 37.6 60.9 2.7 63.65 0.9 25.1 3.75 2.0 46.8 3.5 103.6 1.0 105.8 25.4 103.7 33.2 L103.35 33.95 103.7 32.35 Q100.9 38.8 87.55 54.45 L88.65 53.85 Q90.05 53.45 91.65 54.45 93.65 55.75 94.25 57.45 94.65 58.6 94.35 59.5 L95.65 56.2" fill="url(#gradient1)" fill-rule="evenodd" stroke="none"/>
    <path d="M103.35 33.95 Q102.0 40.15 99.4 46.75 L95.65 56.2 94.35 59.5 Q94.65 58.6 94.25 57.45 93.65 55.75 91.65 54.45 90.05 53.45 88.65 53.85 L87.55 54.45 Q100.9 38.8 103.7 32.35 L103.35 33.95" fill="url(#gradient2)" fill-rule="evenodd" stroke="none"/>
    <path d="M103.35 33.95 Q102.0 40.15 99.4 46.75 L95.65 56.2 95.05 58.1 93.65 61.15 Q92.25 62.65 64.95 61.8 37.6 60.9 2.7 63.65 0.9 25.1 3.75 2.0 46.8 3.5 103.6 1.0 105.8 25.4 103.7 33.2 L103.35 33.95 103.7 32.35 Q100.9 38.8 87.55 54.45 L88.65 53.85 Q90.05 53.45 91.65 54.45 93.65 55.75 94.25 57.45 94.65 58.6 94.35 59.5 L95.65 56.2" fill="none" stroke="#bd9802" stroke-linecap="round" stroke-linejoin="round" stroke-width="0.5"/>
    <path d="M5.65 4.25 Q6.15 3.75 6.9 3.75 7.65 3.75 8.15 4.25 8.7 4.75 8.7 5.5 8.7 6.25 8.15 6.75 7.65 7.25 6.9 7.25 6.15 7.25 5.65 6.75 5.15 6.25 5.15 5.5 5.15 4.75 5.65 4.25 M6.95 4.6 L6.3 4.85 6.1 5.45 6.3 6.05 6.95 6.3 7.55 6.05 7.8 5.45 7.55 4.85 Q7.3 4.6 6.95 4.6" fill="#f0f6f4" fill-rule="evenodd" stroke="none"/>
    <path d="M6.95 4.6 Q7.3 4.6 7.55 4.85 L7.8 5.45 7.55 6.05 6.95 6.3 6.3 6.05 6.1 5.45 6.3 4.85 6.95 4.6" fill="#cccccc" fill-rule="evenodd" stroke="none"/>
    <path d="M5.65 4.25 Q6.15 3.75 6.9 3.75 7.65 3.75 8.15 4.25 8.7 4.75 8.7 5.5 8.7 6.25 8.15 6.75 7.65 7.25 6.9 7.25 6.15 7.25 5.65 6.75 5.15 6.25 5.15 5.5 5.15 4.75 5.65 4.25" fill="none" stroke="#000000" stroke-linecap="round" stroke-linejoin="round" stroke-opacity="0.49803922" stroke-width="0.45"/>
    <path d="M101.7 4.05 L101.45 3.45 Q101.2 3.2 100.85 3.2 100.5 3.2 100.2 3.45 L100.0 4.05 100.2 4.65 100.85 4.9 101.45 4.65 101.7 4.05 M102.05 5.35 Q101.55 5.85 100.8 5.85 100.05 5.85 99.55 5.35 99.05 4.85 99.05 4.1 99.05 3.35 99.55 2.85 100.05 2.35 100.8 2.35 101.55 2.35 102.05 2.85 102.6 3.35 102.6 4.1 102.6 4.85 102.05 5.35" fill="#f0f6f4" fill-rule="evenodd" stroke="none"/>
    <path d="M101.7 4.05 L101.45 4.65 100.85 4.9 100.2 4.65 100.0 4.05 100.2 3.45 Q100.5 3.2 100.85 3.2 101.2 3.2 101.45 3.45 L101.7 4.05" fill="#cccccc" fill-rule="evenodd" stroke="none"/>
    <path d="M102.05 5.35 Q101.55 5.85 100.8 5.85 100.05 5.85 99.55 5.35 99.05 4.85 99.05 4.1 99.05 3.35 99.55 2.85 100.05 2.35 100.8 2.35 101.55 2.35 102.05 2.85 102.6 3.35 102.6 4.1 102.6 4.85 102.05 5.35" fill="none" stroke="#000000" stroke-linecap="round" stroke-linejoin="round" stroke-opacity="0.49803922" stroke-width="0.45"/>
  </g>
  <defs>
    <radialGradient cx="0" cy="0" gradientTransform="matrix(0.08, 0.0, 0.0, 0.0531, 53.3, 33.65)" gradientUnits="userSpaceOnUse" id="gradient0" r="819.2" spreadMethod="pad">
      <stop offset="0.0" stop-color="#000000"/>
      <stop offset="1.0" stop-color="#000000" stop-opacity="0.29803923"/>
    </radialGradient>
    <radialGradient cx="0" cy="0" gradientTransform="matrix(0.0945, -0.0046, 0.0062, 0.1064, 53.8, 70.45)" gradientUnits="userSpaceOnUse" id="gradient1" r="819.2" spreadMethod="pad">
      <stop offset="0.0" stop-color="#fffc04"/>
      <stop offset="1.0" stop-color="#ffc004"/>
    </radialGradient>
    <linearGradient gradientTransform="matrix(0.0051, 0.0022, -0.0081, 0.0161, 95.4, 47.25)" gradientUnits="userSpaceOnUse" id="gradient2" spreadMethod="pad" x1="-819.2" x2="819.2">
      <stop offset="0.0" stop-color="#ffe033"/>
      <stop offset="0.3137254901960784" stop-color="#feea8b"/>
      <stop offset="1.0" stop-color="#d9a300"/>
    </linearGradient>
  </defs>
</svg>
