<?xml version="1.0" encoding="UTF-8" standalone="no"?>
<svg xmlns:xlink="http://www.w3.org/1999/xlink" height="119.6px" width="136.45px" xmlns="http://www.w3.org/2000/svg">
  <g transform="matrix(1, 0, 0, 1, 9.05, 4.6)">
    <path d="M3.05 -4.6 L115.3 -4.6 Q127.4 -4.6 127.4 7.5 L127.4 102.9 Q127.4 115.0 115.3 115.0 L3.05 115.0 Q-9.05 115.0 -9.05 102.9 L-9.05 7.5 Q-9.05 -4.6 3.05 -4.6" fill="#ffffff" fill-opacity="0.0" fill-rule="evenodd" stroke="none"/>
    <path d="M106.45 5.65 L89.8 5.65 85.5 5.65 68.85 5.65 Q67.15 9.65 67.15 15.25 L67.15 17.0 69.1 17.0 69.1 27.2 63.3 27.2 63.3 17.0 60.6 17.0 60.6 14.6 Q60.6 5.95 63.75 0.0 L111.55 0.0 Q114.7 5.95 114.7 14.6 L114.7 17.0 112.0 17.0 112.0 27.2 106.2 27.2 106.2 17.0 108.15 17.0 108.15 15.25 Q108.15 9.65 106.45 5.65 M87.95 14.6 Q87.4 14.6 87.05 14.2 86.7 13.85 86.7 13.3 L86.7 13.05 87.05 12.4 Q87.4 12.05 87.95 12.05 88.5 12.05 88.85 12.4 L89.2 13.05 89.25 13.3 Q89.25 13.85 88.85 14.2 88.5 14.6 87.95 14.6 M83.55 17.95 L83.5 17.2 105.15 17.2 105.15 26.95 70.05 26.95 70.05 17.2 76.95 17.2 76.85 17.95 Q76.85 19.3 77.85 20.3 78.85 21.3 80.2 21.3 81.6 21.3 82.6 20.3 83.55 19.3 83.55 17.95 M76.95 17.2 Q77.15 16.25 77.85 15.55 78.85 14.6 80.2 14.6 81.6 14.6 82.6 15.55 83.3 16.25 83.5 17.2 L76.95 17.2 M95.3 20.95 Q94.65 20.95 94.2 21.4 L93.8 22.2 93.75 22.5 Q93.75 23.15 94.2 23.6 94.65 24.05 95.3 24.05 95.95 24.05 96.4 23.6 96.85 23.15 96.85 22.5 L96.8 22.2 96.4 21.4 Q95.95 20.95 95.3 20.95 M85.9 44.75 L88.45 29.75 95.2 29.75 95.2 54.4 91.0 54.4 91.0 35.6 87.75 54.4 84.0 54.4 80.75 35.6 80.75 54.4 76.6 54.4 76.6 29.75 83.3 29.75 85.9 44.75 M112.05 35.0 L103.5 35.0 103.5 38.95 111.45 38.95 111.45 43.95 103.5 43.95 103.5 48.8 112.3 48.8 112.3 54.4 98.4 54.4 98.4 29.75 112.05 29.75 112.05 35.0 M108.9 56.6 Q109.9 57.0 110.55 57.95 111.8 59.75 111.8 62.3 111.8 64.5 110.9 66.05 110.3 67.1 109.15 67.7 110.9 68.35 111.75 69.9 112.6 71.45 112.6 73.8 112.6 75.7 112.0 77.25 111.4 78.75 110.35 79.65 109.85 80.1 108.9 80.35 L108.4 80.5 106.15 80.8 88.25 80.8 88.25 56.15 106.9 56.15 Q108.1 56.15 108.9 56.6 M95.65 61.15 L93.4 61.15 93.4 65.85 95.6 65.85 Q96.8 65.85 97.3 65.2 97.75 64.6 97.75 63.45 97.75 62.35 97.3 61.75 96.8 61.15 95.65 61.15 M96.0 70.5 L93.4 70.5 93.4 75.5 96.0 75.5 Q97.35 75.5 97.85 74.85 98.4 74.15 98.4 72.95 98.4 71.8 97.85 71.2 97.3 70.5 96.0 70.5 M50.65 43.4 L50.65 29.75 55.5 29.75 55.5 54.4 50.65 54.4 44.5 40.85 44.5 54.4 39.7 54.4 39.7 29.75 44.45 29.75 50.65 43.4 M68.8 29.75 L75.05 54.4 69.7 54.4 68.85 50.35 63.05 50.35 62.25 54.4 57.05 54.4 63.25 29.75 68.8 29.75 M64.15 45.0 L67.8 45.0 66.0 36.15 64.15 45.0 M12.15 43.4 L12.15 29.75 17.0 29.75 17.0 54.4 12.15 54.4 6.0 40.85 6.0 80.65 0.1 80.65 0.1 29.75 5.95 29.75 12.15 43.4 M28.3 29.35 Q32.4 29.35 34.65 32.65 36.9 35.95 36.9 41.9 36.9 46.2 35.9 49.0 34.95 51.75 33.1 53.3 31.25 54.8 28.5 54.8 25.7 54.8 23.85 53.5 22.05 52.15 20.9 49.3 19.75 46.4 19.75 42.1 19.75 36.05 22.0 32.7 24.25 29.35 28.3 29.35 M25.8 36.75 Q24.85 38.35 24.85 42.15 24.85 45.85 25.8 47.5 26.7 49.1 28.3 49.1 29.95 49.1 30.85 47.55 31.75 45.95 31.75 41.8 31.75 38.3 30.85 36.7 29.9 35.1 28.25 35.1 26.75 35.1 25.8 36.75 M11.95 84.2 Q12.15 86.6 13.15 88.7 14.15 90.8 15.95 92.55 19.55 96.25 24.5 96.65 L24.5 93.6 Q20.85 93.2 18.1 90.55 15.35 87.85 14.95 84.2 L11.95 84.2 M19.15 84.4 L18.75 84.85 18.6 84.9 18.45 84.9 18.45 84.95 18.3 85.05 18.3 85.2 18.3 85.25 18.6 86.05 18.65 86.15 18.7 86.2 18.8 86.3 19.0 86.3 19.05 86.25 19.1 86.2 19.7 86.2 20.15 86.65 20.15 87.25 20.05 87.45 19.95 87.5 19.85 87.55 19.8 87.75 19.8 87.9 19.85 87.95 20.45 88.6 20.55 88.65 20.7 88.7 20.9 88.65 20.9 88.6 20.95 88.6 20.95 88.55 21.05 88.45 21.2 88.35 21.45 88.3 21.5 88.3 21.6 88.3 21.8 88.35 22.0 88.45 22.05 88.5 22.3 89.05 22.25 89.3 22.25 89.35 22.2 89.5 22.1 89.6 22.1 89.8 22.2 89.9 22.25 89.95 23.05 90.3 23.15 90.3 23.2 90.3 23.4 90.3 23.5 90.15 23.5 90.1 23.55 90.05 23.95 89.6 24.55 89.6 24.95 90.0 25.05 90.25 25.05 90.3 25.0 90.45 25.1 90.6 25.2 90.7 25.25 90.7 26.15 90.7 26.25 90.7 26.3 90.7 26.45 90.6 26.5 90.45 26.5 90.35 26.5 90.3 26.5 90.05 26.9 89.6 27.5 89.6 27.9 90.0 28.0 90.15 28.0 90.25 28.0 90.3 28.15 90.4 28.3 90.4 28.35 90.4 28.7 90.25 29.15 90.05 29.2 90.0 29.25 90.0 29.35 89.85 29.35 89.7 29.35 89.65 29.3 89.6 29.3 89.55 Q29.15 89.25 29.25 88.95 L29.65 88.5 30.2 88.45 30.45 88.6 30.55 88.65 30.6 88.75 30.8 88.85 30.9 88.8 30.95 88.75 31.6 88.15 31.65 88.05 31.7 87.9 31.65 87.7 31.6 87.7 31.55 87.65 31.5 87.65 31.45 87.55 31.35 87.4 31.3 86.8 31.4 86.6 31.45 86.5 Q31.65 86.3 32.0 86.25 L32.25 86.3 32.3 86.3 32.45 86.35 32.55 86.45 32.75 86.45 32.85 86.35 32.9 86.3 33.05 85.8 33.2 85.45 33.2 85.35 33.25 85.35 33.2 85.15 33.05 85.05 33.0 85.05 32.95 85.0 32.5 84.65 Q32.4 84.4 32.45 84.15 L19.25 84.15 19.15 84.4 M1.4 85.15 L1.2 85.15 0.95 85.25 0.35 85.0 0.05 84.5 0.05 84.4 0.05 84.2 0.05 84.15 0.05 84.05 0.0 82.85 41.55 82.85 51.55 82.85 51.55 84.35 51.55 84.55 51.35 84.95 50.8 85.2 50.75 85.2 50.35 85.2 50.25 85.15 49.35 85.45 Q48.35 85.95 48.05 86.95 47.7 87.95 48.15 88.9 48.65 89.85 49.65 90.2 L49.85 90.25 50.1 90.3 50.55 90.7 50.65 91.3 50.6 91.35 50.6 91.4 50.5 91.7 50.1 92.85 49.45 94.4 49.35 94.6 49.05 94.95 48.4 94.95 48.35 94.95 48.05 94.7 47.55 94.5 47.3 94.4 46.5 94.35 Q45.45 94.45 44.7 95.2 L44.55 95.45 Q44.3 95.75 44.2 96.15 43.85 97.15 44.35 98.1 L44.75 98.7 44.7 98.7 44.9 98.9 45.1 99.0 45.25 99.15 45.3 99.15 45.55 99.75 45.4 100.25 45.35 100.35 45.3 100.35 45.15 100.6 43.05 102.7 42.95 102.8 42.5 102.95 41.9 102.7 41.65 102.3 41.45 102.1 40.6 101.7 38.7 101.85 Q37.7 102.3 37.35 103.3 37.05 104.3 37.5 105.3 L37.55 105.45 37.75 105.65 37.75 105.7 37.75 106.3 37.4 106.75 37.3 106.75 37.0 106.9 35.55 107.6 34.35 108.05 34.2 108.1 33.75 108.15 33.25 107.7 33.25 107.65 33.2 107.25 32.95 106.7 Q32.55 105.75 31.5 105.4 L29.55 105.5 Q28.65 105.95 28.3 106.95 L28.2 107.8 28.2 108.0 28.25 108.25 28.0 108.85 27.55 109.1 27.45 109.1 27.1 109.1 24.15 109.05 23.95 109.05 23.55 108.8 23.3 108.2 23.4 107.8 23.45 107.65 23.15 106.75 Q22.7 105.8 21.7 105.4 L19.7 105.45 Q18.7 105.9 18.35 106.9 L18.25 107.05 18.25 107.3 18.2 107.3 18.2 107.35 17.85 107.85 17.25 107.85 17.2 107.8 17.15 107.8 16.8 107.7 14.1 106.55 13.95 106.45 13.6 106.1 13.6 105.45 13.6 105.4 13.9 105.1 14.15 104.6 14.15 104.5 14.3 103.65 Q14.25 102.55 13.5 101.8 L13.3 101.6 12.6 101.3 11.9 101.1 11.65 101.1 11.4 101.15 10.65 101.3 10.1 101.7 9.85 101.9 9.75 102.05 9.6 102.2 9.55 102.25 8.95 102.5 8.45 102.35 8.4 102.3 8.4 102.25 8.15 102.05 6.1 99.9 6.0 99.75 5.9 99.35 Q5.9 98.95 6.15 98.7 L6.45 98.5 6.75 98.3 7.15 97.55 Q7.5 96.55 7.1 95.6 6.65 94.55 5.7 94.2 4.65 93.8 3.7 94.2 L3.55 94.3 3.3 94.5 2.7 94.5 2.25 94.1 2.2 94.0 2.05 93.7 1.05 90.95 0.95 90.75 Q0.9 90.5 1.0 90.35 1.15 90.0 1.45 89.9 L1.5 89.85 1.9 89.75 2.45 89.6 Q3.4 89.15 3.8 88.2 4.05 87.45 3.9 86.65 L3.25 85.75 Q2.45 85.1 1.4 85.15 M36.5 84.1 Q36.15 87.75 33.5 90.45 30.7 93.2 27.1 93.55 L27.1 96.65 Q31.95 96.2 35.55 92.5 39.15 88.95 39.5 84.05 L36.5 84.1 M35.3 74.75 L43.0 74.75 43.0 80.8 8.7 80.8 8.7 56.15 35.3 56.15 35.3 74.75 M53.55 71.4 L57.2 71.4 55.4 62.55 53.55 71.4 M52.45 76.75 L51.65 80.8 46.45 80.8 52.65 56.15 78.65 56.15 84.85 80.8 59.1 80.8 58.25 76.75 52.45 76.75" fill="#0066cc" fill-rule="evenodd" stroke="none"/>
    <path d="M1.9 103.1 L1.95 103.1 1.55 103.55 1.9 103.1" fill="#ffffff" fill-rule="evenodd" stroke="none"/>
  </g>
</svg>
