<?xml version="1.0" encoding="UTF-8" standalone="no"?>
<svg xmlns:xlink="http://www.w3.org/1999/xlink" height="25.25px" width="25.65px" xmlns="http://www.w3.org/2000/svg">
  <g transform="matrix(1, 0, 0, 1, 0.3, 0.2)">
    <path d="M25.1 21.55 Q25.1 24.8 21.8 24.8 L3.2 24.8 Q-0.05 24.8 -0.05 21.55 L-0.05 3.35 Q-0.05 0.05 3.2 0.05 L21.8 0.05 Q25.1 0.05 25.1 3.35 L25.1 21.55" fill="url(#gradient0)" fill-rule="evenodd" stroke="none"/>
    <path d="M25.1 21.55 L25.1 3.35 Q25.1 0.05 21.8 0.05 L3.2 0.05 Q-0.05 0.05 -0.05 3.35 L-0.05 21.55 Q-0.05 24.8 3.2 24.8 L21.8 24.8 Q25.1 24.8 25.1 21.55" fill="none" stroke="#cccccc" stroke-linecap="round" stroke-linejoin="round" stroke-width="0.5"/>
  </g>
  <defs>
    <linearGradient gradientTransform="matrix(0.0, 0.0153, -0.0151, 0.0, 12.5, 12.4)" gradientUnits="userSpaceOnUse" id="gradient0" spreadMethod="pad" x1="-819.2" x2="819.2">
      <stop offset="0.03529411764705882" stop-color="#a2a2a2"/>
      <stop offset="0.17647058823529413" stop-color="#5e5e5e"/>
      <stop offset="0.5254901960784314" stop-color="#222222"/>
      <stop offset="0.6039215686274509" stop-color="#000000"/>
      <stop offset="0.8627450980392157" stop-color="#151515"/>
      <stop offset="0.9607843137254902" stop-color="#515151"/>
    </linearGradient>
  </defs>
</svg>
