<?xml version="1.0" encoding="UTF-8" standalone="no"?>
<svg xmlns:xlink="http://www.w3.org/1999/xlink" height="12.75px" width="13.6px" xmlns="http://www.w3.org/2000/svg">
  <g transform="matrix(1, 0, 0, 1, -5.45, -5.25)">
    <path d="M16.15 6.05 L17.15 5.25 17.65 5.95 Q19.05 8.3 19.05 11.55 19.05 14.85 17.65 17.2 L17.1 18.0 16.05 17.2 16.7 16.3 Q17.9 14.35 17.9 11.55 17.9 8.8 16.7 6.8 L16.15 6.05 M15.4 6.8 Q16.75 8.85 16.75 11.55 16.75 14.45 15.25 16.55 L14.4 15.75 Q15.65 13.95 15.65 11.55 15.65 9.3 14.55 7.6 L15.4 6.8 M8.45 9.25 L12.45 6.0 12.45 17.35 8.45 14.1 5.45 14.1 5.45 9.25 8.45 9.25" fill="#ffffff" fill-rule="evenodd" stroke="none"/>
  </g>
</svg>
