<?xml version="1.0" encoding="UTF-8" standalone="no"?>
<svg xmlns:xlink="http://www.w3.org/1999/xlink" height="16.65px" width="16.7px" xmlns="http://www.w3.org/2000/svg">
  <g transform="matrix(1, 0, 0, 1, -3.45, -3.05)">
    <path d="M14.55 7.6 L15.4 6.8 Q16.75 8.85 16.75 11.55 16.75 14.45 15.25 16.55 L14.4 15.75 Q15.65 13.95 15.65 11.55 15.65 9.3 14.55 7.6 M8.45 9.25 L12.45 6.0 12.45 17.35 8.45 14.1 5.45 14.1 5.45 9.25 8.45 9.25" fill="url(#gradient0)" fill-rule="evenodd" stroke="none"/>
    <path d="M17.65 5.95 Q19.05 8.3 19.05 11.55 19.05 14.85 17.65 17.2 L17.1 18.0 16.05 17.2 16.7 16.3 Q17.9 14.35 17.9 11.55 17.9 8.8 16.7 6.8 L16.15 6.05 17.15 5.25 17.65 5.95" fill="url(#gradient1)" fill-rule="evenodd" stroke="none"/>
    <path d="M3.5 5.2 L5.65 3.05 20.15 17.55 18.0 19.7 3.5 5.2" fill="#990000" fill-rule="evenodd" stroke="none"/>
    <path d="M17.95 3.05 L20.1 5.2 5.6 19.7 3.45 17.55 17.95 3.05" fill="#990000" fill-rule="evenodd" stroke="none"/>
  </g>
  <defs>
    <linearGradient gradientTransform="matrix(0.0, 0.0072, -0.0069, 0.0, 8.0, 14.15)" gradientUnits="userSpaceOnUse" id="gradient0" spreadMethod="pad" x1="-819.2" x2="819.2">
      <stop offset="0.0" stop-color="#eaeaea"/>
      <stop offset="1.0" stop-color="#b7b7b7"/>
    </linearGradient>
    <linearGradient gradientTransform="matrix(0.0, 0.0072, -0.005, 0.0, 10.2, 14.15)" gradientUnits="userSpaceOnUse" id="gradient1" spreadMethod="pad" x1="-819.2" x2="819.2">
      <stop offset="0.0" stop-color="#eaeaea"/>
      <stop offset="1.0" stop-color="#b7b7b7"/>
    </linearGradient>
  </defs>
</svg>
