<?xml version="1.0" encoding="UTF-8" standalone="no"?>
<svg xmlns:xlink="http://www.w3.org/1999/xlink" height="19.05px" width="16.7px" xmlns="http://www.w3.org/2000/svg">
  <g transform="matrix(1, 0, 0, 1, -3.45, -1.65)">
    <path d="M13.75 1.65 L14.05 1.8 Q21.4 9.1 18.95 13.6 L18.65 13.85 18.35 13.85 17.15 11.35 Q16.05 8.9 13.75 5.75 L13.8 17.15 13.85 17.2 13.85 17.75 Q13.9 18.9 13.05 19.85 12.1 20.7 10.95 20.7 9.65 20.7 8.75 19.95 7.8 19.05 7.9 17.85 L7.85 17.85 Q7.8 16.75 8.7 15.85 9.55 14.95 10.9 15.0 11.95 15.0 12.8 15.7 L12.7 4.95 12.8 3.15 Q12.8 1.8 13.1 1.8 L13.5 1.7 13.75 1.65" fill="url(#gradient0)" fill-rule="evenodd" stroke="none"/>
    <path d="M3.5 5.2 L5.65 3.05 20.15 17.55 18.0 19.7 3.5 5.2" fill="#990000" fill-rule="evenodd" stroke="none"/>
    <path d="M17.95 3.05 L20.1 5.2 5.6 19.7 3.45 17.55 17.95 3.05" fill="#990000" fill-rule="evenodd" stroke="none"/>
  </g>
  <defs>
    <linearGradient gradientTransform="matrix(0.0052, 0.0049, -0.0079, 0.0085, 13.4, 10.75)" gradientUnits="userSpaceOnUse" id="gradient0" spreadMethod="pad" x1="-819.2" x2="819.2">
      <stop offset="0.0" stop-color="#eaeaea"/>
      <stop offset="1.0" stop-color="#b7b7b7"/>
    </linearGradient>
  </defs>
</svg>
