<?xml version="1.0" encoding="UTF-8" standalone="no"?>
<svg xmlns:xlink="http://www.w3.org/1999/xlink" height="14.0px" width="183.2px" xmlns="http://www.w3.org/2000/svg">
  <g transform="matrix(1, 0, 0, 1, -0.05, 0.0)">
    <path d="M57.2 0.15 L182.2 0.15 Q183.25 0.15 183.25 3.15 L183.25 10.95 Q183.25 13.95 182.2 13.95 L52.7 13.95 57.2 0.15" fill="#ffffff" fill-rule="evenodd" stroke="none"/>
    <path d="M57.2 0.15 L52.7 13.95 1.1 13.95 Q0.05 13.95 0.05 10.95 L0.05 3.15 Q0.05 0.15 1.1 0.15 L57.2 0.15" fill="#990000" fill-rule="evenodd" stroke="none"/>
    <path d="M52.95 0.0 L66.45 0.0 60.4 14.0 46.9 14.0 52.95 0.0" fill="#990000" fill-rule="evenodd" stroke="none"/>
    <path d="M83.15 14.0 L69.65 14.0 75.7 0.0 89.2 0.0 83.15 14.0" fill="#990000" fill-rule="evenodd" stroke="none"/>
    <path d="M98.45 0.0 L111.95 0.0 105.9 14.0 92.4 14.0 98.45 0.0" fill="#990000" fill-rule="evenodd" stroke="none"/>
    <path d="M128.6 14.0 L115.1 14.0 121.15 0.0 134.65 0.0 128.6 14.0" fill="#990000" fill-rule="evenodd" stroke="none"/>
    <path d="M143.85 0.0 L157.35 0.0 151.3 14.0 137.8 14.0 143.85 0.0" fill="#990000" fill-rule="evenodd" stroke="none"/>
    <path d="M174.05 14.0 L160.55 14.0 166.6 0.0 180.1 0.0 174.05 14.0" fill="#990000" fill-rule="evenodd" stroke="none"/>
    <path d="M181.8 6.75 L181.8 9.5 Q181.8 10.55 181.1 10.55 L62.25 10.55 Q61.55 10.55 61.55 9.5 L61.55 6.75 Q61.55 5.7 62.25 5.7 L181.1 5.7 Q181.8 5.7 181.8 6.75" fill="#666666" fill-rule="evenodd" stroke="none"/>
    <path d="M181.85 7.35 Q181.85 8.15 181.15 8.15 L62.25 8.15 Q61.6 8.15 61.6 7.35 L61.6 5.25 Q61.6 4.4 62.25 4.4 L181.15 4.4 Q181.85 4.4 181.85 5.25 L181.85 7.35" fill="#cccccc" fill-rule="evenodd" stroke="none"/>
  </g>
</svg>
