<?xml version="1.0" encoding="UTF-8" standalone="no"?>
<svg xmlns:xlink="http://www.w3.org/1999/xlink" height="17.35px" width="17.4px" xmlns="http://www.w3.org/2000/svg">
  <g transform="matrix(1, 0, 0, 1, -23.1, -3.7)">
    <path d="M38.3 6.05 Q39.1 5.25 39.65 5.85 L39.8 6.0 40.45 9.8 Q40.85 11.65 38.9 11.3 L35.2 10.65 35.05 10.45 35.0 10.3 Q34.6 9.85 35.25 9.1 L35.85 8.5 Q34.25 7.05 32.0 7.05 29.65 7.05 28.05 8.75 26.4 10.4 26.4 12.75 26.4 15.1 28.05 16.75 29.65 18.35 32.0 18.35 34.35 18.35 36.0 16.75 L36.15 16.7 37.95 18.65 Q35.4 21.05 31.8 21.05 28.25 21.05 25.7 18.5 23.1 16.0 23.1 12.35 23.1 8.8 25.7 6.25 28.25 3.7 31.8 3.7 35.45 3.7 37.95 6.25 L38.05 6.35 38.3 6.05" fill="#ffffff" fill-rule="evenodd" stroke="none"/>
  </g>
</svg>
