<?xml version="1.0" encoding="UTF-8" standalone="no"?>
<svg xmlns:xlink="http://www.w3.org/1999/xlink" height="12.75px" width="12.8px" xmlns="http://www.w3.org/2000/svg">
  <g transform="matrix(1, 0, 0, 1, -25.3, -6.1)">
    <path d="M34.65 9.65 Q33.5 8.6 31.85 8.6 30.1 8.6 28.9 9.8 27.7 11.0 27.7 12.75 27.7 14.5 28.9 15.7 30.1 16.9 31.85 16.9 33.55 16.9 34.8 15.7 L34.85 15.65 36.2 17.05 Q34.3 18.85 31.65 18.85 29.1 18.85 27.2 17.0 25.3 15.15 25.3 12.5 25.3 9.85 27.2 8.0 29.1 6.1 31.65 6.1 34.35 6.1 36.2 8.0 L36.25 8.05 36.45 7.85 Q37.05 7.25 37.45 7.7 L37.55 7.8 38.05 10.6 Q38.3 11.95 36.9 11.7 L34.2 11.2 34.05 11.05 34.05 10.95 Q33.7 10.65 34.25 10.1 L34.65 9.65" fill="#999999" fill-rule="evenodd" stroke="none"/>
  </g>
</svg>
