<?xml version="1.0" encoding="UTF-8" standalone="no"?>
<svg xmlns:xlink="http://www.w3.org/1999/xlink" height="16.8px" width="21.4px" xmlns="http://www.w3.org/2000/svg">
  <g transform="matrix(1, 0, 0, 1, -11.6, -3.95)">
    <path d="M31.1 19.85 Q32.15 19.85 32.15 19.0 L32.15 7.3 12.6 7.3 12.6 19.0 Q12.6 19.85 13.55 19.85 L31.1 19.85 M33.0 19.0 Q33.0 20.75 31.1 20.75 L13.55 20.75 Q11.6 20.75 11.6 19.0 L11.6 5.8 Q11.6 3.95 13.55 3.95 L31.1 3.95 Q33.0 3.95 33.0 5.8 L33.0 19.0" fill="#ffffff" fill-rule="evenodd" stroke="none"/>
    <path d="M31.1 19.85 L13.55 19.85 Q12.6 19.85 12.6 19.0 L12.6 7.3 32.15 7.3 32.15 19.0 Q32.15 19.85 31.1 19.85" fill="#9b9b9b" fill-rule="evenodd" stroke="none"/>
    <path d="M30.4 16.65 L30.75 17.35 30.4 18.05 29.75 18.3 17.8 18.3 17.1 18.05 Q16.8 17.7 16.8 17.35 16.8 16.95 17.1 16.65 17.4 16.35 17.8 16.35 L29.75 16.35 Q30.1 16.35 30.4 16.65 M30.4 13.3 L30.75 14.0 30.4 14.7 29.75 15.0 17.8 15.0 Q17.4 15.0 17.1 14.7 16.8 14.35 16.8 14.0 16.8 13.6 17.1 13.3 L17.8 13.05 29.75 13.05 30.4 13.3 M30.4 9.75 L30.75 10.45 30.4 11.15 29.75 11.45 17.8 11.45 Q17.4 11.45 17.1 11.15 16.8 10.85 16.8 10.45 16.8 10.1 17.1 9.75 L17.8 9.5 29.75 9.5 30.4 9.75 M14.55 9.4 Q15.0 9.4 15.4 9.75 L15.65 10.45 15.4 11.2 14.55 11.55 Q14.15 11.55 13.85 11.2 13.5 10.9 13.5 10.45 13.5 10.0 13.85 9.75 14.15 9.4 14.55 9.4 M15.65 13.95 L15.4 14.7 14.55 15.0 Q14.15 15.0 13.85 14.7 13.5 14.35 13.5 13.95 13.5 13.5 13.85 13.25 14.15 12.85 14.55 12.85 15.0 12.85 15.4 13.25 L15.65 13.95 M15.65 17.2 L15.4 17.9 Q15.0 18.3 14.55 18.3 14.15 18.3 13.85 17.9 13.5 17.6 13.5 17.2 13.5 16.75 13.85 16.45 14.15 16.1 14.55 16.1 15.0 16.1 15.4 16.45 L15.65 17.2" fill="#ffffff" fill-rule="evenodd" stroke="none"/>
    <path d="M31.35 5.65 L31.05 6.4 30.3 6.75 Q29.85 6.75 29.55 6.4 29.2 6.1 29.2 5.65 29.2 5.2 29.55 4.9 29.85 4.6 30.3 4.6 30.75 4.6 31.05 4.9 L31.35 5.65" fill="#9b9b9b" fill-rule="evenodd" stroke="none"/>
  </g>
</svg>
