<?xml version="1.0" encoding="UTF-8" standalone="no"?>
<svg xmlns:xlink="http://www.w3.org/1999/xlink" height="20.9px" width="26.6px" xmlns="http://www.w3.org/2000/svg">
  <g transform="matrix(1, 0, 0, 1, -9.0, -1.75)">
    <path d="M33.25 21.5 Q34.45 21.5 34.45 20.45 L34.45 5.85 10.2 5.85 10.2 20.45 Q10.2 21.5 11.35 21.5 L33.25 21.5 M35.6 20.45 Q35.6 22.65 33.25 22.65 L11.35 22.65 Q9.0 22.65 9.0 20.45 L9.0 4.0 Q9.0 1.75 11.35 1.75 L33.25 1.75 Q35.6 1.75 35.6 4.0 L35.6 20.45" fill="#ffffff" fill-rule="evenodd" stroke="none"/>
    <path d="M33.25 21.5 L11.35 21.5 Q10.2 21.5 10.2 20.45 L10.2 5.85 34.45 5.85 34.45 20.45 Q34.45 21.5 33.25 21.5" fill="#9b9b9b" fill-rule="evenodd" stroke="none"/>
    <path d="M32.2 2.5 Q32.8 2.5 33.25 2.95 L33.55 3.9 33.25 4.8 Q32.8 5.25 32.2 5.25 L31.25 4.8 Q30.9 4.45 30.9 3.9 30.9 3.4 31.25 2.95 31.7 2.5 32.2 2.5" fill="#9b9b9b" fill-rule="evenodd" stroke="none"/>
    <path d="M32.8 14.2 Q32.8 14.7 32.4 15.05 32.0 15.45 31.5 15.45 L16.7 15.45 15.8 15.05 Q15.5 14.7 15.5 14.2 15.5 13.75 15.8 13.35 16.25 13.05 16.7 13.05 L31.5 13.05 Q32.0 13.05 32.4 13.35 32.8 13.75 32.8 14.2 M32.4 17.5 Q32.8 17.9 32.8 18.35 32.8 18.85 32.4 19.25 32.0 19.6 31.5 19.6 L16.7 19.6 Q16.25 19.6 15.8 19.25 15.5 18.85 15.5 18.35 15.5 17.9 15.8 17.5 16.25 17.15 16.7 17.15 L31.5 17.15 Q32.0 17.15 32.4 17.5 M31.5 8.65 Q32.0 8.65 32.4 9.0 32.8 9.35 32.8 9.8 32.8 10.3 32.4 10.7 32.0 11.1 31.5 11.1 L16.7 11.1 15.8 10.7 Q15.5 10.3 15.5 9.8 15.5 9.35 15.8 9.0 16.25 8.65 16.7 8.65 L31.5 8.65 M14.1 9.8 Q14.1 10.45 13.7 10.75 13.25 11.2 12.75 11.2 12.15 11.2 11.85 10.75 11.4 10.45 11.4 9.8 11.4 9.3 11.85 8.9 12.15 8.45 12.75 8.45 13.25 8.45 13.7 8.9 14.1 9.3 14.1 9.8 M13.7 15.05 Q13.25 15.45 12.75 15.45 12.15 15.45 11.85 15.05 11.4 14.7 11.4 14.15 11.4 13.65 11.85 13.25 12.15 12.85 12.75 12.85 13.25 12.85 13.7 13.25 14.1 13.65 14.1 14.15 14.1 14.7 13.7 15.05 M11.85 17.25 Q12.15 16.8 12.75 16.8 13.25 16.8 13.7 17.25 14.1 17.65 14.1 18.15 14.1 18.7 13.7 19.1 13.25 19.5 12.75 19.5 12.15 19.5 11.85 19.1 11.4 18.7 11.4 18.15 11.4 17.65 11.85 17.25" fill="#ffffff" fill-rule="evenodd" stroke="none"/>
  </g>
</svg>
