<?xml version="1.0" encoding="UTF-8" standalone="no"?>
<svg xmlns:xlink="http://www.w3.org/1999/xlink" height="13.3px" width="16.95px" xmlns="http://www.w3.org/2000/svg">
  <g transform="matrix(1, 0, 0, 1, -13.85, -5.7)">
    <path d="M29.3 5.7 Q30.8 5.7 30.8 7.15 L30.8 17.6 Q30.8 19.0 29.3 19.0 L15.35 19.0 Q13.85 19.0 13.85 17.6 L13.85 7.15 Q13.85 5.7 15.35 5.7 L29.3 5.7 M30.05 17.6 L30.05 8.35 14.6 8.35 14.6 17.6 Q14.6 18.3 15.35 18.3 L29.3 18.3 Q30.05 18.3 30.05 17.6" fill="#999999" fill-rule="evenodd" stroke="none"/>
    <path d="M30.05 17.6 Q30.05 18.3 29.3 18.3 L15.35 18.3 Q14.6 18.3 14.6 17.6 L14.6 8.35 30.05 8.35 30.05 17.6" fill="#333333" fill-rule="evenodd" stroke="none"/>
    <path d="M29.5 7.05 L29.25 7.65 28.65 7.9 28.05 7.65 27.8 7.05 28.05 6.45 Q28.3 6.2 28.65 6.2 L29.25 6.45 29.5 7.05" fill="#333333" fill-rule="evenodd" stroke="none"/>
    <path d="M29.0 13.65 L28.75 14.2 28.2 14.45 18.75 14.45 18.2 14.2 17.95 13.65 Q17.95 13.35 18.2 13.1 L18.75 12.9 28.2 12.9 28.75 13.1 29.0 13.65 M29.0 16.3 L28.75 16.85 28.2 17.05 18.75 17.05 18.2 16.85 17.95 16.3 Q17.95 16.0 18.2 15.75 18.45 15.5 18.75 15.5 L28.2 15.5 Q28.5 15.5 28.75 15.75 L29.0 16.3 M29.0 10.85 L28.75 11.4 28.2 11.65 18.75 11.65 18.2 11.4 17.95 10.85 Q17.95 10.55 18.2 10.3 L18.75 10.1 28.2 10.1 28.75 10.3 29.0 10.85 M15.35 10.85 Q15.35 10.5 15.65 10.3 15.85 10.0 16.2 10.0 L16.85 10.3 17.05 10.85 16.85 11.45 16.2 11.7 15.65 11.45 Q15.35 11.2 15.35 10.85 M16.85 14.2 L16.2 14.45 15.65 14.2 Q15.35 13.95 15.35 13.6 15.35 13.25 15.65 13.05 15.85 12.75 16.2 12.75 L16.85 13.05 17.05 13.6 16.85 14.2 M15.65 16.75 L15.35 16.2 Q15.35 15.85 15.65 15.6 15.85 15.3 16.2 15.3 L16.85 15.6 17.05 16.2 16.85 16.75 16.2 17.05 Q15.85 17.05 15.65 16.75" fill="#999999" fill-rule="evenodd" stroke="none"/>
  </g>
</svg>
