<?xml version="1.0" encoding="UTF-8" standalone="no"?>
<svg xmlns:xlink="http://www.w3.org/1999/xlink" height="13.3px" width="16.9px" xmlns="http://www.w3.org/2000/svg">
  <g transform="matrix(1, 0, 0, 1, -22.75, -6.15)">
    <path d="M38.15 6.15 Q39.65 6.15 39.65 7.6 L39.65 18.05 Q39.65 19.45 38.15 19.45 L24.3 19.45 Q22.75 19.45 22.75 18.05 L22.75 7.6 Q22.75 6.15 24.3 6.15 L38.15 6.15 M23.5 18.05 Q23.5 18.7 24.3 18.7 L38.15 18.7 Q39.0 18.7 39.0 18.05 L39.0 8.8 23.5 8.8 23.5 18.05" fill="#ffffff" fill-rule="evenodd" stroke="none"/>
    <path d="M23.5 18.05 L23.5 8.8 39.0 8.8 39.0 18.05 Q39.0 18.7 38.15 18.7 L24.3 18.7 Q23.5 18.7 23.5 18.05" fill="#9b9b9b" fill-rule="evenodd" stroke="none"/>
    <path d="M38.35 8.05 L37.75 8.3 Q37.4 8.3 37.2 8.05 36.9 7.8 36.9 7.45 36.9 7.1 37.2 6.85 37.4 6.6 37.75 6.6 L38.35 6.85 38.6 7.45 38.35 8.05" fill="#9b9b9b" fill-rule="evenodd" stroke="none"/>
    <path d="M25.45 12.25 L25.45 12.2 25.7 12.1 25.85 12.15 26.0 12.25 26.1 12.5 26.0 12.8 25.7 12.9 25.4 12.8 25.3 12.55 25.3 12.5 25.4 12.25 25.45 12.25 M25.3 12.55 L25.45 12.6 25.75 12.45 25.85 12.2 25.85 12.15 25.85 12.2 25.75 12.45 25.45 12.6 25.3 12.55" fill="#999999" fill-rule="evenodd" stroke="none"/>
    <path d="M25.3 12.55 L25.2 12.45 25.05 12.2 25.2 11.9 Q25.35 11.8 25.45 11.8 L25.75 11.9 25.8 11.95 25.85 12.15 25.85 12.2 25.75 12.45 25.45 12.6 25.3 12.55" fill="none" stroke="#ffffff" stroke-linecap="round" stroke-linejoin="round" stroke-width="1.0"/>
    <path d="M25.8 11.95 Q27.05 11.05 29.1 10.65 31.7 10.15 32.85 11.25 33.95 12.25 30.35 15.1 26.75 17.9 35.85 17.0 M25.45 12.25 L25.45 12.2 25.8 11.95" fill="none" stroke="#ffffff" stroke-linecap="round" stroke-linejoin="round" stroke-width="0.1"/>
    <path d="M35.5 16.15 L36.35 17.0 37.0 16.3 M35.65 17.7 L36.35 17.0 37.0 17.65" fill="none" stroke="#ffffff" stroke-linecap="round" stroke-linejoin="round" stroke-width="1.5"/>
  </g>
</svg>
