<?xml version="1.0" encoding="UTF-8" standalone="no"?>
<svg xmlns:xlink="http://www.w3.org/1999/xlink" height="17.6px" width="22.4px" xmlns="http://www.w3.org/2000/svg">
  <g transform="matrix(1, 0, 0, 1, -19.5, -4.1)">
    <path d="M41.9 6.05 L41.9 19.85 Q41.9 21.7 39.9 21.7 L21.55 21.7 Q19.5 21.7 19.5 19.85 L19.5 6.05 Q19.5 4.1 21.55 4.1 L39.9 4.1 Q41.9 4.1 41.9 6.05 M41.0 19.85 L41.0 7.6 20.55 7.6 20.55 19.85 Q20.55 20.75 21.55 20.75 L39.9 20.75 Q41.0 20.75 41.0 19.85" fill="#ffffff" fill-rule="evenodd" stroke="none"/>
    <path d="M41.0 19.85 Q41.0 20.75 39.9 20.75 L21.55 20.75 Q20.55 20.75 20.55 19.85 L20.55 7.6 41.0 7.6 41.0 19.85" fill="#9b9b9b" fill-rule="evenodd" stroke="none"/>
    <path d="M39.1 7.0 Q38.6 7.0 38.3 6.65 37.95 6.35 37.95 5.85 37.95 5.4 38.3 5.1 38.6 4.75 39.1 4.75 39.55 4.75 39.85 5.1 40.2 5.4 40.2 5.85 L39.85 6.65 Q39.55 7.0 39.1 7.0" fill="#9b9b9b" fill-rule="evenodd" stroke="none"/>
    <path d="M22.8 12.15 L23.1 12.05 23.35 12.1 23.5 12.2 23.65 12.55 23.5 12.95 23.1 13.1 22.75 12.95 22.6 12.6 22.6 12.55 Q22.6 12.35 22.75 12.2 L22.8 12.2 22.8 12.15 M22.6 12.6 L22.8 12.7 23.2 12.5 23.35 12.15 23.35 12.1 23.35 12.15 23.2 12.5 22.8 12.7 22.6 12.6" fill="#999999" fill-rule="evenodd" stroke="none"/>
    <path d="M22.6 12.6 L22.45 12.5 22.3 12.15 Q22.3 11.95 22.45 11.8 L22.5 11.8 Q22.65 11.65 22.8 11.65 L23.2 11.8 23.25 11.85 M23.35 12.1 L23.25 11.85 M23.35 12.1 L23.35 12.15 23.2 12.5 22.8 12.7 22.6 12.6" fill="none" stroke="#ffffff" stroke-linecap="round" stroke-linejoin="round" stroke-width="1.0"/>
    <path d="M23.25 11.85 Q24.9 10.65 27.6 10.1 31.1 9.5 32.6 10.9 34.05 12.25 29.3 15.95 24.55 19.7 36.5 18.55 M23.25 11.85 L22.8 12.15 M22.8 12.2 L22.8 12.15" fill="none" stroke="#ffffff" stroke-linecap="round" stroke-linejoin="round" stroke-width="0.1"/>
    <path d="M36.1 17.4 L37.2 18.5 38.1 17.6 M36.25 19.45 L37.2 18.5 38.1 19.4" fill="none" stroke="#ffffff" stroke-linecap="round" stroke-linejoin="round" stroke-width="1.5"/>
  </g>
</svg>
