<?xml version="1.0" encoding="UTF-8" standalone="no"?>
<svg xmlns:xlink="http://www.w3.org/1999/xlink" height="13.65px" width="17.4px" xmlns="http://www.w3.org/2000/svg">
  <g transform="matrix(1, 0, 0, 1, -22.15, -5.95)">
    <path d="M38.0 5.95 Q39.55 5.95 39.55 7.45 L39.55 18.2 Q39.55 19.6 38.0 19.6 L23.75 19.6 Q22.15 19.6 22.15 18.2 L22.15 7.45 Q22.15 5.95 23.75 5.95 L38.0 5.95 M22.95 18.2 Q22.95 18.9 23.75 18.9 L38.0 18.9 Q38.85 18.9 38.85 18.2 L38.85 8.7 22.95 8.7 22.95 18.2" fill="#cccccc" fill-rule="evenodd" stroke="none"/>
    <path d="M22.95 18.2 L22.95 8.7 38.85 8.7 38.85 18.2 Q38.85 18.9 38.0 18.9 L23.75 18.9 Q22.95 18.9 22.95 18.2" fill="#333333" fill-rule="evenodd" stroke="none"/>
    <path d="M37.35 6.5 Q37.75 6.5 37.95 6.75 L38.2 7.35 37.95 7.95 Q37.75 8.25 37.35 8.25 37.0 8.25 36.75 7.95 36.45 7.7 36.45 7.35 36.45 6.95 36.75 6.75 37.0 6.5 37.35 6.5" fill="#9b9b9b" fill-rule="evenodd" stroke="none"/>
    <path d="M24.7 12.2 L24.95 12.15 25.15 12.15 25.15 12.2 25.0 12.5 24.7 12.6 24.55 12.6 24.7 12.6 25.0 12.5 25.15 12.2 25.15 12.15 25.25 12.25 25.35 12.55 25.25 12.8 24.95 12.95 24.7 12.8 24.55 12.6 24.55 12.55 24.7 12.25 24.7 12.2" fill="#999999" fill-rule="evenodd" stroke="none"/>
    <path d="M24.55 12.6 L24.45 12.5 24.3 12.2 24.45 11.95 24.5 11.95 24.7 11.8 Q24.9 11.8 25.0 11.95 L25.05 11.95 M25.15 12.15 L25.05 11.95 M24.55 12.6 L24.7 12.6 25.0 12.5 25.15 12.2 25.15 12.15" fill="none" stroke="#ffffff" stroke-linecap="round" stroke-linejoin="round" stroke-width="1.0"/>
    <path d="M25.05 11.95 Q26.35 11.05 28.45 10.65 31.15 10.15 32.3 11.25 33.45 12.3 29.75 15.2 26.05 18.05 35.35 17.15 M25.05 11.95 L24.7 12.2 24.7 12.25" fill="none" stroke="#ffffff" stroke-linecap="round" stroke-linejoin="round" stroke-width="0.1"/>
    <path d="M35.15 17.85 L35.9 17.15 35.05 16.3 M36.6 16.45 L35.9 17.15 36.6 17.85" fill="none" stroke="#ffffff" stroke-linecap="round" stroke-linejoin="round" stroke-width="1.5"/>
  </g>
</svg>
