<?xml version="1.0" encoding="UTF-8" standalone="no"?>
<svg xmlns:xlink="http://www.w3.org/1999/xlink" height="13.65px" width="17.4px" xmlns="http://www.w3.org/2000/svg">
  <g transform="matrix(1, 0, 0, 1, -22.05, -5.95)">
    <path d="M37.9 5.95 Q39.45 5.95 39.45 7.45 L39.45 18.2 Q39.45 19.6 37.9 19.6 L23.65 19.6 Q22.05 19.6 22.05 18.2 L22.05 7.45 Q22.05 5.95 23.65 5.95 L37.9 5.95 M22.85 18.2 Q22.85 18.9 23.65 18.9 L37.9 18.9 Q38.75 18.9 38.75 18.2 L38.75 8.7 22.85 8.7 22.85 18.2" fill="#cccccc" fill-rule="evenodd" stroke="none"/>
    <path d="M22.85 18.2 L22.85 8.7 38.75 8.7 38.75 18.2 Q38.75 18.9 37.9 18.9 L23.65 18.9 Q22.85 18.9 22.85 18.2" fill="#333333" fill-rule="evenodd" stroke="none"/>
    <path d="M37.85 6.75 L38.1 7.35 37.85 7.95 Q37.65 8.25 37.25 8.25 36.9 8.25 36.65 7.95 36.35 7.7 36.35 7.35 36.35 6.95 36.65 6.75 L37.25 6.5 Q37.65 6.5 37.85 6.75" fill="#9b9b9b" fill-rule="evenodd" stroke="none"/>
    <path d="M24.6 12.25 L24.6 12.2 24.85 12.15 25.05 12.15 25.15 12.25 25.25 12.55 25.15 12.8 24.85 12.95 24.6 12.8 24.45 12.6 24.45 12.55 24.6 12.25 M24.45 12.6 L24.6 12.6 24.9 12.5 25.05 12.2 25.05 12.15 25.05 12.2 24.9 12.5 24.6 12.6 24.45 12.6" fill="#999999" fill-rule="evenodd" stroke="none"/>
    <path d="M24.95 11.95 Q26.25 11.05 28.35 10.65 31.05 10.15 32.2 11.25 33.35 12.3 29.65 15.2 25.95 18.05 35.25 17.15 M24.6 12.25 L24.6 12.2 24.95 11.95" fill="none" stroke="#ffffff" stroke-linecap="round" stroke-linejoin="round" stroke-width="0.1"/>
    <path d="M24.45 12.6 L24.35 12.5 24.2 12.2 24.35 11.95 24.4 11.95 Q24.5 11.8 24.6 11.8 24.8 11.8 24.9 11.95 L24.95 11.95 25.05 12.15 25.05 12.2 24.9 12.5 24.6 12.6 24.45 12.6" fill="none" stroke="#ffffff" stroke-linecap="round" stroke-linejoin="round" stroke-width="1.0"/>
    <path d="M35.05 17.85 L35.8 17.15 34.95 16.3 M36.5 16.45 L35.8 17.15 36.5 17.85" fill="none" stroke="#ffffff" stroke-linecap="round" stroke-linejoin="round" stroke-width="1.5"/>
  </g>
</svg>
