<?xml version="1.0" encoding="UTF-8" standalone="no"?>
<svg xmlns:xlink="http://www.w3.org/1999/xlink" height="5.0px" width="14.75px" xmlns="http://www.w3.org/2000/svg">
  <g transform="matrix(1, 0, 0, 1, 7.3, 2.35)">
    <path d="M1.75 -1.65 Q2.5 -0.9 2.5 0.15 2.5 1.2 1.75 1.95 1.05 2.65 0.0 2.65 -1.05 2.65 -1.8 1.95 -2.5 1.2 -2.5 0.15 -2.5 -0.9 -1.8 -1.65 -1.05 -2.35 0.0 -2.35 1.05 -2.35 1.75 -1.65" fill="url(#gradient0)" fill-rule="evenodd" stroke="none"/>
    <path d="M1.45 -1.3 Q2.0 -0.75 2.0 0.1 2.0 0.95 1.45 1.55 0.85 2.1 0.0 2.1 -0.85 2.1 -1.4 1.55 -2.0 0.95 -2.0 0.1 -2.0 -0.75 -1.4 -1.3 -0.85 -1.9 0.0 -1.9 0.85 -1.9 1.45 -1.3" fill="url(#gradient1)" fill-rule="evenodd" stroke="none"/>
    <path d="M-4.8 -2.35 Q-3.75 -2.35 -3.05 -1.65 -2.3 -0.9 -2.3 0.15 -2.3 1.2 -3.05 1.95 -3.75 2.65 -4.8 2.65 -5.85 2.65 -6.6 1.95 -7.3 1.2 -7.3 0.15 -7.3 -0.9 -6.6 -1.65 -5.85 -2.35 -4.8 -2.35" fill="url(#gradient2)" fill-rule="evenodd" stroke="none"/>
    <path d="M-4.8 -1.9 Q-3.95 -1.9 -3.35 -1.3 -2.8 -0.75 -2.8 0.1 -2.8 0.95 -3.35 1.55 -3.95 2.1 -4.8 2.1 -5.65 2.1 -6.2 1.55 -6.8 0.95 -6.8 0.1 -6.8 -0.75 -6.2 -1.3 -5.65 -1.9 -4.8 -1.9" fill="url(#gradient3)" fill-rule="evenodd" stroke="none"/>
    <path d="M4.95 -2.35 Q6.0 -2.35 6.7 -1.65 7.45 -0.9 7.45 0.15 7.45 1.2 6.7 1.95 6.0 2.65 4.95 2.65 3.9 2.65 3.15 1.95 2.45 1.2 2.45 0.15 2.45 -0.9 3.15 -1.65 3.9 -2.35 4.95 -2.35" fill="url(#gradient4)" fill-rule="evenodd" stroke="none"/>
    <path d="M4.95 -1.9 Q5.8 -1.9 6.4 -1.3 6.95 -0.75 6.95 0.1 6.95 0.95 6.4 1.55 5.8 2.1 4.95 2.1 4.1 2.1 3.55 1.55 2.95 0.95 2.95 0.1 2.95 -0.75 3.55 -1.3 4.1 -1.9 4.95 -1.9" fill="url(#gradient5)" fill-rule="evenodd" stroke="none"/>
  </g>
  <defs>
    <linearGradient gradientTransform="matrix(0.0016, -0.003, 0.0027, 0.0014, 0.0, 0.15)" gradientUnits="userSpaceOnUse" id="gradient0" spreadMethod="pad" x1="-819.2" x2="819.2">
      <stop offset="0.0" stop-color="#332f30"/>
      <stop offset="0.36470588235294116" stop-color="#dfdbdc"/>
      <stop offset="0.5176470588235295" stop-color="#a7a7a7"/>
      <stop offset="0.6901960784313725" stop-color="#dfdbdc"/>
      <stop offset="1.0" stop-color="#332f30"/>
    </linearGradient>
    <linearGradient gradientTransform="matrix(0.0019, -0.0035, 0.0022, 0.0012, 0.0, 0.1)" gradientUnits="userSpaceOnUse" id="gradient1" spreadMethod="pad" x1="-819.2" x2="819.2">
      <stop offset="0.0" stop-color="#332f30"/>
      <stop offset="0.36470588235294116" stop-color="#dfdbdc"/>
      <stop offset="0.5176470588235295" stop-color="#a7a7a7"/>
      <stop offset="0.6901960784313725" stop-color="#dfdbdc"/>
      <stop offset="1.0" stop-color="#332f30"/>
    </linearGradient>
    <linearGradient gradientTransform="matrix(0.0016, -0.003, 0.0027, 0.0014, -4.8, 0.15)" gradientUnits="userSpaceOnUse" id="gradient2" spreadMethod="pad" x1="-819.2" x2="819.2">
      <stop offset="0.0" stop-color="#332f30"/>
      <stop offset="0.36470588235294116" stop-color="#dfdbdc"/>
      <stop offset="0.5176470588235295" stop-color="#a7a7a7"/>
      <stop offset="0.6901960784313725" stop-color="#dfdbdc"/>
      <stop offset="1.0" stop-color="#332f30"/>
    </linearGradient>
    <linearGradient gradientTransform="matrix(0.0019, -0.0035, 0.0022, 0.0012, -4.8, 0.1)" gradientUnits="userSpaceOnUse" id="gradient3" spreadMethod="pad" x1="-819.2" x2="819.2">
      <stop offset="0.0" stop-color="#332f30"/>
      <stop offset="0.36470588235294116" stop-color="#dfdbdc"/>
      <stop offset="0.5176470588235295" stop-color="#a7a7a7"/>
      <stop offset="0.6901960784313725" stop-color="#dfdbdc"/>
      <stop offset="1.0" stop-color="#332f30"/>
    </linearGradient>
    <linearGradient gradientTransform="matrix(0.0016, -0.003, 0.0027, 0.0014, 4.95, 0.15)" gradientUnits="userSpaceOnUse" id="gradient4" spreadMethod="pad" x1="-819.2" x2="819.2">
      <stop offset="0.0" stop-color="#332f30"/>
      <stop offset="0.36470588235294116" stop-color="#dfdbdc"/>
      <stop offset="0.5176470588235295" stop-color="#a7a7a7"/>
      <stop offset="0.6901960784313725" stop-color="#dfdbdc"/>
      <stop offset="1.0" stop-color="#332f30"/>
    </linearGradient>
    <linearGradient gradientTransform="matrix(0.0019, -0.0035, 0.0022, 0.0012, 4.95, 0.1)" gradientUnits="userSpaceOnUse" id="gradient5" spreadMethod="pad" x1="-819.2" x2="819.2">
      <stop offset="0.0" stop-color="#332f30"/>
      <stop offset="0.36470588235294116" stop-color="#dfdbdc"/>
      <stop offset="0.5176470588235295" stop-color="#a7a7a7"/>
      <stop offset="0.6901960784313725" stop-color="#dfdbdc"/>
      <stop offset="1.0" stop-color="#332f30"/>
    </linearGradient>
  </defs>
</svg>
