<?xml version="1.0" encoding="UTF-8" standalone="no"?>
<svg xmlns:xlink="http://www.w3.org/1999/xlink" height="73.5px" width="40.0px" xmlns="http://www.w3.org/2000/svg">
  <g transform="matrix(1, 0, 0, 1, 20.0, 36.75)">
    <path d="M-19.0 -25.75 Q-19.0 -35.75 -9.0 -35.75 L9.0 -35.75 Q19.0 -35.75 19.0 -25.75 L19.0 25.75 Q19.0 35.75 9.0 35.75 L-9.0 35.75 Q-19.0 35.75 -19.0 25.75 L-19.0 -25.75" fill="#ffff00" fill-opacity="0.4" fill-rule="evenodd" stroke="none"/>
    <path d="M-19.0 -25.75 L-19.0 25.75 Q-19.0 35.75 -9.0 35.75 L9.0 35.75 Q19.0 35.75 19.0 25.75 L19.0 -25.75 Q19.0 -35.75 9.0 -35.75 L-9.0 -35.75 Q-19.0 -35.75 -19.0 -25.75" fill="none" stroke="#cc0000" stroke-linecap="round" stroke-linejoin="round" stroke-width="2.0"/>
    <path d="M13.15 -5.55 L-13.15 -5.55 0.0 -29.7 13.15 -5.55" fill="none" stroke="#cc0000" stroke-linecap="round" stroke-linejoin="round" stroke-width="1.0"/>
  </g>
</svg>
