<?xml version="1.0" encoding="UTF-8" standalone="no"?>
<svg xmlns:xlink="http://www.w3.org/1999/xlink" height="32.15px" width="45.45px" xmlns="http://www.w3.org/2000/svg">
  <g transform="matrix(1, 0, 0, 1, 33.6, 16.0)">
    <path d="M-28.75 -6.75 L-28.75 -5.95 -32.75 -6.6 -33.6 -6.75 -28.75 -6.75 M-28.75 8.1 L-33.6 8.1 -28.75 7.2 -28.75 8.1" fill="url(#gradient0)" fill-rule="evenodd" stroke="none"/>
    <path d="M-27.05 -6.75 L-18.05 -6.75 -18.05 -3.7 -27.05 -5.65 -27.05 -6.75 M-18.05 8.1 L-27.05 8.1 -27.05 6.9 -18.05 4.75 -18.05 8.1" fill="url(#gradient1)" fill-rule="evenodd" stroke="none"/>
    <path d="M-16.3 -6.75 L-0.9 -6.75 -0.9 8.1 -16.3 8.1 -16.3 4.2 Q-4.95 0.4 -16.3 -3.2 L-16.3 -6.75" fill="url(#gradient2)" fill-rule="evenodd" stroke="none"/>
    <path d="M-10.8 -16.0 L-10.7 -16.0 11.85 0.1 -10.8 16.15 -10.8 5.2 -10.45 5.2 -10.45 -5.05 -10.8 -5.05 -10.8 -16.0" fill="url(#gradient3)" fill-rule="evenodd" stroke="none"/>
    <path d="M-9.25 -7.95 L-9.15 -7.95 11.85 0.05 -9.25 8.05 -9.25 2.6 -8.9 2.6 -8.9 -2.5 -9.25 -2.5 -9.25 -7.95" fill="url(#gradient4)" fill-rule="evenodd" stroke="none"/>
  </g>
  <defs>
    <linearGradient gradientTransform="matrix(-0.003, 0.0, 0.0, -0.009, -31.2, 0.7)" gradientUnits="userSpaceOnUse" id="gradient0" spreadMethod="pad" x1="-819.2" x2="819.2">
      <stop offset="0.00392156862745098" stop-color="#990000"/>
      <stop offset="1.0" stop-color="#cc0000"/>
    </linearGradient>
    <linearGradient gradientTransform="matrix(0.0055, 0.0, 0.0, 0.009, -22.55, 0.7)" gradientUnits="userSpaceOnUse" id="gradient1" spreadMethod="pad" x1="-819.2" x2="819.2">
      <stop offset="0.00392156862745098" stop-color="#990000"/>
      <stop offset="1.0" stop-color="#cc0000"/>
    </linearGradient>
    <linearGradient gradientTransform="matrix(-0.0137, 0.0, 0.0, -0.009, 10.0, 0.7)" gradientUnits="userSpaceOnUse" id="gradient2" spreadMethod="pad" x1="-819.2" x2="819.2">
      <stop offset="0.0" stop-color="#721a19"/>
      <stop offset="1.0" stop-color="#cc0000"/>
    </linearGradient>
    <linearGradient gradientTransform="matrix(0.0171, 0.0, 0.0, 0.0196, -2.85, 0.05)" gradientUnits="userSpaceOnUse" id="gradient3" spreadMethod="pad" x1="-819.2" x2="819.2">
      <stop offset="0.0" stop-color="#a32323"/>
      <stop offset="1.0" stop-color="#cc0000"/>
    </linearGradient>
    <linearGradient gradientTransform="matrix(0.0159, 0.0, 0.0, 0.0098, -1.85, 0.05)" gradientUnits="userSpaceOnUse" id="gradient4" spreadMethod="pad" x1="-819.2" x2="819.2">
      <stop offset="0.3764705882352941" stop-color="#8b1f1f"/>
      <stop offset="1.0" stop-color="#962121" stop-opacity="0.4392157"/>
    </linearGradient>
  </defs>
</svg>
