<?xml version="1.0" encoding="UTF-8" standalone="no"?>
<svg xmlns:xlink="http://www.w3.org/1999/xlink" height="173.4px" width="109.45px" xmlns="http://www.w3.org/2000/svg">
  <g transform="matrix(1, 0, 0, 1, -28.8, 126.15)">
    <path d="M30.35 -125.2 L30.3 -125.4 Q30.3 -126.2 30.5 -126.15 L31.0 -126.0 31.0 -126.1 31.95 -125.0 30.35 -125.2 M34.0 -121.7 L34.5 -120.7 Q36.05 -117.4 36.05 -116.65 36.05 -115.9 35.3 -113.9 34.55 -111.9 34.55 -109.75 L34.75 -109.55 Q34.8 -109.35 34.0 -109.35 33.5 -109.35 32.9 -111.35 L33.6 -110.9 Q34.25 -112.55 34.25 -116.0 L34.0 -121.7 M32.3 -113.75 L31.55 -117.35 30.75 -122.25 31.8 -120.65 Q33.0 -118.45 33.0 -116.15 L32.3 -113.75 M32.8 -120.25 L32.65 -120.4 Q31.85 -122.6 30.85 -123.6 31.85 -123.45 32.4 -122.0 L32.8 -120.45 32.8 -120.25 M97.55 -46.9 L98.5 -47.75 98.75 -47.95 99.0 -46.25 Q99.0 -43.6 97.5 -38.35 96.0 -33.1 96.0 -30.85 96.0 -28.6 97.45 -26.6 L100.25 -22.95 Q103.8 -17.6 101.25 -7.25 102.7 -5.8 104.5 -5.5 104.7 -6.55 107.15 -11.9 109.0 -16.1 109.0 -21.75 L109.0 -22.5 108.95 -22.75 110.75 -23.0 Q112.0 -23.0 113.25 -15.8 114.25 -10.05 114.25 -8.35 114.25 -6.4 112.25 -1.85 L110.25 2.85 Q110.25 3.5 114.75 7.35 119.25 11.2 119.25 13.0 119.25 14.25 118.25 15.25 117.25 16.25 117.25 17.5 117.25 19.1 117.9 19.65 L119.25 20.5 127.5 21.0 Q133.1 23.2 134.3 27.25 L135.4 31.15 Q136.35 33.7 138.25 36.0 137.45 36.8 128.1 37.6 L125.9 37.8 124.1 39.2 124.15 35.85 Q124.15 29.4 117.2 26.7 L112.4 25.05 Q110.25 24.15 110.25 22.9 L110.7 20.65 111.15 18.4 110.85 15.15 Q110.5 12.7 110.0 11.25 L106.95 16.6 103.85 21.75 103.5 21.1 102.75 11.2 102.15 8.2 102.5 7.55 102.4 7.05 101.85 7.35 Q100.9 5.3 99.15 4.55 L99.7 5.9 Q100.1 6.7 100.1 7.4 L99.75 8.75 Q98.15 10.0 96.8 11.65 95.0 13.85 95.0 14.4 95.0 15.25 95.25 15.15 L94.35 16.8 Q93.65 18.3 92.8 21.2 91.6 23.8 88.0 25.9 86.95 26.5 86.25 27.8 L85.05 30.2 Q83.05 33.4 77.3 34.9 75.1 35.5 72.1 39.15 L70.4 41.4 Q62.85 40.85 57.5 37.05 55.6 35.75 53.8 33.85 L52.0 32.0 53.75 29.75 Q54.65 29.0 56.0 29.0 58.05 29.0 60.05 23.0 62.0 17.0 64.0 17.0 66.55 17.0 68.7 19.45 L72.0 23.25 73.35 22.35 Q73.4 23.15 73.6 22.55 83.25 13.45 83.25 6.65 L83.2 5.6 82.85 5.25 82.1 5.25 82.1 5.35 81.75 5.35 Q81.65 7.0 79.7 10.75 77.8 14.4 77.8 14.9 77.8 16.15 78.05 15.5 L79.65 13.35 77.3 17.15 76.8 17.7 77.65 15.3 Q79.7 7.8 82.0 4.75 83.9 5.05 84.8 6.5 85.9 8.3 86.25 8.5 87.7 7.6 88.9 5.2 L89.0 5.25 Q92.85 0.3 93.65 -1.25 94.85 -3.6 94.85 -7.3 94.85 -8.3 92.9 -13.8 92.9 -14.6 94.35 -17.15 95.8 -19.7 95.8 -21.65 95.8 -23.7 94.15 -26.25 92.5 -28.85 92.5 -29.8 92.5 -31.55 95.3 -35.4 98.1 -39.25 98.1 -43.3 98.1 -45.35 97.75 -46.9 L97.55 -46.9 M61.1 20.5 Q61.1 21.75 62.0 21.1 L63.25 20.1 Q63.8 19.45 64.75 19.4 63.85 20.15 61.2 23.95 58.35 28.05 58.35 29.1 58.35 30.35 58.75 29.85 60.25 27.85 64.65 24.3 67.35 22.1 67.35 19.3 67.35 17.2 64.25 18.35 61.1 19.5 61.1 20.5" fill="#ff6600" fill-rule="evenodd" stroke="none"/>
    <path d="M124.1 39.2 L124.05 39.3 Q123.65 41.55 122.0 43.0 L120.65 42.75 Q120.4 43.4 120.4 42.15 L120.75 41.3 Q116.85 43.35 113.0 43.7 L115.25 45.75 Q114.85 46.95 114.0 47.25 109.5 46.9 108.65 45.95 107.95 45.25 103.0 45.25 89.3 45.25 82.75 39.4 81.0 37.8 79.9 35.9 L77.0 39.25 Q75.1 41.5 73.0 41.5 L72.8 41.5 Q70.85 44.25 69.4 45.0 69.15 45.55 69.15 44.3 69.15 43.25 70.4 41.4 L72.1 39.15 Q75.1 35.5 77.3 34.9 83.05 33.4 85.05 30.2 L86.25 27.8 Q86.95 26.5 88.0 25.9 91.6 23.8 92.8 21.2 93.65 18.3 94.35 16.8 L95.25 15.15 Q95.0 15.25 95.0 14.4 95.0 13.85 96.8 11.65 98.15 10.0 99.75 8.75 L100.1 7.4 Q100.1 6.7 99.7 5.9 L99.15 4.55 Q100.9 5.3 101.85 7.35 L102.4 7.05 102.5 7.55 102.15 8.2 102.75 11.2 103.5 21.1 103.85 21.75 106.95 16.6 110.0 11.25 Q110.5 12.7 110.85 15.15 L111.15 18.4 110.7 20.65 110.25 22.9 Q110.25 24.15 112.4 25.05 L117.2 26.7 Q124.15 29.4 124.15 35.85 L124.1 39.2" fill="#df5900" fill-rule="evenodd" stroke="none"/>
    <path d="M30.75 -122.25 L28.8 -124.8 30.35 -125.2 31.95 -125.0 Q33.35 -124.4 33.9 -122.2 L34.0 -121.7 34.25 -116.0 Q34.25 -112.55 33.6 -110.9 L32.9 -111.35 Q31.9 -112.2 32.2 -113.45 L32.3 -113.75 33.0 -116.15 Q33.0 -118.45 31.8 -120.65 L30.75 -122.25 M32.8 -120.45 L32.4 -122.0 Q31.85 -123.45 30.85 -123.6 31.85 -122.6 32.65 -120.4 L32.8 -120.25 32.85 -120.25 32.8 -120.45 M88.9 5.2 L88.7 5.15 88.6 4.35 Q88.6 4.0 90.7 0.3 L92.0 -5.6 Q92.0 -7.2 91.05 -9.75 L89.45 -14.25 Q87.7 -19.8 91.0 -23.25 87.5 -24.9 86.55 -26.55 86.0 -27.45 86.0 -29.5 86.0 -31.3 91.9 -39.5 L97.0 -46.25 97.1 -46.9 97.55 -46.9 97.75 -46.9 Q98.1 -45.35 98.1 -43.3 98.1 -39.25 95.3 -35.4 92.5 -31.55 92.5 -29.8 92.5 -28.85 94.15 -26.25 95.8 -23.7 95.8 -21.65 95.8 -19.7 94.35 -17.15 92.9 -14.6 92.9 -13.8 94.85 -8.3 94.85 -7.3 94.85 -3.6 93.65 -1.25 92.85 0.3 89.0 5.25 L88.9 5.2 M73.35 22.35 L73.35 22.0 Q73.35 21.6 76.8 17.7 L77.3 17.15 79.65 13.35 78.05 15.5 Q77.8 16.15 77.8 14.9 77.8 14.4 79.7 10.75 81.65 7.0 81.75 5.35 L82.1 5.35 82.1 5.25 82.85 5.25 83.2 5.6 83.25 6.65 Q83.25 13.45 73.6 22.55 73.4 23.15 73.35 22.35 M61.1 20.5 Q61.1 19.5 64.25 18.35 67.35 17.2 67.35 19.3 67.35 22.1 64.65 24.3 60.25 27.85 58.75 29.85 58.35 30.35 58.35 29.1 58.35 28.05 61.2 23.95 63.85 20.15 64.75 19.4 63.8 19.45 63.25 20.1 L62.0 21.1 Q61.1 21.75 61.1 20.5" fill="#ff9900" fill-rule="evenodd" stroke="none"/>
  </g>
</svg>
