<?xml version="1.0" encoding="UTF-8" standalone="no"?>
<svg xmlns:xlink="http://www.w3.org/1999/xlink" height="109.25px" width="90.75px" xmlns="http://www.w3.org/2000/svg">
  <g transform="matrix(1, 0, 0, 1, -50.5, 61.0)">
    <path d="M89.85 -49.95 L89.0 -46.85 Q89.0 -45.35 90.6 -42.75 L93.5 -38.25 Q92.75 -36.0 90.0 -36.0 L87.65 -36.35 Q88.3 -36.45 88.6 -36.9 88.05 -37.75 87.0 -40.1 85.75 -42.95 85.75 -44.0 85.75 -45.45 89.05 -49.05 L89.85 -49.95 M76.6 18.2 L76.7 18.6 77.0 18.75 Q79.65 16.75 81.95 11.25 84.0 6.3 87.85 4.3 94.45 0.85 96.8 -2.85 98.55 -5.55 98.55 -9.65 98.55 -12.7 97.15 -14.8 95.75 -16.85 95.75 -18.35 95.75 -19.75 97.3 -22.15 L100.0 -25.8 100.3 -25.95 100.25 -24.6 Q100.25 -20.6 102.55 -14.3 L104.55 -8.5 104.0 -8.5 104.0 -4.5 105.7 2.3 Q106.75 6.35 108.4 8.0 L115.4 15.0 Q120.75 20.4 121.0 20.4 122.25 20.4 122.1 19.8 L122.0 19.4 119.95 17.1 120.05 16.5 Q120.0 15.7 119.0 14.55 L123.25 18.5 130.5 19.0 Q132.0 20.5 141.25 36.25 L141.0 39.25 139.95 39.65 137.35 40.0 Q136.15 40.0 133.85 38.9 131.55 37.75 130.0 37.75 L129.0 40.65 129.0 39.85 Q129.0 32.6 125.05 29.2 122.45 26.95 116.45 25.6 109.65 24.1 107.8 23.0 103.85 20.8 103.85 15.5 103.85 15.35 104.6 14.55 105.3 13.75 105.3 12.8 98.9 12.75 98.3 16.4 98.1 17.45 97.85 19.85 97.4 22.0 95.8 23.4 95.2 23.95 91.0 24.25 87.65 24.5 86.55 27.8 86.55 29.85 85.65 31.25 83.95 33.85 78.4 33.85 74.1 33.85 69.3 30.05 L65.05 25.9 62.8 25.9 62.8 29.5 Q63.4 30.5 63.9 32.45 L64.35 35.25 Q64.35 36.2 63.45 38.95 L62.25 41.85 60.75 39.75 Q58.1 37.15 53.95 36.05 L51.75 35.45 Q56.85 30.45 60.75 22.15 65.3 12.3 66.6 9.8 L66.6 9.85 Q68.15 16.3 76.6 18.2 M107.6 -5.2 Q110.85 -6.55 112.65 -9.0 114.7 -11.85 114.0 -14.75 L115.5 -15.0 Q116.25 -12.75 116.25 -7.5 116.25 -2.7 116.05 -1.5 115.3 2.65 112.25 4.5 113.75 9.0 117.65 13.15 L118.3 13.85 117.7 13.3 115.8 12.0 Q115.25 10.1 113.55 7.85 111.05 4.7 111.05 3.8 111.05 1.35 108.4 -3.7 L107.6 -5.2" fill="#ff6600" fill-rule="evenodd" stroke="none"/>
    <path d="M62.25 41.85 L63.45 38.95 Q64.35 36.2 64.35 35.25 L63.9 32.45 Q63.4 30.5 62.8 29.5 L62.8 25.9 65.05 25.9 69.3 30.05 Q74.1 33.85 78.4 33.85 83.95 33.85 85.65 31.25 86.55 29.85 86.55 27.8 87.65 24.5 91.0 24.25 95.2 23.95 95.8 23.4 97.4 22.0 97.85 19.85 98.1 17.45 98.3 16.4 98.9 12.75 105.3 12.8 105.3 13.75 104.6 14.55 103.85 15.35 103.85 15.5 103.85 20.8 107.8 23.0 109.65 24.1 116.45 25.6 122.45 26.95 125.05 29.2 129.0 32.6 129.0 39.85 L129.0 40.65 128.95 41.75 Q128.75 42.6 127.75 43.0 L127.05 42.9 Q125.85 43.5 124.0 43.5 122.45 43.5 121.2 42.55 L119.5 41.0 Q120.35 42.7 118.9 45.0 117.3 47.5 114.5 47.5 110.2 47.5 110.0 46.15 109.75 44.75 106.5 44.75 103.55 44.75 102.2 46.5 100.8 48.25 99.0 48.25 94.8 48.25 90.95 44.55 L86.75 39.5 Q86.0 39.5 76.5 42.25 L66.85 45.0 Q64.9 45.0 62.95 42.8 L62.4 43.25 61.55 42.6 62.25 41.85" fill="#df5900" fill-rule="evenodd" stroke="none"/>
    <path d="M87.65 -36.35 L87.05 -36.3 86.95 -36.55 86.35 -36.75 82.5 -38.25 82.25 -38.05 Q82.0 -38.2 82.0 -39.75 82.0 -43.85 85.6 -51.7 88.85 -58.85 91.0 -61.0 L93.0 -60.75 Q93.0 -59.95 92.2 -57.25 L92.25 -57.2 92.3 -56.25 Q92.3 -53.1 89.85 -49.95 L89.05 -49.05 Q85.75 -45.45 85.75 -44.0 85.75 -42.95 87.0 -40.1 88.05 -37.75 88.6 -36.9 88.3 -36.45 87.65 -36.35 M100.3 -25.95 L100.0 -25.8 97.3 -22.15 Q95.75 -19.75 95.75 -18.35 95.75 -16.85 97.15 -14.8 98.55 -12.7 98.55 -9.65 98.55 -5.55 96.8 -2.85 94.45 0.85 87.85 4.3 84.0 6.3 81.95 11.25 79.65 16.75 77.0 18.75 L76.7 18.6 76.6 18.2 76.6 17.8 Q76.6 17.3 77.2 16.2 77.85 10.75 80.55 7.0 82.75 3.95 87.4 1.05 92.85 -2.4 94.0 -3.5 97.0 -6.4 97.0 -10.6 97.0 -11.4 93.9 -14.4 90.75 -17.35 90.75 -20.5 90.75 -23.6 100.5 -31.0 L100.3 -27.45 100.35 -27.45 101.55 -26.75 100.3 -25.95 M66.6 9.8 Q65.3 12.3 60.75 22.15 56.85 30.45 51.75 35.45 L51.5 35.65 Q51.2 36.0 51.2 35.3 L50.5 35.0 56.15 23.5 Q61.75 11.35 61.75 3.1 61.75 0.6 62.0 2.0 L62.5 1.25 Q64.75 2.3 65.55 4.9 L66.4 8.65 66.5 8.6 67.0 9.0 66.6 9.8 M119.0 14.55 Q120.0 15.7 120.05 16.5 L119.95 17.1 122.0 19.4 122.1 19.8 Q122.25 20.4 121.0 20.4 120.75 20.4 115.4 15.0 L108.4 8.0 Q106.75 6.35 105.7 2.3 L104.0 -4.5 104.0 -8.5 104.55 -8.5 Q105.8 -8.2 107.6 -5.2 L108.4 -3.7 Q111.05 1.35 111.05 3.8 111.05 4.7 113.55 7.85 115.25 10.1 115.8 12.0 L117.7 13.3 118.3 13.85 119.0 14.55" fill="#ff9900" fill-rule="evenodd" stroke="none"/>
  </g>
</svg>
