<?xml version="1.0" encoding="UTF-8" standalone="no"?>
<svg xmlns:xlink="http://www.w3.org/1999/xlink" height="127.5px" width="92.0px" xmlns="http://www.w3.org/2000/svg">
  <g transform="matrix(1, 0, 0, 1, -49.0, 78.25)">
    <path d="M64.0 4.95 Q65.6 5.8 68.4 7.05 74.95 10.05 76.5 11.75 L82.25 18.5 83.05 18.45 83.2 18.4 83.9 18.35 84.05 18.35 84.1 18.3 84.75 18.25 84.75 17.1 90.35 6.85 Q95.75 -3.35 95.75 -5.25 L95.25 -8.75 Q94.75 -11.65 94.75 -12.3 L97.15 -16.9 Q99.5 -21.1 99.5 -25.4 L99.3 -31.1 99.1 -37.65 101.65 -28.4 Q104.25 -17.85 104.25 -12.75 104.25 -8.4 102.25 -4.8 100.25 -1.25 100.25 2.25 100.25 6.1 101.2 7.8 102.75 10.6 108.05 13.85 L108.45 14.45 107.35 15.1 Q107.75 15.5 108.55 15.6 L109.25 15.3 109.5 15.5 110.0 15.3 110.1 14.8 Q113.75 12.45 113.9 8.5 L113.7 4.5 Q113.55 2.05 114.05 0.5 115.25 -3.2 118.8 -8.1 120.6 -10.6 121.25 -12.75 L121.25 2.25 119.3 5.35 118.25 7.1 Q118.25 8.85 121.2 11.1 L127.75 15.5 Q135.9 21.0 137.05 26.5 L137.25 26.5 Q137.8 27.6 139.35 32.65 L140.3 35.75 140.4 35.6 Q140.75 35.55 140.75 37.1 L140.75 37.4 141.0 38.85 140.75 41.2 139.75 42.0 138.5 42.25 138.85 41.4 139.0 40.2 138.0 41.25 136.15 41.4 136.15 39.25 Q136.15 39.0 129.35 31.4 121.9 23.1 119.8 18.6 118.3 19.15 117.15 20.15 L115.15 21.85 Q112.15 23.85 103.35 24.6 102.4 24.05 102.45 22.3 102.55 20.4 101.55 19.55 L97.35 19.0 94.8 18.6 93.4 18.8 92.9 19.0 Q94.8 27.4 89.55 32.65 L83.0 32.75 Q76.9 32.75 69.45 24.75 L64.3 19.0 Q62.3 16.85 61.1 16.15 L63.3 14.95 Q65.0 13.85 65.0 12.5 65.0 10.05 63.75 7.95 L62.3 4.95 62.4 4.65 63.0 5.65 63.6 6.1 63.9 5.7 64.0 4.95 M62.8 42.75 Q60.15 41.0 58.3 38.05 L57.35 36.35 57.35 35.6 Q57.35 31.85 55.7 28.3 54.0 24.7 54.0 23.35 54.0 19.55 59.5 16.9 L60.35 16.5 60.35 23.25 62.8 30.25 Q64.35 34.55 64.35 37.5 L64.25 40.35 Q64.0 41.4 62.8 42.75 M86.85 -74.25 L87.0 -71.6 Q87.0 -70.8 86.2 -67.5 85.55 -64.7 86.0 -63.0 L86.0 -62.8 87.25 -60.0 86.75 -58.95 Q86.35 -58.4 85.5 -58.25 L83.05 -62.3 Q80.75 -66.15 80.75 -66.85 80.75 -70.15 81.55 -72.3 L82.25 -73.6 82.05 -71.95 81.7 -71.45 Q81.5 -71.0 81.5 -68.75 81.5 -66.45 82.0 -65.7 L82.65 -64.9 Q83.15 -63.35 84.05 -62.75 L84.2 -62.8 84.75 -62.0 85.0 -62.4 Q84.85 -63.95 83.75 -65.85 L83.4 -66.45 86.85 -74.25" fill="#ff6600" fill-rule="evenodd" stroke="none"/>
    <path d="M136.15 41.4 L136.1 42.0 Q135.9 43.0 134.5 44.9 133.6 44.75 133.0 44.4 133.0 43.45 133.9 41.8 L134.05 41.55 131.0 41.75 127.0 45.25 119.0 45.75 Q118.5 46.15 117.1 48.1 116.2 49.25 115.0 49.25 L107.1 48.75 102.0 48.25 Q93.2 48.25 86.25 45.5 80.8 42.75 79.35 42.75 78.1 42.75 75.7 44.0 73.25 45.25 72.0 45.25 67.3 45.25 63.8 43.35 L63.4 44.15 Q62.15 43.9 62.05 43.55 L62.8 42.75 Q64.0 41.4 64.25 40.35 L64.35 37.5 Q64.35 34.55 62.8 30.25 L60.35 23.25 60.35 16.5 61.1 16.15 Q62.3 16.85 64.3 19.0 L69.45 24.75 Q76.9 32.75 83.0 32.75 L89.55 32.65 Q94.8 27.4 92.9 19.0 L93.4 18.8 94.8 18.6 97.35 19.0 101.55 19.55 Q102.55 20.4 102.45 22.3 102.4 24.05 103.35 24.6 112.15 23.85 115.15 21.85 L117.15 20.15 Q118.3 19.15 119.8 18.6 121.9 23.1 129.35 31.4 136.15 39.0 136.15 39.25 L136.15 41.4" fill="#df5900" fill-rule="evenodd" stroke="none"/>
    <path d="M57.35 36.35 L57.25 36.7 56.9 37.05 56.0 37.05 Q56.0 35.75 55.4 33.25 L54.9 32.55 Q50.6 30.6 49.45 28.25 49.0 27.3 49.0 24.1 49.0 22.2 51.9 12.55 54.75 2.9 54.75 -7.0 54.75 -7.55 55.55 -8.9 L58.25 -13.0 61.25 -13.0 60.95 -4.6 Q60.9 -0.55 61.6 2.15 L62.0 1.3 63.05 2.85 Q64.0 4.2 64.0 4.65 L64.0 4.95 63.9 5.7 63.6 6.1 63.0 5.65 62.4 4.65 62.3 4.95 63.75 7.95 Q65.0 10.05 65.0 12.5 65.0 13.85 63.3 14.95 L61.1 16.15 60.35 16.5 59.5 16.9 Q54.0 19.55 54.0 23.35 54.0 24.7 55.7 28.3 57.35 31.85 57.35 35.6 L57.35 36.35 M83.05 18.45 L83.0 17.65 84.95 13.75 Q85.5 7.25 87.75 2.9 L89.8 -1.0 Q90.75 -3.15 90.75 -5.75 90.75 -7.0 89.75 -9.65 88.75 -12.35 88.75 -13.6 88.75 -17.65 92.05 -25.7 95.5 -34.15 96.0 -42.0 L97.5 -42.0 98.75 -38.7 99.05 -39.1 99.1 -37.65 99.3 -31.1 99.5 -25.4 Q99.5 -21.1 97.15 -16.9 L94.75 -12.3 Q94.75 -11.65 95.25 -8.75 L95.75 -5.25 Q95.75 -3.35 90.35 6.85 L84.75 17.1 84.1 18.3 84.05 18.35 83.9 18.35 83.25 18.25 83.2 18.4 83.05 18.45 M108.05 13.85 L108.0 13.75 Q108.05 13.5 109.0 13.45 110.75 7.7 111.75 0.7 112.75 -6.65 112.75 -14.0 L114.4 -13.7 Q114.6 -15.45 115.15 -17.7 116.0 -21.5 116.0 -25.5 L117.5 -25.75 Q118.45 -24.65 118.7 -23.65 119.0 -22.75 119.0 -20.85 L119.0 -20.65 120.25 -21.25 119.75 -18.0 120.8 -18.0 121.25 -18.25 121.45 -17.4 121.75 -17.6 121.95 -17.4 122.0 -16.55 Q122.0 -15.85 121.6 -15.15 L121.6 -15.0 Q121.6 -13.9 121.25 -12.75 120.6 -10.6 118.8 -8.1 115.25 -3.2 114.05 0.5 113.55 2.05 113.7 4.5 L113.9 8.5 Q113.75 12.45 110.1 14.8 L110.0 15.3 109.5 15.5 109.25 15.3 108.55 15.6 Q107.75 15.5 107.35 15.1 L108.45 14.45 108.05 13.85 M82.25 -73.6 L82.25 -73.7 85.35 -78.25 86.25 -78.25 86.75 -76.7 87.05 -75.0 86.85 -74.25 83.4 -66.45 83.75 -65.85 Q84.85 -63.95 85.0 -62.4 L84.75 -62.0 84.2 -62.8 84.05 -62.75 Q83.15 -63.35 82.65 -64.9 L82.0 -65.7 Q81.5 -66.45 81.5 -68.75 81.5 -71.0 81.7 -71.45 L82.05 -71.95 82.25 -73.6 M118.3 -17.75 L117.65 -16.35 116.7 -14.35 117.2 -14.8 118.4 -16.35 118.3 -17.75" fill="#ff9900" fill-rule="evenodd" stroke="none"/>
  </g>
</svg>
