<?xml version="1.0" encoding="UTF-8" standalone="no"?>
<svg xmlns:xlink="http://www.w3.org/1999/xlink" height="149.75px" width="97.6px" xmlns="http://www.w3.org/2000/svg">
  <g transform="matrix(1, 0, 0, 1, -48.05, 97.5)">
    <path d="M74.7 -1.35 L75.45 1.05 Q76.0 2.6 75.85 4.25 75.7 5.75 73.85 9.55 71.95 13.35 71.9 14.15 71.8 14.9 73.75 17.35 75.8 20.0 77.1 20.0 86.9 20.0 90.05 10.0 L91.2 4.85 91.75 4.3 Q93.8 -2.05 97.7 -5.9 100.15 -8.3 104.9 -10.75 109.6 -13.2 111.1 -14.7 113.9 -17.4 114.35 -22.1 L114.7 -25.85 114.55 -27.05 114.6 -27.05 114.7 -27.4 Q115.9 -22.6 115.45 -17.8 115.0 -12.9 109.25 -7.85 103.5 -2.8 103.05 2.05 102.8 4.5 103.95 8.25 L104.65 10.0 Q104.15 10.05 104.05 10.2 L104.1 10.65 Q105.85 12.75 108.95 19.3 110.2 19.3 109.95 19.0 111.55 15.2 114.95 12.25 L121.25 7.7 Q128.05 3.05 129.6 -3.55 L129.75 -0.05 Q129.6 1.65 128.65 3.9 127.65 6.15 127.55 7.05 127.3 9.8 134.55 14.65 141.65 19.4 141.05 22.85 139.45 31.9 142.6 32.85 144.6 33.4 144.85 33.7 145.9 34.7 145.6 37.9 145.25 41.65 139.0 43.95 135.7 45.15 129.25 46.5 132.7 42.9 132.9 40.55 133.1 38.6 131.75 36.9 L128.7 33.8 Q124.3 29.35 124.95 22.65 124.95 22.25 125.8 20.65 L127.3 17.6 125.7 17.0 125.55 12.5 124.7 12.55 Q124.4 14.15 121.6 16.3 120.4 16.45 119.6 17.05 119.0 17.55 118.5 18.6 118.8 18.35 119.2 18.2 117.4 19.7 117.15 20.85 L116.1 25.15 Q115.45 27.75 114.2 29.15 L114.8 28.95 114.35 29.5 Q111.75 32.85 106.15 32.85 102.05 32.85 99.75 27.45 98.2 23.85 97.6 18.25 L96.75 18.55 96.25 18.75 Q94.65 30.1 90.6 32.85 87.7 34.8 76.9 34.8 69.7 34.8 68.15 31.15 67.75 27.05 66.85 26.25 65.7 26.5 65.2 28.2 L64.85 30.6 Q64.7 32.4 65.65 36.1 66.45 39.6 67.3 41.05 L66.0 42.0 Q65.05 42.6 64.85 43.05 L64.9 43.2 64.8 43.3 Q61.3 40.9 59.4 38.55 58.1 36.9 57.85 35.45 L57.2 35.5 56.25 29.3 Q56.05 28.15 56.35 25.0 L56.65 22.5 57.1 22.4 57.6 18.25 Q57.95 14.65 55.85 9.3 53.7 4.0 54.1 -0.25 54.35 -2.35 57.4 -7.55 L57.9 -8.3 57.9 -8.25 58.55 -8.35 59.0 -9.4 Q64.7 -8.35 67.75 -6.15 L72.6 -2.35 72.65 -2.35 73.75 -1.75 74.7 -1.35 M62.9 -4.6 Q57.9 -11.75 56.9 -1.4 56.5 2.7 57.7 7.2 58.85 11.5 61.25 15.5 L62.2 14.95 62.45 13.85 62.35 11.75 Q62.2 10.3 62.45 9.55 62.85 8.15 65.3 6.85 67.6 5.65 67.7 4.65 65.4 -1.05 62.9 -4.6 M96.1 -95.6 L96.2 -95.1 Q96.1 -94.15 94.5 -92.9 92.9 -91.7 92.6 -88.75 91.95 -88.35 91.2 -88.25 L90.5 -88.65 90.4 -89.4 93.6 -92.7 96.1 -95.6 M94.7 -57.95 L98.85 -52.0 Q102.25 -46.75 101.85 -42.75 101.75 -41.8 100.65 -40.55 99.35 -39.1 98.7 -37.9 98.5 -40.15 95.9 -43.1 93.1 -46.15 93.25 -47.75 93.35 -49.4 94.3 -52.65 94.65 -54.45 94.4 -55.9 L94.7 -57.95 M131.0 -40.45 Q131.6 -39.4 131.35 -37.15 L131.3 -36.55 130.5 -34.95 129.95 -33.5 128.5 -31.5 128.0 -30.85 127.05 -30.9 126.4 -28.85 125.85 -28.15 125.85 -27.45 125.15 -25.8 125.2 -26.9 Q125.4 -29.4 126.45 -30.75 L128.5 -32.6 Q131.15 -34.7 131.0 -40.45 M125.6 -23.05 L126.3 -22.85 130.0 -29.3 131.85 -33.05 131.9 -33.1 132.05 -33.35 132.75 -35.15 132.55 -30.8 Q132.25 -27.55 131.4 -26.4 L126.1 -21.0 125.6 -23.05 M66.1 30.25 L66.3 29.1 66.9 28.4 66.4 30.8 Q66.25 31.3 66.25 31.75 L66.1 30.25" fill="#ff6600" fill-rule="evenodd" stroke="none"/>
    <path d="M129.25 46.5 L129.05 46.7 Q125.45 50.45 121.75 52.1 L121.6 51.35 126.0 47.15 118.35 48.5 Q117.5 48.85 117.05 49.55 L116.3 50.8 Q115.1 52.25 110.5 52.25 L105.6 52.1 104.95 51.35 Q100.5 51.5 98.55 48.45 96.55 45.35 93.0 45.35 L88.0 45.85 87.95 45.85 87.7 46.05 Q87.2 46.75 86.0 46.75 L85.6 46.75 82.9 47.1 Q78.85 47.1 76.9 45.1 L76.2 44.3 66.3 44.0 65.8 44.15 64.65 44.05 64.2 43.65 64.8 43.3 64.9 43.2 64.85 43.05 Q65.05 42.6 66.0 42.0 L67.3 41.05 Q66.45 39.6 65.65 36.1 64.7 32.4 64.85 30.6 L65.2 28.2 Q65.7 26.5 66.85 26.25 67.75 27.05 68.15 31.15 69.7 34.8 76.9 34.8 87.7 34.8 90.6 32.85 94.65 30.1 96.25 18.75 L96.75 18.55 97.6 18.25 Q98.2 23.85 99.75 27.45 102.05 32.85 106.15 32.85 111.75 32.85 114.35 29.5 L114.8 28.95 114.2 29.15 Q115.45 27.75 116.1 25.15 L117.15 20.85 Q117.4 19.7 119.2 18.2 118.8 18.35 118.5 18.6 119.0 17.55 119.6 17.05 120.4 16.45 121.6 16.3 124.4 14.15 124.7 12.55 L125.55 12.5 125.7 17.0 127.3 17.6 125.8 20.65 Q124.95 22.25 124.95 22.65 124.3 29.35 128.7 33.8 L131.75 36.9 Q133.1 38.6 132.9 40.55 132.7 42.9 129.25 46.5 M62.9 -4.6 Q65.4 -1.05 67.7 4.65 67.6 5.65 65.3 6.85 62.85 8.15 62.45 9.55 62.2 10.3 62.35 11.75 L62.45 13.85 62.2 14.95 61.25 15.5 Q58.85 11.5 57.7 7.2 56.5 2.7 56.9 -1.4 57.9 -11.75 62.9 -4.6 M66.1 30.25 L66.25 31.75 Q66.25 31.3 66.4 30.8 L66.9 28.4 66.3 29.1 66.1 30.25 M79.1 44.35 L78.6 44.35 79.05 44.7 79.1 44.35" fill="#df5900" fill-rule="evenodd" stroke="none"/>
    <path d="M56.65 22.5 L56.25 22.55 56.35 21.35 56.3 21.25 Q55.85 20.0 52.2 15.4 49.25 11.55 49.45 9.6 49.6 7.85 48.75 3.75 47.9 -0.35 48.05 -2.0 L49.9 -8.25 Q51.75 -14.4 51.85 -15.65 51.9 -16.35 51.0 -18.9 50.1 -21.55 49.5 -22.25 49.55 -23.2 50.25 -23.55 51.75 -22.6 52.9 -20.3 L55.05 -16.3 Q55.35 -15.9 56.6 -15.2 L56.3 -15.8 56.95 -16.4 Q57.65 -16.2 58.7 -14.7 L59.15 -14.0 60.75 -13.3 Q65.8 -11.15 66.7 -10.0 67.75 -8.55 71.25 -5.95 73.6 -4.25 74.2 -3.25 L74.55 -3.15 76.3 -2.35 Q76.15 -1.3 75.7 -1.0 L74.7 -1.35 73.75 -1.75 72.65 -2.35 72.6 -2.35 67.75 -6.15 Q64.7 -8.35 59.0 -9.4 L58.55 -8.35 57.9 -8.25 57.9 -8.3 57.4 -7.55 Q54.35 -2.35 54.1 -0.25 53.7 4.0 55.85 9.3 57.95 14.65 57.6 18.25 L57.1 22.4 56.65 22.5 M91.2 4.85 L91.05 4.9 90.45 4.45 90.45 3.25 Q90.6 1.5 91.3 -0.15 L91.3 -0.3 Q91.65 -4.15 94.45 -7.55 96.2 -9.65 100.5 -13.05 104.9 -16.55 106.5 -18.45 109.35 -21.7 109.7 -25.4 109.85 -27.05 109.15 -30.25 108.2 -34.5 108.15 -35.3 111.4 -35.4 113.35 -31.25 L113.9 -31.4 Q114.95 -29.85 114.8 -28.35 L114.7 -27.4 114.6 -27.05 114.55 -27.05 114.7 -25.85 114.35 -22.1 Q113.9 -17.4 111.1 -14.7 109.6 -13.2 104.9 -10.75 100.15 -8.3 97.7 -5.9 93.8 -2.05 91.75 4.3 L91.2 4.85 M104.65 10.0 L104.9 10.0 Q106.1 10.0 107.7 12.5 L108.3 13.45 108.95 13.5 115.85 7.75 Q116.4 6.4 118.35 4.6 119.95 3.15 121.2 2.4 126.85 -4.1 128.0 -9.55 128.9 -8.95 129.35 -5.9 L129.8 -6.55 Q130.1 -7.1 129.95 -5.85 L129.6 -3.55 Q128.05 3.05 121.25 7.7 L114.95 12.25 Q111.55 15.2 109.95 19.0 110.2 19.3 108.95 19.3 105.85 12.75 104.1 10.65 L104.05 10.2 Q104.15 10.05 104.65 10.0 M90.4 -89.4 L90.15 -89.15 89.9 -89.3 89.9 -90.1 Q90.0 -91.4 91.7 -93.9 93.15 -96.0 94.7 -96.9 L94.8 -97.0 96.2 -97.5 96.5 -97.25 96.5 -96.4 96.1 -95.6 93.6 -92.7 90.4 -89.4 M98.7 -37.9 L98.65 -37.65 97.85 -37.15 97.7 -37.45 96.55 -37.3 Q91.45 -38.55 90.5 -43.25 90.15 -44.85 90.6 -49.65 L91.15 -54.4 92.55 -60.5 92.35 -61.05 Q93.45 -62.25 94.25 -60.85 94.85 -59.65 94.75 -58.35 L94.7 -57.95 94.4 -55.9 Q94.65 -54.45 94.3 -52.65 93.35 -49.4 93.25 -47.75 93.1 -46.15 95.9 -43.1 98.5 -40.15 98.7 -37.9 M131.0 -40.45 L130.75 -40.75 131.25 -41.5 Q132.5 -41.2 132.7 -39.55 L132.6 -37.8 132.8 -37.9 133.0 -37.3 132.95 -36.1 132.75 -35.15 132.05 -33.35 131.9 -33.1 131.85 -33.05 130.0 -29.3 126.3 -22.85 125.6 -23.05 Q125.1 -23.3 124.9 -23.7 L124.9 -24.6 125.15 -25.8 125.85 -27.45 125.85 -28.15 126.4 -28.85 127.05 -30.9 128.0 -30.85 128.5 -31.5 129.95 -33.5 130.5 -34.95 131.3 -36.55 131.35 -37.15 Q131.6 -39.4 131.0 -40.45" fill="#ff9900" fill-rule="evenodd" stroke="none"/>
  </g>
</svg>
