<?xml version="1.0" encoding="UTF-8" standalone="no"?>
<svg xmlns:xlink="http://www.w3.org/1999/xlink" height="144.4px" width="95.4px" xmlns="http://www.w3.org/2000/svg">
  <g transform="matrix(1, 0, 0, 1, -54.35, 90.5)">
    <path d="M68.75 -29.75 L67.1 -29.75 65.6 -26.8 Q64.45 -24.7 64.3 -24.0 64.1 -22.9 65.45 -20.35 67.2 -17.1 70.2 -17.1 L71.0 -17.3 70.85 -17.5 Q71.45 -20.35 69.95 -24.05 68.45 -27.85 68.75 -29.75 M69.0 -35.0 Q69.75 -33.75 71.2 -32.85 73.55 -31.35 79.05 -28.85 80.95 -27.45 81.3 -22.95 81.55 -19.45 80.95 -16.65 80.5 -14.0 79.3 -11.6 76.9 -6.85 72.8 -6.85 71.2 -6.85 70.75 -7.7 L70.5 -9.6 Q70.45 -12.35 66.55 -12.35 L64.85 -11.6 Q63.45 -10.95 62.25 -10.85 L62.95 -13.55 Q63.55 -16.35 62.4 -19.95 61.2 -23.55 61.45 -24.6 61.85 -26.6 65.3 -30.8 L69.0 -35.0 M66.0 -21.65 Q65.2 -22.45 65.5 -23.9 65.6 -24.45 65.85 -24.8 L66.45 -22.15 66.65 -21.2 66.0 -21.65 M64.9 3.0 Q72.9 3.2 75.65 7.9 76.6 9.6 77.45 12.5 79.65 14.05 80.5 14.05 83.65 14.05 88.55 11.4 L88.55 11.5 89.15 11.6 Q99.75 9.15 102.65 6.9 104.05 5.8 104.75 2.3 L105.2 -1.65 Q105.5 -4.2 106.55 -5.95 109.65 -11.05 121.6 -13.85 L121.75 -13.9 Q121.85 -13.25 122.35 -12.55 L123.5 -10.95 124.3 -11.5 127.95 -15.3 Q129.95 -17.55 131.4 -18.1 131.5 -16.8 130.9 -12.85 130.4 -9.2 130.7 -7.6 131.0 -6.0 133.75 -2.65 136.55 0.75 136.9 2.5 L139.35 12.55 Q140.7 17.2 142.4 20.7 L142.6 20.05 143.4 20.0 Q143.1 23.4 145.9 27.15 148.65 30.7 148.05 33.5 147.75 34.9 145.15 37.7 142.0 41.1 137.55 44.0 128.0 50.3 116.6 51.8 116.85 48.25 122.4 45.05 L127.35 42.2 Q129.8 40.55 130.15 38.9 130.95 35.15 128.6 33.25 127.25 32.2 123.0 30.8 118.9 29.55 117.45 28.05 115.15 25.75 116.1 21.35 119.15 14.1 119.45 12.65 119.85 10.75 119.55 8.65 119.2 6.55 119.3 6.25 119.45 5.45 121.95 1.95 L124.9 -2.15 124.95 -2.75 Q116.6 -5.6 113.75 -3.9 112.65 -3.25 112.0 -0.25 111.55 1.85 111.7 2.25 111.95 3.25 114.1 4.75 110.05 10.8 105.0 12.2 102.75 12.8 102.1 13.35 100.85 14.3 100.25 17.0 99.9 18.7 99.95 24.55 100.05 30.45 100.45 31.8 97.65 33.45 95.5 34.35 91.55 36.1 87.9 36.1 85.05 36.1 77.9 27.65 L68.35 16.55 Q67.55 16.95 67.35 17.85 69.0 20.65 70.25 24.9 L72.2 31.9 Q72.7 33.2 72.6 35.4 L72.5 38.95 Q72.6 42.3 75.3 43.95 L75.2 44.5 75.25 44.65 75.1 44.65 Q73.65 44.85 73.4 45.1 74.05 45.3 74.75 45.7 63.65 43.7 62.2 39.55 62.0 38.9 61.9 34.9 61.85 32.1 59.9 30.5 L57.1 30.05 Q56.75 29.2 56.75 28.05 L56.8 28.05 Q59.0 26.05 60.6 23.85 62.4 21.45 62.65 19.9 63.2 16.6 66.7 15.1 70.25 13.55 70.6 11.85 70.95 10.2 69.8 9.4 69.0 8.8 64.35 7.05 L64.75 4.4 64.9 3.0 M148.6 -50.6 L148.75 -50.55 Q149.85 -49.7 149.65 -48.75 L149.2 -47.75 149.15 -47.6 148.7 -46.9 Q147.85 -45.5 147.05 -44.85 146.6 -45.6 146.45 -46.95 L146.25 -49.25 146.7 -51.35 147.4 -51.2 147.9 -52.0 Q148.9 -53.25 149.75 -53.6 L148.8 -52.0 148.2 -50.9 148.55 -50.7 Q147.15 -50.1 146.95 -49.0 146.75 -48.2 146.85 -47.3 L147.05 -45.75 147.55 -45.75 148.25 -46.65 148.9 -48.05 148.9 -49.6 148.6 -50.6 M103.45 -85.75 Q103.75 -87.55 103.4 -90.25 L103.65 -90.3 103.95 -90.5 108.0 -84.0 Q109.55 -81.0 108.85 -77.8 108.6 -76.65 106.9 -75.0 L106.85 -74.9 106.95 -75.15 107.5 -77.3 Q108.1 -80.1 106.95 -81.35 104.6 -83.8 103.6 -86.25 L103.55 -86.15 Q103.65 -86.8 103.45 -85.75 M104.5 -73.35 L103.25 -73.1 Q100.3 -73.1 101.55 -79.15 L102.4 -82.55 102.5 -78.4 102.45 -73.9 103.05 -73.9 Q103.65 -75.0 104.1 -77.15 L104.3 -76.9 Q103.85 -75.95 104.0 -74.75 L104.5 -73.35 M102.7 -83.5 L103.35 -85.35 103.4 -85.5 Q103.25 -84.8 103.55 -84.3 L104.2 -83.4 102.7 -83.5" fill="#ff6600" fill-rule="evenodd" stroke="none"/>
    <path d="M68.75 -29.75 Q68.45 -27.85 69.95 -24.05 71.45 -20.35 70.85 -17.5 L71.0 -17.3 70.2 -17.1 Q67.2 -17.1 65.45 -20.35 64.1 -22.9 64.3 -24.0 64.45 -24.7 65.6 -26.8 L67.1 -29.75 68.75 -29.75 M66.0 -21.65 L66.65 -21.2 66.45 -22.15 65.85 -24.8 Q65.6 -24.45 65.5 -23.9 65.2 -22.45 66.0 -21.65 M116.6 51.8 L116.65 53.15 116.0 53.9 114.55 53.9 114.95 52.0 109.35 52.25 Q102.7 52.25 98.5 49.85 94.4 47.45 83.4 47.55 L82.85 46.8 77.95 46.25 77.8 46.5 76.9 46.75 Q76.45 46.85 75.6 46.25 L75.55 46.25 75.1 46.8 74.75 46.8 75.0 45.9 74.75 45.7 Q74.05 45.3 73.4 45.1 73.65 44.85 75.1 44.65 L75.25 44.65 75.2 44.5 75.3 43.95 Q72.6 42.3 72.5 38.95 L72.6 35.4 Q72.7 33.2 72.2 31.9 L70.25 24.9 Q69.0 20.65 67.35 17.85 67.55 16.95 68.35 16.55 L77.9 27.65 Q85.05 36.1 87.9 36.1 91.55 36.1 95.5 34.35 97.65 33.45 100.45 31.8 100.05 30.45 99.95 24.55 99.9 18.7 100.25 17.0 100.85 14.3 102.1 13.35 102.75 12.8 105.0 12.2 110.05 10.8 114.1 4.75 111.95 3.25 111.7 2.25 111.55 1.85 112.0 -0.25 112.65 -3.25 113.75 -3.9 116.6 -5.6 124.95 -2.75 L124.9 -2.15 121.95 1.95 Q119.45 5.45 119.3 6.25 119.2 6.55 119.55 8.65 119.85 10.75 119.45 12.65 119.15 14.1 116.1 21.35 115.15 25.75 117.45 28.05 118.9 29.55 123.0 30.8 127.25 32.2 128.6 33.25 130.95 35.15 130.15 38.9 129.8 40.55 127.35 42.2 L122.4 45.05 Q116.85 48.25 116.6 51.8" fill="#df5900" fill-rule="evenodd" stroke="none"/>
    <path d="M62.25 -10.85 L62.05 -10.5 61.2 -10.4 61.15 -10.9 Q58.9 -11.4 57.2 -15.35 56.2 -17.6 55.8 -19.85 56.1 -21.45 60.65 -29.65 65.7 -38.65 68.25 -41.1 67.7 -38.35 68.35 -36.3 L68.55 -36.55 69.15 -36.45 Q69.8 -36.35 69.95 -36.1 L69.0 -35.0 65.3 -30.8 Q61.85 -26.6 61.45 -24.6 61.2 -23.55 62.4 -19.95 63.55 -16.35 62.95 -13.55 L62.25 -10.85 M56.75 28.05 L55.85 28.2 Q55.55 28.2 55.7 27.4 56.0 26.2 57.45 24.05 L57.65 22.75 Q58.45 18.15 54.35 15.5 56.15 14.45 57.9 16.45 L58.0 16.6 58.0 12.25 Q57.0 8.65 56.75 6.95 56.55 5.05 57.0 2.85 57.8 -1.05 58.35 -1.95 59.8 -4.35 64.75 -6.75 L68.0 -6.6 Q68.2 -6.4 68.65 -6.3 68.9 -6.1 68.7 -5.3 68.6 -4.75 66.05 -3.25 63.45 -1.7 63.4 -1.35 63.25 -0.8 63.9 1.05 L64.2 2.05 64.25 2.0 64.95 2.0 64.9 3.0 64.75 4.4 64.35 7.05 Q69.0 8.8 69.8 9.4 70.95 10.2 70.6 11.85 70.25 13.55 66.7 15.1 63.2 16.6 62.65 19.9 62.4 21.45 60.6 23.85 59.0 26.05 56.8 28.05 L56.75 28.05 M88.55 11.4 L88.6 10.6 Q88.8 9.8 93.55 8.25 L94.15 7.8 93.75 7.5 Q97.95 4.2 98.95 -0.35 99.5 -2.95 99.9 -8.05 101.6 -16.05 112.55 -21.25 114.9 -22.35 125.5 -25.6 L125.8 -25.1 125.65 -23.9 123.75 -19.65 Q122.0 -16.0 121.75 -14.85 L122.65 -15.0 121.75 -13.9 121.6 -13.85 Q109.65 -11.05 106.55 -5.95 105.5 -4.2 105.2 -1.65 L104.75 2.3 Q104.05 5.8 102.65 6.9 99.75 9.15 89.15 11.6 L88.55 11.5 88.55 11.4 M148.55 -50.7 L148.6 -50.75 148.6 -50.6 148.9 -49.6 148.9 -48.05 148.25 -46.65 147.55 -45.75 147.05 -45.75 146.85 -47.3 Q146.75 -48.2 146.95 -49.0 147.15 -50.1 148.55 -50.7 M106.85 -74.9 Q106.15 -73.8 104.8 -73.0 L104.5 -73.35 104.0 -74.75 Q103.85 -75.95 104.3 -76.9 L104.1 -77.15 Q103.65 -75.0 103.05 -73.9 L102.45 -73.9 102.5 -78.4 102.4 -82.55 102.3 -83.5 102.7 -83.5 104.2 -83.4 103.55 -84.3 Q103.25 -84.8 103.4 -85.5 L103.4 -85.6 103.45 -85.75 Q103.65 -86.8 103.55 -86.15 L103.6 -86.25 Q104.6 -83.8 106.95 -81.35 108.1 -80.1 107.5 -77.3 L106.95 -75.15 106.85 -74.9" fill="#ff9900" fill-rule="evenodd" stroke="none"/>
  </g>
</svg>
