<?xml version="1.0" encoding="UTF-8" standalone="no"?>
<svg xmlns:xlink="http://www.w3.org/1999/xlink" height="169.25px" width="88.2px" xmlns="http://www.w3.org/2000/svg">
  <g transform="matrix(1, 0, 0, 1, -60.9, 116.0)">
    <path d="M93.15 -111.9 L93.45 -113.3 94.15 -113.3 94.35 -110.2 94.6 -107.95 94.75 -106.8 95.55 -107.0 95.7 -107.1 96.35 -107.55 97.1 -107.65 Q97.3 -107.65 97.15 -106.9 L96.6 -106.15 95.5 -105.35 96.8 -104.95 97.95 -104.55 98.1 -104.15 98.1 -104.1 Q97.45 -103.75 96.25 -103.75 92.65 -103.75 92.4 -107.2 92.3 -108.95 92.95 -110.85 L93.15 -111.9 M69.7 -52.5 L68.15 -49.85 68.0 -49.6 Q65.6 -45.9 65.2 -43.85 64.85 -41.8 66.0 -39.35 L67.9 -35.0 67.7 -34.65 Q67.95 -34.45 67.1 -34.4 L66.7 -34.4 Q64.65 -34.4 64.05 -38.2 L63.0 -39.75 Q60.95 -43.2 60.9 -44.75 L61.65 -49.1 Q62.05 -51.45 64.7 -53.65 67.3 -55.85 67.6 -57.35 L67.75 -59.9 66.7 -63.75 Q68.9 -64.35 70.7 -60.8 L70.7 -61.0 71.55 -61.0 Q71.8 -60.35 71.6 -58.75 L71.45 -58.1 Q70.95 -55.2 69.7 -52.5 M62.05 29.55 L61.9 29.35 61.8 28.55 Q62.15 26.5 63.1 25.5 L63.5 25.1 Q65.25 22.45 69.8 17.6 76.9 10.0 77.45 6.85 77.95 3.9 76.45 -0.55 74.45 -6.5 69.85 -5.5 69.5 -5.0 69.75 -6.25 L71.65 -7.6 Q76.85 -9.6 80.7 -7.5 L80.8 -7.65 81.25 -7.75 82.0 -7.65 82.05 -6.75 82.05 -6.6 Q82.05 -5.95 82.95 -4.1 83.95 -1.95 83.75 -1.0 L83.55 -0.2 83.25 -0.3 Q83.5 2.5 82.95 5.65 82.35 9.25 80.85 10.9 L73.75 16.65 Q71.3 18.55 68.35 22.0 L67.5 23.05 67.85 22.9 Q66.95 24.45 64.95 26.05 L64.55 26.4 63.6 27.35 Q63.2 27.85 63.1 28.3 L63.2 28.8 64.2 30.1 63.45 30.85 Q62.4 30.25 62.05 29.55 M85.75 17.5 L86.0 17.5 Q93.3 16.05 98.25 14.1 100.15 12.6 101.35 10.7 102.75 8.4 103.35 5.1 L104.05 -0.1 Q104.85 -2.1 109.0 -10.7 112.0 -16.75 112.7 -20.75 113.1 -23.25 112.4 -24.1 110.75 -26.15 109.4 -30.5 115.7 -27.15 115.85 -17.95 L115.95 -10.5 Q116.1 -8.4 116.7 -6.65 L117.15 -7.25 118.25 -9.25 Q119.45 -11.6 121.2 -16.5 122.8 -20.95 123.75 -22.6 126.45 -20.95 127.85 -18.8 L127.95 -18.9 128.25 -18.25 128.15 -18.15 Q129.25 -15.85 128.9 -13.0 L127.85 -7.75 Q127.1 -4.4 127.3 -2.25 127.35 -1.55 127.55 -0.75 128.6 0.85 131.25 1.75 L130.95 2.35 129.85 2.6 128.95 2.6 Q126.45 2.35 125.55 0.9 124.8 -0.3 124.85 -3.15 124.95 -6.7 124.65 -7.85 L124.3 -9.0 124.2 -9.0 Q123.2 -9.0 122.45 -10.5 L122.15 -11.1 116.7 -4.5 112.05 -4.85 Q111.25 -5.0 111.0 -5.35 109.9 -2.9 109.7 -1.85 L109.6 1.7 109.5 5.25 Q100.75 19.0 93.4 19.0 L85.35 18.8 Q84.9 19.55 85.1 18.3 85.25 17.55 85.45 17.55 L85.75 17.5" fill="#ff9900" fill-rule="evenodd" stroke="none"/>
    <path d="M94.6 -107.95 L95.55 -107.0 94.75 -106.8 94.6 -107.95 M96.6 -106.15 L98.25 -104.85 98.1 -104.15 97.95 -104.55 96.8 -104.95 95.5 -105.35 96.6 -106.15 M98.1 -104.1 L97.9 -103.5 97.4 -103.35 93.4 -103.7 91.5 -103.5 90.9 -108.25 Q90.75 -109.35 91.15 -111.55 91.75 -115.0 93.85 -116.0 L93.3 -112.85 93.15 -111.9 92.95 -110.85 Q92.3 -108.95 92.4 -107.2 92.65 -103.75 96.25 -103.75 97.45 -103.75 98.1 -104.1 M69.7 -52.5 Q70.95 -55.2 71.45 -58.1 L71.6 -58.75 72.05 -57.35 Q74.0 -51.05 73.5 -48.25 L72.0 -45.5 Q70.55 -42.85 70.3 -41.5 70.05 -40.1 71.3 -36.0 L72.9 -31.35 72.35 -30.9 71.2 -30.75 Q70.6 -30.75 67.55 -33.95 L67.1 -34.4 Q67.95 -34.45 67.7 -34.65 L67.9 -35.0 66.0 -39.35 Q64.85 -41.8 65.2 -43.85 65.6 -45.9 68.0 -49.6 L67.6 -47.4 Q67.15 -44.75 67.35 -43.75 L69.75 -47.3 69.9 -47.15 70.95 -49.3 Q71.75 -50.95 72.0 -52.3 72.2 -53.4 71.8 -54.1 L69.7 -52.5 M68.75 -48.4 L68.65 -48.35 68.65 -48.45 68.75 -48.4 M70.4 -51.55 L70.45 -50.8 70.2 -51.1 70.4 -51.5 70.4 -51.55 M82.05 -6.6 L84.1 -4.45 Q88.0 0.7 87.05 5.8 86.9 8.15 85.6 13.9 85.45 15.85 85.75 17.5 L85.45 17.55 Q85.25 17.55 85.1 18.3 84.9 19.55 85.35 18.8 L93.4 19.0 Q100.75 19.0 109.5 5.25 L109.6 1.7 109.7 -1.85 Q109.9 -2.9 111.0 -5.35 111.25 -5.0 112.05 -4.85 L116.7 -4.5 122.15 -11.1 122.45 -10.5 Q123.2 -9.0 124.2 -9.0 L124.3 -9.0 124.65 -7.85 Q124.95 -6.7 124.85 -3.15 124.8 -0.3 125.55 0.9 126.45 2.35 128.95 2.6 130.35 5.15 133.0 8.3 L140.75 17.4 Q139.3 15.35 138.55 13.5 140.3 12.95 141.4 15.0 L143.55 19.05 Q144.95 20.85 147.9 22.8 149.4 23.8 149.0 26.05 L147.65 28.0 Q146.4 29.5 146.3 30.0 146.2 30.6 147.3 32.8 148.45 35.0 148.1 36.9 147.1 42.6 134.7 47.4 L131.65 48.4 132.4 47.65 Q134.05 45.95 134.6 42.9 L134.65 41.7 Q135.05 39.05 133.75 35.25 132.85 32.8 131.65 32.1 L131.0 31.05 Q128.75 27.35 127.9 25.25 126.4 21.85 126.6 19.25 L125.7 19.25 124.35 21.55 Q123.2 23.25 121.6 23.25 121.05 23.25 117.6 19.0 114.0 14.65 114.15 13.65 L114.65 12.15 Q114.9 11.45 114.75 11.0 110.7 14.45 108.55 19.7 107.4 22.65 105.75 28.2 104.15 32.7 101.25 34.7 97.45 37.25 89.85 37.25 79.5 37.25 79.7 22.05 L78.9 22.25 Q78.65 24.05 75.65 26.9 72.65 29.75 72.35 31.35 72.15 32.55 75.35 39.45 77.3 43.7 79.0 46.0 L75.45 44.05 75.4 44.25 Q76.15 44.55 74.9 44.55 64.45 44.55 62.35 35.95 61.7 33.3 61.95 30.05 L62.05 29.55 Q62.4 30.25 63.45 30.85 L64.2 30.1 63.2 28.8 63.1 28.3 Q63.2 27.85 63.6 27.35 L64.55 26.4 64.95 26.05 Q66.95 24.45 67.85 22.9 L67.5 23.05 68.35 22.0 Q71.3 18.55 73.75 16.65 L80.85 10.9 Q82.35 9.25 82.95 5.65 83.5 2.5 83.25 -0.3 L83.55 -0.2 83.75 -1.0 Q83.95 -1.95 82.95 -4.1 82.05 -5.95 82.05 -6.6" fill="#ff6600" fill-rule="evenodd" stroke="none"/>
    <path d="M68.0 -49.6 L68.15 -49.85 69.7 -52.5 71.8 -54.1 Q72.2 -53.4 72.0 -52.3 71.75 -50.95 70.95 -49.3 L69.9 -47.15 69.75 -47.3 67.35 -43.75 Q67.15 -44.75 67.6 -47.4 L68.0 -49.6 M70.4 -51.55 L70.4 -51.5 70.2 -51.1 70.45 -50.8 70.4 -51.55 M68.75 -48.4 L68.65 -48.45 68.65 -48.35 68.75 -48.4 M131.65 48.4 L124.85 53.05 124.55 52.8 128.7 49.35 Q120.55 52.1 118.5 53.25 108.0 52.7 105.4 51.5 104.5 51.1 103.95 50.35 L102.75 49.0 99.25 49.0 97.75 50.0 91.7 50.05 Q86.8 50.05 81.3 47.25 L81.6 47.65 81.35 48.35 Q80.25 47.75 79.0 46.0 77.3 43.7 75.35 39.45 72.15 32.55 72.35 31.35 72.65 29.75 75.65 26.9 78.65 24.05 78.9 22.25 L79.7 22.05 Q79.5 37.25 89.85 37.25 97.45 37.25 101.25 34.7 104.15 32.7 105.75 28.2 107.4 22.65 108.55 19.7 110.7 14.45 114.75 11.0 114.9 11.45 114.65 12.15 L114.15 13.65 Q114.0 14.65 117.6 19.0 121.05 23.25 121.6 23.25 123.2 23.25 124.35 21.55 L125.7 19.25 126.6 19.25 Q126.4 21.85 127.9 25.25 128.75 27.35 131.0 31.05 L131.65 32.1 Q132.85 32.8 133.75 35.25 135.05 39.05 134.65 41.7 L134.6 42.9 Q134.05 45.95 132.4 47.65 L131.65 48.4" fill="#df5900" fill-rule="evenodd" stroke="none"/>
  </g>
</svg>
