<?xml version="1.0" encoding="UTF-8" standalone="no"?>
<svg xmlns:xlink="http://www.w3.org/1999/xlink" height="190.65px" width="95.65px" xmlns="http://www.w3.org/2000/svg">
  <g transform="matrix(1, 0, 0, 1, -48.05, 135.6)">
    <path d="M116.8 -22.7 Q121.15 -16.35 120.75 -10.55 120.65 -8.95 119.4 -5.5 118.15 -2.05 118.05 -0.5 117.75 3.65 128.1 11.7 135.75 17.6 138.8 20.65 L138.35 20.0 Q138.4 19.25 139.05 18.85 142.2 22.45 143.2 27.45 143.95 31.2 143.6 36.5 L143.25 41.25 Q142.65 44.0 140.2 45.5 137.7 47.0 132.75 47.75 127.4 48.55 125.4 49.5 L122.55 51.05 Q120.2 52.25 119.2 52.25 L116.5 52.15 114.6 51.85 113.5 51.8 114.35 50.7 Q115.25 49.95 118.2 48.6 124.3 45.75 124.65 41.3 L124.1 39.2 Q123.5 37.75 123.6 36.4 123.75 34.35 125.25 33.0 126.75 31.6 126.9 29.75 127.05 27.35 124.5 24.35 L118.75 18.8 Q110.4 10.9 110.85 4.35 L111.25 2.05 111.7 -0.4 110.55 -0.55 Q107.8 2.7 107.75 3.55 107.7 4.2 108.1 5.7 L108.4 7.85 Q107.35 11.8 105.55 15.5 102.0 22.8 98.05 22.8 95.0 22.8 94.7 20.25 94.95 17.35 94.5 16.65 89.2 24.7 81.15 28.3 78.05 29.7 77.0 30.9 75.4 32.75 75.1 36.75 74.9 39.4 75.75 42.45 L77.15 47.5 73.35 47.35 Q65.2 43.0 63.35 40.9 62.35 39.65 62.15 37.4 L62.25 37.5 62.8 37.1 63.05 36.85 Q64.4 31.7 78.3 21.1 L87.6 13.8 Q91.8 10.2 91.9 8.3 92.05 6.6 91.35 -2.1 92.0 -0.2 95.05 3.9 L95.65 2.75 Q96.95 3.85 97.15 6.05 L97.4 10.65 98.9 10.3 101.35 5.85 104.15 1.65 Q108.2 -3.1 112.15 -4.4 L113.95 -5.2 Q114.55 -5.75 114.65 -7.4 114.85 -10.15 113.1 -14.35 L110.2 -21.0 110.4 -24.25 111.15 -24.55 112.15 -24.65 Q114.15 -24.65 116.0 -23.3 L116.8 -22.7 M109.1 3.0 Q109.75 3.65 109.4 5.5 L109.1 3.1 109.1 3.0" fill="#ff6600" fill-rule="evenodd" stroke="none"/>
    <path d="M113.5 51.8 Q112.9 52.85 113.15 54.25 L111.95 54.85 Q111.0 55.5 111.05 54.25 111.15 52.95 111.85 51.75 L108.35 51.6 106.15 49.35 Q101.3 48.65 97.9 49.9 L95.3 51.25 89.85 51.1 Q87.7 48.3 85.35 47.35 L78.45 47.5 78.35 48.5 78.0 49.0 77.45 49.0 77.15 47.5 75.75 42.45 Q74.9 39.4 75.1 36.75 75.4 32.75 77.0 30.9 78.05 29.7 81.15 28.3 89.2 24.7 94.5 16.65 94.95 17.35 94.7 20.25 95.0 22.8 98.05 22.8 102.0 22.8 105.55 15.5 107.35 11.8 108.4 7.85 L108.1 5.7 Q107.7 4.2 107.75 3.55 107.8 2.7 110.55 -0.55 L111.7 -0.4 111.25 2.05 110.85 4.35 Q110.4 10.9 118.75 18.8 L124.5 24.35 Q127.05 27.35 126.9 29.75 126.75 31.6 125.25 33.0 123.75 34.35 123.6 36.4 123.5 37.75 124.1 39.2 L124.65 41.3 Q124.3 45.75 118.2 48.6 115.25 49.95 114.35 50.7 L113.5 51.8 M109.1 3.0 L109.1 3.1 109.4 5.5 Q109.75 3.65 109.1 3.0" fill="#df5900" fill-rule="evenodd" stroke="none"/>
    <path d="M72.1 -133.5 Q72.55 -135.0 73.0 -135.6 L72.95 -135.1 72.65 -133.9 73.15 -129.2 73.4 -127.8 73.9 -127.5 73.45 -127.2 73.75 -125.5 Q73.7 -124.75 73.25 -124.4 L72.7 -124.1 72.9 -123.85 71.9 -123.75 Q71.7 -124.5 71.8 -126.0 71.85 -126.9 72.05 -127.4 L71.95 -127.85 71.65 -131.15 Q71.7 -132.1 72.1 -133.5 M57.25 -75.3 Q57.1 -73.1 55.4 -71.35 L50.65 -67.35 49.45 -67.5 49.6 -69.75 Q50.3 -70.3 50.9 -72.0 51.4 -73.55 51.5 -75.0 L50.25 -77.5 Q49.05 -79.75 49.15 -81.55 L49.85 -84.65 50.6 -87.75 Q51.05 -94.35 48.05 -97.1 L48.3 -97.85 Q53.15 -94.35 57.25 -75.3 M95.65 2.75 Q95.3 2.4 94.75 2.15 L94.8 1.4 94.7 1.3 95.55 1.15 96.7 1.35 Q98.1 -0.45 100.6 -2.7 106.2 -7.85 106.55 -12.9 106.8 -16.5 105.55 -20.2 104.35 -23.9 104.45 -25.75 104.6 -27.65 106.25 -32.5 108.2 -38.0 109.65 -39.25 L110.55 -39.1 Q110.9 -38.95 110.85 -38.15 110.8 -37.5 110.25 -37.0 109.7 -36.5 109.7 -35.9 109.5 -33.0 111.25 -30.0 L114.8 -25.3 Q116.1 -24.8 117.2 -23.85 118.6 -22.7 118.55 -21.85 L118.4 -21.2 118.25 -21.5 116.8 -22.7 116.0 -23.3 Q114.15 -24.65 112.15 -24.65 L111.15 -24.55 110.4 -24.25 110.2 -21.0 113.1 -14.35 Q114.85 -10.15 114.65 -7.4 114.55 -5.75 113.95 -5.2 L112.15 -4.4 Q108.2 -3.1 104.15 1.65 L101.35 5.85 98.9 10.3 97.4 10.65 97.15 6.05 Q96.95 3.85 95.65 2.75 M62.15 37.4 Q61.75 37.0 61.65 36.6 L61.65 35.25 Q61.75 34.2 62.5 32.85 63.35 27.85 66.4 24.35 68.8 21.6 74.35 18.3 80.3 14.85 82.3 12.85 86.0 9.15 86.4 3.6 L85.65 0.15 Q84.9 -3.2 84.95 -4.05 85.1 -6.65 86.2 -9.55 87.1 -11.8 86.9 -17.3 90.1 -15.95 90.55 -10.75 L90.7 -9.05 90.8 -9.05 91.35 -2.1 Q92.05 6.6 91.9 8.3 91.8 10.2 87.6 13.8 L78.3 21.1 Q64.4 31.7 63.05 36.85 L62.8 37.1 62.25 37.5 62.15 37.4" fill="#ff9900" fill-rule="evenodd" stroke="none"/>
  </g>
</svg>
