<?xml version="1.0" encoding="UTF-8" standalone="no"?>
<svg xmlns:xlink="http://www.w3.org/1999/xlink" height="179.25px" width="346.25px" xmlns="http://www.w3.org/2000/svg">
  <g transform="matrix(1, 0, 0, 1, 0.0, -0.5)">
    <path d="M346.25 3.55 L346.25 3.6 346.25 175.45 346.25 175.65 Q345.55 180.35 337.9 179.65 L8.35 179.65 Q0.7 180.35 0.05 175.65 L0.0 175.45 0.0 3.65 0.0 3.6 Q0.1 0.5 3.85 0.5 L342.4 0.5 Q346.15 0.5 346.25 3.55 M344.25 163.9 L344.25 3.7 Q344.05 2.5 342.4 2.5 L3.85 2.5 Q2.15 2.5 2.0 3.75 L2.0 163.9 2.0 175.4 Q2.75 178.15 8.15 177.65 L8.25 177.65 338.0 177.65 338.1 177.65 Q343.5 178.15 344.25 175.4 L344.25 163.9" fill="url(#gradient0)" fill-rule="evenodd" stroke="none"/>
    <path d="M2.0 163.9 L2.0 3.75 Q2.15 2.5 3.85 2.5 L342.4 2.5 Q344.05 2.5 344.25 3.7 L344.25 163.9 2.0 163.9" fill="url(#gradient1)" fill-rule="evenodd" stroke="none"/>
    <path d="M344.25 163.9 L344.25 175.4 Q343.5 178.15 338.1 177.65 L338.0 177.65 8.25 177.65 8.15 177.65 Q2.75 178.15 2.0 175.4 L2.0 163.9 344.25 163.9" fill="url(#gradient2)" fill-rule="evenodd" stroke="none"/>
    <path d="M343.8 23.85 L3.05 23.85 3.05 5.65 Q3.15 3.15 6.3 3.15 L340.55 3.15 Q343.7 3.15 343.8 5.65 L343.8 23.85" fill="url(#gradient3)" fill-rule="evenodd" stroke="none"/>
  </g>
  <defs>
    <linearGradient gradientTransform="matrix(0.0, 0.0769, -0.0255, 0.0, -242.35, 97.95)" gradientUnits="userSpaceOnUse" id="gradient0" spreadMethod="pad" x1="-819.2" x2="819.2">
      <stop offset="0.03529411764705882" stop-color="#ffffff"/>
      <stop offset="0.5803921568627451" stop-color="#3c3c3c"/>
      <stop offset="1.0" stop-color="#a6a6a6"/>
    </linearGradient>
    <linearGradient gradientTransform="matrix(0.0, 0.0537, 0.1356, 0.0, 253.2, 48.0)" gradientUnits="userSpaceOnUse" id="gradient1" spreadMethod="pad" x1="-819.2" x2="819.2">
      <stop offset="0.0" stop-color="#5e5e5e"/>
      <stop offset="0.10196078431372549" stop-color="#333333"/>
      <stop offset="1.0" stop-color="#484848"/>
    </linearGradient>
    <linearGradient gradientTransform="matrix(0.0, 0.0916, 0.1356, 0.0, 257.5, 111.0)" gradientUnits="userSpaceOnUse" id="gradient2" spreadMethod="pad" x1="-819.2" x2="819.2">
      <stop offset="0.03529411764705882" stop-color="#c4c4c4"/>
      <stop offset="0.17647058823529413" stop-color="#a2a2a2"/>
      <stop offset="0.5254901960784314" stop-color="#5e5e5e"/>
      <stop offset="0.6039215686274509" stop-color="#484848"/>
      <stop offset="0.8627450980392157" stop-color="#484848"/>
      <stop offset="0.9607843137254902" stop-color="#888888"/>
    </linearGradient>
    <linearGradient gradientTransform="matrix(0.0, 0.022, -0.1326, 0.0, 106.8, 10.0)" gradientUnits="userSpaceOnUse" id="gradient3" spreadMethod="pad" x1="-819.2" x2="819.2">
      <stop offset="0.0" stop-color="#ffffff" stop-opacity="0.48235294"/>
      <stop offset="1.0" stop-color="#ffffff" stop-opacity="0.0"/>
    </linearGradient>
  </defs>
</svg>
