<?xml version="1.0" encoding="UTF-8" standalone="no"?>
<svg xmlns:xlink="http://www.w3.org/1999/xlink" height="103.65px" width="33.05px" xmlns="http://www.w3.org/2000/svg">
  <g transform="matrix(1, 0, 0, 1, 0.1, 0.6)">
    <path d="M32.85 19.0 L32.85 37.6 27.7 37.6 27.7 19.0 32.85 19.0" fill="#cccccc" fill-rule="evenodd" stroke="none"/>
    <path d="M32.3 21.0 L32.3 35.6 28.25 35.6 28.25 21.0 32.3 21.0" fill="#ffffff" fill-rule="evenodd" stroke="none"/>
    <path d="M5.05 37.6 L-0.1 37.6 -0.1 19.0 5.05 19.0 5.05 37.6" fill="#cccccc" fill-rule="evenodd" stroke="none"/>
    <path d="M4.5 21.0 L4.5 35.6 0.45 35.6 0.45 21.0 4.5 21.0" fill="#ffffff" fill-rule="evenodd" stroke="none"/>
    <path d="M30.9 4.15 L30.9 93.35 1.5 93.35 1.5 4.15 30.9 4.15" fill="url(#gradient0)" fill-rule="evenodd" stroke="none"/>
    <path d="M29.05 5.9 L29.05 53.05 3.2 53.05 3.2 5.9 29.05 5.9 M28.05 6.55 L4.25 6.55 4.25 52.35 28.05 52.35 28.05 6.55" fill="#7b7b7b" fill-rule="evenodd" stroke="none"/>
    <path d="M30.9 41.95 L30.9 42.7 1.45 42.7 1.45 41.95 30.9 41.95" fill="#5b5758" fill-rule="evenodd" stroke="none"/>
    <path d="M1.45 41.95 L1.45 40.15 30.9 40.15 30.9 41.95 1.45 41.95" fill="#262425" fill-rule="evenodd" stroke="none"/>
    <path d="M11.95 5.25 L10.8 3.45 12.75 3.45 13.9 5.25 11.95 5.25" fill="#e4e4e4" fill-rule="evenodd" stroke="none"/>
    <path d="M10.35 5.25 L9.2 3.45 11.1 3.45 12.25 5.25 10.35 5.25" fill="#bc100d" fill-rule="evenodd" stroke="none"/>
    <path d="M8.4 5.25 L7.25 3.45 9.2 3.45 10.35 5.25 8.4 5.25" fill="#e4e4e4" fill-rule="evenodd" stroke="none"/>
    <path d="M6.6 5.25 L5.45 3.45 7.35 3.45 8.5 5.25 6.6 5.25" fill="#bc100d" fill-rule="evenodd" stroke="none"/>
    <path d="M4.6 5.25 L3.45 3.45 5.4 3.45 6.55 5.25 4.6 5.25" fill="#e4e4e4" fill-rule="evenodd" stroke="none"/>
    <path d="M3.05 5.25 L1.9 3.45 3.8 3.45 4.95 5.25 3.05 5.25" fill="#bc100d" fill-rule="evenodd" stroke="none"/>
    <path d="M1.9 3.45 L3.05 5.25 1.1 5.25 -0.05 3.45 1.9 3.45" fill="#e4e4e4" fill-rule="evenodd" stroke="none"/>
    <path d="M23.3 5.25 L22.15 3.45 24.1 3.45 25.25 5.25 23.3 5.25" fill="#e4e4e4" fill-rule="evenodd" stroke="none"/>
    <path d="M21.7 5.25 L20.55 3.45 22.45 3.45 23.6 5.25 21.7 5.25" fill="#bc100d" fill-rule="evenodd" stroke="none"/>
    <path d="M19.75 5.25 L18.6 3.45 20.55 3.45 21.7 5.25 19.75 5.25" fill="#e4e4e4" fill-rule="evenodd" stroke="none"/>
    <path d="M17.95 5.25 L16.8 3.45 18.7 3.45 19.85 5.25 17.95 5.25" fill="#bc100d" fill-rule="evenodd" stroke="none"/>
    <path d="M15.95 5.25 L14.8 3.45 16.75 3.45 17.9 5.25 15.95 5.25" fill="#e4e4e4" fill-rule="evenodd" stroke="none"/>
    <path d="M14.4 5.25 L13.25 3.45 15.15 3.45 16.3 5.25 14.4 5.25" fill="#bc100d" fill-rule="evenodd" stroke="none"/>
    <path d="M12.45 5.25 L11.3 3.45 13.25 3.45 14.4 5.25 12.45 5.25" fill="#e4e4e4" fill-rule="evenodd" stroke="none"/>
    <path d="M31.0 5.25 L29.85 3.45 31.8 3.45 32.95 5.25 31.0 5.25" fill="#e4e4e4" fill-rule="evenodd" stroke="none"/>
    <path d="M29.2 5.25 L28.05 3.45 29.95 3.45 31.1 5.25 29.2 5.25" fill="#bc100d" fill-rule="evenodd" stroke="none"/>
    <path d="M27.25 5.25 L26.1 3.45 28.05 3.45 29.2 5.25 27.25 5.25" fill="#e4e4e4" fill-rule="evenodd" stroke="none"/>
    <path d="M25.65 5.25 L24.5 3.45 26.4 3.45 27.55 5.25 25.65 5.25" fill="#bc100d" fill-rule="evenodd" stroke="none"/>
    <path d="M23.7 5.25 L22.55 3.45 24.5 3.45 25.65 5.25 23.7 5.25" fill="#e4e4e4" fill-rule="evenodd" stroke="none"/>
    <path d="M2.1 9.9 L2.1 9.3 30.45 9.3 30.45 9.9 2.1 9.9" fill="url(#gradient1)" fill-rule="evenodd" stroke="none"/>
    <path d="M30.45 9.9 L30.45 12.0 2.1 12.0 2.1 9.9 30.45 9.9" fill="url(#gradient2)" fill-rule="evenodd" stroke="none"/>
    <path d="M30.45 12.0 L30.45 13.9 2.1 13.9 2.1 12.0 30.45 12.0" fill="url(#gradient3)" fill-rule="evenodd" stroke="none"/>
    <path d="M30.45 13.9 L30.45 15.8 2.1 15.8 2.1 13.9 30.45 13.9" fill="url(#gradient4)" fill-rule="evenodd" stroke="none"/>
    <path d="M30.45 15.8 L30.45 16.4 2.1 16.4 2.1 15.8 30.45 15.8" fill="url(#gradient5)" fill-rule="evenodd" stroke="none"/>
    <path d="M4.15 17.8 L4.15 16.45 28.25 16.45 28.25 17.8 4.15 17.8" fill="url(#gradient6)" fill-rule="evenodd" stroke="none"/>
    <path d="M28.25 17.8 L28.25 22.4 4.15 22.4 4.15 17.8 28.25 17.8" fill="url(#gradient7)" fill-rule="evenodd" stroke="none"/>
    <path d="M28.25 26.6 L28.25 30.8 4.15 30.8 4.15 26.6 28.25 26.6" fill="url(#gradient8)" fill-rule="evenodd" stroke="none"/>
    <path d="M28.25 30.8 L28.25 32.15 4.15 32.15 4.15 30.8 28.25 30.8" fill="url(#gradient9)" fill-rule="evenodd" stroke="none"/>
    <path d="M28.25 22.4 L28.25 26.6 4.15 26.6 4.15 22.4 28.25 22.4" fill="url(#gradient10)" fill-rule="evenodd" stroke="none"/>
    <path d="M30.45 38.05 L30.45 38.65 2.1 38.65 2.1 38.05 30.45 38.05" fill="url(#gradient11)" fill-rule="evenodd" stroke="none"/>
    <path d="M2.1 38.05 L2.1 36.15 30.45 36.15 30.45 38.05 2.1 38.05" fill="url(#gradient12)" fill-rule="evenodd" stroke="none"/>
    <path d="M2.1 36.15 L2.1 34.25 30.45 34.25 30.45 36.15 2.1 36.15" fill="url(#gradient13)" fill-rule="evenodd" stroke="none"/>
    <path d="M2.1 34.25 L2.1 32.15 30.45 32.15 30.45 34.25 2.1 34.25" fill="url(#gradient14)" fill-rule="evenodd" stroke="none"/>
    <path d="M2.1 32.15 L2.1 31.55 30.45 31.55 30.45 32.15 2.1 32.15" fill="url(#gradient15)" fill-rule="evenodd" stroke="none"/>
    <path d="M11.25 -0.6 L11.25 103.05 8.85 103.05 8.85 -0.6 11.25 -0.6" fill="url(#gradient16)" fill-rule="evenodd" stroke="none"/>
    <path d="M22.0 -0.6 L22.0 103.05 19.6 103.05 19.6 -0.6 22.0 -0.6" fill="url(#gradient17)" fill-rule="evenodd" stroke="none"/>
  </g>
  <defs>
    <linearGradient gradientTransform="matrix(1.0E-4, -0.0781, 0.0632, 0.0, 17.7, 54.55)" gradientUnits="userSpaceOnUse" id="gradient0" spreadMethod="pad" x1="-819.2" x2="819.2">
      <stop offset="0.0" stop-color="#e71010"/>
      <stop offset="0.8156862745098039" stop-color="#6f1209"/>
      <stop offset="1.0" stop-color="#d12525"/>
    </linearGradient>
    <linearGradient gradientTransform="matrix(1.0E-4, 0.0069, -0.0098, 0.0, 15.35, 15.05)" gradientUnits="userSpaceOnUse" id="gradient1" spreadMethod="pad" x1="-819.2" x2="819.2">
      <stop offset="0.0" stop-color="#332f30"/>
      <stop offset="0.36470588235294116" stop-color="#dfdbdc"/>
      <stop offset="0.5176470588235295" stop-color="#a7a7a7"/>
      <stop offset="0.6901960784313725" stop-color="#dfdbdc"/>
      <stop offset="1.0" stop-color="#332f30"/>
    </linearGradient>
    <linearGradient gradientTransform="matrix(0.0173, 0.0, 0.0, 0.0057, 16.25, 13.0)" gradientUnits="userSpaceOnUse" id="gradient2" spreadMethod="pad" x1="-819.2" x2="819.2">
      <stop offset="0.0" stop-color="#a09a9c"/>
      <stop offset="0.36470588235294116" stop-color="#fbfbfb"/>
      <stop offset="0.5176470588235295" stop-color="#e6e6e6"/>
      <stop offset="0.6901960784313725" stop-color="#ffffff"/>
      <stop offset="1.0" stop-color="#ada7a9"/>
    </linearGradient>
    <linearGradient gradientTransform="matrix(0.0131, 0.0, 0.0, 0.0056, 16.25, 12.75)" gradientUnits="userSpaceOnUse" id="gradient3" spreadMethod="pad" x1="-819.2" x2="819.2">
      <stop offset="0.0" stop-color="#a09a9c"/>
      <stop offset="0.36470588235294116" stop-color="#fbfbfb"/>
      <stop offset="0.5176470588235295" stop-color="#e6e6e6"/>
      <stop offset="0.6901960784313725" stop-color="#ffffff"/>
      <stop offset="1.0" stop-color="#ada7a9"/>
    </linearGradient>
    <linearGradient gradientTransform="matrix(0.0173, 0.0, 0.0, 0.0056, 16.25, 12.45)" gradientUnits="userSpaceOnUse" id="gradient4" spreadMethod="pad" x1="-819.2" x2="819.2">
      <stop offset="0.0" stop-color="#a09a9c"/>
      <stop offset="0.36470588235294116" stop-color="#fbfbfb"/>
      <stop offset="0.5176470588235295" stop-color="#e6e6e6"/>
      <stop offset="0.6901960784313725" stop-color="#ffffff"/>
      <stop offset="1.0" stop-color="#ada7a9"/>
    </linearGradient>
    <linearGradient gradientTransform="matrix(2.0E-4, 0.0077, -0.0123, 1.0E-4, 25.5, 9.8)" gradientUnits="userSpaceOnUse" id="gradient5" spreadMethod="pad" x1="-819.2" x2="819.2">
      <stop offset="0.0" stop-color="#332f30"/>
      <stop offset="0.36470588235294116" stop-color="#dfdbdc"/>
      <stop offset="0.5176470588235295" stop-color="#a7a7a7"/>
      <stop offset="0.6901960784313725" stop-color="#dfdbdc"/>
      <stop offset="1.0" stop-color="#332f30"/>
    </linearGradient>
    <linearGradient gradientTransform="matrix(1.0E-4, 0.0153, -0.0084, 1.0E-4, 15.45, 29.1)" gradientUnits="userSpaceOnUse" id="gradient6" spreadMethod="pad" x1="-819.2" x2="819.2">
      <stop offset="0.0" stop-color="#332f30"/>
      <stop offset="0.36470588235294116" stop-color="#dfdbdc"/>
      <stop offset="0.5176470588235295" stop-color="#a7a7a7"/>
      <stop offset="0.6901960784313725" stop-color="#dfdbdc"/>
      <stop offset="1.0" stop-color="#332f30"/>
    </linearGradient>
    <linearGradient gradientTransform="matrix(0.0147, 0.0, 0.0, 0.0125, 16.2, 24.55)" gradientUnits="userSpaceOnUse" id="gradient7" spreadMethod="pad" x1="-819.2" x2="819.2">
      <stop offset="0.0" stop-color="#332f30"/>
      <stop offset="0.36470588235294116" stop-color="#dfdbdc"/>
      <stop offset="0.5176470588235295" stop-color="#a7a7a7"/>
      <stop offset="0.6901960784313725" stop-color="#dfdbdc"/>
      <stop offset="1.0" stop-color="#332f30"/>
    </linearGradient>
    <linearGradient gradientTransform="matrix(0.0147, 0.0, 0.0, 0.0123, 16.2, 23.4)" gradientUnits="userSpaceOnUse" id="gradient8" spreadMethod="pad" x1="-819.2" x2="819.2">
      <stop offset="0.0" stop-color="#332f30"/>
      <stop offset="0.36470588235294116" stop-color="#dfdbdc"/>
      <stop offset="0.5176470588235295" stop-color="#a7a7a7"/>
      <stop offset="0.6901960784313725" stop-color="#dfdbdc"/>
      <stop offset="1.0" stop-color="#332f30"/>
    </linearGradient>
    <linearGradient gradientTransform="matrix(2.0E-4, 0.017, -0.0105, 2.0E-4, 24.1, 17.5)" gradientUnits="userSpaceOnUse" id="gradient9" spreadMethod="pad" x1="-819.2" x2="819.2">
      <stop offset="0.0" stop-color="#332f30"/>
      <stop offset="0.36470588235294116" stop-color="#dfdbdc"/>
      <stop offset="0.5176470588235295" stop-color="#a7a7a7"/>
      <stop offset="0.6901960784313725" stop-color="#dfdbdc"/>
      <stop offset="1.0" stop-color="#332f30"/>
    </linearGradient>
    <linearGradient gradientTransform="matrix(0.0111, 0.0, 0.0, 0.0124, 16.2, 24.0)" gradientUnits="userSpaceOnUse" id="gradient10" spreadMethod="pad" x1="-819.2" x2="819.2">
      <stop offset="0.0" stop-color="#332f30"/>
      <stop offset="0.36470588235294116" stop-color="#dfdbdc"/>
      <stop offset="0.5176470588235295" stop-color="#a7a7a7"/>
      <stop offset="0.6901960784313725" stop-color="#dfdbdc"/>
      <stop offset="1.0" stop-color="#332f30"/>
    </linearGradient>
    <linearGradient gradientTransform="matrix(2.0E-4, 0.0077, -0.0123, 1.0E-4, 25.5, 32.05)" gradientUnits="userSpaceOnUse" id="gradient11" spreadMethod="pad" x1="-819.2" x2="819.2">
      <stop offset="0.0" stop-color="#332f30"/>
      <stop offset="0.36470588235294116" stop-color="#dfdbdc"/>
      <stop offset="0.5176470588235295" stop-color="#a7a7a7"/>
      <stop offset="0.6901960784313725" stop-color="#dfdbdc"/>
      <stop offset="1.0" stop-color="#332f30"/>
    </linearGradient>
    <linearGradient gradientTransform="matrix(0.0173, 0.0, 0.0, 0.0056, 16.25, 34.7)" gradientUnits="userSpaceOnUse" id="gradient12" spreadMethod="pad" x1="-819.2" x2="819.2">
      <stop offset="0.0" stop-color="#a09a9c"/>
      <stop offset="0.36470588235294116" stop-color="#fbfbfb"/>
      <stop offset="0.5176470588235295" stop-color="#e6e6e6"/>
      <stop offset="0.6901960784313725" stop-color="#ffffff"/>
      <stop offset="1.0" stop-color="#ada7a9"/>
    </linearGradient>
    <linearGradient gradientTransform="matrix(0.0131, 0.0, 0.0, 0.0056, 16.25, 35.0)" gradientUnits="userSpaceOnUse" id="gradient13" spreadMethod="pad" x1="-819.2" x2="819.2">
      <stop offset="0.0" stop-color="#a09a9c"/>
      <stop offset="0.36470588235294116" stop-color="#fbfbfb"/>
      <stop offset="0.5176470588235295" stop-color="#e6e6e6"/>
      <stop offset="0.6901960784313725" stop-color="#ffffff"/>
      <stop offset="1.0" stop-color="#ada7a9"/>
    </linearGradient>
    <linearGradient gradientTransform="matrix(0.0173, 0.0, 0.0, 0.0057, 16.25, 35.25)" gradientUnits="userSpaceOnUse" id="gradient14" spreadMethod="pad" x1="-819.2" x2="819.2">
      <stop offset="0.0" stop-color="#a09a9c"/>
      <stop offset="0.36470588235294116" stop-color="#fbfbfb"/>
      <stop offset="0.5176470588235295" stop-color="#e6e6e6"/>
      <stop offset="0.6901960784313725" stop-color="#ffffff"/>
      <stop offset="1.0" stop-color="#ada7a9"/>
    </linearGradient>
    <linearGradient gradientTransform="matrix(1.0E-4, 0.0069, -0.0098, 0.0, 15.35, 37.3)" gradientUnits="userSpaceOnUse" id="gradient15" spreadMethod="pad" x1="-819.2" x2="819.2">
      <stop offset="0.0" stop-color="#332f30"/>
      <stop offset="0.36470588235294116" stop-color="#dfdbdc"/>
      <stop offset="0.5176470588235295" stop-color="#a7a7a7"/>
      <stop offset="0.6901960784313725" stop-color="#dfdbdc"/>
      <stop offset="1.0" stop-color="#332f30"/>
    </linearGradient>
    <linearGradient gradientTransform="matrix(0.0015, 0.0, 0.0, 0.0633, 10.05, 51.2)" gradientUnits="userSpaceOnUse" id="gradient16" spreadMethod="pad" x1="-819.2" x2="819.2">
      <stop offset="0.0" stop-color="#332f30"/>
      <stop offset="0.36470588235294116" stop-color="#dfdbdc"/>
      <stop offset="0.5176470588235295" stop-color="#a7a7a7"/>
      <stop offset="0.6901960784313725" stop-color="#dfdbdc"/>
      <stop offset="1.0" stop-color="#332f30"/>
    </linearGradient>
    <linearGradient gradientTransform="matrix(0.0015, 0.0, 0.0, 0.0633, 20.8, 51.2)" gradientUnits="userSpaceOnUse" id="gradient17" spreadMethod="pad" x1="-819.2" x2="819.2">
      <stop offset="0.0" stop-color="#332f30"/>
      <stop offset="0.36470588235294116" stop-color="#dfdbdc"/>
      <stop offset="0.5176470588235295" stop-color="#a7a7a7"/>
      <stop offset="0.6901960784313725" stop-color="#dfdbdc"/>
      <stop offset="1.0" stop-color="#332f30"/>
    </linearGradient>
  </defs>
</svg>
