<?xml version="1.0" encoding="UTF-8" standalone="no"?>
<svg xmlns:xlink="http://www.w3.org/1999/xlink" height="111.0px" width="111.0px" xmlns="http://www.w3.org/2000/svg">
  <g transform="matrix(1, 0, 0, 1, 55.0, 55.0)">
    <path d="M32.3 -31.7 Q19.15 -44.85 0.5 -44.85 -18.1 -44.85 -31.25 -31.7 -44.45 -18.55 -44.45 0.05 -44.45 18.7 -31.25 31.85 -18.1 45.0 0.5 45.0 19.15 45.0 32.3 31.85 45.45 18.7 45.45 0.05 45.45 -18.55 32.3 -31.7 M39.75 -38.75 Q56.0 -22.5 56.0 0.5 56.0 23.5 39.75 39.75 23.5 56.0 0.5 56.0 -22.5 56.0 -38.75 39.75 -55.0 23.5 -55.0 0.5 -55.0 -22.5 -38.75 -38.75 -22.5 -55.0 0.5 -55.0 23.5 -55.0 39.75 -38.75" fill="url(#gradient0)" fill-rule="evenodd" stroke="none"/>
    <path d="M35.3 -35.35 Q50.0 -20.7 50.0 0.0 50.0 20.75 35.3 35.4 20.65 50.0 0.0 50.0 -20.75 50.0 -35.4 35.4 -50.0 20.75 -50.0 0.0 -50.0 -20.7 -35.4 -35.35 -20.75 -50.0 0.0 -50.0 20.65 -50.0 35.3 -35.35 M30.7 30.8 Q43.5 18.05 43.5 0.0 43.5 -18.05 30.7 -30.8 17.95 -43.55 -0.05 -43.55 -18.1 -43.55 -30.85 -30.8 -43.6 -18.05 -43.6 0.0 -43.6 18.05 -30.85 30.8 -18.1 43.55 -0.05 43.55 17.95 43.55 30.7 30.8" fill="url(#gradient1)" fill-rule="evenodd" stroke="none"/>
    <path d="M27.85 -27.75 Q16.35 -39.25 0.15 -39.25 -16.15 -39.25 -27.6 -27.75 -39.1 -16.25 -39.1 0.0 -39.1 16.25 -27.6 27.7 -16.15 39.2 0.15 39.2 16.35 39.2 27.85 27.7 39.35 16.25 39.35 0.0 39.35 -16.25 27.85 -27.75 M30.95 32.0 Q17.9 45.05 -0.5 45.05 -18.95 45.05 -31.95 32.0 -45.0 19.0 -45.0 0.55 -45.0 -17.9 -31.95 -30.95 -18.95 -43.95 -0.5 -43.95 17.9 -43.95 30.95 -30.95 44.0 -17.9 44.0 0.55 44.0 19.0 30.95 32.0" fill="url(#gradient2)" fill-rule="evenodd" stroke="none"/>
  </g>
  <defs>
    <linearGradient gradientTransform="matrix(0.0677, 0.0, 0.0, 0.0677, 0.5, 0.5)" gradientUnits="userSpaceOnUse" id="gradient0" spreadMethod="pad" x1="-819.2" x2="819.2">
      <stop offset="0.0" stop-color="#006600"/>
      <stop offset="1.0" stop-color="#003300"/>
    </linearGradient>
    <linearGradient gradientTransform="matrix(-0.061, 0.0, 0.0, -0.061, 0.0, 0.0)" gradientUnits="userSpaceOnUse" id="gradient1" spreadMethod="pad" x1="-819.2" x2="819.2">
      <stop offset="0.0" stop-color="#339900"/>
      <stop offset="1.0" stop-color="#66cc00"/>
    </linearGradient>
    <radialGradient cx="0" cy="0" gradientTransform="matrix(0.0547, 0.0, 0.0, 0.0547, -0.5, 0.55)" gradientUnits="userSpaceOnUse" id="gradient2" r="819.2" spreadMethod="pad">
      <stop offset="0.0" stop-color="#339900"/>
      <stop offset="1.0" stop-color="#006600"/>
    </radialGradient>
  </defs>
</svg>
