<?xml version="1.0" encoding="UTF-8" standalone="no"?>
<svg xmlns:xlink="http://www.w3.org/1999/xlink" height="68.65px" width="68.6px" xmlns="http://www.w3.org/2000/svg">
  <g transform="matrix(1, 0, 0, 1, 34.3, 34.3)">
    <path d="M18.2 -18.15 Q10.7 -25.7 0.0 -25.7 -10.7 -25.7 -18.25 -18.15 -25.8 -10.6 -25.8 0.1 -25.8 10.8 -18.25 18.3 -10.7 25.85 0.0 25.85 10.7 25.85 18.2 18.3 25.75 10.8 25.75 0.1 25.75 -10.6 18.2 -18.15 M24.25 -24.2 Q34.3 -14.2 34.3 0.05 34.3 14.3 24.25 24.3 14.25 34.35 0.0 34.35 -14.2 34.35 -24.25 24.3 -34.3 14.3 -34.3 0.05 -34.3 -14.2 -24.25 -24.2 -14.2 -34.3 0.0 -34.3 14.25 -34.3 24.25 -24.2" fill="url(#gradient0)" fill-rule="evenodd" stroke="none"/>
  </g>
  <defs>
    <radialGradient cx="0" cy="0" gradientTransform="matrix(0.0423, 0.0, 0.0, 0.0423, 0.0, 0.05)" gradientUnits="userSpaceOnUse" id="gradient0" r="819.2" spreadMethod="pad">
      <stop offset="0.0" stop-color="#33cc00"/>
      <stop offset="1.0" stop-color="#006600"/>
    </radialGradient>
  </defs>
</svg>
