<?xml version="1.0" encoding="UTF-8" standalone="no"?>
<svg xmlns:xlink="http://www.w3.org/1999/xlink" height="1.65px" width="11.35px" xmlns="http://www.w3.org/2000/svg">
  <g transform="matrix(1, 0, 0, 1, 0.0, -0.55)">
    <path d="M11.35 0.55 L11.35 2.1 10.65 1.9 10.65 0.8 11.35 0.55 M0.0 2.2 L0.05 0.55 0.7 0.8 0.7 1.9 0.0 2.2" fill="#5a5657" fill-rule="evenodd" stroke="none"/>
    <path d="M0.05 0.55 L11.35 0.55 10.65 0.8 0.7 0.8 0.05 0.55" fill="#3f3b3c" fill-rule="evenodd" stroke="none"/>
    <path d="M10.65 0.8 L10.65 1.9 0.7 1.9 0.7 0.8 10.65 0.8" fill="#ffffff" fill-rule="evenodd" stroke="none"/>
    <path d="M11.35 2.1 L11.35 2.2 0.0 2.2 0.7 1.9 10.65 1.9 11.35 2.1" fill="#cccccc" fill-rule="evenodd" stroke="none"/>
  </g>
</svg>
