<?xml version="1.0" encoding="UTF-8" standalone="no"?>
<svg xmlns:xlink="http://www.w3.org/1999/xlink" height="58.0px" width="33.0px" xmlns="http://www.w3.org/2000/svg">
  <g transform="matrix(1, 0, 0, 1, 0.1, -1.45)">
    <path d="M0.1 2.9 L32.85 2.9 32.85 3.8 0.1 3.8 0.1 2.9" fill="#a7a7a7" fill-rule="evenodd" stroke="none"/>
    <path d="M0.1 2.9 L0.1 1.45 32.85 1.45 32.85 2.9 0.1 2.9" fill="#797576" fill-rule="evenodd" stroke="none"/>
    <path d="M29.85 54.65 L29.85 55.75 4.2 55.75 4.2 54.65 29.85 54.65" fill="#5b5758" fill-rule="evenodd" stroke="none"/>
    <path d="M4.2 54.65 L4.2 52.05 29.85 52.05 29.85 54.65 4.2 54.65" fill="#262425" fill-rule="evenodd" stroke="none"/>
    <path d="M32.9 52.55 L0.2 52.55 0.2 51.1 32.9 51.1 32.9 52.55" fill="#797576" fill-rule="evenodd" stroke="none"/>
    <path d="M32.9 52.55 L32.9 53.45 0.2 53.45 0.2 52.55 32.9 52.55" fill="#a7a7a7" fill-rule="evenodd" stroke="none"/>
    <path d="M29.25 45.75 L29.25 46.5 3.6 46.5 3.6 45.75 29.25 45.75" fill="#5b5758" fill-rule="evenodd" stroke="none"/>
    <path d="M3.6 45.75 L3.6 43.95 29.25 43.95 29.25 45.75 3.6 45.75" fill="#262425" fill-rule="evenodd" stroke="none"/>
    <path d="M29.85 20.95 L29.85 21.7 4.2 21.7 4.2 20.95 29.85 20.95" fill="#5b5758" fill-rule="evenodd" stroke="none"/>
    <path d="M4.2 20.95 L4.2 19.15 29.85 19.15 29.85 20.95 4.2 20.95" fill="#262425" fill-rule="evenodd" stroke="none"/>
    <path d="M9.5 19.2 L24.2 19.2 24.2 21.55 9.5 21.55 9.5 19.2" fill="#a7a7a7" fill-rule="evenodd" stroke="none"/>
    <path d="M9.5 19.2 L9.5 18.2 24.2 18.2 24.2 19.2 9.5 19.2" fill="#5b5758" fill-rule="evenodd" stroke="none"/>
    <path d="M23.7 51.15 L23.7 19.0 24.2 19.0 24.2 51.15 23.7 51.15" fill="#5b5758" fill-rule="evenodd" stroke="none"/>
    <path d="M23.7 51.15 L22.4 51.15 22.4 19.0 23.7 19.0 23.7 51.15" fill="#a7a7a7" fill-rule="evenodd" stroke="none"/>
    <path d="M9.95 19.0 L11.25 19.0 11.25 51.15 9.95 51.15 9.95 19.0" fill="#a7a7a7" fill-rule="evenodd" stroke="none"/>
    <path d="M9.95 51.15 L9.45 51.15 9.45 19.0 9.95 19.0 9.95 51.15" fill="#5b5758" fill-rule="evenodd" stroke="none"/>
    <path d="M15.05 44.15 L15.05 45.25 18.3 45.25 18.3 44.15 15.05 44.15 M11.3 45.25 L11.3 44.15 11.9 44.15 11.9 42.25 21.85 42.25 21.85 44.15 22.5 44.15 22.5 45.25 21.85 45.25 21.85 49.8 11.9 49.8 11.9 45.25 11.3 45.25" fill="url(#gradient0)" fill-rule="evenodd" stroke="none"/>
    <path d="M15.05 44.15 L18.3 44.15 18.3 45.25 15.05 45.25 15.05 44.15 M11.3 45.25 L11.9 45.25 11.9 49.8 11.3 49.8 11.3 45.25 M21.85 49.8 L21.85 45.25 22.5 45.25 22.5 49.8 21.85 49.8 M22.5 44.15 L21.85 44.15 21.85 42.25 11.9 42.25 11.9 44.15 11.3 44.15 11.3 41.55 22.5 41.55 22.5 44.15" fill="#5a5657" fill-rule="evenodd" stroke="none"/>
    <path d="M11.9 49.8 L21.85 49.8 22.5 49.8 22.5 51.15 11.3 51.15 11.3 49.8 11.9 49.8" fill="#3f3b3c" fill-rule="evenodd" stroke="none"/>
    <path d="M18.0 29.9 L18.0 28.95 14.7 28.95 14.7 29.9 18.0 29.9 M22.25 28.95 L22.25 29.9 21.55 29.9 21.55 33.9 11.55 33.9 11.55 29.9 10.95 29.9 10.95 28.95 11.55 28.95 11.55 27.25 21.55 27.25 21.55 28.95 22.25 28.95" fill="url(#gradient1)" fill-rule="evenodd" stroke="none"/>
    <path d="M18.0 29.9 L14.7 29.9 14.7 28.95 18.0 28.95 18.0 29.9 M10.95 28.95 L10.95 26.6 22.25 26.6 22.25 28.95 21.55 28.95 21.55 27.25 11.55 27.25 11.55 28.95 10.95 28.95 M22.25 29.9 L22.25 33.9 21.55 33.9 21.55 29.9 22.25 29.9 M10.95 33.9 L10.95 29.9 11.55 29.9 11.55 33.9 10.95 33.9" fill="#5a5657" fill-rule="evenodd" stroke="none"/>
    <path d="M22.25 33.9 L22.25 35.15 10.95 35.15 10.95 33.9 11.55 33.9 21.55 33.9 22.25 33.9" fill="#3f3b3c" fill-rule="evenodd" stroke="none"/>
    <path d="M11.2 23.15 L11.2 21.5 22.45 21.5 22.45 23.15 21.75 23.15 21.75 21.95 11.8 21.95 11.8 23.15 11.2 23.15 M22.45 23.85 L22.45 26.7 21.75 26.7 21.75 23.85 22.45 23.85 M11.2 26.7 L11.2 23.85 11.8 23.85 11.8 26.7 11.2 26.7" fill="#5a5657" fill-rule="evenodd" stroke="none"/>
    <path d="M11.8 23.15 L11.8 21.95 21.75 21.95 21.75 23.15 18.2 23.15 14.9 23.15 11.8 23.15 M11.8 23.85 L14.9 23.85 18.2 23.85 21.75 23.85 21.75 26.7 11.8 26.7 11.8 23.85" fill="url(#gradient2)" fill-rule="evenodd" stroke="none"/>
    <path d="M22.45 23.15 L22.45 23.85 21.75 23.85 18.2 23.85 18.2 23.15 21.75 23.15 22.45 23.15 M22.45 26.7 L22.45 27.55 11.2 27.55 11.2 26.7 11.8 26.7 21.75 26.7 22.45 26.7 M11.2 23.85 L11.2 23.15 11.8 23.15 14.9 23.15 14.9 23.85 11.8 23.85 11.2 23.85" fill="#3f3b3c" fill-rule="evenodd" stroke="none"/>
    <path d="M14.9 23.15 L18.2 23.15 18.2 23.85 14.9 23.85 14.9 23.15" fill="#b2aeaf" fill-rule="evenodd" stroke="none"/>
    <path d="M10.4 41.95 L10.4 40.05 23.0 40.05 23.0 41.95 10.4 41.95" fill="url(#gradient3)" fill-rule="evenodd" stroke="none"/>
    <path d="M23.0 41.95 L23.0 42.55 10.4 42.55 10.4 41.95 23.0 41.95" fill="url(#gradient4)" fill-rule="evenodd" stroke="none"/>
    <path d="M10.4 40.05 L10.4 38.15 23.0 38.15 23.0 40.05 10.4 40.05" fill="url(#gradient5)" fill-rule="evenodd" stroke="none"/>
    <path d="M10.4 38.15 L10.4 36.05 23.0 36.05 23.0 38.15 10.4 38.15" fill="url(#gradient6)" fill-rule="evenodd" stroke="none"/>
    <path d="M10.4 36.05 L10.4 35.45 23.0 35.45 23.0 36.05 10.4 36.05" fill="url(#gradient7)" fill-rule="evenodd" stroke="none"/>
    <path d="M14.8 30.55 L14.8 30.15 18.55 30.15 18.55 30.55 14.8 30.55" fill="url(#gradient8)" fill-rule="evenodd" stroke="none"/>
    <path d="M18.55 31.9 L18.55 33.15 14.8 33.15 14.8 31.9 18.55 31.9" fill="url(#gradient9)" fill-rule="evenodd" stroke="none"/>
    <path d="M18.55 33.15 L18.55 34.35 14.8 34.35 14.8 33.15 18.55 33.15" fill="url(#gradient10)" fill-rule="evenodd" stroke="none"/>
    <path d="M18.55 34.35 L18.55 34.75 14.8 34.75 14.8 34.35 18.55 34.35" fill="url(#gradient11)" fill-rule="evenodd" stroke="none"/>
    <path d="M18.55 30.55 L18.55 31.9 14.8 31.9 14.8 30.55 18.55 30.55" fill="url(#gradient12)" fill-rule="evenodd" stroke="none"/>
    <path d="M14.8 26.1 L14.8 25.85 18.55 25.85 18.55 26.1 14.8 26.1" fill="url(#gradient13)" fill-rule="evenodd" stroke="none"/>
    <path d="M18.55 26.1 L18.55 27.05 14.8 27.05 14.8 26.1 18.55 26.1" fill="url(#gradient14)" fill-rule="evenodd" stroke="none"/>
    <path d="M18.55 27.05 L18.55 27.85 14.8 27.85 14.8 27.05 18.55 27.05" fill="url(#gradient15)" fill-rule="evenodd" stroke="none"/>
    <path d="M18.55 27.85 L18.55 28.7 14.8 28.7 14.8 27.85 18.55 27.85" fill="url(#gradient16)" fill-rule="evenodd" stroke="none"/>
    <path d="M18.55 28.7 L18.55 28.95 14.8 28.95 14.8 28.7 18.55 28.7" fill="url(#gradient17)" fill-rule="evenodd" stroke="none"/>
    <path d="M12.85 43.1 L12.85 42.35 15.65 42.35 15.65 43.1 12.85 43.1" fill="url(#gradient18)" fill-rule="evenodd" stroke="none"/>
    <path d="M15.65 45.8 L15.65 48.2 12.85 48.2 12.85 45.8 15.65 45.8" fill="url(#gradient19)" fill-rule="evenodd" stroke="none"/>
    <path d="M15.65 43.1 L15.65 45.8 12.85 45.8 12.85 43.1 15.65 43.1" fill="url(#gradient20)" fill-rule="evenodd" stroke="none"/>
    <path d="M15.65 48.2 L15.65 50.6 12.85 50.6 12.85 48.2 15.65 48.2" fill="url(#gradient21)" fill-rule="evenodd" stroke="none"/>
    <path d="M15.65 50.6 L15.65 51.4 12.85 51.4 12.85 50.6 15.65 50.6" fill="url(#gradient22)" fill-rule="evenodd" stroke="none"/>
    <path d="M16.9 43.1 L16.9 42.35 19.7 42.35 19.7 43.1 16.9 43.1" fill="url(#gradient23)" fill-rule="evenodd" stroke="none"/>
    <path d="M19.7 43.1 L19.7 45.8 16.9 45.8 16.9 43.1 19.7 43.1" fill="url(#gradient24)" fill-rule="evenodd" stroke="none"/>
    <path d="M19.7 45.8 L19.7 48.2 16.9 48.2 16.9 45.8 19.7 45.8" fill="url(#gradient25)" fill-rule="evenodd" stroke="none"/>
    <path d="M19.7 48.2 L19.7 50.6 16.9 50.6 16.9 48.2 19.7 48.2" fill="url(#gradient26)" fill-rule="evenodd" stroke="none"/>
    <path d="M19.7 50.6 L19.7 51.4 16.9 51.4 16.9 50.6 19.7 50.6" fill="url(#gradient27)" fill-rule="evenodd" stroke="none"/>
    <path d="M32.85 11.0 L32.85 29.6 27.7 29.6 27.7 11.0 32.85 11.0" fill="#cccccc" fill-rule="evenodd" stroke="none"/>
    <path d="M32.3 13.0 L32.3 27.6 28.25 27.6 28.25 13.0 32.3 13.0" fill="#ffffff" fill-rule="evenodd" stroke="none"/>
    <path d="M5.05 29.6 L-0.1 29.6 -0.1 11.0 5.05 11.0 5.05 29.6" fill="#cccccc" fill-rule="evenodd" stroke="none"/>
    <path d="M4.5 13.0 L4.5 27.6 0.45 27.6 0.45 13.0 4.5 13.0" fill="#ffffff" fill-rule="evenodd" stroke="none"/>
    <path d="M1.5 46.25 L5.4 46.25 5.4 38.2 1.5 38.2 1.5 4.15 30.9 4.15 30.9 38.4 26.55 38.4 26.6 46.25 30.9 46.45 30.9 59.45 1.5 59.45 1.5 46.25" fill="url(#gradient28)" fill-rule="evenodd" stroke="none"/>
    <path d="M1.45 49.85 L1.45 45.35 31.1 45.35 31.1 49.85 1.45 49.85" fill="#262425" fill-rule="evenodd" stroke="none"/>
    <path d="M31.1 49.85 L31.1 51.7 1.45 51.7 1.45 49.85 31.1 49.85" fill="#5b5758" fill-rule="evenodd" stroke="none"/>
    <path d="M-0.05 44.0 L32.65 44.0 32.65 46.7 -0.05 46.7 -0.05 44.0" fill="#a7a7a7" fill-rule="evenodd" stroke="none"/>
    <path d="M-0.05 44.0 L-0.05 39.55 32.65 39.55 32.65 44.0 -0.05 44.0" fill="#797576" fill-rule="evenodd" stroke="none"/>
    <path d="M31.0 38.95 L31.0 39.7 1.4 39.7 1.4 38.95 31.0 38.95" fill="#5b5758" fill-rule="evenodd" stroke="none"/>
    <path d="M1.4 38.95 L1.4 37.15 31.0 37.15 31.0 38.95 1.4 38.95" fill="#262425" fill-rule="evenodd" stroke="none"/>
    <path d="M30.9 30.85 L30.9 31.6 1.45 31.6 1.45 30.85 30.9 30.85" fill="#5b5758" fill-rule="evenodd" stroke="none"/>
    <path d="M1.45 30.85 L1.45 29.05 30.9 29.05 30.9 30.85 1.45 30.85" fill="#262425" fill-rule="evenodd" stroke="none"/>
    <path d="M12.05 5.25 L10.9 3.45 12.85 3.45 14.0 5.25 12.05 5.25" fill="#e4e4e4" fill-rule="evenodd" stroke="none"/>
    <path d="M10.45 5.25 L9.3 3.45 11.2 3.45 12.35 5.25 10.45 5.25" fill="#bc100d" fill-rule="evenodd" stroke="none"/>
    <path d="M8.5 5.25 L7.35 3.45 9.3 3.45 10.45 5.25 8.5 5.25" fill="#e4e4e4" fill-rule="evenodd" stroke="none"/>
    <path d="M6.7 5.25 L5.55 3.45 7.45 3.45 8.6 5.25 6.7 5.25" fill="#bc100d" fill-rule="evenodd" stroke="none"/>
    <path d="M4.7 5.25 L3.55 3.45 5.5 3.45 6.65 5.25 4.7 5.25" fill="#e4e4e4" fill-rule="evenodd" stroke="none"/>
    <path d="M3.15 5.25 L2.0 3.45 3.9 3.45 5.05 5.25 3.15 5.25" fill="#bc100d" fill-rule="evenodd" stroke="none"/>
    <path d="M1.2 5.25 L0.05 3.45 2.0 3.45 3.15 5.25 1.2 5.25" fill="#e4e4e4" fill-rule="evenodd" stroke="none"/>
    <path d="M23.4 5.25 L22.25 3.45 24.2 3.45 25.35 5.25 23.4 5.25" fill="#e4e4e4" fill-rule="evenodd" stroke="none"/>
    <path d="M21.8 5.25 L20.65 3.45 22.55 3.45 23.7 5.25 21.8 5.25" fill="#bc100d" fill-rule="evenodd" stroke="none"/>
    <path d="M19.85 5.25 L18.7 3.45 20.65 3.45 21.8 5.25 19.85 5.25" fill="#e4e4e4" fill-rule="evenodd" stroke="none"/>
    <path d="M18.05 5.25 L16.9 3.45 18.8 3.45 19.95 5.25 18.05 5.25" fill="#bc100d" fill-rule="evenodd" stroke="none"/>
    <path d="M16.05 5.25 L14.9 3.45 16.85 3.45 18.0 5.25 16.05 5.25" fill="#e4e4e4" fill-rule="evenodd" stroke="none"/>
    <path d="M14.5 5.25 L13.35 3.45 15.25 3.45 16.4 5.25 14.5 5.25" fill="#bc100d" fill-rule="evenodd" stroke="none"/>
    <path d="M12.55 5.25 L11.4 3.45 13.35 3.45 14.5 5.25 12.55 5.25" fill="#e4e4e4" fill-rule="evenodd" stroke="none"/>
    <path d="M31.1 5.25 L29.95 3.45 32.8 3.45 31.55 5.25 31.1 5.25" fill="#e4e4e4" fill-rule="evenodd" stroke="none"/>
    <path d="M29.3 5.25 L28.15 3.45 30.05 3.45 31.2 5.25 29.3 5.25" fill="#bc100d" fill-rule="evenodd" stroke="none"/>
    <path d="M27.35 5.25 L26.2 3.45 28.15 3.45 29.3 5.25 27.35 5.25" fill="#e4e4e4" fill-rule="evenodd" stroke="none"/>
    <path d="M25.75 5.25 L24.6 3.45 26.5 3.45 27.65 5.25 25.75 5.25" fill="#bc100d" fill-rule="evenodd" stroke="none"/>
    <path d="M23.8 5.25 L22.65 3.45 24.6 3.45 25.75 5.25 23.8 5.25" fill="#e4e4e4" fill-rule="evenodd" stroke="none"/>
    <path d="M9.2 27.35 Q6.35 24.5 6.35 20.4 6.35 16.3 9.2 13.4 12.1 10.55 16.2 10.55 20.3 10.55 23.15 13.4 26.05 16.3 26.05 20.4 26.05 24.5 23.15 27.35 20.3 30.25 16.2 30.25 12.1 30.25 9.2 27.35" fill="#666666" fill-rule="evenodd" stroke="none"/>
    <path d="M25.85 15.9 L24.95 14.4 25.3 15.2 25.75 15.95 25.85 15.9 M24.5 13.35 L23.35 12.15 24.35 13.35 24.5 13.35 M22.15 22.95 Q20.5 25.4 17.65 25.4 13.0 25.4 11.1 22.85 10.1 21.45 10.1 19.65 10.1 17.8 10.8 16.85 12.0 15.3 15.2 15.3 18.8 15.3 19.6 17.15 20.0 18.1 19.7 19.1 19.7 22.95 16.25 22.95 14.05 22.95 13.15 21.35 12.65 20.45 12.65 19.5 12.65 19.1 13.05 18.25 13.55 17.25 14.0 17.0 L14.3 16.85 Q13.15 16.65 12.3 18.1 11.65 19.15 11.65 19.75 11.65 20.8 12.7 21.95 13.95 23.4 15.95 23.7 L19.1 23.7 20.7 21.85 21.85 19.95 Q21.85 18.35 20.05 16.55 17.95 14.4 15.05 14.15 L11.95 14.15 Q11.2 15.0 10.3 17.3 9.5 19.4 9.5 20.2 9.5 22.55 10.6 23.7 12.45 25.55 17.65 25.55 22.55 25.55 24.05 22.25 24.75 20.65 24.5 19.2 24.5 14.75 21.55 12.3 18.85 10.1 15.0 10.45 11.1 10.8 8.45 13.6 5.5 16.7 5.5 21.6 5.5 24.45 7.45 26.9 10.55 30.8 17.3 30.8 22.35 30.8 23.8 28.6 L24.5 25.4 24.5 25.2 Q24.25 26.05 23.6 26.5 22.4 27.3 17.85 27.3 10.65 27.3 8.65 24.05 8.0 23.05 8.0 20.2 8.0 12.5 13.5 12.5 18.95 12.5 21.65 15.8 23.35 17.9 23.35 19.75 23.35 21.25 22.15 22.95 M26.15 19.2 Q26.15 17.1 25.85 16.4 L26.05 19.2 26.15 19.2 M12.35 9.3 L9.95 9.75 9.4 9.55 9.2 8.9 Q9.2 7.9 12.1 7.6 15.1 7.35 18.45 8.2 27.7 10.5 27.7 17.9 27.7 21.55 26.05 25.7 23.3 32.55 17.4 32.55 9.15 32.55 5.8 27.6 3.95 24.85 3.95 21.6 3.95 13.4 11.8 9.45 L12.35 9.3 M15.5 16.85 L15.65 16.95 Q17.3 17.45 17.7 18.1 L17.8 19.0 Q17.8 20.1 16.75 21.15 L15.65 21.3 Q17.6 21.3 18.05 20.4 L18.2 18.9 18.05 17.85 Q17.5 17.0 15.5 16.85 M15.35 18.8 L15.95 19.35 16.25 19.2 Q16.05 18.75 15.2 18.75 L15.35 18.8" fill="#999999" fill-rule="evenodd" stroke="none"/>
  </g>
  <defs>
    <linearGradient gradientTransform="matrix(0.0, -0.0091, 0.0041, 0.0, 16.05, 50.5)" gradientUnits="userSpaceOnUse" id="gradient0" spreadMethod="pad" x1="-819.2" x2="819.2">
      <stop offset="0.0" stop-color="#332f30"/>
      <stop offset="0.36470588235294116" stop-color="#dfdbdc"/>
      <stop offset="0.5176470588235295" stop-color="#a7a7a7"/>
      <stop offset="0.6901960784313725" stop-color="#dfdbdc"/>
      <stop offset="1.0" stop-color="#332f30"/>
    </linearGradient>
    <linearGradient gradientTransform="matrix(0.0, -0.0262, 0.0042, 0.0, 15.95, 50.3)" gradientUnits="userSpaceOnUse" id="gradient1" spreadMethod="pad" x1="-819.2" x2="819.2">
      <stop offset="0.0" stop-color="#332f30"/>
      <stop offset="0.36470588235294116" stop-color="#dfdbdc"/>
      <stop offset="0.5176470588235295" stop-color="#a7a7a7"/>
      <stop offset="0.6901960784313725" stop-color="#dfdbdc"/>
      <stop offset="1.0" stop-color="#332f30"/>
    </linearGradient>
    <linearGradient gradientTransform="matrix(0.0, -0.0187, 0.0042, 0.0, 16.45, 35.6)" gradientUnits="userSpaceOnUse" id="gradient2" spreadMethod="pad" x1="-819.2" x2="819.2">
      <stop offset="0.0" stop-color="#332f30"/>
      <stop offset="0.36470588235294116" stop-color="#dfdbdc"/>
      <stop offset="0.5176470588235295" stop-color="#a7a7a7"/>
      <stop offset="0.6901960784313725" stop-color="#dfdbdc"/>
      <stop offset="1.0" stop-color="#332f30"/>
    </linearGradient>
    <linearGradient gradientTransform="matrix(0.0077, 0.0, 0.0, 0.0056, 16.7, 38.6)" gradientUnits="userSpaceOnUse" id="gradient3" spreadMethod="pad" x1="-819.2" x2="819.2">
      <stop offset="0.0" stop-color="#332f30"/>
      <stop offset="0.36470588235294116" stop-color="#dfdbdc"/>
      <stop offset="0.5176470588235295" stop-color="#a7a7a7"/>
      <stop offset="0.6901960784313725" stop-color="#dfdbdc"/>
      <stop offset="1.0" stop-color="#332f30"/>
    </linearGradient>
    <linearGradient gradientTransform="matrix(1.0E-4, 0.0077, -0.0055, 1.0E-4, 20.85, 35.95)" gradientUnits="userSpaceOnUse" id="gradient4" spreadMethod="pad" x1="-819.2" x2="819.2">
      <stop offset="0.0" stop-color="#332f30"/>
      <stop offset="0.36470588235294116" stop-color="#dfdbdc"/>
      <stop offset="0.5176470588235295" stop-color="#a7a7a7"/>
      <stop offset="0.6901960784313725" stop-color="#dfdbdc"/>
      <stop offset="1.0" stop-color="#332f30"/>
    </linearGradient>
    <linearGradient gradientTransform="matrix(0.0058, 0.0, 0.0, 0.0056, 16.7, 38.9)" gradientUnits="userSpaceOnUse" id="gradient5" spreadMethod="pad" x1="-819.2" x2="819.2">
      <stop offset="0.0" stop-color="#332f30"/>
      <stop offset="0.36470588235294116" stop-color="#dfdbdc"/>
      <stop offset="0.5176470588235295" stop-color="#a7a7a7"/>
      <stop offset="0.6901960784313725" stop-color="#dfdbdc"/>
      <stop offset="1.0" stop-color="#332f30"/>
    </linearGradient>
    <linearGradient gradientTransform="matrix(0.0077, 0.0, 0.0, 0.0057, 16.7, 39.15)" gradientUnits="userSpaceOnUse" id="gradient6" spreadMethod="pad" x1="-819.2" x2="819.2">
      <stop offset="0.0" stop-color="#332f30"/>
      <stop offset="0.36470588235294116" stop-color="#dfdbdc"/>
      <stop offset="0.5176470588235295" stop-color="#a7a7a7"/>
      <stop offset="0.6901960784313725" stop-color="#dfdbdc"/>
      <stop offset="1.0" stop-color="#332f30"/>
    </linearGradient>
    <linearGradient gradientTransform="matrix(0.0, 0.0069, -0.0044, 0.0, 16.3, 41.2)" gradientUnits="userSpaceOnUse" id="gradient7" spreadMethod="pad" x1="-819.2" x2="819.2">
      <stop offset="0.0" stop-color="#332f30"/>
      <stop offset="0.36470588235294116" stop-color="#dfdbdc"/>
      <stop offset="0.5176470588235295" stop-color="#a7a7a7"/>
      <stop offset="0.6901960784313725" stop-color="#dfdbdc"/>
      <stop offset="1.0" stop-color="#332f30"/>
    </linearGradient>
    <linearGradient gradientTransform="matrix(0.0, 0.0045, -0.0013, 0.0, 16.55, 33.85)" gradientUnits="userSpaceOnUse" id="gradient8" spreadMethod="pad" x1="-819.2" x2="819.2">
      <stop offset="0.0" stop-color="#332f30"/>
      <stop offset="0.36470588235294116" stop-color="#dfdbdc"/>
      <stop offset="0.5176470588235295" stop-color="#a7a7a7"/>
      <stop offset="0.6901960784313725" stop-color="#dfdbdc"/>
      <stop offset="1.0" stop-color="#332f30"/>
    </linearGradient>
    <linearGradient gradientTransform="matrix(0.0017, 0.0, 0.0, 0.0036, 16.7, 32.4)" gradientUnits="userSpaceOnUse" id="gradient9" spreadMethod="pad" x1="-819.2" x2="819.2">
      <stop offset="0.0" stop-color="#332f30"/>
      <stop offset="0.36470588235294116" stop-color="#dfdbdc"/>
      <stop offset="0.5176470588235295" stop-color="#a7a7a7"/>
      <stop offset="0.6901960784313725" stop-color="#dfdbdc"/>
      <stop offset="1.0" stop-color="#332f30"/>
    </linearGradient>
    <linearGradient gradientTransform="matrix(0.0023, 0.0, 0.0, 0.0036, 16.7, 32.2)" gradientUnits="userSpaceOnUse" id="gradient10" spreadMethod="pad" x1="-819.2" x2="819.2">
      <stop offset="0.0" stop-color="#332f30"/>
      <stop offset="0.36470588235294116" stop-color="#dfdbdc"/>
      <stop offset="0.5176470588235295" stop-color="#a7a7a7"/>
      <stop offset="0.6901960784313725" stop-color="#dfdbdc"/>
      <stop offset="1.0" stop-color="#332f30"/>
    </linearGradient>
    <linearGradient gradientTransform="matrix(0.0, 0.0049, -0.0016, 0.0, 17.9, 30.5)" gradientUnits="userSpaceOnUse" id="gradient11" spreadMethod="pad" x1="-819.2" x2="819.2">
      <stop offset="0.0" stop-color="#332f30"/>
      <stop offset="0.36470588235294116" stop-color="#dfdbdc"/>
      <stop offset="0.5176470588235295" stop-color="#a7a7a7"/>
      <stop offset="0.6901960784313725" stop-color="#dfdbdc"/>
      <stop offset="1.0" stop-color="#332f30"/>
    </linearGradient>
    <linearGradient gradientTransform="matrix(0.0023, 0.0, 0.0, 0.0036, 16.7, 32.55)" gradientUnits="userSpaceOnUse" id="gradient12" spreadMethod="pad" x1="-819.2" x2="819.2">
      <stop offset="0.0" stop-color="#332f30"/>
      <stop offset="0.36470588235294116" stop-color="#dfdbdc"/>
      <stop offset="0.5176470588235295" stop-color="#a7a7a7"/>
      <stop offset="0.6901960784313725" stop-color="#dfdbdc"/>
      <stop offset="1.0" stop-color="#332f30"/>
    </linearGradient>
    <linearGradient gradientTransform="matrix(0.0, 0.003, -0.0013, 0.0, 16.55, 28.35)" gradientUnits="userSpaceOnUse" id="gradient13" spreadMethod="pad" x1="-819.2" x2="819.2">
      <stop offset="0.0" stop-color="#332f30"/>
      <stop offset="0.36470588235294116" stop-color="#dfdbdc"/>
      <stop offset="0.5176470588235295" stop-color="#a7a7a7"/>
      <stop offset="0.6901960784313725" stop-color="#dfdbdc"/>
      <stop offset="1.0" stop-color="#332f30"/>
    </linearGradient>
    <linearGradient gradientTransform="matrix(0.0023, 0.0, 0.0, 0.0025, 16.7, 27.45)" gradientUnits="userSpaceOnUse" id="gradient14" spreadMethod="pad" x1="-819.2" x2="819.2">
      <stop offset="0.0" stop-color="#332f30"/>
      <stop offset="0.36470588235294116" stop-color="#dfdbdc"/>
      <stop offset="0.5176470588235295" stop-color="#a7a7a7"/>
      <stop offset="0.6901960784313725" stop-color="#dfdbdc"/>
      <stop offset="1.0" stop-color="#332f30"/>
    </linearGradient>
    <linearGradient gradientTransform="matrix(0.0017, 0.0, 0.0, 0.0025, 16.7, 27.35)" gradientUnits="userSpaceOnUse" id="gradient15" spreadMethod="pad" x1="-819.2" x2="819.2">
      <stop offset="0.0" stop-color="#332f30"/>
      <stop offset="0.36470588235294116" stop-color="#dfdbdc"/>
      <stop offset="0.5176470588235295" stop-color="#a7a7a7"/>
      <stop offset="0.6901960784313725" stop-color="#dfdbdc"/>
      <stop offset="1.0" stop-color="#332f30"/>
    </linearGradient>
    <linearGradient gradientTransform="matrix(0.0023, 0.0, 0.0, 0.0024, 16.7, 27.2)" gradientUnits="userSpaceOnUse" id="gradient16" spreadMethod="pad" x1="-819.2" x2="819.2">
      <stop offset="0.0" stop-color="#332f30"/>
      <stop offset="0.36470588235294116" stop-color="#dfdbdc"/>
      <stop offset="0.5176470588235295" stop-color="#a7a7a7"/>
      <stop offset="0.6901960784313725" stop-color="#dfdbdc"/>
      <stop offset="1.0" stop-color="#332f30"/>
    </linearGradient>
    <linearGradient gradientTransform="matrix(0.0, 0.0034, -0.0016, 0.0, 17.9, 26.05)" gradientUnits="userSpaceOnUse" id="gradient17" spreadMethod="pad" x1="-819.2" x2="819.2">
      <stop offset="0.0" stop-color="#332f30"/>
      <stop offset="0.36470588235294116" stop-color="#dfdbdc"/>
      <stop offset="0.5176470588235295" stop-color="#a7a7a7"/>
      <stop offset="0.6901960784313725" stop-color="#dfdbdc"/>
      <stop offset="1.0" stop-color="#332f30"/>
    </linearGradient>
    <linearGradient gradientTransform="matrix(0.0, 0.0088, -0.001, 0.0, 14.15, 49.65)" gradientUnits="userSpaceOnUse" id="gradient18" spreadMethod="pad" x1="-819.2" x2="819.2">
      <stop offset="0.0" stop-color="#332f30"/>
      <stop offset="0.36470588235294116" stop-color="#dfdbdc"/>
      <stop offset="0.5176470588235295" stop-color="#a7a7a7"/>
      <stop offset="0.6901960784313725" stop-color="#dfdbdc"/>
      <stop offset="1.0" stop-color="#332f30"/>
    </linearGradient>
    <linearGradient gradientTransform="matrix(0.0013, 0.0, 0.0, 0.0071, 14.25, 46.7)" gradientUnits="userSpaceOnUse" id="gradient19" spreadMethod="pad" x1="-819.2" x2="819.2">
      <stop offset="0.0" stop-color="#332f30"/>
      <stop offset="0.36470588235294116" stop-color="#dfdbdc"/>
      <stop offset="0.5176470588235295" stop-color="#a7a7a7"/>
      <stop offset="0.6901960784313725" stop-color="#dfdbdc"/>
      <stop offset="1.0" stop-color="#332f30"/>
    </linearGradient>
    <linearGradient gradientTransform="matrix(0.0017, 0.0, 0.0, 0.0072, 14.25, 47.0)" gradientUnits="userSpaceOnUse" id="gradient20" spreadMethod="pad" x1="-819.2" x2="819.2">
      <stop offset="0.0" stop-color="#332f30"/>
      <stop offset="0.36470588235294116" stop-color="#dfdbdc"/>
      <stop offset="0.5176470588235295" stop-color="#a7a7a7"/>
      <stop offset="0.6901960784313725" stop-color="#dfdbdc"/>
      <stop offset="1.0" stop-color="#332f30"/>
    </linearGradient>
    <linearGradient gradientTransform="matrix(0.0017, 0.0, 0.0, 0.007, 14.25, 46.35)" gradientUnits="userSpaceOnUse" id="gradient21" spreadMethod="pad" x1="-819.2" x2="819.2">
      <stop offset="0.0" stop-color="#332f30"/>
      <stop offset="0.36470588235294116" stop-color="#dfdbdc"/>
      <stop offset="0.5176470588235295" stop-color="#a7a7a7"/>
      <stop offset="0.6901960784313725" stop-color="#dfdbdc"/>
      <stop offset="1.0" stop-color="#332f30"/>
    </linearGradient>
    <linearGradient gradientTransform="matrix(0.0, 0.0098, -0.0012, 1.0E-4, 15.2, 42.95)" gradientUnits="userSpaceOnUse" id="gradient22" spreadMethod="pad" x1="-819.2" x2="819.2">
      <stop offset="0.0" stop-color="#332f30"/>
      <stop offset="0.36470588235294116" stop-color="#dfdbdc"/>
      <stop offset="0.5176470588235295" stop-color="#a7a7a7"/>
      <stop offset="0.6901960784313725" stop-color="#dfdbdc"/>
      <stop offset="1.0" stop-color="#332f30"/>
    </linearGradient>
    <linearGradient gradientTransform="matrix(0.0, 0.0088, -0.001, 0.0, 18.2, 49.65)" gradientUnits="userSpaceOnUse" id="gradient23" spreadMethod="pad" x1="-819.2" x2="819.2">
      <stop offset="0.0" stop-color="#332f30"/>
      <stop offset="0.36470588235294116" stop-color="#dfdbdc"/>
      <stop offset="0.5176470588235295" stop-color="#a7a7a7"/>
      <stop offset="0.6901960784313725" stop-color="#dfdbdc"/>
      <stop offset="1.0" stop-color="#332f30"/>
    </linearGradient>
    <linearGradient gradientTransform="matrix(0.0017, 0.0, 0.0, 0.0072, 18.3, 47.0)" gradientUnits="userSpaceOnUse" id="gradient24" spreadMethod="pad" x1="-819.2" x2="819.2">
      <stop offset="0.0" stop-color="#332f30"/>
      <stop offset="0.36470588235294116" stop-color="#dfdbdc"/>
      <stop offset="0.5176470588235295" stop-color="#a7a7a7"/>
      <stop offset="0.6901960784313725" stop-color="#dfdbdc"/>
      <stop offset="1.0" stop-color="#332f30"/>
    </linearGradient>
    <linearGradient gradientTransform="matrix(0.0013, 0.0, 0.0, 0.0071, 18.3, 46.7)" gradientUnits="userSpaceOnUse" id="gradient25" spreadMethod="pad" x1="-819.2" x2="819.2">
      <stop offset="0.0" stop-color="#332f30"/>
      <stop offset="0.36470588235294116" stop-color="#dfdbdc"/>
      <stop offset="0.5176470588235295" stop-color="#a7a7a7"/>
      <stop offset="0.6901960784313725" stop-color="#dfdbdc"/>
      <stop offset="1.0" stop-color="#332f30"/>
    </linearGradient>
    <linearGradient gradientTransform="matrix(0.0017, 0.0, 0.0, 0.007, 18.3, 46.35)" gradientUnits="userSpaceOnUse" id="gradient26" spreadMethod="pad" x1="-819.2" x2="819.2">
      <stop offset="0.0" stop-color="#332f30"/>
      <stop offset="0.36470588235294116" stop-color="#dfdbdc"/>
      <stop offset="0.5176470588235295" stop-color="#a7a7a7"/>
      <stop offset="0.6901960784313725" stop-color="#dfdbdc"/>
      <stop offset="1.0" stop-color="#332f30"/>
    </linearGradient>
    <linearGradient gradientTransform="matrix(0.0, 0.0098, -0.0012, 1.0E-4, 19.25, 42.95)" gradientUnits="userSpaceOnUse" id="gradient27" spreadMethod="pad" x1="-819.2" x2="819.2">
      <stop offset="0.0" stop-color="#332f30"/>
      <stop offset="0.36470588235294116" stop-color="#dfdbdc"/>
      <stop offset="0.5176470588235295" stop-color="#a7a7a7"/>
      <stop offset="0.6901960784313725" stop-color="#dfdbdc"/>
      <stop offset="1.0" stop-color="#332f30"/>
    </linearGradient>
    <linearGradient gradientTransform="matrix(1.0E-4, -0.0508, 0.0632, 0.0, 17.7, 36.9)" gradientUnits="userSpaceOnUse" id="gradient28" spreadMethod="pad" x1="-819.2" x2="819.2">
      <stop offset="0.0" stop-color="#e71010"/>
      <stop offset="0.8156862745098039" stop-color="#6f1209"/>
      <stop offset="1.0" stop-color="#d12525"/>
    </linearGradient>
  </defs>
</svg>
