<?xml version="1.0" encoding="UTF-8" standalone="no"?>
<svg xmlns:xlink="http://www.w3.org/1999/xlink" height="32.1px" width="32.95px" xmlns="http://www.w3.org/2000/svg">
  <g transform="matrix(1, 0, 0, 1, 16.3, 30.95)">
    <path d="M13.05 -30.95 L13.05 -29.0 12.1 -29.0 12.1 -29.75 -11.9 -29.75 -11.9 -29.0 -12.95 -29.0 -12.95 -30.95 13.05 -30.95" fill="url(#gradient0)" fill-rule="evenodd" stroke="none"/>
    <path d="M-11.15 -12.9 L-11.15 1.15 -16.3 1.15 -16.3 -12.9 -11.15 -12.9" fill="#cccccc" fill-rule="evenodd" stroke="none"/>
    <path d="M-15.75 -0.35 L-15.75 -11.4 -11.7 -11.4 -11.7 -0.35 -15.75 -0.35" fill="#ffffff" fill-rule="evenodd" stroke="none"/>
    <path d="M16.65 -12.9 L16.65 1.15 11.5 1.15 11.5 -12.9 16.65 -12.9" fill="#cccccc" fill-rule="evenodd" stroke="none"/>
    <path d="M12.05 -0.35 L12.05 -11.4 16.1 -11.4 16.1 -0.35 12.05 -0.35" fill="#ffffff" fill-rule="evenodd" stroke="none"/>
  </g>
  <defs>
    <linearGradient gradientTransform="matrix(-0.0158, 0.0, 0.0, -0.0053, 0.05, -31.85)" gradientUnits="userSpaceOnUse" id="gradient0" spreadMethod="pad" x1="-819.2" x2="819.2">
      <stop offset="0.0" stop-color="#332f30"/>
      <stop offset="0.36470588235294116" stop-color="#dfdbdc"/>
      <stop offset="0.5176470588235295" stop-color="#a7a7a7"/>
      <stop offset="0.6901960784313725" stop-color="#dfdbdc"/>
      <stop offset="1.0" stop-color="#332f30"/>
    </linearGradient>
  </defs>
</svg>
