<?xml version="1.0" encoding="UTF-8" standalone="no"?>
<svg xmlns:xlink="http://www.w3.org/1999/xlink" height="60.95px" width="33.1px" xmlns="http://www.w3.org/2000/svg">
  <g transform="matrix(1, 0, 0, 1, 16.45, 30.05)">
    <path d="M16.25 28.4 L-14.35 28.4 -14.35 27.6 16.25 27.6 16.25 28.4" fill="#a7a7a7" fill-rule="evenodd" stroke="none"/>
    <path d="M16.25 28.4 L16.25 29.8 -14.35 29.8 -14.35 28.4 16.25 28.4" fill="#797576" fill-rule="evenodd" stroke="none"/>
    <path d="M-11.5 3.0 L-11.5 2.0 12.5 2.0 12.5 3.0 -11.5 3.0" fill="#5b5758" fill-rule="evenodd" stroke="none"/>
    <path d="M12.5 3.0 L12.5 5.45 -11.5 5.45 -11.5 3.0 12.5 3.0" fill="#262425" fill-rule="evenodd" stroke="none"/>
    <path d="M-14.35 5.0 L16.2 5.0 16.2 6.35 -14.35 6.35 -14.35 5.0" fill="#797576" fill-rule="evenodd" stroke="none"/>
    <path d="M-14.35 5.0 L-14.35 4.15 16.2 4.15 16.2 5.0 -14.35 5.0" fill="#a7a7a7" fill-rule="evenodd" stroke="none"/>
    <path d="M12.5 15.05 L12.5 16.75 -11.5 16.75 -11.5 15.05 12.5 15.05" fill="#262425" fill-rule="evenodd" stroke="none"/>
    <path d="M-11.5 15.05 L-11.5 14.35 12.5 14.35 12.5 15.05 -11.5 15.05" fill="#5b5758" fill-rule="evenodd" stroke="none"/>
    <path d="M7.45 30.15 L-6.25 30.15 -6.25 28.4 7.45 28.4 7.45 30.15" fill="#a7a7a7" fill-rule="evenodd" stroke="none"/>
    <path d="M7.45 30.15 L7.45 30.9 -6.25 30.9 -6.25 30.15 7.45 30.15" fill="#5b5758" fill-rule="evenodd" stroke="none"/>
    <path d="M-5.8 6.25 L-5.8 30.2 -6.3 30.2 -6.3 6.25 -5.8 6.25" fill="#5b5758" fill-rule="evenodd" stroke="none"/>
    <path d="M-5.8 6.25 L-4.6 6.25 -4.6 30.2 -5.8 30.2 -5.8 6.25" fill="#a7a7a7" fill-rule="evenodd" stroke="none"/>
    <path d="M7.15 30.2 L5.95 30.2 5.95 6.25 7.15 6.25 7.15 30.2" fill="#a7a7a7" fill-rule="evenodd" stroke="none"/>
    <path d="M7.15 6.25 L7.65 6.25 7.65 30.2 7.15 30.2 7.15 6.25" fill="#5b5758" fill-rule="evenodd" stroke="none"/>
    <path d="M5.85 11.5 L5.3 11.5 5.3 12.9 -4.0 12.9 -4.0 11.5 -4.65 11.5 -4.65 10.7 -4.0 10.7 -4.0 7.3 5.3 7.3 5.3 10.7 5.85 10.7 5.85 11.5 M2.35 11.5 L2.35 10.7 -0.7 10.7 -0.7 11.5 2.35 11.5" fill="url(#gradient0)" fill-rule="evenodd" stroke="none"/>
    <path d="M-4.65 11.5 L-4.0 11.5 -4.0 12.9 5.3 12.9 5.3 11.5 5.85 11.5 5.85 13.45 -4.65 13.45 -4.65 11.5 M5.85 10.7 L5.3 10.7 5.3 7.3 5.85 7.3 5.85 10.7 M-4.0 7.3 L-4.0 10.7 -4.65 10.7 -4.65 7.3 -4.0 7.3 M2.35 11.5 L-0.7 11.5 -0.7 10.7 2.35 10.7 2.35 11.5" fill="#5a5657" fill-rule="evenodd" stroke="none"/>
    <path d="M5.3 7.3 L-4.0 7.3 -4.65 7.3 -4.65 6.25 5.85 6.25 5.85 7.3 5.3 7.3" fill="#3f3b3c" fill-rule="evenodd" stroke="none"/>
    <path d="M6.15 22.85 L5.55 22.85 5.55 24.1 -3.8 24.1 -3.8 22.85 -4.45 22.85 -4.45 22.15 -3.8 22.15 -3.8 19.15 5.55 19.15 5.55 22.15 6.15 22.15 6.15 22.85 M2.65 22.85 L2.65 22.15 -0.45 22.15 -0.45 22.85 2.65 22.85" fill="url(#gradient1)" fill-rule="evenodd" stroke="none"/>
    <path d="M2.65 22.85 L-0.45 22.85 -0.45 22.15 2.65 22.15 2.65 22.85 M-4.45 22.85 L-3.8 22.85 -3.8 24.1 5.55 24.1 5.55 22.85 6.15 22.85 6.15 24.6 -4.45 24.6 -4.45 22.85 M6.15 22.15 L5.55 22.15 5.55 19.15 6.15 19.15 6.15 22.15 M-3.8 19.15 L-3.8 22.15 -4.45 22.15 -4.45 19.15 -3.8 19.15" fill="#5a5657" fill-rule="evenodd" stroke="none"/>
    <path d="M5.55 19.15 L-3.8 19.15 -4.45 19.15 -4.45 18.25 6.15 18.25 6.15 19.15 5.55 19.15" fill="#3f3b3c" fill-rule="evenodd" stroke="none"/>
    <path d="M5.4 24.55 L6.0 24.55 6.0 26.65 5.4 26.65 5.4 24.55 M-4.5 24.55 L-3.85 24.55 -3.85 26.65 -4.5 26.65 -4.5 24.55 M5.4 27.2 L6.0 27.2 6.0 28.4 -4.5 28.4 -4.5 27.2 -3.85 27.2 -3.85 28.1 5.4 28.1 5.4 27.2" fill="#5a5657" fill-rule="evenodd" stroke="none"/>
    <path d="M6.0 24.55 L5.4 24.55 -3.85 24.55 -4.5 24.55 -4.5 23.9 6.0 23.9 6.0 24.55 M5.4 26.65 L6.0 26.65 6.0 27.2 5.4 27.2 2.5 27.2 2.5 26.65 5.4 26.65 M-4.5 27.2 L-4.5 26.65 -3.85 26.65 -0.55 26.65 -0.55 27.2 -3.85 27.2 -4.5 27.2" fill="#3f3b3c" fill-rule="evenodd" stroke="none"/>
    <path d="M5.4 24.55 L5.4 26.65 2.5 26.65 -0.55 26.65 -3.85 26.65 -3.85 24.55 5.4 24.55 M5.4 27.2 L5.4 28.1 -3.85 28.1 -3.85 27.2 -0.55 27.2 2.5 27.2 5.4 27.2" fill="url(#gradient2)" fill-rule="evenodd" stroke="none"/>
    <path d="M2.5 27.2 L-0.55 27.2 -0.55 26.65 2.5 26.65 2.5 27.2" fill="#b2aeaf" fill-rule="evenodd" stroke="none"/>
    <path d="M6.65 17.5 L6.65 18.0 -5.15 18.0 -5.15 17.5 6.65 17.5" fill="url(#gradient3)" fill-rule="evenodd" stroke="none"/>
    <path d="M6.65 15.95 L6.65 17.5 -5.15 17.5 -5.15 15.95 6.65 15.95" fill="url(#gradient4)" fill-rule="evenodd" stroke="none"/>
    <path d="M6.65 14.55 L6.65 15.95 -5.15 15.95 -5.15 14.55 6.65 14.55" fill="url(#gradient5)" fill-rule="evenodd" stroke="none"/>
    <path d="M6.65 13.15 L6.65 14.55 -5.15 14.55 -5.15 13.15 6.65 13.15" fill="url(#gradient6)" fill-rule="evenodd" stroke="none"/>
    <path d="M-5.15 13.15 L-5.15 12.65 6.65 12.65 6.65 13.15 -5.15 13.15" fill="url(#gradient7)" fill-rule="evenodd" stroke="none"/>
    <path d="M2.5 21.65 L2.5 21.95 -1.0 21.95 -1.0 21.65 2.5 21.65" fill="url(#gradient8)" fill-rule="evenodd" stroke="none"/>
    <path d="M2.5 20.65 L2.5 21.65 -1.0 21.65 -1.0 20.65 2.5 20.65" fill="url(#gradient9)" fill-rule="evenodd" stroke="none"/>
    <path d="M2.5 19.75 L2.5 20.65 -1.0 20.65 -1.0 19.75 2.5 19.75" fill="url(#gradient10)" fill-rule="evenodd" stroke="none"/>
    <path d="M2.5 18.8 L2.5 19.75 -1.0 19.75 -1.0 18.8 2.5 18.8" fill="url(#gradient11)" fill-rule="evenodd" stroke="none"/>
    <path d="M-1.0 18.8 L-1.0 18.5 2.5 18.5 2.5 18.8 -1.0 18.8" fill="url(#gradient12)" fill-rule="evenodd" stroke="none"/>
    <path d="M-1.0 24.3 L-1.0 23.65 2.5 23.65 2.5 24.3 -1.0 24.3" fill="url(#gradient13)" fill-rule="evenodd" stroke="none"/>
    <path d="M-1.0 23.65 L-1.0 23.05 2.5 23.05 2.5 23.65 -1.0 23.65" fill="url(#gradient14)" fill-rule="evenodd" stroke="none"/>
    <path d="M-1.0 23.05 L-1.0 22.85 2.5 22.85 2.5 23.05 -1.0 23.05" fill="url(#gradient15)" fill-rule="evenodd" stroke="none"/>
    <path d="M2.5 24.95 L2.5 25.15 -1.0 25.15 -1.0 24.95 2.5 24.95" fill="url(#gradient16)" fill-rule="evenodd" stroke="none"/>
    <path d="M2.5 24.3 L2.5 24.95 -1.0 24.95 -1.0 24.3 2.5 24.3" fill="url(#gradient17)" fill-rule="evenodd" stroke="none"/>
    <path d="M1.2 6.65 L1.2 6.1 3.8 6.1 3.8 6.65 1.2 6.65" fill="url(#gradient18)" fill-rule="evenodd" stroke="none"/>
    <path d="M3.8 6.65 L3.8 8.45 1.2 8.45 1.2 6.65 3.8 6.65" fill="url(#gradient19)" fill-rule="evenodd" stroke="none"/>
    <path d="M3.8 10.25 L3.8 12.25 1.2 12.25 1.2 10.25 3.8 10.25" fill="url(#gradient20)" fill-rule="evenodd" stroke="none"/>
    <path d="M3.8 8.45 L3.8 10.25 1.2 10.25 1.2 8.45 3.8 8.45" fill="url(#gradient21)" fill-rule="evenodd" stroke="none"/>
    <path d="M3.8 12.25 L3.8 12.85 1.2 12.85 1.2 12.25 3.8 12.25" fill="url(#gradient22)" fill-rule="evenodd" stroke="none"/>
    <path d="M-2.6 12.25 L-2.6 10.25 0.0 10.25 0.0 12.25 -2.6 12.25" fill="url(#gradient23)" fill-rule="evenodd" stroke="none"/>
    <path d="M-2.6 10.25 L-2.6 8.45 0.0 8.45 0.0 10.25 -2.6 10.25" fill="url(#gradient24)" fill-rule="evenodd" stroke="none"/>
    <path d="M-2.6 8.45 L-2.6 6.65 0.0 6.65 0.0 8.45 -2.6 8.45" fill="url(#gradient25)" fill-rule="evenodd" stroke="none"/>
    <path d="M-2.6 6.65 L-2.6 6.1 0.0 6.1 0.0 6.65 -2.6 6.65" fill="url(#gradient26)" fill-rule="evenodd" stroke="none"/>
    <path d="M0.0 12.25 L0.0 12.85 -2.6 12.85 -2.6 12.25 0.0 12.25" fill="url(#gradient27)" fill-rule="evenodd" stroke="none"/>
    <path d="M-14.0 -22.0 L-14.0 -28.25 -13.85 -28.45 -13.6 -28.55 -13.5 -28.6 -7.1 -28.6 -7.0 -28.55 -6.9 -28.35 -6.8 -28.0 -6.8 -22.0 -14.0 -22.0" fill="url(#gradient28)" fill-rule="evenodd" stroke="none"/>
    <path d="M-14.0 -22.0 L-6.8 -22.0 -6.8 -14.1 -6.9 -13.25 -7.05 -13.0 -7.25 -12.95 -7.75 -12.9 -13.25 -12.9 -13.75 -13.0 -13.85 -13.1 -13.85 -13.15 -14.0 -13.65 -14.0 -22.0" fill="#dfdfdf" fill-rule="evenodd" stroke="none"/>
    <path d="M-11.65 -25.65 L-9.35 -25.65 -9.35 -25.0 -11.65 -25.0 -11.65 -25.65" fill="#f19f8b" fill-rule="evenodd" stroke="none"/>
    <path d="M-9.35 -25.65 L-6.65 -25.65 -6.65 -24.7 -9.35 -24.7 -9.35 -25.0 -9.35 -25.65" fill="#ffffff" fill-rule="evenodd" stroke="none"/>
    <path d="M-6.65 -24.7 L-6.65 -24.45 -12.5 -24.45 Q-13.55 -25.35 -12.5 -25.65 L-11.65 -25.65 -11.65 -25.0 -9.35 -25.0 -9.35 -24.7 -6.65 -24.7" fill="#ea7051" fill-rule="evenodd" stroke="none"/>
    <path d="M7.15 -21.85 L7.15 -28.05 7.25 -28.3 7.3 -28.4 7.75 -28.6 13.45 -28.6 13.65 -28.55 14.15 -28.45 14.2 -28.4 14.4 -27.65 14.4 -21.85 7.15 -21.85" fill="url(#gradient29)" fill-rule="evenodd" stroke="none"/>
    <path d="M7.15 -21.85 L14.4 -21.85 14.4 -13.35 14.1 -12.95 13.65 -12.9 7.65 -12.9 7.35 -13.0 7.3 -13.1 7.2 -13.25 7.15 -13.75 7.15 -21.85" fill="#dfdfdf" fill-rule="evenodd" stroke="none"/>
    <path d="M9.8 -25.0 L9.8 -25.65 12.15 -25.65 12.15 -25.0 9.8 -25.0" fill="#f19f8b" fill-rule="evenodd" stroke="none"/>
    <path d="M9.8 -25.65 L9.8 -25.0 9.8 -24.7 7.1 -24.7 7.1 -25.65 9.8 -25.65" fill="#ffffff" fill-rule="evenodd" stroke="none"/>
    <path d="M9.8 -25.0 L12.15 -25.0 12.15 -25.65 12.95 -25.65 Q14.0 -25.35 12.95 -24.45 L7.1 -24.45 7.1 -24.7 9.8 -24.7 9.8 -25.0" fill="#ea7051" fill-rule="evenodd" stroke="none"/>
    <path d="M9.45 -27.9 L12.0 -27.9 12.0 -26.75 9.45 -26.75 9.45 -27.9" fill="#ff9900" fill-rule="evenodd" stroke="none"/>
    <path d="M12.0 -27.9 L9.45 -27.9 9.45 -30.05 12.0 -30.05 12.0 -27.9" fill="#ffff99" fill-rule="evenodd" stroke="none"/>
    <path d="M-11.6 -27.9 L-11.6 -30.05 -9.15 -30.05 -9.15 -27.9 -11.6 -27.9" fill="#ffff99" fill-rule="evenodd" stroke="none"/>
    <path d="M-9.15 -27.9 L-9.15 -26.75 -11.6 -26.75 -11.6 -27.9 -9.15 -27.9" fill="#ff9900" fill-rule="evenodd" stroke="none"/>
    <path d="M-6.65 -28.15 L-6.65 -27.85 7.35 -27.85 7.35 -28.15 8.9 -28.05 11.7 -14.25 -11.1 -14.25 -8.15 -28.05 -6.65 -28.15 M10.25 -15.25 L7.15 -27.35 -6.3 -27.35 -9.45 -15.25 1.1 -15.7 10.25 -15.25" fill="#cccccc" fill-rule="evenodd" stroke="none"/>
    <path d="M7.35 -28.15 L7.35 -27.85 -6.65 -27.85 -6.65 -28.15 -6.65 -28.7 7.35 -28.7 7.35 -28.15" fill="#8d7e58" fill-rule="evenodd" stroke="none"/>
    <path d="M7.35 -28.7 L-6.65 -28.7 -6.65 -29.1 1.4 -29.35 1.4 -29.25 7.35 -29.1 7.35 -28.7" fill="#2c3023" fill-rule="evenodd" stroke="none"/>
    <path d="M10.25 -15.25 L1.1 -15.7 -9.45 -15.25 -6.3 -27.35 7.15 -27.35 10.25 -15.25" fill="url(#gradient30)" fill-rule="evenodd" stroke="none"/>
    <path d="M8.7 -28.35 L9.25 -25.8 8.25 -25.7 Q6.7 -25.7 5.65 -26.4 4.6 -27.2 4.6 -28.25 L4.6 -28.35 8.7 -28.35" fill="url(#gradient31)" fill-rule="evenodd" stroke="none"/>
    <path d="M-8.4 -28.35 L-4.3 -28.35 -4.3 -28.25 Q-4.3 -27.2 -5.35 -26.4 -6.4 -25.7 -7.95 -25.7 L-8.95 -25.8 -8.4 -28.35" fill="url(#gradient32)" fill-rule="evenodd" stroke="none"/>
    <path d="M13.65 -8.2 L13.6 -8.9 12.65 -16.8 -12.2 -16.8 -13.25 -8.9 -13.35 -8.2 Q-13.7 -3.75 -12.75 0.7 L13.1 0.7 Q13.95 -3.6 13.65 -8.2 M14.25 -16.8 Q15.05 -12.5 15.3 -8.2 15.65 -3.05 15.3 2.2 L-15.0 2.2 Q-15.25 -3.05 -14.95 -8.2 -14.65 -12.5 -13.9 -16.8 L-13.65 -18.05 14.0 -18.05 14.25 -16.8" fill="#dfdfdf" fill-rule="evenodd" stroke="none"/>
    <path d="M-13.35 -8.2 L-13.25 -8.9 -12.2 -16.8 12.65 -16.8 13.6 -8.9 13.65 -8.2 -13.35 -8.2" fill="#9d110b" fill-rule="evenodd" stroke="none"/>
    <path d="M-13.35 -8.2 L13.65 -8.2 Q13.95 -3.6 13.1 0.7 L-12.75 0.7 Q-13.7 -3.75 -13.35 -8.2" fill="#ffffff" fill-rule="evenodd" stroke="none"/>
    <path d="M-2.85 -13.25 L-7.6 -13.25 -8.3 -16.75 -3.5 -16.75 -2.85 -13.25 M-0.45 -18.8 L6.4 -18.8 6.8 -16.75 -0.25 -16.75 -0.45 -18.8" fill="#999999" fill-rule="evenodd" stroke="none"/>
    <path d="M6.4 -18.8 L12.4 -18.8 12.4 -13.25 7.45 -13.25 6.8 -16.75 6.4 -18.8 M0.35 -13.25 L-2.85 -13.25 -3.5 -16.75 -3.95 -18.8 -0.45 -18.8 -0.25 -16.75 0.35 -13.25 M-7.6 -13.25 L-11.95 -13.25 -11.95 -18.8 -8.65 -18.8 -8.3 -16.75 -7.6 -13.25" fill="#666666" fill-rule="evenodd" stroke="none"/>
    <path d="M7.45 -13.25 L0.35 -13.25 -0.25 -16.75 6.8 -16.75 7.45 -13.25 M-8.65 -18.8 L-3.95 -18.8 -3.5 -16.75 -8.3 -16.75 -8.65 -18.8" fill="#cccccc" fill-rule="evenodd" stroke="none"/>
    <path d="M14.0 -19.65 L14.0 -10.95 -13.6 -10.95 -13.6 -19.65 14.0 -19.65 M7.45 -13.25 L12.4 -13.25 12.4 -18.8 6.4 -18.8 -0.45 -18.8 -3.95 -18.8 -8.65 -18.8 -11.95 -18.8 -11.95 -13.25 -7.6 -13.25 -2.85 -13.25 0.35 -13.25 7.45 -13.25" fill="#333333" fill-rule="evenodd" stroke="none"/>
    <path d="M4.55 -8.85 L5.7 -6.45 3.75 -6.45 2.6 -8.85 4.55 -8.85" fill="#e4e4e4" fill-rule="evenodd" stroke="none"/>
    <path d="M6.15 -8.9 L7.3 -6.5 5.4 -6.5 4.25 -8.9 6.15 -8.9" fill="#bc100d" fill-rule="evenodd" stroke="none"/>
    <path d="M8.1 -8.85 L9.25 -6.45 7.3 -6.45 6.15 -8.85 8.1 -8.85" fill="#e4e4e4" fill-rule="evenodd" stroke="none"/>
    <path d="M9.9 -8.9 L11.05 -6.5 9.15 -6.5 8.0 -8.9 9.9 -8.9" fill="#bc100d" fill-rule="evenodd" stroke="none"/>
    <path d="M11.9 -8.85 L13.05 -6.45 11.1 -6.45 9.95 -8.85 11.9 -8.85" fill="#e4e4e4" fill-rule="evenodd" stroke="none"/>
    <path d="M13.45 -8.9 L14.6 -6.5 12.7 -6.5 11.55 -8.9 13.45 -8.9" fill="#bc100d" fill-rule="evenodd" stroke="none"/>
    <path d="M15.4 -8.85 L16.55 -6.45 14.6 -6.45 13.45 -8.85 15.4 -8.85" fill="#e4e4e4" fill-rule="evenodd" stroke="none"/>
    <path d="M-6.8 -8.85 L-5.65 -6.45 -7.6 -6.45 -8.75 -8.85 -6.8 -8.85" fill="#e4e4e4" fill-rule="evenodd" stroke="none"/>
    <path d="M-5.2 -8.9 L-4.05 -6.5 -5.95 -6.5 -7.1 -8.9 -5.2 -8.9" fill="#bc100d" fill-rule="evenodd" stroke="none"/>
    <path d="M-3.25 -8.85 L-2.1 -6.45 -4.05 -6.45 -5.2 -8.85 -3.25 -8.85" fill="#e4e4e4" fill-rule="evenodd" stroke="none"/>
    <path d="M-1.45 -8.9 L-0.3 -6.5 -2.2 -6.5 -3.35 -8.9 -1.45 -8.9" fill="#bc100d" fill-rule="evenodd" stroke="none"/>
    <path d="M0.55 -8.85 L1.7 -6.45 -0.25 -6.45 -1.4 -8.85 0.55 -8.85" fill="#e4e4e4" fill-rule="evenodd" stroke="none"/>
    <path d="M2.1 -8.9 L3.25 -6.5 1.35 -6.5 0.2 -8.9 2.1 -8.9" fill="#bc100d" fill-rule="evenodd" stroke="none"/>
    <path d="M4.05 -8.85 L5.2 -6.45 3.25 -6.45 2.1 -8.85 4.05 -8.85" fill="#e4e4e4" fill-rule="evenodd" stroke="none"/>
    <path d="M-14.5 -8.85 L-13.35 -6.45 -15.3 -6.45 -16.45 -8.85 -14.5 -8.85" fill="#e4e4e4" fill-rule="evenodd" stroke="none"/>
    <path d="M-12.7 -8.9 L-11.55 -6.5 -13.45 -6.5 -14.6 -8.9 -12.7 -8.9" fill="#bc100d" fill-rule="evenodd" stroke="none"/>
    <path d="M-10.75 -8.85 L-9.6 -6.45 -11.55 -6.45 -12.7 -8.85 -10.75 -8.85" fill="#e4e4e4" fill-rule="evenodd" stroke="none"/>
    <path d="M-9.15 -8.9 L-8.0 -6.5 -9.9 -6.5 -11.05 -8.9 -9.15 -8.9" fill="#bc100d" fill-rule="evenodd" stroke="none"/>
    <path d="M-7.2 -8.85 L-6.05 -6.45 -8.0 -6.45 -9.15 -8.85 -7.2 -8.85" fill="#e4e4e4" fill-rule="evenodd" stroke="none"/>
    <path d="M-16.3 25.15 L-16.3 6.55 -11.15 6.55 -11.15 25.15 -16.3 25.15" fill="#cccccc" fill-rule="evenodd" stroke="none"/>
    <path d="M-15.75 23.15 L-15.75 8.55 -11.7 8.55 -11.7 23.15 -15.75 23.15" fill="#ffffff" fill-rule="evenodd" stroke="none"/>
    <path d="M11.5 25.15 L11.5 6.55 16.65 6.55 16.65 25.15 11.5 25.15" fill="#cccccc" fill-rule="evenodd" stroke="none"/>
    <path d="M12.05 23.15 L12.05 8.55 16.1 8.55 16.1 23.15 12.05 23.15" fill="#ffffff" fill-rule="evenodd" stroke="none"/>
  </g>
  <defs>
    <linearGradient gradientTransform="matrix(0.0, 0.0068, -0.0039, 0.0, 1.4, 6.75)" gradientUnits="userSpaceOnUse" id="gradient0" spreadMethod="pad" x1="-819.2" x2="819.2">
      <stop offset="0.0" stop-color="#332f30"/>
      <stop offset="0.36470588235294116" stop-color="#dfdbdc"/>
      <stop offset="0.5176470588235295" stop-color="#a7a7a7"/>
      <stop offset="0.6901960784313725" stop-color="#dfdbdc"/>
      <stop offset="1.0" stop-color="#332f30"/>
    </linearGradient>
    <linearGradient gradientTransform="matrix(0.0, 0.0196, -0.0039, 0.0, 1.4, 6.9)" gradientUnits="userSpaceOnUse" id="gradient1" spreadMethod="pad" x1="-819.2" x2="819.2">
      <stop offset="0.0" stop-color="#332f30"/>
      <stop offset="0.36470588235294116" stop-color="#dfdbdc"/>
      <stop offset="0.5176470588235295" stop-color="#a7a7a7"/>
      <stop offset="0.6901960784313725" stop-color="#dfdbdc"/>
      <stop offset="1.0" stop-color="#332f30"/>
    </linearGradient>
    <linearGradient gradientTransform="matrix(0.0, 0.014, -0.0039, 0.0, 1.1, 17.9)" gradientUnits="userSpaceOnUse" id="gradient2" spreadMethod="pad" x1="-819.2" x2="819.2">
      <stop offset="0.0" stop-color="#332f30"/>
      <stop offset="0.36470588235294116" stop-color="#dfdbdc"/>
      <stop offset="0.5176470588235295" stop-color="#a7a7a7"/>
      <stop offset="0.6901960784313725" stop-color="#dfdbdc"/>
      <stop offset="1.0" stop-color="#332f30"/>
    </linearGradient>
    <linearGradient gradientTransform="matrix(0.0, -0.0052, 0.0041, 0.0, 1.15, 13.7)" gradientUnits="userSpaceOnUse" id="gradient3" spreadMethod="pad" x1="-819.2" x2="819.2">
      <stop offset="0.0" stop-color="#332f30"/>
      <stop offset="0.36470588235294116" stop-color="#dfdbdc"/>
      <stop offset="0.5176470588235295" stop-color="#a7a7a7"/>
      <stop offset="0.6901960784313725" stop-color="#dfdbdc"/>
      <stop offset="1.0" stop-color="#332f30"/>
    </linearGradient>
    <linearGradient gradientTransform="matrix(-0.0072, 0.0, 0.0, -0.0042, 0.75, 15.25)" gradientUnits="userSpaceOnUse" id="gradient4" spreadMethod="pad" x1="-819.2" x2="819.2">
      <stop offset="0.0" stop-color="#332f30"/>
      <stop offset="0.36470588235294116" stop-color="#dfdbdc"/>
      <stop offset="0.5176470588235295" stop-color="#a7a7a7"/>
      <stop offset="0.6901960784313725" stop-color="#dfdbdc"/>
      <stop offset="1.0" stop-color="#332f30"/>
    </linearGradient>
    <linearGradient gradientTransform="matrix(-0.0054, 0.0, 0.0, -0.0042, 0.75, 15.4)" gradientUnits="userSpaceOnUse" id="gradient5" spreadMethod="pad" x1="-819.2" x2="819.2">
      <stop offset="0.0" stop-color="#332f30"/>
      <stop offset="0.36470588235294116" stop-color="#dfdbdc"/>
      <stop offset="0.5176470588235295" stop-color="#a7a7a7"/>
      <stop offset="0.6901960784313725" stop-color="#dfdbdc"/>
      <stop offset="1.0" stop-color="#332f30"/>
    </linearGradient>
    <linearGradient gradientTransform="matrix(-0.0072, 0.0, 0.0, -0.0042, 0.75, 15.65)" gradientUnits="userSpaceOnUse" id="gradient6" spreadMethod="pad" x1="-819.2" x2="819.2">
      <stop offset="0.0" stop-color="#332f30"/>
      <stop offset="0.36470588235294116" stop-color="#dfdbdc"/>
      <stop offset="0.5176470588235295" stop-color="#a7a7a7"/>
      <stop offset="0.6901960784313725" stop-color="#dfdbdc"/>
      <stop offset="1.0" stop-color="#332f30"/>
    </linearGradient>
    <linearGradient gradientTransform="matrix(-1.0E-4, -0.0058, 0.0051, -1.0E-4, -3.1, 17.65)" gradientUnits="userSpaceOnUse" id="gradient7" spreadMethod="pad" x1="-819.2" x2="819.2">
      <stop offset="0.0" stop-color="#332f30"/>
      <stop offset="0.36470588235294116" stop-color="#dfdbdc"/>
      <stop offset="0.5176470588235295" stop-color="#a7a7a7"/>
      <stop offset="0.6901960784313725" stop-color="#dfdbdc"/>
      <stop offset="1.0" stop-color="#332f30"/>
    </linearGradient>
    <linearGradient gradientTransform="matrix(0.0, -0.0033, 0.0012, 0.0, 0.85, 19.2)" gradientUnits="userSpaceOnUse" id="gradient8" spreadMethod="pad" x1="-819.2" x2="819.2">
      <stop offset="0.0" stop-color="#332f30"/>
      <stop offset="0.36470588235294116" stop-color="#dfdbdc"/>
      <stop offset="0.5176470588235295" stop-color="#a7a7a7"/>
      <stop offset="0.6901960784313725" stop-color="#dfdbdc"/>
      <stop offset="1.0" stop-color="#332f30"/>
    </linearGradient>
    <linearGradient gradientTransform="matrix(-0.0021, 0.0, 0.0, -0.0027, 0.75, 20.15)" gradientUnits="userSpaceOnUse" id="gradient9" spreadMethod="pad" x1="-819.2" x2="819.2">
      <stop offset="0.0" stop-color="#332f30"/>
      <stop offset="0.36470588235294116" stop-color="#dfdbdc"/>
      <stop offset="0.5176470588235295" stop-color="#a7a7a7"/>
      <stop offset="0.6901960784313725" stop-color="#dfdbdc"/>
      <stop offset="1.0" stop-color="#332f30"/>
    </linearGradient>
    <linearGradient gradientTransform="matrix(-0.0016, 0.0, 0.0, -0.0027, 0.75, 20.3)" gradientUnits="userSpaceOnUse" id="gradient10" spreadMethod="pad" x1="-819.2" x2="819.2">
      <stop offset="0.0" stop-color="#332f30"/>
      <stop offset="0.36470588235294116" stop-color="#dfdbdc"/>
      <stop offset="0.5176470588235295" stop-color="#a7a7a7"/>
      <stop offset="0.6901960784313725" stop-color="#dfdbdc"/>
      <stop offset="1.0" stop-color="#332f30"/>
    </linearGradient>
    <linearGradient gradientTransform="matrix(-0.0021, 0.0, 0.0, -0.0027, 0.75, 20.45)" gradientUnits="userSpaceOnUse" id="gradient11" spreadMethod="pad" x1="-819.2" x2="819.2">
      <stop offset="0.0" stop-color="#332f30"/>
      <stop offset="0.36470588235294116" stop-color="#dfdbdc"/>
      <stop offset="0.5176470588235295" stop-color="#a7a7a7"/>
      <stop offset="0.6901960784313725" stop-color="#dfdbdc"/>
      <stop offset="1.0" stop-color="#332f30"/>
    </linearGradient>
    <linearGradient gradientTransform="matrix(0.0, -0.0037, 0.0015, 0.0, -0.4, 21.7)" gradientUnits="userSpaceOnUse" id="gradient12" spreadMethod="pad" x1="-819.2" x2="819.2">
      <stop offset="0.0" stop-color="#332f30"/>
      <stop offset="0.36470588235294116" stop-color="#dfdbdc"/>
      <stop offset="0.5176470588235295" stop-color="#a7a7a7"/>
      <stop offset="0.6901960784313725" stop-color="#dfdbdc"/>
      <stop offset="1.0" stop-color="#332f30"/>
    </linearGradient>
    <linearGradient gradientTransform="matrix(-0.0016, 0.0, 0.0, -0.0018, 0.75, 24.05)" gradientUnits="userSpaceOnUse" id="gradient13" spreadMethod="pad" x1="-819.2" x2="819.2">
      <stop offset="0.0" stop-color="#332f30"/>
      <stop offset="0.36470588235294116" stop-color="#dfdbdc"/>
      <stop offset="0.5176470588235295" stop-color="#a7a7a7"/>
      <stop offset="0.6901960784313725" stop-color="#dfdbdc"/>
      <stop offset="1.0" stop-color="#332f30"/>
    </linearGradient>
    <linearGradient gradientTransform="matrix(-0.0021, 0.0, 0.0, -0.0018, 0.75, 24.15)" gradientUnits="userSpaceOnUse" id="gradient14" spreadMethod="pad" x1="-819.2" x2="819.2">
      <stop offset="0.0" stop-color="#332f30"/>
      <stop offset="0.36470588235294116" stop-color="#dfdbdc"/>
      <stop offset="0.5176470588235295" stop-color="#a7a7a7"/>
      <stop offset="0.6901960784313725" stop-color="#dfdbdc"/>
      <stop offset="1.0" stop-color="#332f30"/>
    </linearGradient>
    <linearGradient gradientTransform="matrix(0.0, -0.0025, 0.0015, 0.0, -0.4, 25.0)" gradientUnits="userSpaceOnUse" id="gradient15" spreadMethod="pad" x1="-819.2" x2="819.2">
      <stop offset="0.0" stop-color="#332f30"/>
      <stop offset="0.36470588235294116" stop-color="#dfdbdc"/>
      <stop offset="0.5176470588235295" stop-color="#a7a7a7"/>
      <stop offset="0.6901960784313725" stop-color="#dfdbdc"/>
      <stop offset="1.0" stop-color="#332f30"/>
    </linearGradient>
    <linearGradient gradientTransform="matrix(0.0, -0.0023, 0.0012, 0.0, 0.85, 23.3)" gradientUnits="userSpaceOnUse" id="gradient16" spreadMethod="pad" x1="-819.2" x2="819.2">
      <stop offset="0.0" stop-color="#332f30"/>
      <stop offset="0.36470588235294116" stop-color="#dfdbdc"/>
      <stop offset="0.5176470588235295" stop-color="#a7a7a7"/>
      <stop offset="0.6901960784313725" stop-color="#dfdbdc"/>
      <stop offset="1.0" stop-color="#332f30"/>
    </linearGradient>
    <linearGradient gradientTransform="matrix(-0.0021, 0.0, 0.0, -0.0019, 0.75, 23.95)" gradientUnits="userSpaceOnUse" id="gradient17" spreadMethod="pad" x1="-819.2" x2="819.2">
      <stop offset="0.0" stop-color="#332f30"/>
      <stop offset="0.36470588235294116" stop-color="#dfdbdc"/>
      <stop offset="0.5176470588235295" stop-color="#a7a7a7"/>
      <stop offset="0.6901960784313725" stop-color="#dfdbdc"/>
      <stop offset="1.0" stop-color="#332f30"/>
    </linearGradient>
    <linearGradient gradientTransform="matrix(0.0, -0.0073, 0.0011, -1.0E-4, 1.65, 12.35)" gradientUnits="userSpaceOnUse" id="gradient18" spreadMethod="pad" x1="-819.2" x2="819.2">
      <stop offset="0.0" stop-color="#332f30"/>
      <stop offset="0.36470588235294116" stop-color="#dfdbdc"/>
      <stop offset="0.5176470588235295" stop-color="#a7a7a7"/>
      <stop offset="0.6901960784313725" stop-color="#dfdbdc"/>
      <stop offset="1.0" stop-color="#332f30"/>
    </linearGradient>
    <linearGradient gradientTransform="matrix(-0.0016, 0.0, 0.0, -0.0053, 2.5, 9.85)" gradientUnits="userSpaceOnUse" id="gradient19" spreadMethod="pad" x1="-819.2" x2="819.2">
      <stop offset="0.0" stop-color="#332f30"/>
      <stop offset="0.36470588235294116" stop-color="#dfdbdc"/>
      <stop offset="0.5176470588235295" stop-color="#a7a7a7"/>
      <stop offset="0.6901960784313725" stop-color="#dfdbdc"/>
      <stop offset="1.0" stop-color="#332f30"/>
    </linearGradient>
    <linearGradient gradientTransform="matrix(-0.0016, 0.0, 0.0, -0.0054, 2.5, 9.35)" gradientUnits="userSpaceOnUse" id="gradient20" spreadMethod="pad" x1="-819.2" x2="819.2">
      <stop offset="0.0" stop-color="#332f30"/>
      <stop offset="0.36470588235294116" stop-color="#dfdbdc"/>
      <stop offset="0.5176470588235295" stop-color="#a7a7a7"/>
      <stop offset="0.6901960784313725" stop-color="#dfdbdc"/>
      <stop offset="1.0" stop-color="#332f30"/>
    </linearGradient>
    <linearGradient gradientTransform="matrix(-0.0012, 0.0, 0.0, -0.0053, 2.5, 9.6)" gradientUnits="userSpaceOnUse" id="gradient21" spreadMethod="pad" x1="-819.2" x2="819.2">
      <stop offset="0.0" stop-color="#332f30"/>
      <stop offset="0.36470588235294116" stop-color="#dfdbdc"/>
      <stop offset="0.5176470588235295" stop-color="#a7a7a7"/>
      <stop offset="0.6901960784313725" stop-color="#dfdbdc"/>
      <stop offset="1.0" stop-color="#332f30"/>
    </linearGradient>
    <linearGradient gradientTransform="matrix(0.0, -0.0066, 9.0E-4, 0.0, 2.6, 7.4)" gradientUnits="userSpaceOnUse" id="gradient22" spreadMethod="pad" x1="-819.2" x2="819.2">
      <stop offset="0.0" stop-color="#332f30"/>
      <stop offset="0.36470588235294116" stop-color="#dfdbdc"/>
      <stop offset="0.5176470588235295" stop-color="#a7a7a7"/>
      <stop offset="0.6901960784313725" stop-color="#dfdbdc"/>
      <stop offset="1.0" stop-color="#332f30"/>
    </linearGradient>
    <linearGradient gradientTransform="matrix(-0.0016, 0.0, 0.0, -0.0054, -1.3, 9.35)" gradientUnits="userSpaceOnUse" id="gradient23" spreadMethod="pad" x1="-819.2" x2="819.2">
      <stop offset="0.0" stop-color="#332f30"/>
      <stop offset="0.36470588235294116" stop-color="#dfdbdc"/>
      <stop offset="0.5176470588235295" stop-color="#a7a7a7"/>
      <stop offset="0.6901960784313725" stop-color="#dfdbdc"/>
      <stop offset="1.0" stop-color="#332f30"/>
    </linearGradient>
    <linearGradient gradientTransform="matrix(-0.0012, 0.0, 0.0, -0.0053, -1.3, 9.6)" gradientUnits="userSpaceOnUse" id="gradient24" spreadMethod="pad" x1="-819.2" x2="819.2">
      <stop offset="0.0" stop-color="#332f30"/>
      <stop offset="0.36470588235294116" stop-color="#dfdbdc"/>
      <stop offset="0.5176470588235295" stop-color="#a7a7a7"/>
      <stop offset="0.6901960784313725" stop-color="#dfdbdc"/>
      <stop offset="1.0" stop-color="#332f30"/>
    </linearGradient>
    <linearGradient gradientTransform="matrix(-0.0016, 0.0, 0.0, -0.0053, -1.3, 9.85)" gradientUnits="userSpaceOnUse" id="gradient25" spreadMethod="pad" x1="-819.2" x2="819.2">
      <stop offset="0.0" stop-color="#332f30"/>
      <stop offset="0.36470588235294116" stop-color="#dfdbdc"/>
      <stop offset="0.5176470588235295" stop-color="#a7a7a7"/>
      <stop offset="0.6901960784313725" stop-color="#dfdbdc"/>
      <stop offset="1.0" stop-color="#332f30"/>
    </linearGradient>
    <linearGradient gradientTransform="matrix(0.0, -0.0073, 0.0011, -1.0E-4, -2.15, 12.35)" gradientUnits="userSpaceOnUse" id="gradient26" spreadMethod="pad" x1="-819.2" x2="819.2">
      <stop offset="0.0" stop-color="#332f30"/>
      <stop offset="0.36470588235294116" stop-color="#dfdbdc"/>
      <stop offset="0.5176470588235295" stop-color="#a7a7a7"/>
      <stop offset="0.6901960784313725" stop-color="#dfdbdc"/>
      <stop offset="1.0" stop-color="#332f30"/>
    </linearGradient>
    <linearGradient gradientTransform="matrix(0.0, -0.0066, 9.0E-4, 0.0, -1.2, 7.4)" gradientUnits="userSpaceOnUse" id="gradient27" spreadMethod="pad" x1="-819.2" x2="819.2">
      <stop offset="0.0" stop-color="#332f30"/>
      <stop offset="0.36470588235294116" stop-color="#dfdbdc"/>
      <stop offset="0.5176470588235295" stop-color="#a7a7a7"/>
      <stop offset="0.6901960784313725" stop-color="#dfdbdc"/>
      <stop offset="1.0" stop-color="#332f30"/>
    </linearGradient>
    <linearGradient gradientTransform="matrix(2.0E-4, 0.0089, 0.0092, -2.0E-4, -10.4, -20.7)" gradientUnits="userSpaceOnUse" id="gradient28" spreadMethod="pad" x1="-819.2" x2="819.2">
      <stop offset="0.00784313725490196" stop-color="#e21414"/>
      <stop offset="0.8156862745098039" stop-color="#6f1209"/>
      <stop offset="0.9882352941176471" stop-color="#d62121"/>
    </linearGradient>
    <linearGradient gradientTransform="matrix(-2.0E-4, 0.0089, -0.0092, -2.0E-4, 10.8, -20.7)" gradientUnits="userSpaceOnUse" id="gradient29" spreadMethod="pad" x1="-819.2" x2="819.2">
      <stop offset="0.00784313725490196" stop-color="#e21414"/>
      <stop offset="0.8156862745098039" stop-color="#6f1209"/>
      <stop offset="0.9882352941176471" stop-color="#d62121"/>
    </linearGradient>
    <linearGradient gradientTransform="matrix(1.0E-4, -0.0069, 0.0122, 1.0E-4, 0.7, -20.7)" gradientUnits="userSpaceOnUse" id="gradient30" spreadMethod="pad" x1="-819.2" x2="819.2">
      <stop offset="0.00784313725490196" stop-color="#e21414"/>
      <stop offset="0.8156862745098039" stop-color="#6f1209"/>
      <stop offset="0.9882352941176471" stop-color="#d62121"/>
    </linearGradient>
    <radialGradient cx="0" cy="0" gradientTransform="matrix(-0.0046, 0.0, 0.0, -0.0032, 8.25, -28.25)" gradientUnits="userSpaceOnUse" id="gradient31" r="819.2" spreadMethod="pad">
      <stop offset="0.0" stop-color="#ffffff"/>
      <stop offset="1.0" stop-color="#ffffff" stop-opacity="0.0"/>
    </radialGradient>
    <radialGradient cx="0" cy="0" gradientTransform="matrix(0.0046, 0.0, 0.0, -0.0032, -7.95, -28.25)" gradientUnits="userSpaceOnUse" id="gradient32" r="819.2" spreadMethod="pad">
      <stop offset="0.0" stop-color="#ffffff"/>
      <stop offset="1.0" stop-color="#ffffff" stop-opacity="0.0"/>
    </radialGradient>
  </defs>
</svg>
