<?xml version="1.0" encoding="UTF-8" standalone="no"?>
<svg xmlns:xlink="http://www.w3.org/1999/xlink" height="34.0px" width="33.1px" xmlns="http://www.w3.org/2000/svg">
  <g transform="matrix(1, 0, 0, 1, -2.4, -31.05)">
    <path d="M6.85 61.65 L6.85 62.4 30.85 62.4 30.85 61.65 31.9 61.65 31.9 65.05 5.9 65.05 5.9 61.65 6.85 61.65" fill="#771209" fill-rule="evenodd" stroke="none"/>
    <path d="M35.35 32.1 L35.35 46.2 30.2 46.2 30.2 32.1 35.35 32.1" fill="#cccccc" fill-rule="evenodd" stroke="none"/>
    <path d="M34.8 33.6 L34.8 44.7 30.75 44.7 30.75 33.6 34.8 33.6" fill="#ffffff" fill-rule="evenodd" stroke="none"/>
    <path d="M7.55 32.1 L7.55 46.2 2.4 46.2 2.4 32.1 7.55 32.1" fill="#cccccc" fill-rule="evenodd" stroke="none"/>
    <path d="M7.0 33.6 L7.0 44.7 2.95 44.7 2.95 33.6 7.0 33.6" fill="#ffffff" fill-rule="evenodd" stroke="none"/>
    <path d="M25.85 55.3 L25.85 47.4 25.95 46.55 26.1 46.3 26.3 46.25 26.8 46.2 32.3 46.2 32.8 46.3 32.9 46.4 32.9 46.45 33.05 46.95 33.05 55.3 25.85 55.3" fill="#dfdfdf" fill-rule="evenodd" stroke="none"/>
    <path d="M25.85 55.3 L33.05 55.3 33.05 61.55 32.9 61.75 32.65 61.85 32.55 61.9 26.15 61.9 26.05 61.85 25.95 61.65 25.85 61.3 25.85 55.3" fill="url(#gradient0)" fill-rule="evenodd" stroke="none"/>
    <path d="M25.7 58.0 L25.7 57.75 31.55 57.75 Q32.6 58.65 31.55 58.95 L30.7 58.95 30.7 58.3 28.4 58.3 28.4 58.0 25.7 58.0" fill="#ea7051" fill-rule="evenodd" stroke="none"/>
    <path d="M28.4 58.3 L30.7 58.3 30.7 58.95 28.4 58.95 28.4 58.3" fill="#f19f8b" fill-rule="evenodd" stroke="none"/>
    <path d="M25.7 58.0 L28.4 58.0 28.4 58.3 28.4 58.95 25.7 58.95 25.7 58.0" fill="#ffffff" fill-rule="evenodd" stroke="none"/>
    <path d="M4.65 55.15 L4.65 46.65 4.95 46.25 5.4 46.2 11.4 46.2 11.7 46.3 11.75 46.4 11.85 46.55 11.9 47.05 11.9 55.15 4.65 55.15" fill="#dfdfdf" fill-rule="evenodd" stroke="none"/>
    <path d="M4.65 55.15 L11.9 55.15 11.9 61.35 11.8 61.6 11.75 61.7 11.3 61.9 5.6 61.9 5.4 61.85 4.9 61.75 4.85 61.7 4.65 60.95 4.65 55.15" fill="url(#gradient1)" fill-rule="evenodd" stroke="none"/>
    <path d="M6.9 58.95 L6.1 58.95 Q5.05 58.65 6.1 57.75 L11.95 57.75 11.95 58.0 9.25 58.0 9.25 58.3 6.9 58.3 6.9 58.95" fill="#ea7051" fill-rule="evenodd" stroke="none"/>
    <path d="M11.95 58.0 L11.95 58.95 9.25 58.95 9.25 58.3 9.25 58.0 11.95 58.0" fill="#ffffff" fill-rule="evenodd" stroke="none"/>
    <path d="M9.25 58.95 L6.9 58.95 6.9 58.3 9.25 58.3 9.25 58.95" fill="#f19f8b" fill-rule="evenodd" stroke="none"/>
    <path d="M9.6 61.2 L7.05 61.2 7.05 60.05 9.6 60.05 9.6 61.2" fill="#ff9900" fill-rule="evenodd" stroke="none"/>
    <path d="M7.05 61.2 L9.6 61.2 9.6 63.35 7.05 63.35 7.05 61.2" fill="#ffff99" fill-rule="evenodd" stroke="none"/>
    <path d="M30.65 61.2 L30.65 63.35 28.2 63.35 28.2 61.2 30.65 61.2" fill="#ffff99" fill-rule="evenodd" stroke="none"/>
    <path d="M28.2 61.2 L28.2 60.05 30.65 60.05 30.65 61.2 28.2 61.2" fill="#ff9900" fill-rule="evenodd" stroke="none"/>
    <path d="M8.8 48.55 L11.9 60.65 25.35 60.65 28.5 48.55 17.95 49.0 8.8 48.55 M11.7 61.45 L10.15 61.35 7.35 47.55 30.15 47.55 27.2 61.35 25.7 61.45 25.7 61.15 11.7 61.15 11.7 61.45" fill="#cccccc" fill-rule="evenodd" stroke="none"/>
    <path d="M8.8 48.55 L17.95 49.0 28.5 48.55 25.35 60.65 11.9 60.65 8.8 48.55" fill="url(#gradient2)" fill-rule="evenodd" stroke="none"/>
    <path d="M25.7 61.45 L25.7 62.0 11.7 62.0 11.7 61.45 11.7 61.15 25.7 61.15 25.7 61.45" fill="#8d7e58" fill-rule="evenodd" stroke="none"/>
    <path d="M25.7 62.0 L25.7 62.4 17.65 62.65 17.65 62.55 11.7 62.4 11.7 62.0 25.7 62.0" fill="#2c3023" fill-rule="evenodd" stroke="none"/>
    <path d="M10.35 61.65 L9.8 59.1 10.8 59.0 Q12.35 59.0 13.4 59.7 14.45 60.5 14.45 61.55 L14.45 61.65 10.35 61.65" fill="url(#gradient3)" fill-rule="evenodd" stroke="none"/>
    <path d="M27.45 61.65 L23.35 61.65 23.35 61.55 Q23.35 60.5 24.4 59.7 25.45 59.0 27.0 59.0 L28.0 59.1 27.45 61.65" fill="url(#gradient4)" fill-rule="evenodd" stroke="none"/>
    <path d="M5.4 41.45 Q5.1 36.85 5.95 32.55 L31.8 32.55 Q32.75 37.0 32.4 41.45 L5.4 41.45" fill="#ffffff" fill-rule="evenodd" stroke="none"/>
    <path d="M32.4 41.45 Q32.75 37.0 31.8 32.55 L5.95 32.55 Q5.1 36.85 5.4 41.45 L5.45 42.15 Q5.75 46.05 6.4 50.1 L31.25 50.1 Q32.0 46.2 32.3 42.15 L32.4 41.45 M3.75 31.05 L34.05 31.05 Q34.3 36.3 34.0 41.45 L32.95 50.1 32.7 51.35 5.05 51.35 4.8 50.1 Q4.0 45.8 3.75 41.45 3.4 36.3 3.75 31.05" fill="#dfdfdf" fill-rule="evenodd" stroke="none"/>
    <path d="M5.4 41.45 L32.4 41.45 32.3 42.15 Q32.0 46.2 31.25 50.1 L6.4 50.1 Q5.75 46.05 5.45 42.15 L5.4 41.45" fill="#9d110b" fill-rule="evenodd" stroke="none"/>
    <path d="M18.4 44.25 L19.4 44.25 19.4 46.55 19.4 51.1 19.4 52.1 19.4 52.95 18.4 52.95 18.4 52.1 18.4 50.05 18.4 46.55 18.4 44.25" fill="#771209" fill-rule="evenodd" stroke="none"/>
    <path d="M18.4 44.25 L18.4 46.55 11.6 46.55 6.65 46.55 6.65 52.1 12.65 52.1 18.4 52.1 18.4 52.95 5.05 52.95 5.05 44.25 18.4 44.25 M19.4 52.95 L19.4 52.1 19.5 52.1 23.0 52.1 27.7 52.1 31.0 52.1 31.0 46.55 26.65 46.55 21.9 46.55 19.4 46.55 19.4 44.25 32.65 44.25 32.65 52.95 19.4 52.95" fill="#333333" fill-rule="evenodd" stroke="none"/>
    <path d="M18.4 46.55 L18.4 50.05 12.25 50.05 11.6 46.55 18.4 46.55 M27.7 52.1 L23.0 52.1 22.55 50.05 27.35 50.05 27.7 52.1" fill="#cccccc" fill-rule="evenodd" stroke="none"/>
    <path d="M19.4 51.1 L19.4 46.55 21.9 46.55 22.55 50.05 23.0 52.1 19.5 52.1 19.4 51.1 M12.65 52.1 L6.65 52.1 6.65 46.55 11.6 46.55 12.25 50.05 12.65 52.1 M26.65 46.55 L31.0 46.55 31.0 52.1 27.7 52.1 27.35 50.05 26.65 46.55" fill="#666666" fill-rule="evenodd" stroke="none"/>
    <path d="M18.4 50.05 L18.4 52.1 12.65 52.1 12.25 50.05 18.4 50.05 M19.4 52.1 L19.4 51.1 19.5 52.1 19.4 52.1 M21.9 46.55 L26.65 46.55 27.35 50.05 22.55 50.05 21.9 46.55" fill="#999999" fill-rule="evenodd" stroke="none"/>
    <path d="M14.5 42.1 L13.35 39.7 15.3 39.7 16.45 42.1 14.5 42.1" fill="#e4e4e4" fill-rule="evenodd" stroke="none"/>
    <path d="M12.9 42.15 L11.75 39.75 13.65 39.75 14.8 42.15 12.9 42.15" fill="#bc100d" fill-rule="evenodd" stroke="none"/>
    <path d="M10.95 42.1 L9.8 39.7 11.75 39.7 12.9 42.1 10.95 42.1" fill="#e4e4e4" fill-rule="evenodd" stroke="none"/>
    <path d="M9.15 42.15 L8.0 39.75 9.9 39.75 11.05 42.15 9.15 42.15" fill="#bc100d" fill-rule="evenodd" stroke="none"/>
    <path d="M7.15 42.1 L6.0 39.7 7.95 39.7 9.1 42.1 7.15 42.1" fill="#e4e4e4" fill-rule="evenodd" stroke="none"/>
    <path d="M5.6 42.15 L4.45 39.75 6.35 39.75 7.5 42.15 5.6 42.15" fill="#bc100d" fill-rule="evenodd" stroke="none"/>
    <path d="M3.65 42.1 L2.5 39.7 4.45 39.7 5.6 42.1 3.65 42.1" fill="#e4e4e4" fill-rule="evenodd" stroke="none"/>
    <path d="M25.85 42.1 L24.7 39.7 26.65 39.7 27.8 42.1 25.85 42.1" fill="#e4e4e4" fill-rule="evenodd" stroke="none"/>
    <path d="M24.25 42.15 L23.1 39.75 25.0 39.75 26.15 42.15 24.25 42.15" fill="#bc100d" fill-rule="evenodd" stroke="none"/>
    <path d="M22.3 42.1 L21.15 39.7 23.1 39.7 24.25 42.1 22.3 42.1" fill="#e4e4e4" fill-rule="evenodd" stroke="none"/>
    <path d="M20.5 42.15 L19.35 39.75 21.25 39.75 22.4 42.15 20.5 42.15" fill="#bc100d" fill-rule="evenodd" stroke="none"/>
    <path d="M18.5 42.1 L17.35 39.7 19.3 39.7 20.45 42.1 18.5 42.1" fill="#e4e4e4" fill-rule="evenodd" stroke="none"/>
    <path d="M16.95 42.15 L15.8 39.75 17.7 39.75 18.85 42.15 16.95 42.15" fill="#bc100d" fill-rule="evenodd" stroke="none"/>
    <path d="M15.0 42.1 L13.85 39.7 15.8 39.7 16.95 42.1 15.0 42.1" fill="#e4e4e4" fill-rule="evenodd" stroke="none"/>
    <path d="M33.55 42.1 L32.4 39.7 34.35 39.7 35.5 42.1 33.55 42.1" fill="#e4e4e4" fill-rule="evenodd" stroke="none"/>
    <path d="M31.75 42.15 L30.6 39.75 32.5 39.75 33.65 42.15 31.75 42.15" fill="#bc100d" fill-rule="evenodd" stroke="none"/>
    <path d="M29.8 42.1 L28.65 39.7 30.6 39.7 31.75 42.1 29.8 42.1" fill="#e4e4e4" fill-rule="evenodd" stroke="none"/>
    <path d="M28.2 42.15 L27.05 39.75 28.95 39.75 30.1 42.15 28.2 42.15" fill="#bc100d" fill-rule="evenodd" stroke="none"/>
    <path d="M26.25 42.1 L25.1 39.7 27.05 39.7 28.2 42.1 26.25 42.1" fill="#e4e4e4" fill-rule="evenodd" stroke="none"/>
  </g>
  <defs>
    <linearGradient gradientTransform="matrix(-2.0E-4, -0.0089, -0.0092, 2.0E-4, 29.45, 54.0)" gradientUnits="userSpaceOnUse" id="gradient0" spreadMethod="pad" x1="-819.2" x2="819.2">
      <stop offset="0.00784313725490196" stop-color="#e21414"/>
      <stop offset="0.8156862745098039" stop-color="#6f1209"/>
      <stop offset="0.9882352941176471" stop-color="#d62121"/>
    </linearGradient>
    <linearGradient gradientTransform="matrix(2.0E-4, -0.0089, 0.0092, 2.0E-4, 8.25, 54.0)" gradientUnits="userSpaceOnUse" id="gradient1" spreadMethod="pad" x1="-819.2" x2="819.2">
      <stop offset="0.00784313725490196" stop-color="#e21414"/>
      <stop offset="0.8156862745098039" stop-color="#6f1209"/>
      <stop offset="0.9882352941176471" stop-color="#d62121"/>
    </linearGradient>
    <linearGradient gradientTransform="matrix(-1.0E-4, 0.0069, -0.0122, -1.0E-4, 18.35, 54.0)" gradientUnits="userSpaceOnUse" id="gradient2" spreadMethod="pad" x1="-819.2" x2="819.2">
      <stop offset="0.00784313725490196" stop-color="#e21414"/>
      <stop offset="0.8156862745098039" stop-color="#6f1209"/>
      <stop offset="0.9882352941176471" stop-color="#d62121"/>
    </linearGradient>
    <radialGradient cx="0" cy="0" gradientTransform="matrix(0.0046, 0.0, 0.0, 0.0032, 10.8, 61.55)" gradientUnits="userSpaceOnUse" id="gradient3" r="819.2" spreadMethod="pad">
      <stop offset="0.0" stop-color="#ffffff"/>
      <stop offset="1.0" stop-color="#ffffff" stop-opacity="0.0"/>
    </radialGradient>
    <radialGradient cx="0" cy="0" gradientTransform="matrix(-0.0046, 0.0, 0.0, 0.0032, 27.0, 61.55)" gradientUnits="userSpaceOnUse" id="gradient4" r="819.2" spreadMethod="pad">
      <stop offset="0.0" stop-color="#ffffff"/>
      <stop offset="1.0" stop-color="#ffffff" stop-opacity="0.0"/>
    </radialGradient>
  </defs>
</svg>
