<?xml version="1.0" encoding="UTF-8" standalone="no"?>
<svg xmlns:xlink="http://www.w3.org/1999/xlink" height="61.35px" width="33.05px" xmlns="http://www.w3.org/2000/svg">
  <g transform="matrix(1, 0, 0, 1, 0.1, -1.45)">
    <path d="M32.85 2.9 L0.1 2.9 0.1 1.45 32.85 1.45 32.85 2.9" fill="#797576" fill-rule="evenodd" stroke="none"/>
    <path d="M32.85 2.9 L32.85 3.8 0.1 3.8 0.1 2.9 32.85 2.9" fill="#a7a7a7" fill-rule="evenodd" stroke="none"/>
    <path d="M29.85 54.65 L29.85 55.75 4.2 55.75 4.2 54.65 29.85 54.65" fill="#5b5758" fill-rule="evenodd" stroke="none"/>
    <path d="M4.2 54.65 L4.2 52.05 29.85 52.05 29.85 54.65 4.2 54.65" fill="#262425" fill-rule="evenodd" stroke="none"/>
    <path d="M0.2 52.55 L32.9 52.55 32.9 53.45 0.2 53.45 0.2 52.55" fill="#a7a7a7" fill-rule="evenodd" stroke="none"/>
    <path d="M0.2 52.55 L0.2 51.1 32.9 51.1 32.9 52.55 0.2 52.55" fill="#797576" fill-rule="evenodd" stroke="none"/>
    <path d="M29.25 45.75 L29.25 46.5 3.6 46.5 3.6 45.75 29.25 45.75" fill="#5b5758" fill-rule="evenodd" stroke="none"/>
    <path d="M3.6 45.75 L3.6 43.95 29.25 43.95 29.25 45.75 3.6 45.75" fill="#262425" fill-rule="evenodd" stroke="none"/>
    <path d="M29.85 20.95 L29.85 21.7 4.2 21.7 4.2 20.95 29.85 20.95" fill="#5b5758" fill-rule="evenodd" stroke="none"/>
    <path d="M4.2 20.95 L4.2 19.15 29.85 19.15 29.85 20.95 4.2 20.95" fill="#262425" fill-rule="evenodd" stroke="none"/>
    <path d="M24.2 19.2 L9.5 19.2 9.5 18.2 24.2 18.2 24.2 19.2" fill="#5b5758" fill-rule="evenodd" stroke="none"/>
    <path d="M24.2 19.2 L24.2 21.55 9.5 21.55 9.5 19.2 24.2 19.2" fill="#a7a7a7" fill-rule="evenodd" stroke="none"/>
    <path d="M23.7 19.0 L23.7 51.15 22.4 51.15 22.4 19.0 23.7 19.0" fill="#a7a7a7" fill-rule="evenodd" stroke="none"/>
    <path d="M23.7 19.0 L24.2 19.0 24.2 51.15 23.7 51.15 23.7 19.0" fill="#5b5758" fill-rule="evenodd" stroke="none"/>
    <path d="M9.95 51.15 L9.45 51.15 9.45 19.0 9.95 19.0 9.95 51.15" fill="#5b5758" fill-rule="evenodd" stroke="none"/>
    <path d="M9.95 19.0 L11.25 19.0 11.25 51.15 9.95 51.15 9.95 19.0" fill="#a7a7a7" fill-rule="evenodd" stroke="none"/>
    <path d="M11.9 49.8 L11.9 45.25 11.3 45.25 11.3 44.15 11.9 44.15 11.9 42.25 21.85 42.25 21.85 44.15 22.5 44.15 22.5 45.25 21.85 45.25 21.85 49.8 11.9 49.8 M15.05 44.15 L15.05 45.25 18.3 45.25 18.3 44.15 15.05 44.15" fill="url(#gradient0)" fill-rule="evenodd" stroke="none"/>
    <path d="M15.05 44.15 L18.3 44.15 18.3 45.25 15.05 45.25 15.05 44.15 M11.3 45.25 L11.9 45.25 11.9 49.8 11.3 49.8 11.3 45.25 M21.85 49.8 L21.85 45.25 22.5 45.25 22.5 49.8 21.85 49.8 M22.5 44.15 L21.85 44.15 21.85 42.25 11.9 42.25 11.9 44.15 11.3 44.15 11.3 41.55 22.5 41.55 22.5 44.15" fill="#5a5657" fill-rule="evenodd" stroke="none"/>
    <path d="M11.9 49.8 L21.85 49.8 22.5 49.8 22.5 51.15 11.3 51.15 11.3 49.8 11.9 49.8" fill="#3f3b3c" fill-rule="evenodd" stroke="none"/>
    <path d="M10.95 28.95 L11.55 28.95 11.55 27.25 21.55 27.25 21.55 28.95 22.25 28.95 22.25 29.9 21.55 29.9 21.55 33.9 11.55 33.9 11.55 29.9 10.95 29.9 10.95 28.95 M18.0 29.9 L18.0 28.95 14.7 28.95 14.7 29.9 18.0 29.9" fill="url(#gradient1)" fill-rule="evenodd" stroke="none"/>
    <path d="M18.0 29.9 L14.7 29.9 14.7 28.95 18.0 28.95 18.0 29.9 M22.25 28.95 L21.55 28.95 21.55 27.25 11.55 27.25 11.55 28.95 10.95 28.95 10.95 26.6 22.25 26.6 22.25 28.95 M10.95 29.9 L11.55 29.9 11.55 33.9 10.95 33.9 10.95 29.9 M21.55 33.9 L21.55 29.9 22.25 29.9 22.25 33.9 21.55 33.9" fill="#5a5657" fill-rule="evenodd" stroke="none"/>
    <path d="M11.55 33.9 L21.55 33.9 22.25 33.9 22.25 35.15 10.95 35.15 10.95 33.9 11.55 33.9" fill="#3f3b3c" fill-rule="evenodd" stroke="none"/>
    <path d="M11.2 23.15 L11.2 21.5 22.45 21.5 22.45 23.15 21.75 23.15 21.75 21.95 11.8 21.95 11.8 23.15 11.2 23.15 M22.45 23.85 L22.45 26.7 21.75 26.7 21.75 23.85 22.45 23.85 M11.2 26.7 L11.2 23.85 11.8 23.85 11.8 26.7 11.2 26.7" fill="#5a5657" fill-rule="evenodd" stroke="none"/>
    <path d="M22.45 23.15 L22.45 23.85 21.75 23.85 18.2 23.85 18.2 23.15 21.75 23.15 22.45 23.15 M22.45 26.7 L22.45 27.55 11.2 27.55 11.2 26.7 11.8 26.7 21.75 26.7 22.45 26.7 M11.2 23.85 L11.2 23.15 11.8 23.15 14.9 23.15 14.9 23.85 11.8 23.85 11.2 23.85" fill="#3f3b3c" fill-rule="evenodd" stroke="none"/>
    <path d="M11.8 23.15 L11.8 21.95 21.75 21.95 21.75 23.15 18.2 23.15 14.9 23.15 11.8 23.15 M11.8 23.85 L14.9 23.85 18.2 23.85 21.75 23.85 21.75 26.7 11.8 26.7 11.8 23.85" fill="url(#gradient2)" fill-rule="evenodd" stroke="none"/>
    <path d="M14.9 23.15 L18.2 23.15 18.2 23.85 14.9 23.85 14.9 23.15" fill="#b2aeaf" fill-rule="evenodd" stroke="none"/>
    <path d="M23.0 41.95 L23.0 42.55 10.4 42.55 10.4 41.95 23.0 41.95" fill="url(#gradient3)" fill-rule="evenodd" stroke="none"/>
    <path d="M10.4 41.95 L10.4 40.05 23.0 40.05 23.0 41.95 10.4 41.95" fill="url(#gradient4)" fill-rule="evenodd" stroke="none"/>
    <path d="M10.4 40.05 L10.4 38.15 23.0 38.15 23.0 40.05 10.4 40.05" fill="url(#gradient5)" fill-rule="evenodd" stroke="none"/>
    <path d="M10.4 38.15 L10.4 36.05 23.0 36.05 23.0 38.15 10.4 38.15" fill="url(#gradient6)" fill-rule="evenodd" stroke="none"/>
    <path d="M10.4 36.05 L10.4 35.45 23.0 35.45 23.0 36.05 10.4 36.05" fill="url(#gradient7)" fill-rule="evenodd" stroke="none"/>
    <path d="M14.8 30.55 L14.8 30.15 18.55 30.15 18.55 30.55 14.8 30.55" fill="url(#gradient8)" fill-rule="evenodd" stroke="none"/>
    <path d="M18.55 31.9 L18.55 33.15 14.8 33.15 14.8 31.9 18.55 31.9" fill="url(#gradient9)" fill-rule="evenodd" stroke="none"/>
    <path d="M18.55 33.15 L18.55 34.35 14.8 34.35 14.8 33.15 18.55 33.15" fill="url(#gradient10)" fill-rule="evenodd" stroke="none"/>
    <path d="M18.55 34.35 L18.55 34.75 14.8 34.75 14.8 34.35 18.55 34.35" fill="url(#gradient11)" fill-rule="evenodd" stroke="none"/>
    <path d="M18.55 30.55 L18.55 31.9 14.8 31.9 14.8 30.55 18.55 30.55" fill="url(#gradient12)" fill-rule="evenodd" stroke="none"/>
    <path d="M14.8 26.1 L14.8 25.85 18.55 25.85 18.55 26.1 14.8 26.1" fill="url(#gradient13)" fill-rule="evenodd" stroke="none"/>
    <path d="M18.55 26.1 L18.55 27.05 14.8 27.05 14.8 26.1 18.55 26.1" fill="url(#gradient14)" fill-rule="evenodd" stroke="none"/>
    <path d="M18.55 27.05 L18.55 27.85 14.8 27.85 14.8 27.05 18.55 27.05" fill="url(#gradient15)" fill-rule="evenodd" stroke="none"/>
    <path d="M18.55 27.85 L18.55 28.7 14.8 28.7 14.8 27.85 18.55 27.85" fill="url(#gradient16)" fill-rule="evenodd" stroke="none"/>
    <path d="M18.55 28.7 L18.55 28.95 14.8 28.95 14.8 28.7 18.55 28.7" fill="url(#gradient17)" fill-rule="evenodd" stroke="none"/>
    <path d="M12.85 43.1 L12.85 42.35 15.65 42.35 15.65 43.1 12.85 43.1" fill="url(#gradient18)" fill-rule="evenodd" stroke="none"/>
    <path d="M15.65 45.8 L15.65 48.2 12.85 48.2 12.85 45.8 15.65 45.8" fill="url(#gradient19)" fill-rule="evenodd" stroke="none"/>
    <path d="M15.65 43.1 L15.65 45.8 12.85 45.8 12.85 43.1 15.65 43.1" fill="url(#gradient20)" fill-rule="evenodd" stroke="none"/>
    <path d="M15.65 48.2 L15.65 50.6 12.85 50.6 12.85 48.2 15.65 48.2" fill="url(#gradient21)" fill-rule="evenodd" stroke="none"/>
    <path d="M15.65 50.6 L15.65 51.4 12.85 51.4 12.85 50.6 15.65 50.6" fill="url(#gradient22)" fill-rule="evenodd" stroke="none"/>
    <path d="M16.9 43.1 L16.9 42.35 19.7 42.35 19.7 43.1 16.9 43.1" fill="url(#gradient23)" fill-rule="evenodd" stroke="none"/>
    <path d="M19.7 43.1 L19.7 45.8 16.9 45.8 16.9 43.1 19.7 43.1" fill="url(#gradient24)" fill-rule="evenodd" stroke="none"/>
    <path d="M19.7 48.2 L19.7 50.6 16.9 50.6 16.9 48.2 19.7 48.2" fill="url(#gradient25)" fill-rule="evenodd" stroke="none"/>
    <path d="M19.7 45.8 L19.7 48.2 16.9 48.2 16.9 45.8 19.7 45.8" fill="url(#gradient26)" fill-rule="evenodd" stroke="none"/>
    <path d="M19.7 50.6 L19.7 51.4 16.9 51.4 16.9 50.6 19.7 50.6" fill="url(#gradient27)" fill-rule="evenodd" stroke="none"/>
    <path d="M32.85 11.0 L32.85 29.6 27.7 29.6 27.7 11.0 32.85 11.0" fill="#cccccc" fill-rule="evenodd" stroke="none"/>
    <path d="M32.3 13.0 L32.3 27.6 28.25 27.6 28.25 13.0 32.3 13.0" fill="#ffffff" fill-rule="evenodd" stroke="none"/>
    <path d="M5.05 29.6 L-0.1 29.6 -0.1 11.0 5.05 11.0 5.05 29.6" fill="#cccccc" fill-rule="evenodd" stroke="none"/>
    <path d="M4.5 13.0 L4.5 27.6 0.45 27.6 0.45 13.0 4.5 13.0" fill="#ffffff" fill-rule="evenodd" stroke="none"/>
    <path d="M1.5 48.95 L5.4 48.95 5.4 40.9 1.5 40.9 1.5 4.15 30.9 4.15 30.9 41.1 26.55 41.1 26.6 48.95 30.9 49.15 30.9 62.15 1.5 62.15 1.5 48.95" fill="url(#gradient28)" fill-rule="evenodd" stroke="none"/>
    <path d="M31.1 60.95 L31.1 62.8 1.45 62.8 1.45 60.95 31.1 60.95" fill="#5b5758" fill-rule="evenodd" stroke="none"/>
    <path d="M1.45 60.95 L1.45 56.45 31.1 56.45 31.1 60.95 1.45 60.95" fill="#262425" fill-rule="evenodd" stroke="none"/>
    <path d="M32.65 55.1 L-0.05 55.1 -0.05 50.65 32.65 50.65 32.65 55.1" fill="#797576" fill-rule="evenodd" stroke="none"/>
    <path d="M32.65 55.1 L32.65 57.8 -0.05 57.8 -0.05 55.1 32.65 55.1" fill="#a7a7a7" fill-rule="evenodd" stroke="none"/>
    <path d="M1.4 50.05 L1.4 48.25 31.0 48.25 31.0 50.05 1.4 50.05" fill="#262425" fill-rule="evenodd" stroke="none"/>
    <path d="M31.0 50.05 L31.0 50.8 1.4 50.8 1.4 50.05 31.0 50.05" fill="#5b5758" fill-rule="evenodd" stroke="none"/>
    <path d="M30.9 41.95 L30.9 42.7 1.45 42.7 1.45 41.95 30.9 41.95" fill="#5b5758" fill-rule="evenodd" stroke="none"/>
    <path d="M1.45 41.95 L1.45 40.15 30.9 40.15 30.9 41.95 1.45 41.95" fill="#262425" fill-rule="evenodd" stroke="none"/>
    <path d="M11.95 5.25 L10.8 3.45 12.75 3.45 13.9 5.25 11.95 5.25" fill="#e4e4e4" fill-rule="evenodd" stroke="none"/>
    <path d="M10.35 5.25 L9.2 3.45 11.1 3.45 12.25 5.25 10.35 5.25" fill="#bc100d" fill-rule="evenodd" stroke="none"/>
    <path d="M8.4 5.25 L7.25 3.45 9.2 3.45 10.35 5.25 8.4 5.25" fill="#e4e4e4" fill-rule="evenodd" stroke="none"/>
    <path d="M6.6 5.25 L5.45 3.45 7.35 3.45 8.5 5.25 6.6 5.25" fill="#bc100d" fill-rule="evenodd" stroke="none"/>
    <path d="M4.6 5.25 L3.45 3.45 5.4 3.45 6.55 5.25 4.6 5.25" fill="#e4e4e4" fill-rule="evenodd" stroke="none"/>
    <path d="M3.05 5.25 L1.9 3.45 3.8 3.45 4.95 5.25 3.05 5.25" fill="#bc100d" fill-rule="evenodd" stroke="none"/>
    <path d="M1.9 3.45 L3.05 5.25 1.1 5.25 -0.05 3.45 1.9 3.45" fill="#e4e4e4" fill-rule="evenodd" stroke="none"/>
    <path d="M23.3 5.25 L22.15 3.45 24.1 3.45 25.25 5.25 23.3 5.25" fill="#e4e4e4" fill-rule="evenodd" stroke="none"/>
    <path d="M21.7 5.25 L20.55 3.45 22.45 3.45 23.6 5.25 21.7 5.25" fill="#bc100d" fill-rule="evenodd" stroke="none"/>
    <path d="M19.75 5.25 L18.6 3.45 20.55 3.45 21.7 5.25 19.75 5.25" fill="#e4e4e4" fill-rule="evenodd" stroke="none"/>
    <path d="M17.95 5.25 L16.8 3.45 18.7 3.45 19.85 5.25 17.95 5.25" fill="#bc100d" fill-rule="evenodd" stroke="none"/>
    <path d="M15.95 5.25 L14.8 3.45 16.75 3.45 17.9 5.25 15.95 5.25" fill="#e4e4e4" fill-rule="evenodd" stroke="none"/>
    <path d="M14.4 5.25 L13.25 3.45 15.15 3.45 16.3 5.25 14.4 5.25" fill="#bc100d" fill-rule="evenodd" stroke="none"/>
    <path d="M12.45 5.25 L11.3 3.45 13.25 3.45 14.4 5.25 12.45 5.25" fill="#e4e4e4" fill-rule="evenodd" stroke="none"/>
    <path d="M31.0 5.25 L29.85 3.45 31.8 3.45 32.95 5.25 31.0 5.25" fill="#e4e4e4" fill-rule="evenodd" stroke="none"/>
    <path d="M29.2 5.25 L28.05 3.45 29.95 3.45 31.1 5.25 29.2 5.25" fill="#bc100d" fill-rule="evenodd" stroke="none"/>
    <path d="M27.25 5.25 L26.1 3.45 28.05 3.45 29.2 5.25 27.25 5.25" fill="#e4e4e4" fill-rule="evenodd" stroke="none"/>
    <path d="M25.65 5.25 L24.5 3.45 26.4 3.45 27.55 5.25 25.65 5.25" fill="#bc100d" fill-rule="evenodd" stroke="none"/>
    <path d="M23.7 5.25 L22.55 3.45 24.5 3.45 25.65 5.25 23.7 5.25" fill="#e4e4e4" fill-rule="evenodd" stroke="none"/>
    <path d="M2.1 9.9 L2.1 9.3 30.45 9.3 30.45 9.9 2.1 9.9" fill="url(#gradient29)" fill-rule="evenodd" stroke="none"/>
    <path d="M30.45 9.9 L30.45 12.0 2.1 12.0 2.1 9.9 30.45 9.9" fill="url(#gradient30)" fill-rule="evenodd" stroke="none"/>
    <path d="M30.45 12.0 L30.45 13.9 2.1 13.9 2.1 12.0 30.45 12.0" fill="url(#gradient31)" fill-rule="evenodd" stroke="none"/>
    <path d="M30.45 13.9 L30.45 15.8 2.1 15.8 2.1 13.9 30.45 13.9" fill="url(#gradient32)" fill-rule="evenodd" stroke="none"/>
    <path d="M30.45 15.8 L30.45 16.4 2.1 16.4 2.1 15.8 30.45 15.8" fill="url(#gradient33)" fill-rule="evenodd" stroke="none"/>
    <path d="M30.45 38.05 L30.45 38.65 2.1 38.65 2.1 38.05 30.45 38.05" fill="url(#gradient34)" fill-rule="evenodd" stroke="none"/>
    <path d="M2.1 38.05 L2.1 36.15 30.45 36.15 30.45 38.05 2.1 38.05" fill="url(#gradient35)" fill-rule="evenodd" stroke="none"/>
    <path d="M2.1 36.15 L2.1 34.25 30.45 34.25 30.45 36.15 2.1 36.15" fill="url(#gradient36)" fill-rule="evenodd" stroke="none"/>
    <path d="M2.1 34.25 L2.1 32.15 30.45 32.15 30.45 34.25 2.1 34.25" fill="url(#gradient37)" fill-rule="evenodd" stroke="none"/>
    <path d="M2.1 32.15 L2.1 31.55 30.45 31.55 30.45 32.15 2.1 32.15" fill="url(#gradient38)" fill-rule="evenodd" stroke="none"/>
  </g>
  <defs>
    <linearGradient gradientTransform="matrix(0.0, -0.0091, 0.0041, 0.0, 16.05, 50.5)" gradientUnits="userSpaceOnUse" id="gradient0" spreadMethod="pad" x1="-819.2" x2="819.2">
      <stop offset="0.0" stop-color="#332f30"/>
      <stop offset="0.36470588235294116" stop-color="#dfdbdc"/>
      <stop offset="0.5176470588235295" stop-color="#a7a7a7"/>
      <stop offset="0.6901960784313725" stop-color="#dfdbdc"/>
      <stop offset="1.0" stop-color="#332f30"/>
    </linearGradient>
    <linearGradient gradientTransform="matrix(0.0, -0.0262, 0.0042, 0.0, 15.95, 50.3)" gradientUnits="userSpaceOnUse" id="gradient1" spreadMethod="pad" x1="-819.2" x2="819.2">
      <stop offset="0.0" stop-color="#332f30"/>
      <stop offset="0.36470588235294116" stop-color="#dfdbdc"/>
      <stop offset="0.5176470588235295" stop-color="#a7a7a7"/>
      <stop offset="0.6901960784313725" stop-color="#dfdbdc"/>
      <stop offset="1.0" stop-color="#332f30"/>
    </linearGradient>
    <linearGradient gradientTransform="matrix(0.0, -0.0187, 0.0042, 0.0, 16.45, 35.6)" gradientUnits="userSpaceOnUse" id="gradient2" spreadMethod="pad" x1="-819.2" x2="819.2">
      <stop offset="0.0" stop-color="#332f30"/>
      <stop offset="0.36470588235294116" stop-color="#dfdbdc"/>
      <stop offset="0.5176470588235295" stop-color="#a7a7a7"/>
      <stop offset="0.6901960784313725" stop-color="#dfdbdc"/>
      <stop offset="1.0" stop-color="#332f30"/>
    </linearGradient>
    <linearGradient gradientTransform="matrix(1.0E-4, 0.0077, -0.0055, 1.0E-4, 20.85, 35.95)" gradientUnits="userSpaceOnUse" id="gradient3" spreadMethod="pad" x1="-819.2" x2="819.2">
      <stop offset="0.0" stop-color="#332f30"/>
      <stop offset="0.36470588235294116" stop-color="#dfdbdc"/>
      <stop offset="0.5176470588235295" stop-color="#a7a7a7"/>
      <stop offset="0.6901960784313725" stop-color="#dfdbdc"/>
      <stop offset="1.0" stop-color="#332f30"/>
    </linearGradient>
    <linearGradient gradientTransform="matrix(0.0077, 0.0, 0.0, 0.0056, 16.7, 38.6)" gradientUnits="userSpaceOnUse" id="gradient4" spreadMethod="pad" x1="-819.2" x2="819.2">
      <stop offset="0.0" stop-color="#332f30"/>
      <stop offset="0.36470588235294116" stop-color="#dfdbdc"/>
      <stop offset="0.5176470588235295" stop-color="#a7a7a7"/>
      <stop offset="0.6901960784313725" stop-color="#dfdbdc"/>
      <stop offset="1.0" stop-color="#332f30"/>
    </linearGradient>
    <linearGradient gradientTransform="matrix(0.0058, 0.0, 0.0, 0.0056, 16.7, 38.9)" gradientUnits="userSpaceOnUse" id="gradient5" spreadMethod="pad" x1="-819.2" x2="819.2">
      <stop offset="0.0" stop-color="#332f30"/>
      <stop offset="0.36470588235294116" stop-color="#dfdbdc"/>
      <stop offset="0.5176470588235295" stop-color="#a7a7a7"/>
      <stop offset="0.6901960784313725" stop-color="#dfdbdc"/>
      <stop offset="1.0" stop-color="#332f30"/>
    </linearGradient>
    <linearGradient gradientTransform="matrix(0.0077, 0.0, 0.0, 0.0057, 16.7, 39.15)" gradientUnits="userSpaceOnUse" id="gradient6" spreadMethod="pad" x1="-819.2" x2="819.2">
      <stop offset="0.0" stop-color="#332f30"/>
      <stop offset="0.36470588235294116" stop-color="#dfdbdc"/>
      <stop offset="0.5176470588235295" stop-color="#a7a7a7"/>
      <stop offset="0.6901960784313725" stop-color="#dfdbdc"/>
      <stop offset="1.0" stop-color="#332f30"/>
    </linearGradient>
    <linearGradient gradientTransform="matrix(0.0, 0.0069, -0.0044, 0.0, 16.3, 41.2)" gradientUnits="userSpaceOnUse" id="gradient7" spreadMethod="pad" x1="-819.2" x2="819.2">
      <stop offset="0.0" stop-color="#332f30"/>
      <stop offset="0.36470588235294116" stop-color="#dfdbdc"/>
      <stop offset="0.5176470588235295" stop-color="#a7a7a7"/>
      <stop offset="0.6901960784313725" stop-color="#dfdbdc"/>
      <stop offset="1.0" stop-color="#332f30"/>
    </linearGradient>
    <linearGradient gradientTransform="matrix(0.0, 0.0045, -0.0013, 0.0, 16.55, 33.85)" gradientUnits="userSpaceOnUse" id="gradient8" spreadMethod="pad" x1="-819.2" x2="819.2">
      <stop offset="0.0" stop-color="#332f30"/>
      <stop offset="0.36470588235294116" stop-color="#dfdbdc"/>
      <stop offset="0.5176470588235295" stop-color="#a7a7a7"/>
      <stop offset="0.6901960784313725" stop-color="#dfdbdc"/>
      <stop offset="1.0" stop-color="#332f30"/>
    </linearGradient>
    <linearGradient gradientTransform="matrix(0.0017, 0.0, 0.0, 0.0036, 16.7, 32.4)" gradientUnits="userSpaceOnUse" id="gradient9" spreadMethod="pad" x1="-819.2" x2="819.2">
      <stop offset="0.0" stop-color="#332f30"/>
      <stop offset="0.36470588235294116" stop-color="#dfdbdc"/>
      <stop offset="0.5176470588235295" stop-color="#a7a7a7"/>
      <stop offset="0.6901960784313725" stop-color="#dfdbdc"/>
      <stop offset="1.0" stop-color="#332f30"/>
    </linearGradient>
    <linearGradient gradientTransform="matrix(0.0023, 0.0, 0.0, 0.0036, 16.7, 32.2)" gradientUnits="userSpaceOnUse" id="gradient10" spreadMethod="pad" x1="-819.2" x2="819.2">
      <stop offset="0.0" stop-color="#332f30"/>
      <stop offset="0.36470588235294116" stop-color="#dfdbdc"/>
      <stop offset="0.5176470588235295" stop-color="#a7a7a7"/>
      <stop offset="0.6901960784313725" stop-color="#dfdbdc"/>
      <stop offset="1.0" stop-color="#332f30"/>
    </linearGradient>
    <linearGradient gradientTransform="matrix(0.0, 0.0049, -0.0016, 0.0, 17.9, 30.5)" gradientUnits="userSpaceOnUse" id="gradient11" spreadMethod="pad" x1="-819.2" x2="819.2">
      <stop offset="0.0" stop-color="#332f30"/>
      <stop offset="0.36470588235294116" stop-color="#dfdbdc"/>
      <stop offset="0.5176470588235295" stop-color="#a7a7a7"/>
      <stop offset="0.6901960784313725" stop-color="#dfdbdc"/>
      <stop offset="1.0" stop-color="#332f30"/>
    </linearGradient>
    <linearGradient gradientTransform="matrix(0.0023, 0.0, 0.0, 0.0036, 16.7, 32.55)" gradientUnits="userSpaceOnUse" id="gradient12" spreadMethod="pad" x1="-819.2" x2="819.2">
      <stop offset="0.0" stop-color="#332f30"/>
      <stop offset="0.36470588235294116" stop-color="#dfdbdc"/>
      <stop offset="0.5176470588235295" stop-color="#a7a7a7"/>
      <stop offset="0.6901960784313725" stop-color="#dfdbdc"/>
      <stop offset="1.0" stop-color="#332f30"/>
    </linearGradient>
    <linearGradient gradientTransform="matrix(0.0, 0.003, -0.0013, 0.0, 16.55, 28.35)" gradientUnits="userSpaceOnUse" id="gradient13" spreadMethod="pad" x1="-819.2" x2="819.2">
      <stop offset="0.0" stop-color="#332f30"/>
      <stop offset="0.36470588235294116" stop-color="#dfdbdc"/>
      <stop offset="0.5176470588235295" stop-color="#a7a7a7"/>
      <stop offset="0.6901960784313725" stop-color="#dfdbdc"/>
      <stop offset="1.0" stop-color="#332f30"/>
    </linearGradient>
    <linearGradient gradientTransform="matrix(0.0023, 0.0, 0.0, 0.0025, 16.7, 27.45)" gradientUnits="userSpaceOnUse" id="gradient14" spreadMethod="pad" x1="-819.2" x2="819.2">
      <stop offset="0.0" stop-color="#332f30"/>
      <stop offset="0.36470588235294116" stop-color="#dfdbdc"/>
      <stop offset="0.5176470588235295" stop-color="#a7a7a7"/>
      <stop offset="0.6901960784313725" stop-color="#dfdbdc"/>
      <stop offset="1.0" stop-color="#332f30"/>
    </linearGradient>
    <linearGradient gradientTransform="matrix(0.0017, 0.0, 0.0, 0.0025, 16.7, 27.35)" gradientUnits="userSpaceOnUse" id="gradient15" spreadMethod="pad" x1="-819.2" x2="819.2">
      <stop offset="0.0" stop-color="#332f30"/>
      <stop offset="0.36470588235294116" stop-color="#dfdbdc"/>
      <stop offset="0.5176470588235295" stop-color="#a7a7a7"/>
      <stop offset="0.6901960784313725" stop-color="#dfdbdc"/>
      <stop offset="1.0" stop-color="#332f30"/>
    </linearGradient>
    <linearGradient gradientTransform="matrix(0.0023, 0.0, 0.0, 0.0024, 16.7, 27.2)" gradientUnits="userSpaceOnUse" id="gradient16" spreadMethod="pad" x1="-819.2" x2="819.2">
      <stop offset="0.0" stop-color="#332f30"/>
      <stop offset="0.36470588235294116" stop-color="#dfdbdc"/>
      <stop offset="0.5176470588235295" stop-color="#a7a7a7"/>
      <stop offset="0.6901960784313725" stop-color="#dfdbdc"/>
      <stop offset="1.0" stop-color="#332f30"/>
    </linearGradient>
    <linearGradient gradientTransform="matrix(0.0, 0.0034, -0.0016, 0.0, 17.9, 26.05)" gradientUnits="userSpaceOnUse" id="gradient17" spreadMethod="pad" x1="-819.2" x2="819.2">
      <stop offset="0.0" stop-color="#332f30"/>
      <stop offset="0.36470588235294116" stop-color="#dfdbdc"/>
      <stop offset="0.5176470588235295" stop-color="#a7a7a7"/>
      <stop offset="0.6901960784313725" stop-color="#dfdbdc"/>
      <stop offset="1.0" stop-color="#332f30"/>
    </linearGradient>
    <linearGradient gradientTransform="matrix(0.0, 0.0088, -0.001, 0.0, 14.15, 49.65)" gradientUnits="userSpaceOnUse" id="gradient18" spreadMethod="pad" x1="-819.2" x2="819.2">
      <stop offset="0.0" stop-color="#332f30"/>
      <stop offset="0.36470588235294116" stop-color="#dfdbdc"/>
      <stop offset="0.5176470588235295" stop-color="#a7a7a7"/>
      <stop offset="0.6901960784313725" stop-color="#dfdbdc"/>
      <stop offset="1.0" stop-color="#332f30"/>
    </linearGradient>
    <linearGradient gradientTransform="matrix(0.0013, 0.0, 0.0, 0.0071, 14.25, 46.7)" gradientUnits="userSpaceOnUse" id="gradient19" spreadMethod="pad" x1="-819.2" x2="819.2">
      <stop offset="0.0" stop-color="#332f30"/>
      <stop offset="0.36470588235294116" stop-color="#dfdbdc"/>
      <stop offset="0.5176470588235295" stop-color="#a7a7a7"/>
      <stop offset="0.6901960784313725" stop-color="#dfdbdc"/>
      <stop offset="1.0" stop-color="#332f30"/>
    </linearGradient>
    <linearGradient gradientTransform="matrix(0.0017, 0.0, 0.0, 0.0072, 14.25, 47.0)" gradientUnits="userSpaceOnUse" id="gradient20" spreadMethod="pad" x1="-819.2" x2="819.2">
      <stop offset="0.0" stop-color="#332f30"/>
      <stop offset="0.36470588235294116" stop-color="#dfdbdc"/>
      <stop offset="0.5176470588235295" stop-color="#a7a7a7"/>
      <stop offset="0.6901960784313725" stop-color="#dfdbdc"/>
      <stop offset="1.0" stop-color="#332f30"/>
    </linearGradient>
    <linearGradient gradientTransform="matrix(0.0017, 0.0, 0.0, 0.007, 14.25, 46.35)" gradientUnits="userSpaceOnUse" id="gradient21" spreadMethod="pad" x1="-819.2" x2="819.2">
      <stop offset="0.0" stop-color="#332f30"/>
      <stop offset="0.36470588235294116" stop-color="#dfdbdc"/>
      <stop offset="0.5176470588235295" stop-color="#a7a7a7"/>
      <stop offset="0.6901960784313725" stop-color="#dfdbdc"/>
      <stop offset="1.0" stop-color="#332f30"/>
    </linearGradient>
    <linearGradient gradientTransform="matrix(0.0, 0.0098, -0.0012, 1.0E-4, 15.2, 42.95)" gradientUnits="userSpaceOnUse" id="gradient22" spreadMethod="pad" x1="-819.2" x2="819.2">
      <stop offset="0.0" stop-color="#332f30"/>
      <stop offset="0.36470588235294116" stop-color="#dfdbdc"/>
      <stop offset="0.5176470588235295" stop-color="#a7a7a7"/>
      <stop offset="0.6901960784313725" stop-color="#dfdbdc"/>
      <stop offset="1.0" stop-color="#332f30"/>
    </linearGradient>
    <linearGradient gradientTransform="matrix(0.0, 0.0088, -0.001, 0.0, 18.2, 49.65)" gradientUnits="userSpaceOnUse" id="gradient23" spreadMethod="pad" x1="-819.2" x2="819.2">
      <stop offset="0.0" stop-color="#332f30"/>
      <stop offset="0.36470588235294116" stop-color="#dfdbdc"/>
      <stop offset="0.5176470588235295" stop-color="#a7a7a7"/>
      <stop offset="0.6901960784313725" stop-color="#dfdbdc"/>
      <stop offset="1.0" stop-color="#332f30"/>
    </linearGradient>
    <linearGradient gradientTransform="matrix(0.0017, 0.0, 0.0, 0.0072, 18.3, 47.0)" gradientUnits="userSpaceOnUse" id="gradient24" spreadMethod="pad" x1="-819.2" x2="819.2">
      <stop offset="0.0" stop-color="#332f30"/>
      <stop offset="0.36470588235294116" stop-color="#dfdbdc"/>
      <stop offset="0.5176470588235295" stop-color="#a7a7a7"/>
      <stop offset="0.6901960784313725" stop-color="#dfdbdc"/>
      <stop offset="1.0" stop-color="#332f30"/>
    </linearGradient>
    <linearGradient gradientTransform="matrix(0.0017, 0.0, 0.0, 0.007, 18.3, 46.35)" gradientUnits="userSpaceOnUse" id="gradient25" spreadMethod="pad" x1="-819.2" x2="819.2">
      <stop offset="0.0" stop-color="#332f30"/>
      <stop offset="0.36470588235294116" stop-color="#dfdbdc"/>
      <stop offset="0.5176470588235295" stop-color="#a7a7a7"/>
      <stop offset="0.6901960784313725" stop-color="#dfdbdc"/>
      <stop offset="1.0" stop-color="#332f30"/>
    </linearGradient>
    <linearGradient gradientTransform="matrix(0.0013, 0.0, 0.0, 0.0071, 18.3, 46.7)" gradientUnits="userSpaceOnUse" id="gradient26" spreadMethod="pad" x1="-819.2" x2="819.2">
      <stop offset="0.0" stop-color="#332f30"/>
      <stop offset="0.36470588235294116" stop-color="#dfdbdc"/>
      <stop offset="0.5176470588235295" stop-color="#a7a7a7"/>
      <stop offset="0.6901960784313725" stop-color="#dfdbdc"/>
      <stop offset="1.0" stop-color="#332f30"/>
    </linearGradient>
    <linearGradient gradientTransform="matrix(0.0, 0.0098, -0.0012, 1.0E-4, 19.25, 42.95)" gradientUnits="userSpaceOnUse" id="gradient27" spreadMethod="pad" x1="-819.2" x2="819.2">
      <stop offset="0.0" stop-color="#332f30"/>
      <stop offset="0.36470588235294116" stop-color="#dfdbdc"/>
      <stop offset="0.5176470588235295" stop-color="#a7a7a7"/>
      <stop offset="0.6901960784313725" stop-color="#dfdbdc"/>
      <stop offset="1.0" stop-color="#332f30"/>
    </linearGradient>
    <linearGradient gradientTransform="matrix(1.0E-4, -0.0508, 0.0632, 0.0, 17.7, 36.9)" gradientUnits="userSpaceOnUse" id="gradient28" spreadMethod="pad" x1="-819.2" x2="819.2">
      <stop offset="0.0" stop-color="#e71010"/>
      <stop offset="0.8156862745098039" stop-color="#6f1209"/>
      <stop offset="1.0" stop-color="#d12525"/>
    </linearGradient>
    <linearGradient gradientTransform="matrix(1.0E-4, 0.0069, -0.0098, 0.0, 15.35, 15.05)" gradientUnits="userSpaceOnUse" id="gradient29" spreadMethod="pad" x1="-819.2" x2="819.2">
      <stop offset="0.0" stop-color="#332f30"/>
      <stop offset="0.36470588235294116" stop-color="#dfdbdc"/>
      <stop offset="0.5176470588235295" stop-color="#a7a7a7"/>
      <stop offset="0.6901960784313725" stop-color="#dfdbdc"/>
      <stop offset="1.0" stop-color="#332f30"/>
    </linearGradient>
    <linearGradient gradientTransform="matrix(0.0173, 0.0, 0.0, 0.0057, 16.25, 13.0)" gradientUnits="userSpaceOnUse" id="gradient30" spreadMethod="pad" x1="-819.2" x2="819.2">
      <stop offset="0.0" stop-color="#a09a9c"/>
      <stop offset="0.36470588235294116" stop-color="#fbfbfb"/>
      <stop offset="0.5176470588235295" stop-color="#e6e6e6"/>
      <stop offset="0.6901960784313725" stop-color="#ffffff"/>
      <stop offset="1.0" stop-color="#ada7a9"/>
    </linearGradient>
    <linearGradient gradientTransform="matrix(0.0131, 0.0, 0.0, 0.0056, 16.25, 12.75)" gradientUnits="userSpaceOnUse" id="gradient31" spreadMethod="pad" x1="-819.2" x2="819.2">
      <stop offset="0.0" stop-color="#a09a9c"/>
      <stop offset="0.36470588235294116" stop-color="#fbfbfb"/>
      <stop offset="0.5176470588235295" stop-color="#e6e6e6"/>
      <stop offset="0.6901960784313725" stop-color="#ffffff"/>
      <stop offset="1.0" stop-color="#ada7a9"/>
    </linearGradient>
    <linearGradient gradientTransform="matrix(0.0173, 0.0, 0.0, 0.0056, 16.25, 12.45)" gradientUnits="userSpaceOnUse" id="gradient32" spreadMethod="pad" x1="-819.2" x2="819.2">
      <stop offset="0.0" stop-color="#a09a9c"/>
      <stop offset="0.36470588235294116" stop-color="#fbfbfb"/>
      <stop offset="0.5176470588235295" stop-color="#e6e6e6"/>
      <stop offset="0.6901960784313725" stop-color="#ffffff"/>
      <stop offset="1.0" stop-color="#ada7a9"/>
    </linearGradient>
    <linearGradient gradientTransform="matrix(2.0E-4, 0.0077, -0.0123, 1.0E-4, 25.5, 9.8)" gradientUnits="userSpaceOnUse" id="gradient33" spreadMethod="pad" x1="-819.2" x2="819.2">
      <stop offset="0.0" stop-color="#332f30"/>
      <stop offset="0.36470588235294116" stop-color="#dfdbdc"/>
      <stop offset="0.5176470588235295" stop-color="#a7a7a7"/>
      <stop offset="0.6901960784313725" stop-color="#dfdbdc"/>
      <stop offset="1.0" stop-color="#332f30"/>
    </linearGradient>
    <linearGradient gradientTransform="matrix(2.0E-4, 0.0077, -0.0123, 1.0E-4, 25.5, 32.05)" gradientUnits="userSpaceOnUse" id="gradient34" spreadMethod="pad" x1="-819.2" x2="819.2">
      <stop offset="0.0" stop-color="#332f30"/>
      <stop offset="0.36470588235294116" stop-color="#dfdbdc"/>
      <stop offset="0.5176470588235295" stop-color="#a7a7a7"/>
      <stop offset="0.6901960784313725" stop-color="#dfdbdc"/>
      <stop offset="1.0" stop-color="#332f30"/>
    </linearGradient>
    <linearGradient gradientTransform="matrix(0.0173, 0.0, 0.0, 0.0056, 16.25, 34.7)" gradientUnits="userSpaceOnUse" id="gradient35" spreadMethod="pad" x1="-819.2" x2="819.2">
      <stop offset="0.0" stop-color="#a09a9c"/>
      <stop offset="0.36470588235294116" stop-color="#fbfbfb"/>
      <stop offset="0.5176470588235295" stop-color="#e6e6e6"/>
      <stop offset="0.6901960784313725" stop-color="#ffffff"/>
      <stop offset="1.0" stop-color="#ada7a9"/>
    </linearGradient>
    <linearGradient gradientTransform="matrix(0.0131, 0.0, 0.0, 0.0056, 16.25, 35.0)" gradientUnits="userSpaceOnUse" id="gradient36" spreadMethod="pad" x1="-819.2" x2="819.2">
      <stop offset="0.0" stop-color="#a09a9c"/>
      <stop offset="0.36470588235294116" stop-color="#fbfbfb"/>
      <stop offset="0.5176470588235295" stop-color="#e6e6e6"/>
      <stop offset="0.6901960784313725" stop-color="#ffffff"/>
      <stop offset="1.0" stop-color="#ada7a9"/>
    </linearGradient>
    <linearGradient gradientTransform="matrix(0.0173, 0.0, 0.0, 0.0057, 16.25, 35.25)" gradientUnits="userSpaceOnUse" id="gradient37" spreadMethod="pad" x1="-819.2" x2="819.2">
      <stop offset="0.0" stop-color="#a09a9c"/>
      <stop offset="0.36470588235294116" stop-color="#fbfbfb"/>
      <stop offset="0.5176470588235295" stop-color="#e6e6e6"/>
      <stop offset="0.6901960784313725" stop-color="#ffffff"/>
      <stop offset="1.0" stop-color="#ada7a9"/>
    </linearGradient>
    <linearGradient gradientTransform="matrix(1.0E-4, 0.0069, -0.0098, 0.0, 15.35, 37.3)" gradientUnits="userSpaceOnUse" id="gradient38" spreadMethod="pad" x1="-819.2" x2="819.2">
      <stop offset="0.0" stop-color="#332f30"/>
      <stop offset="0.36470588235294116" stop-color="#dfdbdc"/>
      <stop offset="0.5176470588235295" stop-color="#a7a7a7"/>
      <stop offset="0.6901960784313725" stop-color="#dfdbdc"/>
      <stop offset="1.0" stop-color="#332f30"/>
    </linearGradient>
  </defs>
</svg>
