<?xml version="1.0" encoding="UTF-8" standalone="no"?>
<svg xmlns:xlink="http://www.w3.org/1999/xlink" height="67.2px" width="33.05px" xmlns="http://www.w3.org/2000/svg">
  <g transform="matrix(1, 0, 0, 1, 16.5, 33.6)">
    <path d="M-14.4 30.85 L16.15 30.85 16.15 32.25 -14.4 32.25 -14.4 30.85" fill="#797576" fill-rule="evenodd" stroke="none"/>
    <path d="M-14.4 30.85 L-14.4 30.05 16.15 30.05 16.15 30.85 -14.4 30.85" fill="#a7a7a7" fill-rule="evenodd" stroke="none"/>
    <path d="M-11.55 -0.5 L-11.55 -1.5 12.4 -1.5 12.4 -0.5 -11.55 -0.5" fill="#5b5758" fill-rule="evenodd" stroke="none"/>
    <path d="M12.4 -0.5 L12.4 1.95 -11.55 1.95 -11.55 -0.5 12.4 -0.5" fill="#262425" fill-rule="evenodd" stroke="none"/>
    <path d="M16.1 1.5 L-14.4 1.5 -14.4 0.65 16.1 0.65 16.1 1.5" fill="#a7a7a7" fill-rule="evenodd" stroke="none"/>
    <path d="M16.1 1.5 L16.1 2.85 -14.4 2.85 -14.4 1.5 16.1 1.5" fill="#797576" fill-rule="evenodd" stroke="none"/>
    <path d="M-11.55 7.75 L-11.55 7.05 12.4 7.05 12.4 7.75 -11.55 7.75" fill="#5b5758" fill-rule="evenodd" stroke="none"/>
    <path d="M12.4 7.75 L12.4 9.45 -11.55 9.45 -11.55 7.75 12.4 7.75" fill="#262425" fill-rule="evenodd" stroke="none"/>
    <path d="M12.4 23.5 L12.4 25.2 -11.55 25.2 -11.55 23.5 12.4 23.5" fill="#262425" fill-rule="evenodd" stroke="none"/>
    <path d="M-11.55 23.5 L-11.55 22.8 12.4 22.8 12.4 23.5 -11.55 23.5" fill="#5b5758" fill-rule="evenodd" stroke="none"/>
    <path d="M-6.35 32.65 L7.35 32.65 7.35 33.6 -6.35 33.6 -6.35 32.65" fill="#5b5758" fill-rule="evenodd" stroke="none"/>
    <path d="M-6.35 32.65 L-6.35 30.45 7.35 30.45 7.35 32.65 -6.35 32.65" fill="#a7a7a7" fill-rule="evenodd" stroke="none"/>
    <path d="M-5.9 32.75 L-5.9 2.8 -4.7 2.8 -4.7 32.75 -5.9 32.75" fill="#a7a7a7" fill-rule="evenodd" stroke="none"/>
    <path d="M-5.9 32.75 L-6.4 32.75 -6.4 2.8 -5.9 2.8 -5.9 32.75" fill="#5b5758" fill-rule="evenodd" stroke="none"/>
    <path d="M7.05 2.8 L7.55 2.8 7.55 32.75 7.05 32.75 7.05 2.8" fill="#5b5758" fill-rule="evenodd" stroke="none"/>
    <path d="M7.05 32.75 L5.85 32.75 5.85 2.8 7.05 2.8 7.05 32.75" fill="#a7a7a7" fill-rule="evenodd" stroke="none"/>
    <path d="M5.2 4.1 L5.75 4.1 5.75 8.3 5.2 8.3 5.2 4.1 M-4.75 4.1 L-4.1 4.1 -4.1 8.3 -4.75 8.3 -4.75 4.1 M2.25 9.35 L-0.8 9.35 -0.8 8.3 2.25 8.3 2.25 9.35 M5.75 9.35 L5.75 11.75 -4.75 11.75 -4.75 9.35 -4.1 9.35 -4.1 11.1 5.2 11.1 5.2 9.35 5.75 9.35" fill="#5a5657" fill-rule="evenodd" stroke="none"/>
    <path d="M5.75 4.1 L5.2 4.1 -4.1 4.1 -4.75 4.1 -4.75 2.85 5.75 2.85 5.75 4.1" fill="#3f3b3c" fill-rule="evenodd" stroke="none"/>
    <path d="M5.2 4.1 L5.2 8.3 5.75 8.3 5.75 9.35 5.2 9.35 5.2 11.1 -4.1 11.1 -4.1 9.35 -4.75 9.35 -4.75 8.3 -4.1 8.3 -4.1 4.1 5.2 4.1 M2.25 9.35 L2.25 8.3 -0.8 8.3 -0.8 9.35 2.25 9.35" fill="url(#gradient0)" fill-rule="evenodd" stroke="none"/>
    <path d="M6.05 23.55 L5.45 23.55 5.45 25.15 -3.9 25.15 -3.9 23.55 -4.55 23.55 -4.55 22.65 -3.9 22.65 -3.9 18.9 5.45 18.9 5.45 22.65 6.05 22.65 6.05 23.55 M2.55 23.55 L2.55 22.65 -0.55 22.65 -0.55 23.55 2.55 23.55" fill="url(#gradient1)" fill-rule="evenodd" stroke="none"/>
    <path d="M-4.55 23.55 L-3.9 23.55 -3.9 25.15 5.45 25.15 5.45 23.55 6.05 23.55 6.05 25.7 -4.55 25.7 -4.55 23.55 M6.05 22.65 L5.45 22.65 5.45 18.9 6.05 18.9 6.05 22.65 M-3.9 18.9 L-3.9 22.65 -4.55 22.65 -4.55 18.9 -3.9 18.9 M2.55 23.55 L-0.55 23.55 -0.55 22.65 2.55 22.65 2.55 23.55" fill="#5a5657" fill-rule="evenodd" stroke="none"/>
    <path d="M5.45 18.9 L-3.9 18.9 -4.55 18.9 -4.55 17.75 6.05 17.75 6.05 18.9 5.45 18.9" fill="#3f3b3c" fill-rule="evenodd" stroke="none"/>
    <path d="M5.9 25.6 L5.3 25.6 -3.95 25.6 -4.6 25.6 -4.6 24.8 5.9 24.8 5.9 25.6 M5.3 28.3 L5.9 28.3 5.9 28.95 5.3 28.95 2.4 28.95 2.4 28.3 5.3 28.3 M-4.6 28.95 L-4.6 28.3 -3.95 28.3 -0.65 28.3 -0.65 28.95 -3.95 28.95 -4.6 28.95" fill="#3f3b3c" fill-rule="evenodd" stroke="none"/>
    <path d="M5.3 25.6 L5.9 25.6 5.9 28.3 5.3 28.3 5.3 25.6 M-4.6 25.6 L-3.95 25.6 -3.95 28.3 -4.6 28.3 -4.6 25.6 M5.9 28.95 L5.9 30.5 -4.6 30.5 -4.6 28.95 -3.95 28.95 -3.95 30.05 5.3 30.05 5.3 28.95 5.9 28.95" fill="#5a5657" fill-rule="evenodd" stroke="none"/>
    <path d="M5.3 25.6 L5.3 28.3 2.4 28.3 -0.65 28.3 -3.95 28.3 -3.95 25.6 5.3 25.6 M5.3 28.95 L5.3 30.05 -3.95 30.05 -3.95 28.95 -0.65 28.95 2.4 28.95 5.3 28.95" fill="url(#gradient2)" fill-rule="evenodd" stroke="none"/>
    <path d="M2.4 28.95 L-0.65 28.95 -0.65 28.3 2.4 28.3 2.4 28.95" fill="#b2aeaf" fill-rule="evenodd" stroke="none"/>
    <path d="M6.55 16.85 L6.55 17.45 -5.25 17.45 -5.25 16.85 6.55 16.85" fill="url(#gradient3)" fill-rule="evenodd" stroke="none"/>
    <path d="M6.55 14.9 L6.55 16.85 -5.25 16.85 -5.25 14.9 6.55 14.9" fill="url(#gradient4)" fill-rule="evenodd" stroke="none"/>
    <path d="M6.55 13.1 L6.55 14.9 -5.25 14.9 -5.25 13.1 6.55 13.1" fill="url(#gradient5)" fill-rule="evenodd" stroke="none"/>
    <path d="M6.55 11.35 L6.55 13.1 -5.25 13.1 -5.25 11.35 6.55 11.35" fill="url(#gradient6)" fill-rule="evenodd" stroke="none"/>
    <path d="M-5.25 11.35 L-5.25 10.75 6.55 10.75 6.55 11.35 -5.25 11.35" fill="url(#gradient7)" fill-rule="evenodd" stroke="none"/>
    <path d="M-1.1 20.75 L-1.1 19.6 2.4 19.6 2.4 20.75 -1.1 20.75" fill="url(#gradient8)" fill-rule="evenodd" stroke="none"/>
    <path d="M-1.1 19.6 L-1.1 18.45 2.4 18.45 2.4 19.6 -1.1 19.6" fill="url(#gradient9)" fill-rule="evenodd" stroke="none"/>
    <path d="M-1.1 18.45 L-1.1 18.1 2.4 18.1 2.4 18.45 -1.1 18.45" fill="url(#gradient10)" fill-rule="evenodd" stroke="none"/>
    <path d="M2.4 22.0 L2.4 22.35 -1.1 22.35 -1.1 22.0 2.4 22.0" fill="url(#gradient11)" fill-rule="evenodd" stroke="none"/>
    <path d="M2.4 20.75 L2.4 22.0 -1.1 22.0 -1.1 20.75 2.4 20.75" fill="url(#gradient12)" fill-rule="evenodd" stroke="none"/>
    <path d="M-1.1 24.5 L-1.1 23.75 2.4 23.75 2.4 24.5 -1.1 24.5" fill="url(#gradient13)" fill-rule="evenodd" stroke="none"/>
    <path d="M-1.1 23.75 L-1.1 23.5 2.4 23.5 2.4 23.75 -1.1 23.75" fill="url(#gradient14)" fill-rule="evenodd" stroke="none"/>
    <path d="M2.4 26.15 L2.4 26.4 -1.1 26.4 -1.1 26.15 2.4 26.15" fill="url(#gradient15)" fill-rule="evenodd" stroke="none"/>
    <path d="M2.4 25.3 L2.4 26.15 -1.1 26.15 -1.1 25.3 2.4 25.3" fill="url(#gradient16)" fill-rule="evenodd" stroke="none"/>
    <path d="M2.4 24.5 L2.4 25.3 -1.1 25.3 -1.1 24.5 2.4 24.5" fill="url(#gradient17)" fill-rule="evenodd" stroke="none"/>
    <path d="M3.7 5.6 L1.1 5.6 1.1 3.3 3.7 3.3 3.7 5.6" fill="url(#gradient18)" fill-rule="evenodd" stroke="none"/>
    <path d="M1.1 5.6 L3.7 5.6 3.7 7.8 1.1 7.8 1.1 5.6" fill="url(#gradient19)" fill-rule="evenodd" stroke="none"/>
    <path d="M3.7 3.3 L1.1 3.3 1.1 2.6 3.7 2.6 3.7 3.3" fill="url(#gradient20)" fill-rule="evenodd" stroke="none"/>
    <path d="M1.1 10.3 L3.7 10.3 3.7 11.0 1.1 11.0 1.1 10.3" fill="url(#gradient21)" fill-rule="evenodd" stroke="none"/>
    <path d="M1.1 7.8 L3.7 7.8 3.7 10.3 1.1 10.3 1.1 7.8" fill="url(#gradient22)" fill-rule="evenodd" stroke="none"/>
    <path d="M-2.7 3.3 L-0.1 3.3 -0.1 5.6 -2.7 5.6 -2.7 3.3" fill="url(#gradient23)" fill-rule="evenodd" stroke="none"/>
    <path d="M-0.1 3.3 L-2.7 3.3 -2.7 2.6 -0.1 2.6 -0.1 3.3" fill="url(#gradient24)" fill-rule="evenodd" stroke="none"/>
    <path d="M-2.7 5.6 L-0.1 5.6 -0.1 7.8 -2.7 7.8 -2.7 5.6" fill="url(#gradient25)" fill-rule="evenodd" stroke="none"/>
    <path d="M-2.7 10.3 L-2.7 7.8 -0.1 7.8 -0.1 10.3 -2.7 10.3" fill="url(#gradient26)" fill-rule="evenodd" stroke="none"/>
    <path d="M-0.1 10.3 L-0.1 11.0 -2.7 11.0 -2.7 10.3 -0.1 10.3" fill="url(#gradient27)" fill-rule="evenodd" stroke="none"/>
    <path d="M-14.05 -25.55 L-14.05 -31.8 -13.9 -32.0 -13.65 -32.1 -13.55 -32.15 -7.2 -32.15 -7.1 -32.1 -7.0 -31.9 -6.9 -31.55 -6.9 -25.55 -14.05 -25.55" fill="url(#gradient28)" fill-rule="evenodd" stroke="none"/>
    <path d="M-14.05 -25.55 L-6.9 -25.55 -6.9 -17.65 -7.0 -16.8 -7.15 -16.55 -7.35 -16.5 -7.85 -16.45 -13.3 -16.45 -13.8 -16.55 -13.9 -16.65 -13.9 -16.7 -14.05 -17.2 -14.05 -25.55" fill="#dfdfdf" fill-rule="evenodd" stroke="none"/>
    <path d="M-6.75 -28.25 L-6.75 -28.0 -12.55 -28.0 Q-13.6 -28.9 -12.55 -29.2 L-11.7 -29.2 -11.7 -28.55 -9.4 -28.55 -9.4 -28.25 -6.75 -28.25" fill="#ea7051" fill-rule="evenodd" stroke="none"/>
    <path d="M-9.4 -28.55 L-11.7 -28.55 -11.7 -29.2 -9.4 -29.2 -9.4 -28.55" fill="#f19f8b" fill-rule="evenodd" stroke="none"/>
    <path d="M-6.75 -28.25 L-9.4 -28.25 -9.4 -28.55 -9.4 -29.2 -6.75 -29.2 -6.75 -28.25" fill="#ffffff" fill-rule="evenodd" stroke="none"/>
    <path d="M7.05 -25.4 L7.05 -31.6 7.15 -31.85 7.2 -31.95 Q7.5 -31.95 7.65 -32.15 L13.35 -32.15 13.55 -32.1 14.05 -32.0 14.1 -31.95 14.3 -31.2 14.3 -25.4 7.05 -25.4" fill="url(#gradient29)" fill-rule="evenodd" stroke="none"/>
    <path d="M7.05 -25.4 L14.3 -25.4 14.3 -16.9 14.0 -16.5 13.55 -16.45 7.55 -16.45 7.25 -16.55 7.2 -16.65 7.1 -16.8 7.05 -17.3 7.05 -25.4" fill="#dfdfdf" fill-rule="evenodd" stroke="none"/>
    <path d="M12.05 -29.2 L12.05 -28.55 9.7 -28.55 9.7 -29.2 12.05 -29.2" fill="#f19f8b" fill-rule="evenodd" stroke="none"/>
    <path d="M9.7 -28.55 L9.7 -28.25 7.0 -28.25 7.0 -29.2 9.7 -29.2 9.7 -28.55" fill="#ffffff" fill-rule="evenodd" stroke="none"/>
    <path d="M7.0 -28.25 L9.7 -28.25 9.7 -28.55 12.05 -28.55 12.05 -29.2 12.85 -29.2 Q13.9 -28.9 12.85 -28.0 L7.0 -28.0 7.0 -28.25" fill="#ea7051" fill-rule="evenodd" stroke="none"/>
    <path d="M9.35 -31.45 L9.35 -33.6 11.9 -33.6 11.9 -31.45 9.35 -31.45" fill="#ffff99" fill-rule="evenodd" stroke="none"/>
    <path d="M11.9 -31.45 L11.9 -30.3 9.35 -30.3 9.35 -31.45 11.9 -31.45" fill="#ff9900" fill-rule="evenodd" stroke="none"/>
    <path d="M-11.65 -31.45 L-9.2 -31.45 -9.2 -30.3 -11.65 -30.3 -11.65 -31.45" fill="#ff9900" fill-rule="evenodd" stroke="none"/>
    <path d="M-9.2 -31.45 L-11.65 -31.45 -11.65 -33.6 -9.2 -33.6 -9.2 -31.45" fill="#ffff99" fill-rule="evenodd" stroke="none"/>
    <path d="M7.25 -32.25 L7.25 -31.7 7.25 -31.4 -6.75 -31.4 -6.75 -31.7 -6.75 -32.25 7.25 -32.25" fill="#8d7e58" fill-rule="evenodd" stroke="none"/>
    <path d="M7.25 -31.7 L8.8 -31.6 11.6 -17.8 -11.15 -17.8 -8.25 -31.6 -6.75 -31.7 -6.75 -31.4 7.25 -31.4 7.25 -31.7 M10.15 -18.8 L7.05 -30.9 -6.4 -30.9 -9.5 -18.8 1.0 -19.25 10.15 -18.8" fill="#cccccc" fill-rule="evenodd" stroke="none"/>
    <path d="M-6.75 -32.25 L-6.75 -32.65 1.3 -32.9 1.3 -32.8 7.25 -32.65 7.25 -32.25 -6.75 -32.25" fill="#2c3023" fill-rule="evenodd" stroke="none"/>
    <path d="M10.15 -18.8 L1.0 -19.25 -9.5 -18.8 -6.4 -30.9 7.05 -30.9 10.15 -18.8" fill="url(#gradient30)" fill-rule="evenodd" stroke="none"/>
    <path d="M8.6 -31.9 L9.15 -29.35 8.15 -29.25 Q6.6 -29.25 5.55 -29.95 4.5 -30.75 4.5 -31.8 L4.5 -31.9 8.6 -31.9" fill="url(#gradient31)" fill-rule="evenodd" stroke="none"/>
    <path d="M-8.5 -31.9 L-4.4 -31.9 -4.4 -31.8 Q-4.4 -30.75 -5.45 -29.95 -6.5 -29.25 -8.05 -29.25 L-9.0 -29.35 -8.5 -31.9" fill="url(#gradient32)" fill-rule="evenodd" stroke="none"/>
    <path d="M-13.4 -11.7 L13.55 -11.7 Q13.85 -7.1 13.0 -2.8 L-12.8 -2.8 Q-13.75 -7.25 -13.4 -11.7" fill="#ffffff" fill-rule="evenodd" stroke="none"/>
    <path d="M13.55 -11.7 L13.5 -12.4 12.55 -20.35 -12.25 -20.35 Q-13.0 -16.45 -13.3 -12.4 L-13.4 -11.7 Q-13.75 -7.25 -12.8 -2.8 L13.0 -2.8 Q13.85 -7.1 13.55 -11.7 M15.2 -1.3 L-15.05 -1.3 Q-15.3 -6.55 -15.0 -11.7 -14.7 -16.05 -13.95 -20.35 L-13.7 -21.6 13.9 -21.6 14.15 -20.35 Q14.95 -16.05 15.2 -11.7 15.55 -6.55 15.2 -1.3" fill="#dfdfdf" fill-rule="evenodd" stroke="none"/>
    <path d="M-13.4 -11.7 L-13.3 -12.4 Q-13.0 -16.45 -12.25 -20.35 L12.55 -20.35 13.5 -12.4 13.55 -11.7 -13.4 -11.7" fill="#9d110b" fill-rule="evenodd" stroke="none"/>
    <path d="M-2.95 -16.8 L-7.7 -16.8 -8.4 -20.3 -3.6 -20.3 -2.95 -16.8 M-0.55 -22.35 L6.3 -22.35 6.7 -20.3 -0.35 -20.3 -0.55 -22.35" fill="#999999" fill-rule="evenodd" stroke="none"/>
    <path d="M6.3 -22.35 L12.3 -22.35 12.3 -16.8 7.35 -16.8 6.7 -20.3 6.3 -22.35 M0.25 -16.8 L-2.95 -16.8 -3.6 -20.3 -4.05 -22.35 -0.55 -22.35 -0.35 -20.3 0.25 -16.8 M-7.7 -16.8 L-12.0 -16.8 -12.0 -22.35 -8.75 -22.35 -8.4 -20.3 -7.7 -16.8" fill="#666666" fill-rule="evenodd" stroke="none"/>
    <path d="M7.35 -16.8 L0.25 -16.8 -0.35 -20.3 6.7 -20.3 7.35 -16.8 M-8.75 -22.35 L-4.05 -22.35 -3.6 -20.3 -8.4 -20.3 -8.75 -22.35" fill="#cccccc" fill-rule="evenodd" stroke="none"/>
    <path d="M13.9 -23.2 L13.9 -14.5 -13.65 -14.5 -13.65 -23.2 13.9 -23.2 M7.35 -16.8 L12.3 -16.8 12.3 -22.35 6.3 -22.35 -0.55 -22.35 -4.05 -22.35 -8.75 -22.35 -12.0 -22.35 -12.0 -16.8 -7.7 -16.8 -2.95 -16.8 0.25 -16.8 7.35 -16.8" fill="#333333" fill-rule="evenodd" stroke="none"/>
    <path d="M4.45 -12.35 L5.6 -9.95 3.65 -9.95 2.5 -12.35 4.45 -12.35" fill="#e4e4e4" fill-rule="evenodd" stroke="none"/>
    <path d="M6.05 -12.4 L7.2 -10.0 5.3 -10.0 4.15 -12.4 6.05 -12.4" fill="#bc100d" fill-rule="evenodd" stroke="none"/>
    <path d="M8.0 -12.35 L9.15 -9.95 7.2 -9.95 6.05 -12.35 8.0 -12.35" fill="#e4e4e4" fill-rule="evenodd" stroke="none"/>
    <path d="M9.8 -12.4 L10.95 -10.0 9.05 -10.0 7.9 -12.4 9.8 -12.4" fill="#bc100d" fill-rule="evenodd" stroke="none"/>
    <path d="M11.8 -12.35 L12.95 -9.95 11.0 -9.95 9.85 -12.35 11.8 -12.35" fill="#e4e4e4" fill-rule="evenodd" stroke="none"/>
    <path d="M13.35 -12.4 L14.5 -10.0 12.6 -10.0 11.45 -12.4 13.35 -12.4" fill="#bc100d" fill-rule="evenodd" stroke="none"/>
    <path d="M15.3 -12.35 L16.45 -9.95 14.5 -9.95 13.35 -12.35 15.3 -12.35" fill="#e4e4e4" fill-rule="evenodd" stroke="none"/>
    <path d="M-6.9 -12.35 L-5.75 -9.95 -7.7 -9.95 -8.8 -12.35 -6.9 -12.35" fill="#e4e4e4" fill-rule="evenodd" stroke="none"/>
    <path d="M-5.3 -12.4 L-4.15 -10.0 -6.05 -10.0 -7.2 -12.4 -5.3 -12.4" fill="#bc100d" fill-rule="evenodd" stroke="none"/>
    <path d="M-3.35 -12.35 L-2.2 -9.95 -4.15 -9.95 -5.3 -12.35 -3.35 -12.35" fill="#e4e4e4" fill-rule="evenodd" stroke="none"/>
    <path d="M-1.55 -12.4 L-0.4 -10.0 -2.3 -10.0 -3.45 -12.4 -1.55 -12.4" fill="#bc100d" fill-rule="evenodd" stroke="none"/>
    <path d="M0.45 -12.35 L1.6 -9.95 -0.35 -9.95 -1.5 -12.35 0.45 -12.35" fill="#e4e4e4" fill-rule="evenodd" stroke="none"/>
    <path d="M2.0 -12.4 L3.15 -10.0 1.25 -10.0 0.1 -12.4 2.0 -12.4" fill="#bc100d" fill-rule="evenodd" stroke="none"/>
    <path d="M3.95 -12.35 L5.1 -9.95 3.15 -9.95 2.0 -12.35 3.95 -12.35" fill="#e4e4e4" fill-rule="evenodd" stroke="none"/>
    <path d="M-14.55 -12.35 L-13.4 -9.95 -15.35 -9.95 -16.5 -12.35 -14.55 -12.35" fill="#e4e4e4" fill-rule="evenodd" stroke="none"/>
    <path d="M-12.75 -12.4 L-11.6 -10.0 -13.5 -10.0 -14.65 -12.4 -12.75 -12.4" fill="#bc100d" fill-rule="evenodd" stroke="none"/>
    <path d="M-10.8 -12.35 L-9.65 -9.95 -11.6 -9.95 -12.75 -12.35 -10.8 -12.35" fill="#e4e4e4" fill-rule="evenodd" stroke="none"/>
    <path d="M-9.2 -12.4 L-8.1 -10.0 -9.95 -10.0 -11.1 -12.4 -9.2 -12.4" fill="#bc100d" fill-rule="evenodd" stroke="none"/>
    <path d="M-7.3 -12.35 L-6.15 -9.95 -8.1 -9.95 -9.2 -12.35 -7.3 -12.35" fill="#e4e4e4" fill-rule="evenodd" stroke="none"/>
    <path d="M-11.2 -0.45 L-11.2 18.1 -16.35 18.1 -16.35 -0.45 -11.2 -0.45" fill="#cccccc" fill-rule="evenodd" stroke="none"/>
    <path d="M-15.8 16.1 L-15.8 1.55 -11.75 1.55 -11.75 16.1 -15.8 16.1" fill="#ffffff" fill-rule="evenodd" stroke="none"/>
    <path d="M16.55 -0.45 L16.55 18.1 11.4 18.1 11.4 -0.45 16.55 -0.45" fill="#cccccc" fill-rule="evenodd" stroke="none"/>
    <path d="M11.95 16.1 L11.95 1.55 16.0 1.55 16.0 16.1 11.95 16.1" fill="#ffffff" fill-rule="evenodd" stroke="none"/>
  </g>
  <defs>
    <linearGradient gradientTransform="matrix(0.0, 0.0085, -0.0039, 0.0, 1.3, 3.45)" gradientUnits="userSpaceOnUse" id="gradient0" spreadMethod="pad" x1="-819.2" x2="819.2">
      <stop offset="0.0" stop-color="#332f30"/>
      <stop offset="0.36470588235294116" stop-color="#dfdbdc"/>
      <stop offset="0.5176470588235295" stop-color="#a7a7a7"/>
      <stop offset="0.6901960784313725" stop-color="#dfdbdc"/>
      <stop offset="1.0" stop-color="#332f30"/>
    </linearGradient>
    <linearGradient gradientTransform="matrix(0.0, 0.0245, -0.0039, 0.0, 1.3, 3.6)" gradientUnits="userSpaceOnUse" id="gradient1" spreadMethod="pad" x1="-819.2" x2="819.2">
      <stop offset="0.0" stop-color="#332f30"/>
      <stop offset="0.36470588235294116" stop-color="#dfdbdc"/>
      <stop offset="0.5176470588235295" stop-color="#a7a7a7"/>
      <stop offset="0.6901960784313725" stop-color="#dfdbdc"/>
      <stop offset="1.0" stop-color="#332f30"/>
    </linearGradient>
    <linearGradient gradientTransform="matrix(0.0, 0.0175, -0.0039, 0.0, 1.0, 17.3)" gradientUnits="userSpaceOnUse" id="gradient2" spreadMethod="pad" x1="-819.2" x2="819.2">
      <stop offset="0.0" stop-color="#332f30"/>
      <stop offset="0.36470588235294116" stop-color="#dfdbdc"/>
      <stop offset="0.5176470588235295" stop-color="#a7a7a7"/>
      <stop offset="0.6901960784313725" stop-color="#dfdbdc"/>
      <stop offset="1.0" stop-color="#332f30"/>
    </linearGradient>
    <linearGradient gradientTransform="matrix(0.0, -0.0065, 0.0041, 0.0, 1.05, 12.05)" gradientUnits="userSpaceOnUse" id="gradient3" spreadMethod="pad" x1="-819.2" x2="819.2">
      <stop offset="0.0" stop-color="#332f30"/>
      <stop offset="0.36470588235294116" stop-color="#dfdbdc"/>
      <stop offset="0.5176470588235295" stop-color="#a7a7a7"/>
      <stop offset="0.6901960784313725" stop-color="#dfdbdc"/>
      <stop offset="1.0" stop-color="#332f30"/>
    </linearGradient>
    <linearGradient gradientTransform="matrix(-0.0072, 0.0, 0.0, -0.0053, 0.65, 14.0)" gradientUnits="userSpaceOnUse" id="gradient4" spreadMethod="pad" x1="-819.2" x2="819.2">
      <stop offset="0.0" stop-color="#332f30"/>
      <stop offset="0.36470588235294116" stop-color="#dfdbdc"/>
      <stop offset="0.5176470588235295" stop-color="#a7a7a7"/>
      <stop offset="0.6901960784313725" stop-color="#dfdbdc"/>
      <stop offset="1.0" stop-color="#332f30"/>
    </linearGradient>
    <linearGradient gradientTransform="matrix(-0.0054, 0.0, 0.0, -0.0053, 0.65, 14.2)" gradientUnits="userSpaceOnUse" id="gradient5" spreadMethod="pad" x1="-819.2" x2="819.2">
      <stop offset="0.0" stop-color="#332f30"/>
      <stop offset="0.36470588235294116" stop-color="#dfdbdc"/>
      <stop offset="0.5176470588235295" stop-color="#a7a7a7"/>
      <stop offset="0.6901960784313725" stop-color="#dfdbdc"/>
      <stop offset="1.0" stop-color="#332f30"/>
    </linearGradient>
    <linearGradient gradientTransform="matrix(-0.0072, 0.0, 0.0, -0.0052, 0.65, 14.5)" gradientUnits="userSpaceOnUse" id="gradient6" spreadMethod="pad" x1="-819.2" x2="819.2">
      <stop offset="0.0" stop-color="#332f30"/>
      <stop offset="0.36470588235294116" stop-color="#dfdbdc"/>
      <stop offset="0.5176470588235295" stop-color="#a7a7a7"/>
      <stop offset="0.6901960784313725" stop-color="#dfdbdc"/>
      <stop offset="1.0" stop-color="#332f30"/>
    </linearGradient>
    <linearGradient gradientTransform="matrix(-1.0E-4, -0.0072, 0.0051, -1.0E-4, -3.2, 17.0)" gradientUnits="userSpaceOnUse" id="gradient7" spreadMethod="pad" x1="-819.2" x2="819.2">
      <stop offset="0.0" stop-color="#332f30"/>
      <stop offset="0.36470588235294116" stop-color="#dfdbdc"/>
      <stop offset="0.5176470588235295" stop-color="#a7a7a7"/>
      <stop offset="0.6901960784313725" stop-color="#dfdbdc"/>
      <stop offset="1.0" stop-color="#332f30"/>
    </linearGradient>
    <linearGradient gradientTransform="matrix(-0.0016, 0.0, 0.0, -0.0034, 0.65, 20.3)" gradientUnits="userSpaceOnUse" id="gradient8" spreadMethod="pad" x1="-819.2" x2="819.2">
      <stop offset="0.0" stop-color="#332f30"/>
      <stop offset="0.36470588235294116" stop-color="#dfdbdc"/>
      <stop offset="0.5176470588235295" stop-color="#a7a7a7"/>
      <stop offset="0.6901960784313725" stop-color="#dfdbdc"/>
      <stop offset="1.0" stop-color="#332f30"/>
    </linearGradient>
    <linearGradient gradientTransform="matrix(-0.0021, 0.0, 0.0, -0.0033, 0.65, 20.45)" gradientUnits="userSpaceOnUse" id="gradient9" spreadMethod="pad" x1="-819.2" x2="819.2">
      <stop offset="0.0" stop-color="#332f30"/>
      <stop offset="0.36470588235294116" stop-color="#dfdbdc"/>
      <stop offset="0.5176470588235295" stop-color="#a7a7a7"/>
      <stop offset="0.6901960784313725" stop-color="#dfdbdc"/>
      <stop offset="1.0" stop-color="#332f30"/>
    </linearGradient>
    <linearGradient gradientTransform="matrix(0.0, -0.0046, 0.0015, 0.0, -0.5, 22.05)" gradientUnits="userSpaceOnUse" id="gradient10" spreadMethod="pad" x1="-819.2" x2="819.2">
      <stop offset="0.0" stop-color="#332f30"/>
      <stop offset="0.36470588235294116" stop-color="#dfdbdc"/>
      <stop offset="0.5176470588235295" stop-color="#a7a7a7"/>
      <stop offset="0.6901960784313725" stop-color="#dfdbdc"/>
      <stop offset="1.0" stop-color="#332f30"/>
    </linearGradient>
    <linearGradient gradientTransform="matrix(0.0, -0.0042, 0.0012, 0.0, 0.75, 18.9)" gradientUnits="userSpaceOnUse" id="gradient11" spreadMethod="pad" x1="-819.2" x2="819.2">
      <stop offset="0.0" stop-color="#332f30"/>
      <stop offset="0.36470588235294116" stop-color="#dfdbdc"/>
      <stop offset="0.5176470588235295" stop-color="#a7a7a7"/>
      <stop offset="0.6901960784313725" stop-color="#dfdbdc"/>
      <stop offset="1.0" stop-color="#332f30"/>
    </linearGradient>
    <linearGradient gradientTransform="matrix(-0.0021, 0.0, 0.0, -0.0034, 0.65, 20.15)" gradientUnits="userSpaceOnUse" id="gradient12" spreadMethod="pad" x1="-819.2" x2="819.2">
      <stop offset="0.0" stop-color="#332f30"/>
      <stop offset="0.36470588235294116" stop-color="#dfdbdc"/>
      <stop offset="0.5176470588235295" stop-color="#a7a7a7"/>
      <stop offset="0.6901960784313725" stop-color="#dfdbdc"/>
      <stop offset="1.0" stop-color="#332f30"/>
    </linearGradient>
    <linearGradient gradientTransform="matrix(-0.0021, 0.0, 0.0, -0.0023, 0.65, 25.1)" gradientUnits="userSpaceOnUse" id="gradient13" spreadMethod="pad" x1="-819.2" x2="819.2">
      <stop offset="0.0" stop-color="#332f30"/>
      <stop offset="0.36470588235294116" stop-color="#dfdbdc"/>
      <stop offset="0.5176470588235295" stop-color="#a7a7a7"/>
      <stop offset="0.6901960784313725" stop-color="#dfdbdc"/>
      <stop offset="1.0" stop-color="#332f30"/>
    </linearGradient>
    <linearGradient gradientTransform="matrix(0.0, -0.0032, 0.0015, 0.0, -0.5, 26.2)" gradientUnits="userSpaceOnUse" id="gradient14" spreadMethod="pad" x1="-819.2" x2="819.2">
      <stop offset="0.0" stop-color="#332f30"/>
      <stop offset="0.36470588235294116" stop-color="#dfdbdc"/>
      <stop offset="0.5176470588235295" stop-color="#a7a7a7"/>
      <stop offset="0.6901960784313725" stop-color="#dfdbdc"/>
      <stop offset="1.0" stop-color="#332f30"/>
    </linearGradient>
    <linearGradient gradientTransform="matrix(0.0, -0.0028, 0.0012, 0.0, 0.75, 24.05)" gradientUnits="userSpaceOnUse" id="gradient15" spreadMethod="pad" x1="-819.2" x2="819.2">
      <stop offset="0.0" stop-color="#332f30"/>
      <stop offset="0.36470588235294116" stop-color="#dfdbdc"/>
      <stop offset="0.5176470588235295" stop-color="#a7a7a7"/>
      <stop offset="0.6901960784313725" stop-color="#dfdbdc"/>
      <stop offset="1.0" stop-color="#332f30"/>
    </linearGradient>
    <linearGradient gradientTransform="matrix(-0.0021, 0.0, 0.0, -0.0023, 0.65, 24.9)" gradientUnits="userSpaceOnUse" id="gradient16" spreadMethod="pad" x1="-819.2" x2="819.2">
      <stop offset="0.0" stop-color="#332f30"/>
      <stop offset="0.36470588235294116" stop-color="#dfdbdc"/>
      <stop offset="0.5176470588235295" stop-color="#a7a7a7"/>
      <stop offset="0.6901960784313725" stop-color="#dfdbdc"/>
      <stop offset="1.0" stop-color="#332f30"/>
    </linearGradient>
    <linearGradient gradientTransform="matrix(-0.0016, 0.0, 0.0, -0.0023, 0.65, 25.0)" gradientUnits="userSpaceOnUse" id="gradient17" spreadMethod="pad" x1="-819.2" x2="819.2">
      <stop offset="0.0" stop-color="#332f30"/>
      <stop offset="0.36470588235294116" stop-color="#dfdbdc"/>
      <stop offset="0.5176470588235295" stop-color="#a7a7a7"/>
      <stop offset="0.6901960784313725" stop-color="#dfdbdc"/>
      <stop offset="1.0" stop-color="#332f30"/>
    </linearGradient>
    <linearGradient gradientTransform="matrix(-0.0016, 0.0, 0.0, -0.0066, 2.4, 7.25)" gradientUnits="userSpaceOnUse" id="gradient18" spreadMethod="pad" x1="-819.2" x2="819.2">
      <stop offset="0.0" stop-color="#332f30"/>
      <stop offset="0.36470588235294116" stop-color="#dfdbdc"/>
      <stop offset="0.5176470588235295" stop-color="#a7a7a7"/>
      <stop offset="0.6901960784313725" stop-color="#dfdbdc"/>
      <stop offset="1.0" stop-color="#332f30"/>
    </linearGradient>
    <linearGradient gradientTransform="matrix(-0.0012, 0.0, 0.0, -0.0067, 2.4, 6.9)" gradientUnits="userSpaceOnUse" id="gradient19" spreadMethod="pad" x1="-819.2" x2="819.2">
      <stop offset="0.0" stop-color="#332f30"/>
      <stop offset="0.36470588235294116" stop-color="#dfdbdc"/>
      <stop offset="0.5176470588235295" stop-color="#a7a7a7"/>
      <stop offset="0.6901960784313725" stop-color="#dfdbdc"/>
      <stop offset="1.0" stop-color="#332f30"/>
    </linearGradient>
    <linearGradient gradientTransform="matrix(0.0, -0.0091, 0.0011, -1.0E-4, 1.55, 10.45)" gradientUnits="userSpaceOnUse" id="gradient20" spreadMethod="pad" x1="-819.2" x2="819.2">
      <stop offset="0.0" stop-color="#332f30"/>
      <stop offset="0.36470588235294116" stop-color="#dfdbdc"/>
      <stop offset="0.5176470588235295" stop-color="#a7a7a7"/>
      <stop offset="0.6901960784313725" stop-color="#dfdbdc"/>
      <stop offset="1.0" stop-color="#332f30"/>
    </linearGradient>
    <linearGradient gradientTransform="matrix(0.0, -0.0082, 9.0E-4, 0.0, 2.5, 4.25)" gradientUnits="userSpaceOnUse" id="gradient21" spreadMethod="pad" x1="-819.2" x2="819.2">
      <stop offset="0.0" stop-color="#332f30"/>
      <stop offset="0.36470588235294116" stop-color="#dfdbdc"/>
      <stop offset="0.5176470588235295" stop-color="#a7a7a7"/>
      <stop offset="0.6901960784313725" stop-color="#dfdbdc"/>
      <stop offset="1.0" stop-color="#332f30"/>
    </linearGradient>
    <linearGradient gradientTransform="matrix(-0.0016, 0.0, 0.0, -0.0067, 2.4, 6.65)" gradientUnits="userSpaceOnUse" id="gradient22" spreadMethod="pad" x1="-819.2" x2="819.2">
      <stop offset="0.0" stop-color="#332f30"/>
      <stop offset="0.36470588235294116" stop-color="#dfdbdc"/>
      <stop offset="0.5176470588235295" stop-color="#a7a7a7"/>
      <stop offset="0.6901960784313725" stop-color="#dfdbdc"/>
      <stop offset="1.0" stop-color="#332f30"/>
    </linearGradient>
    <linearGradient gradientTransform="matrix(-0.0016, 0.0, 0.0, -0.0066, -1.4, 7.25)" gradientUnits="userSpaceOnUse" id="gradient23" spreadMethod="pad" x1="-819.2" x2="819.2">
      <stop offset="0.0" stop-color="#332f30"/>
      <stop offset="0.36470588235294116" stop-color="#dfdbdc"/>
      <stop offset="0.5176470588235295" stop-color="#a7a7a7"/>
      <stop offset="0.6901960784313725" stop-color="#dfdbdc"/>
      <stop offset="1.0" stop-color="#332f30"/>
    </linearGradient>
    <linearGradient gradientTransform="matrix(0.0, -0.0091, 0.0011, -1.0E-4, -2.25, 10.45)" gradientUnits="userSpaceOnUse" id="gradient24" spreadMethod="pad" x1="-819.2" x2="819.2">
      <stop offset="0.0" stop-color="#332f30"/>
      <stop offset="0.36470588235294116" stop-color="#dfdbdc"/>
      <stop offset="0.5176470588235295" stop-color="#a7a7a7"/>
      <stop offset="0.6901960784313725" stop-color="#dfdbdc"/>
      <stop offset="1.0" stop-color="#332f30"/>
    </linearGradient>
    <linearGradient gradientTransform="matrix(-0.0012, 0.0, 0.0, -0.0067, -1.4, 6.9)" gradientUnits="userSpaceOnUse" id="gradient25" spreadMethod="pad" x1="-819.2" x2="819.2">
      <stop offset="0.0" stop-color="#332f30"/>
      <stop offset="0.36470588235294116" stop-color="#dfdbdc"/>
      <stop offset="0.5176470588235295" stop-color="#a7a7a7"/>
      <stop offset="0.6901960784313725" stop-color="#dfdbdc"/>
      <stop offset="1.0" stop-color="#332f30"/>
    </linearGradient>
    <linearGradient gradientTransform="matrix(-0.0016, 0.0, 0.0, -0.0067, -1.4, 6.65)" gradientUnits="userSpaceOnUse" id="gradient26" spreadMethod="pad" x1="-819.2" x2="819.2">
      <stop offset="0.0" stop-color="#332f30"/>
      <stop offset="0.36470588235294116" stop-color="#dfdbdc"/>
      <stop offset="0.5176470588235295" stop-color="#a7a7a7"/>
      <stop offset="0.6901960784313725" stop-color="#dfdbdc"/>
      <stop offset="1.0" stop-color="#332f30"/>
    </linearGradient>
    <linearGradient gradientTransform="matrix(0.0, -0.0082, 9.0E-4, 0.0, -1.3, 4.25)" gradientUnits="userSpaceOnUse" id="gradient27" spreadMethod="pad" x1="-819.2" x2="819.2">
      <stop offset="0.0" stop-color="#332f30"/>
      <stop offset="0.36470588235294116" stop-color="#dfdbdc"/>
      <stop offset="0.5176470588235295" stop-color="#a7a7a7"/>
      <stop offset="0.6901960784313725" stop-color="#dfdbdc"/>
      <stop offset="1.0" stop-color="#332f30"/>
    </linearGradient>
    <linearGradient gradientTransform="matrix(2.0E-4, 0.0089, 0.0092, -2.0E-4, -10.45, -24.25)" gradientUnits="userSpaceOnUse" id="gradient28" spreadMethod="pad" x1="-819.2" x2="819.2">
      <stop offset="0.00784313725490196" stop-color="#e21414"/>
      <stop offset="0.8156862745098039" stop-color="#6f1209"/>
      <stop offset="0.9882352941176471" stop-color="#d62121"/>
    </linearGradient>
    <linearGradient gradientTransform="matrix(-2.0E-4, 0.0089, -0.0092, -2.0E-4, 10.7, -24.25)" gradientUnits="userSpaceOnUse" id="gradient29" spreadMethod="pad" x1="-819.2" x2="819.2">
      <stop offset="0.00784313725490196" stop-color="#e21414"/>
      <stop offset="0.8156862745098039" stop-color="#6f1209"/>
      <stop offset="0.9882352941176471" stop-color="#d62121"/>
    </linearGradient>
    <linearGradient gradientTransform="matrix(1.0E-4, -0.0069, 0.0122, 1.0E-4, 0.6, -24.25)" gradientUnits="userSpaceOnUse" id="gradient30" spreadMethod="pad" x1="-819.2" x2="819.2">
      <stop offset="0.00784313725490196" stop-color="#e21414"/>
      <stop offset="0.8156862745098039" stop-color="#6f1209"/>
      <stop offset="0.9882352941176471" stop-color="#d62121"/>
    </linearGradient>
    <radialGradient cx="0" cy="0" gradientTransform="matrix(-0.0046, 0.0, 0.0, -0.0032, 8.15, -31.8)" gradientUnits="userSpaceOnUse" id="gradient31" r="819.2" spreadMethod="pad">
      <stop offset="0.0" stop-color="#ffffff"/>
      <stop offset="1.0" stop-color="#ffffff" stop-opacity="0.0"/>
    </radialGradient>
    <radialGradient cx="0" cy="0" gradientTransform="matrix(0.0046, 0.0, 0.0, -0.0032, -8.05, -31.8)" gradientUnits="userSpaceOnUse" id="gradient32" r="819.2" spreadMethod="pad">
      <stop offset="0.0" stop-color="#ffffff"/>
      <stop offset="1.0" stop-color="#ffffff" stop-opacity="0.0"/>
    </radialGradient>
  </defs>
</svg>
