<?xml version="1.0" encoding="UTF-8" standalone="no"?>
<svg xmlns:xlink="http://www.w3.org/1999/xlink" height="44.2px" width="24.0px" xmlns="http://www.w3.org/2000/svg">
  <g transform="matrix(1, 0, 0, 1, 12.0, 22.05)">
    <path d="M7.75 -20.25 Q9.75 -18.85 10.15 -16.5 L10.2 -16.5 10.2 17.7 10.15 17.7 Q10.15 20.05 7.95 20.6 L0.35 21.2 -7.65 20.6 Q-10.25 20.05 -10.15 17.7 L-10.15 -16.5 -10.0 -16.5 Q-10.0 -18.65 -7.15 -20.4 -4.0 -22.25 0.8 -22.0 5.6 -21.7 7.75 -20.25" fill="#666666" fill-rule="evenodd" stroke="none"/>
    <path d="M7.45 -19.45 Q9.4 -18.05 9.8 -15.7 L9.85 -15.7 9.85 18.65 9.8 18.65 Q9.8 21.0 7.65 21.55 L0.3 22.15 -7.4 21.55 Q-9.9 21.0 -9.8 18.65 L-9.8 -15.7 -9.65 -15.7 Q-9.65 -17.85 -6.9 -19.6 -3.9 -21.45 0.75 -21.2 5.4 -20.9 7.45 -19.45" fill="url(#gradient0)" fill-rule="evenodd" stroke="none"/>
    <path d="M7.95 -13.45 L7.3 -9.05 6.45 -9.15 7.15 -13.55 7.95 -13.45 M-5.3 -4.55 L-6.25 -4.35 -7.55 -13.45 -6.65 -13.6 -5.45 -5.65 -5.3 -4.55" fill="#303030" fill-rule="evenodd" stroke="none"/>
    <path d="M0.75 -15.35 L8.15 -14.8 7.95 -13.45 7.15 -13.55 -0.15 -13.95 0.75 -15.35 M1.35 -4.75 L-5.3 -4.55 -5.45 -5.65 1.35 -5.65 1.35 -4.75" fill="#50504e" fill-rule="evenodd" stroke="none"/>
    <path d="M7.3 -9.05 L6.6 -4.35 1.35 -4.75 1.35 -5.65 1.85 -9.15 Q2.8 -9.85 6.45 -9.15 L7.3 -9.05" fill="#202020" fill-rule="evenodd" stroke="none"/>
    <path d="M-0.15 -13.95 L7.15 -13.55 6.45 -9.15 Q2.8 -9.85 1.85 -9.15 L1.35 -5.65 -5.45 -5.65 -6.65 -13.6 -0.15 -13.95" fill="#7e7e7c" fill-rule="evenodd" stroke="none"/>
    <path d="M-7.55 -13.45 L-7.7 -14.8 0.75 -15.35 -0.15 -13.95 -6.65 -13.6 -7.55 -13.45" fill="#020200" fill-rule="evenodd" stroke="none"/>
    <path d="M-7.35 -3.85 L-7.35 3.25 Q-8.05 3.75 -8.75 2.45 L-8.75 -7.2 Q-8.25 -8.25 -7.35 -3.85" fill="#303030" fill-rule="evenodd" stroke="none"/>
    <path d="M-7.35 16.7 Q-8.05 18.55 -8.75 18.15 L-8.75 5.35 Q-8.05 4.75 -7.35 5.75 L-7.35 16.7" fill="#303030" fill-rule="evenodd" stroke="none"/>
    <path d="M5.95 20.8 Q-0.15 21.5 -6.2 20.8 -7.15 19.85 -5.85 19.55 -0.2 19.85 5.95 19.55 7.1 20.15 5.95 20.8" fill="#303030" fill-rule="evenodd" stroke="none"/>
    <path d="M7.65 -3.8 Q8.55 -7.9 9.05 -7.15 L9.05 2.5 Q8.65 3.45 7.65 3.3 L7.65 -3.8" fill="#303030" fill-rule="evenodd" stroke="none"/>
    <path d="M7.55 16.6 L7.55 5.65 Q8.25 4.7 8.95 5.25 L8.95 18.05 Q8.1 18.95 7.55 16.6" fill="#303030" fill-rule="evenodd" stroke="none"/>
    <path d="M3.5 -18.7 Q3.3 -19.05 3.4 -19.35 3.55 -19.9 4.3 -19.95 L6.05 -19.7 7.55 -18.6 Q8.15 -18.0 8.0 -17.45 L7.6 -17.0 7.25 -17.45 5.7 -18.5 4.0 -18.8 3.5 -18.7" fill="#f5f5f3" fill-rule="evenodd" stroke="none"/>
    <path d="M7.6 -17.0 Q7.4 -16.85 6.8 -17.2 L5.65 -17.7 4.35 -18.15 3.5 -18.7 4.0 -18.8 5.7 -18.5 7.25 -17.45 7.6 -17.0" fill="#9d9d9b" fill-rule="evenodd" stroke="none"/>
    <path d="M-7.4 -17.1 L-7.05 -17.55 -5.5 -18.6 -3.8 -18.9 -3.3 -18.8 Q-3.45 -18.5 -4.0 -18.4 L-5.25 -17.9 -6.6 -17.25 -7.4 -17.1" fill="#9d9d9b" fill-rule="evenodd" stroke="none"/>
    <path d="M-3.3 -18.8 L-3.8 -18.9 -5.5 -18.6 -7.05 -17.55 -7.4 -17.1 Q-7.7 -17.25 -7.8 -17.55 -7.95 -18.1 -7.35 -18.7 -6.8 -19.4 -5.85 -19.8 L-4.1 -20.05 Q-3.35 -20.0 -3.2 -19.45 -3.1 -19.15 -3.3 -18.8" fill="#f5f5f3" fill-rule="evenodd" stroke="none"/>
    <path d="M1.7 -14.35 L1.85 -13.85 1.4 -11.2 0.45 -8.2 0.45 -8.15 Q-0.3 -4.85 1.9 -9.35 4.15 -13.9 4.75 -14.4 5.35 -14.9 5.6 -14.55 5.85 -14.15 5.1 -12.05 L4.5 -10.4 3.1 -6.5 3.35 -7.3 Q2.65 -5.25 -1.25 -5.3 -5.25 -5.35 -3.85 -9.65 -2.4 -13.9 -1.55 -14.7 -0.7 -15.5 -0.85 -14.5 L-1.6 -11.75 -2.25 -9.85 -2.2 -9.7 Q-3.1 -6.95 -1.0 -10.65 L1.15 -14.55 1.7 -14.35" fill="url(#gradient1)" fill-rule="evenodd" stroke="none"/>
    <path d="M4.75 -3.6 Q6.4 -3.05 6.35 -1.9 L6.35 16.95 Q6.15 18.45 5.1 18.55 L-5.05 18.55 Q-5.95 18.25 -6.3 16.2 L-6.3 -2.15 -4.75 -3.6 4.75 -3.6" fill="url(#gradient2)" fill-rule="evenodd" stroke="none"/>
    <path d="M12.0 -7.15 L12.0 -6.95 11.45 -6.45 10.2 -6.55 8.9 -7.05 Q8.4 -7.4 8.4 -7.75 L8.35 -8.0 8.85 -7.7 9.15 -7.45 9.5 -7.15 10.3 -7.0 11.55 -7.15 12.0 -7.15" fill="#303030" fill-rule="evenodd" stroke="none"/>
    <path d="M8.35 -8.0 L8.5 -8.35 Q8.6 -8.65 9.2 -8.7 L10.6 -8.55 11.55 -8.15 11.85 -7.7 12.0 -7.15 11.55 -7.15 11.55 -7.35 11.4 -7.45 10.75 -7.45 10.65 -7.55 9.45 -7.8 9.35 -7.7 9.35 -7.65 9.25 -7.65 9.15 -7.5 9.15 -7.45 8.85 -7.7 8.35 -8.0" fill="#898989" fill-rule="evenodd" stroke="none"/>
    <path d="M11.55 -7.15 L10.3 -7.0 9.5 -7.15 9.15 -7.45 9.15 -7.5 9.25 -7.65 9.35 -7.65 9.35 -7.7 9.45 -7.8 10.65 -7.55 10.75 -7.45 11.4 -7.45 11.55 -7.35 11.55 -7.15" fill="#cccccc" fill-rule="evenodd" stroke="none"/>
    <path d="M-8.3 -8.0 L-8.35 -7.75 Q-8.35 -7.4 -8.85 -7.05 L-10.15 -6.55 -11.4 -6.45 Q-11.9 -6.6 -11.95 -6.95 L-11.95 -7.15 -11.5 -7.15 -10.25 -7.0 -9.45 -7.15 -9.1 -7.45 -8.8 -7.7 -8.3 -8.0" fill="#303030" fill-rule="evenodd" stroke="none"/>
    <path d="M-8.3 -8.0 L-8.8 -7.7 -9.1 -7.45 -9.1 -7.5 -9.2 -7.65 -9.3 -7.65 -9.3 -7.7 -9.4 -7.8 -10.6 -7.55 -10.7 -7.45 -11.35 -7.45 -11.5 -7.35 -11.5 -7.15 -11.95 -7.15 -11.8 -7.7 -11.5 -8.15 -10.55 -8.55 -9.15 -8.7 Q-8.55 -8.65 -8.45 -8.35 L-8.3 -8.0" fill="#898989" fill-rule="evenodd" stroke="none"/>
    <path d="M-9.1 -7.45 L-9.45 -7.15 -10.25 -7.0 -11.5 -7.15 -11.5 -7.35 -11.35 -7.45 -10.7 -7.45 -10.6 -7.55 -9.4 -7.8 -9.3 -7.7 -9.3 -7.65 -9.2 -7.65 -9.1 -7.5 -9.1 -7.45" fill="#cccccc" fill-rule="evenodd" stroke="none"/>
  </g>
  <defs>
    <linearGradient gradientTransform="matrix(0.0, -0.0193, 0.012, 0.0, -0.85, -4.85)" gradientUnits="userSpaceOnUse" id="gradient0" spreadMethod="pad" x1="-819.2" x2="819.2">
      <stop offset="0.0" stop-color="#dddddd"/>
      <stop offset="0.6509803921568628" stop-color="#848484"/>
      <stop offset="1.0" stop-color="#cccccc"/>
    </linearGradient>
    <linearGradient gradientTransform="matrix(-0.0016, 0.0045, -0.0057, -0.002, 0.4, -8.45)" gradientUnits="userSpaceOnUse" id="gradient1" spreadMethod="pad" x1="-819.2" x2="819.2">
      <stop offset="0.0" stop-color="#dddddd" stop-opacity="0.43137255"/>
      <stop offset="0.6509803921568628" stop-color="#000000" stop-opacity="0.28235295"/>
      <stop offset="1.0" stop-color="#cccccc" stop-opacity="0.84313726"/>
    </linearGradient>
    <linearGradient gradientTransform="matrix(0.0, 0.0357, -0.0077, 0.0, -0.8, 24.75)" gradientUnits="userSpaceOnUse" id="gradient2" spreadMethod="pad" x1="-819.2" x2="819.2">
      <stop offset="0.0" stop-color="#dddddd"/>
      <stop offset="0.6509803921568628" stop-color="#848484"/>
      <stop offset="1.0" stop-color="#cccccc"/>
    </linearGradient>
  </defs>
</svg>
