<?xml version="1.0" encoding="UTF-8" standalone="no"?>
<svg xmlns:xlink="http://www.w3.org/1999/xlink" height="51.2px" width="27.3px" xmlns="http://www.w3.org/2000/svg">
  <g transform="matrix(1, 0, 0, 1, 13.7, 25.6)">
    <path d="M3.0 -25.4 Q5.55 -25.0 7.65 -23.75 10.7 -21.9 10.7 -19.3 L10.6 -18.5 10.7 -18.5 10.7 20.15 10.55 20.15 Q10.2 22.25 7.5 23.8 4.4 25.6 0.05 25.6 -4.3 25.6 -7.35 23.8 -10.5 22.05 -10.5 19.5 L-10.45 18.85 -10.45 -18.5 -10.3 -18.5 -10.4 -19.3 Q-10.4 -21.9 -7.25 -23.75 -4.85 -25.2 -1.75 -25.55 L-1.75 -24.65 3.0 -24.65 3.0 -25.4" fill="url(#gradient0)" fill-rule="evenodd" stroke="none"/>
    <path d="M-1.75 -25.55 L0.15 -25.6 3.0 -25.4 3.0 -24.65 -1.75 -24.65 -1.75 -25.55" fill="#545452" fill-rule="evenodd" stroke="none"/>
    <path d="M3.85 -4.8 Q7.15 -3.15 8.15 -10.25 3.05 -13.2 -0.85 -12.7 -4.75 -12.25 -5.9 -11.15 L-7.5 -9.7 Q-6.35 -3.2 -4.0 -5.0 L3.85 -4.8 M7.05 -3.35 Q0.0 -4.9 -6.65 -3.35 L-8.65 -11.0 -6.7 -13.15 Q-5.15 -15.0 0.4 -15.15 5.95 -15.35 9.1 -10.6 L7.05 -3.35" fill="#181a19" fill-rule="evenodd" stroke="none"/>
    <path d="M0.05 -6.8 L3.05 -6.4 4.9 -6.35 5.35 -6.85 6.0 -7.3 Q6.45 -7.85 6.45 -8.55 6.45 -10.8 1.15 -11.6 L-0.45 -11.6 Q-4.1 -11.5 -4.1 -9.75 L-3.75 -8.25 -3.6 -7.4 Q-3.25 -6.7 -2.25 -6.7 L0.05 -6.8 M3.85 -4.8 L-4.0 -5.0 Q-6.35 -3.2 -7.5 -9.7 L-5.9 -11.15 Q-4.75 -12.25 -0.85 -12.7 3.05 -13.2 8.15 -10.25 7.15 -3.15 3.85 -4.8" fill="#333534" fill-rule="evenodd" stroke="none"/>
    <path d="M0.05 -6.8 L-2.25 -6.7 Q-3.25 -6.7 -3.6 -7.4 L-3.75 -8.25 -4.1 -9.75 Q-4.1 -11.5 -0.45 -11.6 L1.15 -11.6 Q6.45 -10.8 6.45 -8.55 6.45 -7.85 6.0 -7.3 L5.35 -6.85 4.9 -6.35 3.05 -6.4 0.05 -6.8" fill="#7e7e7e" fill-rule="evenodd" stroke="none"/>
    <path d="M5.65 -6.75 L5.0 -5.55 Q2.75 -3.9 3.85 -6.25 4.85 -8.6 1.75 -5.85 -1.3 -3.15 0.5 -6.75 2.3 -10.25 0.95 -9.3 L-1.75 -7.0 Q-3.0 -5.55 -4.0 -5.4 -4.85 -5.3 -5.25 -6.7 -5.6 -8.1 -4.7 -10.65 -3.8 -13.2 -2.75 -13.7 -1.75 -14.2 -1.75 -13.4 -1.85 -12.55 -2.4 -11.25 L-3.0 -9.75 -2.9 -9.6 Q-4.0 -7.15 -1.1 -11.25 1.9 -15.4 0.85 -12.45 -0.1 -9.5 1.2 -11.3 L3.05 -13.2 Q4.95 -13.1 4.05 -11.55 3.2 -10.0 3.05 -9.3 3.0 -8.65 4.85 -10.2 6.65 -11.75 7.05 -11.4 7.45 -10.95 6.75 -9.3 L6.15 -8.05 5.65 -6.75" fill="url(#gradient1)" fill-rule="evenodd" stroke="none"/>
    <path d="M6.3 9.75 L6.85 10.6 7.7 17.8 Q6.25 20.15 2.35 20.7 L-3.8 20.45 Q-5.95 19.7 -7.15 17.75 L-6.2 10.15 -5.4 9.65 Q0.25 10.2 6.3 9.75 M7.0 17.55 Q6.8 9.75 4.5 10.75 0.1 11.55 -4.1 10.75 -5.8 10.3 -6.35 17.6 L-5.8 18.0 Q-4.7 18.9 0.4 19.15 5.4 19.35 7.0 17.55" fill="#181a19" fill-rule="evenodd" stroke="none"/>
    <path d="M7.0 17.55 Q5.4 19.35 0.4 19.15 -4.7 18.9 -5.8 18.0 L-6.35 17.6 Q-5.8 10.3 -4.1 10.75 0.1 11.55 4.5 10.75 6.8 9.75 7.0 17.55 M5.65 17.25 L5.75 16.95 5.9 14.3 Q5.9 12.1 2.3 12.15 L-2.45 12.5 Q-3.5 12.85 -3.9 13.25 L-4.3 14.05 -4.35 16.75 Q-4.0 18.3 -0.55 18.3 L-0.45 18.35 1.15 18.35 Q5.4 18.0 5.65 17.25" fill="#333534" fill-rule="evenodd" stroke="none"/>
    <path d="M5.65 17.25 Q5.4 18.0 1.15 18.35 L-0.45 18.35 -0.55 18.3 Q-4.0 18.3 -4.35 16.75 L-4.3 14.05 -3.9 13.25 Q-3.5 12.85 -2.45 12.5 L2.3 12.15 Q5.9 12.1 5.9 14.3 L5.75 16.95 5.65 17.25" fill="#7e7e7e" fill-rule="evenodd" stroke="none"/>
    <path d="M0.5 10.8 L2.8 10.8 1.35 14.6 Q-1.2 21.5 -0.1 16.55 0.9 11.6 -0.3 14.7 L-1.8 17.85 Q-3.15 17.65 -2.35 15.05 L-1.4 11.35 Q-1.35 10.25 -2.75 12.8 -4.25 15.4 -4.5 14.75 -4.75 14.0 -4.0 11.35 L-3.95 10.8 -0.3 10.8 Q-0.5 12.25 0.15 11.35 L0.5 10.8 M3.05 10.8 L4.5 10.8 4.05 13.6 Q3.1 17.85 2.35 18.7 1.55 19.55 1.65 18.15 L2.35 14.6 2.9 12.05 2.9 11.8 3.05 10.8" fill="url(#gradient2)" fill-rule="evenodd" stroke="none"/>
    <path d="M13.6 -9.75 L13.6 -9.55 Q13.55 -9.15 12.95 -9.0 L11.6 -9.1 Q10.75 -9.25 10.15 -9.65 9.55 -10.05 9.55 -10.45 L9.5 -10.7 10.05 -10.4 10.4 -10.1 10.8 -9.75 11.7 -9.6 13.1 -9.75 13.6 -9.75" fill="#303030" fill-rule="evenodd" stroke="none"/>
    <path d="M9.5 -10.7 L9.7 -11.15 Q9.8 -11.5 10.45 -11.55 L12.0 -11.4 13.1 -10.9 13.4 -10.4 13.6 -9.75 13.1 -9.75 13.1 -10.0 12.9 -10.1 12.2 -10.1 12.1 -10.2 10.75 -10.5 10.65 -10.4 10.65 -10.3 10.5 -10.3 10.4 -10.15 10.4 -10.1 10.05 -10.4 9.5 -10.7" fill="#737371" fill-rule="evenodd" stroke="none"/>
    <path d="M10.4 -10.1 L10.4 -10.15 10.5 -10.3 10.65 -10.3 10.65 -10.4 10.75 -10.5 12.1 -10.2 12.2 -10.1 12.9 -10.1 13.1 -10.0 13.1 -9.75 11.7 -9.6 10.8 -9.75 10.4 -10.1" fill="#cccccc" fill-rule="evenodd" stroke="none"/>
    <path d="M-13.15 -9.75 L-13.15 -10.0 -12.95 -10.1 -12.25 -10.1 -12.15 -10.2 -10.8 -10.5 -10.7 -10.4 -10.7 -10.3 -10.55 -10.3 -10.5 -10.15 -10.5 -10.1 -10.85 -9.75 -11.75 -9.6 -13.15 -9.75" fill="#cccccc" fill-rule="evenodd" stroke="none"/>
    <path d="M-10.5 -10.1 L-10.5 -10.15 -10.55 -10.3 -10.7 -10.3 -10.7 -10.4 -10.8 -10.5 -12.15 -10.2 -12.25 -10.1 -12.95 -10.1 -13.15 -10.0 -13.15 -9.75 -13.65 -9.75 -13.45 -10.4 -13.15 -10.9 -12.05 -11.4 -10.5 -11.55 Q-9.9 -11.5 -9.8 -11.15 L-9.6 -10.7 -10.15 -10.4 Q-10.35 -10.2 -10.5 -10.1" fill="#737371" fill-rule="evenodd" stroke="none"/>
    <path d="M-13.15 -9.75 L-11.75 -9.6 -10.85 -9.75 -10.5 -10.1 Q-10.35 -10.2 -10.15 -10.4 L-9.6 -10.7 -9.65 -10.45 Q-9.65 -10.05 -10.2 -9.65 L-11.6 -9.1 -13.0 -9.0 Q-13.6 -9.15 -13.65 -9.55 L-13.65 -9.75 -13.15 -9.75" fill="#303030" fill-rule="evenodd" stroke="none"/>
    <path d="M4.2 -22.85 Q4.0 -23.3 4.1 -23.65 4.25 -24.2 5.1 -24.0 6.0 -23.85 7.05 -23.1 8.1 -22.35 8.75 -21.35 9.4 -20.45 9.25 -19.9 L8.8 -19.6 8.4 -20.2 Q7.75 -21.15 6.65 -21.9 5.6 -22.65 4.8 -22.8 L4.2 -22.85" fill="#b3b3b3" fill-rule="evenodd" stroke="none"/>
    <path d="M4.2 -22.85 L4.8 -22.8 Q5.6 -22.65 6.65 -21.9 7.75 -21.15 8.4 -20.2 L8.8 -19.6 Q8.55 -19.45 7.9 -20.1 L6.6 -21.05 5.15 -21.95 4.2 -22.85" fill="#9d9d9b" fill-rule="evenodd" stroke="none"/>
    <path d="M-3.45 -22.95 L-4.4 -22.05 Q-5.2 -21.5 -5.85 -21.15 L-7.15 -20.2 Q-7.8 -19.55 -8.05 -19.7 L-7.65 -20.3 -5.9 -22.0 Q-4.85 -22.75 -4.05 -22.9 L-3.45 -22.95" fill="#9d9d9b" fill-rule="evenodd" stroke="none"/>
    <path d="M-3.45 -22.95 L-4.05 -22.9 Q-4.85 -22.75 -5.9 -22.0 L-7.65 -20.3 -8.05 -19.7 -8.5 -20.0 Q-8.65 -20.55 -8.0 -21.45 L-6.3 -23.2 Q-5.25 -23.95 -4.35 -24.1 -3.5 -24.3 -3.35 -23.75 -3.25 -23.4 -3.45 -22.95" fill="#b3b3b3" fill-rule="evenodd" stroke="none"/>
    <path d="M8.3 -2.95 Q9.55 -6.85 9.4 -2.95 L9.4 2.7 Q8.95 3.55 8.25 3.5 L8.25 -2.5 8.3 -2.95" fill="#545452" fill-rule="evenodd" stroke="none"/>
    <path d="M8.3 -2.95 Q9.45 -8.65 9.9 -8.0 L9.9 1.6 9.4 2.7 9.4 -2.95 Q9.55 -6.85 8.3 -2.95" fill="#181a19" fill-rule="evenodd" stroke="none"/>
    <path d="M8.25 5.9 Q9.25 4.9 9.15 7.4 L9.15 14.85 9.05 14.85 8.25 9.35 8.25 5.9" fill="#545452" fill-rule="evenodd" stroke="none"/>
    <path d="M9.05 14.85 L9.15 14.85 9.15 7.4 Q9.25 4.9 8.25 5.9 L8.25 5.4 Q9.2 4.55 9.8 5.1 L9.8 16.0 Q9.45 16.45 9.05 14.85" fill="#181a19" fill-rule="evenodd" stroke="none"/>
    <path d="M-8.75 2.7 Q-9.1 2.4 -9.25 1.6 L-9.25 -8.0 Q-8.8 -8.65 -7.65 -2.95 -8.9 -6.85 -8.75 -2.95 L-8.75 2.7" fill="#181a19" fill-rule="evenodd" stroke="none"/>
    <path d="M-7.65 -2.95 L-7.6 -2.5 -7.6 3.5 Q-8.3 3.55 -8.75 2.7 L-8.75 -2.95 Q-8.9 -6.85 -7.65 -2.95" fill="#545452" fill-rule="evenodd" stroke="none"/>
    <path d="M-7.6 5.9 Q-8.6 4.9 -8.5 7.4 L-8.5 14.85 -8.4 14.85 Q-8.8 16.45 -9.15 16.0 L-9.15 5.1 Q-8.55 4.55 -7.6 5.4 L-7.6 5.9" fill="#181a19" fill-rule="evenodd" stroke="none"/>
    <path d="M-8.4 14.85 L-8.5 14.85 -8.5 7.4 Q-8.6 4.9 -7.6 5.9 L-7.6 9.35 -8.4 14.85" fill="#545452" fill-rule="evenodd" stroke="none"/>
    <path d="M0.35 25.35 L-2.3 25.1 Q-4.65 24.8 -6.1 24.1 L-7.75 23.25 Q-10.75 19.55 -9.35 20.75 -7.85 21.95 -5.2 22.85 -2.45 23.75 1.9 23.85 6.25 24.0 6.3 23.4 8.7 22.65 6.3 24.1 5.1 24.75 2.85 25.1 L0.35 25.35" fill="#949494" fill-rule="evenodd" stroke="none"/>
    <path d="M4.2 -2.45 Q6.55 -2.45 6.55 -0.6 L6.55 6.95 Q6.55 8.85 4.2 8.85 L-3.5 8.85 Q-5.9 8.85 -5.9 6.95 L-5.9 -0.6 Q-5.9 -2.45 -3.5 -2.45 L4.2 -2.45" fill="url(#gradient3)" fill-rule="evenodd" stroke="none"/>
    <path d="M2.55 -21.95 Q4.5 -21.65 6.2 -20.4 7.9 -19.2 7.25 -16.75 6.55 -14.3 7.6 -13.65 -0.95 -18.25 -6.8 -13.45 -5.3 -15.3 -6.25 -17.1 -7.15 -18.95 -5.9 -20.6 L-5.7 -20.6 -5.05 -20.95 Q-3.8 -21.7 -1.8 -21.95 L0.45 -22.25 2.55 -21.95" fill="#949494" fill-opacity="0.5137255" fill-rule="evenodd" stroke="none"/>
  </g>
  <defs>
    <linearGradient gradientTransform="matrix(0.0, 0.0309, -0.0312, 0.0, 0.1, 0.05)" gradientUnits="userSpaceOnUse" id="gradient0" spreadMethod="pad" x1="-819.2" x2="819.2">
      <stop offset="0.0" stop-color="#777777"/>
      <stop offset="0.6588235294117647" stop-color="#111111"/>
      <stop offset="1.0" stop-color="#7b7b7b"/>
    </linearGradient>
    <linearGradient gradientTransform="matrix(-0.0033, 0.0019, -0.0045, -0.0076, 1.5, -8.1)" gradientUnits="userSpaceOnUse" id="gradient1" spreadMethod="pad" x1="-819.2" x2="819.2">
      <stop offset="0.0" stop-color="#dddddd" stop-opacity="0.43137255"/>
      <stop offset="0.6509803921568628" stop-color="#000000" stop-opacity="0.28235295"/>
      <stop offset="1.0" stop-color="#cccccc" stop-opacity="0.84313726"/>
    </linearGradient>
    <linearGradient gradientTransform="matrix(0.0015, -0.0057, 0.0055, 0.0061, 0.4, 8.5)" gradientUnits="userSpaceOnUse" id="gradient2" spreadMethod="pad" x1="-819.2" x2="819.2">
      <stop offset="0.0" stop-color="#dddddd" stop-opacity="0.11372549"/>
      <stop offset="0.6509803921568628" stop-color="#000000" stop-opacity="0.28235295"/>
      <stop offset="1.0" stop-color="#cccccc" stop-opacity="0.84313726"/>
    </linearGradient>
    <linearGradient gradientTransform="matrix(0.0, 0.0256, -0.0069, 0.0, -0.7, 8.8)" gradientUnits="userSpaceOnUse" id="gradient3" spreadMethod="pad" x1="-819.2" x2="819.2">
      <stop offset="0.0" stop-color="#777777"/>
      <stop offset="0.6588235294117647" stop-color="#111111"/>
      <stop offset="1.0" stop-color="#7b7b7b"/>
    </linearGradient>
  </defs>
</svg>
