<?xml version="1.0" encoding="UTF-8" standalone="no"?>
<svg xmlns:xlink="http://www.w3.org/1999/xlink" height="16.8px" width="6.4px" xmlns="http://www.w3.org/2000/svg">
  <g transform="matrix(1, 0, 0, 1, 3.2, 8.4)">
    <path d="M0.5 -8.4 Q1.65 -8.4 2.4 -7.75 3.2 -7.15 3.2 -6.25 L3.2 6.25 Q3.2 7.15 2.4 7.75 1.65 8.4 0.5 8.4 L-0.5 8.4 Q-1.65 8.4 -2.5 7.75 -3.2 7.15 -3.2 6.25 L-3.2 -6.25 Q-3.2 -7.15 -2.5 -7.75 -1.65 -8.4 -0.5 -8.4 L0.5 -8.4" fill="#000000" fill-rule="evenodd" stroke="none"/>
    <path d="M0.5 -8.4 Q1.5 -8.4 2.25 -7.75 2.9 -7.15 2.9 -6.25 L2.9 6.25 Q2.9 7.15 2.25 7.75 1.5 8.4 0.5 8.4 L-0.45 8.4 Q-1.4 8.4 -2.15 7.75 -2.85 7.15 -2.85 6.25 L-2.85 -6.25 Q-2.85 -7.15 -2.15 -7.75 -1.4 -8.4 -0.45 -8.4 L0.5 -8.4" fill="url(#gradient0)" fill-rule="evenodd" stroke="none"/>
    <path d="M0.85 -1.2 L1.8 -2.2 Q2.5 -2.85 2.5 -2.0 L-0.05 0.9 Q-0.45 0.9 -0.45 0.55 L0.15 -0.3 0.85 -1.2 M0.15 2.75 L-1.65 1.5 -2.55 0.65 -2.55 -0.05 -2.2 0.15 -1.15 1.0 -0.2 1.7 0.5 2.35 Q0.5 2.75 0.15 2.75 M2.7 1.5 L1.2 3.05 Q0.45 4.45 -0.05 4.45 -0.45 4.45 -0.45 4.1 L1.2 2.05 Q2.7 0.35 2.7 1.5 M-1.7 -6.3 L-1.05 -5.55 Q0.0 -4.6 0.0 -4.1 0.0 -3.7 -0.3 -3.7 -0.65 -3.7 -1.5 -4.95 L-2.05 -5.55 Q-2.4 -5.8 -2.4 -6.2 L-2.25 -6.45 -1.7 -6.3 M-1.5 -1.85 Q-2.65 -2.75 -2.65 -3.05 -2.65 -3.7 -2.0 -3.2 L-1.2 -2.5 Q0.3 -1.5 0.3 -1.05 0.3 -0.7 -0.15 -0.7 -0.55 -0.7 -0.65 -0.9 L-0.65 -1.2 Q-0.7 -1.4 -1.5 -1.85 M-0.45 -2.75 Q2.0 -6.4 2.0 -4.75 L-0.05 -2.35 Q-0.3 -2.35 -0.45 -2.55 L-0.45 -2.75 M-2.55 4.25 L-2.55 3.35 -1.2 4.6 -0.9 5.05 -0.45 5.35 Q0.3 5.55 0.3 6.05 L-0.05 6.4 Q-0.7 6.4 -2.55 4.25" fill="#000000" fill-rule="evenodd" stroke="none"/>
  </g>
  <defs>
    <radialGradient cx="0" cy="0" gradientTransform="matrix(0.0045, 0.0, 0.0, 0.0104, 0.05, 0.0)" gradientUnits="userSpaceOnUse" id="gradient0" r="819.2" spreadMethod="pad">
      <stop offset="0.0" stop-color="#7b7b7b"/>
      <stop offset="1.0" stop-color="#000000"/>
    </radialGradient>
  </defs>
</svg>
