<?xml version="1.0" encoding="UTF-8" standalone="no"?>
<svg xmlns:xlink="http://www.w3.org/1999/xlink" height="58.1px" width="25.75px" xmlns="http://www.w3.org/2000/svg">
  <g transform="matrix(1, 0, 0, 1, 12.8, 29.0)">
    <path d="M10.1 -27.45 L10.95 -27.45 11.05 -26.5 11.05 26.5 Q11.05 27.55 10.5 28.05 L10.1 26.75 10.1 -27.45 M6.9 28.7 L-7.0 28.7 -7.0 26.75 -1.05 26.75 -0.35 18.3 0.25 26.75 6.9 26.75 6.9 28.7 M-10.0 27.75 L-10.25 26.5 -10.25 -26.5 -10.1 -27.45 -9.35 -27.45 -9.4 26.75 -10.0 27.75 M-6.15 -27.45 L-6.05 -27.45 -5.55 -7.05 -7.0 -8.6 -6.15 -27.45 M0.1 -27.45 L0.3 -28.2 0.7 -9.3 -0.5 -9.3 0.1 -27.45 M7.15 -27.45 L7.5 -27.45 8.2 -8.75 6.9 -7.55 7.15 -27.45" fill="#ae7409" fill-rule="evenodd" stroke="none"/>
    <path d="M10.1 -27.45 L10.1 26.75 6.9 26.75 0.25 26.75 -0.35 18.3 -1.05 26.75 -7.0 26.75 -9.4 26.75 -9.35 -27.45 -6.15 -27.45 -7.0 -8.6 -5.55 -7.05 -6.05 -27.45 0.1 -27.45 -0.5 -9.3 0.7 -9.3 0.3 -28.2 7.15 -27.45 6.9 -7.55 8.2 -8.75 7.5 -27.45 10.1 -27.45" fill="#eca412" fill-rule="evenodd" stroke="none"/>
    <path d="M10.1 26.75 L10.5 28.05 Q10.0 28.7 8.8 28.7 L6.9 28.7 6.9 26.75 10.1 26.75 M-7.0 28.7 L-8.0 28.7 Q-9.45 28.7 -10.0 27.75 L-9.4 26.75 -7.0 26.75 -7.0 28.7" fill="#775006" fill-rule="evenodd" stroke="none"/>
    <path d="M3.7 -28.7 L8.8 -28.7 10.35 -28.7 11.05 -28.35 11.4 -28.1 11.45 -27.85 11.45 -27.75 Q11.6 -26.85 10.55 -27.45 L10.15 -28.2 8.8 -28.2 8.8 -28.15 3.7 -28.15 3.7 -28.2 -3.1 -28.15 -3.1 -28.1 -7.3 -28.1 -7.3 -28.15 -9.65 -28.15 -9.7 -28.0 -10.3 -27.45 -10.7 -27.75 Q-10.9 -27.9 -10.6 -28.25 L-9.7 -28.7 -7.3 -28.7 -3.1 -28.7 3.7 -28.7" fill="#999999" fill-rule="evenodd" stroke="none"/>
    <path d="M10.55 -27.45 L-10.3 -27.45 -9.7 -28.0 -9.65 -28.15 -7.3 -28.15 -7.3 -28.1 -3.1 -28.1 -3.1 -28.15 3.7 -28.2 3.7 -28.15 8.8 -28.15 8.8 -28.2 10.15 -28.2 10.55 -27.45" fill="#ffffff" fill-rule="evenodd" stroke="none"/>
    <path d="M8.8 -28.7 L8.8 -28.9 9.4 -28.9 9.85 -28.9 Q10.05 -28.75 10.15 -28.75 L10.35 -28.7 8.8 -28.7 M-9.7 -28.7 L-9.6 -28.75 -9.0 -29.0 -8.45 -29.0 -7.3 -29.0 -7.3 -28.7 -9.7 -28.7 M-3.1 -28.7 L-3.1 -28.9 3.7 -28.9 3.7 -28.7 -3.1 -28.7" fill="#333333" fill-rule="evenodd" stroke="none"/>
    <path d="M10.05 27.55 L11.1 27.55 10.9 27.85 10.85 27.9 10.75 28.1 10.45 28.4 9.85 28.8 8.4 28.8 3.55 28.8 -2.9 28.8 -6.85 28.8 -9.15 28.8 -9.6 28.4 -9.7 28.25 -9.75 28.1 -9.95 27.9 -10.1 27.55 -9.7 27.55 -9.15 28.1 -9.1 28.25 -6.85 28.25 -6.85 28.2 -2.9 28.2 -2.9 28.25 3.55 28.3 3.55 28.25 8.4 28.25 8.4 28.3 9.7 28.3 10.05 27.55" fill="#999999" fill-rule="evenodd" stroke="none"/>
    <path d="M9.85 28.8 L9.7 28.85 Q9.55 28.85 9.4 29.0 L8.95 29.0 8.4 29.0 8.4 28.8 9.85 28.8 M3.55 28.8 L3.55 29.0 -2.9 29.0 -2.9 28.8 3.55 28.8 M-6.85 28.8 L-6.85 29.1 -7.95 29.1 -8.5 29.1 -9.05 28.85 -9.15 28.8 -6.85 28.8" fill="#333333" fill-rule="evenodd" stroke="none"/>
    <path d="M-9.7 27.55 L10.05 27.55 9.7 28.3 8.4 28.3 8.4 28.25 3.55 28.25 3.55 28.3 -2.9 28.25 -2.9 28.2 -6.85 28.2 -6.85 28.25 -9.1 28.25 -9.15 28.1 -9.7 27.55" fill="#ffffff" fill-rule="evenodd" stroke="none"/>
    <path d="M8.25 14.35 L8.35 15.75 8.0 16.45 Q-0.5 18.15 -8.2 16.45 -8.45 13.35 -6.2 11.7 L6.5 11.7 7.9 13.05 Q7.9 13.75 8.25 14.05 L8.25 14.35" fill="#f0cf88" fill-rule="evenodd" stroke="none"/>
    <path d="M-0.3 12.15 L5.0 12.15 5.1 12.3 -0.35 12.3 -0.3 12.15 M-0.65 12.8 L5.35 12.75 5.95 13.8 6.4 15.4 5.8 15.6 5.55 15.65 5.3 15.7 4.65 15.8 4.6 15.8 4.3 15.8 4.15 15.8 3.9 15.6 1.0 15.4 -1.05 15.3 -2.45 15.3 Q-1.5 14.35 -0.65 12.8" fill="#576b86" fill-rule="evenodd" stroke="none"/>
    <path d="M5.0 12.15 L5.55 12.15 5.9 12.1 6.15 12.15 6.2 12.15 Q7.05 12.65 7.9 15.4 L7.85 15.65 7.9 15.8 7.7 15.8 7.6 15.9 7.55 15.85 6.45 16.1 4.95 16.25 4.05 16.4 3.9 15.6 4.15 15.8 4.3 15.8 4.6 15.8 4.65 15.8 5.3 15.7 5.55 15.65 5.8 15.6 6.4 15.4 5.95 13.8 5.35 12.75 -0.65 12.8 -2.45 12.85 -2.65 12.6 -2.6 12.4 -0.6 12.3 -0.35 12.3 5.1 12.3 5.0 12.15 M-5.55 16.15 L-6.8 16.1 -6.85 16.05 -7.2 16.1 -7.8 15.85 -7.85 15.85 -7.8 15.75 -7.8 15.35 Q-7.8 14.8 -7.1 13.55 L-6.05 12.15 -5.8 12.1 -5.5 12.15 -3.4 12.15 -3.45 12.3 -3.2 12.3 -2.95 12.5 -3.05 12.75 -3.7 12.8 -3.75 12.9 -4.55 14.4 -4.9 14.3 -5.4 14.35 -6.3 14.3 -6.4 15.4 -5.75 15.6 -5.25 15.65 -0.65 15.9 -0.5 15.9 -0.4 16.15 -1.5 16.4 -3.8 16.25 -5.55 16.15" fill="#201a26" fill-rule="evenodd" stroke="none"/>
    <path d="M4.05 16.4 Q-0.35 16.85 -5.55 16.15 L-3.8 16.25 -1.5 16.4 -0.4 16.15 -0.5 15.9 -0.65 15.9 -5.25 15.65 -4.55 14.4 -3.75 12.9 -3.7 12.8 -3.05 12.75 -2.95 12.5 -3.2 12.3 -3.45 12.3 -3.4 12.15 -0.3 12.15 -0.35 12.3 -0.6 12.3 -2.6 12.4 -2.65 12.6 -2.45 12.85 -0.65 12.8 Q-1.5 14.35 -2.45 15.3 L-1.05 15.3 1.0 15.4 3.9 15.6 4.05 16.4" fill="#383c45" fill-rule="evenodd" stroke="none"/>
    <path d="M-5.25 15.65 L-5.75 15.6 -6.4 15.4 -6.3 14.3 -5.4 14.35 -4.9 14.3 -4.55 14.4 -5.25 15.65" fill="#a9bbbd" fill-rule="evenodd" stroke="none"/>
    <path d="M7.15 -6.55 Q0.45 -7.05 -6.4 -6.4 -8.75 -8.55 -8.5 -12.65 -0.3 -14.85 8.75 -12.75 L9.15 -11.85 9.05 -10.7 9.05 -10.65 7.15 -6.55" fill="#f0cf88" fill-rule="evenodd" stroke="none"/>
    <path d="M-1.4 -12.75 L-1.2 -12.95 0.05 -12.95 1.45 -12.85 4.95 -12.75 4.95 -12.7 7.2 -12.4 8.35 -12.05 8.4 -11.9 8.7 -11.9 8.55 -11.7 8.7 -11.35 8.2 -9.9 7.75 -8.5 6.85 -7.15 6.8 -7.15 6.5 -7.05 6.1 -6.9 5.25 -7.05 3.95 -7.15 3.85 -7.15 Q3.65 -7.15 3.4 -7.3 L-0.1 -7.25 -0.4 -7.25 -0.7 -7.3 -2.55 -7.35 -2.6 -7.55 -2.4 -7.9 -1.0 -8.0 -0.5 -7.9 5.95 -7.9 6.2 -8.45 6.55 -9.25 6.65 -9.6 7.05 -11.35 6.4 -11.6 6.15 -11.7 5.9 -11.8 5.2 -11.9 5.15 -11.9 4.85 -11.9 4.6 -11.9 4.35 -11.6 4.5 -12.3 2.85 -12.35 2.35 -12.4 1.25 -12.45 0.45 -12.45 -0.4 -12.45 -0.25 -12.3 -0.3 -12.0 -0.5 -12.0 -3.1 -11.8 -5.4 -11.6 -5.85 -11.5 -6.55 -11.25 -6.45 -9.8 -5.5 -9.9 -5.05 -9.8 Q-4.6 -9.7 -4.6 -9.95 L-3.75 -8.0 -3.7 -7.85 -2.95 -7.8 -2.9 -7.45 Q-2.9 -7.15 -3.2 -7.15 L-3.45 -7.15 -3.4 -7.05 -4.7 -7.05 -4.75 -7.0 -5.85 -6.9 -5.9 -6.95 -6.2 -7.05 Q-6.7 -7.35 -7.35 -8.85 -8.1 -10.45 -8.1 -11.2 L-8.1 -11.7 -8.15 -11.9 -8.1 -11.9 Q-8.0 -12.2 -7.45 -12.2 L-7.1 -12.1 -7.05 -12.2 -6.95 -12.25 -5.9 -12.45 -3.2 -12.95 -2.45 -12.95 -2.4 -12.7 Q-2.45 -12.6 -2.75 -12.55 L-1.4 -12.6 -1.4 -12.75" fill="#201a26" fill-rule="evenodd" stroke="none"/>
    <path d="M-0.05 -7.1 L-3.4 -7.05 -3.45 -7.15 -3.2 -7.15 Q-2.9 -7.15 -2.9 -7.45 L-2.95 -7.8 -3.7 -7.85 -3.75 -8.0 -4.6 -9.95 -5.4 -11.6 -3.1 -11.8 -2.3 -10.45 -1.65 -9.2 Q-1.5 -9.05 -1.15 -9.2 L-0.5 -7.9 -1.0 -8.0 -2.4 -7.9 -2.6 -7.55 -2.55 -7.35 -0.7 -7.3 -0.4 -7.25 -0.1 -7.25 -0.05 -7.1 M0.45 -12.45 L1.25 -12.45 2.35 -12.4 2.85 -11.45 1.3 -11.3 1.1 -11.3 0.45 -12.45" fill="#383c45" fill-rule="evenodd" stroke="none"/>
    <path d="M3.85 -7.15 L-0.05 -7.1 -0.1 -7.25 3.4 -7.3 Q3.65 -7.15 3.85 -7.15 M6.65 -9.6 L6.55 -9.25 6.2 -8.45 5.95 -7.9 -0.5 -7.9 -1.15 -9.2 -1.05 -9.2 2.35 -8.95 1.6 -10.45 1.1 -11.3 1.3 -11.3 2.85 -11.45 3.35 -10.4 3.5 -10.15 5.6 -9.75 6.65 -9.6" fill="#576b86" fill-rule="evenodd" stroke="none"/>
    <path d="M-2.4 -12.7 L-1.4 -12.75 -1.4 -12.6 -2.75 -12.55 Q-2.45 -12.6 -2.4 -12.7 M2.35 -12.4 L2.85 -12.35 4.5 -12.3 4.35 -11.6 4.6 -11.9 4.85 -11.9 5.15 -11.9 5.2 -11.9 5.9 -11.8 6.15 -11.7 6.4 -11.6 7.05 -11.35 6.65 -9.6 5.6 -9.75 3.5 -10.15 3.35 -10.4 2.85 -11.45 2.35 -12.4 M1.1 -11.3 L1.6 -10.45 2.35 -8.95 -1.05 -9.2 -1.15 -9.2 Q-1.5 -9.05 -1.65 -9.2 L-2.3 -10.45 -3.1 -11.8 -0.5 -12.0 -0.3 -12.0 -0.25 -12.3 -0.4 -12.45 0.45 -12.45 1.1 -11.3" fill="#8091a3" fill-rule="evenodd" stroke="none"/>
    <path d="M-4.6 -9.95 Q-4.6 -9.7 -5.05 -9.8 L-5.5 -9.9 -6.45 -9.8 -6.55 -11.25 -5.85 -11.5 -5.4 -11.6 -4.6 -9.95" fill="#a9bbbd" fill-rule="evenodd" stroke="none"/>
    <path d="M9.4 -7.15 L9.6 -7.05 9.6 12.15 9.25 12.35 9.25 12.6 8.85 11.9 8.85 9.25 9.0 7.55 9.0 2.6 9.0 -2.35 8.95 -5.4 Q8.95 -7.25 9.25 -7.25 L9.4 -7.15" fill="#fdc556" fill-rule="evenodd" stroke="none"/>
    <path d="M7.25 -3.25 L7.25 -3.3 7.6 -3.5 8.05 -2.5 Q7.85 -1.55 7.25 -1.55 L7.25 -2.1 7.15 -2.45 Q7.2 -2.3 7.45 -2.35 7.75 -2.4 7.75 -2.8 7.75 -3.3 7.45 -3.3 L7.25 -3.25 M7.75 2.8 L7.85 3.5 7.5 3.15 Q7.2 3.15 7.15 3.5 L7.15 3.9 7.2 4.3 7.15 4.3 7.1 4.0 7.15 3.3 7.3 2.8 7.5 2.65 7.75 2.8 M7.9 4.7 L7.55 5.55 Q7.15 6.0 7.15 5.3 L7.2 4.35 7.6 4.75 7.9 4.7 M7.15 0.7 Q7.15 -0.45 7.45 -0.45 7.9 -0.45 7.9 1.05 7.9 2.1 7.55 1.7 7.15 1.35 7.15 0.7" fill="#383c45" fill-rule="evenodd" stroke="none"/>
    <path d="M7.25 -3.25 L7.45 -3.3 Q7.75 -3.3 7.75 -2.8 7.75 -2.4 7.45 -2.35 7.2 -2.3 7.15 -2.45 L7.1 -2.8 7.25 -3.25 M7.85 3.5 L8.05 4.25 7.9 4.7 7.6 4.75 7.2 4.35 7.2 4.3 7.15 3.9 7.15 3.5 Q7.2 3.15 7.5 3.15 L7.85 3.5" fill="#9c807c" fill-rule="evenodd" stroke="none"/>
    <path d="M7.15 -2.45 L7.25 -2.1 7.25 -1.55 Q7.85 -1.55 8.05 -2.5 L7.6 -3.5 7.25 -3.3 7.25 -3.25 7.1 -2.8 7.15 -2.45 M7.75 2.8 L8.85 2.8 8.85 11.5 7.05 8.7 7.05 2.8 7.3 2.8 7.15 3.3 7.1 4.0 7.15 4.3 7.2 4.3 7.2 4.35 7.15 5.3 Q7.15 6.0 7.55 5.55 L7.9 4.7 8.05 4.25 7.85 3.5 7.75 2.8 M6.95 -3.45 L8.85 -7.55 8.85 1.95 6.95 1.95 6.95 -3.45 M7.15 0.7 Q7.15 1.35 7.55 1.7 7.9 2.1 7.9 1.05 7.9 -0.45 7.45 -0.45 7.15 -0.45 7.15 0.7" fill="#0b0600" fill-rule="evenodd" stroke="none"/>
    <path d="M-8.8 -7.15 L-8.7 -7.25 Q-8.4 -7.25 -8.4 -5.4 L-8.45 -2.35 -8.45 2.6 -8.45 7.55 -8.3 9.25 -8.3 11.9 -8.7 12.6 -8.7 12.35 -9.0 12.15 -9.0 -7.05 -8.8 -7.15" fill="#fdc556" fill-rule="evenodd" stroke="none"/>
    <path d="M-6.65 -2.45 L-6.75 -2.1 -6.75 -1.55 Q-7.3 -1.55 -7.45 -2.5 -7.3 -3.5 -7.05 -3.5 L-6.75 -3.3 -6.75 -3.25 -6.9 -3.3 Q-7.2 -3.3 -7.2 -2.8 -7.2 -2.4 -6.9 -2.35 L-6.65 -2.45 M-7.2 2.8 Q-7.1 2.65 -6.95 2.65 L-6.8 2.8 -6.65 3.3 -6.6 4.0 -6.65 4.3 -6.7 4.3 -6.65 3.9 -6.65 3.5 Q-6.7 3.15 -6.95 3.15 L-7.3 3.5 -7.2 2.8 M-6.65 0.7 Q-6.65 1.35 -7.0 1.7 -7.35 2.1 -7.35 1.05 -7.35 -0.45 -6.9 -0.45 -6.65 -0.45 -6.65 0.7 M-7.35 4.7 L-7.05 4.75 -6.7 4.35 -6.65 5.3 Q-6.65 6.0 -7.0 5.55 L-7.35 4.7" fill="#383c45" fill-rule="evenodd" stroke="none"/>
    <path d="M-6.65 -2.45 L-6.9 -2.35 Q-7.2 -2.4 -7.2 -2.8 -7.2 -3.3 -6.9 -3.3 L-6.75 -3.25 Q-6.6 -3.15 -6.6 -2.8 L-6.65 -2.45 M-7.3 3.5 L-6.95 3.15 Q-6.7 3.15 -6.65 3.5 L-6.65 3.9 -6.7 4.3 -6.7 4.35 -7.05 4.75 -7.35 4.7 -7.45 4.25 -7.3 3.5" fill="#9c807c" fill-rule="evenodd" stroke="none"/>
    <path d="M-6.75 -3.25 L-6.75 -3.3 -7.05 -3.5 Q-7.3 -3.5 -7.45 -2.5 -7.3 -1.55 -6.75 -1.55 L-6.75 -2.1 -6.65 -2.45 -6.6 -2.8 Q-6.6 -3.15 -6.75 -3.25 M-6.45 -3.45 L-6.45 1.95 -8.25 1.95 -8.25 -7.55 -6.45 -3.45 M-7.2 2.8 L-7.3 3.5 -7.45 4.25 -7.35 4.7 -7.0 5.55 Q-6.65 6.0 -6.65 5.3 L-6.7 4.35 -6.7 4.3 -6.65 4.3 -6.6 4.0 -6.65 3.3 -6.8 2.8 -6.55 2.8 -6.55 8.7 -8.25 11.5 -8.25 2.8 -7.2 2.8 M-6.65 0.7 Q-6.65 -0.45 -6.9 -0.45 -7.35 -0.45 -7.35 1.05 -7.35 2.1 -7.0 1.7 -6.65 1.35 -6.65 0.7" fill="#0b0600" fill-rule="evenodd" stroke="none"/>
    <path d="M-5.8 -27.0 L-0.05 -27.0 -0.05 -14.15 -0.65 -14.15 -5.15 -13.85 -5.8 -13.8 -5.8 -27.0 M-9.1 -24.8 Q-9.1 -27.0 -6.85 -27.0 L-6.65 -27.0 -6.65 -13.7 -9.0 -13.2 -9.1 -14.1 -9.1 -24.8 M6.85 26.45 L0.0 26.45 -0.6 18.25 -1.4 26.45 -6.5 26.45 Q-8.75 26.45 -8.75 24.25 L-8.75 16.95 Q-8.7 16.6 -4.2 17.55 L-0.6 17.9 -0.55 17.9 8.6 16.85 Q9.1 16.6 9.1 16.95 L9.1 24.25 Q9.1 26.45 6.85 26.45 M4.9 -5.9 Q6.45 -5.5 6.45 -3.85 L6.45 8.35 Q6.45 10.55 3.9 10.55 L-3.45 10.55 Q-5.8 10.5 -5.8 8.35 L-5.8 -3.85 Q-5.8 -5.5 -4.35 -5.9 L-3.25 -6.0 3.9 -6.0 4.9 -5.9 M0.4 -27.0 L7.3 -27.0 7.3 -13.45 0.4 -14.15 0.4 -27.0 M8.25 -26.95 Q9.8 -26.6 9.8 -24.8 L9.8 -12.95 8.25 -13.25 8.25 -26.95" fill="#fac251" fill-rule="evenodd" stroke="none"/>
    <path d="M3.15 0.85 L-3.25 0.85 -3.25 -1.95 3.15 -1.95 3.15 0.85" fill="#383c45" fill-rule="evenodd" stroke="none"/>
    <path d="M1.6 -1.6 L-1.95 -1.6 -1.95 0.25 1.6 0.25 1.6 -1.6 M-2.95 -1.75 L2.75 -1.75 2.75 0.6 -2.95 0.6 -2.95 -1.75" fill="#e4e4e7" fill-rule="evenodd" stroke="none"/>
    <path d="M1.6 -1.6 L1.6 0.25 -1.95 0.25 -1.95 -1.6 1.6 -1.6" fill="#c5c6cb" fill-rule="evenodd" stroke="none"/>
    <path d="M8.75 -8.85 L8.9 -9.3 Q9.0 -9.65 9.7 -9.7 L11.35 -9.55 12.45 -9.0 12.8 -8.5 12.95 -7.9 12.45 -7.9 12.45 -8.1 12.25 -8.25 11.5 -8.25 11.4 -8.35 10.0 -8.65 9.9 -8.5 9.9 -8.45 9.75 -8.45 9.65 -8.3 9.65 -8.25 9.3 -8.5 8.75 -8.85" fill="#eca412" fill-rule="evenodd" stroke="none"/>
    <path d="M9.65 -8.25 L9.65 -8.3 9.75 -8.45 9.9 -8.45 9.9 -8.5 10.0 -8.65 11.4 -8.35 11.5 -8.25 12.25 -8.25 12.45 -8.1 12.45 -7.9 11.0 -7.7 10.05 -7.9 9.65 -8.25" fill="#fac251" fill-rule="evenodd" stroke="none"/>
    <path d="M12.95 -7.9 L12.95 -7.65 Q12.9 -7.25 12.3 -7.1 L10.85 -7.2 Q10.0 -7.4 9.35 -7.8 8.8 -8.2 8.8 -8.55 L8.75 -8.85 9.3 -8.5 9.65 -8.25 10.05 -7.9 11.0 -7.7 12.45 -7.9 12.95 -7.9" fill="#303030" fill-rule="evenodd" stroke="none"/>
    <path d="M-8.5 -8.55 L-8.6 -8.3 Q-8.6 -7.9 -9.15 -7.5 L-10.65 -6.95 -12.1 -6.8 Q-12.7 -7.0 -12.75 -7.4 L-12.75 -7.6 -12.2 -7.6 -10.8 -7.45 -9.85 -7.6 -9.45 -7.95 -9.1 -8.25 -8.5 -8.55" fill="#303030" fill-rule="evenodd" stroke="none"/>
    <path d="M-9.45 -7.95 L-9.85 -7.6 -10.8 -7.45 -12.2 -7.6 -12.2 -7.85 -12.05 -7.95 -11.3 -7.95 -11.2 -8.05 -9.8 -8.35 -9.7 -8.25 -9.7 -8.2 -9.55 -8.2 -9.45 -8.0 -9.45 -7.95" fill="#fac251" fill-rule="evenodd" stroke="none"/>
    <path d="M-8.5 -8.55 L-9.1 -8.25 -9.45 -7.95 -9.45 -8.0 -9.55 -8.2 -9.7 -8.2 -9.7 -8.25 -9.8 -8.35 -11.2 -8.05 -11.3 -7.95 -12.05 -7.95 -12.2 -7.85 -12.2 -7.6 -12.75 -7.6 -12.55 -8.25 -12.2 -8.75 -11.1 -9.25 -9.5 -9.4 Q-8.8 -9.35 -8.7 -9.0 L-8.5 -8.55" fill="#eca412" fill-rule="evenodd" stroke="none"/>
  </g>
</svg>
