<?xml version="1.0" encoding="UTF-8" standalone="no"?>
<svg xmlns:xlink="http://www.w3.org/1999/xlink" height="147.5px" width="53.5px" xmlns="http://www.w3.org/2000/svg">
  <g transform="matrix(1, 0, 0, 1, 0.0, 0.0)">
    <path d="M46.4 2.65 L6.5 2.65 Q2.0 2.65 2.0 7.45 L2.0 139.7 2.0 139.8 2.0 139.85 2.0 139.95 2.0 140.1 Q2.15 144.55 6.5 144.55 L46.4 144.55 Q51.0 144.55 51.0 139.7 L51.0 7.45 Q51.0 2.65 46.4 2.65 M48.5 0.0 Q53.5 0.0 53.5 5.0 L53.5 142.5 Q53.5 147.5 48.5 147.5 L5.0 147.5 Q0.0 147.5 0.0 142.5 L0.0 5.0 Q0.0 0.0 5.0 0.0 L48.5 0.0" fill="#ffcc00" fill-opacity="0.7607843" fill-rule="evenodd" stroke="none"/>
  </g>
</svg>
