<?xml version="1.0" encoding="UTF-8" standalone="no"?>
<svg xmlns:xlink="http://www.w3.org/1999/xlink" height="2914.9px" width="2829.7px" xmlns="http://www.w3.org/2000/svg">
  <g transform="matrix(1, 0, 0, 1, 0.2, 14.9)">
    <path d="M2536.45 2764.05 L2537.85 2764.05 2537.85 2801.1 2536.45 2801.1 2536.45 2764.05 M2536.45 2342.15 L2537.85 2342.2 2537.85 2398.25 2536.45 2398.25 2536.45 2342.15 M2314.05 2342.15 L2315.45 2342.2 2315.45 2835.75 2314.05 2835.75 2314.05 2342.15 M2314.05 1732.85 L2315.45 1732.85 2315.45 2196.4 2314.05 2196.4 2314.05 1732.85 M2536.45 1732.85 L2537.85 1732.85 2537.85 2196.4 2536.45 2196.4 2536.45 1732.85 M2314.05 1485.7 L2315.45 1485.7 2315.45 1658.8 2314.05 1658.8 2314.05 1485.7 M2537.15 1115.55 L2537.85 1115.55 2537.85 1658.6 2536.45 1658.6 2536.45 1115.75 2536.7 1115.55 2537.15 1115.55 M2314.05 900.9 L2315.45 901.0 2315.45 1411.7 2314.05 1411.7 2314.05 900.9 M2536.45 597.1 L2537.85 597.1 2537.85 1041.6 2536.75 1041.4 2536.45 1041.3 2536.45 597.1 M2536.45 262.75 L2537.85 262.75 2537.85 522.85 2536.45 522.85 2536.45 262.75 M2314.05 262.75 L2315.45 262.75 2315.45 826.05 2314.05 826.1 2314.05 262.75 M2536.45 -3.2 L2537.85 -3.2 2537.85 115.35 2536.45 115.35 2536.45 -3.2 M2314.05 -3.2 L2315.45 -3.2 2315.45 115.95 2314.05 115.95 2314.05 -3.2" fill="#dfdfdf" fill-rule="evenodd" stroke="none"/>
    <path d="M2439.8 -7.6 L2443.55 -7.6 2443.55 50.0 2439.8 49.95 2439.8 -7.6 M2411.0 -7.6 L2414.75 -7.6 2414.75 50.0 2411.4 49.95 2411.0 50.05 2411.0 -7.6 M2335.8 -7.6 L2339.55 -7.6 2339.55 116.4 2338.05 116.1 2335.8 116.3 2335.8 -7.6 M2515.15 -7.6 L2515.15 114.25 Q2513.45 112.3 2511.4 113.5 L2511.4 -7.6 2515.15 -7.6 M2511.4 2782.95 L2515.15 2782.8 2515.15 2800.0 2511.4 2800.0 2511.4 2782.95 M2511.4 2765.75 L2515.15 2765.75 2515.15 2782.8 2511.4 2782.85 2511.4 2765.75 M2439.8 2770.0 L2443.55 2770.0 2443.55 2800.8 2439.8 2800.8 2439.8 2770.0 M2411.0 2766.85 L2414.75 2766.85 2414.75 2800.8 2411.0 2800.8 2411.0 2766.85 M2512.35 2344.0 Q2513.95 2344.0 2515.15 2343.4 L2515.15 2397.1 2511.4 2397.1 2511.4 2343.95 2512.35 2344.0 M2337.2 2343.35 L2339.55 2342.95 2339.55 2803.4 2335.8 2803.3 2335.8 2343.25 2337.2 2343.35 M2439.8 1804.85 L2441.1 1804.85 2443.55 1804.7 2443.55 2130.1 2439.8 2130.05 2439.8 1804.85 M2411.0 1803.25 L2414.75 1803.85 2414.75 2130.1 2412.75 2130.05 2411.0 2130.45 2411.0 1803.25 M2336.75 1739.25 Q2338.5 1739.25 2339.55 1738.7 L2339.55 2194.8 2337.2 2194.4 2335.8 2194.55 2335.8 1739.1 2336.75 1739.25 M2511.75 1740.9 Q2514.2 1740.9 2515.15 1740.15 L2515.15 2196.0 2513.0 2195.65 2511.4 2195.85 2511.4 1740.9 2511.75 1740.9 M2335.8 1486.0 L2339.55 1486.0 2339.55 1655.9 2338.05 1655.75 2335.8 1656.05 2335.8 1486.0 M2411.0 1189.0 L2414.75 1189.0 2414.75 1626.6 Q2412.85 1626.95 2411.0 1627.65 L2411.0 1189.0 M2439.8 1189.0 L2440.65 1189.0 2443.55 1188.3 2443.55 1629.6 2439.8 1629.45 2439.8 1189.0 M2513.0 1120.05 Q2514.25 1120.05 2515.15 1119.55 L2515.15 1655.9 2512.0 1655.95 2511.4 1656.15 2511.4 1119.65 Q2512.1 1120.05 2513.0 1120.05 M2337.5 903.3 L2339.55 902.95 2339.55 1411.15 2335.8 1411.15 2335.8 903.15 2337.5 903.3 M2513.5 606.4 L2515.15 606.2 2515.15 1040.45 Q2512.8 1038.15 2511.4 1038.7 L2511.4 606.1 2513.5 606.4 M2439.8 348.2 L2443.55 347.35 2443.55 761.2 2439.8 761.0 2439.8 348.2 M2511.4 267.0 Q2513.6 267.0 2515.15 266.1 L2515.15 520.2 2513.55 519.85 2511.4 520.1 2511.4 267.0 M2411.0 346.4 L2414.75 346.4 2414.75 767.25 2413.2 767.05 2411.0 767.1 2411.0 346.4 M2337.45 264.0 L2339.55 263.65 2339.55 827.5 Q2338.35 826.8 2336.9 826.8 L2335.8 826.9 2335.8 263.8 2337.45 264.0" fill="#dfdfdf" fill-rule="evenodd" stroke="none"/>
    <path d="M2505.55 -9.15 L2505.55 2800.8 2435.05 2800.85 2435.05 -9.15 2505.55 -9.15" fill="url(#gradient0)" fill-rule="evenodd" stroke="none"/>
    <path d="M2346.85 -9.15 L2421.7 -9.15 2421.7 2800.85 2346.85 2800.8 2346.85 -9.15" fill="url(#gradient1)" fill-rule="evenodd" stroke="none"/>
    <path d="M2410.85 2767.45 Q2410.85 2757.75 2421.4 2757.2 L2433.6 2757.2 2433.6 2760.95 2424.25 2760.9 Q2413.4 2761.3 2414.6 2769.45 L2414.55 2779.1 2410.85 2779.1 2410.85 2767.45" fill="#dfdfdf" fill-rule="evenodd" stroke="none"/>
    <path d="M2420.8 2757.2 L2433.0 2757.2 Q2443.55 2757.75 2443.55 2767.45 L2443.55 2779.1 2439.85 2779.1 2439.8 2769.45 Q2441.0 2761.3 2430.15 2760.9 L2420.8 2760.95 2420.8 2757.2" fill="#dfdfdf" fill-rule="evenodd" stroke="none"/>
    <path d="M2433.85 2139.6 L2421.65 2139.6 Q2411.1 2139.05 2411.1 2129.35 L2411.1 2117.7 2414.8 2117.7 2414.85 2127.35 Q2413.65 2135.5 2424.5 2135.9 L2433.85 2135.85 2433.85 2139.6" fill="#dfdfdf" fill-rule="evenodd" stroke="none"/>
    <path d="M2440.1 2117.7 L2443.8 2117.7 2443.8 2129.35 Q2443.8 2139.05 2433.25 2139.6 L2421.05 2139.6 2421.05 2135.85 2430.4 2135.9 Q2441.25 2135.5 2440.05 2127.35 L2440.1 2117.7" fill="#dfdfdf" fill-rule="evenodd" stroke="none"/>
    <path d="M2414.8 1816.6 L2411.1 1816.6 2411.1 1804.95 Q2411.1 1795.25 2421.65 1794.7 L2433.85 1794.7 2433.85 1798.45 2424.5 1798.4 Q2413.65 1798.8 2414.85 1806.95 L2414.8 1816.6" fill="#dfdfdf" fill-rule="evenodd" stroke="none"/>
    <path d="M2421.05 1794.7 L2433.25 1794.7 Q2443.8 1795.25 2443.8 1804.95 L2443.8 1816.6 2440.1 1816.6 2440.05 1806.95 Q2441.25 1798.8 2430.4 1798.4 L2421.05 1798.45 2421.05 1794.7" fill="#dfdfdf" fill-rule="evenodd" stroke="none"/>
    <path d="M2433.85 1643.7 L2421.65 1643.7 Q2411.1 1643.15 2411.1 1633.45 L2411.1 1621.8 2414.8 1621.8 2414.85 1631.45 Q2413.65 1639.6 2424.5 1640.0 L2433.85 1639.95 2433.85 1643.7" fill="#dfdfdf" fill-rule="evenodd" stroke="none"/>
    <path d="M2443.8 1621.8 L2443.8 1633.45 Q2443.8 1643.15 2433.25 1643.7 L2421.05 1643.7 2421.05 1639.95 2430.4 1640.0 Q2441.25 1639.6 2440.05 1631.45 L2440.1 1621.8 2443.8 1621.8" fill="#dfdfdf" fill-rule="evenodd" stroke="none"/>
    <path d="M2411.1 1185.55 Q2411.1 1175.85 2421.65 1175.3 L2433.85 1175.3 2433.85 1179.05 2424.5 1179.0 Q2413.65 1179.4 2414.85 1187.55 L2414.8 1197.2 2411.1 1197.2 2411.1 1185.55" fill="#dfdfdf" fill-rule="evenodd" stroke="none"/>
    <path d="M2421.05 1175.3 L2433.25 1175.3 Q2443.8 1175.85 2443.8 1185.55 L2443.8 1197.2 2440.1 1197.2 2440.05 1187.55 Q2441.25 1179.4 2430.4 1179.0 L2421.05 1179.05 2421.05 1175.3" fill="#dfdfdf" fill-rule="evenodd" stroke="none"/>
    <path d="M2414.8 757.3 L2414.85 766.95 Q2413.65 775.1 2424.5 775.5 L2433.85 775.45 2433.85 779.2 2421.65 779.2 Q2411.1 778.65 2411.1 768.95 L2411.1 757.3 2414.8 757.3" fill="#dfdfdf" fill-rule="evenodd" stroke="none"/>
    <path d="M2421.05 779.2 L2421.05 775.45 2430.4 775.5 Q2441.25 775.1 2440.05 766.95 L2440.1 757.3 2443.8 757.3 2443.8 768.95 Q2443.8 778.65 2433.25 779.2 L2421.05 779.2" fill="#dfdfdf" fill-rule="evenodd" stroke="none"/>
    <path d="M2411.1 342.9 Q2411.1 333.2 2421.65 332.65 L2433.85 332.65 2433.85 336.4 2424.5 336.35 Q2413.65 336.75 2414.85 344.9 L2414.8 354.55 2411.1 354.55 2411.1 342.9" fill="#dfdfdf" fill-rule="evenodd" stroke="none"/>
    <path d="M2421.05 332.65 L2433.25 332.65 Q2443.8 333.2 2443.8 342.9 L2443.8 354.55 2440.1 354.55 2440.05 344.9 Q2441.25 336.75 2430.4 336.35 L2421.05 336.4 2421.05 332.65" fill="#dfdfdf" fill-rule="evenodd" stroke="none"/>
    <path d="M2433.85 59.05 L2421.65 59.05 Q2411.1 58.5 2411.1 48.8 L2411.1 37.15 2414.8 37.15 2414.85 46.8 Q2413.65 54.95 2424.5 55.35 L2433.85 55.3 2433.85 59.05" fill="#dfdfdf" fill-rule="evenodd" stroke="none"/>
    <path d="M2443.8 37.15 L2443.8 48.8 Q2443.8 58.5 2433.25 59.05 L2421.05 59.05 2421.05 55.3 2430.4 55.35 Q2441.25 54.95 2440.05 46.8 L2440.1 37.15 2443.8 37.15" fill="#dfdfdf" fill-rule="evenodd" stroke="none"/>
    <path d="M610.75 250.95 L610.75 254.7 537.95 254.7 537.95 250.95 610.75 250.95 M461.6 250.95 L461.6 254.7 290.65 254.7 290.7 254.0 Q290.85 252.5 290.25 250.95 L461.6 250.95 M567.15 124.95 L567.15 128.7 288.25 128.7 Q288.75 127.7 288.75 126.6 L288.5 124.95 567.15 124.95 M690.75 254.7 L690.75 250.95 927.75 250.95 Q927.5 251.7 927.5 252.6 L927.75 254.7 690.75 254.7 M925.9 125.1 L926.6 128.7 645.7 128.7 645.7 124.95 925.85 124.95 925.9 125.1 M1080.0 252.1 L1079.8 250.95 1181.5 250.95 1181.5 254.7 1079.9 254.7 1080.0 252.1 M1262.4 124.95 L1263.5 128.7 1076.15 128.7 1076.15 127.55 1076.15 124.95 1262.4 124.95 M1372.6 252.35 Q1374.9 253.45 1376.8 253.65 L1378.75 254.7 1258.65 254.7 1258.65 250.95 1358.6 250.95 1360.55 251.1 1362.5 251.25 1367.05 251.7 1367.85 251.6 Q1369.65 252.3 1372.5 252.3 L1372.6 252.35 M1454.95 125.45 L1454.95 128.7 1381.0 128.7 1381.55 125.5 1454.95 125.45 M1931.9 124.95 L1931.9 128.7 1538.6 128.7 1538.6 125.35 1931.9 124.95 M2171.85 124.95 L2171.85 128.7 2044.9 128.7 2044.9 126.0 2053.15 125.5 2054.85 125.6 Q2055.9 125.6 2056.7 125.2 L2057.2 125.2 2058.75 124.95 2171.85 124.95 M2327.2 250.95 Q2326.95 251.8 2326.95 252.8 2326.95 253.75 2327.25 254.7 L1467.2 254.7 1467.2 252.0 1467.85 252.05 1468.95 251.9 1469.75 252.05 1472.35 251.55 1477.2 250.95 2327.2 250.95 M2338.85 128.7 L2338.95 128.4 2339.1 128.7 2338.85 128.7 M2326.3 126.35 Q2326.3 127.5 2326.85 128.7 L2250.3 128.7 2250.3 124.95 2326.45 124.95 Q2326.3 125.6 2326.3 126.35 M2670.35 250.95 L2670.35 254.7 2525.9 254.7 2526.15 252.8 2525.9 250.95 2670.35 250.95 M2744.0 254.7 L2744.0 250.95 2800.05 250.95 2800.05 254.7 2744.0 254.7 M2669.25 124.95 L2669.25 128.7 2523.0 128.7 2523.3 127.05 Q2523.3 125.9 2522.75 124.95 L2669.25 124.95 M2800.05 124.95 L2800.05 128.7 2743.2 128.7 2743.2 124.95 2800.05 124.95" fill="#dfdfdf" fill-rule="evenodd" stroke="none"/>
    <path d="M2802.55 188.05 L277.1 188.05 277.1 132.95 2802.55 132.95 2802.55 188.05" fill="url(#gradient2)" fill-rule="evenodd" stroke="none"/>
    <path d="M2802.55 195.95 L2802.55 251.05 277.1 251.05 277.1 195.95 2802.55 195.95" fill="url(#gradient3)" fill-rule="evenodd" stroke="none"/>
    <path d="M351.1 188.35 L394.1 188.35 394.1 191.25 351.1 191.25 351.1 188.35" fill="#dfdfdf" fill-rule="evenodd" stroke="none"/>
    <path d="M424.1 188.35 L467.1 188.35 467.1 191.25 424.1 191.25 424.1 188.35" fill="#dfdfdf" fill-rule="evenodd" stroke="none"/>
    <path d="M497.1 188.35 L540.1 188.35 540.1 191.25 497.1 191.25 497.1 188.35" fill="#dfdfdf" fill-rule="evenodd" stroke="none"/>
    <path d="M570.1 188.35 L613.1 188.35 613.1 191.25 570.1 191.25 570.1 188.35" fill="#dfdfdf" fill-rule="evenodd" stroke="none"/>
    <path d="M278.1 188.35 L321.1 188.35 321.1 191.25 278.1 191.25 278.1 188.35" fill="#dfdfdf" fill-rule="evenodd" stroke="none"/>
    <path d="M716.1 188.35 L759.1 188.35 759.1 191.25 716.1 191.25 716.1 188.35" fill="#dfdfdf" fill-rule="evenodd" stroke="none"/>
    <path d="M832.1 191.25 L789.1 191.25 789.1 188.35 832.1 188.35 832.1 191.25" fill="#dfdfdf" fill-rule="evenodd" stroke="none"/>
    <path d="M862.1 188.35 L905.1 188.35 905.1 191.25 862.1 191.25 862.1 188.35" fill="#dfdfdf" fill-rule="evenodd" stroke="none"/>
    <path d="M978.1 191.25 L935.1 191.25 935.1 188.35 978.1 188.35 978.1 191.25" fill="#dfdfdf" fill-rule="evenodd" stroke="none"/>
    <path d="M686.1 191.25 L643.1 191.25 643.1 188.35 686.1 188.35 686.1 191.25" fill="#dfdfdf" fill-rule="evenodd" stroke="none"/>
    <path d="M1011.2 188.35 L1054.2 188.35 1054.2 191.25 1011.2 191.25 1011.2 188.35" fill="#dfdfdf" fill-rule="evenodd" stroke="none"/>
    <path d="M1084.2 188.35 L1127.2 188.35 1127.2 191.25 1084.2 191.25 1084.2 188.35" fill="#dfdfdf" fill-rule="evenodd" stroke="none"/>
    <path d="M1157.2 188.35 L1200.2 188.35 1200.2 191.25 1157.2 191.25 1157.2 188.35" fill="#dfdfdf" fill-rule="evenodd" stroke="none"/>
    <path d="M1230.2 188.35 L1273.2 188.35 1273.2 191.25 1230.2 191.25 1230.2 188.35" fill="#dfdfdf" fill-rule="evenodd" stroke="none"/>
    <path d="M1376.2 188.35 L1419.2 188.35 1419.2 191.25 1376.2 191.25 1376.2 188.35" fill="#dfdfdf" fill-rule="evenodd" stroke="none"/>
    <path d="M1492.2 191.25 L1449.2 191.25 1449.2 188.35 1492.2 188.35 1492.2 191.25" fill="#dfdfdf" fill-rule="evenodd" stroke="none"/>
    <path d="M1522.2 188.35 L1565.2 188.35 1565.2 191.25 1522.2 191.25 1522.2 188.35" fill="#dfdfdf" fill-rule="evenodd" stroke="none"/>
    <path d="M1638.2 191.25 L1595.2 191.25 1595.2 188.35 1638.2 188.35 1638.2 191.25" fill="#dfdfdf" fill-rule="evenodd" stroke="none"/>
    <path d="M1303.2 188.35 L1346.2 188.35 1346.2 191.25 1303.2 191.25 1303.2 188.35" fill="#dfdfdf" fill-rule="evenodd" stroke="none"/>
    <path d="M1639.5 191.25 L1596.5 191.25 1596.5 188.35 1639.5 188.35 1639.5 191.25" fill="#dfdfdf" fill-rule="evenodd" stroke="none"/>
    <path d="M1669.5 188.35 L1712.5 188.35 1712.5 191.25 1669.5 191.25 1669.5 188.35" fill="#dfdfdf" fill-rule="evenodd" stroke="none"/>
    <path d="M1815.5 188.35 L1858.5 188.35 1858.5 191.25 1815.5 191.25 1815.5 188.35" fill="#dfdfdf" fill-rule="evenodd" stroke="none"/>
    <path d="M1888.5 188.35 L1931.5 188.35 1931.5 191.25 1888.5 191.25 1888.5 188.35" fill="#dfdfdf" fill-rule="evenodd" stroke="none"/>
    <path d="M1785.5 191.25 L1742.5 191.25 1742.5 188.35 1785.5 188.35 1785.5 191.25" fill="#dfdfdf" fill-rule="evenodd" stroke="none"/>
    <path d="M1960.9 188.35 L2003.9 188.35 2003.9 191.25 1960.9 191.25 1960.9 188.35" fill="#dfdfdf" fill-rule="evenodd" stroke="none"/>
    <path d="M2037.0 188.35 L2080.0 188.35 2080.0 191.25 2037.0 191.25 2037.0 188.35" fill="#dfdfdf" fill-rule="evenodd" stroke="none"/>
    <path d="M2110.0 188.35 L2153.0 188.35 2153.0 191.25 2110.0 191.25 2110.0 188.35" fill="#dfdfdf" fill-rule="evenodd" stroke="none"/>
    <path d="M2183.0 188.35 L2226.0 188.35 2226.0 191.25 2183.0 191.25 2183.0 188.35" fill="#dfdfdf" fill-rule="evenodd" stroke="none"/>
    <path d="M2299.0 191.25 L2256.0 191.25 2256.0 188.35 2299.0 188.35 2299.0 191.25" fill="#dfdfdf" fill-rule="evenodd" stroke="none"/>
    <path d="M2445.0 191.25 L2402.0 191.25 2402.0 188.35 2445.0 188.35 2445.0 191.25" fill="#dfdfdf" fill-rule="evenodd" stroke="none"/>
    <path d="M2475.0 188.35 L2518.0 188.35 2518.0 191.25 2475.0 191.25 2475.0 188.35" fill="#dfdfdf" fill-rule="evenodd" stroke="none"/>
    <path d="M2548.0 188.35 L2591.0 188.35 2591.0 191.25 2548.0 191.25 2548.0 188.35" fill="#dfdfdf" fill-rule="evenodd" stroke="none"/>
    <path d="M2621.0 188.35 L2664.0 188.35 2664.0 191.25 2621.0 191.25 2621.0 188.35" fill="#dfdfdf" fill-rule="evenodd" stroke="none"/>
    <path d="M2329.0 188.35 L2372.0 188.35 2372.0 191.25 2329.0 191.25 2329.0 188.35" fill="#dfdfdf" fill-rule="evenodd" stroke="none"/>
    <path d="M2622.3 188.35 L2665.3 188.35 2665.3 191.25 2622.3 191.25 2622.3 188.35" fill="#dfdfdf" fill-rule="evenodd" stroke="none"/>
    <path d="M2695.3 188.35 L2738.3 188.35 2738.3 191.25 2695.3 191.25 2695.3 188.35" fill="#dfdfdf" fill-rule="evenodd" stroke="none"/>
    <path d="M2768.3 188.35 L2811.3 188.35 2811.3 191.25 2768.3 191.25 2768.3 188.35" fill="#dfdfdf" fill-rule="evenodd" stroke="none"/>
    <path d="M612.35 262.35 L612.35 263.75 536.25 263.75 536.25 262.35 612.35 262.35 M462.1 262.35 L462.1 263.75 287.4 263.75 287.4 262.35 462.1 262.35 M689.4 263.75 L689.4 262.35 930.1 262.35 930.05 263.75 689.4 263.75 M1076.9 263.75 L1076.95 262.35 1193.85 262.35 1193.85 263.75 1076.9 263.75 M1370.65 262.35 L1370.65 263.75 1245.3 263.75 1245.3 262.35 1370.65 262.35 M2315.25 262.35 L2315.25 263.75 1476.95 263.75 1476.95 262.35 2315.25 262.35 M2733.55 263.75 L2733.55 262.35 2803.25 262.35 2803.25 263.75 2733.55 263.75 M2681.55 262.35 L2681.55 263.75 2536.65 263.75 2536.65 262.35 2681.55 262.35" fill="#dfdfdf" fill-rule="evenodd" stroke="none"/>
    <path d="M582.0 114.6 L582.0 116.0 287.4 116.0 287.4 114.6 582.0 114.6 M930.1 114.6 L930.05 116.0 632.0 116.0 632.0 114.6 930.1 114.6 M1262.4 114.6 L1262.4 116.0 1076.55 116.0 1076.6 114.6 1262.4 114.6 M1470.25 114.6 L1470.25 116.0 1367.85 116.0 1367.85 114.6 1470.25 114.6 M1928.45 114.6 L1928.45 116.0 1521.7 116.0 1521.7 114.6 1928.45 114.6 M2186.5 114.6 L2186.5 116.0 2035.9 116.0 2035.9 114.6 2186.5 114.6 M2315.25 114.6 L2315.25 116.0 2236.95 116.0 2236.95 114.6 2315.25 114.6 M2682.75 114.6 L2682.75 116.0 2536.65 116.0 2536.65 114.6 2682.75 114.6 M2801.1 114.6 L2801.1 116.0 2731.1 116.0 2731.1 114.6 2801.1 114.6" fill="#dfdfdf" fill-rule="evenodd" stroke="none"/>
    <path d="M150.6 1935.75 Q151.9 1940.55 153.15 1943.35 L153.15 2195.3 Q152.1 2194.75 150.75 2194.75 L149.4 2194.9 149.4 1931.15 150.6 1935.75 M276.95 1914.05 L279.05 1920.2 279.15 1921.2 279.15 2194.9 276.3 2194.3 275.4 2194.2 275.4 1925.4 Q274.65 1920.85 273.65 1917.9 271.45 1911.4 271.45 1908.4 L272.2 1908.65 Q272.55 1906.25 274.25 1909.5 L274.65 1908.1 276.95 1914.05 M279.25 1920.95 L279.2 1920.85 279.15 1920.6 279.25 1920.95" fill="#dfdfdf" fill-rule="evenodd" stroke="none"/>
    <path d="M273.4 1924.0 L271.15 2206.05 216.05 2206.05 217.4 1931.25 273.4 1924.0" fill="url(#gradient4)" fill-rule="evenodd" stroke="none"/>
    <path d="M154.65 1940.3 L212.4 1931.85 208.15 2206.05 153.05 2206.05 154.65 1940.3" fill="url(#gradient5)" fill-rule="evenodd" stroke="none"/>
    <path d="M215.75 1994.9 L215.75 2037.9 212.85 2037.9 212.85 1994.9 215.75 1994.9" fill="#dfdfdf" fill-rule="evenodd" stroke="none"/>
    <path d="M215.75 2067.9 L215.75 2110.9 212.85 2110.9 212.85 2067.9 215.75 2067.9" fill="#dfdfdf" fill-rule="evenodd" stroke="none"/>
    <path d="M215.75 2140.9 L215.75 2183.9 212.85 2183.9 212.85 2140.9 215.75 2140.9" fill="#dfdfdf" fill-rule="evenodd" stroke="none"/>
    <path d="M215.75 1921.9 L215.75 1964.9 212.85 1964.9 212.85 1921.9 215.75 1921.9" fill="#dfdfdf" fill-rule="evenodd" stroke="none"/>
    <path d="M288.2 1922.35 L288.45 1922.85 288.4 1923.35 288.75 1925.8 288.75 2195.9 287.35 2195.9 287.35 1925.2 Q286.35 1922.4 284.65 1915.45 283.0 1908.7 283.0 1907.85 L283.1 1906.3 Q283.45 1905.45 284.55 1905.9 L286.4 1913.65 Q287.9 1920.05 288.2 1922.35" fill="#dfdfdf" fill-rule="evenodd" stroke="none"/>
    <path d="M138.95 1940.0 Q139.45 1941.65 140.35 1942.5 L140.35 2195.9 138.95 2195.9 138.95 1940.0" fill="#dfdfdf" fill-rule="evenodd" stroke="none"/>
    <path d="M1294.15 888.4 L1294.15 892.15 1075.3 892.15 1075.3 888.4 1294.15 888.4 M1370.15 892.15 L1370.15 888.4 2045.05 888.4 2045.05 892.15 1370.15 892.15" fill="#dfdfdf" fill-rule="evenodd" stroke="none"/>
    <path d="M1233.85 835.7 L1233.85 839.45 1080.95 839.45 1080.95 835.7 1233.85 835.7 M1469.2 835.7 L1469.2 839.45 1323.15 839.45 1323.15 835.7 1469.2 835.7 M1546.35 839.45 L1546.35 835.7 1949.1 835.7 1947.65 836.9 Q1945.7 838.4 1939.1 839.45 L1546.35 839.45" fill="#dfdfdf" fill-rule="evenodd" stroke="none"/>
    <path d="M1294.5 900.9 L1294.5 902.3 1076.5 902.3 1076.5 900.9 1294.5 900.9 M1368.8 902.3 L1368.8 900.9 2045.05 900.9 2045.05 902.3 1368.8 902.3" fill="#dfdfdf" fill-rule="evenodd" stroke="none"/>
    <path d="M1086.05 888.45 L1086.05 892.15 1076.4 892.2 Q1068.25 891.0 1067.85 901.85 L1067.9 911.2 1064.15 911.2 1064.15 899.0 Q1064.7 888.45 1074.4 888.45 L1086.05 888.45" fill="#dfdfdf" fill-rule="evenodd" stroke="none"/>
    <path d="M1086.1 835.75 L1086.1 839.45 1074.45 839.45 Q1064.75 839.45 1064.2 828.9 L1064.2 823.25 1067.9 823.25 1067.9 826.05 Q1068.3 836.9 1076.45 835.7 L1086.1 835.75" fill="#dfdfdf" fill-rule="evenodd" stroke="none"/>
    <path d="M1253.6 825.3 L1253.6 826.7 1076.5 826.7 1076.5 825.3 1253.6 825.3 M1480.8 825.3 L1480.8 826.7 1305.55 826.7 1305.55 825.3 1480.8 825.3 M1933.05 825.3 L1933.05 826.7 1533.9 826.7 1533.9 825.3 1933.05 825.3" fill="#dfdfdf" fill-rule="evenodd" stroke="none"/>
    <path d="M2328.4 892.15 L2214.35 892.15 2214.35 888.4 2328.4 888.4 2328.4 892.15 M2140.55 888.4 L2140.55 892.15 2032.85 892.15 2032.85 888.4 2140.55 888.4" fill="#dfdfdf" fill-rule="evenodd" stroke="none"/>
    <path d="M2326.7 839.45 L2215.25 839.45 2215.25 835.7 2326.7 835.7 2326.7 839.45 M2136.7 835.7 L2136.7 839.45 2049.5 839.45 2045.15 838.55 2037.2 836.35 2034.9 835.9 2034.9 835.7 2136.7 835.7" fill="#dfdfdf" fill-rule="evenodd" stroke="none"/>
    <path d="M2314.7 902.3 L2215.85 902.3 2215.85 900.9 2314.7 900.9 2314.7 902.3 M2141.3 900.9 L2141.3 902.3 2032.85 902.3 2032.85 900.9 2141.3 900.9" fill="#dfdfdf" fill-rule="evenodd" stroke="none"/>
    <path d="M2317.65 888.45 L2329.3 888.45 Q2339.0 888.45 2339.55 899.0 L2339.55 911.2 2335.8 911.2 2335.85 901.85 Q2335.45 891.0 2327.3 892.2 L2317.65 892.15 2317.65 888.45" fill="#dfdfdf" fill-rule="evenodd" stroke="none"/>
    <path d="M2317.6 835.75 L2327.25 835.7 Q2335.4 836.9 2335.8 826.05 L2335.8 823.25 2339.5 823.25 2339.5 828.9 Q2338.95 839.45 2329.25 839.45 L2317.6 839.45 2317.6 835.75" fill="#dfdfdf" fill-rule="evenodd" stroke="none"/>
    <path d="M2150.95 825.3 L2150.95 826.7 2039.35 826.7 2039.35 825.3 2150.95 825.3 M2314.95 825.3 L2314.95 826.7 2201.75 826.7 2201.75 825.3 2314.95 825.3" fill="#dfdfdf" fill-rule="evenodd" stroke="none"/>
    <path d="M1682.4 2334.7 L1682.4 2330.95 1893.15 2330.95 Q1892.9 2331.7 1892.9 2332.6 L1893.0 2333.45 1892.9 2334.5 1892.9 2334.7 1682.4 2334.7 M1332.6 2334.7 L1332.6 2330.95 1605.3 2330.95 1605.3 2334.7 1332.6 2334.7 M1351.55 2208.25 L1349.95 2208.25 1349.35 2208.2 1346.15 2207.55 1345.45 2207.45 1344.4 2207.3 1343.4 2207.2 Q1342.55 2206.75 1341.4 2206.45 L1341.4 2204.95 1597.9 2204.95 1597.9 2208.7 1356.1 2208.7 1355.75 2208.65 1355.0 2208.65 1351.55 2208.25 M2325.35 2205.0 Q2325.35 2206.7 2326.3 2208.7 L1698.9 2208.7 1698.9 2204.95 2325.35 2204.95 2325.35 2205.0 M2159.9 2334.7 L2159.9 2330.95 2330.15 2330.95 2330.0 2331.55 Q2329.25 2332.95 2329.05 2334.7 L2159.9 2334.7 M2043.5 2334.7 Q2044.25 2333.45 2044.25 2332.1 L2044.15 2330.95 2087.55 2330.95 2087.55 2334.7 2043.5 2334.7 M579.15 2204.95 L579.15 2208.7 558.4 2208.7 558.4 2204.95 579.15 2204.95 M287.35 2206.3 L287.25 2204.95 508.2 2204.95 508.2 2208.7 287.3 2208.7 287.35 2206.3 M0.0 2334.7 L0.0 2330.95 141.8 2330.95 Q141.35 2332.0 141.35 2333.3 L141.5 2334.7 0.0 2334.7 M139.25 2204.95 L139.2 2205.9 Q139.2 2207.0 139.9 2208.7 L0.0 2208.7 0.0 2204.95 16.75 2204.95 16.8 2206.35 16.8 2204.95 139.25 2204.95 M1078.8 2333.15 Q1078.8 2331.85 1078.25 2330.95 L1133.15 2330.95 1133.15 2334.7 1078.55 2334.7 1078.8 2333.15 M1074.45 2206.7 Q1074.75 2205.7 1077.6 2204.95 L1235.35 2204.95 1237.5 2205.15 1237.9 2205.15 1240.8 2205.4 1243.2 2205.25 1244.55 2205.4 1245.15 2205.4 1245.75 2205.4 1246.05 2205.4 1246.05 2208.1 1245.15 2208.15 1242.6 2208.7 1077.35 2208.7 Q1074.15 2207.75 1074.45 2206.7 M877.5 2334.4 L877.5 2330.65 929.8 2330.65 Q929.25 2332.3 929.0 2334.4 L877.5 2334.4 M929.25 2207.4 L929.4 2208.7 628.05 2208.7 628.05 2204.95 929.6 2204.95 Q929.25 2206.05 929.25 2207.4 M665.9 2330.95 L665.9 2334.7 288.95 2334.7 289.4 2332.45 289.25 2330.95 665.9 2330.95 M2802.3 2330.95 L2802.3 2334.7 2520.65 2334.7 2520.65 2334.25 2520.35 2332.05 2520.6 2330.95 2802.3 2330.95 M2626.8 2204.95 L2626.8 2208.7 2524.15 2208.7 2524.15 2208.45 Q2524.15 2206.5 2523.55 2204.95 L2626.8 2204.95 M2708.8 2208.7 L2708.8 2204.95 2808.35 2204.95 2808.35 2208.7 2708.8 2208.7" fill="#dfdfdf" fill-rule="evenodd" stroke="none"/>
    <path d="M2797.05 2268.05 L-0.2 2268.05 -0.2 2212.95 2797.05 2212.95 2797.05 2268.05" fill="url(#gradient6)" fill-rule="evenodd" stroke="none"/>
    <path d="M2797.05 2275.95 L2797.05 2331.05 -0.2 2331.05 -0.2 2275.95 2797.05 2275.95" fill="url(#gradient7)" fill-rule="evenodd" stroke="none"/>
    <path d="M118.5 2271.25 L75.5 2271.25 75.5 2268.35 118.5 2268.35 118.5 2271.25" fill="#dfdfdf" fill-rule="evenodd" stroke="none"/>
    <path d="M148.5 2268.35 L191.5 2268.35 191.5 2271.25 148.5 2271.25 148.5 2268.35" fill="#dfdfdf" fill-rule="evenodd" stroke="none"/>
    <path d="M264.5 2271.25 L221.5 2271.25 221.5 2268.35 264.5 2268.35 264.5 2271.25" fill="#dfdfdf" fill-rule="evenodd" stroke="none"/>
    <path d="M294.5 2268.35 L337.5 2268.35 337.5 2271.25 294.5 2271.25 294.5 2268.35" fill="#dfdfdf" fill-rule="evenodd" stroke="none"/>
    <path d="M2.5 2268.35 L45.5 2268.35 45.5 2271.25 2.5 2271.25 2.5 2268.35" fill="#dfdfdf" fill-rule="evenodd" stroke="none"/>
    <path d="M440.5 2268.35 L483.5 2268.35 483.5 2271.25 440.5 2271.25 440.5 2268.35" fill="#dfdfdf" fill-rule="evenodd" stroke="none"/>
    <path d="M513.5 2268.35 L556.5 2268.35 556.5 2271.25 513.5 2271.25 513.5 2268.35" fill="#dfdfdf" fill-rule="evenodd" stroke="none"/>
    <path d="M586.5 2268.35 L629.5 2268.35 629.5 2271.25 586.5 2271.25 586.5 2268.35" fill="#dfdfdf" fill-rule="evenodd" stroke="none"/>
    <path d="M659.5 2268.35 L702.5 2268.35 702.5 2271.25 659.5 2271.25 659.5 2268.35" fill="#dfdfdf" fill-rule="evenodd" stroke="none"/>
    <path d="M410.5 2271.25 L367.5 2271.25 367.5 2268.35 410.5 2268.35 410.5 2271.25" fill="#dfdfdf" fill-rule="evenodd" stroke="none"/>
    <path d="M735.6 2268.35 L778.6 2268.35 778.6 2271.25 735.6 2271.25 735.6 2268.35" fill="#dfdfdf" fill-rule="evenodd" stroke="none"/>
    <path d="M808.6 2268.35 L851.6 2268.35 851.6 2271.25 808.6 2271.25 808.6 2268.35" fill="#dfdfdf" fill-rule="evenodd" stroke="none"/>
    <path d="M924.6 2271.25 L881.6 2271.25 881.6 2268.35 924.6 2268.35 924.6 2271.25" fill="#dfdfdf" fill-rule="evenodd" stroke="none"/>
    <path d="M954.6 2268.35 L997.6 2268.35 997.6 2271.25 954.6 2271.25 954.6 2268.35" fill="#dfdfdf" fill-rule="evenodd" stroke="none"/>
    <path d="M1100.6 2268.35 L1143.6 2268.35 1143.6 2271.25 1100.6 2271.25 1100.6 2268.35" fill="#dfdfdf" fill-rule="evenodd" stroke="none"/>
    <path d="M1216.6 2271.25 L1173.6 2271.25 1173.6 2268.35 1216.6 2268.35 1216.6 2271.25" fill="#dfdfdf" fill-rule="evenodd" stroke="none"/>
    <path d="M1246.6 2268.35 L1289.6 2268.35 1289.6 2271.25 1246.6 2271.25 1246.6 2268.35" fill="#dfdfdf" fill-rule="evenodd" stroke="none"/>
    <path d="M1319.6 2268.35 L1362.6 2268.35 1362.6 2271.25 1319.6 2271.25 1319.6 2268.35" fill="#dfdfdf" fill-rule="evenodd" stroke="none"/>
    <path d="M1070.6 2271.25 L1027.6 2271.25 1027.6 2268.35 1070.6 2268.35 1070.6 2271.25" fill="#dfdfdf" fill-rule="evenodd" stroke="none"/>
    <path d="M1320.9 2268.35 L1363.9 2268.35 1363.9 2271.25 1320.9 2271.25 1320.9 2268.35" fill="#dfdfdf" fill-rule="evenodd" stroke="none"/>
    <path d="M1393.9 2268.35 L1436.9 2268.35 1436.9 2271.25 1393.9 2271.25 1393.9 2268.35" fill="#dfdfdf" fill-rule="evenodd" stroke="none"/>
    <path d="M1539.9 2268.35 L1582.9 2268.35 1582.9 2271.25 1539.9 2271.25 1539.9 2268.35" fill="#dfdfdf" fill-rule="evenodd" stroke="none"/>
    <path d="M1612.9 2268.35 L1655.9 2268.35 1655.9 2271.25 1612.9 2271.25 1612.9 2268.35" fill="#dfdfdf" fill-rule="evenodd" stroke="none"/>
    <path d="M1466.9 2268.35 L1509.9 2268.35 1509.9 2271.25 1466.9 2271.25 1466.9 2268.35" fill="#dfdfdf" fill-rule="evenodd" stroke="none"/>
    <path d="M1728.3 2271.25 L1685.3 2271.25 1685.3 2268.35 1728.3 2268.35 1728.3 2271.25" fill="#dfdfdf" fill-rule="evenodd" stroke="none"/>
    <path d="M1761.4 2268.35 L1804.4 2268.35 1804.4 2271.25 1761.4 2271.25 1761.4 2268.35" fill="#dfdfdf" fill-rule="evenodd" stroke="none"/>
    <path d="M1877.4 2271.25 L1834.4 2271.25 1834.4 2268.35 1877.4 2268.35 1877.4 2271.25" fill="#dfdfdf" fill-rule="evenodd" stroke="none"/>
    <path d="M1950.4 2271.25 L1907.4 2271.25 1907.4 2268.35 1950.4 2268.35 1950.4 2271.25" fill="#dfdfdf" fill-rule="evenodd" stroke="none"/>
    <path d="M1980.4 2268.35 L2023.4 2268.35 2023.4 2271.25 1980.4 2271.25 1980.4 2268.35" fill="#dfdfdf" fill-rule="evenodd" stroke="none"/>
    <path d="M2126.4 2268.35 L2169.4 2268.35 2169.4 2271.25 2126.4 2271.25 2126.4 2268.35" fill="#dfdfdf" fill-rule="evenodd" stroke="none"/>
    <path d="M2199.4 2268.35 L2242.4 2268.35 2242.4 2271.25 2199.4 2271.25 2199.4 2268.35" fill="#dfdfdf" fill-rule="evenodd" stroke="none"/>
    <path d="M2272.4 2268.35 L2315.4 2268.35 2315.4 2271.25 2272.4 2271.25 2272.4 2268.35" fill="#dfdfdf" fill-rule="evenodd" stroke="none"/>
    <path d="M2388.4 2271.25 L2345.4 2271.25 2345.4 2268.35 2388.4 2268.35 2388.4 2271.25" fill="#dfdfdf" fill-rule="evenodd" stroke="none"/>
    <path d="M2053.4 2268.35 L2096.4 2268.35 2096.4 2271.25 2053.4 2271.25 2053.4 2268.35" fill="#dfdfdf" fill-rule="evenodd" stroke="none"/>
    <path d="M2389.7 2271.25 L2346.7 2271.25 2346.7 2268.35 2389.7 2268.35 2389.7 2271.25" fill="#dfdfdf" fill-rule="evenodd" stroke="none"/>
    <path d="M2419.7 2268.35 L2462.7 2268.35 2462.7 2271.25 2419.7 2271.25 2419.7 2268.35" fill="#dfdfdf" fill-rule="evenodd" stroke="none"/>
    <path d="M2608.7 2271.25 L2565.7 2271.25 2565.7 2268.35 2608.7 2268.35 2608.7 2271.25" fill="#dfdfdf" fill-rule="evenodd" stroke="none"/>
    <path d="M2681.7 2271.25 L2638.7 2271.25 2638.7 2268.35 2681.7 2268.35 2681.7 2271.25" fill="#dfdfdf" fill-rule="evenodd" stroke="none"/>
    <path d="M2535.7 2271.25 L2492.7 2271.25 2492.7 2268.35 2535.7 2268.35 2535.7 2271.25" fill="#dfdfdf" fill-rule="evenodd" stroke="none"/>
    <path d="M2786.5 2268.35 L2829.5 2268.35 2829.5 2271.25 2786.5 2271.25 2786.5 2268.35" fill="#dfdfdf" fill-rule="evenodd" stroke="none"/>
    <path d="M2713.5 2268.35 L2756.5 2268.35 2756.5 2271.25 2713.5 2271.25 2713.5 2268.35" fill="#dfdfdf" fill-rule="evenodd" stroke="none"/>
    <path d="M1669.55 2343.75 L1669.55 2342.35 1893.4 2342.35 1893.4 2342.6 1893.55 2343.75 1669.55 2343.75 M1375.85 2343.75 L1375.85 2342.35 1619.15 2342.35 1619.15 2343.75 1375.85 2343.75 M2150.1 2343.75 L2150.1 2342.35 2315.8 2342.35 2315.8 2343.75 2150.1 2343.75 M2040.65 2343.75 L2040.9 2342.35 2098.5 2342.35 2098.5 2343.75 2040.65 2343.75 M287.95 2343.75 L288.0 2342.35 621.2 2342.35 621.2 2343.75 287.95 2343.75 M19.4 2343.75 L19.45 2342.35 140.8 2342.35 140.8 2343.75 19.4 2343.75 M0.0 2342.35 L19.45 2342.35 19.35 2343.75 0.0 2343.75 0.0 2342.35 M1076.7 2343.75 L1076.75 2342.35 1119.9 2342.35 1119.9 2343.75 1076.7 2343.75 M929.75 2343.75 L892.95 2343.75 892.95 2342.35 929.75 2342.35 929.75 2343.75 M2793.45 2342.35 L2793.45 2343.75 2536.9 2343.75 2536.9 2342.35 2793.45 2342.35" fill="#dfdfdf" fill-rule="evenodd" stroke="none"/>
    <path d="M1353.5 2196.2 L1355.0 2194.6 1599.95 2194.6 1599.9 2196.15 1353.5 2196.2 M2315.2 2194.6 L2315.2 2196.0 1705.9 2196.15 1705.9 2194.6 2315.2 2194.6 M579.15 2194.6 L579.15 2196.0 559.75 2196.0 559.75 2194.6 579.15 2194.6 M287.45 2196.0 L287.45 2194.6 494.8 2194.6 494.8 2196.0 287.45 2196.0 M139.8 2194.6 L139.75 2196.0 -0.2 2196.0 -0.2 2194.6 139.8 2194.6 M1076.7 2196.0 L1076.75 2194.6 1249.05 2194.6 1249.05 2196.0 1076.7 2196.0 M930.25 2194.6 L930.2 2196.0 628.05 2196.0 628.05 2194.6 930.25 2194.6 M2642.8 2194.6 L2642.8 2196.0 2536.9 2196.0 2536.9 2194.6 2642.8 2194.6 M2692.8 2196.0 L2692.8 2194.6 2798.05 2194.6 2798.05 2196.0 2692.8 2196.0" fill="#dfdfdf" fill-rule="evenodd" stroke="none"/>
    <path d="M1065.8 2344.4 Q1066.85 2344.4 1067.65 2343.85 L1067.65 2805.75 1063.9 2805.75 1063.9 2343.75 Q1064.75 2344.4 1065.8 2344.4 M940.1 2344.4 L941.65 2344.2 941.65 2799.7 937.9 2799.7 937.9 2343.5 Q938.9 2344.4 940.1 2344.4 M939.8 1732.8 L941.65 1732.45 941.65 2194.5 940.35 2194.4 937.9 2194.7 937.9 1732.45 939.8 1732.8 M1066.15 1736.7 L1067.65 1736.65 1067.65 2194.3 1065.85 2193.95 1063.9 2194.2 1063.9 1736.6 1066.15 1736.7 M1063.9 1510.05 L1067.65 1510.05 1067.65 1657.5 1066.0 1657.1 Q1064.7 1657.0 1063.9 1657.55 L1063.9 1510.05 M1063.9 1350.55 L1067.65 1350.55 1067.65 1428.1 1063.9 1428.1 1063.9 1350.55 M937.9 1445.95 L941.65 1445.95 941.65 1584.85 939.8 1584.65 Q938.75 1584.7 937.9 1585.15 L937.9 1445.95 M940.9 908.0 L941.65 907.9 941.65 1125.05 937.9 1125.05 937.9 908.1 938.25 908.1 939.65 908.1 940.05 908.1 940.9 908.0 M1065.0 906.95 L1067.65 906.9 1067.65 1270.7 1063.9 1270.7 1063.9 906.9 1065.0 906.95 M939.55 264.35 L941.65 264.05 941.65 775.4 937.9 775.4 937.9 264.3 938.9 264.35 939.25 264.35 939.55 264.35 M1063.9 271.75 L1066.05 272.0 1067.65 271.9 1067.65 824.45 Q1066.85 823.85 1065.65 824.7 L1064.85 825.4 1064.45 825.4 1063.9 825.45 1063.9 271.75 M1063.9 -1.2 L1067.65 -1.2 1067.65 114.8 Q1066.4 114.15 1064.85 114.05 L1063.9 114.05 1063.9 -1.2 M937.9 -1.1 L941.65 -1.1 941.65 114.75 939.5 114.4 937.9 114.6 937.9 -1.1" fill="#dfdfdf" fill-rule="evenodd" stroke="none"/>
    <path d="M1059.65 -1.1 L1059.65 2796.15 1004.55 2796.15 1004.55 -1.1 1059.65 -1.1" fill="url(#gradient8)" fill-rule="evenodd" stroke="none"/>
    <path d="M941.55 -1.1 L996.65 -1.1 996.65 2796.15 941.55 2796.15 941.55 -1.1" fill="url(#gradient9)" fill-rule="evenodd" stroke="none"/>
    <path d="M1004.25 72.9 L1004.25 115.9 1001.35 115.9 1001.35 72.9 1004.25 72.9" fill="#dfdfdf" fill-rule="evenodd" stroke="none"/>
    <path d="M1004.25 145.9 L1004.25 188.9 1001.35 188.9 1001.35 145.9 1004.25 145.9" fill="#dfdfdf" fill-rule="evenodd" stroke="none"/>
    <path d="M1004.25 218.9 L1004.25 261.9 1001.35 261.9 1001.35 218.9 1004.25 218.9" fill="#dfdfdf" fill-rule="evenodd" stroke="none"/>
    <path d="M1004.25 291.9 L1004.25 334.9 1001.35 334.9 1001.35 291.9 1004.25 291.9" fill="#dfdfdf" fill-rule="evenodd" stroke="none"/>
    <path d="M1004.25 -0.1 L1004.25 42.9 1001.35 42.9 1001.35 -0.1 1004.25 -0.1" fill="#dfdfdf" fill-rule="evenodd" stroke="none"/>
    <path d="M1004.25 437.9 L1004.25 480.9 1001.35 480.9 1001.35 437.9 1004.25 437.9" fill="#dfdfdf" fill-rule="evenodd" stroke="none"/>
    <path d="M1004.25 510.9 L1004.25 553.9 1001.35 553.9 1001.35 510.9 1004.25 510.9" fill="#dfdfdf" fill-rule="evenodd" stroke="none"/>
    <path d="M1004.25 583.9 L1004.25 626.9 1001.35 626.9 1001.35 583.9 1004.25 583.9" fill="#dfdfdf" fill-rule="evenodd" stroke="none"/>
    <path d="M1004.25 656.9 L1004.25 699.9 1001.35 699.9 1001.35 656.9 1004.25 656.9" fill="#dfdfdf" fill-rule="evenodd" stroke="none"/>
    <path d="M1004.25 364.9 L1004.25 407.9 1001.35 407.9 1001.35 364.9 1004.25 364.9" fill="#dfdfdf" fill-rule="evenodd" stroke="none"/>
    <path d="M1004.25 733.0 L1004.25 776.0 1001.35 776.0 1001.35 733.0 1004.25 733.0" fill="#dfdfdf" fill-rule="evenodd" stroke="none"/>
    <path d="M1004.25 806.0 L1004.25 849.0 1001.35 849.0 1001.35 806.0 1004.25 806.0" fill="#dfdfdf" fill-rule="evenodd" stroke="none"/>
    <path d="M1004.25 879.0 L1004.25 922.0 1001.35 922.0 1001.35 879.0 1004.25 879.0" fill="#dfdfdf" fill-rule="evenodd" stroke="none"/>
    <path d="M1004.25 952.0 L1004.25 995.0 1001.35 995.0 1001.35 952.0 1004.25 952.0" fill="#dfdfdf" fill-rule="evenodd" stroke="none"/>
    <path d="M1004.25 1098.0 L1004.25 1141.0 1001.35 1141.0 1001.35 1098.0 1004.25 1098.0" fill="#dfdfdf" fill-rule="evenodd" stroke="none"/>
    <path d="M1004.25 1171.0 L1004.25 1214.0 1001.35 1214.0 1001.35 1171.0 1004.25 1171.0" fill="#dfdfdf" fill-rule="evenodd" stroke="none"/>
    <path d="M1004.25 1244.0 L1004.25 1287.0 1001.35 1287.0 1001.35 1244.0 1004.25 1244.0" fill="#dfdfdf" fill-rule="evenodd" stroke="none"/>
    <path d="M1004.25 1317.0 L1004.25 1360.0 1001.35 1360.0 1001.35 1317.0 1004.25 1317.0" fill="#dfdfdf" fill-rule="evenodd" stroke="none"/>
    <path d="M1004.25 1025.0 L1004.25 1068.0 1001.35 1068.0 1001.35 1025.0 1004.25 1025.0" fill="#dfdfdf" fill-rule="evenodd" stroke="none"/>
    <path d="M1004.25 1318.3 L1004.25 1361.3 1001.35 1361.3 1001.35 1318.3 1004.25 1318.3" fill="#dfdfdf" fill-rule="evenodd" stroke="none"/>
    <path d="M1001.35 1391.3 L1004.25 1391.3 1004.25 1434.3 1001.35 1434.3 1001.35 1391.3" fill="#dfdfdf" fill-rule="evenodd" stroke="none"/>
    <path d="M1001.35 1537.3 L1004.25 1537.3 1004.25 1580.3 1001.35 1580.3 1001.35 1537.3" fill="#dfdfdf" fill-rule="evenodd" stroke="none"/>
    <path d="M1004.25 1610.3 L1004.25 1653.3 1001.35 1653.3 1001.35 1610.3 1004.25 1610.3" fill="#dfdfdf" fill-rule="evenodd" stroke="none"/>
    <path d="M1004.25 1464.3 L1004.25 1507.3 1001.35 1507.3 1001.35 1464.3 1004.25 1464.3" fill="#dfdfdf" fill-rule="evenodd" stroke="none"/>
    <path d="M1004.25 1682.7 L1004.25 1725.7 1001.35 1725.7 1001.35 1682.7 1004.25 1682.7" fill="#dfdfdf" fill-rule="evenodd" stroke="none"/>
    <path d="M1004.25 1758.8 L1004.25 1801.8 1001.35 1801.8 1001.35 1758.8 1004.25 1758.8" fill="#dfdfdf" fill-rule="evenodd" stroke="none"/>
    <path d="M1001.35 1831.8 L1004.25 1831.8 1004.25 1874.8 1001.35 1874.8 1001.35 1831.8" fill="#dfdfdf" fill-rule="evenodd" stroke="none"/>
    <path d="M1004.25 1904.8 L1004.25 1947.8 1001.35 1947.8 1001.35 1904.8 1004.25 1904.8" fill="#dfdfdf" fill-rule="evenodd" stroke="none"/>
    <path d="M1004.25 1977.8 L1004.25 2020.8 1001.35 2020.8 1001.35 1977.8 1004.25 1977.8" fill="#dfdfdf" fill-rule="evenodd" stroke="none"/>
    <path d="M1004.25 2123.8 L1004.25 2166.8 1001.35 2166.8 1001.35 2123.8 1004.25 2123.8" fill="#dfdfdf" fill-rule="evenodd" stroke="none"/>
    <path d="M1004.25 2196.8 L1004.25 2239.8 1001.35 2239.8 1001.35 2196.8 1004.25 2196.8" fill="#dfdfdf" fill-rule="evenodd" stroke="none"/>
    <path d="M1004.25 2269.8 L1004.25 2312.8 1001.35 2312.8 1001.35 2269.8 1004.25 2269.8" fill="#dfdfdf" fill-rule="evenodd" stroke="none"/>
    <path d="M1004.25 2342.8 L1004.25 2385.8 1001.35 2385.8 1001.35 2342.8 1004.25 2342.8" fill="#dfdfdf" fill-rule="evenodd" stroke="none"/>
    <path d="M1004.25 2050.8 L1004.25 2093.8 1001.35 2093.8 1001.35 2050.8 1004.25 2050.8" fill="#dfdfdf" fill-rule="evenodd" stroke="none"/>
    <path d="M1004.25 2344.1 L1004.25 2387.1 1001.35 2387.1 1001.35 2344.1 1004.25 2344.1" fill="#dfdfdf" fill-rule="evenodd" stroke="none"/>
    <path d="M1004.25 2417.1 L1004.25 2460.1 1001.35 2460.1 1001.35 2417.1 1004.25 2417.1" fill="#dfdfdf" fill-rule="evenodd" stroke="none"/>
    <path d="M1004.25 2563.1 L1004.25 2606.1 1001.35 2606.1 1001.35 2563.1 1004.25 2563.1" fill="#dfdfdf" fill-rule="evenodd" stroke="none"/>
    <path d="M1004.25 2636.1 L1004.25 2679.1 1001.35 2679.1 1001.35 2636.1 1004.25 2636.1" fill="#dfdfdf" fill-rule="evenodd" stroke="none"/>
    <path d="M1004.25 2490.1 L1004.25 2533.1 1001.35 2533.1 1001.35 2490.1 1004.25 2490.1" fill="#dfdfdf" fill-rule="evenodd" stroke="none"/>
    <path d="M1004.25 2783.9 L1004.25 2826.9 1001.35 2826.9 1001.35 2783.9 1004.25 2783.9" fill="#dfdfdf" fill-rule="evenodd" stroke="none"/>
    <path d="M1004.25 2710.9 L1004.25 2753.9 1001.35 2753.9 1001.35 2710.9 1004.25 2710.9" fill="#dfdfdf" fill-rule="evenodd" stroke="none"/>
    <path d="M928.85 2342.3 L930.25 2342.35 930.25 2813.8 928.85 2813.8 928.85 2342.3 M928.85 1732.45 L930.25 1732.45 930.25 2195.8 928.85 2195.8 928.85 1732.45 M928.85 1458.6 L930.25 1458.6 930.25 1585.6 928.85 1585.6 928.85 1458.6 M928.85 901.2 L930.25 901.25 930.25 1112.4 928.85 1112.4 928.85 901.2 M928.85 262.55 L930.25 262.55 930.25 773.15 928.85 773.15 928.85 262.55 M928.85 6.4 L930.25 6.4 930.25 115.75 928.85 115.75 928.85 6.4" fill="#dfdfdf" fill-rule="evenodd" stroke="none"/>
    <path d="M1076.6 2342.3 L1078.0 2342.35 1078.0 2808.95 1076.6 2808.95 1076.6 2342.3 M1076.6 1732.85 L1078.0 1732.85 1078.0 2195.8 1076.6 2195.8 1076.6 1732.85 M1076.6 1494.05 L1078.0 1494.05 1078.0 1658.65 1076.6 1658.65 1076.6 1494.05 M1076.6 1338.3 L1078.0 1338.3 1078.0 1443.6 1076.6 1443.6 1076.6 1338.3 M1076.6 901.2 L1078.0 901.25 1078.0 1286.25 1076.6 1286.25 1076.6 901.2 M1076.6 262.55 L1078.0 262.6 1078.0 826.6 1076.6 826.6 1076.6 262.55 M1076.6 -2.8 L1078.0 -2.8 1078.0 115.75 1076.6 115.75 1076.6 -2.8" fill="#dfdfdf" fill-rule="evenodd" stroke="none"/>
    <path d="M275.4 262.8 L279.15 262.8 279.15 384.3 Q278.4 385.4 278.15 387.15 277.1 388.7 277.1 390.95 L277.1 391.0 Q276.05 392.25 275.4 393.95 L275.4 262.8 M276.55 -3.1 Q277.75 -1.95 279.15 -1.5 L279.15 115.8 275.4 115.8 275.4 -1.7 276.55 -3.1 M149.4 -7.1 L153.15 -4.5 153.15 367.75 Q151.3 371.0 151.25 375.25 150.2 376.1 149.4 378.15 L149.4 -7.1" fill="#dfdfdf" fill-rule="evenodd" stroke="none"/>
    <path d="M271.15 -14.9 L275.2 385.6 215.4 378.2 216.05 -14.9 271.15 -14.9" fill="url(#gradient10)" fill-rule="evenodd" stroke="none"/>
    <path d="M153.05 -14.9 L208.15 -14.9 213.5 377.55 153.05 368.85 153.05 -14.9" fill="url(#gradient11)" fill-rule="evenodd" stroke="none"/>
    <path d="M215.75 88.6 L215.75 131.6 212.85 131.6 212.85 88.6 215.75 88.6" fill="#dfdfdf" fill-rule="evenodd" stroke="none"/>
    <path d="M215.75 161.6 L215.75 204.6 212.85 204.6 212.85 161.6 215.75 161.6" fill="#dfdfdf" fill-rule="evenodd" stroke="none"/>
    <path d="M215.75 234.6 L215.75 277.6 212.85 277.6 212.85 234.6 215.75 234.6" fill="#dfdfdf" fill-rule="evenodd" stroke="none"/>
    <path d="M215.75 15.6 L215.75 58.6 212.85 58.6 212.85 15.6 215.75 15.6" fill="#dfdfdf" fill-rule="evenodd" stroke="none"/>
    <path d="M287.35 262.35 L288.75 262.35 288.75 385.0 287.35 385.0 287.35 262.35 M287.35 -1.35 L288.75 -1.35 288.75 115.8 287.35 115.8 287.35 -1.35" fill="#dfdfdf" fill-rule="evenodd" stroke="none"/>
    <path d="M138.95 -1.35 L140.35 -1.35 140.35 364.8 Q140.0 365.75 139.95 366.9 L138.95 366.9 138.95 -1.35" fill="#dfdfdf" fill-rule="evenodd" stroke="none"/>
    <path d="M215.75 304.6 L215.75 347.6 212.85 347.6 212.85 304.6 215.75 304.6" fill="#dfdfdf" fill-rule="evenodd" stroke="none"/>
    <path d="M1902.85 2345.45 L1906.6 2347.35 1906.6 2642.85 1902.85 2642.85 1902.85 2345.45 M2030.0 2348.35 Q2031.2 2349.15 2032.6 2349.5 L2032.6 2642.85 2028.85 2642.85 2028.85 2349.35 2030.0 2348.35" fill="#dfdfdf" fill-rule="evenodd" stroke="none"/>
    <path d="M2024.6 2337.65 L2024.6 2652.3 1969.5 2652.3 1969.5 2337.65 2024.6 2337.65" fill="url(#gradient12)" fill-rule="evenodd" stroke="none"/>
    <path d="M1906.5 2337.65 L1961.6 2337.65 1961.6 2652.3 1906.5 2652.3 1906.5 2337.65" fill="url(#gradient13)" fill-rule="evenodd" stroke="none"/>
    <path d="M1964.45 2650.9 L2029.65 2650.9 2085.8 2800.75 2020.55 2800.75 1964.45 2650.9" fill="url(#gradient14)" fill-rule="evenodd" stroke="none"/>
    <path d="M1849.65 2800.75 L1905.8 2650.9 1971.0 2650.9 1914.9 2800.75 1849.65 2800.75" fill="url(#gradient15)" fill-rule="evenodd" stroke="none"/>
    <path d="M1969.2 2441.15 L1969.2 2484.15 1966.3 2484.15 1966.3 2441.15 1969.2 2441.15" fill="#dfdfdf" fill-rule="evenodd" stroke="none"/>
    <path d="M1969.2 2514.15 L1969.2 2557.15 1966.3 2557.15 1966.3 2514.15 1969.2 2514.15" fill="#dfdfdf" fill-rule="evenodd" stroke="none"/>
    <path d="M1969.2 2587.15 L1969.2 2630.15 1966.3 2630.15 1966.3 2587.15 1969.2 2587.15" fill="#dfdfdf" fill-rule="evenodd" stroke="none"/>
    <path d="M1969.2 2368.15 L1969.2 2411.15 1966.3 2411.15 1966.3 2368.15 1969.2 2368.15" fill="#dfdfdf" fill-rule="evenodd" stroke="none"/>
    <path d="M2040.8 2342.7 L2042.2 2342.7 2042.2 2626.7 2040.8 2626.7 2040.8 2342.7" fill="#dfdfdf" fill-rule="evenodd" stroke="none"/>
    <path d="M1892.4 2343.15 L1893.8 2343.15 1893.8 2628.6 1892.4 2628.6 1892.4 2343.15" fill="#dfdfdf" fill-rule="evenodd" stroke="none"/>
    <path d="M17.85 871.0 Q20.25 866.3 20.35 864.05 L20.35 1427.85 16.6 1427.85 16.6 873.2 17.85 871.0 M144.25 889.2 Q144.9 886.9 144.9 882.85 L144.85 881.55 146.35 879.7 146.35 1427.85 146.05 1427.85 144.5 1422.45 142.6 1416.15 142.6 892.5 Q143.65 891.25 144.25 889.2" fill="#dfdfdf" fill-rule="evenodd" stroke="none"/>
    <path d="M82.2 882.25 L138.85 890.65 140.7 1417.75 82.65 1422.35 82.2 882.25" fill="url(#gradient16)" fill-rule="evenodd" stroke="none"/>
    <path d="M19.7 873.9 L78.0 881.2 77.65 1423.0 20.25 1428.8 19.7 873.9" fill="url(#gradient17)" fill-rule="evenodd" stroke="none"/>
    <path d="M82.95 948.3 L82.95 991.3 80.05 991.3 80.05 948.3 82.95 948.3" fill="#dfdfdf" fill-rule="evenodd" stroke="none"/>
    <path d="M82.95 1064.3 L80.05 1064.3 80.05 1021.3 82.95 1021.3 82.95 1064.3" fill="#dfdfdf" fill-rule="evenodd" stroke="none"/>
    <path d="M80.05 1094.3 L82.95 1094.3 82.95 1137.3 80.05 1137.3 80.05 1094.3" fill="#dfdfdf" fill-rule="evenodd" stroke="none"/>
    <path d="M82.95 875.3 L82.95 918.3 80.05 918.3 80.05 884.6 Q81.85 879.05 82.1 875.3 L82.95 875.3" fill="#dfdfdf" fill-rule="evenodd" stroke="none"/>
    <path d="M155.35 887.5 L155.95 887.5 155.95 1418.75 155.7 1418.1 Q155.65 1415.9 154.55 1414.1 L154.55 892.5 Q155.35 890.6 155.35 888.1 L155.35 887.5" fill="#dfdfdf" fill-rule="evenodd" stroke="none"/>
    <path d="M6.15 876.35 L7.55 870.45 7.55 1427.0 6.15 1427.0 6.15 876.35" fill="#dfdfdf" fill-rule="evenodd" stroke="none"/>
    <path d="M82.95 1280.3 L80.05 1280.3 80.05 1237.3 82.95 1237.3 82.95 1280.3" fill="#dfdfdf" fill-rule="evenodd" stroke="none"/>
    <path d="M82.95 1164.3 L82.95 1207.3 80.05 1207.3 80.05 1164.3 82.95 1164.3" fill="#dfdfdf" fill-rule="evenodd" stroke="none"/>
    <path d="M82.95 1377.3 L82.95 1420.3 80.05 1420.3 80.05 1377.3 82.95 1377.3" fill="#dfdfdf" fill-rule="evenodd" stroke="none"/>
    <path d="M80.05 1304.3 L82.95 1304.3 82.95 1347.3 80.05 1347.3 80.05 1304.3" fill="#dfdfdf" fill-rule="evenodd" stroke="none"/>
    <path d="M277.1 377.95 Q277.9 379.75 279.1 380.75 L146.35 891.65 Q144.95 890.25 142.55 891.4 L275.55 379.5 277.1 377.95 M150.25 362.35 Q151.3 364.2 153.1 365.0 L20.25 876.3 20.2 876.25 Q18.7 874.85 16.7 875.1 L150.0 361.9 150.25 362.35" fill="#dfdfdf" fill-rule="evenodd" stroke="none"/>
    <path d="M215.8 375.8 L274.45 383.65 142.45 891.05 83.05 882.7 215.8 375.8" fill="url(#gradient18)" fill-rule="evenodd" stroke="none"/>
    <path d="M153.55 366.75 L212.15 375.25 79.75 882.2 19.3 874.4 153.55 366.75" fill="url(#gradient19)" fill-rule="evenodd" stroke="none"/>
    <path d="M193.55 446.6 L196.35 447.35 185.55 488.95 182.75 488.2 193.55 446.6" fill="#dfdfdf" fill-rule="evenodd" stroke="none"/>
    <path d="M178.0 517.95 L167.2 559.55 164.4 558.8 175.2 517.2 178.0 517.95" fill="#dfdfdf" fill-rule="evenodd" stroke="none"/>
    <path d="M159.65 588.5 L148.8 630.1 146.0 629.35 156.85 587.75 159.65 588.5" fill="#dfdfdf" fill-rule="evenodd" stroke="none"/>
    <path d="M214.65 376.75 L203.85 418.35 201.05 417.6 211.85 376.0 214.65 376.75" fill="#dfdfdf" fill-rule="evenodd" stroke="none"/>
    <path d="M287.0 382.95 L288.35 383.3 155.85 893.2 154.45 893.1 287.0 382.95" fill="#dfdfdf" fill-rule="evenodd" stroke="none"/>
    <path d="M139.05 362.65 Q139.65 363.0 140.35 363.2 L7.3 875.35 Q6.75 874.75 6.1 874.45 L139.05 362.65" fill="#dfdfdf" fill-rule="evenodd" stroke="none"/>
    <path d="M110.1 767.65 L120.9 726.05 123.7 726.8 112.9 768.4 110.1 767.65" fill="#dfdfdf" fill-rule="evenodd" stroke="none"/>
    <path d="M142.05 656.2 L131.25 697.8 128.45 697.05 139.25 655.45 142.05 656.2" fill="#dfdfdf" fill-rule="evenodd" stroke="none"/>
    <path d="M88.55 862.2 L81.05 891.25 Q80.9 884.6 80.4 882.55 L80.35 882.3 85.75 861.45 88.55 862.2" fill="#dfdfdf" fill-rule="evenodd" stroke="none"/>
    <path d="M106.85 791.6 L96.05 833.2 93.25 832.45 104.05 790.85 106.85 791.6" fill="#dfdfdf" fill-rule="evenodd" stroke="none"/>
    <path d="M16.3 1421.7 L16.25 1415.45 16.25 1415.2 16.25 1414.25 16.25 1414.1 153.05 1940.6 153.0 1941.1 153.25 1942.95 Q153.0 1944.6 153.0 1946.8 L153.0 1947.25 151.5 1949.65 16.3 1429.25 16.25 1424.0 16.25 1422.25 16.3 1421.7 M142.8 1406.45 L142.6 1401.15 142.4 1398.85 275.1 1909.65 Q273.9 1910.65 273.1 1912.45 L271.55 1910.9 142.6 1414.75 142.8 1406.45" fill="#dfdfdf" fill-rule="evenodd" stroke="none"/>
    <path d="M141.2 1417.5 L275.2 1923.5 216.7 1931.15 82.05 1423.75 141.2 1417.5" fill="url(#gradient20)" fill-rule="evenodd" stroke="none"/>
    <path d="M78.5 1422.8 L212.35 1932.1 152.9 1940.4 20.0 1429.05 78.5 1422.8" fill="url(#gradient21)" fill-rule="evenodd" stroke="none"/>
    <path d="M178.75 1802.2 L181.55 1801.45 192.35 1843.05 189.55 1843.8 178.75 1802.2" fill="#dfdfdf" fill-rule="evenodd" stroke="none"/>
    <path d="M174.0 1772.45 L171.2 1773.2 160.4 1731.6 163.2 1730.85 174.0 1772.45" fill="#dfdfdf" fill-rule="evenodd" stroke="none"/>
    <path d="M142.0 1661.05 L144.8 1660.3 155.65 1701.9 152.85 1702.65 142.0 1661.05" fill="#dfdfdf" fill-rule="evenodd" stroke="none"/>
    <path d="M197.05 1872.8 L199.85 1872.05 210.65 1913.65 207.85 1914.4 197.05 1872.8" fill="#dfdfdf" fill-rule="evenodd" stroke="none"/>
    <path d="M154.5 1413.05 L154.5 1408.1 154.5 1407.45 284.35 1907.1 283.0 1907.45 154.5 1413.05" fill="#dfdfdf" fill-rule="evenodd" stroke="none"/>
    <path d="M5.6 1424.55 L5.65 1424.0 140.4 1942.7 Q140.25 1943.55 140.25 1944.5 L139.45 1944.7 5.7 1429.7 5.6 1428.65 5.75 1426.5 5.6 1424.55" fill="#dfdfdf" fill-rule="evenodd" stroke="none"/>
    <path d="M106.1 1522.75 L108.9 1522.0 119.7 1563.6 116.9 1564.35 106.1 1522.75" fill="#dfdfdf" fill-rule="evenodd" stroke="none"/>
    <path d="M124.45 1593.35 L127.25 1592.6 138.05 1634.2 135.25 1634.95 124.45 1593.35" fill="#dfdfdf" fill-rule="evenodd" stroke="none"/>
    <path d="M84.55 1428.2 L81.75 1428.95 79.85 1421.6 79.85 1421.1 79.85 1420.85 79.85 1420.75 Q80.2 1417.25 80.05 1412.7 L79.95 1410.5 84.55 1428.2" fill="#dfdfdf" fill-rule="evenodd" stroke="none"/>
    <path d="M89.25 1457.95 L92.05 1457.2 102.85 1498.8 100.05 1499.55 89.25 1457.95" fill="#dfdfdf" fill-rule="evenodd" stroke="none"/>
    <path d="M149.7 2778.95 L153.45 2778.95 153.45 2900.0 149.7 2900.0 149.7 2778.95 M275.7 2662.9 L279.45 2662.9 279.45 2900.0 275.7 2900.0 275.7 2662.9 M277.4 2349.8 Q278.5 2349.8 279.45 2348.8 L279.45 2584.35 275.7 2584.35 275.7 2349.55 277.4 2349.8 M149.7 2346.0 Q150.95 2347.15 152.9 2347.15 L153.45 2347.1 153.45 2690.15 149.7 2690.15 149.7 2346.0" fill="#dfdfdf" fill-rule="evenodd" stroke="none"/>
    <path d="M216.35 2336.1 L271.45 2336.1 271.45 2807.4 216.35 2807.4 216.35 2336.1" fill="url(#gradient22)" fill-rule="evenodd" stroke="none"/>
    <path d="M153.35 2336.1 L208.45 2336.1 208.45 2807.4 153.35 2807.4 153.35 2336.1" fill="url(#gradient23)" fill-rule="evenodd" stroke="none"/>
    <path d="M216.05 2420.45 L216.05 2463.45 213.15 2463.45 213.15 2420.45 216.05 2420.45" fill="#dfdfdf" fill-rule="evenodd" stroke="none"/>
    <path d="M216.05 2493.45 L216.05 2536.45 213.15 2536.45 213.15 2493.45 216.05 2493.45" fill="#dfdfdf" fill-rule="evenodd" stroke="none"/>
    <path d="M216.05 2566.45 L216.05 2609.45 213.15 2609.45 213.15 2566.45 216.05 2566.45" fill="#dfdfdf" fill-rule="evenodd" stroke="none"/>
    <path d="M216.05 2347.45 L216.05 2390.45 213.15 2390.45 213.15 2347.45 216.05 2347.45" fill="#dfdfdf" fill-rule="evenodd" stroke="none"/>
    <path d="M287.65 2651.4 L289.05 2651.4 289.05 2899.85 287.65 2899.85 287.65 2651.4 M287.65 2342.5 L289.05 2342.5 289.05 2597.95 287.65 2597.95 287.65 2342.5" fill="#dfdfdf" fill-rule="evenodd" stroke="none"/>
    <path d="M139.25 2762.9 L140.65 2762.9 140.65 2899.15 139.25 2899.15 139.25 2762.9 M139.25 2342.5 L140.65 2342.5 140.65 2709.65 139.25 2709.65 139.25 2342.5" fill="#dfdfdf" fill-rule="evenodd" stroke="none"/>
    <path d="M216.05 2709.45 L216.05 2752.45 213.15 2752.45 213.15 2709.45 216.05 2709.45" fill="#dfdfdf" fill-rule="evenodd" stroke="none"/>
    <path d="M216.05 2636.45 L216.05 2679.45 213.15 2679.45 213.15 2636.45 216.05 2636.45" fill="#dfdfdf" fill-rule="evenodd" stroke="none"/>
    <path d="M918.85 250.9 L931.05 250.9 Q941.6 251.45 941.6 261.15 L941.6 272.8 937.9 272.8 937.85 263.15 Q939.05 255.0 928.2 254.6 L918.85 254.65 918.85 250.9" fill="#dfdfdf" fill-rule="evenodd" stroke="none"/>
    <path d="M1067.65 272.7 L1063.95 272.7 1063.95 261.05 Q1063.95 251.35 1074.5 250.8 L1086.7 250.8 1086.7 254.55 1077.35 254.5 Q1066.5 254.9 1067.7 263.05 L1067.65 272.7" fill="#dfdfdf" fill-rule="evenodd" stroke="none"/>
    <path d="M937.95 116.55 L938.0 112.85 941.7 112.85 941.7 118.55 Q941.7 128.25 931.15 128.8 L918.95 128.8 918.95 125.05 928.3 125.1 Q939.15 124.7 937.95 116.55" fill="#dfdfdf" fill-rule="evenodd" stroke="none"/>
    <path d="M1077.2 128.8 L1074.6 128.8 Q1064.05 128.25 1064.05 118.55 L1064.05 112.5 1067.8 112.5 1067.8 116.55 Q1066.6 124.6 1077.2 125.1 L1077.2 128.8" fill="#dfdfdf" fill-rule="evenodd" stroke="none"/>
  </g>
  <defs>
    <linearGradient gradientTransform="matrix(0.0455, 0.0, 0.0, 0.2336, 2470.3, 1404.75)" gradientUnits="userSpaceOnUse" id="gradient0" spreadMethod="pad" x1="-819.2" x2="819.2">
      <stop offset="0.00784313725490196" stop-color="#333333" stop-opacity="0.07058824"/>
      <stop offset="0.3137254901960784" stop-color="#000000" stop-opacity="0.24313726"/>
      <stop offset="0.5372549019607843" stop-color="#161616" stop-opacity="0.11372549"/>
      <stop offset="0.8156862745098039" stop-color="#333333" stop-opacity="0.24313726"/>
      <stop offset="1.0" stop-color="#000000" stop-opacity="0.0"/>
    </linearGradient>
    <linearGradient gradientTransform="matrix(-0.0483, 0.0, 0.0, 0.2336, 2384.3, 1404.75)" gradientUnits="userSpaceOnUse" id="gradient1" spreadMethod="pad" x1="-819.2" x2="819.2">
      <stop offset="0.00784313725490196" stop-color="#333333" stop-opacity="0.07058824"/>
      <stop offset="0.3137254901960784" stop-color="#000000" stop-opacity="0.24313726"/>
      <stop offset="0.5372549019607843" stop-color="#161616" stop-opacity="0.11372549"/>
      <stop offset="0.8156862745098039" stop-color="#333333" stop-opacity="0.24313726"/>
      <stop offset="1.0" stop-color="#000000" stop-opacity="0.0"/>
    </linearGradient>
    <linearGradient gradientTransform="matrix(0.0, -0.0356, 0.2086, 0.0, 1539.8, 160.5)" gradientUnits="userSpaceOnUse" id="gradient2" spreadMethod="pad" x1="-819.2" x2="819.2">
      <stop offset="0.00784313725490196" stop-color="#333333" stop-opacity="0.07058824"/>
      <stop offset="0.3137254901960784" stop-color="#000000" stop-opacity="0.24313726"/>
      <stop offset="0.5372549019607843" stop-color="#161616" stop-opacity="0.11372549"/>
      <stop offset="0.8156862745098039" stop-color="#333333" stop-opacity="0.24313726"/>
      <stop offset="1.0" stop-color="#000000" stop-opacity="0.0"/>
    </linearGradient>
    <linearGradient gradientTransform="matrix(0.0, 0.0356, 0.2086, 0.0, 1539.8, 223.5)" gradientUnits="userSpaceOnUse" id="gradient3" spreadMethod="pad" x1="-819.2" x2="819.2">
      <stop offset="0.00784313725490196" stop-color="#333333" stop-opacity="0.07058824"/>
      <stop offset="0.3137254901960784" stop-color="#000000" stop-opacity="0.24313726"/>
      <stop offset="0.5372549019607843" stop-color="#161616" stop-opacity="0.11372549"/>
      <stop offset="0.8156862745098039" stop-color="#333333" stop-opacity="0.24313726"/>
      <stop offset="1.0" stop-color="#000000" stop-opacity="0.0"/>
    </linearGradient>
    <linearGradient gradientTransform="matrix(0.0356, 0.0, 0.0, 0.026, 243.6, 2048.75)" gradientUnits="userSpaceOnUse" id="gradient4" spreadMethod="pad" x1="-819.2" x2="819.2">
      <stop offset="0.00784313725490196" stop-color="#333333" stop-opacity="0.07058824"/>
      <stop offset="0.3137254901960784" stop-color="#000000" stop-opacity="0.24313726"/>
      <stop offset="0.5372549019607843" stop-color="#161616" stop-opacity="0.11372549"/>
      <stop offset="0.8156862745098039" stop-color="#333333" stop-opacity="0.24313726"/>
      <stop offset="1.0" stop-color="#000000" stop-opacity="0.0"/>
    </linearGradient>
    <linearGradient gradientTransform="matrix(-0.0356, 0.0, 0.0, 0.026, 180.6, 2048.75)" gradientUnits="userSpaceOnUse" id="gradient5" spreadMethod="pad" x1="-819.2" x2="819.2">
      <stop offset="0.00784313725490196" stop-color="#333333" stop-opacity="0.07058824"/>
      <stop offset="0.3137254901960784" stop-color="#000000" stop-opacity="0.24313726"/>
      <stop offset="0.5372549019607843" stop-color="#161616" stop-opacity="0.11372549"/>
      <stop offset="0.8156862745098039" stop-color="#333333" stop-opacity="0.24313726"/>
      <stop offset="1.0" stop-color="#000000" stop-opacity="0.0"/>
    </linearGradient>
    <linearGradient gradientTransform="matrix(0.0, -0.0356, 0.2311, 0.0, 1398.4, 2240.5)" gradientUnits="userSpaceOnUse" id="gradient6" spreadMethod="pad" x1="-819.2" x2="819.2">
      <stop offset="0.00784313725490196" stop-color="#333333" stop-opacity="0.07058824"/>
      <stop offset="0.3137254901960784" stop-color="#000000" stop-opacity="0.24313726"/>
      <stop offset="0.5372549019607843" stop-color="#161616" stop-opacity="0.11372549"/>
      <stop offset="0.8156862745098039" stop-color="#333333" stop-opacity="0.24313726"/>
      <stop offset="1.0" stop-color="#000000" stop-opacity="0.0"/>
    </linearGradient>
    <linearGradient gradientTransform="matrix(0.0, 0.0356, 0.2311, 0.0, 1398.4, 2303.5)" gradientUnits="userSpaceOnUse" id="gradient7" spreadMethod="pad" x1="-819.2" x2="819.2">
      <stop offset="0.00784313725490196" stop-color="#333333" stop-opacity="0.07058824"/>
      <stop offset="0.3137254901960784" stop-color="#000000" stop-opacity="0.24313726"/>
      <stop offset="0.5372549019607843" stop-color="#161616" stop-opacity="0.11372549"/>
      <stop offset="0.8156862745098039" stop-color="#333333" stop-opacity="0.24313726"/>
      <stop offset="1.0" stop-color="#000000" stop-opacity="0.0"/>
    </linearGradient>
    <linearGradient gradientTransform="matrix(0.0356, 0.0, 0.0, 0.2311, 1032.1, 1397.5)" gradientUnits="userSpaceOnUse" id="gradient8" spreadMethod="pad" x1="-819.2" x2="819.2">
      <stop offset="0.00784313725490196" stop-color="#333333" stop-opacity="0.07058824"/>
      <stop offset="0.3137254901960784" stop-color="#000000" stop-opacity="0.24313726"/>
      <stop offset="0.5372549019607843" stop-color="#161616" stop-opacity="0.11372549"/>
      <stop offset="0.8156862745098039" stop-color="#333333" stop-opacity="0.24313726"/>
      <stop offset="1.0" stop-color="#000000" stop-opacity="0.0"/>
    </linearGradient>
    <linearGradient gradientTransform="matrix(-0.0356, 0.0, 0.0, 0.2311, 969.1, 1397.5)" gradientUnits="userSpaceOnUse" id="gradient9" spreadMethod="pad" x1="-819.2" x2="819.2">
      <stop offset="0.00784313725490196" stop-color="#333333" stop-opacity="0.07058824"/>
      <stop offset="0.3137254901960784" stop-color="#000000" stop-opacity="0.24313726"/>
      <stop offset="0.5372549019607843" stop-color="#161616" stop-opacity="0.11372549"/>
      <stop offset="0.8156862745098039" stop-color="#333333" stop-opacity="0.24313726"/>
      <stop offset="1.0" stop-color="#000000" stop-opacity="0.0"/>
    </linearGradient>
    <linearGradient gradientTransform="matrix(0.0356, 0.0, 0.0, 0.0355, 243.6, 200.1)" gradientUnits="userSpaceOnUse" id="gradient10" spreadMethod="pad" x1="-819.2" x2="819.2">
      <stop offset="0.00784313725490196" stop-color="#333333" stop-opacity="0.07058824"/>
      <stop offset="0.3137254901960784" stop-color="#000000" stop-opacity="0.24313726"/>
      <stop offset="0.5372549019607843" stop-color="#161616" stop-opacity="0.11372549"/>
      <stop offset="0.8156862745098039" stop-color="#333333" stop-opacity="0.24313726"/>
      <stop offset="1.0" stop-color="#000000" stop-opacity="0.0"/>
    </linearGradient>
    <linearGradient gradientTransform="matrix(-0.0356, 0.0, 0.0, 0.0355, 180.6, 200.1)" gradientUnits="userSpaceOnUse" id="gradient11" spreadMethod="pad" x1="-819.2" x2="819.2">
      <stop offset="0.00784313725490196" stop-color="#333333" stop-opacity="0.07058824"/>
      <stop offset="0.3137254901960784" stop-color="#000000" stop-opacity="0.24313726"/>
      <stop offset="0.5372549019607843" stop-color="#161616" stop-opacity="0.11372549"/>
      <stop offset="0.8156862745098039" stop-color="#333333" stop-opacity="0.24313726"/>
      <stop offset="1.0" stop-color="#000000" stop-opacity="0.0"/>
    </linearGradient>
    <linearGradient gradientTransform="matrix(0.0356, 0.0, 0.0, 0.026, 1997.05, 2495.0)" gradientUnits="userSpaceOnUse" id="gradient12" spreadMethod="pad" x1="-819.2" x2="819.2">
      <stop offset="0.00784313725490196" stop-color="#333333" stop-opacity="0.07058824"/>
      <stop offset="0.3137254901960784" stop-color="#000000" stop-opacity="0.24313726"/>
      <stop offset="0.5372549019607843" stop-color="#161616" stop-opacity="0.11372549"/>
      <stop offset="0.8156862745098039" stop-color="#333333" stop-opacity="0.24313726"/>
      <stop offset="1.0" stop-color="#000000" stop-opacity="0.0"/>
    </linearGradient>
    <linearGradient gradientTransform="matrix(-0.0356, 0.0, 0.0, 0.026, 1934.05, 2495.0)" gradientUnits="userSpaceOnUse" id="gradient13" spreadMethod="pad" x1="-819.2" x2="819.2">
      <stop offset="0.00784313725490196" stop-color="#333333" stop-opacity="0.07058824"/>
      <stop offset="0.3137254901960784" stop-color="#000000" stop-opacity="0.24313726"/>
      <stop offset="0.5372549019607843" stop-color="#161616" stop-opacity="0.11372549"/>
      <stop offset="0.8156862745098039" stop-color="#333333" stop-opacity="0.24313726"/>
      <stop offset="1.0" stop-color="#000000" stop-opacity="0.0"/>
    </linearGradient>
    <linearGradient gradientTransform="matrix(0.0369, -0.0138, 0.0091, 0.0243, 2045.3, 2779.7)" gradientUnits="userSpaceOnUse" id="gradient14" spreadMethod="pad" x1="-819.2" x2="819.2">
      <stop offset="0.00784313725490196" stop-color="#333333" stop-opacity="0.07058824"/>
      <stop offset="0.3137254901960784" stop-color="#000000" stop-opacity="0.24313726"/>
      <stop offset="0.5372549019607843" stop-color="#161616" stop-opacity="0.11372549"/>
      <stop offset="0.8156862745098039" stop-color="#333333" stop-opacity="0.24313726"/>
      <stop offset="1.0" stop-color="#000000" stop-opacity="0.0"/>
    </linearGradient>
    <linearGradient gradientTransform="matrix(-0.0369, -0.0138, -0.0091, 0.0243, 1890.15, 2779.7)" gradientUnits="userSpaceOnUse" id="gradient15" spreadMethod="pad" x1="-819.2" x2="819.2">
      <stop offset="0.00784313725490196" stop-color="#333333" stop-opacity="0.07058824"/>
      <stop offset="0.3137254901960784" stop-color="#000000" stop-opacity="0.24313726"/>
      <stop offset="0.5372549019607843" stop-color="#161616" stop-opacity="0.11372549"/>
      <stop offset="0.8156862745098039" stop-color="#333333" stop-opacity="0.24313726"/>
      <stop offset="1.0" stop-color="#000000" stop-opacity="0.0"/>
    </linearGradient>
    <linearGradient gradientTransform="matrix(0.0356, 0.0, 0.0, 0.0482, 110.8, 1136.2)" gradientUnits="userSpaceOnUse" id="gradient16" spreadMethod="pad" x1="-819.2" x2="819.2">
      <stop offset="0.00784313725490196" stop-color="#333333" stop-opacity="0.07058824"/>
      <stop offset="0.3137254901960784" stop-color="#000000" stop-opacity="0.24313726"/>
      <stop offset="0.5372549019607843" stop-color="#161616" stop-opacity="0.11372549"/>
      <stop offset="0.8156862745098039" stop-color="#333333" stop-opacity="0.24313726"/>
      <stop offset="1.0" stop-color="#000000" stop-opacity="0.0"/>
    </linearGradient>
    <linearGradient gradientTransform="matrix(-0.0356, 0.0, 0.0, 0.0482, 47.8, 1136.2)" gradientUnits="userSpaceOnUse" id="gradient17" spreadMethod="pad" x1="-819.2" x2="819.2">
      <stop offset="0.00784313725490196" stop-color="#333333" stop-opacity="0.07058824"/>
      <stop offset="0.3137254901960784" stop-color="#000000" stop-opacity="0.24313726"/>
      <stop offset="0.5372549019607843" stop-color="#161616" stop-opacity="0.11372549"/>
      <stop offset="0.8156862745098039" stop-color="#333333" stop-opacity="0.24313726"/>
      <stop offset="1.0" stop-color="#000000" stop-opacity="0.0"/>
    </linearGradient>
    <linearGradient gradientTransform="matrix(0.0344, 0.0089, -0.0121, 0.0466, 176.05, 636.05)" gradientUnits="userSpaceOnUse" id="gradient18" spreadMethod="pad" x1="-819.2" x2="819.2">
      <stop offset="0.00784313725490196" stop-color="#333333" stop-opacity="0.07058824"/>
      <stop offset="0.3137254901960784" stop-color="#000000" stop-opacity="0.24313726"/>
      <stop offset="0.5372549019607843" stop-color="#161616" stop-opacity="0.11372549"/>
      <stop offset="0.8156862745098039" stop-color="#333333" stop-opacity="0.24313726"/>
      <stop offset="1.0" stop-color="#000000" stop-opacity="0.0"/>
    </linearGradient>
    <linearGradient gradientTransform="matrix(-0.0344, -0.0089, -0.0121, 0.0466, 115.15, 620.2)" gradientUnits="userSpaceOnUse" id="gradient19" spreadMethod="pad" x1="-819.2" x2="819.2">
      <stop offset="0.00784313725490196" stop-color="#333333" stop-opacity="0.07058824"/>
      <stop offset="0.3137254901960784" stop-color="#000000" stop-opacity="0.24313726"/>
      <stop offset="0.5372549019607843" stop-color="#161616" stop-opacity="0.11372549"/>
      <stop offset="0.8156862745098039" stop-color="#333333" stop-opacity="0.24313726"/>
      <stop offset="1.0" stop-color="#000000" stop-opacity="0.0"/>
    </linearGradient>
    <linearGradient gradientTransform="matrix(0.0344, -0.0089, -0.0121, -0.0466, 172.05, 1654.35)" gradientUnits="userSpaceOnUse" id="gradient20" spreadMethod="pad" x1="-819.2" x2="819.2">
      <stop offset="0.00784313725490196" stop-color="#333333" stop-opacity="0.07058824"/>
      <stop offset="0.3137254901960784" stop-color="#000000" stop-opacity="0.24313726"/>
      <stop offset="0.5372549019607843" stop-color="#161616" stop-opacity="0.11372549"/>
      <stop offset="0.8156862745098039" stop-color="#333333" stop-opacity="0.24313726"/>
      <stop offset="1.0" stop-color="#000000" stop-opacity="0.0"/>
    </linearGradient>
    <linearGradient gradientTransform="matrix(-0.0344, 0.0089, -0.0121, -0.0466, 111.15, 1670.2)" gradientUnits="userSpaceOnUse" id="gradient21" spreadMethod="pad" x1="-819.2" x2="819.2">
      <stop offset="0.00784313725490196" stop-color="#333333" stop-opacity="0.07058824"/>
      <stop offset="0.3137254901960784" stop-color="#000000" stop-opacity="0.24313726"/>
      <stop offset="0.5372549019607843" stop-color="#161616" stop-opacity="0.11372549"/>
      <stop offset="0.8156862745098039" stop-color="#333333" stop-opacity="0.24313726"/>
      <stop offset="1.0" stop-color="#000000" stop-opacity="0.0"/>
    </linearGradient>
    <linearGradient gradientTransform="matrix(0.0356, 0.0, 0.0, 0.0403, 243.9, 2563.7)" gradientUnits="userSpaceOnUse" id="gradient22" spreadMethod="pad" x1="-819.2" x2="819.2">
      <stop offset="0.00784313725490196" stop-color="#333333" stop-opacity="0.07058824"/>
      <stop offset="0.3137254901960784" stop-color="#000000" stop-opacity="0.24313726"/>
      <stop offset="0.5372549019607843" stop-color="#161616" stop-opacity="0.11372549"/>
      <stop offset="0.8156862745098039" stop-color="#333333" stop-opacity="0.24313726"/>
      <stop offset="1.0" stop-color="#000000" stop-opacity="0.0"/>
    </linearGradient>
    <linearGradient gradientTransform="matrix(-0.0356, 0.0, 0.0, 0.0403, 180.9, 2563.7)" gradientUnits="userSpaceOnUse" id="gradient23" spreadMethod="pad" x1="-819.2" x2="819.2">
      <stop offset="0.00784313725490196" stop-color="#333333" stop-opacity="0.07058824"/>
      <stop offset="0.3137254901960784" stop-color="#000000" stop-opacity="0.24313726"/>
      <stop offset="0.5372549019607843" stop-color="#161616" stop-opacity="0.11372549"/>
      <stop offset="0.8156862745098039" stop-color="#333333" stop-opacity="0.24313726"/>
      <stop offset="1.0" stop-color="#000000" stop-opacity="0.0"/>
    </linearGradient>
  </defs>
</svg>
