<?xml version="1.0" encoding="UTF-8" standalone="no"?>
<svg xmlns:xlink="http://www.w3.org/1999/xlink" height="47.45px" width="117.0px" xmlns="http://www.w3.org/2000/svg">
  <g transform="matrix(1, 0, 0, 1, 0.0, 0.0)">
    <path d="M99.0 45.9 Q99.0 47.45 96.9 47.45 L90.9 47.45 Q88.8 47.45 88.8 45.9 L88.8 1.55 Q88.8 0.0 90.9 0.0 L96.9 0.0 Q99.0 0.0 99.0 1.55 L99.0 45.9" fill="#dfdfdf" fill-rule="evenodd" stroke="none"/>
    <path d="M81.25 45.9 Q81.25 47.45 79.15 47.45 L73.15 47.45 Q71.05 47.45 71.05 45.9 L71.05 1.55 Q71.05 0.0 73.15 0.0 L79.15 0.0 Q81.25 0.0 81.25 1.55 L81.25 45.9" fill="#dfdfdf" fill-rule="evenodd" stroke="none"/>
    <path d="M63.5 45.9 Q63.5 47.45 61.4 47.45 L55.4 47.45 Q53.3 47.45 53.3 45.9 L53.3 1.55 Q53.3 0.0 55.4 0.0 L61.4 0.0 Q63.5 0.0 63.5 1.55 L63.5 45.9" fill="#dfdfdf" fill-rule="evenodd" stroke="none"/>
    <path d="M45.7 45.9 Q45.7 47.45 43.6 47.45 L37.6 47.45 Q35.5 47.45 35.5 45.9 L35.5 1.55 Q35.5 0.0 37.6 0.0 L43.6 0.0 Q45.7 0.0 45.7 1.55 L45.7 45.9" fill="#dfdfdf" fill-rule="evenodd" stroke="none"/>
    <path d="M27.95 45.9 Q27.95 47.45 25.85 47.45 L19.85 47.45 Q17.75 47.45 17.75 45.9 L17.75 1.55 Q17.75 0.0 19.85 0.0 L25.85 0.0 Q27.95 0.0 27.95 1.55 L27.95 45.9" fill="#dfdfdf" fill-rule="evenodd" stroke="none"/>
    <path d="M10.2 45.9 Q10.2 47.45 8.1 47.45 L2.1 47.45 Q0.0 47.45 0.0 45.9 L0.0 1.55 Q0.0 0.0 2.1 0.0 L8.1 0.0 Q10.2 0.0 10.2 1.55 L10.2 45.9" fill="#dfdfdf" fill-rule="evenodd" stroke="none"/>
    <path d="M117.0 45.9 Q117.0 47.45 114.9 47.45 L108.9 47.45 Q106.8 47.45 106.8 45.9 L106.8 1.55 Q106.8 0.0 108.9 0.0 L114.9 0.0 Q117.0 0.0 117.0 1.55 L117.0 45.9" fill="#dfdfdf" fill-rule="evenodd" stroke="none"/>
  </g>
</svg>
