<?xml version="1.0" encoding="UTF-8" standalone="no"?>
<svg xmlns:xlink="http://www.w3.org/1999/xlink" height="160.3px" width="167.85px" xmlns="http://www.w3.org/2000/svg">
  <g transform="matrix(1, 0, 0, 1, -130.35, -2192.35)">
    <path d="M149.4 2352.65 L149.35 2343.0 Q150.55 2334.85 139.7 2334.45 L130.35 2334.5 130.35 2330.75 142.55 2330.75 Q153.1 2331.3 153.1 2341.0 L153.1 2352.65 149.4 2352.65" fill="#dfdfdf" fill-rule="evenodd" stroke="none"/>
    <path d="M275.45 2352.55 L275.45 2340.9 Q275.45 2331.2 286.0 2330.65 L298.2 2330.65 298.2 2334.4 288.85 2334.35 Q278.0 2334.75 279.2 2342.9 L279.15 2352.55 275.45 2352.55" fill="#dfdfdf" fill-rule="evenodd" stroke="none"/>
    <path d="M142.65 2208.65 L130.45 2208.65 130.45 2204.9 139.8 2204.95 Q150.65 2204.55 149.45 2196.4 L149.5 2192.7 153.2 2192.7 153.2 2198.4 Q153.2 2208.1 142.65 2208.65" fill="#dfdfdf" fill-rule="evenodd" stroke="none"/>
    <path d="M288.7 2208.65 L286.1 2208.65 Q275.55 2208.1 275.55 2198.4 L275.55 2192.35 279.3 2192.35 279.3 2196.4 Q278.1 2204.45 288.7 2204.95 L288.7 2208.65" fill="#dfdfdf" fill-rule="evenodd" stroke="none"/>
  </g>
</svg>
