<?xml version="1.0" encoding="UTF-8" standalone="no"?>
<svg xmlns:xlink="http://www.w3.org/1999/xlink" height="199.3px" width="217.55px" xmlns="http://www.w3.org/2000/svg">
  <g transform="matrix(1, 0, 0, 1, -2316.75, -73.65)">
    <path d="M2466.3 73.65 L2472.3 73.65 Q2474.4 73.65 2474.4 75.2 L2474.4 119.55 Q2474.4 121.1 2472.3 121.1 L2466.3 121.1 Q2464.2 121.1 2464.2 119.55 L2464.2 75.2 Q2464.2 73.65 2466.3 73.65" fill="#dfdfdf" fill-rule="evenodd" stroke="none"/>
    <path d="M2484.05 73.65 L2490.05 73.65 Q2492.15 73.65 2492.15 75.2 L2492.15 119.55 Q2492.15 121.1 2490.05 121.1 L2484.05 121.1 Q2481.95 121.1 2481.95 119.55 L2481.95 75.2 Q2481.95 73.65 2484.05 73.65" fill="#dfdfdf" fill-rule="evenodd" stroke="none"/>
    <path d="M2501.8 73.65 L2507.8 73.65 Q2509.9 73.65 2509.9 75.2 L2509.9 119.55 Q2509.9 121.1 2507.8 121.1 L2501.8 121.1 Q2499.7 121.1 2499.7 119.55 L2499.7 75.2 Q2499.7 73.65 2501.8 73.65" fill="#dfdfdf" fill-rule="evenodd" stroke="none"/>
    <path d="M2335.8 272.95 L2335.75 263.3 Q2336.95 255.15 2326.1 254.75 L2316.75 254.8 2316.75 251.05 2328.95 251.05 Q2339.5 251.6 2339.5 261.3 L2339.5 272.95 2335.8 272.95" fill="#dfdfdf" fill-rule="evenodd" stroke="none"/>
    <path d="M2515.25 272.85 L2511.55 272.85 2511.55 261.2 Q2511.55 251.5 2522.1 250.95 L2534.3 250.95 2534.3 254.7 2524.95 254.65 Q2514.1 255.05 2515.3 263.2 L2515.25 272.85" fill="#dfdfdf" fill-rule="evenodd" stroke="none"/>
    <path d="M2328.95 128.85 L2316.75 128.85 2316.75 125.1 2326.1 125.15 Q2336.95 124.75 2335.75 116.6 L2335.8 112.9 2339.5 112.9 2339.5 118.6 Q2339.5 128.3 2328.95 128.85" fill="#dfdfdf" fill-rule="evenodd" stroke="none"/>
    <path d="M2524.8 128.25 L2522.2 128.25 Q2511.65 127.7 2511.65 118.0 L2511.65 111.95 2515.4 111.95 2515.4 116.0 Q2514.2 124.05 2524.8 124.55 L2524.8 128.25" fill="#dfdfdf" fill-rule="evenodd" stroke="none"/>
  </g>
</svg>
