<?xml version="1.0" encoding="UTF-8" standalone="no"?>
<svg xmlns:xlink="http://www.w3.org/1999/xlink" height="47.45px" width="45.7px" xmlns="http://www.w3.org/2000/svg">
  <g transform="matrix(1, 0, 0, 1, -2464.2, -2337.75)">
    <path d="M2466.3 2337.75 L2472.3 2337.75 Q2474.4 2337.75 2474.4 2339.3 L2474.4 2383.65 Q2474.4 2385.2 2472.3 2385.2 L2466.3 2385.2 Q2464.2 2385.2 2464.2 2383.65 L2464.2 2339.3 Q2464.2 2337.75 2466.3 2337.75" fill="#dfdfdf" fill-rule="evenodd" stroke="none"/>
    <path d="M2484.05 2337.75 L2490.05 2337.75 Q2492.15 2337.75 2492.15 2339.3 L2492.15 2383.65 Q2492.15 2385.2 2490.05 2385.2 L2484.05 2385.2 Q2481.95 2385.2 2481.95 2383.65 L2481.95 2339.3 Q2481.95 2337.75 2484.05 2337.75" fill="#dfdfdf" fill-rule="evenodd" stroke="none"/>
    <path d="M2501.8 2337.75 L2507.8 2337.75 Q2509.9 2337.75 2509.9 2339.3 L2509.9 2383.65 Q2509.9 2385.2 2507.8 2385.2 L2501.8 2385.2 Q2499.7 2385.2 2499.7 2383.65 L2499.7 2339.3 Q2499.7 2337.75 2501.8 2337.75" fill="#dfdfdf" fill-rule="evenodd" stroke="none"/>
  </g>
</svg>
