<?xml version="1.0" encoding="UTF-8" standalone="no"?>
<svg xmlns:xlink="http://www.w3.org/1999/xlink" height="1492.15px" width="2539.35px" xmlns="http://www.w3.org/2000/svg">
  <g transform="matrix(1, 0, 0, 1, -262.9, -251.05)">
    <path d="M2466.3 257.75 L2472.3 257.75 Q2474.4 257.75 2474.4 259.3 L2474.4 303.65 Q2474.4 305.2 2472.3 305.2 L2466.3 305.2 Q2464.2 305.2 2464.2 303.65 L2464.2 259.3 Q2464.2 257.75 2466.3 257.75" fill="#dfdfdf" fill-rule="evenodd" stroke="none"/>
    <path d="M2484.05 257.75 L2490.05 257.75 Q2492.15 257.75 2492.15 259.3 L2492.15 303.65 Q2492.15 305.2 2490.05 305.2 L2484.05 305.2 Q2481.95 305.2 2481.95 303.65 L2481.95 259.3 Q2481.95 257.75 2484.05 257.75" fill="#dfdfdf" fill-rule="evenodd" stroke="none"/>
    <path d="M2501.8 257.75 L2507.8 257.75 Q2509.9 257.75 2509.9 259.3 L2509.9 303.65 Q2509.9 305.2 2507.8 305.2 L2501.8 305.2 Q2499.7 305.2 2499.7 303.65 L2499.7 259.3 Q2499.7 257.75 2501.8 257.75" fill="#dfdfdf" fill-rule="evenodd" stroke="none"/>
    <path d="M2045.0 1720.4 L2045.0 1724.15 1815.05 1724.15 1815.05 1721.55 1819.95 1720.5 1822.45 1720.4 2045.0 1720.4 M1075.25 1724.15 L1075.25 1720.4 1717.1 1720.4 1722.85 1721.15 1723.3 1721.15 Q1724.8 1722.1 1726.45 1722.4 L1726.45 1724.15 1075.25 1724.15" fill="#dfdfdf" fill-rule="evenodd" stroke="none"/>
    <path d="M1756.7 1667.7 L1756.7 1671.45 1447.35 1671.45 1447.35 1667.7 1756.7 1667.7 M1916.2 1667.7 L1916.2 1671.45 1838.1 1671.45 1838.1 1667.7 1916.2 1667.7 M2045.1 1667.7 L2045.1 1671.45 1994.75 1671.45 1994.75 1667.7 2045.1 1667.7 M1080.9 1671.45 L1080.9 1667.7 1367.95 1667.7 1367.95 1671.45 1080.9 1671.45" fill="#dfdfdf" fill-rule="evenodd" stroke="none"/>
    <path d="M2047.1 1732.9 L2047.1 1734.3 1817.1 1734.3 1817.1 1732.9 2047.1 1732.9 M1077.85 1734.3 L1077.85 1732.9 1710.35 1732.9 1710.35 1734.3 1077.85 1734.3" fill="#dfdfdf" fill-rule="evenodd" stroke="none"/>
    <path d="M1074.35 1720.45 L1086.0 1720.45 1086.0 1724.15 1076.35 1724.2 Q1068.2 1723.0 1067.8 1733.85 L1067.85 1743.2 1064.1 1743.2 1064.1 1731.0 Q1064.65 1720.45 1074.35 1720.45" fill="#dfdfdf" fill-rule="evenodd" stroke="none"/>
    <path d="M1086.05 1667.75 L1086.05 1671.45 1074.4 1671.45 Q1064.7 1671.45 1064.15 1660.9 L1064.15 1655.25 1067.85 1655.25 1067.85 1658.05 Q1068.25 1668.9 1076.4 1667.7 L1086.05 1667.75" fill="#dfdfdf" fill-rule="evenodd" stroke="none"/>
    <path d="M1761.3 1657.3 L1761.3 1658.7 1432.05 1658.7 1432.05 1657.3 1761.3 1657.3 M1928.7 1657.3 L1928.7 1658.7 1835.55 1658.7 1835.55 1657.3 1928.7 1657.3 M2047.1 1657.3 L2047.1 1658.7 1978.8 1658.7 1978.8 1657.3 2047.1 1657.3 M1077.85 1658.7 L1077.85 1657.3 1382.85 1657.3 1382.85 1658.7 1077.85 1658.7" fill="#dfdfdf" fill-rule="evenodd" stroke="none"/>
    <path d="M2328.35 1724.15 L2179.85 1724.15 2176.5 1723.8 2175.0 1723.9 2171.6 1723.5 2169.3 1723.75 2169.3 1720.85 2170.25 1720.85 2175.9 1720.4 2328.35 1720.4 2328.35 1724.15 M2065.9 1720.85 L2065.9 1724.15 2032.8 1724.15 2032.8 1720.4 2058.15 1720.4 2059.45 1720.5 2062.2 1720.5 2065.1 1720.85 2065.9 1720.85" fill="#dfdfdf" fill-rule="evenodd" stroke="none"/>
    <path d="M2326.65 1671.45 L2032.75 1671.45 2032.75 1667.7 2326.65 1667.7 2326.65 1671.45" fill="#dfdfdf" fill-rule="evenodd" stroke="none"/>
    <path d="M2314.65 1734.3 L2166.3 1734.3 2166.3 1732.9 2314.65 1732.9 2314.65 1734.3 M2032.8 1732.9 L2060.25 1732.9 2060.25 1734.3 2032.8 1734.3 2032.8 1732.9" fill="#dfdfdf" fill-rule="evenodd" stroke="none"/>
    <path d="M2329.25 1720.45 Q2338.95 1720.45 2339.5 1731.0 L2339.5 1743.2 2335.75 1743.2 2335.8 1733.85 Q2335.4 1723.0 2327.25 1724.2 L2317.6 1724.15 2317.6 1720.45 2329.25 1720.45" fill="#dfdfdf" fill-rule="evenodd" stroke="none"/>
    <path d="M2317.55 1667.75 L2327.2 1667.7 Q2335.35 1668.9 2335.75 1658.05 L2335.75 1655.25 2339.45 1655.25 2339.45 1660.9 Q2338.9 1671.45 2329.2 1671.45 L2317.55 1671.45 2317.55 1667.75" fill="#dfdfdf" fill-rule="evenodd" stroke="none"/>
    <path d="M2314.9 1657.3 L2314.9 1658.7 2032.8 1658.7 2032.8 1657.3 2314.9 1657.3" fill="#dfdfdf" fill-rule="evenodd" stroke="none"/>
    <path d="M2696.0 584.4 L2696.0 588.15 2522.8 588.15 2522.8 584.4 2696.0 584.4 M2800.05 584.4 L2800.05 588.15 2745.4 588.15 2745.4 584.4 2800.05 584.4" fill="#dfdfdf" fill-rule="evenodd" stroke="none"/>
    <path d="M2695.85 531.7 L2695.85 535.45 2528.45 535.45 2528.45 531.7 2695.85 531.7 M2802.25 531.7 L2802.25 535.45 2744.25 535.45 2744.25 531.7 2802.25 531.7" fill="#dfdfdf" fill-rule="evenodd" stroke="none"/>
    <path d="M2800.1 596.9 L2800.1 598.3 2756.75 598.3 2756.75 596.9 2800.1 596.9 M2682.85 596.9 L2682.85 598.3 2536.9 598.3 2536.9 596.9 2682.85 596.9" fill="#dfdfdf" fill-rule="evenodd" stroke="none"/>
    <path d="M2533.55 584.45 L2533.55 588.15 2523.9 588.2 Q2515.75 587.0 2515.35 597.85 L2515.4 607.2 2511.65 607.2 2511.65 595.0 Q2512.2 584.45 2521.9 584.45 L2533.55 584.45" fill="#dfdfdf" fill-rule="evenodd" stroke="none"/>
    <path d="M2533.6 531.75 L2533.6 535.45 2521.95 535.45 Q2512.25 535.45 2511.7 524.9 L2511.7 519.25 2515.4 519.25 2515.4 522.05 Q2515.8 532.9 2523.95 531.7 L2533.6 531.75" fill="#dfdfdf" fill-rule="evenodd" stroke="none"/>
    <path d="M2682.75 521.3 L2682.75 522.7 2536.4 522.7 2536.4 521.3 2682.75 521.3 M2800.05 521.3 L2800.05 522.7 2756.95 522.7 2756.95 521.3 2800.05 521.3" fill="#dfdfdf" fill-rule="evenodd" stroke="none"/>
    <path d="M502.25 1720.65 L502.25 1724.4 274.35 1724.4 274.35 1720.65 502.25 1720.65 M924.45 1721.8 Q922.75 1723.0 922.0 1724.4 L552.05 1724.4 552.05 1720.65 922.3 1720.65 Q923.5 1721.25 924.45 1721.8 M927.35 1594.65 L925.45 1598.4 620.4 1598.4 620.4 1594.65 927.35 1594.65" fill="#dfdfdf" fill-rule="evenodd" stroke="none"/>
    <path d="M935.15 1716.4 L620.5 1716.4 620.5 1661.3 935.15 1661.3 935.15 1716.4" fill="url(#gradient0)" fill-rule="evenodd" stroke="none"/>
    <path d="M935.15 1598.3 L935.15 1653.4 620.5 1653.4 620.5 1598.3 935.15 1598.3" fill="url(#gradient1)" fill-rule="evenodd" stroke="none"/>
    <path d="M831.65 1661.0 L788.65 1661.0 788.65 1658.1 831.65 1658.1 831.65 1661.0" fill="#dfdfdf" fill-rule="evenodd" stroke="none"/>
    <path d="M758.65 1661.0 L715.65 1661.0 715.65 1658.1 758.65 1658.1 758.65 1661.0" fill="#dfdfdf" fill-rule="evenodd" stroke="none"/>
    <path d="M685.65 1661.0 L642.65 1661.0 642.65 1658.1 685.65 1658.1 685.65 1661.0" fill="#dfdfdf" fill-rule="evenodd" stroke="none"/>
    <path d="M904.65 1661.0 L861.65 1661.0 861.65 1658.1 904.65 1658.1 904.65 1661.0" fill="#dfdfdf" fill-rule="evenodd" stroke="none"/>
    <path d="M500.8 1732.6 L500.8 1734.0 262.9 1734.0 262.9 1732.6 500.8 1732.6 M930.1 1732.6 L930.1 1734.0 553.5 1734.0 553.5 1732.6 930.1 1732.6" fill="#dfdfdf" fill-rule="evenodd" stroke="none"/>
    <path d="M929.65 1584.2 L929.65 1585.6 631.85 1585.6 631.85 1584.2 929.65 1584.2" fill="#dfdfdf" fill-rule="evenodd" stroke="none"/>
    <path d="M619.55 892.15 L619.55 888.4 930.35 888.4 930.35 892.15 619.55 892.15" fill="#dfdfdf" fill-rule="evenodd" stroke="none"/>
    <path d="M273.4 835.7 L865.3 835.7 865.3 839.45 273.4 839.45 273.4 835.7" fill="#dfdfdf" fill-rule="evenodd" stroke="none"/>
    <path d="M632.5 902.3 L632.5 900.9 929.3 900.9 929.3 902.3 632.5 902.3" fill="#dfdfdf" fill-rule="evenodd" stroke="none"/>
    <path d="M919.6 888.45 L931.25 888.45 Q940.95 888.45 941.5 899.0 L941.5 911.2 937.75 911.2 937.8 901.85 Q937.4 891.0 929.25 892.2 L919.6 892.15 919.6 888.45" fill="#dfdfdf" fill-rule="evenodd" stroke="none"/>
    <path d="M262.95 826.7 L262.95 825.3 740.9 825.3 740.9 826.7 262.95 826.7" fill="#dfdfdf" fill-rule="evenodd" stroke="none"/>
    <path d="M1734.05 613.6 L1735.8 613.6 1737.75 615.1 Q1740.8 617.25 1744.15 618.4 L1880.3 754.55 1877.65 757.2 1734.05 613.6 M1382.4 256.9 L1384.2 258.45 1668.5 542.75 1669.8 544.25 1672.3 548.6 1674.3 551.85 1672.3 551.85 1374.85 254.4 1375.4 254.3 1377.3 254.75 1377.95 254.6 Q1380.6 256.5 1381.8 256.5 L1382.05 256.5 1382.4 256.9" fill="#dfdfdf" fill-rule="evenodd" stroke="none"/>
    <path d="M1818.2 623.15 Q1817.85 622.4 1817.15 621.75 1816.95 620.45 1815.95 619.75 1815.05 617.85 1811.95 613.2 L1811.8 613.0 1812.15 611.8 1917.65 717.3 1915.0 719.95 1818.2 623.15 M1686.7 491.05 L1688.7 488.35 1762.25 561.9 1758.7 560.9 1755.3 560.25 1686.45 491.4 1686.7 491.05 M1466.15 271.1 L1465.55 270.25 Q1465.25 269.35 1464.8 269.2 L1464.4 268.75 1464.2 268.3 1463.25 267.4 Q1463.2 266.45 1460.9 264.25 L1460.9 260.55 1628.55 428.2 Q1627.15 429.6 1626.1 431.05 L1466.15 271.1" fill="#dfdfdf" fill-rule="evenodd" stroke="none"/>
    <path d="M1730.75 624.7 L1730.75 623.85 1731.9 623.85 1871.45 763.4 1870.45 764.4 1730.75 624.7 M1368.65 262.6 L1370.65 262.6 1656.7 548.65 1656.7 549.8 1655.85 549.8 1368.65 262.6" fill="#dfdfdf" fill-rule="evenodd" stroke="none"/>
    <path d="M1832.15 619.1 L1834.05 619.1 1924.9 709.95 1923.95 710.9 1832.15 619.1 M1684.1 471.05 L1684.1 469.15 1766.55 551.6 1764.65 551.6 1684.1 471.05 M1475.65 262.6 L1477.55 262.6 1647.75 432.8 1647.75 434.7 1475.65 262.6" fill="#dfdfdf" fill-rule="evenodd" stroke="none"/>
    <path d="M1871.65 745.9 L1944.6 818.85 1946.35 821.25 1948.15 823.25 1949.1 824.8 1951.15 827.95 1951.15 830.7 1869.0 748.55 1871.65 745.9" fill="#dfdfdf" fill-rule="evenodd" stroke="none"/>
    <path d="M1908.95 708.6 L2034.4 834.05 Q2030.1 832.4 2026.85 831.8 L1906.3 711.25 1908.95 708.6" fill="#dfdfdf" fill-rule="evenodd" stroke="none"/>
    <path d="M1862.8 754.75 L1934.55 826.5 1932.55 826.5 1861.8 755.75 1862.8 754.75" fill="#dfdfdf" fill-rule="evenodd" stroke="none"/>
    <path d="M1933.7 838.8 L1931.15 835.5 1940.9 834.45 Q1951.9 832.85 1945.15 825.8 L1938.7 817.25 1942.55 816.8 1950.4 827.1 Q1956.95 835.65 1946.4 837.4 L1933.7 838.8" fill="#dfdfdf" fill-rule="evenodd" stroke="none"/>
    <path d="M2049.1 836.5 L2052.75 836.3 2055.4 839.05 2048.1 839.4 Q2034.05 839.65 2027.15 832.5 L2018.9 823.9 2023.7 823.65 2030.6 830.8 Q2034.8 836.9 2049.1 836.5" fill="#dfdfdf" fill-rule="evenodd" stroke="none"/>
    <path d="M1915.3 702.25 L1916.25 701.3 2041.45 826.5 2039.55 826.5 1915.3 702.25" fill="#dfdfdf" fill-rule="evenodd" stroke="none"/>
    <path d="M1469.25 255.4 Q1458.25 257.0 1465.0 264.05 L1471.45 272.6 1468.7 272.95 1468.1 272.35 Q1466.75 271.1 1465.9 270.8 L1459.75 262.75 Q1453.2 254.2 1463.75 252.45 L1476.45 251.05 1479.0 254.35 1469.25 255.4" fill="#dfdfdf" fill-rule="evenodd" stroke="none"/>
    <path d="M1387.75 267.25 L1380.85 260.1 Q1376.65 254.0 1362.35 254.4 L1358.7 254.6 1356.05 251.85 1363.35 251.5 Q1377.4 251.25 1384.3 258.4 L1392.55 267.0 1387.75 267.25" fill="#dfdfdf" fill-rule="evenodd" stroke="none"/>
    <path d="M2725.9 1106.85 L2725.9 1103.1 2800.05 1103.1 2800.05 1106.85 2725.9 1106.85 M2635.35 1103.1 L2635.35 1106.85 2522.8 1106.85 2522.8 1103.1 2635.35 1103.1" fill="#dfdfdf" fill-rule="evenodd" stroke="none"/>
    <path d="M2762.15 1054.15 L2762.15 1050.4 2802.25 1050.4 2802.25 1054.15 2762.15 1054.15 M2679.6 1050.4 L2679.6 1054.15 2528.45 1054.15 2528.45 1050.4 2679.6 1050.4" fill="#dfdfdf" fill-rule="evenodd" stroke="none"/>
    <path d="M2709.45 1117.0 L2709.45 1115.6 2800.1 1115.6 2800.1 1117.0 2709.45 1117.0 M2657.8 1115.6 L2657.8 1117.0 2536.9 1117.0 2536.9 1115.6 2657.8 1115.6" fill="#dfdfdf" fill-rule="evenodd" stroke="none"/>
    <path d="M2533.55 1106.85 L2523.9 1106.9 Q2515.75 1105.7 2515.35 1116.55 L2515.4 1125.9 2511.65 1125.9 2511.65 1113.7 Q2512.2 1103.15 2521.9 1103.15 L2533.55 1103.15 2533.55 1106.85" fill="#dfdfdf" fill-rule="evenodd" stroke="none"/>
    <path d="M2515.4 1037.95 L2515.4 1040.75 Q2515.8 1051.6 2523.95 1050.4 L2533.6 1050.45 2533.6 1054.15 2521.95 1054.15 Q2512.25 1054.15 2511.7 1043.6 L2511.7 1037.95 2515.4 1037.95" fill="#dfdfdf" fill-rule="evenodd" stroke="none"/>
    <path d="M2747.1 1041.4 L2747.1 1040.0 2800.05 1040.0 2800.05 1041.4 2747.1 1041.4 M2697.4 1040.0 L2697.4 1041.4 2536.4 1041.4 2536.4 1040.0 2697.4 1040.0" fill="#dfdfdf" fill-rule="evenodd" stroke="none"/>
    <path d="M2642.4 1720.3 L2642.4 1724.05 2522.55 1724.05 2522.55 1720.3 2642.4 1720.3 M2799.8 1720.3 L2799.8 1724.05 2692.35 1724.05 2692.35 1720.3 2799.8 1720.3" fill="#dfdfdf" fill-rule="evenodd" stroke="none"/>
    <path d="M2607.2 1667.6 L2607.2 1671.35 2528.2 1671.35 2528.2 1667.6 2607.2 1667.6 M2802.0 1667.6 L2802.0 1671.35 2678.8 1671.35 2678.8 1667.6 2802.0 1667.6" fill="#dfdfdf" fill-rule="evenodd" stroke="none"/>
    <path d="M2629.75 1732.8 L2629.75 1734.2 2536.65 1734.2 2536.65 1732.8 2629.75 1732.8 M2799.85 1732.8 L2799.85 1734.2 2703.65 1734.2 2703.65 1732.8 2799.85 1732.8" fill="#dfdfdf" fill-rule="evenodd" stroke="none"/>
    <path d="M2521.65 1720.35 L2533.3 1720.35 2533.3 1724.05 2523.65 1724.1 Q2515.5 1722.9 2515.1 1733.75 L2515.15 1743.1 2511.4 1743.1 2511.4 1730.9 Q2511.95 1720.35 2521.65 1720.35" fill="#dfdfdf" fill-rule="evenodd" stroke="none"/>
    <path d="M2533.35 1667.65 L2533.35 1671.35 2521.7 1671.35 Q2512.0 1671.35 2511.45 1660.8 L2511.45 1655.15 2515.15 1655.15 2515.15 1657.95 Q2515.55 1668.8 2523.7 1667.6 L2533.35 1667.65" fill="#dfdfdf" fill-rule="evenodd" stroke="none"/>
    <path d="M2617.9 1657.2 L2617.9 1658.6 2536.15 1658.6 2536.15 1657.2 2617.9 1657.2 M2799.8 1657.2 L2799.8 1658.6 2666.25 1658.6 2666.25 1657.2 2799.8 1657.2" fill="#dfdfdf" fill-rule="evenodd" stroke="none"/>
  </g>
  <defs>
    <linearGradient gradientTransform="matrix(0.0, 0.0356, -0.026, 0.0, 777.8, 1688.85)" gradientUnits="userSpaceOnUse" id="gradient0" spreadMethod="pad" x1="-819.2" x2="819.2">
      <stop offset="0.00784313725490196" stop-color="#333333" stop-opacity="0.0"/>
      <stop offset="0.3137254901960784" stop-color="#000000" stop-opacity="0.18039216"/>
      <stop offset="0.5372549019607843" stop-color="#161616" stop-opacity="0.0"/>
      <stop offset="0.8156862745098039" stop-color="#333333" stop-opacity="0.17254902"/>
      <stop offset="1.0" stop-color="#000000" stop-opacity="0.0"/>
    </linearGradient>
    <linearGradient gradientTransform="matrix(0.0, -0.0356, -0.026, 0.0, 777.8, 1625.85)" gradientUnits="userSpaceOnUse" id="gradient1" spreadMethod="pad" x1="-819.2" x2="819.2">
      <stop offset="0.00784313725490196" stop-color="#333333" stop-opacity="0.0"/>
      <stop offset="0.3137254901960784" stop-color="#000000" stop-opacity="0.18039216"/>
      <stop offset="0.5372549019607843" stop-color="#161616" stop-opacity="0.0"/>
      <stop offset="0.8156862745098039" stop-color="#333333" stop-opacity="0.17254902"/>
      <stop offset="1.0" stop-color="#000000" stop-opacity="0.0"/>
    </linearGradient>
  </defs>
</svg>
