<?xml version="1.0" encoding="UTF-8" standalone="no"?>
<svg xmlns:xlink="http://www.w3.org/1999/xlink" height="45.95px" width="222.65px" xmlns="http://www.w3.org/2000/svg">
  <g transform="matrix(1, 0, 0, 1, -890.85, -840.45)">
    <path d="M938.3 866.3 Q938.3 868.4 936.75 868.4 L892.4 868.4 Q890.85 868.4 890.85 866.3 L890.85 860.3 Q890.85 858.2 892.4 858.2 L936.75 858.2 Q938.3 858.2 938.3 860.3 L938.3 866.3" fill="#dfdfdf" fill-rule="evenodd" stroke="none"/>
    <path d="M938.3 848.55 Q938.3 850.65 936.75 850.65 L892.4 850.65 Q890.85 850.65 890.85 848.55 L890.85 842.55 Q890.85 840.45 892.4 840.45 L936.75 840.45 Q938.3 840.45 938.3 842.55 L938.3 848.55" fill="#dfdfdf" fill-rule="evenodd" stroke="none"/>
    <path d="M938.3 884.3 Q938.3 886.4 936.75 886.4 L892.4 886.4 Q890.85 886.4 890.85 884.3 L890.85 878.3 Q890.85 876.2 892.4 876.2 L936.75 876.2 Q938.3 876.2 938.3 878.3 L938.3 884.3" fill="#dfdfdf" fill-rule="evenodd" stroke="none"/>
    <path d="M1066.05 866.3 L1066.05 860.3 Q1066.05 858.2 1067.6 858.2 L1111.95 858.2 Q1113.5 858.2 1113.5 860.3 L1113.5 866.3 Q1113.5 868.4 1111.95 868.4 L1067.6 868.4 Q1066.05 868.4 1066.05 866.3" fill="#dfdfdf" fill-rule="evenodd" stroke="none"/>
    <path d="M1066.05 848.55 L1066.05 842.55 Q1066.05 840.45 1067.6 840.45 L1111.95 840.45 Q1113.5 840.45 1113.5 842.55 L1113.5 848.55 Q1113.5 850.65 1111.95 850.65 L1067.6 850.65 Q1066.05 850.65 1066.05 848.55" fill="#dfdfdf" fill-rule="evenodd" stroke="none"/>
    <path d="M1066.05 884.3 L1066.05 878.3 Q1066.05 876.2 1067.6 876.2 L1111.95 876.2 Q1113.5 876.2 1113.5 878.3 L1113.5 884.3 Q1113.5 886.4 1111.95 886.4 L1067.6 886.4 Q1066.05 886.4 1066.05 884.3" fill="#dfdfdf" fill-rule="evenodd" stroke="none"/>
  </g>
</svg>
