<?xml version="1.0" encoding="UTF-8" standalone="no"?>
<svg xmlns:xlink="http://www.w3.org/1999/xlink" height="159.95px" width="167.85px" xmlns="http://www.w3.org/2000/svg">
  <g transform="matrix(1, 0, 0, 1, -918.85, -1582.5)">
    <path d="M918.85 1720.55 L931.05 1720.55 Q941.6 1721.1 941.6 1730.8 L941.6 1742.45 937.9 1742.45 937.85 1732.8 Q939.05 1724.65 928.2 1724.25 L918.85 1724.3 918.85 1720.55" fill="#dfdfdf" fill-rule="evenodd" stroke="none"/>
    <path d="M1086.7 1720.45 L1086.7 1724.2 1077.35 1724.15 Q1066.5 1724.55 1067.7 1732.7 L1067.65 1742.35 1063.95 1742.35 1063.95 1730.7 Q1063.95 1721.0 1074.5 1720.45 L1086.7 1720.45" fill="#dfdfdf" fill-rule="evenodd" stroke="none"/>
    <path d="M938.0 1582.5 L941.7 1582.5 941.7 1588.2 Q941.7 1597.9 931.15 1598.45 L918.95 1598.45 918.95 1594.7 928.3 1594.75 Q939.15 1594.35 937.95 1586.2 L938.0 1582.5" fill="#dfdfdf" fill-rule="evenodd" stroke="none"/>
  </g>
</svg>
