<?xml version="1.0" encoding="UTF-8" standalone="no"?>
<svg xmlns:xlink="http://www.w3.org/1999/xlink" height="45.95px" width="1494.45px" xmlns="http://www.w3.org/2000/svg">
  <g transform="matrix(1, 0, 0, 1, -1066.05, -1672.95)">
    <path d="M1113.5 1698.8 Q1113.5 1700.9 1111.95 1700.9 L1067.6 1700.9 Q1066.05 1700.9 1066.05 1698.8 L1066.05 1692.8 Q1066.05 1690.7 1067.6 1690.7 L1111.95 1690.7 Q1113.5 1690.7 1113.5 1692.8 L1113.5 1698.8" fill="#dfdfdf" fill-rule="evenodd" stroke="none"/>
    <path d="M1066.05 1675.05 Q1066.05 1672.95 1067.6 1672.95 L1111.95 1672.95 Q1113.5 1672.95 1113.5 1675.05 L1113.5 1681.05 Q1113.5 1683.15 1111.95 1683.15 L1067.6 1683.15 Q1066.05 1683.15 1066.05 1681.05 L1066.05 1675.05" fill="#dfdfdf" fill-rule="evenodd" stroke="none"/>
    <path d="M1113.5 1716.8 Q1113.5 1718.9 1111.95 1718.9 L1067.6 1718.9 Q1066.05 1718.9 1066.05 1716.8 L1066.05 1710.8 Q1066.05 1708.7 1067.6 1708.7 L1111.95 1708.7 Q1113.5 1708.7 1113.5 1710.8 L1113.5 1716.8" fill="#dfdfdf" fill-rule="evenodd" stroke="none"/>
    <path d="M2336.1 1698.8 Q2336.1 1700.9 2334.55 1700.9 L2290.2 1700.9 Q2288.65 1700.9 2288.65 1698.8 L2288.65 1692.8 Q2288.65 1690.7 2290.2 1690.7 L2334.55 1690.7 Q2336.1 1690.7 2336.1 1692.8 L2336.1 1698.8" fill="#dfdfdf" fill-rule="evenodd" stroke="none"/>
    <path d="M2288.65 1675.05 Q2288.65 1672.95 2290.2 1672.95 L2334.55 1672.95 Q2336.1 1672.95 2336.1 1675.05 L2336.1 1681.05 Q2336.1 1683.15 2334.55 1683.15 L2290.2 1683.15 Q2288.65 1683.15 2288.65 1681.05 L2288.65 1675.05" fill="#dfdfdf" fill-rule="evenodd" stroke="none"/>
    <path d="M2336.1 1716.8 Q2336.1 1718.9 2334.55 1718.9 L2290.2 1718.9 Q2288.65 1718.9 2288.65 1716.8 L2288.65 1710.8 Q2288.65 1708.7 2290.2 1708.7 L2334.55 1708.7 Q2336.1 1708.7 2336.1 1710.8 L2336.1 1716.8" fill="#dfdfdf" fill-rule="evenodd" stroke="none"/>
    <path d="M2560.5 1698.8 Q2560.5 1700.9 2558.95 1700.9 L2514.6 1700.9 Q2513.05 1700.9 2513.05 1698.8 L2513.05 1692.8 Q2513.05 1690.7 2514.6 1690.7 L2558.95 1690.7 Q2560.5 1690.7 2560.5 1692.8 L2560.5 1698.8" fill="#dfdfdf" fill-rule="evenodd" stroke="none"/>
    <path d="M2513.05 1675.05 Q2513.05 1672.95 2514.6 1672.95 L2558.95 1672.95 Q2560.5 1672.95 2560.5 1675.05 L2560.5 1681.05 Q2560.5 1683.15 2558.95 1683.15 L2514.6 1683.15 Q2513.05 1683.15 2513.05 1681.05 L2513.05 1675.05" fill="#dfdfdf" fill-rule="evenodd" stroke="none"/>
    <path d="M2560.5 1716.8 Q2560.5 1718.9 2558.95 1718.9 L2514.6 1718.9 Q2513.05 1718.9 2513.05 1716.8 L2513.05 1710.8 Q2513.05 1708.7 2514.6 1708.7 L2558.95 1708.7 Q2560.5 1708.7 2560.5 1710.8 L2560.5 1716.8" fill="#dfdfdf" fill-rule="evenodd" stroke="none"/>
  </g>
</svg>
