<?xml version="1.0" encoding="UTF-8" standalone="no"?>
<svg xmlns:xlink="http://www.w3.org/1999/xlink" height="719.5px" width="95.5px" xmlns="http://www.w3.org/2000/svg">
  <g transform="matrix(1, 0, 0, 1, -2464.55, -1055.95)">
    <path d="M2484.65 1728.0 L2490.65 1728.0 Q2492.75 1728.0 2492.75 1729.55 L2492.75 1773.9 Q2492.75 1775.45 2490.65 1775.45 L2484.65 1775.45 Q2482.55 1775.45 2482.55 1773.9 L2482.55 1729.55 Q2482.55 1728.0 2484.65 1728.0" fill="#dfdfdf" fill-rule="evenodd" stroke="none"/>
    <path d="M2502.4 1728.0 L2508.4 1728.0 Q2510.5 1728.0 2510.5 1729.55 L2510.5 1773.9 Q2510.5 1775.45 2508.4 1775.45 L2502.4 1775.45 Q2500.3 1775.45 2500.3 1773.9 L2500.3 1729.55 Q2500.3 1728.0 2502.4 1728.0" fill="#dfdfdf" fill-rule="evenodd" stroke="none"/>
    <path d="M2474.75 1729.55 L2474.75 1773.9 Q2474.75 1775.45 2472.65 1775.45 L2466.65 1775.45 Q2464.55 1775.45 2464.55 1773.9 L2464.55 1729.55 Q2464.55 1728.0 2466.65 1728.0 L2472.65 1728.0 Q2474.75 1728.0 2474.75 1729.55" fill="#dfdfdf" fill-rule="evenodd" stroke="none"/>
    <path d="M2512.6 1081.8 L2512.6 1075.8 Q2512.6 1073.7 2514.15 1073.7 L2558.5 1073.7 Q2560.05 1073.7 2560.05 1075.8 L2560.05 1081.8 Q2560.05 1083.9 2558.5 1083.9 L2514.15 1083.9 Q2512.6 1083.9 2512.6 1081.8" fill="#dfdfdf" fill-rule="evenodd" stroke="none"/>
    <path d="M2512.6 1064.05 L2512.6 1058.05 Q2512.6 1055.95 2514.15 1055.95 L2558.5 1055.95 Q2560.05 1055.95 2560.05 1058.05 L2560.05 1064.05 Q2560.05 1066.15 2558.5 1066.15 L2514.15 1066.15 Q2512.6 1066.15 2512.6 1064.05" fill="#dfdfdf" fill-rule="evenodd" stroke="none"/>
    <path d="M2560.05 1099.8 Q2560.05 1101.9 2558.5 1101.9 L2514.15 1101.9 Q2512.6 1101.9 2512.6 1099.8 L2512.6 1093.8 Q2512.6 1091.7 2514.15 1091.7 L2558.5 1091.7 Q2560.05 1091.7 2560.05 1093.8 L2560.05 1099.8" fill="#dfdfdf" fill-rule="evenodd" stroke="none"/>
  </g>
</svg>
