<?xml version="1.0" encoding="UTF-8" standalone="no"?>
<svg xmlns:xlink="http://www.w3.org/1999/xlink" height="2210.25px" width="2108.3px" xmlns="http://www.w3.org/2000/svg">
  <g transform="matrix(1, 0, 0, 1, -451.75, 1.6)">
    <path d="M2366.6 895.0 Q2368.7 895.0 2368.7 896.55 L2368.7 940.9 Q2368.7 942.45 2366.6 942.45 L2360.6 942.45 Q2358.5 942.45 2358.5 940.9 L2358.5 896.55 Q2358.5 895.0 2360.6 895.0 L2366.6 895.0" fill="#dfdfdf" fill-rule="evenodd" stroke="none"/>
    <path d="M2342.85 895.0 L2348.85 895.0 Q2350.95 895.0 2350.95 896.55 L2350.95 940.9 Q2350.95 942.45 2348.85 942.45 L2342.85 942.45 Q2340.75 942.45 2340.75 940.9 L2340.75 896.55 Q2340.75 895.0 2342.85 895.0" fill="#dfdfdf" fill-rule="evenodd" stroke="none"/>
    <path d="M2384.6 895.0 Q2386.7 895.0 2386.7 896.55 L2386.7 940.9 Q2386.7 942.45 2384.6 942.45 L2378.6 942.45 Q2376.5 942.45 2376.5 940.9 L2376.5 896.55 Q2376.5 895.0 2378.6 895.0 L2384.6 895.0" fill="#dfdfdf" fill-rule="evenodd" stroke="none"/>
    <path d="M2512.6 562.75 L2512.6 556.75 Q2512.6 554.65 2514.15 554.65 L2558.5 554.65 Q2560.05 554.65 2560.05 556.75 L2560.05 562.75 Q2560.05 564.85 2558.5 564.85 L2514.15 564.85 Q2512.6 564.85 2512.6 562.75" fill="#dfdfdf" fill-rule="evenodd" stroke="none"/>
    <path d="M2560.05 539.0 L2560.05 545.0 Q2560.05 547.1 2558.5 547.1 L2514.15 547.1 Q2512.6 547.1 2512.6 545.0 L2512.6 539.0 Q2512.6 536.9 2514.15 536.9 L2558.5 536.9 Q2560.05 536.9 2560.05 539.0" fill="#dfdfdf" fill-rule="evenodd" stroke="none"/>
    <path d="M2512.6 580.75 L2512.6 574.75 Q2512.6 572.65 2514.15 572.65 L2558.5 572.65 Q2560.05 572.65 2560.05 574.75 L2560.05 580.75 Q2560.05 582.85 2558.5 582.85 L2514.15 582.85 Q2512.6 582.85 2512.6 580.75" fill="#dfdfdf" fill-rule="evenodd" stroke="none"/>
    <path d="M1770.15 1496.75 L1773.9 1496.75 1773.9 1660.15 1770.15 1660.15 1770.15 1496.75 M1770.15 1151.05 L1773.9 1151.05 1773.9 1419.95 1770.15 1419.95 1770.15 1151.05" fill="#dfdfdf" fill-rule="evenodd" stroke="none"/>
    <path d="M1822.85 1120.35 L1826.6 1120.35 1826.6 1656.6 1822.85 1656.6 1822.85 1120.35" fill="#dfdfdf" fill-rule="evenodd" stroke="none"/>
    <path d="M1760.0 1495.15 L1761.4 1495.15 1761.4 1658.6 1760.0 1658.6 1760.0 1495.15 M1760.0 1151.5 L1761.4 1151.5 1761.4 1421.2 1760.0 1421.2 1760.0 1151.5" fill="#dfdfdf" fill-rule="evenodd" stroke="none"/>
    <path d="M1770.15 1649.4 L1773.85 1649.4 1773.85 1661.05 Q1773.85 1670.75 1763.3 1671.3 L1751.1 1671.3 1751.1 1667.55 1760.45 1667.6 Q1771.3 1667.2 1770.1 1659.05 L1770.15 1649.4" fill="#dfdfdf" fill-rule="evenodd" stroke="none"/>
    <path d="M1826.55 1649.35 L1826.6 1659.0 Q1825.4 1667.15 1836.25 1667.55 L1839.05 1667.55 1839.05 1671.25 1833.4 1671.25 Q1822.85 1670.7 1822.85 1661.0 L1822.85 1649.35 1826.55 1649.35" fill="#dfdfdf" fill-rule="evenodd" stroke="none"/>
    <path d="M1835.6 1118.9 L1837.0 1118.9 1837.0 1658.8 1835.6 1658.8 1835.6 1118.9" fill="#dfdfdf" fill-rule="evenodd" stroke="none"/>
    <path d="M1795.85 1621.4 L1801.85 1621.4 Q1803.95 1621.4 1803.95 1622.95 L1803.95 1667.3 Q1803.95 1668.85 1801.85 1668.85 L1795.85 1668.85 Q1793.75 1668.85 1793.75 1667.3 L1793.75 1622.95 Q1793.75 1621.4 1795.85 1621.4" fill="#dfdfdf" fill-rule="evenodd" stroke="none"/>
    <path d="M1813.6 1621.4 L1819.6 1621.4 Q1821.7 1621.4 1821.7 1622.95 L1821.7 1667.3 Q1821.7 1668.85 1819.6 1668.85 L1813.6 1668.85 Q1811.5 1668.85 1811.5 1667.3 L1811.5 1622.95 Q1811.5 1621.4 1813.6 1621.4" fill="#dfdfdf" fill-rule="evenodd" stroke="none"/>
    <path d="M1785.95 1622.95 L1785.95 1667.3 Q1785.95 1668.85 1783.85 1668.85 L1777.85 1668.85 Q1775.75 1668.85 1775.75 1667.3 L1775.75 1622.95 Q1775.75 1621.4 1777.85 1621.4 L1783.85 1621.4 Q1785.95 1621.4 1785.95 1622.95" fill="#dfdfdf" fill-rule="evenodd" stroke="none"/>
    <path d="M1805.5 1726.45 L1809.95 1723.5 1810.2 1723.5 Q1811.65 1723.5 1814.75 1722.5 L1410.95 2126.3 1408.3 2123.65 1805.5 1726.45" fill="#dfdfdf" fill-rule="evenodd" stroke="none"/>
    <path d="M1534.2 1923.15 Q1535.35 1924.85 1537.65 1925.05 L1387.3 2075.35 1385.0 2073.2 1384.55 2072.85 1534.2 1923.15 M1730.8 1728.85 L1729.95 1731.15 1729.55 1732.3 1729.0 1733.05 Q1727.35 1734.85 1726.45 1736.25 L1591.15 1871.55 Q1590.8 1870.4 1589.8 1869.55 L1588.65 1868.75 1730.85 1726.5 1730.8 1728.85" fill="#dfdfdf" fill-rule="evenodd" stroke="none"/>
    <path d="M1816.7 1732.95 L1818.7 1732.95 1418.15 2133.5 1417.15 2132.5 1816.7 1732.95" fill="#dfdfdf" fill-rule="evenodd" stroke="none"/>
    <path d="M1537.1 1905.65 L1538.0 1906.65 1371.1 2073.6 1370.15 2072.65 1537.1 1905.65 M1709.8 1732.95 L1711.7 1732.95 1575.05 1869.65 1573.9 1868.9 1709.8 1732.95" fill="#dfdfdf" fill-rule="evenodd" stroke="none"/>
    <path d="M1416.95 2115.0 L1419.6 2117.65 1337.45 2199.8 1337.45 2197.05 1339.5 2193.9 1340.45 2192.35 1342.25 2190.35 1344.0 2187.95 1416.95 2115.0" fill="#dfdfdf" fill-rule="evenodd" stroke="none"/>
    <path d="M1261.75 2200.9 Q1258.5 2201.5 1254.2 2203.15 L1331.9 2125.45 Q1332.35 2126.8 1333.95 2128.2 L1334.25 2128.45 1261.75 2200.9" fill="#dfdfdf" fill-rule="evenodd" stroke="none"/>
    <path d="M1425.8 2123.85 L1426.8 2124.85 1356.05 2195.6 1354.05 2195.6 1425.8 2123.85" fill="#dfdfdf" fill-rule="evenodd" stroke="none"/>
    <path d="M1357.45 2204.6 L1354.9 2207.9 1342.2 2206.5 Q1331.65 2204.75 1338.2 2196.2 L1346.05 2185.9 1349.9 2186.35 1343.45 2194.9 Q1336.7 2201.95 1347.7 2203.55 L1357.45 2204.6" fill="#dfdfdf" fill-rule="evenodd" stroke="none"/>
    <path d="M1264.9 2192.75 L1269.7 2193.0 1261.45 2201.6 Q1254.55 2208.75 1240.5 2208.5 L1233.2 2208.15 1235.85 2205.4 1239.5 2205.6 Q1253.8 2206.0 1258.0 2199.9 L1264.9 2192.75" fill="#dfdfdf" fill-rule="evenodd" stroke="none"/>
    <path d="M1247.15 2195.6 L1332.45 2110.3 1333.9 2110.8 1249.05 2195.6 1247.15 2195.6 M1373.3 2071.35 L1371.2 2073.45 1370.0 2072.75 1372.35 2070.4 1373.3 2071.35" fill="#dfdfdf" fill-rule="evenodd" stroke="none"/>
    <path d="M1728.6 1732.15 L1722.45 1740.2 Q1721.6 1740.5 1720.25 1741.75 L1719.65 1742.35 1716.9 1742.0 1723.35 1733.45 Q1730.1 1726.4 1719.1 1724.8 L1709.35 1723.75 1711.9 1720.45 1724.6 1721.85 Q1735.15 1723.6 1728.6 1732.15" fill="#dfdfdf" fill-rule="evenodd" stroke="none"/>
    <path d="M1832.7 1720.8 L1830.05 1723.55 1826.4 1723.35 Q1812.1 1722.95 1807.9 1729.05 L1801.0 1736.2 1796.2 1735.95 1804.45 1727.35 Q1811.35 1720.2 1825.4 1720.45 L1832.7 1720.8" fill="#dfdfdf" fill-rule="evenodd" stroke="none"/>
    <path d="M1825.8 -1.1 L1831.1 -1.1 1876.55 44.35 1873.9 47.0 1825.8 -1.1" fill="#dfdfdf" fill-rule="evenodd" stroke="none"/>
    <path d="M1900.4 -1.1 L1905.7 -1.1 1913.9 7.1 1911.25 9.75 1900.4 -1.1" fill="#dfdfdf" fill-rule="evenodd" stroke="none"/>
    <path d="M1811.4 -1.1 L1813.4 -1.1 1867.7 53.2 1866.7 54.2 1811.4 -1.1" fill="#dfdfdf" fill-rule="evenodd" stroke="none"/>
    <path d="M1920.3 -1.1 L1921.15 -0.25 1920.2 0.7 1918.4 -1.1 1920.3 -1.1" fill="#dfdfdf" fill-rule="evenodd" stroke="none"/>
    <path d="M1945.35 114.6 L1947.4 117.75 1947.4 120.5 1865.25 38.35 1867.9 35.7 1940.85 108.65 1942.6 111.05 1944.4 113.05 1945.35 114.6" fill="#dfdfdf" fill-rule="evenodd" stroke="none"/>
    <path d="M2023.1 121.6 L1902.55 1.05 1905.2 -1.6 2030.65 123.85 Q2026.35 122.2 2023.1 121.6" fill="#dfdfdf" fill-rule="evenodd" stroke="none"/>
    <path d="M1859.05 44.55 L1930.8 116.3 1928.8 116.3 1858.05 45.55 1859.05 44.55" fill="#dfdfdf" fill-rule="evenodd" stroke="none"/>
    <path d="M1942.65 127.2 L1929.95 128.6 1927.4 125.3 1937.15 124.25 Q1948.15 122.65 1941.4 115.6 L1934.95 107.05 1938.8 106.6 1946.65 116.9 Q1953.2 125.45 1942.65 127.2" fill="#dfdfdf" fill-rule="evenodd" stroke="none"/>
    <path d="M2015.15 113.7 L2019.95 113.45 2026.85 120.6 Q2031.05 126.7 2045.35 126.3 L2049.0 126.1 2051.65 128.85 2044.35 129.2 Q2030.3 129.45 2023.4 122.3 L2015.15 113.7" fill="#dfdfdf" fill-rule="evenodd" stroke="none"/>
    <path d="M1918.4 -1.1 L1920.3 -1.1 2037.7 116.3 2035.8 116.3 1918.4 -1.1" fill="#dfdfdf" fill-rule="evenodd" stroke="none"/>
    <path d="M470.8 262.0 L474.55 262.0 474.55 441.05 470.8 441.05 470.8 262.0" fill="#dfdfdf" fill-rule="evenodd" stroke="none"/>
    <path d="M523.5 265.55 L527.25 265.55 527.25 448.0 523.5 448.0 523.5 265.55" fill="#dfdfdf" fill-rule="evenodd" stroke="none"/>
    <path d="M460.65 263.55 L462.05 263.55 462.05 422.75 460.65 422.75 460.65 263.55" fill="#dfdfdf" fill-rule="evenodd" stroke="none"/>
    <path d="M470.8 272.75 L470.75 263.1 Q471.95 254.95 461.1 254.55 L451.75 254.6 451.75 250.85 463.95 250.85 Q474.5 251.4 474.5 261.1 L474.5 272.75 470.8 272.75" fill="#dfdfdf" fill-rule="evenodd" stroke="none"/>
    <path d="M523.5 261.15 Q523.5 251.45 534.05 250.9 L539.7 250.9 539.7 254.6 536.9 254.6 Q526.05 255.0 527.25 263.15 L527.2 272.8 523.5 272.8 523.5 261.15" fill="#dfdfdf" fill-rule="evenodd" stroke="none"/>
    <path d="M537.65 263.35 L537.65 422.4 536.25 422.4 536.25 263.35 537.65 263.35" fill="#dfdfdf" fill-rule="evenodd" stroke="none"/>
    <path d="M496.35 253.2 L502.35 253.2 Q504.45 253.2 504.45 254.75 L504.45 299.1 Q504.45 300.65 502.35 300.65 L496.35 300.65 Q494.25 300.65 494.25 299.1 L494.25 254.75 Q494.25 253.2 496.35 253.2" fill="#dfdfdf" fill-rule="evenodd" stroke="none"/>
    <path d="M514.1 253.2 L520.1 253.2 Q522.2 253.2 522.2 254.75 L522.2 299.1 Q522.2 300.65 520.1 300.65 L514.1 300.65 Q512.0 300.65 512.0 299.1 L512.0 254.75 Q512.0 253.2 514.1 253.2" fill="#dfdfdf" fill-rule="evenodd" stroke="none"/>
    <path d="M478.35 253.2 L484.35 253.2 Q486.45 253.2 486.45 254.75 L486.45 299.1 Q486.45 300.65 484.35 300.65 L478.35 300.65 Q476.25 300.65 476.25 299.1 L476.25 254.75 Q476.25 253.2 478.35 253.2" fill="#dfdfdf" fill-rule="evenodd" stroke="none"/>
    <path d="M876.4 786.2 L876.4 782.45 930.35 782.45 930.35 786.2 876.4 786.2" fill="#dfdfdf" fill-rule="evenodd" stroke="none"/>
    <path d="M871.1 773.7 L871.1 772.3 928.8 772.3 928.8 773.7 871.1 773.7" fill="#dfdfdf" fill-rule="evenodd" stroke="none"/>
    <path d="M919.6 786.15 L919.6 782.45 929.25 782.4 Q937.4 783.6 937.8 772.75 L937.75 763.4 941.5 763.4 941.5 775.6 Q940.95 786.15 931.25 786.15 L919.6 786.15" fill="#dfdfdf" fill-rule="evenodd" stroke="none"/>
    <path d="M939.15 808.0 L939.15 814.0 Q939.15 816.1 937.6 816.1 L893.25 816.1 Q891.7 816.1 891.7 814.0 L891.7 808.0 Q891.7 805.9 893.25 805.9 L937.6 805.9 Q939.15 805.9 939.15 808.0" fill="#dfdfdf" fill-rule="evenodd" stroke="none"/>
    <path d="M939.15 825.75 L939.15 831.75 Q939.15 833.85 937.6 833.85 L893.25 833.85 Q891.7 833.85 891.7 831.75 L891.7 825.75 Q891.7 823.65 893.25 823.65 L937.6 823.65 Q939.15 823.65 939.15 825.75" fill="#dfdfdf" fill-rule="evenodd" stroke="none"/>
    <path d="M893.25 787.9 L937.6 787.9 Q939.15 787.9 939.15 790.0 L939.15 796.0 Q939.15 798.1 937.6 798.1 L893.25 798.1 Q891.7 798.1 891.7 796.0 L891.7 790.0 Q891.7 787.9 893.25 787.9" fill="#dfdfdf" fill-rule="evenodd" stroke="none"/>
    <path d="M652.5 705.05 L652.5 700.95 Q711.7 751.35 784.0 770.7 828.75 782.65 878.6 782.65 L878.8 782.65 878.8 786.25 Q829.75 786.1 785.5 774.45 712.45 755.3 652.5 705.05 M527.2 434.2 Q527.25 480.65 538.0 522.75 554.75 588.55 597.55 643.65 L597.55 648.75 Q551.5 590.9 534.15 521.25 523.7 479.8 523.55 434.2 L527.2 434.2 M470.8 426.0 L474.5 426.0 474.5 426.25 Q474.5 567.9 558.25 674.85 L558.25 680.85 Q470.8 571.65 470.8 426.2 L470.8 426.0 M611.65 736.9 L610.0 735.45 615.65 735.45 617.3 736.9 Q714.2 821.4 841.3 833.05 L859.3 834.3 865.3 834.6 865.3 838.3 859.3 838.05 841.3 836.8 Q710.6 824.95 611.65 736.9" fill="#dfdfdf" fill-rule="evenodd" stroke="none"/>
    <path d="M651.2 683.8 L651.2 682.75 Q749.2 772.35 884.65 772.35 L884.8 772.35 899.45 772.35 899.45 773.55 885.8 773.55 885.6 773.55 Q749.65 773.55 651.2 683.8 M537.4 427.85 Q537.55 552.1 614.75 644.65 L613.7 644.65 Q536.4 551.65 536.25 426.85 L536.25 413.75 536.25 410.4 537.4 410.4 537.4 414.75 537.4 427.85" fill="#dfdfdf" fill-rule="evenodd" stroke="none"/>
    <path d="M461.8 431.5 Q462.0 585.8 560.45 699.7 L560.45 701.15 Q460.6 586.25 460.4 430.3 L460.4 414.45 460.4 410.4 461.8 410.4 461.8 415.65 461.8 431.5 M597.55 739.3 L597.55 738.0 Q662.4 797.9 740.9 825.2 L740.9 826.4 Q662.45 799.05 597.55 739.3" fill="#dfdfdf" fill-rule="evenodd" stroke="none"/>
    <path d="M1817.3 2064.65 L1817.75 2065.2 1820.0 2067.3 1760.95 2126.3 1758.3 2123.65 1817.3 2064.65 M2155.5 1726.45 L2159.95 1723.5 2160.2 1723.5 Q2161.65 1723.5 2164.75 1722.5 L1873.05 2014.2 1872.1 2013.0 1870.45 2011.5 2155.5 1726.45" fill="#dfdfdf" fill-rule="evenodd" stroke="none"/>
    <path d="M1881.7 1925.65 Q1882.15 1927.3 1883.3 1929.4 L1723.6 2089.05 1720.95 2086.4 1881.7 1925.65 M2080.8 1728.85 L2079.95 1731.15 2079.55 1732.3 2079.0 1733.05 Q2077.35 1734.85 2076.45 1736.25 L1938.4 1874.3 1937.55 1873.3 Q1936.55 1872.4 1935.3 1872.1 L2080.85 1726.5 2080.8 1728.85" fill="#dfdfdf" fill-rule="evenodd" stroke="none"/>
    <path d="M1833.4 2066.25 L1834.55 2067.15 1768.15 2133.5 1767.15 2132.5 1833.4 2066.25 M2166.7 1732.95 L2168.7 1732.95 1872.0 2029.7 1871.2 2028.5 2166.7 1732.95" fill="#dfdfdf" fill-rule="evenodd" stroke="none"/>
    <path d="M1883.55 1909.2 L1884.45 1910.25 1714.65 2080.0 1713.7 2079.05 1883.55 1909.2 M2059.8 1732.95 L2061.7 1732.95 1921.65 1873.05 1920.95 1871.8 2059.8 1732.95" fill="#dfdfdf" fill-rule="evenodd" stroke="none"/>
    <path d="M1766.95 2115.0 L1769.6 2117.65 1687.45 2199.8 1687.45 2197.05 1689.5 2193.9 1690.45 2192.35 1692.25 2190.35 1694.0 2187.95 1766.95 2115.0" fill="#dfdfdf" fill-rule="evenodd" stroke="none"/>
    <path d="M1611.75 2200.9 Q1608.5 2201.5 1604.2 2203.15 L1729.65 2077.7 1732.3 2080.35 1611.75 2200.9" fill="#dfdfdf" fill-rule="evenodd" stroke="none"/>
    <path d="M1775.8 2123.85 L1776.8 2124.85 1706.05 2195.6 1704.05 2195.6 1775.8 2123.85" fill="#dfdfdf" fill-rule="evenodd" stroke="none"/>
    <path d="M1704.9 2207.9 Q1697.85 2209.25 1691.85 2208.2 1681.65 2204.75 1688.2 2196.2 L1696.05 2185.9 1699.9 2186.35 1693.45 2194.9 Q1689.0 2201.95 1697.7 2204.55 L1707.45 2204.6 1704.9 2207.9" fill="#dfdfdf" fill-rule="evenodd" stroke="none"/>
    <path d="M1614.9 2192.75 L1619.7 2193.0 1611.45 2201.6 Q1604.55 2208.75 1590.5 2208.5 L1583.2 2208.15 1585.85 2205.4 1589.5 2205.6 Q1603.8 2206.0 1608.0 2199.9 L1614.9 2192.75" fill="#dfdfdf" fill-rule="evenodd" stroke="none"/>
    <path d="M1597.15 2195.6 L1722.35 2070.4 1723.3 2071.35 1599.05 2195.6 1597.15 2195.6" fill="#dfdfdf" fill-rule="evenodd" stroke="none"/>
    <path d="M2078.6 1732.15 L2072.45 1740.2 Q2071.6 1740.5 2070.25 1741.75 L2069.65 1742.35 2066.9 1742.0 2073.35 1733.45 Q2080.1 1726.4 2069.1 1724.8 L2059.35 1723.75 2061.9 1720.45 2074.6 1721.85 Q2085.15 1723.6 2078.6 1732.15" fill="#dfdfdf" fill-rule="evenodd" stroke="none"/>
    <path d="M2176.4 1723.35 Q2162.1 1722.95 2157.9 1729.05 L2151.0 1736.2 2146.2 1735.95 2154.45 1727.35 Q2161.35 1720.2 2175.4 1720.45 L2182.7 1720.8 2180.05 1723.55 2176.4 1723.35" fill="#dfdfdf" fill-rule="evenodd" stroke="none"/>
    <path d="M1158.9 -1.1 L1164.2 -1.1 1209.65 44.35 1207.0 47.0 1158.9 -1.1" fill="#dfdfdf" fill-rule="evenodd" stroke="none"/>
    <path d="M1233.5 -1.1 L1238.8 -1.1 1247.0 7.1 1244.35 9.75 1233.5 -1.1" fill="#dfdfdf" fill-rule="evenodd" stroke="none"/>
    <path d="M1144.5 -1.1 L1146.5 -1.1 1200.8 53.2 1199.8 54.2 1144.5 -1.1" fill="#dfdfdf" fill-rule="evenodd" stroke="none"/>
    <path d="M1253.4 -1.1 L1254.25 -0.25 1253.3 0.7 1251.5 -1.1 1253.4 -1.1" fill="#dfdfdf" fill-rule="evenodd" stroke="none"/>
    <path d="M1201.0 35.7 L1273.95 108.65 1275.7 111.05 1277.5 113.05 1278.45 114.6 1280.5 117.75 1280.5 120.5 1198.35 38.35 1201.0 35.7" fill="#dfdfdf" fill-rule="evenodd" stroke="none"/>
    <path d="M1356.2 121.6 L1235.65 1.05 1238.3 -1.6 1363.75 123.85 Q1359.45 122.2 1356.2 121.6" fill="#dfdfdf" fill-rule="evenodd" stroke="none"/>
    <path d="M1192.15 44.55 L1263.9 116.3 1261.9 116.3 1191.15 45.55 1192.15 44.55" fill="#dfdfdf" fill-rule="evenodd" stroke="none"/>
    <path d="M1274.5 115.6 L1268.05 107.05 1271.9 106.6 1279.75 116.9 Q1286.3 125.45 1275.75 127.2 L1263.05 128.6 1260.5 125.3 1270.25 124.25 Q1281.25 122.65 1274.5 115.6" fill="#dfdfdf" fill-rule="evenodd" stroke="none"/>
    <path d="M1353.05 113.45 L1359.95 120.6 Q1364.15 126.7 1378.45 126.3 L1382.1 126.1 1384.75 128.85 1377.45 129.2 Q1363.4 129.45 1356.5 122.3 L1348.25 113.7 1353.05 113.45" fill="#dfdfdf" fill-rule="evenodd" stroke="none"/>
    <path d="M1251.5 -1.1 L1253.4 -1.1 1370.8 116.3 1368.9 116.3 1251.5 -1.1" fill="#dfdfdf" fill-rule="evenodd" stroke="none"/>
    <path d="M2277.8 604.3 L2277.8 608.0 1814.4 608.05 1820.15 606.1 1828.0 605.0 1831.8 604.6 1828.05 604.35 1828.5 604.3 1829.75 604.35 1832.85 604.2 1834.75 604.2 1852.75 604.25 2277.8 604.3" fill="#dfdfdf" fill-rule="evenodd" stroke="none"/>
    <path d="M1957.25 560.5 L1957.25 564.3 1770.35 564.25 Q1767.3 562.4 1762.7 560.5 L1957.25 560.5" fill="#dfdfdf" fill-rule="evenodd" stroke="none"/>
    <path d="M2181.05 618.6 L2181.05 620.0 1833.7 620.0 1832.25 618.55 1889.4 618.6 2181.05 618.6" fill="#dfdfdf" fill-rule="evenodd" stroke="none"/>
    <path d="M1832.8 607.35 L1822.15 608.8 Q1812.45 609.0 1819.05 617.9 L1825.2 625.55 1821.1 626.05 1813.1 616.15 Q1806.9 607.45 1817.55 606.0 L1830.4 604.25 1832.8 607.35" fill="#dfdfdf" fill-rule="evenodd" stroke="none"/>
    <path d="M1777.65 560.8 L1780.85 564.35 1768.9 564.55 Q1758.95 564.75 1749.25 554.6 L1744.35 549.2 1748.15 549.15 1750.55 551.85 Q1760.4 562.25 1767.7 560.9 L1777.65 560.8" fill="#dfdfdf" fill-rule="evenodd" stroke="none"/>
    <path d="M1950.7 551.55 L1764.35 551.55 1763.05 550.25 1950.7 550.2 1950.7 551.55" fill="#dfdfdf" fill-rule="evenodd" stroke="none"/>
    <path d="M2047.9 473.4 L1957.05 564.25 1951.75 564.25 2045.25 470.75 2047.9 473.4" fill="#dfdfdf" fill-rule="evenodd" stroke="none"/>
    <path d="M2074.6 428.35 L1951.5 551.45 1949.7 551.45 2073.65 427.4 2074.6 428.35" fill="#dfdfdf" fill-rule="evenodd" stroke="none"/>
    <path d="M2274.0 333.55 L2277.8 333.55 2277.75 604.4 2274.0 606.85 2274.0 333.55" fill="#dfdfdf" fill-rule="evenodd" stroke="none"/>
    <path d="M2289.85 319.3 L2291.25 319.3 2291.25 629.5 2289.8 630.8 2289.85 319.3" fill="#dfdfdf" fill-rule="evenodd" stroke="none"/>
    <path d="M1359.85 562.25 L1359.85 558.55 1671.8 558.5 1669.85 560.45 1666.15 561.25 1664.45 561.65 1661.75 561.85 1658.8 562.3 1359.85 562.25" fill="#dfdfdf" fill-rule="evenodd" stroke="none"/>
    <path d="M1611.2 611.3 L1726.1 611.3 Q1728.85 613.15 1733.05 615.05 L1472.9 615.05 1472.9 611.25 1611.2 611.3" fill="#dfdfdf" fill-rule="evenodd" stroke="none"/>
    <path d="M1586.45 549.8 L1359.8 549.75 1359.8 548.35 1655.65 548.35 1657.1 549.8 1586.45 549.8" fill="#dfdfdf" fill-rule="evenodd" stroke="none"/>
    <path d="M1665.2 540.5 L1673.2 550.4 Q1679.4 559.1 1668.75 560.55 L1655.9 562.3 1653.5 559.2 1664.15 557.75 Q1673.85 557.55 1667.25 548.65 L1661.1 541.0 1665.2 540.5" fill="#dfdfdf" fill-rule="evenodd" stroke="none"/>
    <path d="M1751.4 626.35 L1747.6 626.4 1745.2 623.7 Q1735.35 613.3 1728.05 614.65 L1718.1 614.75 1714.9 611.2 1726.85 611.0 Q1736.8 610.8 1746.5 620.95 L1751.4 626.35" fill="#dfdfdf" fill-rule="evenodd" stroke="none"/>
    <path d="M1615.15 625.35 L1462.3 625.35 1462.3 624.0 1731.4 624.0 1732.7 625.3 1615.15 625.35" fill="#dfdfdf" fill-rule="evenodd" stroke="none"/>
    <path d="M2150.05 899.3 L2153.8 899.3 2153.8 1057.8 2150.05 1057.8 2150.05 899.3" fill="#dfdfdf" fill-rule="evenodd" stroke="none"/>
    <path d="M2202.75 904.9 L2206.5 904.9 2206.5 1081.05 2202.75 1079.5 2202.75 904.9" fill="#dfdfdf" fill-rule="evenodd" stroke="none"/>
    <path d="M2139.9 901.9 L2141.3 901.9 2141.3 1053.2 2139.9 1053.2 2139.9 901.9" fill="#dfdfdf" fill-rule="evenodd" stroke="none"/>
    <path d="M2143.2 888.15 Q2153.75 888.7 2153.75 898.4 L2153.75 910.05 2150.05 910.05 2150.0 900.4 Q2151.2 892.25 2140.35 891.85 L2131.0 891.9 2131.0 888.15 2143.2 888.15" fill="#dfdfdf" fill-rule="evenodd" stroke="none"/>
    <path d="M2218.95 888.2 L2218.95 891.9 2216.15 891.9 Q2205.3 892.3 2206.5 900.45 L2206.45 910.1 2202.75 910.1 2202.75 898.45 Q2202.75 888.75 2213.3 888.2 L2218.95 888.2" fill="#dfdfdf" fill-rule="evenodd" stroke="none"/>
    <path d="M2215.5 901.25 L2216.9 901.25 2216.9 1083.85 2215.5 1083.85 2215.5 901.25" fill="#dfdfdf" fill-rule="evenodd" stroke="none"/>
    <path d="M2328.55 1420.35 L2328.55 1424.1 2277.0 1424.1 2277.0 1420.35 2328.55 1420.35 M2205.4 1420.35 L2205.4 1424.1 2150.9 1424.1 2150.9 1420.35 2205.4 1420.35" fill="#dfdfdf" fill-rule="evenodd" stroke="none"/>
    <path d="M1934.35 1476.8 L1934.35 1473.05 2320.6 1473.05 2320.6 1476.8 1934.35 1476.8" fill="#dfdfdf" fill-rule="evenodd" stroke="none"/>
    <path d="M2214.35 1410.2 L2214.35 1411.6 2162.25 1411.6 2162.25 1410.2 2214.35 1410.2 M2265.05 1411.6 L2265.05 1410.2 2314.15 1410.2 2314.15 1411.6 2265.05 1411.6" fill="#dfdfdf" fill-rule="evenodd" stroke="none"/>
    <path d="M2317.8 1420.35 L2327.45 1420.3 Q2335.6 1421.5 2336.0 1410.65 L2335.95 1401.3 2339.7 1401.3 2339.7 1413.5 Q2339.15 1424.05 2329.45 1424.05 L2317.8 1424.05 2317.8 1420.35" fill="#dfdfdf" fill-rule="evenodd" stroke="none"/>
    <path d="M2339.65 1483.6 L2339.65 1489.25 2335.95 1489.25 2335.95 1486.45 Q2335.55 1475.6 2327.4 1476.8 L2317.75 1476.75 2317.75 1473.05 2329.4 1473.05 Q2339.1 1473.05 2339.65 1483.6" fill="#dfdfdf" fill-rule="evenodd" stroke="none"/>
    <path d="M1922.25 1487.2 L1922.25 1485.8 2314.95 1485.8 2314.95 1487.2 1922.25 1487.2" fill="#dfdfdf" fill-rule="evenodd" stroke="none"/>
    <path d="M2150.35 1283.55 L2150.35 1287.3 1997.75 1287.3 1997.75 1283.55 2150.35 1283.55" fill="#dfdfdf" fill-rule="evenodd" stroke="none"/>
    <path d="M2163.55 1274.3 L2163.55 1275.7 2026.4 1275.7 2026.4 1274.3 2163.55 1274.3" fill="#dfdfdf" fill-rule="evenodd" stroke="none"/>
    <path d="M2090.0 1122.5 L2089.75 1122.25 Q2088.4 1121.05 2086.8 1120.4 L2153.75 1053.45 2153.75 1058.75 2090.0 1122.5 M1932.65 1279.85 L1932.65 1274.55 2038.3 1168.95 Q2038.7 1170.4 2039.6 1171.95 L2039.95 1172.55 1932.65 1279.85" fill="#dfdfdf" fill-rule="evenodd" stroke="none"/>
    <path d="M2203.0 1078.25 L2206.2 1081.0 2000.1 1287.05 1994.65 1287.05 2203.0 1078.25" fill="#dfdfdf" fill-rule="evenodd" stroke="none"/>
    <path d="M2075.35 1119.55 L2074.2 1118.7 2141.05 1051.85 2141.05 1053.85 2075.35 1119.55 M1922.45 1272.45 L1922.45 1270.45 2035.6 1157.3 2036.45 1158.45 1922.45 1272.45" fill="#dfdfdf" fill-rule="evenodd" stroke="none"/>
    <path d="M2216.6 1083.2 L2217.6 1084.2 2025.95 1275.85 2023.95 1275.85 2216.6 1083.2" fill="#dfdfdf" fill-rule="evenodd" stroke="none"/>
    <path d="M1932.4 1274.85 L1936.15 1274.85 1936.15 1476.85 1932.4 1476.85 1932.4 1274.85" fill="#dfdfdf" fill-rule="evenodd" stroke="none"/>
    <path d="M2149.45 1283.75 L2153.2 1283.75 2153.2 1425.0 2149.45 1425.0 2149.45 1283.75" fill="#dfdfdf" fill-rule="evenodd" stroke="none"/>
    <path d="M1922.25 1271.25 L1923.65 1271.25 1923.65 1487.0 1922.25 1487.0 1922.25 1271.25" fill="#dfdfdf" fill-rule="evenodd" stroke="none"/>
    <path d="M2162.2 1275.8 L2163.6 1275.8 2163.6 1411.7 2162.2 1411.7 2162.2 1275.8" fill="#dfdfdf" fill-rule="evenodd" stroke="none"/>
    <path d="M1936.25 1341.15 L1936.25 1339.75 2011.1 1339.75 2011.1 1335.55 2012.25 1335.55 2012.25 1345.35 2011.1 1345.35 2011.1 1341.15 1936.25 1341.15" fill="#dfdfdf" fill-rule="evenodd" stroke="none"/>
    <path d="M1936.25 1382.95 L1936.25 1381.55 2011.1 1381.55 2011.1 1377.35 2012.25 1377.35 2012.25 1387.15 2011.1 1387.15 2011.1 1382.95 1936.25 1382.95" fill="#dfdfdf" fill-rule="evenodd" stroke="none"/>
    <path d="M1936.25 1424.6 L1936.25 1423.2 2011.1 1423.2 2011.1 1419.0 2012.25 1419.0 2012.25 1428.8 2011.1 1428.8 2011.1 1424.6 1936.25 1424.6" fill="#dfdfdf" fill-rule="evenodd" stroke="none"/>
    <path d="M2149.45 1341.15 L2074.6 1341.15 2074.6 1345.35 2073.45 1345.35 2073.45 1335.55 2074.6 1335.55 2074.6 1339.75 2149.45 1339.75 2149.45 1341.15" fill="#dfdfdf" fill-rule="evenodd" stroke="none"/>
    <path d="M2149.45 1382.95 L2074.6 1382.95 2074.6 1387.15 2073.45 1387.15 2073.45 1377.35 2074.6 1377.35 2074.6 1381.55 2149.45 1381.55 2149.45 1382.95" fill="#dfdfdf" fill-rule="evenodd" stroke="none"/>
    <path d="M2073.45 1419.0 L2074.6 1419.0 2074.6 1423.2 2149.45 1423.2 2149.45 1424.6 2074.6 1424.6 2074.6 1428.8 2073.45 1428.8 2073.45 1419.0" fill="#dfdfdf" fill-rule="evenodd" stroke="none"/>
  </g>
</svg>
