<?xml version="1.0" encoding="UTF-8" standalone="no"?>
<svg xmlns:xlink="http://www.w3.org/1999/xlink" height="2724.2px" width="2074.75px" xmlns="http://www.w3.org/2000/svg">
  <g transform="matrix(1, 0, 0, 1, -262.95, -80.6)">
    <path d="M1303.3 899.55 L1307.05 899.55 1307.05 1078.6 1303.3 1078.6 1303.3 899.55" fill="#dfdfdf" fill-rule="evenodd" stroke="none"/>
    <path d="M1359.75 903.1 L1359.75 937.6 1356.0 937.6 1356.0 903.1 1359.75 903.1" fill="#dfdfdf" fill-rule="evenodd" stroke="none"/>
    <path d="M1293.15 901.1 L1294.55 901.1 1294.55 1060.3 1293.15 1060.3 1293.15 901.1" fill="#dfdfdf" fill-rule="evenodd" stroke="none"/>
    <path d="M1307.0 910.3 L1303.3 910.3 1303.25 900.65 Q1304.45 892.5 1293.6 892.1 L1284.25 892.15 1284.25 888.4 1296.45 888.4 Q1307.0 888.95 1307.0 898.65 L1307.0 910.3" fill="#dfdfdf" fill-rule="evenodd" stroke="none"/>
    <path d="M1372.2 888.45 L1372.2 892.15 1369.4 892.15 Q1358.55 892.55 1359.75 900.7 L1359.7 910.35 1356.0 910.35 1356.0 898.7 Q1356.0 889.0 1366.55 888.45 L1372.2 888.45" fill="#dfdfdf" fill-rule="evenodd" stroke="none"/>
    <path d="M1370.15 900.9 L1370.15 935.4 1368.75 935.4 1368.75 900.9 1370.15 900.9" fill="#dfdfdf" fill-rule="evenodd" stroke="none"/>
    <path d="M1334.85 890.75 Q1336.95 890.75 1336.95 892.3 L1336.95 936.65 Q1336.95 938.2 1334.85 938.2 L1328.85 938.2 Q1326.75 938.2 1326.75 936.65 L1326.75 892.3 Q1326.75 890.75 1328.85 890.75 L1334.85 890.75" fill="#dfdfdf" fill-rule="evenodd" stroke="none"/>
    <path d="M1352.6 890.75 Q1354.7 890.75 1354.7 892.3 L1354.7 936.65 Q1354.7 938.2 1352.6 938.2 L1346.6 938.2 Q1344.5 938.2 1344.5 936.65 L1344.5 892.3 Q1344.5 890.75 1346.6 890.75 L1352.6 890.75" fill="#dfdfdf" fill-rule="evenodd" stroke="none"/>
    <path d="M1316.85 890.75 Q1318.95 890.75 1318.95 892.3 L1318.95 936.65 Q1318.95 938.2 1316.85 938.2 L1310.85 938.2 Q1308.75 938.2 1308.75 936.65 L1308.75 892.3 Q1308.75 890.75 1310.85 890.75 L1316.85 890.75" fill="#dfdfdf" fill-rule="evenodd" stroke="none"/>
    <path d="M1762.85 1429.8 L1762.85 1433.55 1708.9 1433.55 1708.9 1429.8 1762.85 1429.8" fill="#dfdfdf" fill-rule="evenodd" stroke="none"/>
    <path d="M1714.6 1482.5 L1759.3 1482.5 1759.3 1486.25 1714.6 1486.25 1714.6 1482.5" fill="#dfdfdf" fill-rule="evenodd" stroke="none"/>
    <path d="M1761.3 1419.65 L1761.3 1421.05 1703.6 1421.05 1703.6 1419.65 1761.3 1419.65" fill="#dfdfdf" fill-rule="evenodd" stroke="none"/>
    <path d="M1752.1 1429.8 L1761.75 1429.75 Q1769.9 1430.95 1770.3 1420.1 L1770.25 1410.75 1774.0 1410.75 1774.0 1422.95 Q1773.45 1433.5 1763.75 1433.5 L1752.1 1433.5 1752.1 1429.8" fill="#dfdfdf" fill-rule="evenodd" stroke="none"/>
    <path d="M1763.7 1482.5 Q1773.4 1482.5 1773.95 1493.05 L1773.95 1498.7 1770.25 1498.7 1770.25 1495.9 Q1769.85 1485.05 1761.7 1486.25 L1752.05 1486.2 1752.05 1482.5 1763.7 1482.5" fill="#dfdfdf" fill-rule="evenodd" stroke="none"/>
    <path d="M1761.5 1496.65 L1713.35 1496.65 1713.35 1495.25 1761.5 1495.25 1761.5 1496.65" fill="#dfdfdf" fill-rule="evenodd" stroke="none"/>
    <path d="M1724.2 1455.35 Q1724.2 1453.25 1725.75 1453.25 L1770.1 1453.25 Q1771.65 1453.25 1771.65 1455.35 L1771.65 1461.35 Q1771.65 1463.45 1770.1 1463.45 L1725.75 1463.45 Q1724.2 1463.45 1724.2 1461.35 L1724.2 1455.35" fill="#dfdfdf" fill-rule="evenodd" stroke="none"/>
    <path d="M1724.2 1473.1 Q1724.2 1471.0 1725.75 1471.0 L1770.1 1471.0 Q1771.65 1471.0 1771.65 1473.1 L1771.65 1479.1 Q1771.65 1481.2 1770.1 1481.2 L1725.75 1481.2 Q1724.2 1481.2 1724.2 1479.1 L1724.2 1473.1" fill="#dfdfdf" fill-rule="evenodd" stroke="none"/>
    <path d="M1724.2 1437.35 Q1724.2 1435.25 1725.75 1435.25 L1770.1 1435.25 Q1771.65 1435.25 1771.65 1437.35 L1771.65 1443.35 Q1771.65 1445.45 1770.1 1445.45 L1725.75 1445.45 Q1724.2 1445.45 1724.2 1443.35 L1724.2 1437.35" fill="#dfdfdf" fill-rule="evenodd" stroke="none"/>
    <path d="M1303.35 1073.3 L1307.05 1073.3 1307.05 1073.55 Q1307.05 1242.85 1426.65 1362.5 1546.15 1482.2 1715.3 1482.2 L1716.1 1482.2 1716.1 1485.9 1715.2 1485.9 Q1544.5 1485.9 1424.0 1365.15 1303.35 1244.35 1303.35 1073.5 L1303.35 1073.3 M1366.7 1168.55 L1364.35 1158.5 1367.85 1158.5 1370.55 1170.05 Q1393.05 1258.55 1462.75 1327.7 1530.35 1394.95 1616.55 1418.0 1661.3 1429.95 1711.15 1429.95 L1711.35 1429.95 1711.35 1433.55 Q1662.3 1433.4 1618.05 1421.75 1529.7 1398.6 1460.5 1329.9 1389.3 1259.2 1366.7 1168.55" fill="#dfdfdf" fill-rule="evenodd" stroke="none"/>
    <path d="M1378.4 1157.75 L1379.4 1157.75 Q1400.95 1248.25 1471.7 1318.55 1573.3 1419.65 1717.2 1419.65 L1717.35 1419.65 1732.0 1419.65 1732.0 1420.85 1718.35 1420.85 1718.15 1420.85 Q1573.4 1420.85 1471.15 1319.1 1400.15 1248.6 1378.4 1157.75" fill="#dfdfdf" fill-rule="evenodd" stroke="none"/>
    <path d="M1732.0 1496.7 L1715.5 1496.7 1715.25 1496.7 Q1540.25 1496.7 1416.65 1373.7 1293.2 1251.05 1292.95 1077.6 L1292.95 1061.75 1292.95 1057.7 1294.35 1057.7 1294.35 1062.95 1294.35 1078.8 Q1294.55 1251.15 1417.35 1373.05 1540.15 1495.25 1714.1 1495.25 L1714.3 1495.25 1732.0 1495.25 1732.0 1496.7" fill="#dfdfdf" fill-rule="evenodd" stroke="none"/>
    <path d="M2180.75 890.75 Q2182.85 890.75 2182.85 892.3 L2182.85 936.65 Q2182.85 938.2 2180.75 938.2 L2174.75 938.2 Q2172.65 938.2 2172.65 936.65 L2172.65 892.3 Q2172.65 890.75 2174.75 890.75 L2180.75 890.75" fill="#dfdfdf" fill-rule="evenodd" stroke="none"/>
    <path d="M2198.5 890.75 Q2200.6 890.75 2200.6 892.3 L2200.6 936.65 Q2200.6 938.2 2198.5 938.2 L2192.5 938.2 Q2190.4 938.2 2190.4 936.65 L2190.4 892.3 Q2190.4 890.75 2192.5 890.75 L2198.5 890.75" fill="#dfdfdf" fill-rule="evenodd" stroke="none"/>
    <path d="M2162.75 890.75 Q2164.85 890.75 2164.85 892.3 L2164.85 936.65 Q2164.85 938.2 2162.75 938.2 L2156.75 938.2 Q2154.65 938.2 2154.65 936.65 L2154.65 892.3 Q2154.65 890.75 2156.75 890.75 L2162.75 890.75" fill="#dfdfdf" fill-rule="evenodd" stroke="none"/>
    <path d="M2290.25 1446.2 Q2290.25 1444.1 2291.8 1444.1 L2336.15 1444.1 Q2337.7 1444.1 2337.7 1446.2 L2337.7 1452.2 Q2337.7 1454.3 2336.15 1454.3 L2291.8 1454.3 Q2290.25 1454.3 2290.25 1452.2 L2290.25 1446.2" fill="#dfdfdf" fill-rule="evenodd" stroke="none"/>
    <path d="M2290.25 1463.95 Q2290.25 1461.85 2291.8 1461.85 L2336.15 1461.85 Q2337.7 1461.85 2337.7 1463.95 L2337.7 1469.95 Q2337.7 1472.05 2336.15 1472.05 L2291.8 1472.05 Q2290.25 1472.05 2290.25 1469.95 L2290.25 1463.95" fill="#dfdfdf" fill-rule="evenodd" stroke="none"/>
    <path d="M2337.7 1428.2 L2337.7 1434.2 Q2337.7 1436.3 2336.15 1436.3 L2291.8 1436.3 Q2290.25 1436.3 2290.25 1434.2 L2290.25 1428.2 Q2290.25 1426.1 2291.8 1426.1 L2336.15 1426.1 Q2337.7 1426.1 2337.7 1428.2" fill="#dfdfdf" fill-rule="evenodd" stroke="none"/>
    <path d="M2000.3 837.5 L1992.65 837.3 Q1989.95 837.2 1988.6 835.75 L1948.7 793.85 Q1947.35 792.4 1950.05 792.5 L1957.7 792.7 Q1960.4 792.75 1961.75 794.2 L2001.65 836.1 Q2003.0 837.55 2000.3 837.5" fill="#dfdfdf" fill-rule="evenodd" stroke="none"/>
    <path d="M1939.15 793.5 L1979.05 835.4 Q1980.4 836.85 1977.7 836.8 L1970.05 836.6 Q1967.35 836.5 1966.0 835.05 L1926.1 793.15 Q1924.75 791.7 1927.45 791.8 L1935.1 792.0 Q1937.8 792.05 1939.15 793.5" fill="#dfdfdf" fill-rule="evenodd" stroke="none"/>
    <path d="M2024.7 836.7 Q2026.05 838.15 2023.35 838.1 L2015.7 837.9 Q2013.0 837.8 2011.65 836.35 L1971.75 794.45 Q1970.4 793.0 1973.1 793.1 L1980.75 793.3 Q1983.45 793.35 1984.8 794.8 L2024.7 836.7" fill="#dfdfdf" fill-rule="evenodd" stroke="none"/>
    <path d="M1410.85 253.3 L1418.5 253.5 Q1421.2 253.55 1422.55 255.0 L1462.45 296.9 Q1463.8 298.35 1461.1 298.3 L1453.45 298.1 Q1450.75 298.0 1449.4 296.55 L1409.5 254.65 Q1408.15 253.2 1410.85 253.3" fill="#dfdfdf" fill-rule="evenodd" stroke="none"/>
    <path d="M1395.9 252.8 Q1398.6 252.85 1399.95 254.3 L1439.85 296.2 Q1441.2 297.65 1438.5 297.6 L1430.85 297.4 Q1428.15 297.3 1426.8 295.85 L1386.9 253.95 Q1385.55 252.5 1388.25 252.6 L1395.9 252.8" fill="#dfdfdf" fill-rule="evenodd" stroke="none"/>
    <path d="M1441.55 254.1 Q1444.25 254.15 1445.6 255.6 L1485.5 297.5 Q1486.85 298.95 1484.15 298.9 L1476.5 298.7 Q1473.8 298.6 1472.45 297.15 L1432.55 255.25 Q1431.2 253.8 1433.9 253.9 L1441.55 254.1" fill="#dfdfdf" fill-rule="evenodd" stroke="none"/>
    <path d="M1952.3 81.5 Q1955.0 81.55 1956.35 83.0 L1996.25 124.9 Q1997.6 126.35 1994.9 126.3 L1987.25 126.1 Q1984.55 126.0 1983.2 124.55 L1943.3 82.65 Q1941.95 81.2 1944.65 81.3 L1952.3 81.5" fill="#dfdfdf" fill-rule="evenodd" stroke="none"/>
    <path d="M1972.3 125.6 L1964.65 125.4 Q1961.95 125.3 1960.6 123.85 L1920.7 81.95 Q1919.35 80.5 1922.05 80.6 L1929.7 80.8 Q1932.4 80.85 1933.75 82.3 L1973.65 124.2 Q1975.0 125.65 1972.3 125.6" fill="#dfdfdf" fill-rule="evenodd" stroke="none"/>
    <path d="M1975.35 82.1 Q1978.05 82.15 1979.4 83.6 L2019.3 125.5 Q2020.65 126.95 2017.95 126.9 L2010.3 126.7 Q2007.6 126.6 2006.25 125.15 L1966.35 83.25 Q1965.0 81.8 1967.7 81.9 L1975.35 82.1" fill="#dfdfdf" fill-rule="evenodd" stroke="none"/>
    <path d="M1329.85 126.3 L1322.2 126.1 Q1319.5 126.0 1318.15 124.55 L1278.25 82.65 Q1276.9 81.2 1279.6 81.3 L1287.25 81.5 Q1289.95 81.55 1291.3 83.0 L1331.2 124.9 Q1332.55 126.35 1329.85 126.3" fill="#dfdfdf" fill-rule="evenodd" stroke="none"/>
    <path d="M1307.25 125.6 L1299.6 125.4 Q1296.9 125.3 1295.55 123.85 L1255.65 81.95 Q1254.3 80.5 1257.0 80.6 L1264.65 80.8 Q1267.35 80.85 1268.7 82.3 L1308.6 124.2 Q1309.95 125.65 1307.25 125.6" fill="#dfdfdf" fill-rule="evenodd" stroke="none"/>
    <path d="M1310.3 82.1 Q1313.0 82.15 1314.35 83.6 L1354.25 125.5 Q1355.6 126.95 1352.9 126.9 L1345.25 126.7 Q1342.55 126.6 1341.2 125.15 L1301.3 83.25 Q1299.95 81.8 1302.65 81.9 L1310.3 82.1" fill="#dfdfdf" fill-rule="evenodd" stroke="none"/>
    <path d="M1767.95 1724.15 L1775.6 1723.95 Q1778.3 1723.85 1776.95 1725.3 L1737.05 1767.2 Q1735.7 1768.65 1733.0 1768.75 L1725.35 1768.95 Q1722.65 1769.0 1724.0 1767.55 L1763.9 1725.65 Q1765.25 1724.2 1767.95 1724.15" fill="#dfdfdf" fill-rule="evenodd" stroke="none"/>
    <path d="M1790.55 1723.45 L1798.2 1723.25 Q1800.9 1723.15 1799.55 1724.6 L1759.65 1766.5 Q1758.3 1767.95 1755.6 1768.05 L1747.95 1768.25 Q1745.25 1768.3 1746.6 1766.85 L1786.5 1724.95 Q1787.85 1723.5 1790.55 1723.45" fill="#dfdfdf" fill-rule="evenodd" stroke="none"/>
    <path d="M1744.9 1724.75 L1752.55 1724.55 Q1755.25 1724.45 1753.9 1725.9 L1714.0 1767.8 Q1712.65 1769.25 1709.95 1769.35 L1702.3 1769.55 Q1699.6 1769.6 1700.95 1768.15 L1740.85 1726.25 Q1742.2 1724.8 1744.9 1724.75" fill="#dfdfdf" fill-rule="evenodd" stroke="none"/>
    <path d="M2118.25 1724.15 L2125.9 1723.95 Q2128.6 1723.85 2127.25 1725.3 L2087.35 1767.2 Q2086.0 1768.65 2083.3 1768.75 L2075.65 1768.95 Q2072.95 1769.0 2074.3 1767.55 L2114.2 1725.65 Q2115.55 1724.2 2118.25 1724.15" fill="#dfdfdf" fill-rule="evenodd" stroke="none"/>
    <path d="M2148.5 1723.25 Q2151.2 1723.15 2149.85 1724.6 L2109.95 1766.5 Q2108.6 1767.95 2105.9 1768.05 L2098.25 1768.25 Q2095.55 1768.3 2096.9 1766.85 L2136.8 1724.95 Q2138.15 1723.5 2140.85 1723.45 L2148.5 1723.25" fill="#dfdfdf" fill-rule="evenodd" stroke="none"/>
    <path d="M2095.2 1724.75 L2102.85 1724.55 Q2105.55 1724.45 2104.2 1725.9 L2064.3 1767.8 Q2062.95 1769.25 2060.25 1769.35 L2052.6 1769.55 Q2049.9 1769.6 2051.25 1768.15 L2091.15 1726.25 Q2092.5 1724.8 2095.2 1724.75" fill="#dfdfdf" fill-rule="evenodd" stroke="none"/>
    <path d="M1288.05 2208.1 Q1285.35 2208.15 1286.7 2206.7 L1326.6 2164.8 Q1327.95 2163.35 1330.65 2163.3 L1338.3 2163.1 Q1341.0 2163.0 1339.65 2164.45 L1299.75 2206.35 Q1298.4 2207.8 1295.7 2207.9 L1288.05 2208.1" fill="#dfdfdf" fill-rule="evenodd" stroke="none"/>
    <path d="M1353.25 2162.6 L1360.9 2162.4 Q1363.6 2162.3 1362.25 2163.75 L1322.35 2205.65 Q1321.0 2207.1 1318.3 2207.2 L1310.65 2207.4 Q1307.95 2207.45 1309.3 2206.0 L1349.2 2164.1 Q1350.55 2162.65 1353.25 2162.6" fill="#dfdfdf" fill-rule="evenodd" stroke="none"/>
    <path d="M1265.0 2208.7 Q1262.3 2208.75 1263.65 2207.3 L1303.55 2165.4 Q1304.9 2163.95 1307.6 2163.9 L1315.25 2163.7 Q1317.95 2163.6 1316.6 2165.05 L1276.7 2206.95 Q1275.35 2208.4 1272.65 2208.5 L1265.0 2208.7" fill="#dfdfdf" fill-rule="evenodd" stroke="none"/>
    <path d="M1680.95 2163.3 L1688.6 2163.1 Q1691.3 2163.0 1689.95 2164.45 L1650.05 2206.35 Q1648.7 2207.8 1646.0 2207.9 L1638.35 2208.1 Q1635.65 2208.15 1637.0 2206.7 L1676.9 2164.8 Q1678.25 2163.35 1680.95 2163.3" fill="#dfdfdf" fill-rule="evenodd" stroke="none"/>
    <path d="M1703.55 2162.6 L1711.2 2162.4 Q1713.9 2162.3 1712.55 2163.75 L1672.65 2205.65 Q1671.3 2207.1 1668.6 2207.2 L1660.95 2207.4 Q1658.25 2207.45 1659.6 2206.0 L1699.5 2164.1 Q1700.85 2162.65 1703.55 2162.6" fill="#dfdfdf" fill-rule="evenodd" stroke="none"/>
    <path d="M1615.3 2208.7 Q1612.6 2208.75 1613.95 2207.3 L1653.85 2165.4 Q1655.2 2163.95 1657.9 2163.9 L1665.55 2163.7 Q1668.25 2163.6 1666.9 2165.05 L1627.0 2206.95 Q1625.65 2208.4 1622.95 2208.5 L1615.3 2208.7" fill="#dfdfdf" fill-rule="evenodd" stroke="none"/>
    <path d="M714.8 2334.55 L726.4 2334.2 Q730.45 2334.05 728.15 2335.5 L661.85 2378.3 Q659.55 2379.8 655.5 2379.95 L643.9 2380.3 Q639.85 2380.45 642.15 2378.95 L708.45 2336.15 Q710.75 2334.7 714.8 2334.55" fill="#dfdfdf" fill-rule="evenodd" stroke="none"/>
    <path d="M749.1 2333.4 L760.7 2333.05 Q764.75 2332.9 762.45 2334.35 L696.15 2377.15 Q693.85 2378.65 689.8 2378.8 L678.2 2379.15 Q674.15 2379.3 676.45 2377.8 L742.75 2335.0 Q745.05 2333.55 749.1 2333.4" fill="#dfdfdf" fill-rule="evenodd" stroke="none"/>
    <path d="M673.55 2337.25 Q675.85 2335.8 679.9 2335.65 L691.5 2335.3 Q695.55 2335.15 693.25 2336.6 L626.95 2379.4 Q624.65 2380.9 620.6 2381.05 L609.0 2381.4 Q604.95 2381.55 607.25 2380.05 L673.55 2337.25" fill="#dfdfdf" fill-rule="evenodd" stroke="none"/>
    <path d="M1283.55 2334.55 Q1287.6 2334.7 1289.9 2336.15 L1356.2 2378.95 Q1358.5 2380.45 1354.45 2380.3 L1342.85 2379.95 Q1338.8 2379.8 1336.5 2378.3 L1270.2 2335.5 Q1267.9 2334.05 1271.95 2334.2 L1283.55 2334.55" fill="#dfdfdf" fill-rule="evenodd" stroke="none"/>
    <path d="M1249.25 2333.4 Q1253.3 2333.55 1255.6 2335.0 L1321.9 2377.8 Q1324.2 2379.3 1320.15 2379.15 L1308.55 2378.8 Q1304.5 2378.65 1302.2 2377.15 L1235.9 2334.35 Q1233.6 2332.9 1237.65 2333.05 L1249.25 2333.4" fill="#dfdfdf" fill-rule="evenodd" stroke="none"/>
    <path d="M1318.45 2335.65 Q1322.5 2335.8 1324.8 2337.25 L1391.1 2380.05 Q1393.4 2381.55 1389.35 2381.4 L1377.75 2381.05 Q1373.7 2380.9 1371.4 2379.4 L1305.1 2336.6 Q1302.8 2335.15 1306.85 2335.3 L1318.45 2335.65" fill="#dfdfdf" fill-rule="evenodd" stroke="none"/>
    <path d="M483.3 2741.85 L487.65 2741.85 487.65 2804.8 483.3 2804.8 483.3 2741.85" fill="#dfdfdf" fill-rule="evenodd" stroke="none"/>
    <path d="M421.8 2748.5 L426.2 2748.5 426.2 2800.65 421.8 2800.65 421.8 2748.5" fill="#dfdfdf" fill-rule="evenodd" stroke="none"/>
    <path d="M497.85 2735.7 L499.5 2735.7 499.5 2803.0 497.85 2803.0 497.85 2735.7" fill="#dfdfdf" fill-rule="evenodd" stroke="none"/>
    <path d="M411.3 2747.05 L411.3 2803.25 409.7 2803.25 409.7 2747.05 411.3 2747.05" fill="#dfdfdf" fill-rule="evenodd" stroke="none"/>
    <path d="M665.85 2331.05 L665.85 2335.0 Q612.8 2366.0 566.2 2412.6 426.55 2552.0 426.55 2749.35 L426.55 2750.25 422.2 2750.25 422.2 2749.2 Q422.2 2550.1 563.1 2409.5 610.25 2362.4 663.95 2331.05 L665.85 2331.05 M894.0 2334.55 Q839.8 2334.6 790.7 2347.15 735.25 2361.25 686.35 2391.2 661.8 2406.2 638.9 2425.25 L638.9 2420.55 Q658.55 2404.4 679.4 2391.2 732.15 2357.7 792.45 2342.65 840.8 2330.5 894.0 2330.3 L894.0 2334.55 M483.3 2744.7 Q483.3 2740.75 483.75 2736.4 L487.55 2736.8 487.5 2744.5 487.5 2744.7 483.3 2744.7 M573.75 2485.9 L578.45 2485.9 Q523.15 2552.95 501.45 2634.15 498.4 2645.65 496.0 2657.45 L492.7 2657.45 Q494.25 2646.55 497.05 2635.9 518.55 2553.8 573.75 2485.9" fill="#dfdfdf" fill-rule="evenodd" stroke="none"/>
    <path d="M901.4 2343.85 Q748.6 2344.1 636.85 2444.15 L636.85 2442.9 Q749.1 2342.75 902.55 2342.5 L917.85 2342.5 921.75 2342.5 921.75 2343.85 916.65 2343.85 901.4 2343.85 M499.5 2749.1 L499.5 2766.2 498.1 2766.2 498.1 2750.3 498.1 2750.05 Q498.1 2736.25 498.9 2722.75 L500.25 2722.75 Q499.5 2735.7 499.5 2748.95 L499.5 2749.1 M599.25 2480.55 L599.25 2481.95 Q524.55 2566.3 505.8 2674.05 L504.55 2674.05 Q523.65 2565.5 599.25 2480.55" fill="#dfdfdf" fill-rule="evenodd" stroke="none"/>
    <path d="M621.35 2342.8 L623.35 2342.8 Q587.0 2368.4 553.9 2401.75 411.3 2545.0 411.3 2747.95 L411.3 2748.15 411.3 2768.8 409.6 2768.8 409.6 2749.55 409.6 2749.3 Q409.6 2545.15 553.1 2400.95 585.7 2368.15 621.35 2342.8" fill="#dfdfdf" fill-rule="evenodd" stroke="none"/>
    <path d="M1514.8 2741.85 L1514.8 2804.8 1510.45 2804.8 1510.45 2741.85 1514.8 2741.85" fill="#dfdfdf" fill-rule="evenodd" stroke="none"/>
    <path d="M1576.3 2748.5 L1576.3 2800.65 1571.9 2800.65 1571.9 2748.5 1576.3 2748.5" fill="#dfdfdf" fill-rule="evenodd" stroke="none"/>
    <path d="M1500.25 2735.7 L1500.25 2803.0 1498.6 2803.0 1498.6 2735.7 1500.25 2735.7" fill="#dfdfdf" fill-rule="evenodd" stroke="none"/>
    <path d="M1586.8 2747.05 L1588.4 2747.05 1588.4 2803.25 1586.8 2803.25 1586.8 2747.05" fill="#dfdfdf" fill-rule="evenodd" stroke="none"/>
    <path d="M1514.8 2744.7 L1510.6 2744.7 1510.6 2744.5 1510.6 2738.55 1514.75 2738.55 1514.8 2744.7 M1412.9 2477.9 L1425.7 2488.2 Q1478.25 2548.95 1501.05 2635.9 1503.85 2646.6 1506.15 2657.55 L1502.15 2657.55 Q1499.75 2645.7 1496.65 2634.15 1473.65 2548.1 1412.9 2477.9 M1324.85 2330.75 L1333.65 2330.75 Q1387.6 2362.15 1435.0 2409.5 1575.9 2550.1 1575.9 2749.2 L1575.9 2750.25 1571.55 2750.25 1571.55 2749.35 Q1571.55 2552.0 1431.9 2412.6 1382.05 2362.8 1324.85 2330.75 M1104.1 2334.55 L1104.1 2330.75 1122.9 2330.75 Q1165.9 2332.65 1205.65 2342.65 1288.8 2363.4 1357.6 2419.2 L1357.6 2423.95 Q1289.65 2368.05 1207.4 2347.15 1158.3 2334.6 1104.1 2334.55" fill="#dfdfdf" fill-rule="evenodd" stroke="none"/>
    <path d="M1498.6 2749.1 L1498.6 2748.95 Q1498.6 2736.15 1497.95 2723.65 L1499.25 2723.65 Q1500.0 2736.7 1500.0 2750.05 L1500.0 2750.3 1500.0 2766.2 1498.6 2766.2 1498.6 2749.1 M1398.4 2481.45 L1398.4 2480.05 Q1474.5 2565.25 1493.6 2674.3 L1492.35 2674.3 Q1473.6 2566.05 1398.4 2481.45 M1076.35 2343.85 L1076.35 2342.5 1080.25 2342.5 1095.55 2342.5 Q1249.15 2342.75 1361.45 2443.05 L1361.45 2444.3 Q1249.65 2344.1 1096.7 2343.85 L1081.45 2343.85 1076.35 2343.85" fill="#dfdfdf" fill-rule="evenodd" stroke="none"/>
    <path d="M1374.3 2342.45 L1376.3 2342.45 Q1412.2 2367.9 1445.0 2400.95 1588.5 2545.15 1588.5 2749.3 L1588.5 2749.55 1588.5 2768.8 1586.8 2768.8 1586.8 2748.15 1586.8 2747.95 Q1586.8 2545.0 1444.2 2401.75 1410.85 2368.15 1374.3 2342.45" fill="#dfdfdf" fill-rule="evenodd" stroke="none"/>
    <path d="M397.95 1534.8 L397.95 1531.05 621.05 1531.05 621.05 1534.8 397.95 1534.8 M275.35 1534.8 L275.35 1531.05 348.8 1531.05 348.8 1534.8 275.35 1534.8" fill="#dfdfdf" fill-rule="evenodd" stroke="none"/>
    <path d="M411.15 1523.2 L411.15 1521.8 633.3 1521.8 633.3 1523.2 411.15 1523.2 M262.95 1523.2 L262.95 1521.8 336.55 1521.8 336.55 1523.2 262.95 1523.2" fill="#dfdfdf" fill-rule="evenodd" stroke="none"/>
    <path d="M273.1 1531.35 L276.85 1531.35 276.85 1724.35 273.1 1724.35 273.1 1531.35" fill="#dfdfdf" fill-rule="evenodd" stroke="none"/>
    <path d="M619.35 1531.25 L623.1 1531.25 623.1 1598.25 619.35 1598.25 619.35 1531.25" fill="#dfdfdf" fill-rule="evenodd" stroke="none"/>
    <path d="M262.95 1521.75 L264.35 1521.75 264.35 1733.55 262.95 1733.55 262.95 1521.75" fill="#dfdfdf" fill-rule="evenodd" stroke="none"/>
    <path d="M632.1 1523.3 L633.5 1523.3 633.5 1585.8 632.1 1585.8 632.1 1523.3" fill="#dfdfdf" fill-rule="evenodd" stroke="none"/>
    <path d="M447.4 1536.0 L447.4 1610.85 451.6 1610.85 451.6 1612.0 441.8 1612.0 441.8 1610.85 446.0 1610.85 446.0 1536.0 447.4 1536.0" fill="#dfdfdf" fill-rule="evenodd" stroke="none"/>
    <path d="M489.1 1536.15 L489.1 1611.0 493.3 1611.0 493.3 1612.15 483.5 1612.15 483.5 1611.0 487.7 1611.0 487.7 1536.15 489.1 1536.15" fill="#dfdfdf" fill-rule="evenodd" stroke="none"/>
    <path d="M530.9 1536.15 L530.9 1611.0 535.1 1611.0 535.1 1612.15 525.3 1612.15 525.3 1611.0 529.5 1611.0 529.5 1536.15 530.9 1536.15" fill="#dfdfdf" fill-rule="evenodd" stroke="none"/>
    <path d="M572.55 1536.15 L572.55 1611.0 576.75 1611.0 576.75 1612.15 566.95 1612.15 566.95 1611.0 571.15 1611.0 571.15 1536.15 572.55 1536.15" fill="#dfdfdf" fill-rule="evenodd" stroke="none"/>
    <path d="M351.6 1676.3 L352.75 1676.3 352.75 1686.1 351.6 1686.1 351.6 1681.9 276.75 1681.9 276.75 1680.5 351.6 1680.5 351.6 1676.3" fill="#dfdfdf" fill-rule="evenodd" stroke="none"/>
    <path d="M352.75 1644.3 L351.6 1644.3 351.6 1640.1 276.75 1640.1 276.75 1638.7 351.6 1638.7 351.6 1634.5 352.75 1634.5 352.75 1644.3" fill="#dfdfdf" fill-rule="evenodd" stroke="none"/>
    <path d="M352.75 1602.65 L351.6 1602.65 351.6 1598.45 276.75 1598.45 276.75 1597.05 351.6 1597.05 351.6 1592.85 352.75 1592.85 352.75 1602.65" fill="#dfdfdf" fill-rule="evenodd" stroke="none"/>
    <path d="M348.8 1025.3 L348.8 1029.05 275.4 1029.05 275.4 1025.3 348.8 1025.3 M397.9 1029.05 L397.9 1025.3 621.1 1025.3 621.1 1029.05 397.9 1029.05" fill="#dfdfdf" fill-rule="evenodd" stroke="none"/>
    <path d="M336.65 1036.9 L336.65 1038.3 263.0 1038.3 263.0 1036.9 336.65 1036.9 M411.0 1038.3 L411.0 1036.9 633.35 1036.9 633.35 1038.3 411.0 1038.3" fill="#dfdfdf" fill-rule="evenodd" stroke="none"/>
    <path d="M276.9 835.75 L276.9 1028.75 273.15 1028.75 273.15 835.75 276.9 835.75" fill="#dfdfdf" fill-rule="evenodd" stroke="none"/>
    <path d="M623.15 890.65 L623.15 1028.9 619.4 1028.9 619.4 890.65 623.15 890.65" fill="#dfdfdf" fill-rule="evenodd" stroke="none"/>
    <path d="M264.4 826.55 L264.4 1038.35 263.0 1038.35 263.0 826.55 264.4 826.55" fill="#dfdfdf" fill-rule="evenodd" stroke="none"/>
    <path d="M633.55 902.15 L633.55 1036.8 632.15 1036.8 632.15 902.15 633.55 902.15" fill="#dfdfdf" fill-rule="evenodd" stroke="none"/>
    <path d="M437.75 952.3 L437.75 951.15 447.55 951.15 447.55 952.3 443.35 952.3 443.35 1027.15 441.95 1027.15 441.95 952.3 437.75 952.3" fill="#dfdfdf" fill-rule="evenodd" stroke="none"/>
    <path d="M489.25 951.0 L489.25 952.15 485.05 952.15 485.05 1027.0 483.65 1027.0 483.65 952.15 479.45 952.15 479.45 951.0 489.25 951.0" fill="#dfdfdf" fill-rule="evenodd" stroke="none"/>
    <path d="M521.25 952.15 L521.25 951.0 531.05 951.0 531.05 952.15 526.85 952.15 526.85 1027.0 525.45 1027.0 525.45 952.15 521.25 952.15" fill="#dfdfdf" fill-rule="evenodd" stroke="none"/>
    <path d="M562.9 952.15 L562.9 951.0 572.7 951.0 572.7 952.15 568.5 952.15 568.5 1027.0 567.1 1027.0 567.1 952.15 562.9 952.15" fill="#dfdfdf" fill-rule="evenodd" stroke="none"/>
    <path d="M350.75 877.05 L350.75 886.85 349.6 886.85 349.6 882.65 274.75 882.65 274.75 881.25 349.6 881.25 349.6 877.05 350.75 877.05" fill="#dfdfdf" fill-rule="evenodd" stroke="none"/>
    <path d="M350.75 918.85 L350.75 928.65 349.6 928.65 349.6 924.45 274.75 924.45 274.75 923.05 349.6 923.05 349.6 918.85 350.75 918.85" fill="#dfdfdf" fill-rule="evenodd" stroke="none"/>
    <path d="M350.75 960.5 L350.75 970.3 349.6 970.3 349.6 966.1 274.75 966.1 274.75 964.7 349.6 964.7 349.6 960.5 350.75 960.5" fill="#dfdfdf" fill-rule="evenodd" stroke="none"/>
    <path d="M775.4 1182.35 L775.4 1180.95 850.25 1180.95 850.25 1176.75 851.4 1176.75 851.4 1186.55 850.25 1186.55 850.25 1182.35 775.4 1182.35" fill="#dfdfdf" fill-rule="evenodd" stroke="none"/>
    <path d="M851.55 1218.45 L851.55 1228.25 850.4 1228.25 850.4 1224.05 775.55 1224.05 775.55 1222.65 850.4 1222.65 850.4 1218.45 851.55 1218.45" fill="#dfdfdf" fill-rule="evenodd" stroke="none"/>
    <path d="M850.4 1270.05 L850.4 1265.85 775.55 1265.85 775.55 1264.45 850.4 1264.45 850.4 1260.25 851.55 1260.25 851.55 1270.05 850.4 1270.05" fill="#dfdfdf" fill-rule="evenodd" stroke="none"/>
    <path d="M851.55 1301.9 L851.55 1311.7 850.4 1311.7 850.4 1307.5 775.55 1307.5 775.55 1306.1 850.4 1306.1 850.4 1301.9 851.55 1301.9" fill="#dfdfdf" fill-rule="evenodd" stroke="none"/>
    <path d="M851.55 1302.05 L851.55 1311.85 850.4 1311.85 850.4 1307.65 775.55 1307.65 775.55 1306.25 850.4 1306.25 850.4 1302.05 851.55 1302.05" fill="#dfdfdf" fill-rule="evenodd" stroke="none"/>
    <path d="M850.4 1353.65 L850.4 1349.45 775.55 1349.45 775.55 1348.05 850.4 1348.05 850.4 1343.85 851.55 1343.85 851.55 1353.65 850.4 1353.65" fill="#dfdfdf" fill-rule="evenodd" stroke="none"/>
    <path d="M850.4 1385.5 L851.55 1385.5 851.55 1395.3 850.4 1395.3 850.4 1391.1 775.55 1391.1 775.55 1389.7 850.4 1389.7 850.4 1385.5" fill="#dfdfdf" fill-rule="evenodd" stroke="none"/>
    <path d="M1921.2 2801.35 L1915.9 2801.35 1967.95 2663.45 1967.95 2677.55 1921.2 2801.35" fill="#dfdfdf" fill-rule="evenodd" stroke="none"/>
    <path d="M1906.9 2627.5 L1906.9 2641.75 1846.6 2801.35 1841.3 2801.35 1906.9 2627.5" fill="#dfdfdf" fill-rule="evenodd" stroke="none"/>
    <path d="M1935.25 2802.3 L1933.25 2802.3 1967.95 2710.35 1967.95 2715.65 1935.25 2802.3" fill="#dfdfdf" fill-rule="evenodd" stroke="none"/>
    <path d="M1892.95 2625.85 L1893.4 2625.85 1893.4 2629.7 1828.6 2801.35 1826.7 2801.35 1892.95 2625.85" fill="#dfdfdf" fill-rule="evenodd" stroke="none"/>
    <path d="M1967.95 2678.85 L1967.95 2664.8 2019.9 2802.3 2014.55 2802.3 1967.95 2678.85" fill="#dfdfdf" fill-rule="evenodd" stroke="none"/>
    <path d="M2029.0 2643.05 L2029.0 2628.8 2094.85 2803.25 2089.5 2803.25 2029.0 2643.05" fill="#dfdfdf" fill-rule="evenodd" stroke="none"/>
    <path d="M1967.95 2717.0 L1967.95 2711.7 2002.2 2802.3 2000.15 2802.3 1967.95 2717.0" fill="#dfdfdf" fill-rule="evenodd" stroke="none"/>
    <path d="M2042.45 2625.85 L2109.05 2802.3 2107.15 2802.3 2040.55 2625.85 2042.45 2625.85" fill="#dfdfdf" fill-rule="evenodd" stroke="none"/>
    <path d="M775.65 1122.75 L775.65 1448.05 771.9 1448.05 771.9 1122.75 775.65 1122.75" fill="#dfdfdf" fill-rule="evenodd" stroke="none"/>
    <path d="M764.05 1111.05 L764.05 1459.5 762.65 1459.5 762.65 1111.05 764.05 1111.05" fill="#dfdfdf" fill-rule="evenodd" stroke="none"/>
    <path d="M771.9 1121.35 L939.05 1121.35 939.05 1125.1 771.9 1125.1 771.9 1121.35" fill="#dfdfdf" fill-rule="evenodd" stroke="none"/>
    <path d="M772.15 1445.9 L940.4 1445.9 940.4 1449.65 772.15 1449.65 772.15 1445.9" fill="#dfdfdf" fill-rule="evenodd" stroke="none"/>
    <path d="M762.9 1110.9 L930.15 1110.9 930.15 1112.3 762.9 1112.3 762.9 1110.9" fill="#dfdfdf" fill-rule="evenodd" stroke="none"/>
    <path d="M762.85 1458.65 L929.5 1458.65 929.5 1460.05 762.85 1460.05 762.85 1458.65" fill="#dfdfdf" fill-rule="evenodd" stroke="none"/>
  </g>
</svg>
