<?xml version="1.0" encoding="UTF-8" standalone="no"?>
<svg xmlns:xlink="http://www.w3.org/1999/xlink" height="1747.7px" width="2370.75px" xmlns="http://www.w3.org/2000/svg">
  <g transform="matrix(1, 0, 0, 1, -335.2, -1026.05)">
    <path d="M912.65 1174.7 L912.65 1168.7 Q912.65 1166.6 913.45 1166.6 L937.15 1166.6 Q937.95 1166.6 937.95 1168.7 L937.95 1174.7 Q937.95 1176.8 937.15 1176.8 L913.45 1176.8 Q912.65 1176.8 912.65 1174.7" fill="#dfdfdf" fill-rule="evenodd" stroke="none"/>
    <path d="M912.65 1156.95 L912.65 1150.95 Q912.65 1148.85 913.45 1148.85 L937.15 1148.85 Q937.95 1148.85 937.95 1150.95 L937.95 1156.95 Q937.95 1159.05 937.15 1159.05 L913.45 1159.05 Q912.65 1159.05 912.65 1156.95" fill="#dfdfdf" fill-rule="evenodd" stroke="none"/>
    <path d="M937.95 1133.2 L937.95 1139.2 Q937.95 1141.3 937.15 1141.3 L913.45 1141.3 Q912.65 1141.3 912.65 1139.2 L912.65 1133.2 Q912.65 1131.1 913.45 1131.1 L937.15 1131.1 Q937.95 1131.1 937.95 1133.2" fill="#dfdfdf" fill-rule="evenodd" stroke="none"/>
    <path d="M913.45 1184.6 L937.15 1184.6 Q937.95 1184.6 937.95 1186.7 L937.95 1192.7 Q937.95 1194.8 937.15 1194.8 L913.45 1194.8 Q912.65 1194.8 912.65 1192.7 L912.65 1186.7 Q912.65 1184.6 913.45 1184.6" fill="#dfdfdf" fill-rule="evenodd" stroke="none"/>
    <path d="M349.1 1026.15 L349.1 1533.05 345.35 1533.05 345.35 1026.15 349.1 1026.15" fill="#dfdfdf" fill-rule="evenodd" stroke="none"/>
    <path d="M401.8 1026.05 L401.8 1534.55 398.05 1534.55 398.05 1026.05 401.8 1026.05" fill="#dfdfdf" fill-rule="evenodd" stroke="none"/>
    <path d="M335.2 1036.6 L336.6 1036.6 336.6 1522.0 335.2 1522.0 335.2 1036.6" fill="#dfdfdf" fill-rule="evenodd" stroke="none"/>
    <path d="M410.8 1037.1 L412.2 1037.1 412.2 1522.9 410.8 1522.9 410.8 1037.1" fill="#dfdfdf" fill-rule="evenodd" stroke="none"/>
    <path d="M2705.95 2750.95 L2705.95 2754.7 2522.8 2754.7 2522.8 2750.95 2705.95 2750.95" fill="#dfdfdf" fill-rule="evenodd" stroke="none"/>
    <path d="M2705.2 2407.25 L2705.2 2411.0 2524.9 2411.0 2524.9 2407.25 2705.2 2407.25" fill="#dfdfdf" fill-rule="evenodd" stroke="none"/>
    <path d="M2705.2 2763.45 L2705.2 2764.85 2536.45 2764.85 2536.45 2763.45 2705.2 2763.45" fill="#dfdfdf" fill-rule="evenodd" stroke="none"/>
    <path d="M2533.55 2754.7 L2523.9 2754.75 Q2515.75 2753.55 2515.35 2764.4 L2515.4 2773.75 2511.65 2773.75 2511.65 2761.55 Q2512.2 2751.0 2521.9 2751.0 L2533.55 2751.0 2533.55 2754.7" fill="#dfdfdf" fill-rule="evenodd" stroke="none"/>
    <path d="M2533.6 2407.3 L2533.6 2411.0 2521.95 2411.0 Q2512.25 2411.0 2511.7 2400.45 L2511.7 2394.8 2515.4 2394.8 2515.4 2397.6 Q2515.8 2408.45 2523.95 2407.25 L2533.6 2407.3" fill="#dfdfdf" fill-rule="evenodd" stroke="none"/>
    <path d="M2705.2 2396.85 L2705.2 2398.25 2536.45 2398.25 2536.45 2396.85 2705.2 2396.85" fill="#dfdfdf" fill-rule="evenodd" stroke="none"/>
  </g>
</svg>
