<?xml version="1.0" encoding="UTF-8" standalone="no"?>
<svg xmlns:xlink="http://www.w3.org/1999/xlink" height="2763.95px" width="1448.25px" xmlns="http://www.w3.org/2000/svg">
  <g transform="matrix(1, 0, 0, 1, -1355.9, -20.55)">
    <path d="M2512.15 2743.25 L2525.35 2743.25 Q2525.8 2743.25 2525.8 2744.5 L2525.8 2747.95 Q2525.8 2749.15 2525.35 2749.15 L2512.15 2749.15 Q2511.7 2749.15 2511.7 2747.95 L2511.7 2744.5 Q2511.7 2743.25 2512.15 2743.25" fill="#dfdfdf" fill-rule="evenodd" stroke="none"/>
    <path d="M2512.15 2733.0 L2525.35 2733.0 Q2525.8 2733.0 2525.8 2734.25 L2525.8 2737.7 Q2525.8 2738.9 2525.35 2738.9 L2512.15 2738.9 Q2511.7 2738.9 2511.7 2737.7 L2511.7 2734.25 Q2511.7 2733.0 2512.15 2733.0" fill="#dfdfdf" fill-rule="evenodd" stroke="none"/>
    <path d="M2512.15 2722.7 L2525.35 2722.7 Q2525.8 2722.7 2525.8 2723.95 L2525.8 2727.4 Q2525.8 2728.6 2525.35 2728.6 L2512.15 2728.6 Q2511.7 2728.6 2511.7 2727.4 L2511.7 2723.95 Q2511.7 2722.7 2512.15 2722.7" fill="#dfdfdf" fill-rule="evenodd" stroke="none"/>
    <path d="M2512.15 2712.45 L2525.35 2712.45 Q2525.8 2712.45 2525.8 2713.7 L2525.8 2717.15 Q2525.8 2718.35 2525.35 2718.35 L2512.15 2718.35 Q2511.7 2718.35 2511.7 2717.15 L2511.7 2713.7 Q2511.7 2712.45 2512.15 2712.45" fill="#dfdfdf" fill-rule="evenodd" stroke="none"/>
    <path d="M2512.15 2702.2 L2525.35 2702.2 Q2525.8 2702.2 2525.8 2703.45 L2525.8 2706.9 Q2525.8 2708.1 2525.35 2708.1 L2512.15 2708.1 Q2511.7 2708.1 2511.7 2706.9 L2511.7 2703.45 Q2511.7 2702.2 2512.15 2702.2" fill="#dfdfdf" fill-rule="evenodd" stroke="none"/>
    <path d="M2730.6 2377.7 L2730.6 2379.3 2705.2 2379.3 2705.2 2378.65 2705.2 2377.7 2730.6 2377.7" fill="#dfdfdf" fill-rule="evenodd" stroke="none"/>
    <path d="M2706.8 2378.15 L2706.8 2411.05 2705.2 2411.05 2705.2 2378.2 2705.85 2378.2 2706.8 2378.15" fill="#dfdfdf" fill-rule="evenodd" stroke="none"/>
    <path d="M2730.6 2784.5 L2705.2 2784.5 2705.2 2783.55 2705.2 2782.9 2730.6 2782.9 2730.6 2784.5" fill="#dfdfdf" fill-rule="evenodd" stroke="none"/>
    <path d="M2706.8 2751.15 L2706.8 2784.05 2705.85 2784.0 2705.2 2784.0 2705.2 2751.15 2706.8 2751.15" fill="#dfdfdf" fill-rule="evenodd" stroke="none"/>
    <path d="M1709.95 1016.8 L1710.2 1013.25 1719.65 1013.25 Q1758.55 1016.35 1787.6 1039.65 1826.25 1070.5 1826.6 1120.65 L1826.65 1121.45 1822.6 1122.05 1822.55 1121.2 Q1822.4 1073.25 1785.1 1043.25 1753.9 1018.2 1709.95 1016.8" fill="#dfdfdf" fill-rule="evenodd" stroke="none"/>
    <path d="M1708.2 1004.35 L1708.05 1002.7 1723.15 1002.7 Q1764.25 1006.5 1795.05 1031.2 1837.0 1064.75 1837.4 1119.0 L1837.45 1119.3 1836.9 1125.4 1835.75 1126.7 1834.75 1114.55 Q1832.85 1065.15 1793.7 1033.65 1760.85 1007.25 1715.1 1004.7 L1712.7 1004.55 1711.0 1004.35 1708.2 1004.35" fill="#dfdfdf" fill-rule="evenodd" stroke="none"/>
    <path d="M1690.9 1079.9 Q1691.3 1079.85 1691.05 1078.95 L1691.65 1078.8 Q1720.9 1077.7 1743.5 1094.7 1770.4 1114.75 1773.5 1149.5 L1773.5 1150.1 1773.75 1151.05 1773.35 1151.45 1773.5 1151.15 1770.15 1151.75 1770.15 1151.2 Q1767.3 1117.85 1741.3 1098.35 1719.65 1082.1 1690.95 1082.7 L1690.9 1079.9" fill="#dfdfdf" fill-rule="evenodd" stroke="none"/>
    <path d="M1690.65 1091.15 Q1716.55 1090.05 1735.95 1104.75 1738.85 1106.95 1741.45 1109.35 1759.35 1125.85 1761.6 1152.0 L1761.5 1162.7 1760.1 1162.95 1760.15 1152.3 Q1757.95 1127.95 1741.45 1112.1 1738.45 1109.2 1735.0 1106.6 1716.0 1092.2 1690.65 1092.75 L1690.65 1091.15" fill="#dfdfdf" fill-rule="evenodd" stroke="none"/>
    <path d="M1433.45 1082.35 L1433.45 1078.6 1531.2 1078.6 1531.2 1082.35 1433.45 1082.35 M1691.4 1078.6 L1691.4 1082.35 1617.85 1082.35 1617.85 1078.6 1691.4 1078.6" fill="#dfdfdf" fill-rule="evenodd" stroke="none"/>
    <path d="M1713.5 1013.3 L1713.5 1017.05 1427.5 1017.05 1427.5 1013.3 1713.5 1013.3" fill="#dfdfdf" fill-rule="evenodd" stroke="none"/>
    <path d="M1449.0 1092.5 L1449.0 1091.1 1547.45 1091.1 1547.45 1092.5 1449.0 1092.5 M1692.3 1091.1 L1692.3 1092.5 1601.6 1092.5 1601.6 1091.1 1692.3 1091.1" fill="#dfdfdf" fill-rule="evenodd" stroke="none"/>
    <path d="M1715.05 1002.9 L1715.05 1004.3 1429.75 1004.3 1429.75 1002.9 1715.05 1002.9" fill="#dfdfdf" fill-rule="evenodd" stroke="none"/>
    <path d="M1435.35 1078.6 L1436.3 1078.35 1436.7 1078.75 1436.4 1078.6 1437.0 1081.95 1436.45 1081.95 Q1403.1 1084.8 1383.6 1110.8 1367.35 1132.45 1367.95 1161.15 L1365.15 1161.2 Q1365.1 1160.8 1364.2 1161.05 L1364.05 1160.45 Q1362.95 1131.2 1379.95 1108.6 1400.0 1081.7 1434.75 1078.6 L1435.35 1078.6" fill="#dfdfdf" fill-rule="evenodd" stroke="none"/>
    <path d="M1450.2 1090.85 L1450.45 1092.25 1439.8 1092.2 Q1415.45 1094.4 1399.6 1110.9 1396.7 1113.9 1394.1 1117.35 1379.7 1136.35 1380.25 1161.7 L1378.65 1161.7 Q1377.55 1135.8 1392.25 1116.4 1394.45 1113.5 1396.85 1110.9 1413.35 1093.0 1439.5 1090.75 L1450.2 1090.85" fill="#dfdfdf" fill-rule="evenodd" stroke="none"/>
    <path d="M1357.05 933.75 L1359.85 933.8 Q1359.25 962.5 1375.5 984.15 1395.0 1010.15 1428.35 1013.0 L1428.9 1013.0 1428.3 1016.35 Q1428.65 1016.1 1428.6 1016.2 L1428.2 1016.6 1427.25 1016.35 1426.65 1016.35 Q1391.9 1013.25 1371.85 986.35 1354.85 963.75 1355.95 934.5 L1356.1 933.9 1357.05 933.75" fill="#dfdfdf" fill-rule="evenodd" stroke="none"/>
    <path d="M1368.3 933.5 L1369.9 933.5 Q1369.35 958.85 1383.75 977.85 1386.35 981.3 1389.25 984.3 1405.1 1000.8 1429.45 1003.0 L1440.1 1002.95 1439.85 1004.35 1429.15 1004.45 Q1403.0 1002.2 1386.5 984.3 L1381.9 978.8 Q1367.2 959.4 1368.3 933.5" fill="#dfdfdf" fill-rule="evenodd" stroke="none"/>
    <path d="M2745.5 585.75 L2749.25 585.75 2749.25 686.15 2745.5 686.15 2745.5 585.75" fill="#dfdfdf" fill-rule="evenodd" stroke="none"/>
    <path d="M2692.15 585.05 L2695.9 585.05 2695.9 686.2 2692.15 686.2 2692.15 585.05" fill="#dfdfdf" fill-rule="evenodd" stroke="none"/>
    <path d="M2681.75 597.25 L2683.15 597.25 2683.15 685.25 2681.75 685.25 2681.75 597.25" fill="#dfdfdf" fill-rule="evenodd" stroke="none"/>
    <path d="M2804.15 975.35 L2748.6 975.35 2748.6 971.6 2804.15 971.6 2804.15 975.35" fill="#dfdfdf" fill-rule="evenodd" stroke="none"/>
    <path d="M2695.65 684.8 L2695.65 686.2 2634.25 686.2 2634.25 684.8 2695.65 684.8 M2747.2 684.8 L2800.0 684.8 2800.0 686.2 2747.2 686.2 2747.2 684.8" fill="#dfdfdf" fill-rule="evenodd" stroke="none"/>
    <path d="M2635.75 684.8 L2635.75 727.5 2634.35 727.5 2634.35 684.8 2635.75 684.8" fill="#dfdfdf" fill-rule="evenodd" stroke="none"/>
    <path d="M2635.0 727.75 L2610.0 727.75 2610.0 724.0 2635.0 724.0 2635.0 727.75" fill="#dfdfdf" fill-rule="evenodd" stroke="none"/>
    <path d="M2748.9 971.6 L2748.9 1042.95 2745.15 1042.95 2745.15 971.6 2748.9 971.6" fill="#dfdfdf" fill-rule="evenodd" stroke="none"/>
    <path d="M2745.15 1032.55 L2748.85 1032.55 2748.9 1042.2 Q2747.7 1050.35 2758.55 1050.75 L2772.15 1050.75 2772.15 1054.45 2755.7 1054.45 Q2745.15 1053.9 2745.15 1044.2 L2745.15 1032.55" fill="#dfdfdf" fill-rule="evenodd" stroke="none"/>
    <path d="M2756.75 597.25 L2758.15 597.25 2758.15 685.25 2756.75 685.25 2756.75 597.25" fill="#dfdfdf" fill-rule="evenodd" stroke="none"/>
    <path d="M2693.6 925.4 L2697.35 925.4 2697.35 1043.0 2693.6 1043.0 2693.6 925.4" fill="#dfdfdf" fill-rule="evenodd" stroke="none"/>
    <path d="M2697.35 1032.55 L2697.35 1044.2 Q2697.35 1053.9 2686.8 1054.45 L2670.35 1054.45 2670.35 1050.75 2683.95 1050.75 Q2694.8 1050.35 2693.6 1042.2 L2693.65 1032.55 2697.35 1032.55" fill="#dfdfdf" fill-rule="evenodd" stroke="none"/>
    <path d="M2652.05 924.35 L2697.6 924.35 2697.6 928.1 2652.05 928.1 2652.05 924.35" fill="#dfdfdf" fill-rule="evenodd" stroke="none"/>
    <path d="M2695.95 434.25 L2695.95 535.4 2692.2 535.4 2692.2 434.25 2695.95 434.25" fill="#dfdfdf" fill-rule="evenodd" stroke="none"/>
    <path d="M2683.2 434.5 L2683.2 522.5 2681.8 522.5 2681.8 434.5 2683.2 434.5" fill="#dfdfdf" fill-rule="evenodd" stroke="none"/>
    <path d="M2734.4 298.05 L2734.4 294.3 2802.15 294.3 2802.15 298.05 2734.4 298.05" fill="#dfdfdf" fill-rule="evenodd" stroke="none"/>
    <path d="M2802.7 435.65 L2744.0 435.65 2744.0 434.25 2802.7 434.25 2802.7 435.65 M2695.9 434.25 L2695.9 435.65 2649.25 435.65 2649.25 434.25 2695.9 434.25" fill="#dfdfdf" fill-rule="evenodd" stroke="none"/>
    <path d="M2649.05 392.95 L2650.45 392.95 2650.45 435.65 2649.05 435.65 2649.05 392.95" fill="#dfdfdf" fill-rule="evenodd" stroke="none"/>
    <path d="M2626.7 392.7 L2649.7 392.7 2649.7 396.45 2626.7 396.45 2626.7 392.7" fill="#dfdfdf" fill-rule="evenodd" stroke="none"/>
    <path d="M2730.9 262.35 L2734.65 262.35 2734.65 298.1 2730.9 298.1 2730.9 262.35" fill="#dfdfdf" fill-rule="evenodd" stroke="none"/>
    <path d="M2734.6 272.75 L2730.9 272.75 2730.9 261.1 Q2730.9 251.4 2741.45 250.85 L2757.9 250.85 2757.9 254.55 2744.3 254.55 Q2733.45 254.95 2734.65 263.1 L2734.6 272.75" fill="#dfdfdf" fill-rule="evenodd" stroke="none"/>
    <path d="M2683.1 262.3 L2683.1 297.3 2679.35 297.3 2679.35 262.3 2683.1 262.3" fill="#dfdfdf" fill-rule="evenodd" stroke="none"/>
    <path d="M2679.4 272.75 L2679.35 263.1 Q2680.55 254.95 2669.7 254.55 L2656.1 254.55 2656.1 250.85 2672.55 250.85 Q2683.1 251.4 2683.1 261.1 L2683.1 272.75 2679.4 272.75" fill="#dfdfdf" fill-rule="evenodd" stroke="none"/>
    <path d="M2683.35 297.25 L2627.0 297.25 2627.0 293.5 2683.35 293.5 2683.35 297.25" fill="#dfdfdf" fill-rule="evenodd" stroke="none"/>
    <path d="M2627.0 294.3 L2630.75 294.3 2630.75 395.35 2627.0 395.35 2627.0 294.3" fill="#dfdfdf" fill-rule="evenodd" stroke="none"/>
    <path d="M2744.05 434.25 L2747.8 434.25 2747.8 535.4 2744.05 535.4 2744.05 434.25" fill="#dfdfdf" fill-rule="evenodd" stroke="none"/>
    <path d="M2756.8 434.5 L2758.2 434.5 2758.2 522.5 2756.8 522.5 2756.8 434.5" fill="#dfdfdf" fill-rule="evenodd" stroke="none"/>
    <path d="M2774.5 1637.2 L2669.8 1637.2 2669.8 1633.45 2774.5 1633.45 2774.5 1637.2" fill="#dfdfdf" fill-rule="evenodd" stroke="none"/>
    <path d="M2775.6 1362.9 L2775.6 1364.3 2602.95 1364.3 2602.95 1362.9 2775.6 1362.9" fill="#dfdfdf" fill-rule="evenodd" stroke="none"/>
    <path d="M2604.5 1362.9 L2604.5 1405.6 2603.1 1405.6 2603.1 1362.9 2604.5 1362.9" fill="#dfdfdf" fill-rule="evenodd" stroke="none"/>
    <path d="M2603.7 1405.85 L2569.7 1405.85 2569.7 1402.1 2603.7 1402.1 2603.7 1405.85" fill="#dfdfdf" fill-rule="evenodd" stroke="none"/>
    <path d="M2666.4 1633.4 L2670.15 1633.4 2670.15 1659.8 2666.4 1659.8 2666.4 1633.4" fill="#dfdfdf" fill-rule="evenodd" stroke="none"/>
    <path d="M2693.4 1667.6 L2693.4 1671.3 2676.95 1671.3 Q2666.4 1670.75 2666.4 1661.05 L2666.4 1649.4 2670.1 1649.4 2670.15 1659.05 Q2668.95 1667.2 2679.8 1667.6 L2693.4 1667.6" fill="#dfdfdf" fill-rule="evenodd" stroke="none"/>
    <path d="M2614.85 1542.25 L2618.6 1542.25 2618.6 1659.85 2614.85 1659.85 2614.85 1542.25" fill="#dfdfdf" fill-rule="evenodd" stroke="none"/>
    <path d="M2614.9 1649.4 L2618.6 1649.4 2618.6 1661.05 Q2618.6 1670.75 2608.05 1671.3 L2591.6 1671.3 2591.6 1667.6 2605.2 1667.6 Q2616.05 1667.2 2614.85 1659.05 L2614.9 1649.4" fill="#dfdfdf" fill-rule="evenodd" stroke="none"/>
    <path d="M2618.85 1544.95 L2573.3 1544.95 2573.3 1541.2 2618.85 1541.2 2618.85 1544.95" fill="#dfdfdf" fill-rule="evenodd" stroke="none"/>
    <path d="M2569.6 1403.7 L2573.35 1403.7 2573.35 1545.1 2569.6 1545.1 2569.6 1403.7" fill="#dfdfdf" fill-rule="evenodd" stroke="none"/>
    <path d="M2771.4 1588.4 L2775.15 1588.4 2775.15 1636.45 2771.4 1636.45 2771.4 1588.4" fill="#dfdfdf" fill-rule="evenodd" stroke="none"/>
    <path d="M2777.0 1362.9 L2777.0 1405.6 2775.6 1405.6 2775.6 1362.9 2777.0 1362.9" fill="#dfdfdf" fill-rule="evenodd" stroke="none"/>
    <path d="M2710.1 1139.55 L2710.1 1135.8 2794.9 1135.8 2794.9 1139.55 2710.1 1139.55" fill="#dfdfdf" fill-rule="evenodd" stroke="none"/>
    <path d="M2794.2 1344.6 L2649.85 1344.6 2649.85 1343.2 2794.2 1343.2 2794.2 1344.6" fill="#dfdfdf" fill-rule="evenodd" stroke="none"/>
    <path d="M2630.5 1300.95 L2630.5 1293.55 2631.9 1293.55 2631.9 1300.95 2630.5 1300.95" fill="#dfdfdf" fill-rule="evenodd" stroke="none"/>
    <path d="M2710.45 1113.2 L2710.45 1139.6 2706.7 1139.6 2706.7 1113.2 2710.45 1113.2" fill="#dfdfdf" fill-rule="evenodd" stroke="none"/>
    <path d="M2733.7 1106.6 L2720.1 1106.6 Q2709.25 1107.0 2710.45 1115.15 L2710.4 1124.8 2706.7 1124.8 2706.7 1113.15 Q2706.7 1103.45 2717.25 1102.9 L2733.7 1102.9 2733.7 1106.6" fill="#dfdfdf" fill-rule="evenodd" stroke="none"/>
    <path d="M2658.9 1113.2 L2658.9 1139.65 2655.15 1139.65 2655.15 1113.2 2658.9 1113.2" fill="#dfdfdf" fill-rule="evenodd" stroke="none"/>
    <path d="M2655.2 1125.4 L2655.15 1115.75 Q2656.35 1107.6 2645.5 1107.2 L2631.9 1107.2 2631.9 1103.5 2648.35 1103.5 Q2658.9 1104.05 2658.9 1113.75 L2658.9 1125.4 2655.2 1125.4" fill="#dfdfdf" fill-rule="evenodd" stroke="none"/>
    <path d="M2658.65 1135.7 L2658.65 1139.45 2573.9 1139.45 2573.9 1135.7 2658.65 1135.7" fill="#dfdfdf" fill-rule="evenodd" stroke="none"/>
    <path d="M2795.3 1136.5 L2795.3 1344.6 2791.55 1344.6 2791.55 1136.5 2795.3 1136.5" fill="#dfdfdf" fill-rule="evenodd" stroke="none"/>
    <path d="M2573.5 1137.5 L2574.9 1137.5 2574.9 1158.0 2573.5 1158.0 2573.5 1137.5" fill="#dfdfdf" fill-rule="evenodd" stroke="none"/>
    <path d="M2802.35 85.45 L2734.6 85.45 2734.6 81.7 2802.35 81.7 2802.35 85.45" fill="#dfdfdf" fill-rule="evenodd" stroke="none"/>
    <path d="M2734.85 81.65 L2734.85 117.4 2731.1 117.4 2731.1 81.65 2734.85 81.65" fill="#dfdfdf" fill-rule="evenodd" stroke="none"/>
    <path d="M2758.1 125.2 L2758.1 128.9 2741.65 128.9 Q2731.1 128.35 2731.1 118.65 L2731.1 107.0 2734.8 107.0 2734.85 116.65 Q2733.65 124.8 2744.5 125.2 L2758.1 125.2" fill="#dfdfdf" fill-rule="evenodd" stroke="none"/>
    <path d="M2679.55 82.45 L2683.3 82.45 2683.3 117.45 2679.55 117.45 2679.55 82.45" fill="#dfdfdf" fill-rule="evenodd" stroke="none"/>
    <path d="M2656.3 125.2 L2669.9 125.2 Q2680.75 124.8 2679.55 116.65 L2679.6 107.0 2683.3 107.0 2683.3 118.65 Q2683.3 128.35 2672.75 128.9 L2656.3 128.9 2656.3 125.2" fill="#dfdfdf" fill-rule="evenodd" stroke="none"/>
    <path d="M2683.55 86.25 L2627.2 86.25 2627.2 82.5 2683.55 82.5 2683.55 86.25" fill="#dfdfdf" fill-rule="evenodd" stroke="none"/>
    <path d="M2630.95 20.55 L2630.95 85.4 2627.2 85.4 2627.2 20.55 2630.95 20.55" fill="#dfdfdf" fill-rule="evenodd" stroke="none"/>
  </g>
</svg>
