<?xml version="1.0" encoding="UTF-8" standalone="no"?>
<svg xmlns:xlink="http://www.w3.org/1999/xlink" height="2529.45px" width="2756.8px" xmlns="http://www.w3.org/2000/svg">
  <g transform="matrix(1, 0, 0, 1, 5.95, -279.1)">
    <path d="M2692.2 1721.4 L2695.95 1721.4 2695.95 1821.8 2692.2 1821.8 2692.2 1721.4" fill="#dfdfdf" fill-rule="evenodd" stroke="none"/>
    <path d="M2638.85 1720.7 L2642.6 1720.7 2642.6 1821.85 2638.85 1821.85 2638.85 1720.7" fill="#dfdfdf" fill-rule="evenodd" stroke="none"/>
    <path d="M2628.45 1732.9 L2629.85 1732.9 2629.85 1820.9 2628.45 1820.9 2628.45 1732.9" fill="#dfdfdf" fill-rule="evenodd" stroke="none"/>
    <path d="M2750.85 2125.7 L2750.85 2129.45 2695.3 2129.45 2695.3 2125.7 2750.85 2125.7" fill="#dfdfdf" fill-rule="evenodd" stroke="none"/>
    <path d="M2746.7 1821.85 L2693.9 1821.85 2693.9 1820.45 2746.7 1820.45 2746.7 1821.85 M2642.35 1820.45 L2642.35 1821.85 2580.95 1821.85 2580.95 1820.45 2642.35 1820.45" fill="#dfdfdf" fill-rule="evenodd" stroke="none"/>
    <path d="M2582.45 1820.45 L2582.45 1863.15 2581.05 1863.15 2581.05 1820.45 2582.45 1820.45" fill="#dfdfdf" fill-rule="evenodd" stroke="none"/>
    <path d="M2556.7 1863.4 L2556.7 1859.65 2581.7 1859.65 2581.7 1863.4 2556.7 1863.4" fill="#dfdfdf" fill-rule="evenodd" stroke="none"/>
    <path d="M2695.6 2125.7 L2695.6 2197.05 2691.85 2197.05 2691.85 2125.7 2695.6 2125.7" fill="#dfdfdf" fill-rule="evenodd" stroke="none"/>
    <path d="M2718.85 2204.85 L2718.85 2208.55 2702.4 2208.55 Q2691.85 2208.0 2691.85 2198.3 L2691.85 2186.65 2695.55 2186.65 2695.6 2196.3 Q2694.4 2204.45 2705.25 2204.85 L2718.85 2204.85" fill="#dfdfdf" fill-rule="evenodd" stroke="none"/>
    <path d="M2703.45 1732.9 L2704.85 1732.9 2704.85 1820.9 2703.45 1820.9 2703.45 1732.9" fill="#dfdfdf" fill-rule="evenodd" stroke="none"/>
    <path d="M2640.3 2079.5 L2644.05 2079.5 2644.05 2197.1 2640.3 2197.1 2640.3 2079.5" fill="#dfdfdf" fill-rule="evenodd" stroke="none"/>
    <path d="M2633.5 2208.55 L2617.05 2208.55 2617.05 2204.85 2630.65 2204.85 Q2641.5 2204.45 2640.3 2196.3 L2640.35 2186.65 2644.05 2186.65 2644.05 2198.3 Q2644.05 2208.0 2633.5 2208.55" fill="#dfdfdf" fill-rule="evenodd" stroke="none"/>
    <path d="M2643.85 2082.2 L2556.8 2082.2 2556.8 2078.45 2643.85 2078.45 2643.85 2082.2" fill="#dfdfdf" fill-rule="evenodd" stroke="none"/>
    <path d="M2558.1 1859.65 L2558.1 2080.75 2556.7 2080.75 2556.7 1859.65 2558.1 1859.65" fill="#dfdfdf" fill-rule="evenodd" stroke="none"/>
    <path d="M2223.7 1637.2 L1979.0 1637.2 1979.0 1633.45 2223.7 1633.45 2223.7 1637.2" fill="#dfdfdf" fill-rule="evenodd" stroke="none"/>
    <path d="M1880.95 1504.45 L2037.95 1504.45 2037.95 1508.2 1880.95 1508.2 1880.95 1504.45" fill="#dfdfdf" fill-rule="evenodd" stroke="none"/>
    <path d="M1977.6 1633.4 L1981.35 1633.4 1981.35 1659.8 1977.6 1659.8 1977.6 1633.4" fill="#dfdfdf" fill-rule="evenodd" stroke="none"/>
    <path d="M1981.3 1649.4 L1981.35 1659.05 Q1980.15 1667.2 1991.0 1667.6 L2004.6 1667.6 2004.6 1671.3 1988.15 1671.3 Q1977.6 1670.75 1977.6 1661.05 L1977.6 1649.4 1981.3 1649.4" fill="#dfdfdf" fill-rule="evenodd" stroke="none"/>
    <path d="M1926.05 1542.25 L1929.8 1542.25 1929.8 1659.85 1926.05 1659.85 1926.05 1542.25" fill="#dfdfdf" fill-rule="evenodd" stroke="none"/>
    <path d="M1902.8 1667.6 L1916.4 1667.6 Q1927.25 1667.2 1926.05 1659.05 L1926.1 1649.4 1929.8 1649.4 1929.8 1661.05 Q1929.8 1670.75 1919.25 1671.3 L1902.8 1671.3 1902.8 1667.6" fill="#dfdfdf" fill-rule="evenodd" stroke="none"/>
    <path d="M1884.5 1541.2 L1930.05 1541.2 1930.05 1544.95 1884.5 1544.95 1884.5 1541.2" fill="#dfdfdf" fill-rule="evenodd" stroke="none"/>
    <path d="M1880.8 1506.05 L1884.55 1506.05 1884.55 1545.0 1880.8 1545.0 1880.8 1506.05" fill="#dfdfdf" fill-rule="evenodd" stroke="none"/>
    <path d="M2220.6 1588.4 L2224.35 1588.4 2224.35 1636.45 2220.6 1636.45 2220.6 1588.4" fill="#dfdfdf" fill-rule="evenodd" stroke="none"/>
    <path d="M2264.4 1386.1 L2296.1 1386.1 2296.1 1389.85 2264.4 1389.85 2264.4 1386.1" fill="#dfdfdf" fill-rule="evenodd" stroke="none"/>
    <path d="M2263.1 1412.45 L2263.1 1386.05 2266.85 1386.05 2266.85 1412.45 2263.1 1412.45" fill="#dfdfdf" fill-rule="evenodd" stroke="none"/>
    <path d="M2266.8 1402.05 L2266.85 1411.7 Q2265.65 1419.85 2276.5 1420.25 L2290.1 1420.25 2290.1 1423.95 2273.65 1423.95 Q2263.1 1423.4 2263.1 1413.7 L2263.1 1402.05 2266.8 1402.05" fill="#dfdfdf" fill-rule="evenodd" stroke="none"/>
    <path d="M2211.55 1385.85 L2215.3 1385.85 2215.3 1412.5 2211.55 1412.5 2211.55 1385.85" fill="#dfdfdf" fill-rule="evenodd" stroke="none"/>
    <path d="M2215.3 1402.05 L2215.3 1413.7 Q2215.3 1423.4 2204.75 1423.95 L2188.3 1423.95 2188.3 1420.25 2201.9 1420.25 Q2212.75 1419.85 2211.55 1411.7 L2211.6 1402.05 2215.3 1402.05" fill="#dfdfdf" fill-rule="evenodd" stroke="none"/>
    <path d="M2215.55 1384.85 L2215.55 1388.6 2182.0 1388.6 2182.0 1384.85 2215.55 1384.85" fill="#dfdfdf" fill-rule="evenodd" stroke="none"/>
    <path d="M2181.3 1278.7 L2185.05 1278.7 2185.05 1387.65 2181.3 1387.65 2181.3 1278.7" fill="#dfdfdf" fill-rule="evenodd" stroke="none"/>
    <path d="M2292.1 1293.75 L2295.85 1293.75 2295.85 1389.9 2292.1 1389.9 2292.1 1293.75" fill="#dfdfdf" fill-rule="evenodd" stroke="none"/>
    <path d="M2247.6 1280.6 L2182.05 1280.6 2182.05 1276.85 2247.6 1276.85 2247.6 1280.6" fill="#dfdfdf" fill-rule="evenodd" stroke="none"/>
    <path d="M2203.25 1200.8 L2144.95 1259.1 2143.8 1257.95 2202.1 1199.65 2203.25 1200.8" fill="#dfdfdf" fill-rule="evenodd" stroke="none"/>
    <path d="M2203.05 1113.05 L2203.05 1201.2 2201.45 1201.2 2201.45 1113.05 2203.05 1113.05" fill="#dfdfdf" fill-rule="evenodd" stroke="none"/>
    <path d="M2237.95 1113.9 L2201.8 1113.9 2201.8 1112.3 2237.95 1112.3 2237.95 1113.9" fill="#dfdfdf" fill-rule="evenodd" stroke="none"/>
    <path d="M2238.05 928.0 L2238.05 1112.25 2236.45 1112.25 2236.45 928.0 2238.05 928.0" fill="#dfdfdf" fill-rule="evenodd" stroke="none"/>
    <path d="M2305.25 927.9 L2236.25 927.9 2236.25 926.3 2305.25 926.3 2305.25 927.9" fill="#dfdfdf" fill-rule="evenodd" stroke="none"/>
    <path d="M2305.65 926.75 L2305.65 1119.8 2304.05 1119.8 2304.05 926.75 2305.65 926.75" fill="#dfdfdf" fill-rule="evenodd" stroke="none"/>
    <path d="M2143.85 1257.5 L2181.5 1257.5 2181.5 1259.1 2143.85 1259.1 2143.85 1257.5" fill="#dfdfdf" fill-rule="evenodd" stroke="none"/>
    <path d="M2182.8 1257.5 L2182.8 1293.65 2181.2 1293.65 2181.2 1257.5 2182.8 1257.5" fill="#dfdfdf" fill-rule="evenodd" stroke="none"/>
    <path d="M2055.6 1103.9 L2114.35 1045.15 2117.0 1047.8 2058.25 1106.55 2055.6 1103.9" fill="#dfdfdf" fill-rule="evenodd" stroke="none"/>
    <path d="M2076.0 1120.7 L2073.35 1123.35 2054.7 1104.7 2057.35 1102.05 2076.0 1120.7" fill="#dfdfdf" fill-rule="evenodd" stroke="none"/>
    <path d="M2066.0 1116.1 L2068.6 1113.5 2075.45 1120.25 Q2080.35 1126.85 2088.35 1119.45 L2097.95 1109.85 2100.55 1112.45 2088.9 1124.1 Q2081.1 1131.2 2074.2 1124.3 L2066.0 1116.1" fill="#dfdfdf" fill-rule="evenodd" stroke="none"/>
    <path d="M2018.1 1141.0 L2020.75 1138.35 2039.6 1157.2 2036.95 1159.85 2018.1 1141.0" fill="#dfdfdf" fill-rule="evenodd" stroke="none"/>
    <path d="M2032.25 1149.85 L2040.45 1158.05 Q2047.35 1164.95 2040.25 1172.75 L2028.6 1184.4 2026.0 1181.8 2035.6 1172.2 Q2043.0 1164.2 2036.4 1159.3 L2029.65 1152.45 2032.25 1149.85" fill="#dfdfdf" fill-rule="evenodd" stroke="none"/>
    <path d="M1999.15 1163.85 L1996.5 1161.2 2020.2 1137.5 2022.85 1140.15 1999.15 1163.85" fill="#dfdfdf" fill-rule="evenodd" stroke="none"/>
    <path d="M1920.95 1086.65 L1923.6 1084.0 2000.6 1161.0 1997.95 1163.65 1920.95 1086.65" fill="#dfdfdf" fill-rule="evenodd" stroke="none"/>
    <path d="M2112.15 952.8 L2115.9 952.8 2115.9 1048.95 2112.15 1048.95 2112.15 952.8" fill="#dfdfdf" fill-rule="evenodd" stroke="none"/>
    <path d="M1925.55 1085.75 L1853.5 1157.8 1850.85 1155.15 1922.9 1083.1 1925.55 1085.75" fill="#dfdfdf" fill-rule="evenodd" stroke="none"/>
    <path d="M1850.9 1104.85 L1854.2 1104.85 1854.2 1154.75 1850.9 1154.75 1850.9 1104.85" fill="#dfdfdf" fill-rule="evenodd" stroke="none"/>
    <path d="M1868.95 981.65 L1911.35 1024.05 1910.2 1025.2 1867.8 982.8 1868.95 981.65" fill="#dfdfdf" fill-rule="evenodd" stroke="none"/>
    <path d="M1868.65 983.15 L1867.5 982.0 1893.05 956.45 1894.2 957.6 1868.65 983.15" fill="#dfdfdf" fill-rule="evenodd" stroke="none"/>
    <path d="M1739.2 988.2 L1439.25 988.2 1439.25 986.6 1739.2 986.6 1739.2 988.2" fill="#dfdfdf" fill-rule="evenodd" stroke="none"/>
    <path d="M1392.35 908.4 L1392.35 941.35 1390.75 941.35 1390.75 908.4 1392.35 908.4" fill="#dfdfdf" fill-rule="evenodd" stroke="none"/>
    <path d="M1774.75 909.6 L1391.0 909.6 1391.0 908.0 1774.75 908.0 1774.75 909.6" fill="#dfdfdf" fill-rule="evenodd" stroke="none"/>
    <path d="M1910.6 1025.2 L1909.45 1024.05 1936.05 997.45 1937.2 998.6 1910.6 1025.2" fill="#dfdfdf" fill-rule="evenodd" stroke="none"/>
    <path d="M1936.95 996.45 L1978.55 1038.05 1977.4 1039.2 1935.8 997.6 1936.95 996.45" fill="#dfdfdf" fill-rule="evenodd" stroke="none"/>
    <path d="M1390.8 937.95 L1391.95 937.95 Q1391.55 955.9 1401.75 969.35 1403.6 971.8 1405.65 973.9 1416.85 985.6 1434.1 987.15 L1441.65 987.1 1441.45 988.1 1433.9 988.2 Q1415.4 986.6 1403.7 973.9 1402.0 972.1 1400.45 970.0 1390.05 956.3 1390.8 937.95" fill="#dfdfdf" fill-rule="evenodd" stroke="none"/>
    <path d="M1720.85 986.8 L1740.9 986.6 Q1789.95 990.85 1820.65 1024.45 1825.15 1029.3 1829.25 1034.75 1856.5 1071.15 1854.05 1119.75 L1851.05 1119.75 Q1852.5 1072.2 1825.7 1036.55 1820.9 1030.05 1815.5 1024.45 1786.0 993.45 1738.45 988.9 L1738.85 989.0 1721.2 988.05 1720.85 986.8" fill="#dfdfdf" fill-rule="evenodd" stroke="none"/>
    <path d="M2032.85 985.5 L1978.1 1040.25 1976.95 1039.1 2031.7 984.35 2032.85 985.5" fill="#dfdfdf" fill-rule="evenodd" stroke="none"/>
    <path d="M1715.35 1113.15 L1715.35 1116.9 1600.05 1116.9 1600.05 1113.15 1715.35 1113.15" fill="#dfdfdf" fill-rule="evenodd" stroke="none"/>
    <path d="M1598.75 1090.55 L1602.5 1090.55 1602.5 1116.95 1598.75 1116.95 1598.75 1090.55" fill="#dfdfdf" fill-rule="evenodd" stroke="none"/>
    <path d="M1625.75 1082.75 L1612.15 1082.75 Q1601.3 1083.15 1602.5 1091.3 L1602.45 1100.95 1598.75 1100.95 1598.75 1089.3 Q1598.75 1079.6 1609.3 1079.05 L1625.75 1079.05 1625.75 1082.75" fill="#dfdfdf" fill-rule="evenodd" stroke="none"/>
    <path d="M1550.95 1117.15 L1547.2 1117.15 1547.2 1090.5 1550.95 1090.5 1550.95 1117.15" fill="#dfdfdf" fill-rule="evenodd" stroke="none"/>
    <path d="M1523.95 1082.75 L1523.95 1079.05 1540.4 1079.05 Q1550.95 1079.6 1550.95 1089.3 L1550.95 1100.95 1547.25 1100.95 1547.2 1091.3 Q1548.4 1083.15 1537.55 1082.75 L1523.95 1082.75" fill="#dfdfdf" fill-rule="evenodd" stroke="none"/>
    <path d="M1517.65 1118.15 L1517.65 1114.4 1551.2 1114.4 1551.2 1118.15 1517.65 1118.15" fill="#dfdfdf" fill-rule="evenodd" stroke="none"/>
    <path d="M1520.7 1115.45 L1520.7 1326.8 1516.95 1326.8 1516.95 1115.45 1520.7 1115.45" fill="#dfdfdf" fill-rule="evenodd" stroke="none"/>
    <path d="M1717.9 1113.1 L1717.9 1209.25 1714.15 1209.25 1714.15 1113.1 1717.9 1113.1" fill="#dfdfdf" fill-rule="evenodd" stroke="none"/>
    <path d="M1517.75 1330.15 L1517.75 1326.4 1622.65 1326.4 1622.65 1330.15 1517.75 1330.15" fill="#dfdfdf" fill-rule="evenodd" stroke="none"/>
    <path d="M1387.1 1165.7 L1388.25 1164.55 1520.6 1296.9 1519.45 1298.05 1387.1 1165.7" fill="#dfdfdf" fill-rule="evenodd" stroke="none"/>
    <path d="M1461.65 1185.5 L1462.8 1184.35 1494.75 1216.3 1493.6 1217.45 1461.65 1185.5" fill="#dfdfdf" fill-rule="evenodd" stroke="none"/>
    <path d="M1518.95 1191.7 L1520.1 1192.85 1494.55 1218.4 1493.4 1217.25 1518.95 1191.7" fill="#dfdfdf" fill-rule="evenodd" stroke="none"/>
    <path d="M1439.55 1112.55 L1440.7 1113.7 1388.25 1166.15 1387.1 1165.0 1439.55 1112.55" fill="#dfdfdf" fill-rule="evenodd" stroke="none"/>
    <path d="M1439.65 1112.5 L1446.45 1119.3 1445.3 1120.45 1438.5 1113.65 1439.65 1112.5" fill="#dfdfdf" fill-rule="evenodd" stroke="none"/>
    <path d="M1656.65 1757.25 L1558.55 1855.35 1555.9 1852.7 1654.0 1754.6 1656.65 1757.25" fill="#dfdfdf" fill-rule="evenodd" stroke="none"/>
    <path d="M1573.65 1872.15 L1555.0 1853.5 1557.65 1850.85 1576.3 1869.5 1573.65 1872.15" fill="#dfdfdf" fill-rule="evenodd" stroke="none"/>
    <path d="M1568.9 1862.3 L1575.75 1869.05 Q1580.65 1875.65 1588.65 1868.25 L1598.25 1858.65 1600.85 1861.25 1589.2 1872.9 Q1581.4 1880.0 1574.5 1873.1 L1566.3 1864.9 1568.9 1862.3" fill="#dfdfdf" fill-rule="evenodd" stroke="none"/>
    <path d="M1537.25 1908.65 L1518.4 1889.8 1521.05 1887.15 1539.9 1906.0 1537.25 1908.65" fill="#dfdfdf" fill-rule="evenodd" stroke="none"/>
    <path d="M1529.95 1901.25 L1532.55 1898.65 1540.75 1906.85 Q1547.65 1913.75 1540.55 1921.55 L1528.9 1933.2 1526.3 1930.6 1535.9 1921.0 Q1543.3 1913.0 1536.7 1908.1 L1529.95 1901.25" fill="#dfdfdf" fill-rule="evenodd" stroke="none"/>
    <path d="M1523.15 1888.95 L1430.55 1981.55 1427.9 1978.9 1520.5 1886.3 1523.15 1888.95" fill="#dfdfdf" fill-rule="evenodd" stroke="none"/>
    <path d="M1351.15 1906.2 L1353.8 1903.55 1430.8 1980.55 1428.15 1983.2 1351.15 1906.2" fill="#dfdfdf" fill-rule="evenodd" stroke="none"/>
    <path d="M1194.55 1833.25 L1194.55 1831.85 1296.9 1831.85 1296.9 1833.25 1194.55 1833.25" fill="#dfdfdf" fill-rule="evenodd" stroke="none"/>
    <path d="M1653.4 1758.35 L1443.45 1758.35 1443.45 1754.6 1653.4 1754.6 1653.4 1758.35" fill="#dfdfdf" fill-rule="evenodd" stroke="none"/>
    <path d="M1128.1 1903.55 L1354.45 1903.55 1354.45 1907.3 1128.1 1907.3 1128.1 1903.55" fill="#dfdfdf" fill-rule="evenodd" stroke="none"/>
    <path d="M1130.65 1776.35 L1130.65 1824.75 1126.9 1824.75 1126.9 1776.35 1130.65 1776.35 M1126.9 1907.3 L1126.9 1881.4 1130.65 1881.4 1130.65 1907.3 1126.9 1907.3" fill="#dfdfdf" fill-rule="evenodd" stroke="none"/>
    <path d="M1435.0 1847.5 L1435.0 1848.9 1296.95 1848.9 1296.95 1847.5 1435.0 1847.5" fill="#dfdfdf" fill-rule="evenodd" stroke="none"/>
    <path d="M1193.15 1831.8 L1194.55 1831.8 1194.55 1906.2 1193.15 1906.2 1193.15 1831.8" fill="#dfdfdf" fill-rule="evenodd" stroke="none"/>
    <path d="M1296.9 1848.95 L1296.9 1831.85 1298.3 1831.85 1298.3 1848.95 1296.9 1848.95" fill="#dfdfdf" fill-rule="evenodd" stroke="none"/>
    <path d="M1434.2 1849.05 L1434.2 1831.95 1435.6 1831.95 1435.6 1849.05 1434.2 1849.05" fill="#dfdfdf" fill-rule="evenodd" stroke="none"/>
    <path d="M1413.3 2001.25 L1354.55 2060.0 1351.9 2057.35 1410.65 1998.6 1413.3 2001.25" fill="#dfdfdf" fill-rule="evenodd" stroke="none"/>
    <path d="M1369.65 2076.8 L1351.0 2058.15 1353.65 2055.5 1372.3 2074.15 1369.65 2076.8" fill="#dfdfdf" fill-rule="evenodd" stroke="none"/>
    <path d="M1394.25 2063.3 L1396.85 2065.9 1385.2 2077.55 Q1377.4 2084.65 1370.5 2077.75 L1362.3 2069.55 1364.9 2066.95 1371.75 2073.7 Q1376.65 2080.3 1384.65 2072.9 L1394.25 2063.3" fill="#dfdfdf" fill-rule="evenodd" stroke="none"/>
    <path d="M1317.05 2091.8 L1335.9 2110.65 1333.25 2113.3 1314.4 2094.45 1317.05 2091.8" fill="#dfdfdf" fill-rule="evenodd" stroke="none"/>
    <path d="M1336.55 2126.2 L1324.9 2137.85 1322.3 2135.25 1331.9 2125.65 Q1339.3 2117.65 1332.7 2112.75 L1325.95 2105.9 1328.55 2103.3 1336.75 2111.5 Q1343.65 2118.4 1336.55 2126.2" fill="#dfdfdf" fill-rule="evenodd" stroke="none"/>
    <path d="M1278.5 2128.95 L1316.5 2090.95 1319.15 2093.6 1281.15 2131.6 1278.5 2128.95" fill="#dfdfdf" fill-rule="evenodd" stroke="none"/>
    <path d="M1202.95 2053.8 L1205.6 2051.15 1282.6 2128.15 1279.95 2130.8 1202.95 2053.8" fill="#dfdfdf" fill-rule="evenodd" stroke="none"/>
    <path d="M1333.85 1924.35 L1336.5 1921.7 1414.85 2000.05 1412.2 2002.7 1333.85 1924.35" fill="#dfdfdf" fill-rule="evenodd" stroke="none"/>
    <path d="M1207.8 2053.25 L1149.7 2111.35 1147.05 2108.7 1205.15 2050.6 1207.8 2053.25" fill="#dfdfdf" fill-rule="evenodd" stroke="none"/>
    <path d="M1147.2 2058.3 L1150.5 2058.3 1150.5 2108.2 1147.2 2108.2 1147.2 2058.3" fill="#dfdfdf" fill-rule="evenodd" stroke="none"/>
    <path d="M1235.7 1921.6 L1261.15 1947.05 1260.0 1948.2 1234.55 1922.75 1235.7 1921.6" fill="#dfdfdf" fill-rule="evenodd" stroke="none"/>
    <path d="M1107.0 1921.95 L1236.15 1921.95 1236.15 1923.55 1107.0 1923.55 1107.0 1921.95" fill="#dfdfdf" fill-rule="evenodd" stroke="none"/>
    <path d="M1260.45 1947.9 L1259.3 1946.75 1273.1 1932.95 1274.25 1934.1 1260.45 1947.9" fill="#dfdfdf" fill-rule="evenodd" stroke="none"/>
    <path d="M1273.45 1933.5 L1299.85 1959.9 1298.7 1961.05 1272.3 1934.65 1273.45 1933.5" fill="#dfdfdf" fill-rule="evenodd" stroke="none"/>
    <path d="M1335.8 1923.85 L1298.95 1960.7 1298.25 1960.0 1335.1 1923.15 1335.8 1923.85" fill="#dfdfdf" fill-rule="evenodd" stroke="none"/>
    <path d="M1107.6 1922.2 L1107.6 1958.15 1106.0 1958.15 1106.0 1922.2 1107.6 1922.2" fill="#dfdfdf" fill-rule="evenodd" stroke="none"/>
    <path d="M2008.25 1754.2 L1903.7 1858.85 1901.05 1856.2 2002.9 1754.3 2008.25 1754.2" fill="#dfdfdf" fill-rule="evenodd" stroke="none"/>
    <path d="M1904.3 1854.6 L1922.95 1873.25 1920.3 1875.9 1901.65 1857.25 1904.3 1854.6" fill="#dfdfdf" fill-rule="evenodd" stroke="none"/>
    <path d="M1944.9 1862.4 L1947.5 1865.0 1935.85 1876.65 Q1928.05 1883.75 1921.15 1876.85 L1912.95 1868.65 1915.55 1866.05 1922.4 1872.8 Q1927.3 1879.4 1935.3 1872.0 L1944.9 1862.4" fill="#dfdfdf" fill-rule="evenodd" stroke="none"/>
    <path d="M1616.8 2086.05 L1563.45 2139.4 1562.5 2138.45 1615.85 2085.1 1616.8 2086.05" fill="#dfdfdf" fill-rule="evenodd" stroke="none"/>
    <path d="M1563.75 2137.5 L1597.45 2171.2 1596.35 2172.3 1562.65 2138.6 1563.75 2137.5" fill="#dfdfdf" fill-rule="evenodd" stroke="none"/>
    <path d="M1595.8 2171.75 L1649.15 2118.4 1650.05 2119.3 1596.7 2172.65 1595.8 2171.75" fill="#dfdfdf" fill-rule="evenodd" stroke="none"/>
    <path d="M1615.8 2085.05 L1650.05 2119.3 1648.95 2120.4 1614.7 2086.15 1615.8 2085.05" fill="#dfdfdf" fill-rule="evenodd" stroke="none"/>
    <path d="M1867.7 1890.9 L1886.55 1909.75 1883.9 1912.4 1865.05 1893.55 1867.7 1890.9" fill="#dfdfdf" fill-rule="evenodd" stroke="none"/>
    <path d="M1876.6 1905.0 L1879.2 1902.4 1887.4 1910.6 Q1894.3 1917.5 1887.2 1925.3 L1875.55 1936.95 1872.95 1934.35 1882.55 1924.75 Q1889.95 1916.75 1883.35 1911.85 L1876.6 1905.0" fill="#dfdfdf" fill-rule="evenodd" stroke="none"/>
    <path d="M1869.9 1892.6 L1661.6 2100.9 1658.95 2098.25 1867.25 1889.95 1869.9 1892.6" fill="#dfdfdf" fill-rule="evenodd" stroke="none"/>
    <path d="M2004.25 1754.25 L2004.25 1758.0 1893.45 1758.0 1893.45 1754.25 2004.25 1754.25" fill="#dfdfdf" fill-rule="evenodd" stroke="none"/>
    <path d="M1895.6 1756.95 L1857.55 1795.0 1854.9 1792.35 1892.95 1754.3 1895.6 1756.95" fill="#dfdfdf" fill-rule="evenodd" stroke="none"/>
    <path d="M1832.0 1766.65 L1750.0 1848.65 1748.85 1847.5 1830.85 1765.5 1832.0 1766.65" fill="#dfdfdf" fill-rule="evenodd" stroke="none"/>
    <path d="M1831.1 1766.15 L1857.5 1792.55 1856.35 1793.7 1829.95 1767.3 1831.1 1766.15" fill="#dfdfdf" fill-rule="evenodd" stroke="none"/>
    <path d="M1606.4 2044.3 L1661.85 2099.75 1660.7 2100.9 1605.25 2045.45 1606.4 2044.3" fill="#dfdfdf" fill-rule="evenodd" stroke="none"/>
    <path d="M1605.35 2045.4 L1632.8 2017.95 1633.95 2019.1 1606.5 2046.55 1605.35 2045.4" fill="#dfdfdf" fill-rule="evenodd" stroke="none"/>
    <path d="M1854.05 2083.1 L1752.2 2185.0 1746.85 2185.1 1851.4 2080.45 1854.05 2083.1" fill="#dfdfdf" fill-rule="evenodd" stroke="none"/>
    <path d="M1832.15 2066.05 L1834.8 2063.4 1853.45 2082.05 1850.8 2084.7 1832.15 2066.05" fill="#dfdfdf" fill-rule="evenodd" stroke="none"/>
    <path d="M1810.2 2076.9 L1807.6 2074.3 1819.25 2062.65 Q1827.05 2055.55 1833.95 2062.45 L1842.15 2070.65 1839.55 2073.25 1832.7 2066.5 Q1827.8 2059.9 1819.8 2067.3 L1810.2 2076.9" fill="#dfdfdf" fill-rule="evenodd" stroke="none"/>
    <path d="M1887.4 2048.4 L1868.55 2029.55 1871.2 2026.9 1890.05 2045.75 1887.4 2048.4" fill="#dfdfdf" fill-rule="evenodd" stroke="none"/>
    <path d="M1871.75 2027.45 L1878.5 2034.3 1875.9 2036.9 1867.7 2028.7 Q1860.8 2021.8 1867.9 2014.0 L1879.55 2002.35 1882.15 2004.95 1872.55 2014.55 Q1865.15 2022.55 1871.75 2027.45" fill="#dfdfdf" fill-rule="evenodd" stroke="none"/>
    <path d="M2096.1 1841.1 L1887.8 2049.4 1885.15 2046.75 2093.45 1838.45 2096.1 1841.1" fill="#dfdfdf" fill-rule="evenodd" stroke="none"/>
    <path d="M1750.85 2185.05 L1750.85 2181.3 1861.65 2181.3 1861.65 2185.05 1750.85 2185.05" fill="#dfdfdf" fill-rule="evenodd" stroke="none"/>
    <path d="M1900.2 2146.95 L1862.15 2185.0 1859.5 2182.35 1897.55 2144.3 1900.2 2146.95" fill="#dfdfdf" fill-rule="evenodd" stroke="none"/>
    <path d="M1986.5 2085.95 L1912.25 2160.2 1911.1 2159.05 1985.35 2084.8 1986.5 2085.95" fill="#dfdfdf" fill-rule="evenodd" stroke="none"/>
    <path d="M1898.75 2145.6 L1912.5 2159.35 1911.35 2160.5 1897.6 2146.75 1898.75 2145.6" fill="#dfdfdf" fill-rule="evenodd" stroke="none"/>
    <path d="M2094.4 1838.4 L2133.05 1877.05 2132.3 1878.2 2093.25 1839.55 2094.4 1838.4" fill="#dfdfdf" fill-rule="evenodd" stroke="none"/>
    <path d="M2082.9 1927.4 L2082.9 1925.1 2132.0 1876.0 2133.15 1877.15 2082.9 1927.4" fill="#dfdfdf" fill-rule="evenodd" stroke="none"/>
    <path d="M2139.4 1999.6 L2083.2 1999.65 2083.2 1995.85 2139.4 1995.9 2139.4 1999.6" fill="#dfdfdf" fill-rule="evenodd" stroke="none"/>
    <path d="M2139.3 2087.6 L1985.1 2087.65 1985.1 2083.85 2139.3 2083.9 2139.3 2087.6" fill="#dfdfdf" fill-rule="evenodd" stroke="none"/>
    <path d="M2139.4 1995.85 L2139.35 2085.4 2135.65 2085.4 2135.6 1995.85 2139.4 1995.85" fill="#dfdfdf" fill-rule="evenodd" stroke="none"/>
    <path d="M2082.9 1924.8 L2084.5 1924.8 2084.5 1999.65 2082.9 1999.65 2082.9 1924.8" fill="#dfdfdf" fill-rule="evenodd" stroke="none"/>
    <path d="M561.65 1887.55 L561.65 2205.35 557.9 2205.35 557.9 1887.55 561.65 1887.55" fill="#dfdfdf" fill-rule="evenodd" stroke="none"/>
    <path d="M508.3 2115.8 L508.3 2206.05 504.55 2206.05 504.55 2115.8 508.3 2115.8" fill="#dfdfdf" fill-rule="evenodd" stroke="none"/>
    <path d="M494.15 2117.15 L495.55 2117.15 495.55 2195.25 494.15 2195.25 494.15 2117.15" fill="#dfdfdf" fill-rule="evenodd" stroke="none"/>
    <path d="M342.55 1889.4 L342.55 1885.65 561.5 1885.65 561.5 1889.4 342.55 1889.4" fill="#dfdfdf" fill-rule="evenodd" stroke="none"/>
    <path d="M507.55 2114.7 L507.55 2118.45 449.15 2118.45 449.15 2114.7 507.55 2114.7" fill="#dfdfdf" fill-rule="evenodd" stroke="none"/>
    <path d="M307.35 2034.75 L307.35 2031.0 402.75 2031.0 402.75 2034.75 307.35 2034.75" fill="#dfdfdf" fill-rule="evenodd" stroke="none"/>
    <path d="M305.65 1897.1 L309.4 1897.1 309.4 2034.4 305.65 2034.4 305.65 1897.1" fill="#dfdfdf" fill-rule="evenodd" stroke="none"/>
    <path d="M347.2 1889.35 L319.05 1889.35 Q308.2 1889.75 309.4 1897.9 L309.35 1907.55 305.65 1907.55 305.65 1895.9 Q305.65 1886.2 316.2 1885.65 L347.2 1885.65 347.2 1889.35" fill="#dfdfdf" fill-rule="evenodd" stroke="none"/>
    <path d="M342.85 2033.95 L344.25 2033.95 344.25 2163.7 342.85 2163.7 342.85 2033.95" fill="#dfdfdf" fill-rule="evenodd" stroke="none"/>
    <path d="M344.35 2162.2 L363.1 2162.2 363.1 2163.6 344.35 2163.6 344.35 2162.2" fill="#dfdfdf" fill-rule="evenodd" stroke="none"/>
    <path d="M575.0 1887.25 L578.75 1887.25 578.75 2205.05 575.0 2205.05 575.0 1887.25" fill="#dfdfdf" fill-rule="evenodd" stroke="none"/>
    <path d="M628.35 2061.25 L632.1 2061.25 632.1 2205.75 628.35 2205.75 628.35 2061.25" fill="#dfdfdf" fill-rule="evenodd" stroke="none"/>
    <path d="M642.5 2019.9 L642.5 2196.25 641.1 2196.25 641.1 2019.9 642.5 2019.9" fill="#dfdfdf" fill-rule="evenodd" stroke="none"/>
    <path d="M761.3 1897.6 Q762.5 1889.45 751.65 1889.05 L748.85 1889.05 748.85 1885.35 754.5 1885.35 Q765.05 1885.9 765.05 1895.6 L765.05 1907.25 761.35 1907.25 761.3 1897.6" fill="#dfdfdf" fill-rule="evenodd" stroke="none"/>
    <path d="M749.25 1889.1 L575.2 1889.1 575.2 1885.35 749.25 1885.35 749.25 1889.1" fill="#dfdfdf" fill-rule="evenodd" stroke="none"/>
    <path d="M670.3 2064.6 L629.1 2064.6 629.1 2060.85 670.3 2060.85 670.3 2064.6" fill="#dfdfdf" fill-rule="evenodd" stroke="none"/>
    <path d="M670.4 2061.1 L670.4 2103.8 669.0 2103.8 669.0 2061.1 670.4 2061.1" fill="#dfdfdf" fill-rule="evenodd" stroke="none"/>
    <path d="M832.5 2103.8 L669.05 2103.8 669.05 2102.4 832.5 2102.4 832.5 2103.8" fill="#dfdfdf" fill-rule="evenodd" stroke="none"/>
    <path d="M878.7 1907.0 L878.7 2021.25 874.95 2021.25 874.95 1907.0 878.7 1907.0" fill="#dfdfdf" fill-rule="evenodd" stroke="none"/>
    <path d="M877.1 2021.25 L641.0 2021.25 641.0 2019.85 877.1 2019.85 877.1 2021.25" fill="#dfdfdf" fill-rule="evenodd" stroke="none"/>
    <path d="M762.1 1905.85 L877.95 1905.85 877.95 1907.25 762.1 1907.25 762.1 1905.85" fill="#dfdfdf" fill-rule="evenodd" stroke="none"/>
    <path d="M890.4 1906.35 L890.4 2046.45 889.0 2046.45 889.0 1906.35 890.4 1906.35" fill="#dfdfdf" fill-rule="evenodd" stroke="none"/>
    <path d="M871.5 1907.25 L871.5 1905.85 890.3 1905.85 890.3 1907.25 871.5 1907.25" fill="#dfdfdf" fill-rule="evenodd" stroke="none"/>
    <path d="M1669.8 2368.6 L1669.8 2364.85 1742.6 2364.85 1742.6 2368.6 1669.8 2368.6" fill="#dfdfdf" fill-rule="evenodd" stroke="none"/>
    <path d="M1668.5 2342.25 L1672.25 2342.25 1672.25 2368.65 1668.5 2368.65 1668.5 2342.25" fill="#dfdfdf" fill-rule="evenodd" stroke="none"/>
    <path d="M1668.5 2352.65 L1668.5 2341.0 Q1668.5 2331.3 1679.05 2330.75 L1695.5 2330.75 1695.5 2334.45 1681.9 2334.45 Q1671.05 2334.85 1672.25 2343.0 L1672.2 2352.65 1668.5 2352.65" fill="#dfdfdf" fill-rule="evenodd" stroke="none"/>
    <path d="M1616.95 2343.0 Q1618.15 2334.85 1607.3 2334.45 L1593.7 2334.45 1593.7 2330.75 1610.15 2330.75 Q1620.7 2331.3 1620.7 2341.0 L1620.7 2352.65 1617.0 2352.65 1616.95 2343.0" fill="#dfdfdf" fill-rule="evenodd" stroke="none"/>
    <path d="M1620.7 2347.2 L1620.7 2597.2 1616.95 2597.2 1616.95 2347.2 1620.7 2347.2" fill="#dfdfdf" fill-rule="evenodd" stroke="none"/>
    <path d="M1746.35 2365.15 L1746.35 2436.55 1742.6 2436.55 1742.6 2365.15 1746.35 2365.15" fill="#dfdfdf" fill-rule="evenodd" stroke="none"/>
    <path d="M1811.7 2596.85 L1811.7 2600.6 1616.8 2600.6 1616.8 2596.85 1811.7 2596.85" fill="#dfdfdf" fill-rule="evenodd" stroke="none"/>
    <path d="M1754.4 2644.15 L1754.4 2642.55 1851.65 2642.55 1851.65 2644.15 1754.4 2644.15" fill="#dfdfdf" fill-rule="evenodd" stroke="none"/>
    <path d="M1571.75 2366.75 L1571.75 2365.15 1616.95 2365.15 1616.95 2366.75 1571.75 2366.75" fill="#dfdfdf" fill-rule="evenodd" stroke="none"/>
    <path d="M1647.55 2674.8 L1647.55 2673.2 1755.75 2673.2 1755.75 2674.8 1647.55 2674.8" fill="#dfdfdf" fill-rule="evenodd" stroke="none"/>
    <path d="M1645.9 2600.6 L1647.5 2600.6 1647.5 2674.8 1645.9 2674.8 1645.9 2600.6" fill="#dfdfdf" fill-rule="evenodd" stroke="none"/>
    <path d="M1509.4 2364.2 L1516.2 2371.0 1515.05 2372.15 1508.25 2365.35 1509.4 2364.2" fill="#dfdfdf" fill-rule="evenodd" stroke="none"/>
    <path d="M1815.25 2436.55 L1815.25 2440.3 1742.45 2440.3 1742.45 2436.55 1815.25 2436.55" fill="#dfdfdf" fill-rule="evenodd" stroke="none"/>
    <path d="M1850.0 2604.7 L1851.6 2604.7 1851.6 2642.35 1850.0 2642.35 1850.0 2604.7" fill="#dfdfdf" fill-rule="evenodd" stroke="none"/>
    <path d="M1754.35 2644.15 L1755.95 2644.15 1755.95 2674.9 1754.35 2674.9 1754.35 2644.15" fill="#dfdfdf" fill-rule="evenodd" stroke="none"/>
    <path d="M1619.75 2462.8 L1608.25 2462.8 1608.25 2461.2 1619.75 2461.2 1619.75 2462.8 M1549.95 2461.2 L1549.95 2462.8 1511.55 2462.8 1511.55 2461.2 1549.95 2461.2" fill="#dfdfdf" fill-rule="evenodd" stroke="none"/>
    <path d="M1509.9 2388.6 L1511.5 2388.6 1511.5 2462.8 1509.9 2462.8 1509.9 2388.6" fill="#dfdfdf" fill-rule="evenodd" stroke="none"/>
    <path d="M2149.35 2368.6 L2149.35 2364.85 2222.15 2364.85 2222.15 2368.6 2149.35 2368.6" fill="#dfdfdf" fill-rule="evenodd" stroke="none"/>
    <path d="M2148.05 2342.25 L2151.8 2342.25 2151.8 2368.65 2148.05 2368.65 2148.05 2342.25" fill="#dfdfdf" fill-rule="evenodd" stroke="none"/>
    <path d="M2148.05 2352.65 L2148.05 2341.0 Q2148.05 2331.3 2158.6 2330.75 L2175.05 2330.75 2175.05 2334.45 2161.45 2334.45 Q2150.6 2334.85 2151.8 2343.0 L2151.75 2352.65 2148.05 2352.65" fill="#dfdfdf" fill-rule="evenodd" stroke="none"/>
    <path d="M2100.25 2352.65 L2096.55 2352.65 2096.5 2343.0 Q2097.7 2334.85 2086.85 2334.45 L2073.25 2334.45 2073.25 2330.75 2089.7 2330.75 Q2100.25 2331.3 2100.25 2341.0 L2100.25 2352.65" fill="#dfdfdf" fill-rule="evenodd" stroke="none"/>
    <path d="M2061.15 2367.95 L2061.15 2600.55 2057.4 2600.55 2057.4 2367.95 2061.15 2367.95" fill="#dfdfdf" fill-rule="evenodd" stroke="none"/>
    <path d="M2225.9 2365.15 L2225.9 2436.55 2222.15 2436.55 2222.15 2365.15 2225.9 2365.15" fill="#dfdfdf" fill-rule="evenodd" stroke="none"/>
    <path d="M2058.4 2600.6 L2058.4 2596.85 2253.3 2596.85 2253.3 2600.6 2058.4 2600.6" fill="#dfdfdf" fill-rule="evenodd" stroke="none"/>
    <path d="M2127.1 2674.8 L2127.1 2673.2 2235.3 2673.2 2235.3 2674.8 2127.1 2674.8" fill="#dfdfdf" fill-rule="evenodd" stroke="none"/>
    <path d="M2125.45 2600.6 L2127.05 2600.6 2127.05 2674.8 2125.45 2674.8 2125.45 2600.6" fill="#dfdfdf" fill-rule="evenodd" stroke="none"/>
    <path d="M2295.95 2434.25 L2295.95 2438.0 2223.15 2438.0 2223.15 2434.25 2295.95 2434.25" fill="#dfdfdf" fill-rule="evenodd" stroke="none"/>
    <path d="M2057.3 2368.6 L2057.3 2364.85 2096.95 2364.85 2096.95 2368.6 2057.3 2368.6" fill="#dfdfdf" fill-rule="evenodd" stroke="none"/>
    <path d="M2096.75 2342.25 L2100.5 2342.25 2100.5 2368.65 2096.75 2368.65 2096.75 2342.25" fill="#dfdfdf" fill-rule="evenodd" stroke="none"/>
    <path d="M502.3 1721.4 L502.3 1766.3 498.55 1766.3 498.55 1721.4 502.3 1721.4" fill="#dfdfdf" fill-rule="evenodd" stroke="none"/>
    <path d="M555.65 1720.7 L555.65 1865.2 551.9 1865.2 551.9 1720.7 555.65 1720.7" fill="#dfdfdf" fill-rule="evenodd" stroke="none"/>
    <path d="M564.65 1732.65 L566.05 1732.65 566.05 1863.75 564.65 1863.75 564.65 1732.65" fill="#dfdfdf" fill-rule="evenodd" stroke="none"/>
    <path d="M593.85 1861.85 L593.85 1865.6 552.65 1865.6 552.65 1861.85 593.85 1861.85" fill="#dfdfdf" fill-rule="evenodd" stroke="none"/>
    <path d="M592.55 1796.1 L593.95 1796.1 593.95 1863.9 592.55 1863.9 592.55 1796.1" fill="#dfdfdf" fill-rule="evenodd" stroke="none"/>
    <path d="M756.05 1796.05 L756.05 1797.45 592.6 1797.45 592.6 1796.05 756.05 1796.05" fill="#dfdfdf" fill-rule="evenodd" stroke="none"/>
    <path d="M755.35 1796.1 L756.75 1796.1 756.75 1863.9 755.35 1863.9 755.35 1796.1" fill="#dfdfdf" fill-rule="evenodd" stroke="none"/>
    <path d="M756.05 1863.5 L756.05 1862.1 868.65 1862.1 868.65 1863.5 756.05 1863.5" fill="#dfdfdf" fill-rule="evenodd" stroke="none"/>
    <path d="M868.9 1837.35 L868.9 1862.65 867.5 1862.65 867.5 1837.35 868.9 1837.35" fill="#dfdfdf" fill-rule="evenodd" stroke="none"/>
    <path d="M890.1 1873.1 L890.1 1874.5 288.85 1874.5 288.85 1873.1 890.1 1873.1" fill="#dfdfdf" fill-rule="evenodd" stroke="none"/>
    <path d="M287.05 1762.85 L290.8 1762.85 290.8 1873.85 287.05 1873.85 287.05 1762.85" fill="#dfdfdf" fill-rule="evenodd" stroke="none"/>
    <path d="M498.9 1762.8 L498.9 1766.55 290.9 1766.55 290.9 1762.8 498.9 1762.8" fill="#dfdfdf" fill-rule="evenodd" stroke="none"/>
    <path d="M890.5 1837.35 L890.5 1873.6 889.1 1873.6 889.1 1837.35 890.5 1837.35" fill="#dfdfdf" fill-rule="evenodd" stroke="none"/>
    <path d="M309.85 2501.65 L313.6 2501.65 313.6 2598.55 309.85 2598.55 309.85 2501.65" fill="#dfdfdf" fill-rule="evenodd" stroke="none"/>
    <path d="M287.25 2599.8 L287.25 2596.05 313.65 2596.05 313.65 2599.8 287.25 2599.8" fill="#dfdfdf" fill-rule="evenodd" stroke="none"/>
    <path d="M279.45 2572.8 L279.45 2586.4 Q279.85 2597.25 288.0 2596.05 L297.65 2596.1 297.65 2599.8 286.0 2599.8 Q276.3 2599.8 275.75 2589.25 L275.75 2572.8 279.45 2572.8" fill="#dfdfdf" fill-rule="evenodd" stroke="none"/>
    <path d="M297.65 2651.3 L288.0 2651.35 Q279.85 2650.15 279.45 2661.0 L279.45 2674.6 275.75 2674.6 275.75 2658.15 Q276.3 2647.6 286.0 2647.6 L297.65 2647.6 297.65 2651.3" fill="#dfdfdf" fill-rule="evenodd" stroke="none"/>
    <path d="M407.6 2651.35 L291.95 2651.35 291.95 2647.6 407.6 2647.6 407.6 2651.35" fill="#dfdfdf" fill-rule="evenodd" stroke="none"/>
    <path d="M381.55 2504.1 L310.15 2504.1 310.15 2500.35 381.55 2500.35 381.55 2504.1" fill="#dfdfdf" fill-rule="evenodd" stroke="none"/>
    <path d="M310.15 2651.35 L311.75 2651.35 311.75 2696.55 310.15 2696.55 310.15 2651.35" fill="#dfdfdf" fill-rule="evenodd" stroke="none"/>
    <path d="M381.55 2431.45 L385.3 2431.45 385.3 2504.25 381.55 2504.25 381.55 2431.45" fill="#dfdfdf" fill-rule="evenodd" stroke="none"/>
    <path d="M341.65 2736.8 L333.6 2736.8 333.6 2735.2 341.65 2735.2 341.65 2736.8" fill="#dfdfdf" fill-rule="evenodd" stroke="none"/>
    <path d="M506.9 2435.25 L381.6 2435.25 381.6 2431.5 506.9 2431.5 506.9 2435.25" fill="#dfdfdf" fill-rule="evenodd" stroke="none"/>
    <path d="M508.0 2431.45 L509.5 2431.45 Q399.25 2568.7 399.25 2752.15 L399.25 2752.4 399.25 2774.2 397.45 2774.2 397.45 2753.85 397.45 2753.6 Q397.45 2569.45 508.0 2431.45" fill="#dfdfdf" fill-rule="evenodd" stroke="none"/>
    <path d="M119.2 2613.65 L119.2 2710.55 115.45 2710.55 115.45 2613.65 119.2 2613.65" fill="#dfdfdf" fill-rule="evenodd" stroke="none"/>
    <path d="M141.8 2708.05 L141.8 2711.8 115.4 2711.8 115.4 2708.05 141.8 2708.05" fill="#dfdfdf" fill-rule="evenodd" stroke="none"/>
    <path d="M131.4 2711.8 L131.4 2708.1 141.05 2708.05 Q149.2 2709.25 149.6 2698.4 L149.6 2684.8 153.3 2684.8 153.3 2701.25 Q152.75 2711.8 143.05 2711.8 L131.4 2711.8" fill="#dfdfdf" fill-rule="evenodd" stroke="none"/>
    <path d="M153.3 2770.15 L153.3 2786.6 149.6 2786.6 149.6 2773.0 Q149.2 2762.15 141.05 2763.35 L131.4 2763.3 131.4 2759.6 143.05 2759.6 Q152.75 2759.6 153.3 2770.15" fill="#dfdfdf" fill-rule="evenodd" stroke="none"/>
    <path d="M-0.6 2763.35 L-0.6 2759.6 137.0 2759.6 137.0 2763.35 -0.6 2763.35" fill="#dfdfdf" fill-rule="evenodd" stroke="none"/>
    <path d="M118.9 2612.35 L118.9 2616.1 47.5 2616.1 47.5 2612.35 118.9 2612.35" fill="#dfdfdf" fill-rule="evenodd" stroke="none"/>
    <path d="M118.9 2763.35 L118.9 2808.55 117.3 2808.55 117.3 2763.35 118.9 2763.35" fill="#dfdfdf" fill-rule="evenodd" stroke="none"/>
    <path d="M47.5 2543.45 L47.5 2616.25 43.75 2616.25 43.75 2543.45 47.5 2543.45" fill="#dfdfdf" fill-rule="evenodd" stroke="none"/>
    <path d="M-5.95 2547.25 L-5.95 2543.5 47.45 2543.5 47.45 2547.25 -5.95 2547.25" fill="#dfdfdf" fill-rule="evenodd" stroke="none"/>
    <path d="M1190.9 1189.3 L1194.65 1189.3 1194.65 1286.2 1190.9 1286.2 1190.9 1189.3" fill="#dfdfdf" fill-rule="evenodd" stroke="none"/>
    <path d="M1195.1 1288.55 L1075.65 1288.55 1075.65 1284.8 1195.1 1284.8 1195.1 1288.55" fill="#dfdfdf" fill-rule="evenodd" stroke="none"/>
    <path d="M1076.4 1284.8 L1086.05 1284.85 1086.05 1288.55 1074.4 1288.55 Q1064.7 1288.55 1064.15 1278.0 L1064.15 1261.55 1067.85 1261.55 1067.85 1275.15 Q1068.25 1286.0 1076.4 1284.8" fill="#dfdfdf" fill-rule="evenodd" stroke="none"/>
    <path d="M1074.4 1336.35 L1086.05 1336.35 1086.05 1340.05 1076.4 1340.1 Q1068.25 1338.9 1067.85 1349.75 L1067.85 1363.35 1064.15 1363.35 1064.15 1346.9 Q1064.7 1336.35 1074.4 1336.35" fill="#dfdfdf" fill-rule="evenodd" stroke="none"/>
    <path d="M1277.5 1340.1 L1080.4 1340.1 1080.4 1336.35 1277.5 1336.35 1277.5 1340.1" fill="#dfdfdf" fill-rule="evenodd" stroke="none"/>
    <path d="M1098.55 990.3 L1169.95 990.3 1169.95 994.05 1098.55 994.05 1098.55 990.3" fill="#dfdfdf" fill-rule="evenodd" stroke="none"/>
    <path d="M1169.95 921.4 L1173.7 921.4 1173.7 994.2 1169.95 994.2 1169.95 921.4" fill="#dfdfdf" fill-rule="evenodd" stroke="none"/>
    <path d="M1170.0 921.45 L1276.9 921.45 1276.9 925.2 1170.0 925.2 1170.0 921.45" fill="#dfdfdf" fill-rule="evenodd" stroke="none"/>
    <path d="M1276.9 921.4 L1278.3 921.4 1278.3 1340.35 1276.9 1340.35 1276.9 921.4" fill="#dfdfdf" fill-rule="evenodd" stroke="none"/>
    <path d="M1190.9 1193.05 L1119.5 1193.05 1119.5 1189.3 1190.9 1189.3 1190.9 1193.05" fill="#dfdfdf" fill-rule="evenodd" stroke="none"/>
    <path d="M1161.45 991.05 L1162.85 991.05 1162.85 1122.1 1161.45 1122.1 1161.45 991.05" fill="#dfdfdf" fill-rule="evenodd" stroke="none"/>
    <path d="M1194.65 1494.8 L1194.65 1591.7 1190.9 1591.7 1190.9 1494.8 1194.65 1494.8" fill="#dfdfdf" fill-rule="evenodd" stroke="none"/>
    <path d="M1075.65 1496.2 L1075.65 1492.45 1195.1 1492.45 1195.1 1496.2 1075.65 1496.2" fill="#dfdfdf" fill-rule="evenodd" stroke="none"/>
    <path d="M1086.05 1492.45 L1086.05 1496.15 1076.4 1496.2 Q1068.25 1495.0 1067.85 1505.85 L1067.85 1519.45 1064.15 1519.45 1064.15 1503.0 Q1064.7 1492.45 1074.4 1492.45 L1086.05 1492.45" fill="#dfdfdf" fill-rule="evenodd" stroke="none"/>
    <path d="M1067.85 1417.65 L1067.85 1431.25 Q1068.25 1442.1 1076.4 1440.9 L1086.05 1440.95 1086.05 1444.65 1074.4 1444.65 Q1064.7 1444.65 1064.15 1434.1 L1064.15 1417.65 1067.85 1417.65" fill="#dfdfdf" fill-rule="evenodd" stroke="none"/>
    <path d="M1080.25 1444.65 L1080.25 1440.9 1095.5 1440.9 1095.5 1444.65 1080.25 1444.65" fill="#dfdfdf" fill-rule="evenodd" stroke="none"/>
    <path d="M1313.3 1639.0 L1313.3 1635.25 1358.2 1635.25 1358.2 1639.0 1313.3 1639.0" fill="#dfdfdf" fill-rule="evenodd" stroke="none"/>
    <path d="M1359.3 1359.3 L1359.3 1638.95 1357.9 1638.95 1357.9 1359.3 1359.3 1359.3" fill="#dfdfdf" fill-rule="evenodd" stroke="none"/>
    <path d="M1358.6 1358.45 L1358.6 1362.2 1093.25 1362.2 1093.25 1358.45 1358.6 1358.45" fill="#dfdfdf" fill-rule="evenodd" stroke="none"/>
    <path d="M1097.2 1358.35 L1097.2 1444.55 1093.45 1444.55 1093.45 1358.35 1097.2 1358.35" fill="#dfdfdf" fill-rule="evenodd" stroke="none"/>
    <path d="M1383.3 1441.55 L1383.5 1660.05 1379.75 1660.05 1379.75 1438.7 1383.3 1441.55" fill="#dfdfdf" fill-rule="evenodd" stroke="none"/>
    <path d="M1379.8 1649.6 L1383.5 1649.6 1383.5 1661.25 Q1383.5 1670.95 1372.95 1671.5 L1356.5 1671.5 1356.5 1667.8 1370.1 1667.8 Q1380.95 1667.4 1379.75 1659.25 L1379.8 1649.6" fill="#dfdfdf" fill-rule="evenodd" stroke="none"/>
    <path d="M1458.3 1667.8 L1458.3 1671.5 1441.85 1671.5 Q1431.3 1670.95 1431.3 1661.25 L1431.3 1649.6 1435.0 1649.6 1435.05 1659.25 Q1433.85 1667.4 1444.7 1667.8 L1458.3 1667.8" fill="#dfdfdf" fill-rule="evenodd" stroke="none"/>
    <path d="M1431.3 1640.15 L1435.05 1640.15 1435.05 1655.4 1431.3 1655.4 1431.3 1640.15" fill="#dfdfdf" fill-rule="evenodd" stroke="none"/>
    <path d="M1660.25 1638.45 L1660.25 1642.2 1431.3 1642.2 1431.3 1638.45 1660.25 1638.45" fill="#dfdfdf" fill-rule="evenodd" stroke="none"/>
    <path d="M1423.25 1394.9 Q1545.0 1506.8 1713.65 1506.8 L1713.85 1506.8 1732.0 1506.8 1732.0 1508.25 1715.1 1508.25 1714.8 1508.25 Q1545.6 1508.25 1423.25 1396.3 1418.65 1392.45 1419.45 1392.65 L1420.0 1391.9 1423.25 1394.9" fill="#dfdfdf" fill-rule="evenodd" stroke="none"/>
    <path d="M1420.9 1392.85 L1417.6 1396.15 1416.5 1395.05 1419.8 1391.75 1420.9 1392.85" fill="#dfdfdf" fill-rule="evenodd" stroke="none"/>
    <path d="M1757.2 513.45 L1698.45 454.7 1701.1 452.05 1759.85 510.8 1757.2 513.45" fill="#dfdfdf" fill-rule="evenodd" stroke="none"/>
    <path d="M1681.65 469.8 L1700.3 451.15 1702.95 453.8 1684.3 472.45 1681.65 469.8" fill="#dfdfdf" fill-rule="evenodd" stroke="none"/>
    <path d="M1680.9 485.35 Q1673.8 477.55 1680.7 470.65 L1688.9 462.45 1691.5 465.05 1684.75 471.9 Q1678.15 476.8 1685.55 484.8 L1695.15 494.4 1692.55 497.0 1680.9 485.35" fill="#dfdfdf" fill-rule="evenodd" stroke="none"/>
    <path d="M1664.0 414.55 L1666.65 417.2 1647.8 436.05 1645.15 433.4 1664.0 414.55" fill="#dfdfdf" fill-rule="evenodd" stroke="none"/>
    <path d="M1655.15 428.7 L1646.95 436.9 Q1640.05 443.8 1632.25 436.7 L1620.6 425.05 1623.2 422.45 1632.8 432.05 Q1640.8 439.45 1645.7 432.85 L1652.55 426.1 1655.15 428.7" fill="#dfdfdf" fill-rule="evenodd" stroke="none"/>
    <path d="M1643.8 392.95 L1667.5 416.65 1664.85 419.3 1641.15 395.6 1643.8 392.95" fill="#dfdfdf" fill-rule="evenodd" stroke="none"/>
    <path d="M1698.2 337.55 L1700.85 340.2 1644.05 397.0 1641.4 394.35 1698.2 337.55" fill="#dfdfdf" fill-rule="evenodd" stroke="none"/>
    <path d="M1950.7 508.6 L1950.7 512.35 1755.8 512.35 1755.8 508.6 1950.7 508.6" fill="#dfdfdf" fill-rule="evenodd" stroke="none"/>
    <path d="M2017.3 353.05 L2064.8 400.55 2062.15 403.2 2014.65 355.7 2017.3 353.05" fill="#dfdfdf" fill-rule="evenodd" stroke="none"/>
    <path d="M2051.2 309.1 L2093.55 351.45 2092.4 352.6 2050.05 310.25 2051.2 309.1" fill="#dfdfdf" fill-rule="evenodd" stroke="none"/>
    <path d="M2051.75 392.75 L2093.35 351.15 2094.5 352.3 2052.9 393.9 2051.75 392.75" fill="#dfdfdf" fill-rule="evenodd" stroke="none"/>
    <path d="M1640.9 280.35 L1698.1 337.55 1696.95 338.7 1639.75 281.5 1640.9 280.35" fill="#dfdfdf" fill-rule="evenodd" stroke="none"/>
    <path d="M1736.2 279.1 L1736.2 282.85 1640.05 282.85 1640.05 279.1 1736.2 279.1" fill="#dfdfdf" fill-rule="evenodd" stroke="none"/>
    <path d="M2062.6 402.4 L1952.3 512.7 1947.0 512.7 2059.95 399.75 2062.6 402.4" fill="#dfdfdf" fill-rule="evenodd" stroke="none"/>
    <path d="M2028.65 329.2 L2048.55 309.3 2051.1 309.3 2029.95 330.45 2028.65 329.2" fill="#dfdfdf" fill-rule="evenodd" stroke="none"/>
  </g>
</svg>
