<?xml version="1.0" encoding="UTF-8" standalone="no"?>
<svg xmlns:xlink="http://www.w3.org/1999/xlink" height="205.0px" width="904.65px" xmlns="http://www.w3.org/2000/svg">
  <g transform="matrix(1, 0, 0, 1, -1383.55, -634.4)">
    <path d="M2284.1 805.3 L2201.05 805.3 2201.05 801.55 2284.1 801.55 2284.1 805.3" fill="#dfdfdf" fill-rule="evenodd" stroke="none"/>
    <path d="M2199.8 827.85 L2199.8 801.45 2203.55 801.45 2203.55 827.85 2199.8 827.85" fill="#dfdfdf" fill-rule="evenodd" stroke="none"/>
    <path d="M2199.8 817.5 L2203.5 817.5 2203.55 827.15 Q2202.35 835.3 2213.2 835.7 L2226.8 835.7 2226.8 839.4 2210.35 839.4 Q2199.8 838.85 2199.8 829.15 L2199.8 817.5" fill="#dfdfdf" fill-rule="evenodd" stroke="none"/>
    <path d="M2152.0 801.3 L2152.0 827.95 2148.25 827.95 2148.25 801.3 2152.0 801.3" fill="#dfdfdf" fill-rule="evenodd" stroke="none"/>
    <path d="M2148.3 817.5 L2152.0 817.5 2152.0 829.15 Q2152.0 838.85 2141.45 839.4 L2125.0 839.4 2125.0 835.7 2138.6 835.7 Q2149.45 835.3 2148.25 827.15 L2148.3 817.5" fill="#dfdfdf" fill-rule="evenodd" stroke="none"/>
    <path d="M2152.25 804.05 L2032.45 804.05 2032.45 800.3 2152.25 800.3 2152.25 804.05" fill="#dfdfdf" fill-rule="evenodd" stroke="none"/>
    <path d="M2032.45 722.65 L2036.2 722.65 2036.2 802.95 2032.45 802.95 2032.45 722.65" fill="#dfdfdf" fill-rule="evenodd" stroke="none"/>
    <path d="M1959.45 722.75 L2032.4 722.75 2032.4 724.35 1959.45 724.35 1959.45 722.75" fill="#dfdfdf" fill-rule="evenodd" stroke="none"/>
    <path d="M2288.2 652.9 L2288.2 805.55 2284.45 805.55 2284.4 652.9 2288.2 652.9" fill="#dfdfdf" fill-rule="evenodd" stroke="none"/>
    <path d="M2012.65 637.15 L1939.7 637.15 1939.7 635.55 2012.65 635.55 2012.65 637.15" fill="#dfdfdf" fill-rule="evenodd" stroke="none"/>
    <path d="M1481.75 801.55 L1481.75 805.3 1384.85 805.3 1384.85 801.55 1481.75 801.55" fill="#dfdfdf" fill-rule="evenodd" stroke="none"/>
    <path d="M1483.0 827.9 L1479.25 827.9 1479.25 801.5 1483.0 801.5 1483.0 827.9" fill="#dfdfdf" fill-rule="evenodd" stroke="none"/>
    <path d="M1479.3 817.5 L1483.0 817.5 1483.0 829.15 Q1483.0 838.85 1472.45 839.4 L1456.0 839.4 1456.0 835.7 1469.6 835.7 Q1480.45 835.3 1479.25 827.15 L1479.3 817.5" fill="#dfdfdf" fill-rule="evenodd" stroke="none"/>
    <path d="M1557.8 835.7 L1557.8 839.4 1541.35 839.4 Q1530.8 838.85 1530.8 829.15 L1530.8 817.5 1534.5 817.5 1534.55 827.15 Q1533.35 835.3 1544.2 835.7 L1557.8 835.7" fill="#dfdfdf" fill-rule="evenodd" stroke="none"/>
    <path d="M1534.55 720.5 L1534.55 823.1 1530.8 823.1 1530.8 720.5 1534.55 720.5" fill="#dfdfdf" fill-rule="evenodd" stroke="none"/>
    <path d="M1383.55 713.4 L1387.3 713.4 1387.3 804.9 1383.55 804.9 1383.55 713.4" fill="#dfdfdf" fill-rule="evenodd" stroke="none"/>
    <path d="M1534.4 787.25 L1534.4 785.65 1713.4 785.65 1713.4 787.25 1534.4 787.25" fill="#dfdfdf" fill-rule="evenodd" stroke="none"/>
    <path d="M1384.2 718.05 L1383.7 717.55 1383.7 713.25 1462.55 634.4 1465.2 637.05 1384.2 718.05" fill="#dfdfdf" fill-rule="evenodd" stroke="none"/>
    <path d="M1462.35 634.55 L1712.65 634.55 1712.65 638.3 1462.35 638.3 1462.35 634.55" fill="#dfdfdf" fill-rule="evenodd" stroke="none"/>
    <path d="M1710.65 637.45 L1713.3 634.8 1754.6 676.1 1749.3 676.1 1710.65 637.45" fill="#dfdfdf" fill-rule="evenodd" stroke="none"/>
    <path d="M1531.85 722.15 L1531.85 720.55 1681.5 720.55 1681.5 722.15 1531.85 722.15" fill="#dfdfdf" fill-rule="evenodd" stroke="none"/>
    <path d="M1713.4 810.65 L1713.4 812.25 1534.4 812.25 1534.4 810.65 1713.4 810.65" fill="#dfdfdf" fill-rule="evenodd" stroke="none"/>
  </g>
</svg>
