<?xml version="1.0" encoding="UTF-8" standalone="no"?>
<svg xmlns:xlink="http://www.w3.org/1999/xlink" height="2770.4px" width="2035.35px" xmlns="http://www.w3.org/2000/svg">
  <g transform="matrix(1, 0, 0, 1, -255.95, 12.4)">
    <path d="M599.35 734.05 L604.8 734.05 585.7 752.55 582.75 749.8 599.35 734.05" fill="#dfdfdf" fill-rule="evenodd" stroke="none"/>
    <path d="M550.4 713.1 L545.1 713.1 565.85 692.35 565.85 697.65 550.4 713.1" fill="#dfdfdf" fill-rule="evenodd" stroke="none"/>
    <path d="M553.2 692.2 L540.5 704.9 538.5 704.9 552.2 691.2 553.2 692.2" fill="#dfdfdf" fill-rule="evenodd" stroke="none"/>
    <path d="M641.2 806.85 L386.7 806.85 386.7 803.1 641.2 803.1 641.2 806.85" fill="#dfdfdf" fill-rule="evenodd" stroke="none"/>
    <path d="M385.1 547.9 L550.6 713.4 547.95 716.05 382.45 550.55 385.1 547.9" fill="#dfdfdf" fill-rule="evenodd" stroke="none"/>
    <path d="M259.7 585.85 L259.7 723.35 255.95 723.35 255.95 585.85 259.7 585.85" fill="#dfdfdf" fill-rule="evenodd" stroke="none"/>
    <path d="M267.4 548.25 L385.3 548.25 385.3 552.0 267.45 552.0 267.4 548.25" fill="#dfdfdf" fill-rule="evenodd" stroke="none"/>
    <path d="M277.85 548.25 L277.85 551.95 268.2 552.0 Q260.05 550.8 259.65 561.65 L259.65 589.8 255.95 589.8 255.95 558.8 Q256.5 548.25 266.2 548.25 L277.85 548.25" fill="#dfdfdf" fill-rule="evenodd" stroke="none"/>
    <path d="M445.0 283.75 L446.4 283.75 446.4 611.95 445.0 611.95 445.0 283.75" fill="#dfdfdf" fill-rule="evenodd" stroke="none"/>
    <path d="M444.95 283.95 L444.95 285.35 384.05 285.35 384.05 283.95 444.95 283.95" fill="#dfdfdf" fill-rule="evenodd" stroke="none"/>
    <path d="M588.0 749.55 L641.85 803.4 639.2 806.05 585.35 752.2 588.0 749.55" fill="#dfdfdf" fill-rule="evenodd" stroke="none"/>
    <path d="M594.7 759.3 L606.8 747.2 607.8 748.2 595.6 760.4 595.6 759.3 594.7 759.3" fill="#dfdfdf" fill-rule="evenodd" stroke="none"/>
    <path d="M283.8 433.1 L285.2 433.1 285.2 549.7 283.8 549.7 283.8 433.1" fill="#dfdfdf" fill-rule="evenodd" stroke="none"/>
    <path d="M284.55 434.35 L284.55 432.95 345.45 432.95 345.45 434.35 284.55 434.35" fill="#dfdfdf" fill-rule="evenodd" stroke="none"/>
    <path d="M320.55 806.05 L320.55 807.45 269.05 807.45 269.05 806.05 320.55 806.05" fill="#dfdfdf" fill-rule="evenodd" stroke="none"/>
    <path d="M554.4 676.95 L557.05 674.3 565.65 682.9 566.3 683.65 Q572.3 690.85 566.3 697.25 L565.9 697.65 557.7 705.85 555.05 703.2 561.85 696.4 Q568.45 691.5 561.05 683.5 L554.4 676.95" fill="#dfdfdf" fill-rule="evenodd" stroke="none"/>
    <path d="M613.6 738.65 Q605.7 731.25 600.75 737.9 L593.9 744.65 591.3 742.05 599.55 733.8 Q606.4 726.95 614.25 734.0 L618.25 738.0 615.6 740.65 613.6 738.65" fill="#dfdfdf" fill-rule="evenodd" stroke="none"/>
    <path d="M626.7 630.45 L629.65 633.2 613.05 648.95 607.6 648.95 626.7 630.45" fill="#dfdfdf" fill-rule="evenodd" stroke="none"/>
    <path d="M662.0 669.9 L665.2 671.8 646.55 690.65 646.55 685.35 662.0 669.9" fill="#dfdfdf" fill-rule="evenodd" stroke="none"/>
    <path d="M672.85 679.15 L660.2 691.8 659.2 690.8 671.9 678.1 672.85 678.1 672.85 679.15" fill="#dfdfdf" fill-rule="evenodd" stroke="none"/>
    <path d="M597.25 281.4 L597.25 603.25 593.5 603.25 593.5 281.4 597.25 281.4" fill="#dfdfdf" fill-rule="evenodd" stroke="none"/>
    <path d="M662.75 669.0 L729.1 721.1 726.55 721.1 661.85 670.3 662.75 669.0" fill="#dfdfdf" fill-rule="evenodd" stroke="none"/>
    <path d="M921.95 576.95 L921.95 721.55 918.2 721.55 918.2 576.95 921.95 576.95" fill="#dfdfdf" fill-rule="evenodd" stroke="none"/>
    <path d="M750.55 281.65 L751.95 281.65 751.95 429.1 750.55 429.1 750.55 281.65" fill="#dfdfdf" fill-rule="evenodd" stroke="none"/>
    <path d="M624.4 633.45 L593.5 602.55 596.15 599.9 627.05 630.8 624.4 633.45" fill="#dfdfdf" fill-rule="evenodd" stroke="none"/>
    <path d="M616.85 623.6 L617.65 623.6 606.75 634.85 605.85 633.95 616.85 622.55 616.85 623.6" fill="#dfdfdf" fill-rule="evenodd" stroke="none"/>
    <path d="M891.85 575.55 L921.95 575.55 921.95 576.95 891.85 576.95 891.85 575.55" fill="#dfdfdf" fill-rule="evenodd" stroke="none"/>
    <path d="M657.35 679.8 L650.55 686.6 Q643.95 691.5 651.35 699.5 L658.0 706.05 655.35 708.7 646.75 700.1 646.1 699.35 Q640.1 692.15 646.1 685.75 L646.5 685.35 654.7 677.15 657.35 679.8" fill="#dfdfdf" fill-rule="evenodd" stroke="none"/>
    <path d="M621.1 640.95 L612.85 649.2 Q606.0 656.05 598.15 649.0 L594.15 645.0 596.8 642.35 598.8 644.35 Q606.7 651.75 611.65 645.1 L618.5 638.35 621.1 640.95" fill="#dfdfdf" fill-rule="evenodd" stroke="none"/>
    <path d="M724.9 721.5 L724.9 717.75 922.0 717.75 922.0 721.5 724.9 721.5" fill="#dfdfdf" fill-rule="evenodd" stroke="none"/>
    <path d="M674.15 284.2 L674.75 261.3 678.6 257.45 678.2 284.05 674.15 284.2" fill="#dfdfdf" fill-rule="evenodd" stroke="none"/>
    <path d="M625.35 259.3 L625.35 281.1 621.75 282.0 621.6 255.55 625.35 259.3" fill="#dfdfdf" fill-rule="evenodd" stroke="none"/>
    <path d="M612.55 282.2 L611.85 283.0 611.1 282.1 611.1 262.4 612.55 262.4 612.55 282.2" fill="#dfdfdf" fill-rule="evenodd" stroke="none"/>
    <path d="M752.15 284.05 L677.7 284.05 677.7 280.3 752.15 280.3 752.15 284.05" fill="#dfdfdf" fill-rule="evenodd" stroke="none"/>
    <path d="M689.3 282.35 L689.3 262.35 690.75 262.3 690.75 282.5 689.95 281.6 689.3 282.35" fill="#dfdfdf" fill-rule="evenodd" stroke="none"/>
    <path d="M602.6 250.85 L614.8 250.85 615.75 250.9 Q625.1 251.75 625.4 260.55 L625.35 261.1 625.35 272.7 621.65 272.7 621.65 263.1 Q622.8 254.95 611.9 254.55 L602.6 254.65 602.6 250.85" fill="#dfdfdf" fill-rule="evenodd" stroke="none"/>
    <path d="M674.7 272.65 L674.75 261.0 Q674.75 251.3 685.25 250.7 L690.9 250.75 690.9 254.45 688.1 254.45 Q677.25 254.8 678.45 263.0 L678.4 272.65 674.7 272.65" fill="#dfdfdf" fill-rule="evenodd" stroke="none"/>
    <path d="M593.6 284.05 L593.6 280.3 625.4 280.3 625.4 284.05 593.6 284.05" fill="#dfdfdf" fill-rule="evenodd" stroke="none"/>
    <path d="M1097.5 285.15 L1194.4 285.15 1194.4 288.9 1097.5 288.9 1097.5 285.15" fill="#dfdfdf" fill-rule="evenodd" stroke="none"/>
    <path d="M1195.65 262.55 L1195.65 288.95 1191.9 288.95 1191.9 262.55 1195.65 262.55" fill="#dfdfdf" fill-rule="evenodd" stroke="none"/>
    <path d="M1168.65 254.75 L1168.65 251.05 1185.1 251.05 Q1195.65 251.6 1195.65 261.3 L1195.65 272.95 1191.95 272.95 1191.9 263.3 Q1193.1 255.15 1182.25 254.75 L1168.65 254.75" fill="#dfdfdf" fill-rule="evenodd" stroke="none"/>
    <path d="M1254.0 251.05 L1270.45 251.05 1270.45 254.75 1256.85 254.75 Q1246.0 255.15 1247.2 263.3 L1247.15 272.95 1243.45 272.95 1243.45 261.3 Q1243.45 251.6 1254.0 251.05" fill="#dfdfdf" fill-rule="evenodd" stroke="none"/>
    <path d="M1247.2 267.45 L1247.2 280.2 1243.45 280.2 1243.45 267.45 1247.2 267.45" fill="#dfdfdf" fill-rule="evenodd" stroke="none"/>
    <path d="M1099.95 285.55 L1099.95 412.2 1096.2 412.2 1096.2 285.55 1099.95 285.55" fill="#dfdfdf" fill-rule="evenodd" stroke="none"/>
    <path d="M1369.35 278.2 L1369.35 279.8 1247.05 279.8 1247.05 278.2 1369.35 278.2" fill="#dfdfdf" fill-rule="evenodd" stroke="none"/>
    <path d="M1160.65 410.6 L1160.65 414.35 1099.1 414.35 1096.05 411.3 1096.1 410.55 1160.65 410.6" fill="#dfdfdf" fill-rule="evenodd" stroke="none"/>
    <path d="M1332.65 316.95 L1331.05 316.95 1331.05 308.9 1332.65 308.9 1332.65 316.95" fill="#dfdfdf" fill-rule="evenodd" stroke="none"/>
    <path d="M1520.8 528.05 L1520.8 531.8 1160.25 531.8 1160.25 528.05 1520.8 528.05" fill="#dfdfdf" fill-rule="evenodd" stroke="none"/>
    <path d="M1562.75 489.95 L1520.9 531.8 1518.25 529.15 1559.95 487.15 1562.75 489.95" fill="#dfdfdf" fill-rule="evenodd" stroke="none"/>
    <path d="M1456.4 383.55 L1562.2 489.35 1561.05 490.5 1455.25 384.7 1456.4 383.55" fill="#dfdfdf" fill-rule="evenodd" stroke="none"/>
    <path d="M1156.95 410.35 L1160.7 410.35 1160.7 531.8 1156.95 531.8 1156.95 410.35" fill="#dfdfdf" fill-rule="evenodd" stroke="none"/>
    <path d="M1254.5 802.1 L1254.5 805.85 1097.7 805.85 1097.7 802.1 1254.5 802.1" fill="#dfdfdf" fill-rule="evenodd" stroke="none"/>
    <path d="M1255.7 828.45 L1251.95 828.45 1251.95 802.05 1255.7 802.05 1255.7 828.45" fill="#dfdfdf" fill-rule="evenodd" stroke="none"/>
    <path d="M1255.7 829.2 Q1255.7 838.9 1245.15 839.45 L1228.7 839.45 1228.7 835.75 1242.3 835.75 Q1253.15 835.35 1251.95 827.2 L1252.0 817.55 1255.7 817.55 1255.7 829.2" fill="#dfdfdf" fill-rule="evenodd" stroke="none"/>
    <path d="M1303.5 817.55 L1307.2 817.55 1307.25 827.2 Q1306.05 835.35 1316.9 835.75 L1330.5 835.75 1330.5 839.45 1314.05 839.45 Q1303.5 838.9 1303.5 829.2 L1303.5 817.55" fill="#dfdfdf" fill-rule="evenodd" stroke="none"/>
    <path d="M1307.25 823.65 L1303.5 823.65 1303.5 811.4 1307.25 811.4 1307.25 823.65" fill="#dfdfdf" fill-rule="evenodd" stroke="none"/>
    <path d="M1096.25 662.6 L1100.0 662.6 1100.0 805.45 1096.25 805.45 1096.25 662.6" fill="#dfdfdf" fill-rule="evenodd" stroke="none"/>
    <path d="M1371.3 811.2 L1371.3 812.8 1304.0 812.8 1304.0 811.2 1371.3 811.2" fill="#dfdfdf" fill-rule="evenodd" stroke="none"/>
    <path d="M1370.15 718.75 L1369.65 718.25 1370.6 713.0 1471.95 611.65 1477.25 611.65 1370.15 718.75" fill="#dfdfdf" fill-rule="evenodd" stroke="none"/>
    <path d="M1369.7 714.6 L1371.3 714.6 1371.3 812.8 1369.7 812.8 1369.7 714.6" fill="#dfdfdf" fill-rule="evenodd" stroke="none"/>
    <path d="M635.5 2441.55 L652.6 2458.65 649.95 2461.3 632.85 2444.2 635.5 2441.55" fill="#dfdfdf" fill-rule="evenodd" stroke="none"/>
    <path d="M646.05 2419.0 L636.45 2428.6 Q629.05 2436.6 635.65 2441.5 L642.4 2448.35 639.8 2450.95 631.6 2442.75 Q624.7 2435.85 631.8 2428.05 L643.45 2416.4 646.05 2419.0" fill="#dfdfdf" fill-rule="evenodd" stroke="none"/>
    <path d="M597.8 2476.85 L606.0 2485.05 603.4 2487.65 596.55 2480.9 Q591.65 2474.3 583.65 2481.7 L574.05 2491.3 571.45 2488.7 583.1 2477.05 Q590.9 2469.95 597.8 2476.85" fill="#dfdfdf" fill-rule="evenodd" stroke="none"/>
    <path d="M614.0 2498.25 L599.5 2483.75 602.15 2481.1 616.65 2495.6 614.0 2498.25" fill="#dfdfdf" fill-rule="evenodd" stroke="none"/>
    <path d="M895.1 2365.6 L896.7 2365.6 896.7 2454.35 895.1 2454.35 895.1 2365.6" fill="#dfdfdf" fill-rule="evenodd" stroke="none"/>
    <path d="M521.3 2749.95 L521.3 2758.0 519.95 2758.0 519.95 2751.1 519.95 2750.85 Q519.95 2737.55 520.75 2724.55 L522.05 2724.55 Q521.3 2737.0 521.3 2749.8 L521.3 2749.95 M616.2 2494.95 L616.2 2496.25 Q545.6 2575.8 527.55 2677.3 L526.35 2677.3 Q544.75 2575.05 616.2 2494.95 M896.85 2364.4 L896.85 2365.65 Q754.75 2367.7 650.45 2461.7 L650.45 2461.75 650.15 2461.55 649.85 2461.15 649.85 2461.1 650.45 2460.55 Q754.8 2366.75 896.85 2364.4" fill="#dfdfdf" fill-rule="evenodd" stroke="none"/>
    <path d="M519.95 2757.8 L519.95 2756.2 597.65 2756.2 597.65 2757.8 519.95 2757.8" fill="#dfdfdf" fill-rule="evenodd" stroke="none"/>
    <path d="M598.0 2757.35 L596.95 2757.35 Q597.95 2631.9 686.4 2543.05 773.85 2455.0 896.85 2453.15 L896.85 2454.15 Q774.15 2455.7 686.9 2543.55 598.7 2632.15 598.0 2757.35" fill="#dfdfdf" fill-rule="evenodd" stroke="none"/>
    <path d="M1364.75 2443.75 L1347.65 2460.85 1345.0 2458.2 1362.1 2441.1 1364.75 2443.75" fill="#dfdfdf" fill-rule="evenodd" stroke="none"/>
    <path d="M1351.55 2418.55 L1354.15 2415.95 1365.8 2427.6 Q1372.9 2435.4 1366.0 2442.3 L1357.8 2450.5 1355.2 2447.9 1361.95 2441.05 Q1368.55 2436.15 1361.15 2428.15 L1351.55 2418.55" fill="#dfdfdf" fill-rule="evenodd" stroke="none"/>
    <path d="M1423.55 2490.85 L1413.95 2481.25 Q1405.95 2473.85 1401.05 2480.45 L1394.2 2487.2 1391.6 2484.6 1399.8 2476.4 Q1406.7 2469.5 1414.5 2476.6 L1426.15 2488.25 1423.55 2490.85" fill="#dfdfdf" fill-rule="evenodd" stroke="none"/>
    <path d="M1380.95 2495.15 L1395.45 2480.65 1398.1 2483.3 1383.6 2497.8 1380.95 2495.15" fill="#dfdfdf" fill-rule="evenodd" stroke="none"/>
    <path d="M1102.5 2365.15 L1102.5 2453.9 1100.9 2453.9 1100.9 2365.15 1102.5 2365.15" fill="#dfdfdf" fill-rule="evenodd" stroke="none"/>
    <path d="M1100.75 2363.95 Q1242.8 2366.3 1347.15 2460.1 L1347.75 2460.65 1347.75 2460.7 1347.45 2461.1 1347.15 2461.3 1347.15 2461.25 Q1242.85 2367.25 1100.75 2365.2 L1100.75 2363.95 M1381.4 2494.5 Q1452.65 2574.35 1471.15 2676.2 L1471.35 2677.1 1470.1 2677.1 1469.95 2676.2 Q1451.75 2575.1 1381.4 2495.8 L1381.4 2494.5 M1475.65 2725.55 L1476.95 2725.55 1477.0 2726.45 Q1477.65 2738.3 1477.65 2750.4 L1477.65 2750.65 1477.65 2757.55 1476.3 2757.55 1476.3 2749.5 1476.3 2749.35 Q1476.3 2737.8 1475.7 2726.45 L1475.65 2725.55" fill="#dfdfdf" fill-rule="evenodd" stroke="none"/>
    <path d="M1399.95 2755.75 L1477.65 2755.75 1477.65 2757.35 1399.95 2757.35 1399.95 2755.75" fill="#dfdfdf" fill-rule="evenodd" stroke="none"/>
    <path d="M1100.75 2452.7 Q1223.75 2454.55 1311.2 2542.6 1399.65 2631.45 1400.65 2756.9 L1399.6 2756.9 Q1398.9 2631.7 1310.7 2543.1 1223.45 2455.25 1100.75 2453.7 L1100.75 2452.7" fill="#dfdfdf" fill-rule="evenodd" stroke="none"/>
    <path d="M1495.15 2674.55 L1471.2 2677.3 1470.75 2673.6 1494.7 2670.85 1495.15 2674.55" fill="#dfdfdf" fill-rule="evenodd" stroke="none"/>
    <path d="M1485.1 2672.0 L1494.65 2670.85 Q1502.9 2671.05 1502.05 2660.25 L1500.45 2646.8 1504.1 2646.4 1506.0 2662.7 Q1506.65 2673.2 1497.05 2674.3 L1485.5 2675.65 1485.1 2672.0" fill="#dfdfdf" fill-rule="evenodd" stroke="none"/>
    <path d="M1490.9 2723.2 L1502.45 2721.85 Q1512.05 2720.75 1513.8 2731.15 L1515.7 2747.45 1512.05 2747.85 1510.45 2734.4 Q1508.8 2723.7 1500.85 2725.8 L1491.3 2726.85 1490.9 2723.2" fill="#dfdfdf" fill-rule="evenodd" stroke="none"/>
    <path d="M1476.0 2724.9 L1496.3 2722.55 1496.75 2726.25 1476.45 2728.6 1476.0 2724.9" fill="#dfdfdf" fill-rule="evenodd" stroke="none"/>
    <path d="M527.1 2677.3 L503.15 2674.55 503.6 2670.85 527.55 2673.6 527.1 2677.3" fill="#dfdfdf" fill-rule="evenodd" stroke="none"/>
    <path d="M503.65 2670.85 L513.2 2672.0 512.8 2675.65 501.25 2674.3 Q491.65 2673.2 492.3 2662.7 L494.2 2646.4 497.85 2646.8 496.25 2660.25 Q495.4 2671.05 503.65 2670.85" fill="#dfdfdf" fill-rule="evenodd" stroke="none"/>
    <path d="M483.35 2741.4 L484.55 2731.1 Q486.3 2720.7 495.9 2721.85 L507.45 2723.15 507.0 2726.8 497.45 2725.75 Q489.5 2723.65 487.85 2734.4 L486.3 2747.85 483.35 2747.5 483.35 2741.4" fill="#dfdfdf" fill-rule="evenodd" stroke="none"/>
    <path d="M522.3 2724.9 L521.85 2728.6 501.55 2726.25 502.0 2722.55 522.3 2724.9" fill="#dfdfdf" fill-rule="evenodd" stroke="none"/>
    <path d="M891.75 -2.2 L893.15 -2.2 893.15 85.8 891.75 85.8 891.75 -2.2" fill="#dfdfdf" fill-rule="evenodd" stroke="none"/>
    <path d="M892.1 86.1 L848.5 86.1 848.5 84.7 892.1 84.7 892.1 86.1" fill="#dfdfdf" fill-rule="evenodd" stroke="none"/>
    <path d="M634.45 95.6 L634.45 117.35 630.7 117.35 630.7 95.6 634.45 95.6" fill="#dfdfdf" fill-rule="evenodd" stroke="none"/>
    <path d="M657.7 125.2 L657.7 128.9 641.25 128.9 Q630.7 128.35 630.7 118.65 L630.7 107.0 634.4 107.0 634.45 116.65 Q633.25 124.8 644.1 125.2 L657.7 125.2" fill="#dfdfdf" fill-rule="evenodd" stroke="none"/>
    <path d="M579.15 97.3 L582.9 97.3 582.9 117.4 579.15 117.4 579.15 97.3" fill="#dfdfdf" fill-rule="evenodd" stroke="none"/>
    <path d="M555.9 125.2 L569.5 125.2 Q580.35 124.8 579.15 116.65 L579.2 107.0 582.9 107.0 582.9 118.65 Q582.9 128.35 572.35 128.9 L555.9 128.9 555.9 125.2" fill="#dfdfdf" fill-rule="evenodd" stroke="none"/>
    <path d="M583.1 99.9 L393.9 99.9 393.9 96.15 583.1 96.15 583.1 99.9" fill="#dfdfdf" fill-rule="evenodd" stroke="none"/>
    <path d="M395.7 -1.1 L395.7 99.95 391.95 99.95 391.95 -1.1 395.7 -1.1" fill="#dfdfdf" fill-rule="evenodd" stroke="none"/>
    <path d="M847.5 43.95 L393.85 43.95 393.85 42.55 847.5 42.55 847.5 43.95" fill="#dfdfdf" fill-rule="evenodd" stroke="none"/>
    <path d="M849.7 96.15 L849.7 99.9 634.55 99.9 634.55 96.15 849.7 96.15" fill="#dfdfdf" fill-rule="evenodd" stroke="none"/>
    <path d="M849.9 -1.1 L849.9 99.95 846.15 99.95 846.15 -1.1 849.9 -1.1" fill="#dfdfdf" fill-rule="evenodd" stroke="none"/>
    <path d="M1782.6 39.0 L1782.6 94.6 1781.2 94.6 1781.2 39.0 1782.6 39.0" fill="#dfdfdf" fill-rule="evenodd" stroke="none"/>
    <path d="M1737.95 93.5 L1781.55 93.5 1781.55 94.9 1737.95 94.9 1737.95 93.5" fill="#dfdfdf" fill-rule="evenodd" stroke="none"/>
    <path d="M1523.9 95.6 L1523.9 117.35 1520.15 117.35 1520.15 95.6 1523.9 95.6" fill="#dfdfdf" fill-rule="evenodd" stroke="none"/>
    <path d="M1523.85 107.0 L1523.9 116.65 Q1522.7 124.8 1533.55 125.2 L1547.15 125.2 1547.15 128.9 1530.7 128.9 Q1520.15 128.35 1520.15 118.65 L1520.15 107.0 1523.85 107.0" fill="#dfdfdf" fill-rule="evenodd" stroke="none"/>
    <path d="M1468.6 97.3 L1472.35 97.3 1472.35 117.4 1468.6 117.4 1468.6 97.3" fill="#dfdfdf" fill-rule="evenodd" stroke="none"/>
    <path d="M1468.65 107.0 L1472.35 107.0 1472.35 118.65 Q1472.35 128.35 1461.8 128.9 L1445.35 128.9 1445.35 125.2 1458.95 125.2 Q1469.8 124.8 1468.6 116.65 L1468.65 107.0" fill="#dfdfdf" fill-rule="evenodd" stroke="none"/>
    <path d="M1472.55 99.9 L1379.5 99.9 1379.5 96.15 1472.55 96.15 1472.55 99.9" fill="#dfdfdf" fill-rule="evenodd" stroke="none"/>
    <path d="M1312.1 24.85 L1381.65 97.9 1378.95 100.5 1309.4 27.45 1312.1 24.85" fill="#dfdfdf" fill-rule="evenodd" stroke="none"/>
    <path d="M1655.1 14.25 L1449.7 14.25 1449.7 12.85 1655.1 12.85 1655.1 14.25" fill="#dfdfdf" fill-rule="evenodd" stroke="none"/>
    <path d="M1739.15 96.15 L1739.15 99.9 1524.0 99.9 1524.0 96.15 1739.15 96.15" fill="#dfdfdf" fill-rule="evenodd" stroke="none"/>
    <path d="M1739.35 62.65 L1739.35 99.95 1735.6 99.95 1735.6 62.65 1739.35 62.65" fill="#dfdfdf" fill-rule="evenodd" stroke="none"/>
    <path d="M2289.9 -12.4 L2291.3 -12.4 2291.3 96.25 2289.9 96.25 2289.9 -12.4" fill="#dfdfdf" fill-rule="evenodd" stroke="none"/>
    <path d="M2239.85 95.2 L2239.85 116.95 2236.1 116.95 2236.1 95.2 2239.85 95.2" fill="#dfdfdf" fill-rule="evenodd" stroke="none"/>
    <path d="M2236.1 106.6 L2239.8 106.6 2239.85 116.25 Q2238.65 124.4 2249.5 124.8 L2263.1 124.8 2263.1 128.5 2246.65 128.5 Q2236.1 127.95 2236.1 118.25 L2236.1 106.6" fill="#dfdfdf" fill-rule="evenodd" stroke="none"/>
    <path d="M2188.3 96.9 L2188.3 117.0 2184.55 117.0 2184.55 96.9 2188.3 96.9" fill="#dfdfdf" fill-rule="evenodd" stroke="none"/>
    <path d="M2184.55 116.25 L2184.6 106.6 2188.3 106.6 2188.3 118.25 Q2188.3 127.95 2177.75 128.5 L2161.3 128.5 2161.3 124.8 2174.9 124.8 Q2185.75 124.4 2184.55 116.25" fill="#dfdfdf" fill-rule="evenodd" stroke="none"/>
    <path d="M2188.5 99.5 L2095.45 99.5 2095.45 95.75 2188.5 95.75 2188.5 99.5" fill="#dfdfdf" fill-rule="evenodd" stroke="none"/>
    <path d="M2028.05 24.45 L2097.6 97.5 2094.9 100.1 2025.35 27.05 2028.05 24.45" fill="#dfdfdf" fill-rule="evenodd" stroke="none"/>
    <path d="M2291.3 95.75 L2291.3 99.5 2239.15 99.5 2239.15 95.75 2291.3 95.75" fill="#dfdfdf" fill-rule="evenodd" stroke="none"/>
  </g>
</svg>
