<?xml version="1.0" encoding="UTF-8" standalone="no"?>
<svg xmlns:xlink="http://www.w3.org/1999/xlink" height="49.3px" width="52.55px" xmlns="http://www.w3.org/2000/svg">
  <g transform="matrix(1, 0, 0, 1, -2.9, -8.25)">
    <path d="M31.0 34.5 L30.8 35.1 30.3 35.5 30.45 36.3 30.1 37.25 Q29.65 37.75 29.45 38.5 L29.15 38.95 28.75 38.9 Q28.05 38.65 27.4 39.2 L27.1 39.8 26.6 40.25 Q26.15 40.25 25.75 39.5 L25.4 38.65 24.6 38.7 23.95 39.1 Q23.55 39.1 23.4 38.45 L23.2 37.35 Q22.7 37.35 22.4 37.7 L22.05 38.1 21.85 38.0 21.75 37.75 22.05 36.45 22.3 35.35 21.95 34.95 21.55 34.6 21.95 33.85 22.3 33.2 22.2 32.95 22.1 32.65 Q22.1 32.15 23.15 31.9 L22.85 31.35 22.55 30.75 22.65 30.45 22.85 30.4 23.8 30.45 24.6 30.5 24.85 29.65 25.2 29.75 26.3 29.9 26.55 29.7 26.85 29.3 Q27.25 28.9 27.75 29.45 L28.3 30.1 28.65 30.45 28.95 30.2 Q29.2 29.95 29.35 30.0 L30.8 32.5 30.65 33.1 30.45 33.6 30.75 34.0 31.0 34.5 M23.95 34.2 Q23.95 33.45 24.55 32.85 25.35 32.15 26.95 32.1 27.8 32.05 28.4 32.9 28.85 33.65 28.85 34.3 L28.6 35.45 Q28.15 36.05 26.85 36.25 L25.6 36.2 24.45 35.3 Q23.95 34.6 23.95 34.2 M23.15 34.8 Q23.15 35.25 23.8 36.15 24.75 37.45 26.2 37.5 28.05 37.5 29.0 35.8 29.65 34.75 29.65 33.85 29.65 32.85 28.75 31.8 27.65 30.65 26.1 30.85 L26.35 30.95 26.2 30.95 26.15 31.1 25.9 31.0 Q24.95 31.0 23.95 32.8 23.15 34.3 23.15 34.8" fill="#323614" fill-rule="evenodd" stroke="none"/>
    <path d="M23.95 34.2 Q23.95 34.6 24.45 35.3 L25.6 36.2 26.85 36.25 Q28.15 36.05 28.6 35.45 L28.85 34.3 Q28.85 33.65 28.4 32.9 27.8 32.05 26.95 32.1 25.35 32.15 24.55 32.85 23.95 33.45 23.95 34.2 M23.15 34.8 Q23.15 34.3 23.95 32.8 24.95 31.0 25.9 31.0 L26.15 31.1 26.2 30.95 26.35 30.95 26.1 30.85 Q27.65 30.65 28.75 31.8 29.65 32.85 29.65 33.85 29.65 34.75 29.0 35.8 28.05 37.5 26.2 37.5 24.75 37.45 23.8 36.15 23.15 35.25 23.15 34.8" fill="#454b1b" fill-rule="evenodd" stroke="none"/>
    <path d="M22.05 35.4 Q20.85 32.65 16.75 34.0 L16.8 33.85 Q20.85 32.25 22.25 35.15 L22.05 35.4" fill="url(#gradient0)" fill-rule="evenodd" stroke="none"/>
    <path d="M15.3 33.85 Q9.85 34.4 6.6 39.15 L6.75 38.85 7.3 37.85 Q10.05 33.65 15.3 33.85" fill="#003300" fill-rule="evenodd" stroke="none"/>
    <path d="M15.3 33.85 L15.8 33.9 Q10.15 35.2 6.8 39.05 L6.6 39.15 Q9.85 34.4 15.3 33.85" fill="#a3b830" fill-rule="evenodd" stroke="none"/>
    <path d="M17.1 33.7 Q11.7 34.6 8.25 40.6 L8.35 40.3 Q8.6 39.55 9.0 38.95 11.85 33.7 17.1 33.7" fill="#003300" fill-rule="evenodd" stroke="none"/>
    <path d="M17.1 33.7 L17.6 33.75 Q11.85 35.6 8.4 40.4 L8.25 40.6 Q11.7 34.6 17.1 33.7" fill="#a3b830" fill-rule="evenodd" stroke="none"/>
    <path d="M10.8 42.45 Q12.1 36.15 16.95 33.85 L17.4 33.75 Q12.65 36.95 10.9 42.15 L10.8 42.45" fill="#a3b830" fill-rule="evenodd" stroke="none"/>
    <path d="M10.8 42.45 L10.8 42.1 11.0 40.75 Q12.05 35.25 16.95 33.85 12.1 36.15 10.8 42.45" fill="#003300" fill-rule="evenodd" stroke="none"/>
    <path d="M13.35 43.0 Q13.05 36.85 17.2 33.8 L17.45 33.75 Q13.75 37.65 13.45 42.75 L13.35 43.0" fill="#a3b830" fill-rule="evenodd" stroke="none"/>
    <path d="M13.35 43.0 L13.3 42.65 13.1 41.3 Q12.7 36.1 17.2 33.8 13.05 36.85 13.35 43.0" fill="#003300" fill-rule="evenodd" stroke="none"/>
    <path d="M15.35 42.75 Q14.0 37.35 17.55 33.75 L17.6 33.75 17.8 33.7 Q14.9 37.9 15.35 42.5 L15.35 42.75" fill="#a3b830" fill-rule="evenodd" stroke="none"/>
    <path d="M15.35 42.75 L15.2 42.5 14.85 41.35 Q13.55 36.7 17.55 33.75 14.0 37.35 15.35 42.75" fill="#003300" fill-rule="evenodd" stroke="none"/>
    <path d="M18.2 41.3 Q15.75 37.4 17.7 33.6 L17.8 33.55 17.95 33.55 Q16.5 37.6 18.2 41.15 L18.2 41.3" fill="#a3b830" fill-rule="evenodd" stroke="none"/>
    <path d="M18.2 41.3 L18.05 41.1 17.4 40.3 Q15.15 37.05 17.7 33.6 15.75 37.4 18.2 41.3" fill="#003300" fill-rule="evenodd" stroke="none"/>
    <path d="M15.25 34.1 Q9.85 35.1 6.4 32.6 L5.6 31.95 5.4 31.8 Q9.55 34.6 15.25 34.1" fill="#003300" fill-rule="evenodd" stroke="none"/>
    <path d="M5.4 31.8 L5.65 31.85 Q9.7 33.95 15.75 34.0 L15.25 34.1 Q9.55 34.6 5.4 31.8" fill="#a3b830" fill-rule="evenodd" stroke="none"/>
    <path d="M17.15 33.9 Q11.85 34.55 8.3 31.2 L7.5 30.4 7.35 30.1 Q11.5 33.9 17.15 33.9" fill="#003300" fill-rule="evenodd" stroke="none"/>
    <path d="M7.35 30.1 L7.6 30.3 Q11.6 33.2 17.65 33.85 L17.15 33.9 Q11.5 33.9 7.35 30.1" fill="#a3b830" fill-rule="evenodd" stroke="none"/>
    <path d="M16.85 33.8 Q11.4 33.65 9.25 30.15 L8.85 29.25 8.75 29.0 Q11.35 33.0 16.85 33.8" fill="#003300" fill-rule="evenodd" stroke="none"/>
    <path d="M8.75 29.0 L8.9 29.15 Q11.7 32.4 17.35 33.85 L16.85 33.8 Q11.35 33.0 8.75 29.0" fill="#a3b830" fill-rule="evenodd" stroke="none"/>
    <path d="M17.1 33.8 Q11.95 32.95 11.4 29.35 L11.35 28.5 11.35 28.3 Q12.15 32.4 17.1 33.8" fill="#003300" fill-rule="evenodd" stroke="none"/>
    <path d="M11.35 28.3 L11.45 28.4 Q12.75 31.75 17.4 33.8 L17.1 33.8 Q12.15 32.4 11.35 28.3" fill="#a3b830" fill-rule="evenodd" stroke="none"/>
    <path d="M17.55 33.8 Q13.1 31.95 13.5 28.1 L13.6 28.3 Q13.85 31.45 17.8 33.8 L17.55 33.8" fill="#a3b830" fill-rule="evenodd" stroke="none"/>
    <path d="M13.5 28.1 Q13.1 31.95 17.55 33.8 12.7 32.5 13.3 29.15 L13.45 28.35 13.5 28.1" fill="#003300" fill-rule="evenodd" stroke="none"/>
    <path d="M17.75 33.8 Q14.5 31.75 15.85 28.75 L15.85 28.9 Q15.25 31.4 17.95 33.8 L17.85 33.8 17.75 33.8" fill="#a3b830" fill-rule="evenodd" stroke="none"/>
    <path d="M15.85 28.75 Q14.5 31.75 17.75 33.8 14.0 32.1 15.35 29.55 L15.7 28.9 15.85 28.75" fill="#003300" fill-rule="evenodd" stroke="none"/>
    <path d="M13.3 34.35 Q8.7 34.9 5.45 36.6 L5.2 36.7 Q8.75 34.3 13.3 34.35" fill="#a3b830" fill-rule="evenodd" stroke="none"/>
    <path d="M5.2 36.7 L5.45 36.5 6.2 35.9 Q9.25 33.75 13.7 34.2 L13.3 34.35 Q8.75 34.3 5.2 36.7" fill="#003300" fill-rule="evenodd" stroke="none"/>
    <path d="M23.1 41.3 Q20.2 40.4 18.55 44.4 L18.5 44.25 Q19.95 40.15 23.05 40.95 L23.1 41.3" fill="url(#gradient1)" fill-rule="evenodd" stroke="none"/>
    <path d="M17.5 45.35 L17.9 45.05 Q15.2 50.2 15.9 55.25 L15.8 55.5 Q14.4 49.85 17.5 45.35" fill="#a3b830" fill-rule="evenodd" stroke="none"/>
    <path d="M17.5 45.35 Q14.4 49.85 15.8 55.5 L15.7 55.2 15.35 54.05 Q13.9 49.25 17.5 45.35" fill="#003300" fill-rule="evenodd" stroke="none"/>
    <path d="M18.6 43.95 L18.95 43.55 Q16.6 49.1 18.0 54.9 L18.05 55.2 Q15.7 48.6 18.6 43.95" fill="#a3b830" fill-rule="evenodd" stroke="none"/>
    <path d="M18.6 43.95 Q15.7 48.6 18.05 55.2 L17.85 54.85 17.25 53.5 Q15.15 47.9 18.6 43.95" fill="#003300" fill-rule="evenodd" stroke="none"/>
    <path d="M18.6 44.15 L18.75 43.7 Q18.15 49.45 20.95 54.2 L21.1 54.45 Q17.15 49.25 18.6 44.15" fill="#a3b830" fill-rule="evenodd" stroke="none"/>
    <path d="M18.6 44.15 Q17.15 49.25 21.1 54.45 L20.85 54.15 19.9 53.15 Q16.4 48.8 18.6 44.15" fill="#003300" fill-rule="evenodd" stroke="none"/>
    <path d="M18.75 43.9 L18.85 43.75 Q19.35 49.05 23.05 52.6 L23.15 52.85 Q18.35 49.1 18.75 43.9" fill="#a3b830" fill-rule="evenodd" stroke="none"/>
    <path d="M18.75 43.9 Q18.35 49.1 23.15 52.85 L22.9 52.7 21.75 51.95 Q17.5 48.8 18.75 43.9" fill="#003300" fill-rule="evenodd" stroke="none"/>
    <path d="M18.9 43.6 L18.95 43.55 19.0 43.4 Q20.3 48.35 24.15 50.95 L24.35 51.15 Q19.3 48.65 18.9 43.6" fill="#a3b830" fill-rule="evenodd" stroke="none"/>
    <path d="M18.9 43.6 Q19.3 48.65 24.35 51.15 L24.05 51.1 22.95 50.6 Q18.55 48.55 18.9 43.6" fill="#003300" fill-rule="evenodd" stroke="none"/>
    <path d="M18.9 43.35 L18.9 43.3 19.0 43.2 Q21.2 46.9 24.9 47.95 L25.05 48.05 Q20.5 47.4 18.9 43.35" fill="#a3b830" fill-rule="evenodd" stroke="none"/>
    <path d="M18.9 43.35 Q20.5 47.4 25.05 48.05 L24.8 48.05 23.8 48.0 Q19.85 47.6 18.9 43.35" fill="#003300" fill-rule="evenodd" stroke="none"/>
    <path d="M9.7 51.5 L9.5 51.55 9.7 51.4 Q13.95 49.75 17.9 45.15 L17.7 45.6 Q14.4 50.15 9.7 51.5" fill="#a3b830" fill-rule="evenodd" stroke="none"/>
    <path d="M17.7 45.6 Q14.9 50.3 10.75 51.35 L9.7 51.5 Q14.4 50.15 17.7 45.6" fill="#003300" fill-rule="evenodd" stroke="none"/>
    <path d="M9.5 49.0 L9.75 48.9 Q14.65 47.8 19.05 43.6 L18.75 44.0 Q15.1 48.35 9.5 49.0" fill="#a3b830" fill-rule="evenodd" stroke="none"/>
    <path d="M18.75 44.0 Q15.8 48.45 10.9 48.95 L9.8 49.05 9.5 49.0 Q15.1 48.35 18.75 44.0" fill="#003300" fill-rule="evenodd" stroke="none"/>
    <path d="M9.55 47.2 L9.75 47.2 Q14.05 47.15 18.85 43.8 L18.5 44.15 Q14.25 47.85 9.55 47.2" fill="#a3b830" fill-rule="evenodd" stroke="none"/>
    <path d="M18.5 44.15 Q14.75 48.25 10.7 47.5 L9.75 47.3 9.55 47.2 Q14.25 47.85 18.5 44.15" fill="#003300" fill-rule="evenodd" stroke="none"/>
    <path d="M10.7 44.75 L10.85 44.75 Q14.25 45.95 18.8 43.75 L18.65 43.95 Q14.4 46.85 10.7 44.75" fill="#a3b830" fill-rule="evenodd" stroke="none"/>
    <path d="M18.65 43.95 Q14.65 47.35 11.55 45.45 L10.9 44.9 10.7 44.75 Q14.4 46.85 18.65 43.95" fill="#003300" fill-rule="evenodd" stroke="none"/>
    <path d="M18.9 43.65 Q14.75 46.4 12.6 43.85 L12.1 43.15 12.0 42.95 Q14.65 45.8 18.9 43.65" fill="#003300" fill-rule="evenodd" stroke="none"/>
    <path d="M12.0 42.95 L12.15 43.05 Q14.75 44.9 19.1 43.45 L19.0 43.6 18.9 43.65 Q14.65 45.8 12.0 42.95" fill="#a3b830" fill-rule="evenodd" stroke="none"/>
    <path d="M19.1 43.55 Q15.35 45.2 14.25 42.5 L14.0 41.85 14.0 41.6 Q15.4 44.65 19.1 43.55" fill="#003300" fill-rule="evenodd" stroke="none"/>
    <path d="M14.0 41.6 L14.1 41.7 Q15.65 43.85 19.2 43.35 L19.1 43.4 19.1 43.55 Q15.4 44.65 14.0 41.6" fill="#a3b830" fill-rule="evenodd" stroke="none"/>
    <path d="M13.1 54.9 L13.05 54.65 13.15 53.6 Q13.5 49.85 16.75 46.8 L16.5 47.25 Q13.55 50.7 13.1 54.9" fill="#003300" fill-rule="evenodd" stroke="none"/>
    <path d="M16.5 47.25 Q14.0 51.05 13.15 54.65 L13.1 54.9 Q13.55 50.7 16.5 47.25" fill="#a3b830" fill-rule="evenodd" stroke="none"/>
    <path d="M35.15 34.2 Q45.8 35.1 53.8 26.7 L53.4 27.2 51.85 29.1 Q45.15 36.55 35.15 34.2" fill="#003300" fill-rule="evenodd" stroke="none"/>
    <path d="M35.15 34.2 L34.2 33.85 Q45.55 33.3 53.3 26.85 L53.8 26.7 Q45.8 35.1 35.15 34.2" fill="#a3b830" fill-rule="evenodd" stroke="none"/>
    <path d="M31.7 33.75 Q42.4 34.0 51.1 23.1 L50.75 23.75 49.05 26.2 Q41.75 35.75 31.7 33.75" fill="#003300" fill-rule="evenodd" stroke="none"/>
    <path d="M31.7 33.75 L30.75 33.55 Q42.35 31.85 50.7 23.4 L51.1 23.1 Q42.4 34.0 31.7 33.75" fill="#a3b830" fill-rule="evenodd" stroke="none"/>
    <path d="M46.9 18.3 Q42.05 30.8 32.05 33.5 L31.2 33.65 Q41.35 28.85 46.6 18.9 L46.9 18.3" fill="#a3b830" fill-rule="evenodd" stroke="none"/>
    <path d="M46.9 18.3 L46.75 19.1 45.9 21.7 Q41.95 32.55 32.05 33.5 42.05 30.8 46.9 18.3" fill="#003300" fill-rule="evenodd" stroke="none"/>
    <path d="M42.2 16.35 Q40.55 28.8 31.55 33.55 L31.1 33.5 Q39.5 27.05 41.9 16.75 L42.2 16.35" fill="#a3b830" fill-rule="evenodd" stroke="none"/>
    <path d="M42.2 16.35 L42.2 16.9 42.0 19.75 Q40.9 30.6 31.55 33.55 40.55 28.8 42.2 16.35" fill="#003300" fill-rule="evenodd" stroke="none"/>
    <path d="M38.35 15.95 Q38.9 27.55 30.85 33.5 L30.75 33.55 30.45 33.45 Q37.45 26.1 38.15 16.5 L38.35 15.95" fill="#a3b830" fill-rule="evenodd" stroke="none"/>
    <path d="M38.35 15.95 L38.4 16.55 38.7 19.05 Q39.55 29.05 30.85 33.5 38.9 27.55 38.35 15.95" fill="#003300" fill-rule="evenodd" stroke="none"/>
    <path d="M32.3 17.9 Q35.7 26.65 30.45 33.75 L30.35 33.85 30.1 33.8 Q34.15 26.0 32.35 18.25 L32.3 17.9" fill="#a3b830" fill-rule="evenodd" stroke="none"/>
    <path d="M32.3 17.9 L32.6 18.35 33.5 20.15 Q36.6 27.65 30.45 33.75 35.7 26.65 32.3 17.9" fill="#003300" fill-rule="evenodd" stroke="none"/>
    <path d="M35.4 33.65 Q46.05 33.7 51.8 40.1 L53.05 41.7 Q46.15 34.75 35.4 33.65" fill="#003300" fill-rule="evenodd" stroke="none"/>
    <path d="M53.05 41.7 L53.4 42.05 52.95 41.9 Q46.0 36.0 34.45 33.65 L35.4 33.65 Q46.15 34.75 53.05 41.7" fill="#a3b830" fill-rule="evenodd" stroke="none"/>
    <path d="M31.65 33.35 Q42.05 34.0 47.6 42.25 L48.85 44.2 49.05 44.75 Q42.5 35.45 31.65 33.35" fill="#003300" fill-rule="evenodd" stroke="none"/>
    <path d="M49.05 44.75 L48.65 44.35 Q42.0 36.85 30.75 33.3 L31.65 33.35 Q42.5 35.45 49.05 44.75" fill="#a3b830" fill-rule="evenodd" stroke="none"/>
    <path d="M32.2 33.65 Q42.65 36.05 45.35 44.05 L45.9 46.05 46.05 46.5 Q42.5 37.35 32.2 33.65" fill="#003300" fill-rule="evenodd" stroke="none"/>
    <path d="M46.05 46.5 L45.7 46.15 Q41.55 38.45 31.3 33.35 L32.2 33.65 Q42.5 37.35 46.05 46.5" fill="#a3b830" fill-rule="evenodd" stroke="none"/>
    <path d="M31.75 33.5 Q41.25 37.2 41.0 44.75 L40.85 46.55 40.75 47.0 Q40.65 38.3 31.75 33.5" fill="#003300" fill-rule="evenodd" stroke="none"/>
    <path d="M40.75 47.0 L40.6 46.65 Q39.3 39.4 31.25 33.5 L31.75 33.5 Q40.65 38.3 40.75 47.0" fill="#a3b830" fill-rule="evenodd" stroke="none"/>
    <path d="M31.0 33.4 Q38.7 38.85 36.55 46.55 L36.45 46.15 Q37.05 39.6 30.4 33.3 L30.75 33.35 31.0 33.4" fill="#a3b830" fill-rule="evenodd" stroke="none"/>
    <path d="M36.55 46.55 Q38.7 38.85 31.0 33.4 39.55 38.0 37.4 44.55 L36.75 46.15 36.55 46.55" fill="#003300" fill-rule="evenodd" stroke="none"/>
    <path d="M30.55 33.3 Q36.05 38.75 32.35 44.4 L32.4 44.05 Q34.45 39.15 30.1 33.25 L30.35 33.3 30.55 33.3" fill="#a3b830" fill-rule="evenodd" stroke="none"/>
    <path d="M32.35 44.4 Q36.05 38.75 30.55 33.3 37.05 38.15 33.55 43.0 L32.65 44.1 32.35 44.4" fill="#003300" fill-rule="evenodd" stroke="none"/>
    <path d="M39.25 33.95 Q48.15 34.55 55.0 32.25 L55.45 32.15 Q47.9 35.7 39.25 33.95" fill="#a3b830" fill-rule="evenodd" stroke="none"/>
    <path d="M55.45 32.15 L55.0 32.5 53.3 33.45 Q46.65 36.7 38.3 34.0 L39.25 33.95 Q47.9 35.7 55.45 32.15" fill="#003300" fill-rule="evenodd" stroke="none"/>
    <path d="M2.9 24.5 Q14.1 22.3 22.7 29.0 L23.35 29.75 Q13.35 23.85 3.4 24.7 L2.9 24.5" fill="#a3b830" fill-rule="evenodd" stroke="none"/>
    <path d="M2.9 24.5 L3.5 24.35 Q4.6 23.95 5.8 23.7 15.4 21.5 22.7 29.0 14.1 22.3 2.9 24.5" fill="#003300" fill-rule="evenodd" stroke="none"/>
    <path d="M3.3 28.9 Q16.4 25.05 25.35 31.25 L26.05 31.95 Q15.3 26.8 3.8 28.85 L3.3 28.9" fill="#a3b830" fill-rule="evenodd" stroke="none"/>
    <path d="M3.3 28.9 L3.9 28.6 Q5.3 27.9 6.65 27.55 17.9 24.05 25.35 31.25 16.4 25.05 3.3 28.9" fill="#003300" fill-rule="evenodd" stroke="none"/>
    <path d="M24.9 31.2 Q15.0 27.85 4.35 35.0 L4.95 34.5 Q5.95 33.55 7.0 32.9 16.05 26.45 24.9 31.2" fill="#003300" fill-rule="evenodd" stroke="none"/>
    <path d="M24.9 31.2 L25.75 31.65 Q14.55 29.75 4.95 34.7 L4.35 35.0 Q15.0 27.85 24.9 31.2" fill="#a3b830" fill-rule="evenodd" stroke="none"/>
    <path d="M25.4 31.45 Q15.25 30.2 7.3 39.25 L7.65 38.7 9.25 36.6 Q15.9 28.6 25.4 31.45" fill="#003300" fill-rule="evenodd" stroke="none"/>
    <path d="M25.4 31.45 L25.75 31.75 Q15.2 32.2 7.8 39.05 L7.3 39.25 Q15.25 30.2 25.4 31.45" fill="#a3b830" fill-rule="evenodd" stroke="none"/>
    <path d="M25.95 31.9 Q16.0 32.15 10.4 41.65 L10.65 41.15 11.75 39.0 Q16.25 30.6 25.95 31.9" fill="#003300" fill-rule="evenodd" stroke="none"/>
    <path d="M25.95 31.9 L26.05 31.95 26.3 32.15 Q16.45 34.05 10.85 41.35 L10.4 41.65 Q16.0 32.15 25.95 31.9" fill="#a3b830" fill-rule="evenodd" stroke="none"/>
    <path d="M26.4 31.95 Q18.25 34.6 16.55 43.5 L16.55 42.95 16.75 41.0 Q18.0 33.3 26.4 31.95" fill="#003300" fill-rule="evenodd" stroke="none"/>
    <path d="M26.4 31.95 L26.55 31.9 26.8 32.05 Q19.2 36.0 16.7 43.2 L16.55 43.5 Q18.25 34.6 26.4 31.95" fill="#a3b830" fill-rule="evenodd" stroke="none"/>
    <path d="M11.35 12.55 L11.65 12.95 Q14.45 21.5 23.0 29.8 L22.2 29.25 Q13.45 22.25 11.35 12.55" fill="#a3b830" fill-rule="evenodd" stroke="none"/>
    <path d="M22.2 29.25 Q13.15 23.3 11.65 15.0 L11.4 13.05 11.35 12.55 Q13.45 22.25 22.2 29.25" fill="#003300" fill-rule="evenodd" stroke="none"/>
    <path d="M16.4 12.85 L16.5 13.4 Q18.2 23.05 26.0 32.15 L25.15 31.55 Q17.1 23.9 16.4 12.85" fill="#a3b830" fill-rule="evenodd" stroke="none"/>
    <path d="M25.15 31.55 Q16.7 25.25 16.25 15.7 L16.3 13.4 16.4 12.85 Q17.1 23.9 25.15 31.55" fill="#003300" fill-rule="evenodd" stroke="none"/>
    <path d="M19.85 13.15 L19.95 13.55 Q19.5 22.0 25.55 31.8 L24.9 31.05 Q18.1 22.3 19.85 13.15" fill="#a3b830" fill-rule="evenodd" stroke="none"/>
    <path d="M24.9 31.05 Q17.25 23.3 19.15 15.45 L19.75 13.55 19.85 13.15 Q18.1 22.3 24.9 31.05" fill="#003300" fill-rule="evenodd" stroke="none"/>
    <path d="M24.6 15.7 L24.6 16.0 Q21.85 22.5 25.65 31.7 L25.25 31.4 Q20.15 22.65 24.6 15.7" fill="#a3b830" fill-rule="evenodd" stroke="none"/>
    <path d="M25.25 31.4 Q19.1 23.2 23.25 17.3 23.65 16.6 24.35 16.0 L24.6 15.7 Q20.15 22.65 25.25 31.4" fill="#003300" fill-rule="evenodd" stroke="none"/>
    <path d="M25.8 31.9 Q20.9 23.5 26.25 19.5 L27.55 18.6 27.95 18.35 Q22.1 23.3 25.8 31.9" fill="#003300" fill-rule="evenodd" stroke="none"/>
    <path d="M27.95 18.35 L27.85 18.75 Q23.9 23.6 26.25 32.3 L26.0 32.1 25.8 31.9 Q22.1 23.3 27.95 18.35" fill="#a3b830" fill-rule="evenodd" stroke="none"/>
    <path d="M26.1 32.25 Q23.2 24.75 28.6 22.9 L30.0 22.5 30.4 22.45 Q24.3 24.85 26.1 32.25" fill="#003300" fill-rule="evenodd" stroke="none"/>
    <path d="M30.4 22.45 L30.2 22.7 Q25.85 25.4 26.45 32.5 L26.3 32.35 26.1 32.25 Q24.3 24.85 30.4 22.45" fill="#a3b830" fill-rule="evenodd" stroke="none"/>
    <path d="M4.35 19.25 L4.95 19.25 6.85 19.45 Q14.15 20.55 19.85 27.3 L19.1 26.85 Q12.65 20.7 4.35 19.25" fill="#003300" fill-rule="evenodd" stroke="none"/>
    <path d="M19.1 26.85 Q11.8 21.45 4.8 19.4 L4.35 19.25 Q12.65 20.7 19.1 26.85" fill="#a3b830" fill-rule="evenodd" stroke="none"/>
    <path d="M28.15 38.05 L28.25 37.05 Q31.05 48.1 38.55 54.45 L38.8 54.9 Q29.45 48.6 28.15 38.05" fill="#a3b830" fill-rule="evenodd" stroke="none"/>
    <path d="M28.15 38.05 Q29.45 48.6 38.8 54.9 L38.25 54.6 Q37.2 54.1 36.25 53.45 27.95 48.35 28.15 38.05" fill="#003300" fill-rule="evenodd" stroke="none"/>
    <path d="M27.85 34.55 L27.85 33.6 Q31.75 44.65 41.2 51.2 L41.6 51.6 Q29.8 45.15 27.85 34.55" fill="#a3b830" fill-rule="evenodd" stroke="none"/>
    <path d="M27.85 34.55 Q29.8 45.15 41.6 51.6 L40.9 51.3 38.3 50.15 Q28.05 44.75 27.85 34.55" fill="#003300" fill-rule="evenodd" stroke="none"/>
    <path d="M45.1 46.55 Q32.7 44.2 28.15 34.9 L27.9 34.0 Q34.35 43.1 44.55 46.3 L45.1 46.55" fill="#a3b830" fill-rule="evenodd" stroke="none"/>
    <path d="M45.1 46.55 L44.35 46.55 41.75 46.2 Q31.0 44.4 28.15 34.9 32.7 44.2 45.1 46.55" fill="#003300" fill-rule="evenodd" stroke="none"/>
    <path d="M46.05 41.55 Q34.15 42.3 28.05 34.4 L27.95 33.95 Q35.65 40.95 45.55 41.35 L46.05 41.55" fill="#a3b830" fill-rule="evenodd" stroke="none"/>
    <path d="M46.05 41.55 L45.45 41.7 42.85 42.05 Q32.6 43.0 28.05 34.4 34.15 42.3 46.05 41.55" fill="#003300" fill-rule="evenodd" stroke="none"/>
    <path d="M45.55 37.65 Q35.0 40.45 27.95 33.7 L27.85 33.6 27.85 33.2 Q36.0 38.75 45.0 37.55 L45.55 37.65" fill="#a3b830" fill-rule="evenodd" stroke="none"/>
    <path d="M45.55 37.65 L45.05 37.9 42.8 38.6 Q33.8 41.35 27.95 33.7 35.0 40.45 45.55 37.65" fill="#003300" fill-rule="evenodd" stroke="none"/>
    <path d="M42.6 32.15 Q35.15 37.15 27.65 33.35 L27.5 33.25 27.5 32.95 Q35.5 35.5 42.25 32.25 L42.6 32.15" fill="#a3b830" fill-rule="evenodd" stroke="none"/>
    <path d="M42.6 32.15 L42.2 32.5 40.65 33.75 Q34.45 38.2 27.65 33.35 35.15 37.15 42.6 32.15" fill="#003300" fill-rule="evenodd" stroke="none"/>
    <path d="M24.85 57.0 L24.6 57.4 24.65 56.9 Q28.65 48.95 28.5 37.2 L28.7 38.15 Q29.85 48.9 24.85 57.0" fill="#a3b830" fill-rule="evenodd" stroke="none"/>
    <path d="M28.7 38.15 Q30.8 48.6 26.05 55.45 L24.85 57.0 Q29.85 48.9 28.7 38.15" fill="#003300" fill-rule="evenodd" stroke="none"/>
    <path d="M21.25 53.65 L21.55 53.25 Q27.15 45.3 28.05 33.45 L28.25 34.45 Q28.5 45.5 21.25 53.65" fill="#a3b830" fill-rule="evenodd" stroke="none"/>
    <path d="M28.25 34.45 Q29.7 44.75 23.3 51.75 L21.75 53.3 21.25 53.65 Q28.5 45.5 28.25 34.45" fill="#003300" fill-rule="evenodd" stroke="none"/>
    <path d="M19.4 50.8 L19.05 51.05 19.3 50.65 Q25.5 45.1 28.15 34.05 L28.05 35.0 Q26.75 45.6 19.4 50.8" fill="#a3b830" fill-rule="evenodd" stroke="none"/>
    <path d="M28.05 35.0 Q27.95 45.7 21.15 49.9 L19.4 50.8 Q26.75 45.6 28.05 35.0" fill="#003300" fill-rule="evenodd" stroke="none"/>
    <path d="M28.05 34.55 Q26.6 44.55 19.65 45.8 L17.95 45.95 17.55 46.0 Q25.45 44.15 28.05 34.55" fill="#003300" fill-rule="evenodd" stroke="none"/>
    <path d="M17.55 46.0 L17.75 45.7 Q24.2 43.1 28.0 34.0 L28.05 34.55 Q25.45 44.15 17.55 46.0" fill="#a3b830" fill-rule="evenodd" stroke="none"/>
    <path d="M28.05 33.75 Q24.55 42.4 17.05 41.7 L17.45 41.55 Q23.55 40.9 28.0 33.2 L28.0 33.55 28.05 33.75" fill="#a3b830" fill-rule="evenodd" stroke="none"/>
    <path d="M17.05 41.7 Q24.55 42.4 28.05 33.75 25.6 43.1 19.1 42.15 L17.55 41.9 17.05 41.7" fill="#003300" fill-rule="evenodd" stroke="none"/>
    <path d="M28.05 33.35 Q24.15 39.75 18.25 37.2 L18.5 37.2 Q23.45 38.3 27.95 32.95 L28.0 33.15 28.05 33.35" fill="#a3b830" fill-rule="evenodd" stroke="none"/>
    <path d="M18.25 37.2 Q24.15 39.75 28.05 33.35 24.85 40.65 19.75 38.15 L18.5 37.45 18.25 37.2" fill="#003300" fill-rule="evenodd" stroke="none"/>
    <path d="M34.15 57.55 L33.75 57.2 32.5 55.65 Q28.15 49.8 28.95 41.1 L29.15 41.95 Q29.35 50.8 34.15 57.55" fill="#003300" fill-rule="evenodd" stroke="none"/>
    <path d="M29.15 41.95 Q30.45 50.85 33.95 57.1 L34.15 57.55 Q29.35 50.8 29.15 41.95" fill="#a3b830" fill-rule="evenodd" stroke="none"/>
    <path d="M30.35 27.95 Q34.65 18.35 30.0 8.25 L30.3 8.8 31.45 10.8 Q35.75 19.35 30.35 27.95" fill="#003300" fill-rule="evenodd" stroke="none"/>
    <path d="M30.35 27.95 L29.8 28.75 Q33.05 17.95 30.0 8.8 L30.0 8.25 Q34.65 18.35 30.35 27.95" fill="#a3b830" fill-rule="evenodd" stroke="none"/>
    <path d="M28.9 31.0 Q32.6 21.1 25.95 9.7 L26.4 10.2 28.0 12.5 Q33.95 22.3 28.9 31.0" fill="#003300" fill-rule="evenodd" stroke="none"/>
    <path d="M28.9 31.0 L28.35 31.85 Q30.7 20.55 26.1 10.15 L25.95 9.7 Q32.6 21.1 28.9 31.0" fill="#a3b830" fill-rule="evenodd" stroke="none"/>
    <path d="M20.45 12.1 Q29.7 20.4 28.75 30.6 L28.6 31.45 Q27.75 20.5 20.8 12.6 L20.45 12.1" fill="#a3b830" fill-rule="evenodd" stroke="none"/>
    <path d="M20.45 12.1 L21.05 12.5 23.05 14.1 Q31.25 21.1 28.75 30.6 29.7 20.4 20.45 12.1" fill="#003300" fill-rule="evenodd" stroke="none"/>
    <path d="M17.15 15.85 Q27.5 21.25 28.6 31.1 L28.5 31.45 Q25.6 21.65 17.4 16.25 L17.15 15.85" fill="#a3b830" fill-rule="evenodd" stroke="none"/>
    <path d="M17.15 15.85 L17.65 16.05 20.05 17.05 Q29.15 21.5 28.6 31.1 27.5 21.25 17.15 15.85" fill="#003300" fill-rule="evenodd" stroke="none"/>
    <path d="M15.5 19.35 Q25.8 22.4 28.35 31.75 L28.35 31.85 28.2 32.15 Q24.1 23.25 15.9 19.7 L15.5 19.35" fill="#a3b830" fill-rule="evenodd" stroke="none"/>
    <path d="M15.5 19.35 L16.0 19.45 18.35 19.95 Q27.35 22.3 28.35 31.75 25.8 22.4 15.5 19.35" fill="#003300" fill-rule="evenodd" stroke="none"/>
    <path d="M15.15 25.55 Q24.0 25.1 28.45 32.2 L28.5 32.3 28.35 32.55 Q22.9 26.3 15.5 25.65 L15.15 25.55" fill="#a3b830" fill-rule="evenodd" stroke="none"/>
    <path d="M15.15 25.55 L15.7 25.4 17.6 25.2 Q25.15 24.6 28.45 32.2 24.0 25.1 15.15 25.55" fill="#003300" fill-rule="evenodd" stroke="none"/>
    <path d="M30.0 27.55 Q33.6 17.65 41.05 14.3 L42.85 13.6 43.25 13.45 Q34.6 17.65 30.0 27.55" fill="#003300" fill-rule="evenodd" stroke="none"/>
    <path d="M43.25 13.45 L42.95 13.8 Q35.55 18.45 29.7 28.45 L30.0 27.55 Q34.6 17.65 43.25 13.45" fill="#a3b830" fill-rule="evenodd" stroke="none"/>
    <path d="M28.5 30.9 Q32.55 21.45 41.5 18.85 L43.6 18.3 44.2 18.25 Q33.9 21.5 28.5 30.9" fill="#003300" fill-rule="evenodd" stroke="none"/>
    <path d="M44.2 18.25 L43.7 18.5 Q34.95 22.35 28.1 31.85 28.25 31.3 28.5 30.9 33.9 21.5 44.2 18.25" fill="#a3b830" fill-rule="evenodd" stroke="none"/>
    <path d="M28.9 30.55 Q34.45 21.55 42.35 21.5 L44.3 21.6 44.75 21.6 Q35.6 22.1 28.9 30.55" fill="#003300" fill-rule="evenodd" stroke="none"/>
    <path d="M44.75 21.6 L44.3 21.8 Q36.25 23.35 28.35 31.3 L28.9 30.55 Q35.6 22.1 44.75 21.6" fill="#a3b830" fill-rule="evenodd" stroke="none"/>
    <path d="M28.65 30.95 Q35.0 23.2 41.55 25.75 L43.05 26.5 43.4 26.7 Q35.8 24.1 28.65 30.95" fill="#003300" fill-rule="evenodd" stroke="none"/>
    <path d="M43.4 26.7 L43.05 26.75 Q36.3 25.7 28.45 31.4 L28.65 30.95 Q35.8 24.1 43.4 26.7" fill="#a3b830" fill-rule="evenodd" stroke="none"/>
    <path d="M28.25 31.65 Q35.65 26.05 41.65 30.5 L41.25 30.45 Q35.7 27.85 28.05 32.1 L28.25 31.8 28.25 31.65" fill="#a3b830" fill-rule="evenodd" stroke="none"/>
    <path d="M28.25 31.65 Q35.15 25.0 40.15 29.1 L41.35 30.15 41.65 30.5 Q35.65 26.05 28.25 31.65" fill="#003300" fill-rule="evenodd" stroke="none"/>
    <path d="M28.1 31.95 Q34.65 28.55 38.35 33.75 L38.1 33.6 Q34.45 30.15 27.95 32.35 L28.0 32.15 28.1 31.95" fill="#a3b830" fill-rule="evenodd" stroke="none"/>
    <path d="M38.35 33.75 Q34.65 28.55 28.1 31.95 34.5 27.4 37.5 32.15 L38.2 33.35 38.35 33.75" fill="#003300" fill-rule="evenodd" stroke="none"/>
    <path d="M31.55 24.1 Q35.0 15.95 35.25 8.9 L35.3 8.35 Q35.9 16.55 31.55 24.1" fill="#a3b830" fill-rule="evenodd" stroke="none"/>
    <path d="M35.3 8.35 L35.45 8.95 35.75 10.8 Q36.4 17.95 31.25 24.9 L31.55 24.1 Q35.9 16.55 35.3 8.35" fill="#003300" fill-rule="evenodd" stroke="none"/>
  </g>
  <defs>
    <linearGradient gradientTransform="matrix(-0.006, 0.0029, 0.0072, -0.0107, 19.7, 34.6)" gradientUnits="userSpaceOnUse" id="gradient0" spreadMethod="pad" x1="-819.2" x2="819.2">
      <stop offset="0.0" stop-color="#8aa11c"/>
      <stop offset="1.0" stop-color="#556512"/>
    </linearGradient>
    <linearGradient gradientTransform="matrix(-0.0017, 0.0064, -0.0034, -0.0125, 21.0, 42.55)" gradientUnits="userSpaceOnUse" id="gradient1" spreadMethod="pad" x1="-819.2" x2="819.2">
      <stop offset="0.0" stop-color="#8aa11c"/>
      <stop offset="1.0" stop-color="#556512"/>
    </linearGradient>
  </defs>
</svg>
