<?xml version="1.0" encoding="UTF-8" standalone="no"?>
<svg xmlns:xlink="http://www.w3.org/1999/xlink" height="56.75px" width="35.45px" xmlns="http://www.w3.org/2000/svg">
  <g transform="matrix(1, 0, 0, 1, -75.6, -443.15)">
    <path d="M111.05 444.5 L111.05 444.65 111.05 499.9 107.25 499.9 107.25 449.85 107.1 447.5 111.05 444.5" fill="#990000" fill-rule="evenodd" stroke="none"/>
    <path d="M77.0 446.75 L81.4 443.45 83.1 443.15 109.5 443.15 Q110.85 443.15 111.05 444.5 L107.1 447.5 Q106.25 446.15 105.0 446.15 L79.0 446.15 Q77.8 446.25 77.0 446.75" fill="#c60000" fill-rule="evenodd" stroke="none"/>
    <path d="M107.25 499.9 L75.6 499.9 75.6 448.5 Q76.0 447.3 77.0 446.75 77.8 446.25 79.0 446.15 L105.0 446.15 Q106.25 446.15 107.1 447.5 L107.25 449.85 107.25 499.9" fill="#790000" fill-rule="evenodd" stroke="none"/>
  </g>
</svg>
