<?xml version="1.0" encoding="UTF-8" standalone="no"?>
<svg xmlns:xlink="http://www.w3.org/1999/xlink" height="137.7px" width="211.3px" xmlns="http://www.w3.org/2000/svg">
  <g transform="matrix(1, 0, 0, 1, -1537.1, -1508.0)">
    <path d="M1608.7 1564.85 L1608.7 1508.5 1747.9 1508.5 1747.9 1564.85 1608.7 1564.85" fill="#cccccc" fill-rule="evenodd" stroke="none"/>
    <path d="M1608.7 1564.85 L1747.9 1564.85 1747.9 1508.5 1608.7 1508.5 1608.7 1564.85" fill="none" stroke="#990000" stroke-linecap="round" stroke-linejoin="round" stroke-width="1.0"/>
    <path d="M1537.6 1564.0 L1537.6 1528.45 1608.9 1528.45 1608.9 1564.0 1537.6 1564.0" fill="#cccccc" fill-rule="evenodd" stroke="none"/>
    <path d="M1537.6 1564.0 L1608.9 1564.0 1608.9 1528.45 1537.6 1528.45 1537.6 1564.0" fill="none" stroke="#990000" stroke-linecap="round" stroke-linejoin="round" stroke-width="1.0"/>
    <path d="M1654.85 1564.5 L1747.9 1564.5 1747.9 1645.2 1654.85 1645.2 1654.85 1564.5" fill="#cccccc" fill-rule="evenodd" stroke="none"/>
    <path d="M1654.85 1564.5 L1654.85 1645.2 1747.9 1645.2 1747.9 1564.5 1654.85 1564.5" fill="none" stroke="#990000" stroke-linecap="round" stroke-linejoin="round" stroke-width="1.0"/>
  </g>
</svg>
