<?xml version="1.0" encoding="UTF-8" standalone="no"?>
<svg xmlns:xlink="http://www.w3.org/1999/xlink" height="45.6px" width="83.5px" xmlns="http://www.w3.org/2000/svg">
  <g transform="matrix(1, 0, 0, 1, 0.0, 0.0)">
    <path d="M83.5 45.35 L0.0 45.35 0.0 0.0 83.5 0.0 83.5 45.35" fill="#ca3531" fill-rule="evenodd" stroke="none"/>
    <path d="M0.0 45.35 L0.0 0.0 2.6 0.0 2.6 45.35 0.0 45.35" fill="url(#gradient0)" fill-rule="evenodd" stroke="none"/>
    <path d="M83.5 45.6 L80.9 45.6 80.9 0.25 83.5 0.25 83.5 45.6" fill="url(#gradient1)" fill-rule="evenodd" stroke="none"/>
    <path d="M83.45 2.6 L0.5 2.6 0.5 0.0 83.45 0.0 83.45 2.6" fill="url(#gradient2)" fill-rule="evenodd" stroke="none"/>
    <path d="M83.45 42.8 L83.45 45.4 0.5 45.4 0.5 42.8 83.45 42.8" fill="url(#gradient3)" fill-rule="evenodd" stroke="none"/>
  </g>
  <defs>
    <linearGradient gradientTransform="matrix(-0.0016, 0.0, 0.0, 0.0277, 1.3, 22.65)" gradientUnits="userSpaceOnUse" id="gradient0" spreadMethod="pad" x1="-819.2" x2="819.2">
      <stop offset="0.0" stop-color="#ffffff" stop-opacity="0.0"/>
      <stop offset="1.0" stop-color="#000000" stop-opacity="0.4"/>
    </linearGradient>
    <linearGradient gradientTransform="matrix(0.0016, 0.0, 0.0, 0.0277, 82.2, 22.9)" gradientUnits="userSpaceOnUse" id="gradient1" spreadMethod="pad" x1="-819.2" x2="819.2">
      <stop offset="0.0" stop-color="#ffffff" stop-opacity="0.0"/>
      <stop offset="1.0" stop-color="#000000" stop-opacity="0.4"/>
    </linearGradient>
    <linearGradient gradientTransform="matrix(0.0, -0.0016, 0.0507, 0.0, 42.0, 1.3)" gradientUnits="userSpaceOnUse" id="gradient2" spreadMethod="pad" x1="-819.2" x2="819.2">
      <stop offset="0.0" stop-color="#ffffff" stop-opacity="0.0"/>
      <stop offset="1.0" stop-color="#000000" stop-opacity="0.4"/>
    </linearGradient>
    <linearGradient gradientTransform="matrix(0.0, 0.0016, 0.0507, 0.0, 42.0, 44.1)" gradientUnits="userSpaceOnUse" id="gradient3" spreadMethod="pad" x1="-819.2" x2="819.2">
      <stop offset="0.0" stop-color="#ffffff" stop-opacity="0.0"/>
      <stop offset="1.0" stop-color="#000000" stop-opacity="0.4"/>
    </linearGradient>
  </defs>
</svg>
