<?xml version="1.0" encoding="UTF-8" standalone="no"?>
<svg xmlns:xlink="http://www.w3.org/1999/xlink" height="17.85px" width="534.2px" xmlns="http://www.w3.org/2000/svg">
  <g transform="matrix(1, 0, 0, 1, 0.0, 0.0)">
    <path d="M534.2 14.0 Q534.2 17.85 531.15 17.85 L3.05 17.85 Q0.0 17.85 0.0 14.0 L0.0 4.05 Q0.0 0.2 3.05 0.2 L531.15 0.2 Q534.2 0.2 534.2 4.05 L534.2 14.0" fill="#ffffff" fill-rule="evenodd" stroke="none"/>
    <path d="M43.55 17.85 L4.25 17.85 21.8 0.0 61.1 0.0 43.55 17.85" fill="#990000" fill-rule="evenodd" stroke="none"/>
    <path d="M109.85 17.85 L70.55 17.85 88.1 0.0 127.4 0.0 109.85 17.85" fill="#990000" fill-rule="evenodd" stroke="none"/>
    <path d="M176.15 17.85 L136.85 17.85 154.4 0.0 193.7 0.0 176.15 17.85" fill="#990000" fill-rule="evenodd" stroke="none"/>
    <path d="M220.65 0.0 L259.95 0.0 242.4 17.85 203.1 17.85 220.65 0.0" fill="#990000" fill-rule="evenodd" stroke="none"/>
    <path d="M286.95 0.0 L326.25 0.0 308.7 17.85 269.4 17.85 286.95 0.0" fill="#990000" fill-rule="evenodd" stroke="none"/>
    <path d="M375.0 17.85 L335.7 17.85 353.25 0.0 392.55 0.0 375.0 17.85" fill="#990000" fill-rule="evenodd" stroke="none"/>
    <path d="M441.25 17.85 L401.95 17.85 419.5 0.0 458.8 0.0 441.25 17.85" fill="#990000" fill-rule="evenodd" stroke="none"/>
    <path d="M507.55 17.85 L468.25 17.85 485.8 0.0 525.1 0.0 507.55 17.85" fill="#990000" fill-rule="evenodd" stroke="none"/>
    <path d="M530.1 8.65 L530.1 12.15 Q530.1 13.5 527.3 13.5 L36.95 13.5 Q34.1 13.5 34.1 12.15 L34.1 8.65 Q34.1 7.3 36.95 7.3 L527.3 7.3 Q530.1 7.3 530.1 8.65" fill="#666666" fill-rule="evenodd" stroke="none"/>
    <path d="M530.15 9.35 Q530.15 10.4 527.35 10.4 L36.95 10.4 Q34.15 10.4 34.15 9.35 L34.15 6.7 Q34.15 5.65 36.95 5.65 L527.35 5.65 Q530.15 5.65 530.15 6.7 L530.15 9.35" fill="#cccccc" fill-rule="evenodd" stroke="none"/>
    <path d="M530.1 8.65 L530.1 12.15 Q530.1 13.5 527.3 13.5 L36.95 13.5 Q34.1 13.5 34.1 12.15 L34.1 8.65 Q34.1 7.3 36.95 7.3 L527.3 7.3 Q530.1 7.3 530.1 8.65" fill="#666666" fill-rule="evenodd" stroke="none"/>
    <path d="M530.15 9.35 Q530.15 10.4 527.35 10.4 L36.95 10.4 Q34.15 10.4 34.15 9.35 L34.15 6.7 Q34.15 5.65 36.95 5.65 L527.35 5.65 Q530.15 5.65 530.15 6.7 L530.15 9.35" fill="#cccccc" fill-rule="evenodd" stroke="none"/>
  </g>
</svg>
