<?xml version="1.0" encoding="UTF-8" standalone="no"?>
<svg xmlns:xlink="http://www.w3.org/1999/xlink" height="88.65px" width="12.3px" xmlns="http://www.w3.org/2000/svg">
  <g transform="matrix(1, 0, 0, 1, -1.2, 0.0)">
    <path d="M4.8 88.4 L4.8 0.45 4.7 0.45 4.7 0.0 13.5 3.1 13.5 84.5 4.8 88.4" fill="#ca3531" fill-rule="evenodd" stroke="none"/>
    <path d="M4.8 88.4 L4.8 88.65 1.2 88.65 1.2 0.45 4.7 0.45 4.8 0.45 4.8 88.4" fill="#741f1d" fill-rule="evenodd" stroke="none"/>
    <path d="M11.3 77.1 L11.45 76.95 11.45 77.35 11.45 77.9 11.45 78.5 11.4 79.1 11.45 79.75 11.45 80.5 Q11.35 80.8 11.4 81.05 L11.2 81.05 11.25 80.65 11.2 80.25 11.2 79.9 10.8 80.0 10.1 80.45 9.25 80.9 8.6 81.3 8.25 81.5 7.95 81.75 7.25 82.05 6.7 82.35 6.3 82.6 6.25 83.05 6.25 83.55 6.15 84.0 6.0 84.15 6.05 83.55 6.0 82.85 6.0 82.1 6.0 81.5 Q5.95 80.5 6.05 79.8 L6.25 78.5 6.6 77.65 7.05 77.1 7.3 76.85 8.05 76.7 8.5 77.05 8.9 77.7 9.15 78.5 9.25 79.0 9.05 79.15 9.0 78.7 8.7 78.25 Q8.55 78.0 8.25 78.0 L7.55 78.1 6.85 78.7 6.4 79.6 6.3 80.4 Q6.2 80.85 6.25 81.2 L6.6 81.15 Q6.8 80.9 7.1 80.8 L7.75 80.45 Q8.05 80.25 8.3 80.15 L8.65 79.95 9.15 79.75 Q9.4 79.5 9.75 79.35 L10.4 78.95 Q10.65 78.85 10.95 78.7 L11.2 78.5 11.25 78.05 11.3 77.5 11.3 77.1 M9.15 67.0 Q8.3 67.25 7.75 68.0 7.05 68.85 6.75 69.75 6.35 70.75 6.35 71.7 6.3 72.3 6.4 72.8 6.55 73.4 6.85 73.7 L7.65 74.15 8.65 73.9 9.6 73.15 10.45 72.0 11.05 70.5 11.3 68.9 11.0 67.6 10.2 66.9 9.15 67.0 M6.7 68.0 L7.3 66.95 7.9 66.3 8.6 65.8 Q9.5 65.45 10.25 65.8 10.85 66.1 11.25 67.0 11.6 67.9 11.6 69.3 L11.5 70.4 11.25 71.75 10.75 73.1 9.95 74.4 8.95 75.05 7.85 75.35 Q7.3 75.2 6.9 74.75 6.45 74.3 6.25 73.55 6.0 72.65 6.05 71.4 6.05 70.5 6.2 69.7 6.3 68.85 6.7 68.0 M11.3 60.45 L11.0 60.05 10.5 59.95 9.95 60.4 9.6 61.05 9.3 61.8 8.75 63.05 8.2 63.9 7.5 64.5 6.9 64.45 6.35 63.95 Q6.1 63.4 6.1 62.6 L6.15 61.7 6.25 61.05 5.95 61.1 5.6 61.05 5.6 60.75 6.7 60.65 7.7 60.3 7.65 60.6 7.35 60.7 7.1 60.85 6.8 61.25 6.45 61.85 6.35 62.7 6.45 63.4 6.85 63.7 7.15 63.75 7.6 63.35 7.95 62.65 8.3 61.7 8.7 60.65 9.3 59.75 10.15 59.15 10.9 59.3 Q11.25 59.5 11.45 60.05 L11.65 61.3 11.6 61.9 11.55 62.45 11.45 62.9 11.7 62.9 11.95 62.9 12.2 62.85 12.25 63.1 12.05 63.1 11.8 63.15 11.35 63.3 11.1 63.4 10.9 63.4 10.5 63.5 10.2 63.7 9.95 63.75 10.0 63.55 10.15 63.45 10.4 63.35 Q10.55 63.2 10.65 63.2 L11.2 62.35 11.4 61.2 11.3 60.45 M11.45 52.1 L11.6 52.0 11.6 52.4 11.6 52.9 11.55 53.6 11.55 54.1 11.55 54.6 11.55 55.15 11.55 55.8 11.55 56.15 11.4 56.15 11.4 55.7 11.35 55.25 11.3 54.8 10.8 55.0 10.15 55.05 9.45 55.3 8.9 55.5 8.5 55.6 7.95 55.75 7.45 55.9 6.95 56.1 6.65 56.15 Q6.6 57.1 6.7 57.7 L6.85 58.6 6.95 58.95 7.25 59.05 7.65 59.05 7.7 59.25 7.2 59.4 6.45 59.5 Q6.05 59.5 5.7 59.75 L5.8 59.45 6.0 59.4 6.3 59.2 6.35 58.85 6.35 57.9 6.35 56.75 6.35 55.55 Q6.3 54.9 6.4 54.3 L6.4 53.1 6.4 52.2 6.35 51.75 6.1 51.75 5.85 51.7 5.85 51.45 6.05 51.5 6.6 51.4 7.1 51.35 7.55 51.35 7.85 51.3 7.8 51.6 7.35 51.65 7.0 51.75 6.9 52.2 6.8 53.0 6.7 53.9 6.65 54.75 6.95 54.75 7.45 54.6 8.0 54.45 8.5 54.3 8.9 54.2 9.45 54.05 10.15 53.8 10.8 53.7 Q11.1 53.5 11.3 53.45 L11.4 53.2 11.4 52.8 11.45 52.4 11.45 52.1 M9.4 39.55 Q8.55 39.65 8.0 40.2 7.35 40.75 7.0 41.6 6.6 42.4 6.65 43.45 L6.7 44.5 7.15 45.45 7.9 46.05 8.85 46.15 Q9.35 46.05 9.85 45.65 L10.65 44.75 11.25 43.55 11.45 42.05 11.2 40.7 10.45 39.8 9.4 39.55 M8.15 38.55 Q8.5 38.35 8.8 38.3 9.75 38.25 10.4 38.75 11.05 39.2 11.4 40.2 L11.8 42.5 11.7 43.6 11.45 44.8 10.95 45.95 10.15 46.95 Q9.7 47.25 9.15 47.35 L8.1 47.25 7.2 46.45 Q6.75 45.95 6.55 45.05 6.25 44.2 6.3 43.0 L6.5 41.4 Q6.6 40.6 6.95 39.85 7.15 39.35 7.55 39.0 L8.15 38.55 M11.55 34.0 L11.55 33.55 11.7 33.45 11.7 34.0 11.7 34.7 11.7 35.45 11.75 36.0 11.75 36.65 11.75 37.15 11.6 37.05 11.6 36.8 11.55 36.35 11.45 35.95 11.2 36.0 10.6 36.0 10.0 36.05 9.35 36.15 8.9 36.15 8.3 36.2 7.65 36.25 7.05 36.4 6.75 36.35 6.7 36.65 6.7 37.2 6.65 37.6 6.55 37.65 6.55 37.1 6.55 36.35 6.55 35.75 6.55 35.2 6.55 34.35 6.55 33.45 6.55 32.65 6.55 32.2 6.4 32.15 6.15 32.1 5.95 32.1 5.95 31.8 6.3 31.95 6.8 31.95 7.4 31.95 7.85 32.0 7.75 32.2 7.6 32.15 7.4 32.25 7.15 32.3 6.95 32.85 6.85 33.6 6.75 34.4 6.75 35.0 7.0 35.05 7.6 35.0 8.25 35.0 8.8 35.0 8.95 34.95 8.95 34.4 8.95 33.7 8.9 33.1 8.85 32.65 8.65 32.65 8.4 32.55 8.45 32.3 8.85 32.4 9.4 32.4 10.05 32.4 10.0 32.65 9.65 32.7 9.35 32.75 9.25 33.1 9.2 33.65 9.2 34.35 9.15 34.95 9.45 34.95 9.95 34.85 10.6 34.8 11.15 34.7 11.45 34.65 11.55 34.0 M11.6 26.9 L11.8 26.9 11.7 27.4 11.7 28.1 11.7 28.85 11.75 29.45 11.75 30.0 11.75 30.5 11.6 30.5 11.6 30.2 11.55 29.7 11.5 29.3 11.25 29.35 10.65 29.3 10.05 29.3 9.35 29.35 8.95 29.35 8.3 29.35 7.7 29.35 7.1 29.45 6.8 29.4 6.75 29.7 6.75 30.2 Q6.6 30.4 6.7 30.6 L6.6 30.65 6.6 30.1 6.6 29.3 6.55 28.7 6.55 28.2 6.55 27.4 6.65 26.45 6.6 25.65 6.55 25.25 6.45 25.15 6.25 25.15 6.0 25.05 6.0 24.85 6.35 24.95 6.85 25.0 7.4 25.05 7.9 25.1 7.8 25.35 7.6 25.3 7.4 25.35 7.25 25.35 7.05 25.95 6.95 26.65 6.8 27.45 6.8 28.05 7.05 28.1 7.65 28.1 8.25 28.15 8.85 28.1 9.0 28.1 9.0 27.6 Q8.95 27.3 9.05 26.9 L8.95 26.3 8.9 25.9 8.7 25.8 8.5 25.75 8.5 25.5 8.9 25.6 9.55 25.7 10.15 25.75 10.1 25.95 9.8 25.95 9.45 26.0 9.35 26.35 9.3 26.95 Q9.2 27.2 9.25 27.55 L9.2 28.1 9.45 28.15 10.0 28.1 10.6 28.1 11.15 28.1 11.45 28.0 11.55 27.4 11.6 26.9 M9.35 21.4 L10.05 21.45 10.75 21.5 11.3 21.55 11.55 21.5 11.6 21.1 11.65 20.75 11.65 20.45 11.8 20.45 11.8 20.9 11.8 21.65 11.75 22.35 11.75 22.85 11.8 23.45 11.8 23.95 11.65 23.9 11.65 23.6 11.6 23.1 11.55 22.75 11.2 22.7 10.55 22.7 9.8 22.65 9.2 22.6 8.75 22.6 8.45 22.5 7.8 22.5 7.25 22.45 6.85 22.5 6.8 22.85 6.8 23.35 Q6.7 23.55 6.75 23.7 L6.6 23.75 6.6 23.25 6.6 22.5 6.6 21.65 6.65 21.05 6.65 20.4 6.65 20.0 6.75 20.05 6.85 20.4 6.85 20.7 6.9 21.2 7.3 21.25 7.95 21.35 8.85 21.35 9.35 21.4 M11.25 11.95 L11.55 12.15 11.7 12.65 11.85 13.7 11.95 15.1 11.95 15.7 11.8 16.5 11.6 17.35 Q11.25 18.3 10.7 18.85 10.1 19.25 9.45 19.25 L8.5 18.95 7.7 18.3 7.2 17.4 6.75 16.25 6.65 15.2 6.6 14.1 6.65 13.15 6.7 12.35 6.75 11.9 6.6 11.75 6.35 11.65 6.1 11.55 6.05 11.3 7.35 11.65 8.4 11.95 8.35 12.2 8.15 12.1 7.95 12.15 7.8 12.1 7.4 12.5 7.0 13.35 Q6.85 13.85 6.85 14.6 6.85 15.5 7.15 16.25 L7.85 17.45 Q8.4 17.9 8.95 17.95 L10.0 17.8 10.8 17.0 11.4 15.9 11.6 14.4 11.5 13.2 11.25 11.95 M10.85 6.1 L10.8 5.85 11.1 5.95 11.55 6.2 12.1 6.35 12.4 6.55 12.35 6.75 12.2 6.7 11.95 6.65 11.9 7.0 11.85 7.7 11.85 8.5 11.85 9.3 11.85 9.8 11.85 10.3 11.85 10.9 11.9 11.35 11.75 11.25 11.75 11.0 11.7 10.5 11.6 10.2 11.4 10.1 10.8 10.05 Q10.45 9.85 10.1 9.8 L9.4 9.7 9.1 9.65 8.5 9.5 7.95 9.45 7.4 9.35 7.0 9.3 7.0 9.6 6.95 10.05 6.9 10.4 6.75 10.45 6.75 10.0 6.75 9.5 6.75 8.95 6.75 8.55 6.75 8.1 6.75 7.35 6.75 6.5 6.75 5.75 6.75 5.4 6.6 5.3 6.45 5.25 6.4 5.0 6.65 5.1 7.15 5.25 7.65 5.45 7.95 5.55 7.85 5.7 7.7 5.7 7.45 5.65 7.3 5.65 7.15 5.95 7.05 6.65 Q6.95 7.0 7.0 7.3 L7.0 7.95 7.2 8.0 7.6 8.15 8.15 8.3 8.65 8.35 9.0 8.4 9.1 8.45 9.1 7.55 9.05 6.75 9.0 6.3 8.85 6.15 8.7 6.05 8.75 5.9 8.9 6.05 9.3 6.15 9.75 6.3 10.05 6.5 10.0 6.7 9.75 6.6 9.5 6.55 Q9.35 6.65 9.45 7.0 L9.35 7.65 9.3 8.45 9.45 8.5 9.85 8.6 10.4 8.75 10.95 8.8 11.4 8.9 11.65 8.95 11.6 7.9 11.55 7.05 11.45 6.45 11.1 6.25 10.85 6.1" fill="#e2e2d6" fill-rule="evenodd" stroke="none"/>
  </g>
</svg>
