<?xml version="1.0" encoding="UTF-8" standalone="no"?>
<svg xmlns:xlink="http://www.w3.org/1999/xlink" height="88.65px" width="12.3px" xmlns="http://www.w3.org/2000/svg">
  <g transform="matrix(1, 0, 0, 1, -1.2, 0.0)">
    <path d="M4.8 88.4 L4.8 0.45 4.7 0.45 4.7 0.0 13.5 3.1 13.5 84.5 4.8 88.4" fill="#ca3531" fill-rule="evenodd" stroke="none"/>
    <path d="M4.7 0.45 L4.8 0.45 4.8 88.4 4.8 88.65 1.2 88.65 1.2 0.45 4.7 0.45" fill="#741f1d" fill-rule="evenodd" stroke="none"/>
    <path d="M11.7 10.45 L11.85 15.65 11.9 18.95 9.85 16.75 7.8 13.9 7.8 10.1 9.9 13.0 10.95 14.3 10.95 11.7 10.85 9.15 11.7 10.45 M8.4 17.25 L8.45 20.9 8.5 23.8 8.85 24.25 9.35 24.8 9.25 21.95 9.2 19.1 10.05 20.15 10.1 22.95 10.15 25.75 10.55 26.4 10.95 26.8 10.9 23.55 10.85 20.35 11.7 21.35 11.7 26.45 11.85 31.6 10.15 29.7 8.55 27.8 8.6 29.15 7.85 28.25 7.7 20.55 7.6 16.3 8.4 17.25 M8.8 34.9 L10.55 37.3 11.85 38.85 11.8 42.45 10.25 40.85 8.6 38.5 8.65 42.55 7.85 41.5 7.6 29.4 8.55 30.55 8.65 37.05 8.8 34.9 M8.9 47.8 Q8.5 48.35 8.55 50.75 8.6 52.55 9.05 54.0 9.4 55.2 9.85 55.75 10.3 56.25 10.6 55.95 10.95 55.6 10.95 53.8 10.95 52.15 10.55 50.7 10.2 49.5 9.85 49.0 9.4 48.5 9.15 49.2 L8.9 47.8 M8.65 45.65 Q9.1 44.55 9.75 45.4 10.45 46.3 11.05 48.9 11.7 51.7 11.75 54.85 11.8 58.1 11.2 59.25 L9.85 59.3 Q9.1 58.3 8.45 55.8 7.75 53.0 7.65 49.65 7.6 45.35 8.4 44.35 L8.65 45.65 M9.7 61.45 L11.65 63.5 11.65 67.3 10.3 65.65 10.25 70.4 10.95 71.35 11.8 72.25 11.8 76.05 10.7 74.8 7.8 70.85 7.8 67.05 9.4 69.0 9.4 64.9 9.05 64.45 8.6 63.85 7.6 62.35 7.6 58.55 9.7 61.45" fill="#ffff66" fill-rule="evenodd" stroke="none"/>
  </g>
</svg>
