<?xml version="1.0" encoding="UTF-8" standalone="no"?>
<svg xmlns:xlink="http://www.w3.org/1999/xlink" height="152.65px" width="14.7px" xmlns="http://www.w3.org/2000/svg">
  <g transform="matrix(1, 0, 0, 1, 0.0, 0.0)">
    <path d="M4.3 152.4 L4.3 0.45 4.2 0.45 4.2 0.0 14.7 3.1 14.7 148.5 4.3 152.4" fill="#666666" fill-rule="evenodd" stroke="none"/>
    <path d="M4.3 152.4 L4.3 152.65 0.0 152.65 0.0 0.45 4.2 0.45 4.3 0.45 4.3 152.4" fill="#cccccc" fill-rule="evenodd" stroke="none"/>
    <path d="M12.1 8.7 L12.1 14.7 Q12.1 17.05 11.55 17.05 L9.15 17.05 9.15 18.25 8.05 18.25 8.05 17.05 7.8 17.05 7.8 12.25 8.05 12.25 8.05 6.3 9.15 6.3 9.15 12.25 11.05 12.25 11.05 11.1 9.4 11.1 9.4 6.3 11.55 6.3 Q12.1 6.3 12.1 8.7 M8.9 23.9 L8.9 25.05 9.4 25.05 9.4 23.9 8.9 23.9 M8.35 19.1 L10.5 19.1 10.5 25.05 11.05 25.05 11.05 23.9 10.75 23.9 10.75 19.1 11.55 19.1 Q12.1 19.1 12.1 21.5 L12.1 27.45 Q12.1 29.85 11.55 29.85 L8.35 29.85 Q7.8 29.85 7.8 27.45 L7.8 21.5 Q7.8 19.1 8.35 19.1 M12.1 35.6 L11.45 37.15 12.1 37.15 12.1 41.8 7.8 41.8 7.8 37.15 8.45 37.15 7.8 35.6 7.8 30.55 9.95 35.3 12.1 30.55 12.1 35.6 M9.55 43.0 Q9.8 43.0 9.95 44.2 10.1 43.0 10.35 43.0 L12.1 43.0 12.1 47.8 10.5 47.8 10.5 48.95 12.1 48.95 12.1 53.75 7.8 53.75 7.8 45.4 Q7.8 43.0 8.35 43.0 L9.55 43.0 M8.9 48.95 L9.4 48.95 9.4 47.8 8.9 47.8 8.9 48.95 M10.5 60.95 L11.05 60.95 11.05 59.8 10.5 59.8 10.5 60.95 M8.9 59.8 L8.9 60.95 9.15 60.95 9.15 65.75 8.35 65.75 Q7.8 65.75 7.8 63.35 L7.8 57.4 Q7.8 55.0 8.35 55.0 L12.1 55.0 12.1 63.35 Q12.1 65.75 11.55 65.75 L9.95 65.75 Q9.4 65.75 9.4 63.35 L9.4 59.8 8.9 59.8 M7.95 67.8 Q8.1 66.95 8.35 66.95 L12.1 66.95 12.1 71.75 8.9 71.75 8.9 72.95 12.1 72.95 12.1 77.75 8.9 77.75 8.9 78.9 12.1 78.9 12.1 83.7 7.8 83.7 7.8 78.9 8.05 78.9 Q7.8 78.05 7.8 75.35 7.8 73.95 8.1 73.2 7.9 72.5 7.85 71.45 L7.8 69.4 Q7.8 68.55 7.95 67.8 M12.1 84.9 L12.1 89.7 10.5 89.7 10.5 90.85 12.1 90.85 12.1 95.65 7.8 95.65 7.8 87.3 Q7.8 84.9 8.35 84.9 L9.55 84.9 Q9.8 84.9 9.95 86.1 10.1 84.9 10.35 84.9 L12.1 84.9 M8.9 90.85 L9.4 90.85 9.4 89.7 8.9 89.7 8.9 90.85 M11.55 96.9 Q12.1 96.9 12.1 99.3 L12.1 105.25 Q12.1 107.65 11.55 107.65 L8.35 107.65 Q7.8 107.65 7.8 105.25 L7.8 99.3 Q7.8 96.9 8.35 96.9 L10.5 96.9 10.5 102.85 11.05 102.85 11.05 101.7 10.75 101.7 10.75 96.9 11.55 96.9 M8.35 108.85 L9.95 108.85 Q10.5 108.85 10.5 111.25 L10.5 114.8 12.1 114.8 12.1 119.6 7.8 119.6 7.8 111.25 Q7.8 108.85 8.35 108.85 M8.9 102.85 L9.4 102.85 9.4 101.7 8.9 101.7 8.9 102.85 M8.9 114.8 L9.4 114.8 9.4 113.65 8.9 113.65 8.9 114.8 M12.1 123.25 L12.1 129.2 Q12.1 131.6 11.55 131.6 L7.8 131.6 7.8 126.8 11.05 126.8 11.05 125.65 7.8 125.65 7.8 120.85 11.55 120.85 Q12.1 120.85 12.1 123.25 M12.1 135.2 L12.1 141.15 Q12.1 143.55 11.55 143.55 L10.75 143.55 10.75 138.75 11.05 138.75 11.05 137.6 10.5 137.6 10.5 141.15 Q10.5 143.55 9.95 143.55 L8.35 143.55 Q7.8 143.55 7.8 141.15 L7.8 135.2 Q7.8 132.8 8.35 132.8 L9.15 132.8 9.15 137.6 8.9 137.6 8.9 138.75 9.4 138.75 9.4 135.2 Q9.4 132.8 9.95 132.8 L11.55 132.8 Q12.1 132.8 12.1 135.2" fill="#ffcc33" fill-rule="evenodd" stroke="none"/>
  </g>
</svg>
