<?xml version="1.0" encoding="UTF-8" standalone="no"?>
<svg xmlns:xlink="http://www.w3.org/1999/xlink" height="88.65px" width="12.3px" xmlns="http://www.w3.org/2000/svg">
  <g transform="matrix(1, 0, 0, 1, -1.2, 0.0)">
    <path d="M4.7 0.45 L4.7 0.0 13.5 3.1 13.5 84.5 4.8 88.4 4.8 0.45 4.7 0.45" fill="#ca3531" fill-rule="evenodd" stroke="none"/>
    <path d="M4.8 88.4 L4.8 88.65 1.2 88.65 1.2 0.45 4.7 0.45 4.8 0.45 4.8 88.4" fill="#741f1d" fill-rule="evenodd" stroke="none"/>
    <path d="M11.5 78.6 L11.65 78.55 11.65 79.0 11.65 79.65 11.65 80.3 11.65 80.85 11.7 81.6 11.7 82.4 11.7 82.95 11.55 82.9 11.55 82.55 11.5 82.05 11.45 81.6 11.0 81.6 10.25 81.55 9.45 81.55 8.75 81.55 8.45 81.55 8.1 81.55 7.5 81.6 6.95 81.65 6.55 81.65 6.5 82.05 6.5 82.55 6.45 82.95 6.3 83.0 6.3 82.5 6.3 81.75 6.3 80.9 6.25 80.3 6.3 78.6 6.45 77.4 6.8 76.6 7.15 76.25 7.4 76.2 8.1 76.4 8.6 77.0 9.0 77.9 9.25 78.85 9.35 79.55 9.15 79.5 9.1 79.0 8.85 78.4 8.4 77.85 7.65 77.65 Q7.3 77.65 7.05 77.9 L6.65 78.65 6.5 79.35 6.45 80.2 6.8 80.25 7.3 80.25 7.9 80.2 8.45 80.2 8.75 80.2 9.25 80.2 9.9 80.2 10.55 80.2 11.1 80.15 11.4 80.15 11.4 79.7 11.45 79.1 11.5 78.6 M6.95 60.0 L6.5 60.25 7.15 60.6 7.85 60.95 8.45 61.3 8.8 61.5 8.8 58.95 8.25 59.25 7.6 59.65 6.95 60.0 M11.3 55.4 L11.35 54.85 11.5 54.8 11.5 55.1 11.5 55.65 11.5 56.25 11.5 56.85 11.5 57.25 11.5 57.9 11.5 58.5 11.5 58.9 11.35 58.85 11.3 58.2 11.25 57.6 10.9 57.8 10.35 58.1 9.75 58.4 9.3 58.7 9.0 58.85 9.0 59.45 9.05 60.25 9.1 61.1 9.15 61.7 9.45 61.8 10.05 62.1 10.7 62.35 11.3 62.55 11.35 62.0 11.4 61.5 11.55 61.45 11.55 62.0 11.55 62.75 11.55 63.25 11.55 63.7 11.55 64.25 11.55 64.6 11.55 64.7 11.55 64.95 11.55 65.5 11.55 66.1 11.55 66.65 11.6 67.35 11.6 68.1 11.6 68.7 11.45 68.65 11.45 68.3 11.4 67.85 11.35 67.45 10.9 67.4 10.15 67.4 9.3 67.4 8.85 67.4 8.9 67.95 8.9 68.9 8.95 70.05 8.95 71.15 9.0 72.05 9.05 72.4 9.3 72.4 10.1 72.4 10.85 72.4 11.35 72.35 11.4 71.9 11.45 71.5 11.45 71.15 11.6 71.1 11.6 71.4 11.6 71.95 11.6 72.55 11.6 73.05 11.6 73.8 11.65 74.6 11.65 75.2 11.5 75.15 11.5 74.7 11.45 74.2 11.35 73.85 10.9 73.85 10.3 73.8 9.65 73.8 9.1 73.8 8.4 73.8 8.05 73.8 7.45 73.85 6.85 73.9 6.45 73.9 6.45 74.25 6.45 74.75 6.4 75.2 6.25 75.25 6.25 74.75 6.25 73.95 6.25 73.1 6.25 72.3 6.2 71.55 6.2 71.15 6.35 71.2 6.4 71.6 6.4 72.05 6.45 72.4 6.85 72.45 7.55 72.45 8.25 72.4 8.6 72.4 8.6 71.95 8.6 71.1 8.6 69.95 8.6 68.85 8.6 67.9 8.6 67.4 8.25 67.4 7.75 67.45 7.2 67.45 6.75 67.45 6.45 67.5 6.4 67.85 6.4 68.3 6.35 68.7 6.2 68.75 6.2 68.3 6.25 67.5 6.2 66.7 6.2 65.85 6.15 65.1 6.15 64.65 6.3 64.75 6.35 65.1 6.35 65.55 6.4 65.95 6.65 66.0 7.1 66.0 7.65 66.05 8.1 66.0 8.35 66.0 8.9 66.0 9.6 66.0 10.35 66.0 10.95 65.95 11.3 65.9 11.35 65.55 11.4 65.05 11.4 64.65 11.35 64.1 11.3 63.6 10.8 63.25 9.9 62.65 8.75 62.0 7.7 61.35 6.85 60.85 6.4 60.65 6.35 61.1 6.3 61.6 6.15 61.6 6.15 61.05 6.15 60.45 6.15 60.05 6.15 59.35 6.1 58.55 6.1 57.95 6.25 57.95 6.3 58.45 6.35 58.9 6.75 58.7 7.35 58.4 8.05 57.95 8.7 57.55 9.25 57.25 9.95 56.85 10.65 56.4 11.25 55.9 11.3 55.4 M8.0 49.4 L7.35 49.25 Q7.1 49.2 6.85 49.5 6.6 49.75 6.45 50.35 L6.25 52.05 6.65 52.05 7.3 52.05 7.95 52.0 8.5 52.05 8.75 52.05 8.7 51.35 8.6 50.55 8.4 49.95 8.0 49.4 M6.6 48.05 Q6.85 47.75 7.15 47.75 L7.65 47.95 8.15 48.55 8.6 49.4 8.9 49.15 9.5 48.55 10.25 47.75 11.0 46.9 11.4 46.3 11.55 46.05 11.6 46.6 11.3 47.35 10.65 48.45 9.9 49.55 9.25 50.45 8.9 50.85 8.95 51.55 8.95 52.05 9.15 52.05 9.65 52.0 10.25 52.0 10.8 52.0 11.2 52.0 11.25 51.6 11.3 51.1 11.3 50.7 11.45 50.65 11.45 51.2 11.45 52.0 11.45 52.75 11.45 53.25 11.5 53.85 11.5 54.45 11.5 54.8 11.35 54.75 11.35 54.4 11.3 53.9 11.2 53.45 10.8 53.45 10.15 53.4 9.35 53.4 8.65 53.4 8.2 53.4 7.9 53.4 7.45 53.45 6.95 53.45 6.55 53.5 6.3 53.5 6.35 53.85 6.3 54.4 6.3 54.8 6.1 54.85 6.05 52.25 6.05 51.0 6.1 49.8 6.25 48.8 6.6 48.05 M7.4 29.0 Q7.05 29.2 6.75 29.35 L6.3 29.55 6.3 29.6 6.9 29.95 7.6 30.3 8.2 30.65 8.55 30.85 8.6 28.3 8.05 28.55 7.4 29.0 M11.25 24.15 L11.25 24.45 11.25 24.95 11.25 25.6 11.25 26.15 11.3 26.6 11.3 27.2 11.3 27.8 11.3 28.2 11.15 28.15 11.1 27.55 11.05 26.9 10.7 27.1 10.15 27.4 9.55 27.75 9.1 28.05 8.8 28.2 8.8 28.75 8.85 29.6 8.85 30.45 8.9 31.0 9.2 31.15 9.8 31.4 10.45 31.7 11.05 31.85 11.1 31.35 11.15 30.8 11.3 30.75 11.3 31.3 11.3 32.05 11.3 32.6 11.3 33.05 11.35 33.5 11.35 33.7 11.35 34.0 11.35 34.3 11.35 35.2 11.35 35.75 11.35 36.4 11.35 37.05 11.35 37.45 11.2 37.45 11.2 37.05 11.15 36.55 11.1 36.1 10.75 36.2 10.0 36.4 9.05 36.7 8.1 36.95 7.3 37.25 6.85 37.4 6.85 37.45 7.3 37.75 8.1 38.25 9.1 38.9 10.1 39.6 11.0 40.1 11.45 40.45 10.95 40.75 10.1 41.3 9.1 41.9 8.1 42.55 7.25 43.05 6.85 43.25 6.85 43.35 7.9 43.55 9.05 43.9 10.2 44.2 11.15 44.25 11.2 43.9 11.25 43.5 11.25 43.2 11.4 43.15 11.4 43.45 11.4 44.0 11.4 44.6 11.4 44.95 11.4 45.35 11.4 45.8 11.4 46.3 11.25 46.2 11.2 45.8 11.15 45.35 10.65 45.15 9.8 44.8 8.75 44.4 7.7 44.05 6.8 43.8 6.25 43.6 6.2 44.05 6.2 44.55 6.15 44.85 6.0 44.9 6.0 44.5 6.05 43.85 6.05 43.15 6.05 42.5 6.0 41.85 6.0 41.3 6.15 41.35 6.2 41.85 6.25 42.3 Q6.5 42.15 6.85 41.95 L7.7 41.4 8.65 40.85 9.5 40.35 10.0 40.05 9.55 39.75 8.85 39.25 8.0 38.65 7.2 38.2 6.55 37.75 6.2 37.6 6.15 38.05 6.1 38.4 5.95 38.5 5.95 38.0 6.0 37.4 6.0 36.85 6.0 36.3 5.95 35.65 5.95 35.15 6.1 35.2 6.15 35.45 6.15 35.9 6.2 36.25 6.85 36.05 7.75 35.7 8.8 35.35 9.8 35.05 10.6 34.75 11.1 34.55 11.15 34.05 11.2 33.75 11.15 33.45 11.05 32.95 10.55 32.55 9.65 32.0 8.5 31.3 7.45 30.65 6.6 30.2 6.15 29.95 6.1 30.4 6.05 30.9 5.9 30.95 5.9 30.4 5.95 29.75 5.95 29.35 5.95 28.65 5.9 27.85 5.9 27.3 6.05 27.3 6.1 27.75 6.15 28.25 6.55 28.05 7.15 27.7 7.85 27.3 8.5 26.9 9.05 26.6 9.7 26.15 10.4 25.7 11.0 25.25 11.05 24.75 11.1 24.2 11.25 24.15 M7.3 16.2 L7.05 16.2 6.85 16.25 6.5 16.75 6.15 17.8 Q6.0 18.4 6.0 19.2 L6.35 21.1 Q6.65 21.9 7.1 22.35 7.65 22.75 8.25 22.75 L9.3 22.4 10.15 21.45 10.75 20.0 10.95 18.2 10.85 16.75 10.5 15.35 10.85 15.5 11.05 16.1 11.2 17.25 11.3 18.9 11.3 19.6 11.25 20.65 11.0 21.7 10.05 23.5 Q9.4 24.2 8.7 24.2 L7.7 23.95 6.95 23.3 6.4 22.35 6.0 21.1 5.8 19.9 5.7 18.7 5.75 17.65 5.85 16.75 5.9 16.2 5.7 16.1 5.4 16.0 5.25 15.9 5.2 15.65 6.4 15.85 7.55 15.85 7.5 16.15 7.3 16.2 M11.0 8.95 L11.15 8.95 11.15 9.45 11.15 10.25 11.15 11.1 11.15 11.65 11.15 12.25 11.15 12.75 11.0 12.7 11.0 12.4 10.95 12.0 10.9 11.6 10.7 11.6 10.3 11.6 9.85 11.6 9.45 11.6 9.2 11.6 9.0 11.6 8.7 11.6 8.35 11.9 7.75 12.55 7.1 13.35 6.45 14.1 6.05 14.6 6.0 14.85 6.0 15.2 5.95 15.45 5.8 15.5 5.8 14.8 5.85 13.4 5.8 12.7 5.75 12.1 5.75 11.75 5.9 11.8 5.95 12.1 5.95 12.5 6.0 12.85 6.65 12.2 7.3 11.5 7.9 10.9 8.35 10.45 8.05 10.15 7.5 9.65 6.9 9.1 6.35 8.6 6.0 8.4 5.95 8.7 5.95 9.1 5.9 9.35 5.75 9.4 5.75 9.05 5.8 8.5 5.8 7.85 5.75 7.05 5.75 6.4 5.9 6.4 5.95 6.8 6.0 7.25 6.3 7.65 6.85 8.35 7.6 9.1 8.25 9.8 8.65 10.15 8.9 10.2 9.2 10.2 9.45 10.2 9.75 10.2 10.2 10.2 10.6 10.15 10.9 10.1 10.9 9.8 10.95 9.3 11.0 8.95" fill="#e2e2d6" fill-rule="evenodd" stroke="none"/>
  </g>
</svg>
