<?xml version="1.0" encoding="UTF-8" standalone="no"?>
<svg xmlns:xlink="http://www.w3.org/1999/xlink" height="88.65px" width="12.3px" xmlns="http://www.w3.org/2000/svg">
  <g transform="matrix(1, 0, 0, 1, -1.2, 0.0)">
    <path d="M4.8 88.4 L4.8 88.65 1.2 88.65 1.2 0.45 4.7 0.45 4.8 0.45 4.8 88.4" fill="#741f1d" fill-rule="evenodd" stroke="none"/>
    <path d="M4.7 0.45 L4.7 0.0 13.5 3.1 13.5 84.5 4.8 88.4 4.8 0.45 4.7 0.45" fill="#ca3531" fill-rule="evenodd" stroke="none"/>
    <path d="M11.45 82.5 L11.6 82.25 11.6 80.5 11.45 80.35 9.7 81.3 9.7 78.8 9.55 78.65 8.6 79.2 Q8.45 79.15 8.45 79.45 L8.45 82.0 7.7 82.35 7.7 79.2 7.6 79.0 6.55 79.55 6.45 79.85 6.5 85.15 Q6.4 85.35 6.6 85.25 L11.45 82.5 M10.2 80.15 L11.7 79.4 Q12.0 79.15 12.1 79.85 L12.1 81.55 11.85 82.25 11.45 82.85 6.6 85.7 Q6.15 85.8 6.25 85.25 L6.2 79.95 Q6.15 79.4 6.45 79.25 6.45 78.6 6.85 78.55 L7.85 78.05 Q8.2 77.85 8.2 78.45 L8.2 79.3 Q8.25 78.9 8.45 78.85 8.5 78.25 8.85 78.15 L9.8 77.65 Q10.15 77.4 10.2 78.1 L10.2 80.15 M11.55 73.15 L11.45 72.95 6.55 75.4 6.45 75.65 6.45 77.4 6.55 77.55 11.45 75.05 11.55 74.85 11.55 73.15 M11.7 72.0 Q12.0 71.8 12.1 72.55 L12.1 74.25 11.8 74.95 11.45 75.5 6.55 78.0 Q6.15 78.1 6.2 77.5 L6.2 75.75 Q6.15 75.05 6.45 75.0 6.45 74.4 6.8 74.35 L11.7 72.0 M7.85 69.35 L8.1 69.15 Q8.2 69.0 8.35 69.2 L8.4 69.5 8.45 70.15 7.7 70.45 7.7 69.8 7.85 69.35 M8.2 66.85 L7.95 67.05 Q7.4 67.15 6.95 68.2 6.4 69.25 6.45 70.3 L6.45 73.05 6.55 73.2 11.45 70.95 11.6 70.7 11.6 68.95 11.45 68.8 9.7 69.65 9.7 68.95 9.8 68.6 Q9.85 68.25 9.95 68.35 L11.45 67.6 11.6 67.4 11.6 65.7 11.45 65.55 9.85 66.25 Q9.6 66.25 9.05 67.1 8.95 66.9 8.7 66.9 L8.2 66.85 M6.8 68.0 L6.85 67.9 Q6.9 67.5 7.05 67.45 L7.05 67.5 Q7.55 66.25 8.2 66.05 L8.45 65.9 Q8.7 65.75 9.05 65.9 L9.3 66.05 9.6 65.6 Q9.75 65.3 10.05 65.3 L11.7 64.6 Q12.0 64.4 12.1 65.1 L12.1 66.8 11.85 67.45 11.75 67.9 Q12.0 67.65 12.1 68.4 L12.1 70.1 11.85 70.75 11.45 71.35 6.55 73.7 Q6.15 73.8 6.2 73.2 L6.2 70.3 Q6.15 69.2 6.8 68.0 M10.35 58.15 Q10.4 57.7 10.75 57.65 L11.7 57.35 Q12.0 57.2 12.1 57.85 L12.1 62.9 11.85 63.55 11.45 64.05 6.6 66.05 Q6.15 66.15 6.25 65.55 L6.25 60.3 Q6.15 59.65 6.5 59.65 6.45 58.95 6.85 59.0 L7.85 58.65 Q8.15 58.5 8.2 59.15 L8.2 59.95 Q8.25 59.65 8.45 59.5 8.5 59.0 8.85 58.85 L9.8 58.6 Q10.05 58.4 10.1 58.8 10.15 58.3 10.35 58.15 M11.45 58.25 L10.5 58.6 Q10.35 58.55 10.35 58.8 L10.35 61.95 9.7 62.2 9.7 59.7 9.55 59.5 8.6 59.9 Q8.45 59.85 8.45 60.15 L8.45 62.65 7.75 62.95 7.7 59.75 7.6 59.6 6.6 59.95 Q6.4 59.95 6.5 60.25 L6.5 65.45 Q6.4 65.65 6.6 65.55 L11.45 63.7 11.6 63.45 11.6 58.4 11.45 58.25 M8.2 46.35 L8.1 46.15 7.9 46.25 Q7.3 46.3 6.85 47.3 6.4 48.2 6.45 49.45 6.4 50.5 6.85 51.2 7.3 52.0 7.9 51.95 L8.25 51.75 9.3 50.7 9.7 48.85 9.7 48.5 9.8 48.05 Q9.9 47.85 10.05 47.85 L10.25 48.0 10.35 48.4 10.25 48.8 10.05 49.05 Q9.9 49.1 9.9 49.3 L9.9 51.05 10.0 51.25 10.15 51.2 Q10.75 50.95 11.2 50.1 L11.6 48.1 Q11.55 47.0 11.15 46.3 10.7 45.5 10.2 45.7 L9.85 45.75 Q9.3 45.9 8.9 46.8 8.45 47.6 8.45 48.65 L8.45 49.05 8.35 49.35 8.1 49.6 7.8 49.5 7.7 49.05 7.85 48.6 8.05 48.35 8.2 48.15 8.2 46.35 M8.15 45.3 L8.35 45.2 Q8.65 45.1 8.7 45.8 L8.7 46.55 8.75 46.5 9.35 45.4 Q9.65 44.9 10.1 44.85 L10.45 44.75 Q11.1 44.55 11.65 45.65 L12.1 47.6 11.6 49.8 11.35 50.25 10.85 51.1 10.15 51.6 10.0 51.65 Q9.65 51.75 9.7 51.2 L9.7 50.4 9.65 50.4 9.55 50.65 9.45 50.85 Q8.85 51.9 8.25 52.15 L7.9 52.3 Q7.2 52.35 6.7 51.6 6.15 50.65 6.2 49.45 6.15 48.2 6.7 47.15 L6.9 46.65 6.95 46.6 Q7.45 45.35 8.15 45.3 M7.75 39.0 L7.65 38.8 6.6 38.95 Q6.4 38.95 6.5 39.2 L6.5 44.5 6.6 44.6 7.6 44.4 7.7 44.15 7.7 42.7 11.45 41.9 11.6 41.7 11.6 40.0 11.45 39.8 7.7 40.5 7.75 39.0 M7.9 37.85 Q8.2 37.75 8.25 38.45 L8.25 39.55 11.7 39.0 Q12.0 38.8 12.1 39.5 L12.1 41.25 11.85 41.85 11.45 42.35 8.25 43.05 8.25 43.7 7.95 44.3 7.6 44.8 6.6 45.05 Q6.15 45.1 6.25 44.5 L6.25 39.25 Q6.15 38.6 6.5 38.6 6.45 37.95 6.9 38.05 L7.9 37.85 M7.8 33.75 L8.0 33.55 8.4 33.5 8.4 34.7 8.0 34.7 7.8 34.5 7.7 34.15 7.8 33.75 M11.6 32.85 L11.6 31.2 11.45 30.95 7.9 31.4 Q7.3 31.35 6.85 32.25 6.4 33.1 6.45 34.35 6.4 35.4 6.9 36.2 7.35 36.95 7.95 37.0 L11.45 36.45 11.6 36.2 11.6 34.45 11.45 34.3 9.65 34.6 9.65 33.35 11.45 33.1 11.6 32.85 M11.7 30.1 Q12.0 30.05 12.1 30.65 L12.1 32.45 11.85 33.0 11.7 33.45 Q12.0 33.3 12.1 34.0 L12.1 35.7 11.85 36.3 11.45 36.85 7.95 37.4 Q7.25 37.5 6.7 36.6 6.15 35.6 6.2 34.3 6.15 33.1 6.65 32.1 L6.9 31.55 6.9 31.5 Q7.45 30.45 8.15 30.45 L11.7 30.1 M6.6 23.8 Q6.4 23.8 6.5 24.05 L6.45 29.25 6.55 29.45 7.6 29.35 7.7 29.2 7.7 27.65 11.45 27.4 11.6 27.2 11.6 25.45 11.45 25.25 7.7 25.4 7.7 23.95 7.6 23.75 6.6 23.8 M6.5 23.45 Q6.4 22.8 6.85 22.95 L7.85 22.9 Q8.25 22.9 8.25 23.5 L8.25 24.5 11.7 24.3 Q12.0 24.3 12.1 25.05 L12.1 26.75 11.85 27.35 11.45 27.85 8.25 28.1 8.25 28.7 7.95 29.35 7.6 29.8 6.55 29.85 Q6.15 29.85 6.2 29.3 L6.25 24.05 Q6.15 23.4 6.5 23.45 M6.6 19.5 Q6.4 19.5 6.5 19.8 L6.5 21.55 Q6.4 21.7 6.6 21.75 L11.45 21.7 11.55 21.45 11.55 19.75 11.45 19.55 6.6 19.5 M6.25 21.55 L6.25 19.75 Q6.15 19.1 6.5 19.1 6.45 18.55 6.85 18.65 L11.7 18.65 Q12.0 18.65 12.1 19.4 L12.1 21.1 11.8 21.6 11.45 22.15 6.6 22.25 Q6.15 22.15 6.25 21.55 M6.85 12.65 Q6.4 13.55 6.45 14.65 6.4 15.75 6.9 16.55 7.3 17.45 7.9 17.55 L10.2 17.55 11.15 16.7 Q11.55 15.85 11.6 14.8 L11.15 13.0 Q10.7 12.0 10.25 12.05 L7.9 11.9 Q7.25 11.75 6.85 12.65 M8.0 15.3 L7.8 15.1 7.7 14.65 7.8 14.3 8.0 14.05 10.15 14.25 10.3 14.45 10.4 14.8 10.3 15.2 10.15 15.35 8.0 15.3 M10.45 11.2 Q11.1 11.2 11.65 12.35 L12.1 14.5 Q12.05 15.65 11.6 16.5 L11.35 16.95 11.35 17.0 10.2 17.95 7.9 18.0 Q7.2 17.9 6.7 16.9 6.15 15.8 6.2 14.55 6.15 13.3 6.7 12.4 L6.95 11.9 6.95 11.95 Q7.4 10.9 8.15 11.0 L10.45 11.2 M11.6 5.0 L11.45 4.7 7.9 4.3 Q7.3 4.15 6.85 5.05 6.4 5.75 6.45 7.0 6.4 8.1 6.85 8.95 7.3 9.8 7.9 9.95 L11.45 10.2 11.6 10.05 11.6 8.35 11.45 8.05 8.0 7.7 7.85 7.5 7.7 7.1 7.85 6.75 Q7.9 6.45 8.05 6.55 L11.45 6.9 11.6 6.75 11.6 5.0 M11.7 4.0 Q12.0 4.0 12.1 4.65 L12.1 6.4 11.85 7.0 11.7 7.3 Q12.0 7.25 12.1 7.95 L12.1 9.65 11.85 10.25 11.45 10.6 7.9 10.4 Q7.2 10.25 6.65 9.25 6.15 8.2 6.25 6.95 6.15 5.65 6.65 4.75 L6.65 4.8 6.9 4.4 6.9 4.35 Q7.45 3.35 8.15 3.5 L11.7 4.0" fill="#e2e2d6" fill-rule="evenodd" stroke="none"/>
  </g>
</svg>
