<?xml version="1.0" encoding="UTF-8" standalone="no"?>
<svg xmlns:xlink="http://www.w3.org/1999/xlink" height="147.85px" width="556.1px" xmlns="http://www.w3.org/2000/svg">
  <g transform="matrix(1, 0, 0, 1, 0.0, 0.0)">
    <path d="M175.95 5.25 L182.75 3.9 Q234.0 -4.15 265.25 4.45 294.85 17.05 318.55 29.0 336.05 37.8 350.35 46.3 L352.2 44.1 352.4 44.15 Q354.1 43.95 357.35 44.9 359.7 46.7 361.25 49.85 395.4 49.1 428.35 53.1 470.15 56.8 484.15 61.35 498.1 65.9 498.85 66.85 L499.75 67.8 Q501.25 69.75 505.15 73.1 L505.7 73.85 506.65 74.8 507.85 75.4 507.9 75.4 Q512.25 79.0 518.5 83.1 L519.4 83.7 Q526.85 89.6 534.75 93.1 536.45 94.0 536.9 94.05 L537.05 94.05 542.15 95.8 542.55 96.1 Q545.0 98.1 547.15 101.05 552.45 103.75 556.1 108.75 L556.05 112.65 Q554.45 114.05 553.0 118.25 552.05 120.95 551.15 124.85 550.1 129.1 549.15 134.8 L549.15 134.95 553.65 136.55 553.95 137.0 Q554.6 138.05 554.65 138.6 L554.2 139.7 Q553.15 140.7 549.75 140.6 L549.5 140.75 502.75 140.95 504.25 136.7 Q506.35 129.8 506.35 122.05 506.35 101.75 492.0 87.4 477.65 73.05 457.35 73.05 437.05 73.05 422.7 87.4 408.35 101.75 408.35 122.05 408.35 128.0 409.6 133.45 L409.9 147.45 161.25 145.9 Q162.75 142.85 163.85 139.45 L163.9 139.4 164.35 137.9 Q166.55 130.35 167.05 121.05 L167.1 118.95 167.15 113.75 Q166.75 95.45 154.85 81.85 L153.5 80.35 152.1 78.9 151.9 78.7 Q141.1 68.0 127.35 65.05 122.25 63.9 116.75 63.85 99.95 63.7 87.05 73.65 84.35 75.7 81.8 78.3 68.6 91.45 67.05 108.25 L66.85 112.05 Q66.75 120.0 67.3 125.8 68.1 133.7 70.2 137.5 L68.85 137.6 Q45.65 137.5 32.55 130.45 17.4 126.8 12.0 124.75 L11.5 124.4 Q10.1 123.25 9.3 120.65 L6.75 120.65 6.2 121.5 4.9 121.65 4.95 118.95 3.5 118.8 3.4 114.7 4.2 109.9 0.45 95.4 2.5 76.15 5.3 72.2 5.4 72.25 6.55 62.25 Q9.15 57.35 11.95 53.05 16.6 45.95 21.9 40.4 L22.3 39.75 22.5 39.75 28.1 39.4 Q24.8 35.2 22.25 34.35 L22.3 34.0 29.8 33.6 32.3 35.1 56.55 33.95 60.35 34.15 60.55 34.15 62.3 33.7 Q91.9 24.65 122.45 17.15 L127.35 16.2 Q152.0 11.45 174.75 8.3 L175.0 8.25 176.65 8.05 175.95 5.25 M541.95 133.1 L540.55 135.65 546.3 135.65 547.1 135.4 545.15 133.0 541.95 133.1 M276.5 50.3 L277.05 50.4 296.8 50.95 298.85 46.95 293.0 43.95 292.5 43.3 292.1 42.1 Q291.0 37.7 293.8 33.2 257.95 14.4 246.95 12.65 L237.05 11.0 225.55 10.9 Q213.05 10.65 187.15 14.3 L186.85 14.35 193.65 38.85 193.9 38.9 193.95 39.15 276.5 50.3 M170.35 18.75 L169.65 16.15 169.55 16.15 164.45 17.05 Q159.25 18.2 149.5 21.4 145.0 23.7 145.5 25.45 L145.65 25.8 145.8 25.95 Q147.45 28.25 151.75 31.2 L151.8 31.25 152.35 31.3 172.2 34.65 Q174.2 34.9 173.85 30.4 L170.35 18.75 M133.8 35.0 L134.0 35.0 135.5 34.05 135.3 34.05 133.8 35.0" fill="url(#gradient0)" fill-rule="evenodd" stroke="none"/>
    <path d="M507.9 75.4 L507.85 75.4 506.65 74.8 505.7 73.85 505.15 73.1 505.05 72.95 Q505.05 71.25 512.8 74.3 520.55 77.35 520.55 78.15 L520.55 78.25 518.35 77.6 Q514.4 76.55 512.05 76.55 509.7 76.55 508.55 75.7 508.4 75.6 507.9 75.4 M519.2 80.95 L519.5 81.15 Q523.95 84.1 523.95 85.75 523.95 86.35 523.65 86.45 L523.5 86.45 522.15 85.5 521.05 84.8 518.5 83.1 Q515.05 80.1 515.05 79.75 515.05 78.25 519.2 80.95 M528.7 89.55 Q529.05 89.45 529.05 89.0 L528.1 86.95 Q527.4 85.8 526.7 85.35 L526.4 84.85 525.9 84.2 525.8 84.0 525.85 83.6 527.05 84.4 528.4 86.1 530.75 89.15 531.35 90.5 531.5 90.75 531.1 90.95 Q530.3 90.95 529.4 89.95 L529.2 89.95 528.7 89.55 M513.35 75.7 L514.15 75.8 513.1 75.45 513.35 75.7" fill="#a6a6a8" fill-rule="evenodd" stroke="none"/>
    <path d="M542.15 95.8 L537.05 94.05 537.35 93.5 537.25 93.4 537.25 93.35 Q537.25 91.9 531.1 86.25 525.85 81.4 525.1 82.4 524.5 81.95 523.45 81.6 L522.15 81.3 Q521.75 80.95 520.7 80.8 L519.2 80.95 Q515.05 78.25 515.05 79.75 515.05 80.1 518.5 83.1 L521.05 84.8 522.15 85.5 523.5 86.45 523.65 86.45 524.0 86.8 526.3 88.25 Q528.35 89.55 528.55 89.55 L528.7 89.55 529.2 89.95 529.4 89.95 Q530.3 90.95 531.1 90.95 L531.5 90.75 532.5 91.8 534.75 93.1 Q526.85 89.6 519.4 83.7 L518.5 83.1 Q512.25 79.0 507.9 75.4 508.4 75.6 508.55 75.7 509.7 76.55 512.05 76.55 514.4 76.55 518.35 77.6 L520.55 78.25 520.55 78.15 Q520.55 77.35 512.8 74.3 505.05 71.25 505.05 72.95 L505.15 73.1 Q501.25 69.75 499.75 67.8 L500.0 67.85 Q524.75 74.35 541.6 95.45 L542.15 95.8" fill="#ebedec" fill-rule="evenodd" stroke="none"/>
    <path d="M523.65 86.45 Q523.95 86.35 523.95 85.75 523.95 84.1 519.5 81.15 L519.2 80.95 520.7 80.8 Q521.75 80.95 522.15 81.3 L523.45 81.6 Q524.5 81.95 525.1 82.4 524.95 82.5 524.95 82.85 L525.85 83.6 525.8 84.0 525.8 84.05 525.9 84.2 526.4 84.85 526.7 85.35 Q527.4 85.8 528.1 86.95 L529.05 89.0 Q529.05 89.45 528.7 89.55 L528.55 89.55 Q528.35 89.55 526.3 88.25 L524.0 86.8 523.65 86.45 M522.6 82.85 L523.45 83.05 524.1 83.55 524.5 83.5 523.85 82.95 522.4 82.5 522.6 82.85 M523.85 85.15 L524.05 85.0 523.55 84.45 523.85 85.05 523.85 85.15" fill="#b7c4cc" fill-rule="evenodd" stroke="none"/>
    <path d="M537.05 94.05 L536.9 94.05 Q536.45 94.0 534.75 93.1 L532.5 91.8 531.5 90.75 531.35 90.5 530.75 89.15 528.4 86.1 527.05 84.4 525.85 83.6 524.95 82.85 Q524.95 82.5 525.1 82.4 525.85 81.4 531.1 86.25 537.25 91.9 537.25 93.35 L537.25 93.4 537.35 93.5 537.05 94.05 M533.45 91.05 L532.45 90.2 532.75 90.65 Q532.95 90.9 533.45 91.05" fill="#dbdadf" fill-rule="evenodd" stroke="none"/>
    <path d="M541.95 133.1 L545.15 133.0 547.1 135.4 546.3 135.65 540.55 135.65 541.95 133.1" fill="#eaebed" fill-rule="evenodd" stroke="none"/>
    <path d="M502.75 140.95 L549.5 140.75 549.75 140.75 Q549.65 143.05 546.85 145.05 L500.75 146.5 500.1 146.3 502.75 140.95" fill="#d5d7d6" fill-rule="evenodd" stroke="none"/>
    <path d="M70.2 137.5 Q68.1 133.7 67.3 125.8 66.75 120.0 66.85 112.05 L67.05 108.25 Q68.6 91.45 81.8 78.3 84.35 75.7 87.05 73.65 99.95 63.7 116.75 63.85 122.25 63.9 127.35 65.05 141.1 68.0 151.9 78.7 L152.1 78.9 153.5 80.35 154.85 81.85 Q166.75 95.45 167.15 113.75 L167.1 118.95 167.05 121.05 Q166.55 130.35 164.35 137.9 L163.9 139.4 163.85 139.45 Q162.75 142.85 161.25 145.9 L161.0 146.35 70.2 137.5 M409.6 133.45 Q408.35 128.0 408.35 122.05 408.35 101.75 422.7 87.4 437.05 73.05 457.35 73.05 477.65 73.05 492.0 87.4 506.35 101.75 506.35 122.05 506.35 129.8 504.25 136.7 L502.75 140.95 500.1 146.3 415.55 147.85 Q413.35 144.35 411.85 140.6 410.75 137.9 410.0 135.05 L409.6 133.45" fill="#000000" fill-rule="evenodd" stroke="none"/>
    <path d="M193.9 38.9 L193.65 38.85 186.85 14.35 187.15 14.3 Q213.05 10.65 225.55 10.9 L237.05 11.0 246.95 12.65 Q257.95 14.4 293.8 33.2 291.0 37.7 292.1 42.1 L292.5 43.3 293.0 43.95 298.85 46.95 296.8 50.95 277.05 50.4 276.5 50.3 280.05 37.6 Q263.4 28.05 246.9 24.05 223.6 19.5 198.75 23.7 L202.85 40.2 193.9 38.9 M289.1 42.15 L287.85 41.6 285.0 39.85 283.35 45.3 286.6 45.9 289.1 42.15" fill="url(#gradient1)" fill-rule="evenodd" stroke="none"/>
    <path d="M152.35 31.3 L151.8 31.25 151.75 31.2 Q147.45 28.25 145.8 25.95 L145.65 25.8 145.5 25.45 Q145.0 23.7 149.5 21.4 159.25 18.2 164.45 17.05 L169.55 16.15 169.65 16.15 170.35 18.75 171.95 24.9 Q158.55 27.9 156.55 31.7 L152.35 31.3" fill="url(#gradient2)" fill-rule="evenodd" stroke="none"/>
    <path d="M175.95 5.25 L176.65 8.05 175.0 8.25 174.75 8.3 Q152.0 11.45 127.35 16.2 L122.45 17.15 127.35 15.95 Q151.25 10.15 175.8 5.25 L175.95 5.25" fill="#686a75" fill-rule="evenodd" stroke="none"/>
    <path d="M495.9 92.35 L494.45 90.9 494.25 90.7 Q479.15 76.05 458.4 75.85 441.25 75.7 428.05 85.65 425.3 87.7 422.7 90.3 409.25 103.45 407.65 120.25 406.6 101.35 410.8 91.75 412.8 87.15 421.55 78.5 437.0 67.6 456.7 67.8 477.45 68.0 493.45 80.0 L493.8 80.05 Q503.15 87.25 505.7 93.2 L495.9 92.35" fill="url(#gradient3)" fill-rule="evenodd" stroke="none"/>
    <path d="M362.85 81.45 Q362.75 81.2 363.0 80.8 L365.4 78.6 374.7 69.9 379.3 65.65 379.6 65.45 Q380.7 65.0 381.8 65.0 382.95 64.95 384.05 65.5 385.4 65.85 384.6 67.65 378.0 75.05 364.45 81.6 L363.95 81.7 Q363.0 81.75 362.85 81.45" fill="#000100" fill-rule="evenodd" stroke="none"/>
    <path d="M365.4 78.6 L363.0 80.8 Q362.75 81.2 362.85 81.45 L313.95 75.95 365.4 78.6" fill="#ffffff" fill-rule="evenodd" stroke="none"/>
    <path d="M381.8 65.0 Q380.7 65.0 379.6 65.45 L379.3 65.65 374.7 69.9 Q345.65 62.85 290.65 55.05 336.45 58.55 380.75 64.6 L381.8 65.0" fill="url(#gradient4)" fill-rule="evenodd" stroke="none"/>
    <path d="M151.25 68.05 L369.65 88.65 337.8 130.25 206.65 115.65 Q187.4 114.0 166.9 118.95 L166.95 113.75 Q166.55 94.45 153.3 80.35 L162.9 81.2 Q160.4 75.25 151.25 68.05" fill="url(#gradient5)" fill-rule="evenodd" stroke="none"/>
    <path d="M298.5 47.25 L295.25 51.35 295.15 51.45 295.05 51.45 275.4 51.15 275.35 51.2 275.25 51.2 193.45 39.1 193.3 39.05 193.2 38.95 186.4 14.45 186.4 14.3 186.5 14.15 186.65 14.1 Q212.8 10.4 225.35 10.65 L236.85 10.75 236.9 10.75 246.8 12.4 Q256.85 14.0 287.7 29.85 L293.75 33.0 293.85 33.1 293.85 33.2 293.85 33.35 Q292.9 34.9 292.4 36.4 L292.35 36.55 Q291.85 38.05 291.85 39.55 L291.9 40.5 292.15 42.05 292.15 42.1 292.3 42.6 292.3 42.55 292.5 43.05 292.5 43.15 292.55 43.2 292.5 43.2 Q294.2 45.85 298.4 46.75 L298.55 46.85 298.6 47.0 298.55 47.15 298.5 47.25 M293.25 33.3 L287.45 30.3 Q256.75 14.5 246.7 12.9 L236.8 11.25 225.35 11.15 Q212.9 10.9 187.0 14.55 L193.65 38.65 275.15 50.7 275.25 50.65 294.95 50.95 297.9 47.15 Q293.8 46.15 292.1 43.45 L292.1 43.4 292.0 43.2 291.85 42.75 291.65 42.15 291.4 40.55 291.35 39.55 Q291.35 37.95 291.85 36.4 292.3 34.85 293.25 33.3 M169.15 15.8 L169.3 15.85 169.4 16.0 173.45 29.9 173.45 29.95 Q173.9 33.15 172.45 33.5 L172.4 33.5 171.9 33.55 151.6 31.5 151.45 31.45 Q147.1 28.45 145.45 26.15 L145.25 25.95 Q144.55 24.85 145.7 23.6 146.65 22.45 149.2 21.2 L149.25 21.2 Q159.0 17.95 164.2 16.8 L169.15 15.8 M168.95 16.35 L164.3 17.3 Q159.1 18.45 149.4 21.65 147.0 22.9 146.05 23.95 145.25 24.9 145.7 25.7 L145.8 25.8 Q147.45 28.05 151.7 31.0 L171.95 33.05 172.3 33.0 Q173.3 32.65 172.95 30.0 L172.95 30.05 168.95 16.35" fill="#333333" fill-rule="evenodd" stroke="none"/>
    <path d="M293.25 33.3 Q292.3 34.85 291.85 36.4 291.35 37.95 291.35 39.55 L291.4 40.55 291.65 42.15 291.85 42.75 292.0 43.2 292.1 43.4 292.1 43.45 Q293.8 46.15 297.9 47.15 L294.95 50.95 275.25 50.65 275.15 50.7 193.65 38.65 187.0 14.55 Q212.9 10.9 225.35 11.15 L236.8 11.25 246.7 12.9 Q256.75 14.5 287.45 30.3 L293.25 33.3" fill="url(#gradient6)" fill-rule="evenodd" stroke="none"/>
    <path d="M292.15 42.1 L292.15 42.05 291.9 40.5 291.85 39.55 Q291.85 38.05 292.35 36.55 L292.4 36.4 Q303.05 34.95 310.25 37.55 L310.05 41.8 311.35 43.95 310.95 45.4 310.8 45.15 Q307.4 42.85 302.75 42.45 L292.15 42.1" fill="url(#gradient7)" fill-rule="evenodd" stroke="none"/>
    <path d="M298.5 47.25 L298.55 47.15 298.6 47.0 298.55 46.85 298.4 46.75 Q294.2 45.85 292.5 43.2 L292.55 43.2 292.5 43.15 292.5 43.05 292.3 42.55 292.3 42.6 292.15 42.1 302.75 42.45 Q307.4 42.85 310.8 45.15 L310.95 45.4 Q311.6 46.85 310.85 49.4 308.1 51.55 302.75 49.95 L302.65 49.8 Q301.6 48.65 301.7 47.55 L298.55 47.5 298.5 47.25" fill="url(#gradient8)" fill-rule="evenodd" stroke="none"/>
    <path d="M168.95 16.35 L172.95 30.05 172.95 30.0 Q173.3 32.65 172.3 33.0 L171.95 33.05 151.7 31.0 Q147.45 28.05 145.8 25.8 L145.7 25.7 Q145.25 24.9 146.05 23.95 147.0 22.9 149.4 21.65 159.1 18.45 164.3 17.3 L168.95 16.35" fill="url(#gradient9)" fill-rule="evenodd" stroke="none"/>
    <path d="M211.65 126.4 L212.45 126.2 213.15 126.25 Q282.15 129.35 316.7 134.2 L320.3 135.3 Q260.05 139.4 194.45 138.85 213.95 127.85 211.65 126.4" fill="url(#gradient10)" fill-rule="evenodd" stroke="none"/>
    <path d="M9.75 120.6 L9.7 120.4 16.85 121.5 17.65 124.1 12.05 123.25 Q10.25 122.05 9.75 120.6 M12.3 111.1 L7.0 110.1 6.95 109.95 2.2 98.5 Q3.15 98.5 4.35 99.45 7.4 101.75 11.65 109.85 L12.05 110.6 12.2 110.95 12.3 111.1 M211.65 126.4 Q213.95 127.85 194.45 138.85 L187.8 138.8 Q199.3 129.1 211.65 126.4" fill="#000000" fill-rule="evenodd" stroke="none"/>
    <path d="M151.25 68.05 Q160.4 75.25 162.9 81.2 L153.3 80.35 151.9 78.9 151.7 78.7 Q136.9 64.05 116.55 63.85 99.75 63.7 86.85 73.65 84.15 75.7 81.6 78.3 68.4 91.45 66.85 108.25 65.8 89.35 69.95 79.75 L73.1 72.55 73.2 72.55 Q75.95 69.9 78.8 67.7 94.5 55.6 114.9 55.8 135.2 56.0 150.9 68.0 L151.25 68.05" fill="url(#gradient11)" fill-rule="evenodd" stroke="none"/>
    <path d="M69.0 135.3 L69.9 137.1 70.05 137.2 Q47.65 137.65 33.15 130.45 18.8 126.05 11.85 124.8 L11.8 124.75 Q10.2 123.25 9.5 121.8 L9.2 120.9 9.1 120.65 9.05 120.65 8.95 120.55 9.75 120.6 Q10.25 122.05 12.05 123.25 L17.65 124.1 16.85 121.5 9.7 120.4 18.7 121.25 18.15 120.45 18.45 120.5 20.4 123.55 Q23.0 126.8 29.65 128.1 45.95 133.8 69.0 135.3 M6.95 109.95 L4.15 109.55 0.2 98.95 0.0 96.0 3.2 97.75 4.35 99.45 Q3.15 98.5 2.2 98.5 L6.95 109.95" fill="#000000" fill-opacity="0.4" fill-rule="evenodd" stroke="none"/>
    <path d="M66.85 108.25 L66.65 112.05 Q66.55 120.0 67.1 125.8 67.7 131.65 69.0 135.3 45.95 133.8 29.65 128.1 23.0 126.8 20.4 123.55 L18.45 120.5 47.2 124.95 47.45 124.85 51.55 125.65 51.4 123.1 Q48.4 107.9 41.85 106.2 L10.45 97.6 42.3 111.95 Q45.6 115.8 49.35 122.95 L19.8 119.3 17.95 120.1 14.1 114.05 13.85 112.8 12.3 111.1 12.35 111.1 13.05 111.25 Q11.85 105.8 8.5 101.5 5.45 96.15 2.45 95.9 L0.35 95.8 0.25 95.4 2.15 77.55 Q15.35 75.8 47.65 84.25 59.2 73.85 65.6 72.35 L73.1 72.55 69.95 79.75 Q65.8 89.35 66.85 108.25 M11.8 124.75 L11.3 124.4 11.1 124.2 Q10.15 123.35 9.5 121.8 10.2 123.25 11.8 124.75" fill="url(#gradient12)" fill-rule="evenodd" stroke="none"/>
    <path d="M51.4 123.1 L49.35 122.95 Q45.6 115.8 42.3 111.95 L10.45 97.6 41.85 106.2 Q48.4 107.9 51.4 123.1" fill="url(#gradient13)" fill-rule="evenodd" stroke="none"/>
    <path d="M265.05 4.45 L260.95 7.85 260.5 7.85 Q226.25 -1.0 176.7 8.25 L176.45 8.05 175.75 5.25 182.55 3.9 Q233.8 -4.15 265.05 4.45" fill="url(#gradient14)" fill-rule="evenodd" stroke="none"/>
    <path d="M148.2 38.15 Q145.6 38.35 143.7 39.85 141.6 41.55 141.55 43.95 141.55 46.35 143.7 48.05 145.6 49.6 148.2 49.85 145.3 49.65 143.25 48.05 140.95 46.35 140.95 43.95 141.0 41.55 143.25 39.85 145.3 38.3 148.2 38.15 M151.35 49.6 Q153.0 49.15 154.3 48.05 L154.35 48.05 Q156.45 46.35 156.45 43.95 156.45 41.55 154.35 39.8 153.05 38.8 151.4 38.4 153.25 38.75 154.65 39.8 156.9 41.55 156.9 43.95 156.9 46.35 154.65 48.05 L154.6 48.05 Q153.15 49.15 151.35 49.6" fill="#ffffff" fill-rule="evenodd" stroke="none"/>
    <path d="M151.4 38.4 L150.25 38.2 149.0 38.1 148.95 38.1 148.2 38.15 Q145.3 38.3 143.25 39.85 141.0 41.55 140.95 43.95 140.95 46.35 143.25 48.05 145.3 49.65 148.2 49.85 L149.0 49.85 150.25 49.8 151.35 49.6 Q153.15 49.15 154.6 48.05 L154.65 48.05 Q156.9 46.35 156.9 43.95 156.9 41.55 154.65 39.8 153.25 38.75 151.4 38.4 M143.0 39.2 Q145.45 37.35 148.95 37.35 152.4 37.35 154.9 39.2 157.45 41.15 157.45 43.95 157.45 46.75 154.9 48.7 L154.9 48.65 Q152.45 50.55 148.95 50.55 145.45 50.55 143.0 48.65 140.4 46.75 140.4 43.95 140.35 41.15 142.95 39.2 L143.0 39.2" fill="#333333" fill-rule="evenodd" stroke="none"/>
    <path d="M148.2 38.15 L148.95 38.1 149.0 38.1 150.25 38.2 151.4 38.4 Q153.05 38.8 154.35 39.8 156.45 41.55 156.45 43.95 156.45 46.35 154.35 48.05 L154.3 48.05 Q153.0 49.15 151.35 49.6 L150.25 49.8 149.0 49.85 148.2 49.85 Q145.6 49.6 143.7 48.05 141.55 46.35 141.55 43.95 141.6 41.55 143.7 39.85 145.6 38.35 148.2 38.15" fill="url(#gradient15)" fill-rule="evenodd" stroke="none"/>
    <path d="M191.85 48.9 L191.85 48.85 201.8 53.7 201.9 53.85 Q202.35 55.2 201.85 56.0 201.4 56.8 200.0 57.0 L190.5 56.85 190.5 56.8 Q190.35 51.35 191.85 48.9 M199.15 56.5 L199.9 56.5 Q201.0 56.3 201.4 55.7 201.75 55.1 201.45 54.1 L192.15 49.35 192.15 49.4 192.05 49.35 Q191.5 50.45 191.3 52.05 L191.0 55.7 191.0 55.8 190.95 56.7 199.15 56.5" fill="#333333" fill-rule="evenodd" stroke="none"/>
    <path d="M199.15 56.5 L190.95 56.7 191.0 55.8 191.0 55.7 191.3 52.05 Q191.5 50.45 192.05 49.35 L192.15 49.4 200.6 54.1 Q200.85 55.1 200.55 55.7 200.2 56.3 199.15 56.5" fill="url(#gradient16)" fill-rule="evenodd" stroke="none"/>
    <path d="M192.15 49.4 L192.15 49.35 201.45 54.1 Q201.75 55.1 201.4 55.7 201.0 56.3 199.9 56.5 L199.15 56.5 Q200.2 56.3 200.55 55.7 200.85 55.1 200.6 54.1 L192.15 49.4" fill="#ffffff" fill-rule="evenodd" stroke="none"/>
    <path d="M190.5 56.8 L188.55 56.8 Q184.3 56.7 185.6 52.8 188.35 47.9 191.45 48.7 L191.85 48.9 Q190.35 51.35 190.5 56.8" fill="url(#gradient17)" fill-rule="evenodd" stroke="none"/>
    <path d="M192.6 59.95 L192.65 60.0 Q193.1 60.5 193.1 61.2 L192.65 62.35 191.95 62.85 191.85 62.85 191.7 62.85 191.5 62.85 191.35 62.85 191.25 62.85 191.2 62.85 Q190.65 62.75 190.4 62.35 L190.35 62.3 Q189.85 61.85 189.85 61.2 189.85 60.5 190.35 60.05 L190.4 60.05 191.15 59.6 191.35 59.55 191.5 59.55 191.7 59.55 191.8 59.6 192.05 59.65 192.6 59.95 M191.65 60.05 L191.5 60.05 191.4 60.05 191.3 60.1 Q190.95 60.15 190.75 60.35 L190.75 60.4 Q190.35 60.7 190.35 61.2 190.35 61.65 190.75 62.0 190.95 62.25 191.3 62.35 L191.5 62.35 191.7 62.35 191.8 62.35 192.3 62.0 192.6 61.2 192.3 60.35 191.85 60.1 191.65 60.05" fill="#333333" fill-rule="evenodd" stroke="none"/>
    <path d="M191.65 60.05 L191.85 60.1 192.3 60.35 192.6 61.2 192.3 62.0 191.8 62.35 191.7 62.35 191.5 62.35 191.3 62.35 Q190.95 62.25 190.75 62.0 190.35 61.65 190.35 61.2 190.35 60.7 190.75 60.4 L190.75 60.35 Q190.95 60.15 191.3 60.1 L191.4 60.05 191.5 60.05 191.65 60.05" fill="url(#gradient18)" fill-rule="evenodd" stroke="none"/>
    <path d="M547.85 111.6 Q550.1 111.75 550.3 112.35 L550.0 113.0 Q546.8 123.65 541.75 133.1 L540.35 135.65 535.0 135.95 Q536.1 128.2 541.4 117.65 545.1 112.75 547.85 111.6" fill="#000000" fill-rule="evenodd" stroke="none"/>
    <path d="M541.75 133.1 Q546.8 123.65 550.0 113.0 L550.3 112.35 Q550.1 111.75 547.85 111.6 551.95 109.8 555.85 112.5 L555.85 112.65 Q554.25 114.05 552.8 118.25 551.85 120.95 550.95 124.85 549.9 129.1 548.95 134.8 L546.9 135.4 544.95 133.0 541.75 133.1" fill="url(#gradient19)" fill-rule="evenodd" stroke="none"/>
    <path d="M22.25 34.35 L22.3 34.0 29.8 33.6 32.3 35.1 56.55 33.95 60.35 34.15 Q99.2 32.7 135.3 34.05 L133.8 35.0 Q84.25 33.45 35.35 40.6 L33.4 40.85 33.35 41.0 28.35 41.5 Q20.55 48.75 12.4 58.6 11.35 62.85 16.6 60.7 23.3 51.5 31.85 43.45 24.6 56.65 30.25 75.45 16.85 71.1 5.4 72.25 L6.55 62.25 Q9.15 57.35 11.95 53.05 16.6 45.95 21.9 40.4 L22.3 39.75 22.5 39.75 28.1 39.4 Q24.8 35.2 22.25 34.35" fill="url(#gradient20)" fill-rule="evenodd" stroke="none"/>
    <path d="M22.3 39.75 L21.95 39.8 22.25 34.35 Q24.8 35.2 28.1 39.4 L22.5 39.75 22.3 39.75" fill="#000000" fill-opacity="0.4" fill-rule="evenodd" stroke="none"/>
    <path d="M25.1 40.75 L34.35 40.65 Q29.2 48.95 22.4 54.5 L22.45 43.65 Q22.65 40.9 25.1 40.75" fill="url(#gradient21)" fill-rule="evenodd" stroke="none"/>
    <path d="M26.4 42.7 Q26.65 41.35 27.15 40.85 L31.75 40.85 33.95 40.8 32.65 42.3 30.4 42.45 28.35 42.3 27.95 42.15 Q27.9 42.15 27.8 42.25 L27.65 43.05 27.65 49.65 27.35 50.05 27.35 50.35 26.95 50.75 Q26.15 50.75 26.35 46.55 26.25 43.9 26.4 42.7 M25.75 51.35 L25.75 51.45 Q25.75 51.9 25.4 51.95 L25.05 52.45 24.35 53.25 23.55 54.35 22.95 54.25 22.95 51.15 Q23.1 51.0 23.3 51.0 23.45 50.55 24.5 50.7 L24.95 50.8 Q25.75 50.2 25.75 51.3 L25.75 51.35" fill="#8b0e14" fill-rule="evenodd" stroke="none"/>
    <path d="M554.45 138.6 L554.0 139.7 Q552.95 140.7 549.55 140.6 L549.3 140.75 502.55 140.95 504.05 136.7 Q505.7 137.95 516.1 139.2 L517.5 139.4 Q540.55 139.8 553.75 137.0 554.4 138.05 554.45 138.6" fill="url(#gradient22)" fill-rule="evenodd" stroke="none"/>
    <path d="M339.8 130.6 L409.4 135.05 409.55 140.6 238.3 138.7 320.3 135.3 316.7 134.2 Q282.15 129.35 213.15 126.25 L211.95 126.15 211.65 126.4 Q199.7 129.0 188.55 138.15 L164.15 137.9 Q166.35 130.35 166.85 121.05 L344.25 131.5 339.8 130.6 M409.7 147.45 L161.05 145.9 163.7 139.4 409.6 142.65 409.7 147.45" fill="url(#gradient23)" fill-rule="evenodd" stroke="none"/>
    <path d="M350.15 45.9 L352.0 43.7 352.2 43.75 356.3 47.3 Q355.45 46.8 355.45 47.75 L355.55 47.9 355.1 48.25 355.0 48.3 Q354.7 48.55 354.7 48.75 L354.65 48.75 Q354.3 48.9 354.3 49.1 L354.4 49.4 354.65 49.65 354.05 49.65 350.15 45.9" fill="url(#gradient24)" fill-rule="evenodd" stroke="none"/>
    <path d="M355.55 47.9 L355.45 47.75 Q355.45 46.8 356.3 47.3 L356.65 47.55 357.75 48.55 358.8 49.5 355.5 49.6 355.9 49.5 Q356.85 49.45 356.85 49.0 356.85 48.5 356.0 48.45 L355.55 47.9" fill="url(#gradient25)" fill-rule="evenodd" stroke="none"/>
    <path d="M356.3 47.3 L352.2 43.75 Q353.9 43.55 357.15 44.5 359.5 46.3 361.05 49.45 L358.8 49.5 357.75 48.55 356.65 47.55 356.3 47.3" fill="url(#gradient26)" fill-rule="evenodd" stroke="none"/>
    <path d="M354.65 49.65 L354.4 49.4 354.3 49.1 Q354.3 48.9 354.65 48.75 L354.7 48.75 Q354.7 48.55 355.0 48.3 L355.1 48.25 355.55 47.9 356.0 48.45 Q356.85 48.5 356.85 49.0 356.85 49.45 355.9 49.5 L355.5 49.6 354.8 49.65 354.65 49.65" fill="url(#gradient27)" fill-rule="evenodd" stroke="none"/>
    <path d="M350.15 45.9 L354.05 49.65 340.95 50.3 Q304.25 25.55 260.75 7.6 L265.05 4.05 Q316.45 25.9 350.15 45.9" fill="url(#gradient28)" fill-rule="evenodd" stroke="none"/>
    <path d="M353.85 49.65 L340.75 50.3 Q304.05 25.55 260.55 7.6 L264.85 4.05 Q316.25 25.9 349.95 45.9 L353.85 49.65" fill="url(#gradient29)" fill-rule="evenodd" stroke="none"/>
    <path d="M494.6 91.55 L494.8 91.5 Q519.7 93.7 545.95 100.1 L546.05 100.3 546.35 100.7 Q519.85 94.25 494.75 92.0 L494.55 91.9 494.5 91.75 494.6 91.55 M498.35 66.65 L498.3 66.45 498.4 66.25 498.6 66.2 498.75 66.3 Q515.4 85.55 542.45 95.85 L542.6 95.95 542.6 96.15 542.45 96.3 542.25 96.3 Q515.1 85.95 498.35 66.65 M361.35 49.9 L350.2 50.3 350.2 50.45 350.15 50.5 350.1 50.5 350.0 50.55 341.55 51.0 341.35 50.95 Q307.35 26.7 261.1 7.85 L261.0 7.85 260.95 7.8 260.7 7.7 260.55 7.55 260.55 7.4 260.65 7.25 260.85 7.25 261.05 7.3 262.8 5.95 262.75 6.1 262.8 6.25 263.0 6.35 263.15 6.3 263.5 6.05 Q305.45 23.05 349.7 49.85 L361.35 49.4 361.55 49.5 361.6 49.65 361.55 49.85 361.35 49.9 M9.7 97.3 L9.55 97.2 9.5 97.0 9.6 96.85 9.8 96.8 Q42.9 103.55 46.4 108.4 L46.45 108.45 51.75 122.75 66.5 124.45 66.6 124.95 51.9 123.25 51.9 123.35 51.75 123.5 51.55 123.5 51.45 123.35 51.35 123.1 51.35 123.05 51.3 123.0 46.0 108.7 Q42.45 103.95 9.7 97.3 M84.3 74.45 L83.95 74.85 63.85 71.8 Q42.85 68.55 24.15 66.4 L5.65 64.15 5.65 63.8 24.2 65.8 Q42.9 67.85 63.9 71.2 L84.3 74.45 M82.5 36.25 L82.45 36.45 70.95 36.75 Q59.5 37.05 48.5 38.65 L40.05 39.45 40.75 39.35 Q61.8 36.1 71.7 36.2 L82.05 36.25 82.5 36.25 M408.95 141.15 L408.75 141.2 163.55 138.4 163.4 138.35 163.3 138.15 163.4 138.0 Q163.45 137.9 163.55 137.9 L408.75 140.7 408.95 140.8 409.0 140.95 408.95 141.15 M337.35 130.75 L337.3 130.55 337.4 130.35 337.6 130.3 407.2 135.5 407.35 135.6 407.4 135.8 407.35 135.95 407.15 136.0 337.55 130.8 337.35 130.75 M327.6 53.0 L327.3 52.8 275.5 52.6 189.2 40.6 Q169.45 53.75 178.25 68.85 L178.6 69.45 178.7 69.6 178.75 69.65 186.35 82.7 186.55 82.7 186.7 82.8 186.75 83.0 186.65 83.15 186.6 83.2 Q197.6 101.2 209.85 117.4 L209.9 117.45 210.75 118.85 Q214.2 123.85 219.85 123.9 L336.05 130.95 Q343.75 105.45 345.65 79.4 339.3 59.05 327.6 53.0 M327.05 51.85 L328.1 52.7 Q339.85 58.9 346.25 79.7 L346.25 80.55 346.2 80.45 Q344.2 105.8 336.5 131.3 L336.4 131.45 336.45 131.45 336.4 131.65 336.25 131.8 336.1 131.8 335.95 131.65 335.95 131.5 335.95 131.45 219.85 124.4 Q213.9 124.35 210.35 119.15 L209.45 117.7 Q197.05 101.35 186.0 83.15 L185.85 83.1 152.95 80.95 152.75 80.9 152.7 80.7 152.8 80.5 153.0 80.45 185.7 82.6 178.3 69.9 178.35 69.95 178.25 69.8 178.2 69.75 177.8 69.05 177.8 69.1 Q168.8 53.8 188.45 40.55 L157.9 36.75 157.85 36.9 157.7 36.95 157.5 36.9 157.15 36.65 144.15 35.0 143.95 34.9 143.9 34.8 156.8 36.35 150.5 30.85 150.4 30.7 150.45 30.5 157.75 36.45 189.0 40.1 189.15 40.15 184.25 19.3 189.65 40.1 189.65 40.2 275.55 52.1 326.7 52.3 Q301.6 25.55 253.15 9.85 220.5 3.6 183.0 12.55 L177.2 14.0 177.05 14.05 165.0 17.05 Q164.95 16.9 165.05 16.85 L165.2 16.7 176.95 13.6 175.5 5.5 175.55 5.3 Q175.6 5.2 175.7 5.2 L175.9 5.25 176.0 5.4 177.45 13.5 182.9 12.05 Q220.5 3.1 253.25 9.35 L253.3 9.35 Q301.7 25.05 327.05 51.85 M348.9 50.1 L348.95 50.0 Q304.85 23.35 263.05 6.4 L261.6 7.55 Q307.65 26.3 341.6 50.5 L348.9 50.1" fill="#333333" fill-rule="evenodd" stroke="none"/>
  </g>
  <defs>
    <radialGradient cx="0" cy="0" gradientTransform="matrix(0.5642, 0.0, 0.0, 0.1534, 336.55, 32.65)" gradientUnits="userSpaceOnUse" id="gradient0" r="819.2" spreadMethod="pad">
      <stop offset="0.0" stop-color="#ffffff"/>
      <stop offset="0.7333333333333333" stop-color="#d3d3d3"/>
      <stop offset="1.0" stop-color="#a3a3a3"/>
    </radialGradient>
    <linearGradient gradientTransform="matrix(0.0662, 0.0163, -0.0058, 0.0236, 242.7, 30.8)" gradientUnits="userSpaceOnUse" id="gradient1" spreadMethod="pad" x1="-819.2" x2="819.2">
      <stop offset="0.0" stop-color="#888c98"/>
      <stop offset="1.0" stop-color="#46474f"/>
    </linearGradient>
    <linearGradient gradientTransform="matrix(-0.0108, 0.012, -0.0071, -0.0064, 158.75, 23.95)" gradientUnits="userSpaceOnUse" id="gradient2" spreadMethod="pad" x1="-819.2" x2="819.2">
      <stop offset="0.0" stop-color="#888c98"/>
      <stop offset="1.0" stop-color="#46474f"/>
    </linearGradient>
    <linearGradient gradientTransform="matrix(0.06, 0.0, 0.0, 0.032, 456.55, 94.0)" gradientUnits="userSpaceOnUse" id="gradient3" spreadMethod="pad" x1="-819.2" x2="819.2">
      <stop offset="0.011764705882352941" stop-color="#000000" stop-opacity="0.101960786"/>
      <stop offset="1.0" stop-color="#000000" stop-opacity="0.3019608"/>
    </linearGradient>
    <linearGradient gradientTransform="matrix(-0.0534, -0.009, 0.0016, -0.0093, 335.1, 62.45)" gradientUnits="userSpaceOnUse" id="gradient4" spreadMethod="pad" x1="-819.2" x2="819.2">
      <stop offset="0.011764705882352941" stop-color="#000000" stop-opacity="0.2"/>
      <stop offset="1.0" stop-color="#000000" stop-opacity="0.050980393"/>
    </linearGradient>
    <linearGradient gradientTransform="matrix(0.1333, 0.0, 0.0, 0.038, 260.45, 99.15)" gradientUnits="userSpaceOnUse" id="gradient5" spreadMethod="pad" x1="-819.2" x2="819.2">
      <stop offset="0.011764705882352941" stop-color="#000000" stop-opacity="0.2"/>
      <stop offset="1.0" stop-color="#000000" stop-opacity="0.050980393"/>
    </linearGradient>
    <linearGradient gradientTransform="matrix(0.0627, 0.0267, -0.0096, 0.0226, 242.5, 31.05)" gradientUnits="userSpaceOnUse" id="gradient6" spreadMethod="pad" x1="-819.2" x2="819.2">
      <stop offset="0.011764705882352941" stop-color="#ffffff" stop-opacity="0.5019608"/>
      <stop offset="0.17254901960784313" stop-color="#ffffff" stop-opacity="0.5647059"/>
      <stop offset="0.24705882352941178" stop-color="#fefefe" stop-opacity="0.7019608"/>
      <stop offset="0.5490196078431373" stop-color="#f9fafa" stop-opacity="0.8235294"/>
      <stop offset="0.6078431372549019" stop-color="#f0f1f2" stop-opacity="0.5529412"/>
      <stop offset="0.8156862745098039" stop-color="#fbfcfc" stop-opacity="0.78039217"/>
      <stop offset="0.9607843137254902" stop-color="#f6f7f7" stop-opacity="0.64705884"/>
      <stop offset="1.0" stop-color="#e3e5e6" stop-opacity="0.2"/>
    </linearGradient>
    <linearGradient gradientTransform="matrix(0.0024, -0.0037, 0.0048, 0.0032, 302.5, 39.95)" gradientUnits="userSpaceOnUse" id="gradient7" spreadMethod="pad" x1="-819.2" x2="819.2">
      <stop offset="0.0" stop-color="#000000" stop-opacity="0.0"/>
      <stop offset="1.0" stop-color="#000000" stop-opacity="0.2"/>
    </linearGradient>
    <linearGradient gradientTransform="matrix(0.0, 0.0046, -0.0052, 0.0, 301.55, 46.35)" gradientUnits="userSpaceOnUse" id="gradient8" spreadMethod="pad" x1="-819.2" x2="819.2">
      <stop offset="0.0" stop-color="#000000" stop-opacity="0.5019608"/>
      <stop offset="1.0" stop-color="#000000" stop-opacity="0.2"/>
    </linearGradient>
    <linearGradient gradientTransform="matrix(0.0166, 0.0042, -0.0026, 0.0102, 159.4, 24.65)" gradientUnits="userSpaceOnUse" id="gradient9" spreadMethod="pad" x1="-819.2" x2="819.2">
      <stop offset="0.011764705882352941" stop-color="#ffffff" stop-opacity="0.5019608"/>
      <stop offset="0.17254901960784313" stop-color="#ffffff" stop-opacity="0.5647059"/>
      <stop offset="0.24705882352941178" stop-color="#fefefe" stop-opacity="0.7019608"/>
      <stop offset="0.5490196078431373" stop-color="#f9fafa" stop-opacity="0.8235294"/>
      <stop offset="0.6078431372549019" stop-color="#f0f1f2" stop-opacity="0.5529412"/>
      <stop offset="1.0" stop-color="#e3e5e6" stop-opacity="0.2"/>
    </linearGradient>
    <linearGradient gradientTransform="matrix(0.0809, 0.0, 0.0, 0.0078, 254.05, 132.55)" gradientUnits="userSpaceOnUse" id="gradient10" spreadMethod="pad" x1="-819.2" x2="819.2">
      <stop offset="0.011764705882352941" stop-color="#000000" stop-opacity="0.7019608"/>
      <stop offset="0.4627450980392157" stop-color="#000000" stop-opacity="0.3019608"/>
      <stop offset="1.0" stop-color="#000000" stop-opacity="0.13725491"/>
    </linearGradient>
    <linearGradient gradientTransform="matrix(0.0587, 0.0, 0.0, 0.032, 114.75, 82.0)" gradientUnits="userSpaceOnUse" id="gradient11" spreadMethod="pad" x1="-819.2" x2="819.2">
      <stop offset="0.011764705882352941" stop-color="#000000" stop-opacity="0.2"/>
      <stop offset="1.0" stop-color="#000000" stop-opacity="0.3019608"/>
    </linearGradient>
    <linearGradient gradientTransform="matrix(0.0445, 0.0, 0.0, 0.0398, 36.65, 104.95)" gradientUnits="userSpaceOnUse" id="gradient12" spreadMethod="pad" x1="-819.2" x2="819.2">
      <stop offset="0.011764705882352941" stop-color="#000000" stop-opacity="0.2"/>
      <stop offset="0.24313725490196078" stop-color="#000000" stop-opacity="0.1764706"/>
      <stop offset="0.3764705882352941" stop-color="#000000" stop-opacity="0.13725491"/>
      <stop offset="1.0" stop-color="#000000" stop-opacity="0.050980393"/>
    </linearGradient>
    <linearGradient gradientTransform="matrix(0.0245, 0.0, 0.0, 0.0156, 30.5, 110.35)" gradientUnits="userSpaceOnUse" id="gradient13" spreadMethod="pad" x1="-819.2" x2="819.2">
      <stop offset="0.0" stop-color="#000000" stop-opacity="0.101960786"/>
      <stop offset="1.0" stop-color="#000000" stop-opacity="0.4"/>
    </linearGradient>
    <linearGradient gradientTransform="matrix(0.0171, -0.0263, 0.038, 0.0248, 219.85, 5.7)" gradientUnits="userSpaceOnUse" id="gradient14" spreadMethod="pad" x1="-819.2" x2="819.2">
      <stop offset="0.0" stop-color="#000000" stop-opacity="0.0"/>
      <stop offset="1.0" stop-color="#000000" stop-opacity="0.2"/>
    </linearGradient>
    <linearGradient gradientTransform="matrix(0.0096, 0.0, 0.0, 0.0078, 149.0, 43.95)" gradientUnits="userSpaceOnUse" id="gradient15" spreadMethod="pad" x1="-819.2" x2="819.2">
      <stop offset="0.0" stop-color="#000000" stop-opacity="0.0"/>
      <stop offset="1.0" stop-color="#000000" stop-opacity="0.2"/>
    </linearGradient>
    <linearGradient gradientTransform="matrix(-0.0052, -0.0049, 0.003, -0.0038, 193.35, 52.7)" gradientUnits="userSpaceOnUse" id="gradient16" spreadMethod="pad" x1="-819.2" x2="819.2">
      <stop offset="0.0" stop-color="#000000" stop-opacity="0.0"/>
      <stop offset="1.0" stop-color="#000000" stop-opacity="0.4"/>
    </linearGradient>
    <linearGradient gradientTransform="matrix(-0.0057, -0.0049, 0.0033, -0.0038, 193.55, 52.7)" gradientUnits="userSpaceOnUse" id="gradient17" spreadMethod="pad" x1="-819.2" x2="819.2">
      <stop offset="0.0" stop-color="#000000" stop-opacity="0.0"/>
      <stop offset="1.0" stop-color="#000000" stop-opacity="0.4"/>
    </linearGradient>
    <linearGradient gradientTransform="matrix(0.0018, 0.0, 0.0, 0.0019, 191.5, 61.2)" gradientUnits="userSpaceOnUse" id="gradient18" spreadMethod="pad" x1="-819.2" x2="819.2">
      <stop offset="0.0" stop-color="#000000" stop-opacity="0.0"/>
      <stop offset="1.0" stop-color="#000000" stop-opacity="0.2"/>
    </linearGradient>
    <linearGradient gradientTransform="matrix(0.0027, -0.0082, 0.0142, 0.0047, 550.4, 117.95)" gradientUnits="userSpaceOnUse" id="gradient19" spreadMethod="pad" x1="-819.2" x2="819.2">
      <stop offset="0.0" stop-color="#c7c8ca"/>
      <stop offset="1.0" stop-color="#b3b9b9"/>
    </linearGradient>
    <linearGradient gradientTransform="matrix(-0.0197, -0.0265, 0.0204, -0.0153, 22.5, 71.2)" gradientUnits="userSpaceOnUse" id="gradient20" spreadMethod="pad" x1="-819.2" x2="819.2">
      <stop offset="0.2627450980392157" stop-color="#000000" stop-opacity="0.0"/>
      <stop offset="1.0" stop-color="#000000" stop-opacity="0.4"/>
    </linearGradient>
    <linearGradient gradientTransform="matrix(3.0E-4, -0.0082, 0.0085, 3.0E-4, 28.35, 46.35)" gradientUnits="userSpaceOnUse" id="gradient21" spreadMethod="pad" x1="-819.2" x2="819.2">
      <stop offset="0.0" stop-color="#e67a77"/>
      <stop offset="0.3333333333333333" stop-color="#ff0000"/>
      <stop offset="0.6509803921568628" stop-color="#db0000"/>
      <stop offset="0.9058823529411765" stop-color="#3b0000"/>
    </linearGradient>
    <linearGradient gradientTransform="matrix(0.032, 0.0014, -0.0013, 0.0295, 528.7, 139.15)" gradientUnits="userSpaceOnUse" id="gradient22" spreadMethod="pad" x1="-819.2" x2="819.2">
      <stop offset="0.011764705882352941" stop-color="#000000" stop-opacity="0.2"/>
      <stop offset="1.0" stop-color="#000000" stop-opacity="0.050980393"/>
    </linearGradient>
    <linearGradient gradientTransform="matrix(0.1518, 0.0, 0.0, 0.0161, 285.35, 134.25)" gradientUnits="userSpaceOnUse" id="gradient23" spreadMethod="pad" x1="-819.2" x2="819.2">
      <stop offset="0.011764705882352941" stop-color="#000000" stop-opacity="0.3019608"/>
      <stop offset="0.6470588235294118" stop-color="#000000" stop-opacity="0.0"/>
    </linearGradient>
    <linearGradient gradientTransform="matrix(-0.0018, -0.0012, 0.002, -0.003, 353.15, 46.75)" gradientUnits="userSpaceOnUse" id="gradient24" spreadMethod="pad" x1="-819.2" x2="819.2">
      <stop offset="0.0" stop-color="#2f3237"/>
      <stop offset="0.1568627450980392" stop-color="#1f2124"/>
      <stop offset="0.3254901960784314" stop-color="#3c4046"/>
      <stop offset="0.48627450980392156" stop-color="#464b51"/>
      <stop offset="0.5333333333333333" stop-color="#626872"/>
      <stop offset="0.9921568627450981" stop-color="#828a97"/>
    </linearGradient>
    <linearGradient gradientTransform="matrix(0.002, 0.0, 0.0, 0.0015, 357.1, 48.35)" gradientUnits="userSpaceOnUse" id="gradient25" spreadMethod="pad" x1="-819.2" x2="819.2">
      <stop offset="0.0" stop-color="#2f3237"/>
      <stop offset="0.1568627450980392" stop-color="#1f2124"/>
      <stop offset="0.3254901960784314" stop-color="#3c4046"/>
      <stop offset="0.48627450980392156" stop-color="#464b51"/>
      <stop offset="0.5333333333333333" stop-color="#626872"/>
      <stop offset="0.9921568627450981" stop-color="#828a97"/>
    </linearGradient>
    <linearGradient gradientTransform="matrix(0.0054, 0.0, 0.0, 0.0035, 356.6, 46.6)" gradientUnits="userSpaceOnUse" id="gradient26" spreadMethod="pad" x1="-819.2" x2="819.2">
      <stop offset="0.0" stop-color="#2f3237"/>
      <stop offset="0.1568627450980392" stop-color="#1f2124"/>
      <stop offset="0.3254901960784314" stop-color="#3c4046"/>
      <stop offset="0.48627450980392156" stop-color="#464b51"/>
      <stop offset="0.5333333333333333" stop-color="#626872"/>
      <stop offset="0.9921568627450981" stop-color="#828a97"/>
    </linearGradient>
    <linearGradient gradientTransform="matrix(0.0016, 0.0, 0.0, 0.0011, 355.55, 48.75)" gradientUnits="userSpaceOnUse" id="gradient27" spreadMethod="pad" x1="-819.2" x2="819.2">
      <stop offset="0.0" stop-color="#2f3237"/>
      <stop offset="0.1568627450980392" stop-color="#1f2124"/>
      <stop offset="0.3254901960784314" stop-color="#3c4046"/>
      <stop offset="0.48627450980392156" stop-color="#464b51"/>
      <stop offset="0.5333333333333333" stop-color="#626872"/>
      <stop offset="0.9921568627450981" stop-color="#828a97"/>
    </linearGradient>
    <linearGradient gradientTransform="matrix(0.0071, 0.0336, -0.0276, 0.0058, 307.45, 27.2)" gradientUnits="userSpaceOnUse" id="gradient28" spreadMethod="pad" x1="-819.2" x2="819.2">
      <stop offset="0.0" stop-color="#2f3237"/>
      <stop offset="0.1568627450980392" stop-color="#1f2124"/>
      <stop offset="0.3254901960784314" stop-color="#3c4046"/>
      <stop offset="0.48627450980392156" stop-color="#464b51"/>
      <stop offset="0.5333333333333333" stop-color="#626872"/>
      <stop offset="0.9921568627450981" stop-color="#828a97"/>
    </linearGradient>
    <linearGradient gradientTransform="matrix(-0.0021, 0.0061, -0.0267, -0.009, 306.05, 23.95)" gradientUnits="userSpaceOnUse" id="gradient29" spreadMethod="pad" x1="-819.2" x2="819.2">
      <stop offset="0.0" stop-color="#ffffff"/>
      <stop offset="1.0" stop-color="#000000" stop-opacity="0.0"/>
    </linearGradient>
  </defs>
</svg>
