<?xml version="1.0" encoding="UTF-8" standalone="no"?>
<svg xmlns:xlink="http://www.w3.org/1999/xlink" height="81.55px" width="81.55px" xmlns="http://www.w3.org/2000/svg">
  <g transform="matrix(1, 0, 0, 1, 0.0, 0.0)">
    <path d="M77.55 40.8 Q77.55 56.0 66.75 66.75 55.95 77.55 40.75 77.55 25.55 77.55 14.75 66.75 4.0 56.0 4.0 40.8 4.0 25.55 14.7 14.8 L14.75 14.75 Q25.55 4.0 40.75 4.0 55.95 4.0 66.75 14.8 77.55 25.55 77.55 40.8" fill="#3a3839" fill-rule="evenodd" stroke="none"/>
    <path d="M68.45 36.75 Q67.75 31.3 65.0 26.65 L53.15 36.5 68.45 36.75 M50.8 45.25 Q48.1 45.5 48.25 48.8 L62.2 58.5 64.4 55.6 50.8 45.25 M51.1 38.55 Q49.5 40.35 51.1 42.9 L51.15 43.0 68.65 43.0 68.7 40.7 68.6 38.2 51.2 38.4 51.1 38.55 M48.15 32.4 Q47.35 35.8 50.7 36.45 L64.2 25.4 61.45 21.9 48.15 32.4 M46.25 13.4 L40.95 12.9 35.25 13.45 Q37.95 21.4 40.6 27.75 L46.25 13.4 M60.35 20.8 Q56.5 17.0 51.95 15.05 L48.75 29.65 60.35 20.8 M50.2 14.4 L48.05 13.75 41.6 29.6 Q42.45 32.7 46.3 31.25 L50.2 14.4 M53.6 44.75 L65.15 54.4 Q67.8 49.85 68.5 44.45 L53.6 44.75 M73.55 40.75 Q73.55 54.3 63.95 63.85 54.35 73.45 40.8 73.45 27.25 73.45 17.65 63.85 8.1 54.3 8.1 40.75 8.1 27.2 17.65 17.6 27.25 8.05 40.8 8.05 54.35 8.05 63.95 17.6 73.55 27.2 73.55 40.75 M16.25 27.85 Q14.15 31.85 13.5 36.4 L28.0 36.6 16.25 27.85 M33.95 13.75 Q32.15 14.15 30.5 14.85 L35.1 31.25 Q38.45 33.25 39.5 29.9 37.0 21.8 33.95 13.75 M29.0 15.5 Q24.8 17.5 21.3 21.0 L21.0 21.35 33.1 30.15 29.0 15.5 M13.2 40.7 L13.3 43.0 29.4 42.95 Q31.8 40.35 29.6 38.35 L29.4 38.2 13.3 38.3 13.2 40.7 M30.35 36.25 Q33.55 35.8 33.35 32.1 L19.9 22.5 Q18.3 24.35 17.05 26.4 L30.35 36.25 M31.7 45.75 L30.0 45.55 17.35 55.4 19.8 58.65 33.25 48.75 Q33.35 46.1 31.7 45.75 M13.5 44.85 Q14.15 49.6 16.4 53.75 L27.5 44.9 13.5 44.85 M45.7 68.1 L40.55 53.05 35.3 67.95 40.95 68.45 45.7 68.1 M21.3 60.25 Q24.6 63.6 28.45 65.6 L32.5 51.4 21.1 60.05 21.3 60.25 M39.3 51.55 Q37.2 48.75 34.75 50.5 L30.0 66.3 33.65 67.55 39.3 51.55 M47.7 67.7 L51.6 66.4 46.05 50.5 Q42.6 49.25 41.8 51.65 L47.7 67.7 M47.6 50.05 L52.9 65.85 Q57.05 63.8 60.55 60.25 L61.1 59.7 47.6 50.05" fill="#16171c" fill-rule="evenodd" stroke="none"/>
    <path d="M77.55 40.8 Q77.55 25.55 66.75 14.8 55.95 4.0 40.75 4.0 25.55 4.0 14.75 14.75 L14.7 14.8 Q4.0 25.55 4.0 40.8 4.0 56.0 14.75 66.75 25.55 77.55 40.75 77.55 55.95 77.55 66.75 66.75 77.55 56.0 77.55 40.8 M69.6 11.95 L69.55 11.95 Q81.55 23.85 81.55 40.8 81.55 57.65 69.6 69.55 L69.55 69.6 Q57.6 81.55 40.75 81.55 23.85 81.55 11.9 69.6 0.0 57.7 0.0 40.8 0.0 23.9 11.9 11.95 23.9 0.0 40.75 0.0 57.65 0.0 69.6 11.95" fill="url(#gradient0)" fill-rule="evenodd" stroke="none"/>
    <path d="M77.55 40.8 Q77.55 56.0 66.75 66.75 55.95 77.55 40.75 77.55 25.55 77.55 14.75 66.75 4.0 56.0 4.0 40.8 4.0 25.55 14.7 14.8 L14.75 14.75 Q25.55 4.0 40.75 4.0 55.95 4.0 66.75 14.8 77.55 25.55 77.55 40.8 M65.15 16.15 Q55.0 6.1 40.65 6.1 26.3 6.1 16.05 16.3 5.9 26.5 5.9 40.9 5.9 55.3 16.05 65.45 26.25 75.65 40.65 75.65 55.05 75.65 65.25 65.45 L65.35 65.4 65.3 65.4 Q75.45 55.25 75.45 40.9 75.45 26.45 65.25 16.3 L65.15 16.15 M65.6 66.3 L65.75 66.25 65.65 66.25 65.6 66.3 M65.65 65.25 L65.55 65.3 65.6 65.3 65.65 65.25" fill="#24252a" fill-rule="evenodd" stroke="none"/>
    <path d="M66.0 15.6 L66.15 15.8 Q76.45 26.15 76.45 40.9 76.45 55.65 66.0 66.1 L65.95 66.15 Q55.45 76.65 40.65 76.65 25.85 76.65 15.35 66.15 4.9 55.7 4.9 40.9 4.9 26.1 15.35 15.6 25.9 5.1 40.65 5.1 55.5 5.1 66.0 15.6 M65.25 16.3 L65.15 16.15 Q55.0 6.1 40.65 6.1 26.3 6.1 16.05 16.3 5.9 26.5 5.9 40.9 5.9 55.3 16.05 65.45 26.25 75.65 40.65 75.65 55.05 75.65 65.25 65.45 L65.35 65.4 65.3 65.4 Q75.45 55.25 75.45 40.9 75.45 26.45 65.25 16.3 M18.2 17.85 L18.1 17.9 18.15 17.9 18.2 17.85 M40.65 8.55 Q54.0 8.55 63.5 18.05 73.0 27.5 73.0 40.9 73.0 54.25 63.5 63.7 54.0 73.2 40.65 73.2 27.3 73.2 17.85 63.7 8.4 54.25 8.4 40.9 8.4 27.5 17.8 18.05 L17.9 18.0 17.85 18.0 Q27.3 8.55 40.65 8.55 M72.0 40.9 Q72.0 27.9 62.8 18.75 53.6 9.55 40.65 9.55 27.7 9.55 18.55 18.7 L18.5 18.75 Q9.4 27.9 9.4 40.9 9.4 53.85 18.55 63.0 27.7 72.2 40.65 72.2 53.6 72.2 62.8 63.0 72.0 53.85 72.0 40.9 M18.2 18.85 L18.15 18.9 18.3 18.85 18.2 18.85 M65.55 65.3 L65.6 65.3 65.65 65.25 65.55 65.3 M65.65 66.25 L65.6 66.3 65.75 66.25 65.65 66.25" fill="#24252a" fill-rule="evenodd" stroke="none"/>
    <path d="M65.25 16.3 Q75.45 26.45 75.45 40.9 75.45 55.25 65.3 65.4 L65.35 65.4 65.25 65.45 Q55.05 75.65 40.65 75.65 26.25 75.65 16.05 65.45 5.9 55.3 5.9 40.9 5.9 26.5 16.05 16.3 26.3 6.1 40.65 6.1 55.0 6.1 65.15 16.15 L65.25 16.3 M70.8 40.85 Q70.8 28.3 61.9 19.5 53.15 10.75 40.7 10.75 28.15 10.75 19.35 19.5 10.55 28.3 10.55 40.85 10.55 53.3 19.35 62.05 28.15 70.95 40.7 70.95 53.15 70.95 61.9 62.05 70.8 53.3 70.8 40.85 M72.0 40.9 Q72.0 53.85 62.8 63.0 53.6 72.2 40.65 72.2 27.7 72.2 18.55 63.0 9.4 53.85 9.4 40.9 9.4 27.9 18.5 18.75 L18.55 18.7 Q27.7 9.55 40.65 9.55 53.6 9.55 62.8 18.75 72.0 27.9 72.0 40.9 M40.65 8.55 Q27.3 8.55 17.85 18.0 L17.9 18.0 17.8 18.05 Q8.4 27.5 8.4 40.9 8.4 54.25 17.85 63.7 27.3 73.2 40.65 73.2 54.0 73.2 63.5 63.7 73.0 54.25 73.0 40.9 73.0 27.5 63.5 18.05 54.0 8.55 40.65 8.55 M18.2 17.85 L18.15 17.9 18.1 17.9 18.2 17.85 M65.55 65.3 L65.65 65.25 65.6 65.3 65.55 65.3" fill="#9fa0a4" fill-rule="evenodd" stroke="none"/>
    <path d="M48.65 40.75 Q48.65 44.15 46.15 46.5 43.7 49.0 40.4 49.0 37.0 49.0 34.5 46.5 32.15 44.15 32.15 40.75 32.15 37.35 34.5 34.85 37.0 32.5 40.4 32.5 43.7 32.5 46.15 34.85 48.65 37.35 48.65 40.75" fill="#0d0e10" fill-rule="evenodd" stroke="none"/>
    <path d="M40.8 45.6 Q38.8 45.6 37.35 44.15 35.95 42.75 35.95 40.75 35.95 38.75 37.35 37.3 38.8 35.9 40.8 35.9 42.75 35.9 44.2 37.3 45.65 38.75 45.65 40.75 45.65 42.75 44.2 44.15 42.75 45.6 40.8 45.6" fill="url(#gradient1)" fill-rule="evenodd" stroke="none"/>
    <path d="M35.0 42.85 Q34.65 43.25 34.1 43.25 33.55 43.25 33.2 42.85 32.8 42.5 32.8 41.95 32.8 41.4 33.2 41.05 33.55 40.65 34.1 40.65 34.65 40.65 35.0 41.05 35.4 41.4 35.4 41.95 35.4 42.5 35.0 42.85" fill="#ffffff" fill-rule="evenodd" stroke="none"/>
    <path d="M41.7 47.95 Q41.35 48.35 40.8 48.35 40.25 48.35 39.9 47.95 39.5 47.6 39.5 47.05 39.5 46.5 39.9 46.15 40.25 45.75 40.8 45.75 41.35 45.75 41.7 46.15 42.1 46.5 42.1 47.05 42.1 47.6 41.7 47.95" fill="#ffffff" fill-rule="evenodd" stroke="none"/>
    <path d="M47.5 43.35 Q46.95 43.35 46.6 42.95 46.2 42.6 46.2 42.05 46.2 41.5 46.6 41.15 46.95 40.75 47.5 40.75 48.05 40.75 48.4 41.15 48.8 41.5 48.8 42.05 48.8 42.6 48.4 42.95 48.05 43.35 47.5 43.35" fill="#ffffff" fill-rule="evenodd" stroke="none"/>
    <path d="M45.8 35.35 Q45.45 35.75 44.9 35.75 44.35 35.75 44.0 35.35 43.6 35.0 43.6 34.45 43.6 33.9 44.0 33.55 44.35 33.15 44.9 33.15 45.45 33.15 45.8 33.55 46.2 33.9 46.2 34.45 46.2 35.0 45.8 35.35" fill="#ffffff" fill-rule="evenodd" stroke="none"/>
    <path d="M36.5 35.75 Q35.95 35.75 35.6 35.35 35.2 35.0 35.2 34.45 35.2 33.9 35.6 33.55 35.95 33.15 36.5 33.15 37.05 33.15 37.4 33.55 37.8 33.9 37.8 34.45 37.8 35.0 37.4 35.35 37.05 35.75 36.5 35.75" fill="#ffffff" fill-rule="evenodd" stroke="none"/>
    <path d="M28.7 14.7 L28.5 14.25 28.7 13.75 29.25 13.55 29.75 13.75 30.0 14.25 29.75 14.7 29.25 14.95 Q28.9 14.95 28.7 14.7" fill="#ffffff" fill-rule="evenodd" stroke="none"/>
    <path d="M34.1 12.45 L34.3 11.95 34.85 11.75 35.35 11.95 35.6 12.45 35.35 12.9 34.85 13.15 Q34.5 13.15 34.3 12.9 L34.1 12.45" fill="#ffffff" fill-rule="evenodd" stroke="none"/>
    <path d="M41.1 12.15 L40.6 12.4 40.05 12.15 39.85 11.7 40.05 11.2 40.6 11.0 41.1 11.2 41.35 11.7 41.1 12.15" fill="#ffffff" fill-rule="evenodd" stroke="none"/>
    <path d="M46.75 11.55 L47.25 11.75 47.5 12.25 47.25 12.7 46.75 12.95 Q46.4 12.95 46.2 12.7 L46.0 12.25 46.2 11.75 46.75 11.55" fill="#ffffff" fill-rule="evenodd" stroke="none"/>
    <path d="M23.85 16.6 L24.05 16.1 Q24.25 15.9 24.6 15.9 L25.1 16.1 25.35 16.6 25.1 17.05 24.6 17.3 Q24.25 17.3 24.05 17.05 L23.85 16.6" fill="#ffffff" fill-rule="evenodd" stroke="none"/>
    <path d="M19.25 20.3 Q19.45 20.1 19.8 20.1 L20.3 20.3 20.55 20.8 20.3 21.25 19.8 21.5 Q19.45 21.5 19.25 21.25 L19.05 20.8 19.25 20.3" fill="#ffffff" fill-rule="evenodd" stroke="none"/>
    <path d="M15.75 25.45 L16.25 25.65 16.5 26.15 16.25 26.6 15.75 26.85 Q15.4 26.85 15.2 26.6 L15.0 26.15 15.2 25.65 Q15.4 25.45 15.75 25.45" fill="#ffffff" fill-rule="evenodd" stroke="none"/>
    <path d="M13.65 31.3 L13.9 31.8 13.65 32.25 13.15 32.5 Q12.8 32.5 12.6 32.25 L12.4 31.8 12.6 31.3 Q12.8 31.1 13.15 31.1 L13.65 31.3" fill="#ffffff" fill-rule="evenodd" stroke="none"/>
    <path d="M12.6 37.15 L12.35 37.6 11.85 37.85 Q11.5 37.85 11.3 37.6 L11.1 37.15 11.3 36.65 11.85 36.45 12.35 36.65 12.6 37.15" fill="#ffffff" fill-rule="evenodd" stroke="none"/>
    <path d="M12.75 44.35 L12.25 44.6 11.7 44.35 11.5 43.9 11.7 43.4 12.25 43.2 12.75 43.4 13.0 43.9 12.75 44.35" fill="#ffffff" fill-rule="evenodd" stroke="none"/>
    <path d="M13.15 49.15 L13.65 49.35 13.9 49.85 13.65 50.3 13.15 50.55 Q12.8 50.55 12.6 50.3 L12.4 49.85 12.6 49.35 Q12.8 49.15 13.15 49.15" fill="#ffffff" fill-rule="evenodd" stroke="none"/>
    <path d="M15.2 55.4 L15.0 54.95 15.2 54.45 Q15.4 54.25 15.75 54.25 L16.25 54.45 16.5 54.95 16.25 55.4 15.75 55.65 Q15.4 55.65 15.2 55.4" fill="#ffffff" fill-rule="evenodd" stroke="none"/>
    <path d="M18.9 60.4 L19.1 59.9 19.65 59.7 20.15 59.9 20.4 60.4 20.15 60.85 19.65 61.1 Q19.3 61.1 19.1 60.85 L18.9 60.4" fill="#ffffff" fill-rule="evenodd" stroke="none"/>
    <path d="M23.05 63.5 Q23.25 63.3 23.6 63.3 L24.1 63.5 24.35 64.0 24.1 64.45 23.6 64.7 Q23.25 64.7 23.05 64.45 L22.85 64.0 23.05 63.5" fill="#ffffff" fill-rule="evenodd" stroke="none"/>
    <path d="M28.7 66.2 L29.2 66.4 29.45 66.9 29.2 67.35 28.7 67.6 28.15 67.35 27.95 66.9 28.15 66.4 Q28.35 66.2 28.7 66.2" fill="#ffffff" fill-rule="evenodd" stroke="none"/>
    <path d="M34.65 68.6 L34.9 69.1 34.65 69.55 34.15 69.8 33.6 69.55 33.4 69.1 33.6 68.6 34.15 68.4 34.65 68.6" fill="#ffffff" fill-rule="evenodd" stroke="none"/>
    <path d="M39.9 69.75 L40.1 69.25 40.65 69.05 41.15 69.25 41.4 69.75 41.15 70.2 40.65 70.45 Q40.3 70.45 40.1 70.2 L39.9 69.75" fill="#ffffff" fill-rule="evenodd" stroke="none"/>
    <path d="M47.7 69.5 L47.2 69.75 46.65 69.5 46.45 69.05 46.65 68.55 47.2 68.35 47.7 68.55 47.95 69.05 47.7 69.5" fill="#ffffff" fill-rule="evenodd" stroke="none"/>
    <path d="M52.9 67.95 L52.35 67.7 52.15 67.25 52.35 66.75 Q52.55 66.55 52.9 66.55 L53.4 66.75 53.65 67.25 53.4 67.7 52.9 67.95" fill="#ffffff" fill-rule="evenodd" stroke="none"/>
    <path d="M57.25 64.6 L57.05 64.15 57.25 63.65 57.8 63.45 58.3 63.65 58.55 64.15 58.3 64.6 57.8 64.85 57.25 64.6" fill="#ffffff" fill-rule="evenodd" stroke="none"/>
    <path d="M61.55 59.6 L61.75 59.1 62.3 58.9 62.8 59.1 63.05 59.6 62.8 60.05 62.3 60.3 61.75 60.05 61.55 59.6" fill="#ffffff" fill-rule="evenodd" stroke="none"/>
    <path d="M64.95 55.0 L65.5 54.8 66.0 55.0 66.25 55.5 66.0 55.95 65.5 56.2 64.95 55.95 64.75 55.5 64.95 55.0" fill="#ffffff" fill-rule="evenodd" stroke="none"/>
    <path d="M68.25 50.8 L67.7 50.55 67.5 50.1 67.7 49.6 68.25 49.4 68.75 49.6 69.0 50.1 68.75 50.55 68.25 50.8" fill="#ffffff" fill-rule="evenodd" stroke="none"/>
    <path d="M70.15 43.5 L70.4 44.0 70.15 44.45 69.65 44.7 69.1 44.45 68.9 44.0 69.1 43.5 69.65 43.3 70.15 43.5" fill="#ffffff" fill-rule="evenodd" stroke="none"/>
    <path d="M68.95 37.35 L69.15 36.85 69.7 36.65 70.2 36.85 70.45 37.35 70.2 37.8 69.7 38.05 69.15 37.8 68.95 37.35" fill="#ffffff" fill-rule="evenodd" stroke="none"/>
    <path d="M67.75 30.55 Q67.95 30.35 68.3 30.35 L68.8 30.55 69.05 31.05 68.8 31.5 68.3 31.75 Q67.95 31.75 67.75 31.5 L67.55 31.05 67.75 30.55" fill="#ffffff" fill-rule="evenodd" stroke="none"/>
    <path d="M65.45 24.8 L65.95 25.0 66.2 25.5 65.95 25.95 65.45 26.2 64.9 25.95 64.7 25.5 64.9 25.0 65.45 24.8" fill="#ffffff" fill-rule="evenodd" stroke="none"/>
    <path d="M62.1 20.0 L62.35 20.5 62.1 20.95 61.6 21.2 61.05 20.95 60.85 20.5 61.05 20.0 Q61.25 19.8 61.6 19.8 L62.1 20.0" fill="#ffffff" fill-rule="evenodd" stroke="none"/>
    <path d="M57.95 16.8 L57.7 17.25 57.2 17.5 56.65 17.25 56.45 16.8 56.65 16.3 Q56.85 16.1 57.2 16.1 L57.7 16.3 57.95 16.8" fill="#ffffff" fill-rule="evenodd" stroke="none"/>
    <path d="M52.55 14.4 L52.05 14.65 51.5 14.4 51.3 13.95 51.5 13.45 52.05 13.25 52.55 13.45 52.8 13.95 52.55 14.4" fill="#ffffff" fill-rule="evenodd" stroke="none"/>
  </g>
  <defs>
    <radialGradient cx="0" cy="0" gradientTransform="matrix(0.0511, 0.0, 0.0, 0.0511, 40.8, 40.8)" gradientUnits="userSpaceOnUse" id="gradient0" r="819.2" spreadMethod="pad">
      <stop offset="0.8274509803921568" stop-color="#232427"/>
      <stop offset="0.9568627450980393" stop-color="#404248"/>
      <stop offset="1.0" stop-color="#3a3c41"/>
    </radialGradient>
    <radialGradient cx="0" cy="0" gradientTransform="matrix(0.0065, 0.0, 0.0, 0.0065, 40.8, 40.75)" gradientUnits="userSpaceOnUse" id="gradient1" r="819.2" spreadMethod="pad">
      <stop offset="0.19607843137254902" stop-color="#626578"/>
      <stop offset="1.0" stop-color="#1e1b22"/>
    </radialGradient>
  </defs>
</svg>
