<?xml version="1.0" encoding="UTF-8" standalone="no"?>
<svg xmlns:xlink="http://www.w3.org/1999/xlink" height="145.85px" width="145.85px" xmlns="http://www.w3.org/2000/svg">
  <g transform="matrix(1, 0, 0, 1, 0.0, 0.0)">
    <path d="M112.35 44.9 L112.05 44.85 87.85 69.95 88.15 72.3 128.05 82.45 127.85 83.75 88.05 74.85 Q87.85 76.75 87.05 79.5 L121.4 90.75 121.35 90.7 Q121.35 89.7 122.35 89.7 123.35 89.7 123.35 90.7 L123.15 91.3 123.1 91.4 126.45 92.6 126.2 94.25 83.75 83.6 83.7 83.65 82.45 84.8 88.65 121.8 88.65 121.85 86.9 122.5 78.3 87.2 Q75.9 88.1 73.2 88.1 L80.05 125.4 78.3 125.8 69.9 87.8 67.0 86.9 36.3 112.1 34.95 110.5 62.85 84.15 62.35 83.65 60.55 81.5 31.0 104.2 30.05 103.3 59.0 78.65 58.65 77.7 Q58.2 76.35 58.05 74.85 L22.35 62.2 22.95 60.55 58.0 71.95 Q58.15 69.0 59.35 66.5 L26.65 54.05 27.55 52.45 27.6 52.45 62.0 62.65 62.35 62.3 Q63.7 61.0 65.2 60.05 L59.5 18.5 61.15 18.5 61.95 21.95 Q61.6 22.25 61.55 22.7 61.5 23.35 62.0 23.6 L62.4 23.75 69.2 58.4 73.05 57.9 74.0 57.95 70.2 18.15 71.5 18.15 76.5 58.3 Q78.35 58.7 80.0 59.55 L105.55 34.7 107.6 36.1 82.9 61.55 83.7 62.3 85.4 64.3 86.05 65.25 115.75 38.15 115.4 41.4 113.3 43.55 113.35 43.9 113.15 44.5 Q112.85 44.9 112.35 44.9" fill="url(#gradient0)" fill-rule="evenodd" stroke="none"/>
    <path d="M145.85 72.9 Q145.85 103.1 124.5 124.45 103.15 145.85 72.95 145.85 42.75 145.85 21.35 124.45 0.0 103.1 0.0 72.9 0.0 42.7 21.35 21.3 42.75 0.0 72.95 0.0 103.15 0.0 124.5 21.3 145.85 42.7 145.85 72.9 M120.6 72.9 Q120.6 53.15 106.65 39.15 92.7 25.25 72.95 25.25 53.2 25.25 39.2 39.15 25.25 53.15 25.25 72.9 25.25 92.65 39.2 106.65 53.2 120.6 72.95 120.6 92.7 120.6 106.65 106.65 120.6 92.65 120.6 72.9" fill="url(#gradient1)" fill-rule="evenodd" stroke="none"/>
    <path d="M112.1 33.75 Q128.25 50.0 128.3 72.9 128.25 95.9 112.1 112.1 95.9 128.25 72.9 128.3 50.0 128.25 33.75 112.1 L33.8 112.1 Q17.6 95.9 17.6 72.9 17.6 50.0 33.75 33.8 L33.8 33.75 Q50.0 17.6 72.9 17.6 95.9 17.6 112.1 33.8 L112.1 33.75 M108.3 37.55 Q93.65 22.9 72.9 22.9 52.2 22.9 37.55 37.55 22.85 52.25 22.85 72.9 22.85 93.7 37.55 108.4 52.2 123.0 72.9 123.0 93.65 123.0 108.3 108.4 122.95 93.7 122.95 72.9 122.95 52.25 108.3 37.55" fill="#323232" fill-rule="evenodd" stroke="none"/>
    <path d="M108.3 37.55 Q122.95 52.25 122.95 72.9 122.95 93.7 108.3 108.4 93.65 123.0 72.9 123.0 52.2 123.0 37.55 108.4 22.85 93.7 22.85 72.9 22.85 52.25 37.55 37.55 52.2 22.9 72.9 22.9 93.65 22.9 108.3 37.55 M121.35 72.9 Q121.35 52.95 107.15 38.7 92.95 24.5 72.9 24.5 52.9 24.5 38.7 38.7 24.45 52.95 24.45 72.9 24.45 93.0 38.7 107.25 52.9 121.4 72.9 121.4 92.95 121.4 107.15 107.25 121.35 93.0 121.35 72.9" fill="#666666" fill-rule="evenodd" stroke="none"/>
    <path d="M111.05 47.45 Q118.4 58.3 118.4 72.2 118.4 75.95 117.85 79.5 L117.95 79.65 Q120.15 82.25 119.75 86.9 117.9 90.8 114.15 91.65 110.9 98.4 105.2 104.1 97.5 111.8 88.0 115.0 L87.7 115.25 Q86.25 118.35 81.85 119.85 77.9 119.7 75.65 117.25 L73.3 117.3 Q56.45 117.3 44.05 106.5 L44.1 106.65 43.7 106.55 Q40.4 107.3 36.5 104.65 33.85 100.85 35.25 96.9 L35.1 96.3 Q28.25 85.7 28.25 72.2 28.25 68.6 28.8 65.15 26.35 62.8 26.4 58.15 28.05 53.75 32.15 52.75 L32.75 52.1 32.75 52.3 Q35.95 45.85 41.45 40.35 49.1 32.7 58.55 29.5 L59.0 29.1 Q60.3 25.2 64.8 23.9 69.45 24.35 71.6 26.9 L71.95 27.15 71.95 27.2 73.3 27.15 Q90.2 27.15 102.55 37.9 105.85 37.2 109.8 39.7 112.45 43.5 111.05 47.45 M98.45 97.3 Q108.8 86.95 108.8 72.2 108.8 57.5 98.45 47.1 88.05 36.7 73.3 36.7 58.6 36.7 48.25 47.1 37.8 57.5 37.8 72.2 37.8 86.95 48.25 97.3 58.6 107.7 73.3 107.7 88.05 107.7 98.45 97.3" fill="#e0e0e0" fill-rule="evenodd" stroke="none"/>
    <path d="M79.5 118.35 Q79.5 117.4 80.2 116.7 80.9 116.0 81.85 116.0 82.85 116.0 83.5 116.7 84.2 117.4 84.2 118.35 84.2 119.3 83.5 120.0 82.85 120.7 81.85 120.7 80.9 120.7 80.2 120.0 79.5 119.3 79.5 118.35 M81.05 118.4 L81.15 118.85 Q81.35 119.35 82.0 119.35 82.45 119.35 82.75 118.95 L82.95 118.4 Q82.95 117.45 82.0 117.45 81.05 117.45 81.05 118.4" fill="#b3b3b3" fill-rule="evenodd" stroke="none"/>
    <path d="M81.05 118.4 Q81.05 117.45 82.0 117.45 82.95 117.45 82.95 118.4 L82.75 118.95 Q82.45 119.35 82.0 119.35 81.35 119.35 81.15 118.85 L81.05 118.4" fill="#505050" fill-rule="evenodd" stroke="none"/>
    <path d="M120.2 86.45 Q120.2 87.4 119.55 88.1 118.85 88.8 117.85 88.8 116.9 88.8 116.2 88.1 115.5 87.4 115.5 86.45 115.5 85.5 116.2 84.8 116.9 84.1 117.85 84.1 118.85 84.1 119.55 84.8 120.2 85.5 120.2 86.45 M118.95 86.5 Q118.95 85.55 118.0 85.55 117.05 85.55 117.05 86.5 L117.15 86.95 Q117.4 87.45 118.0 87.45 118.5 87.45 118.75 87.1 L118.95 86.5" fill="#b3b3b3" fill-rule="evenodd" stroke="none"/>
    <path d="M118.95 86.5 L118.75 87.1 Q118.5 87.45 118.0 87.45 117.4 87.45 117.15 86.95 L117.05 86.5 Q117.05 85.55 118.0 85.55 118.95 85.55 118.95 86.5" fill="#505050" fill-rule="evenodd" stroke="none"/>
    <path d="M108.2 38.9 Q109.2 38.9 109.9 39.55 110.55 40.3 110.55 41.25 110.55 42.2 109.9 42.85 109.2 43.6 108.2 43.6 107.25 43.6 106.55 42.85 105.85 42.2 105.85 41.25 105.85 40.3 106.55 39.55 107.25 38.9 108.2 38.9 M107.5 41.7 Q107.75 42.25 108.35 42.25 108.85 42.25 109.1 41.85 L109.3 41.3 Q109.3 40.35 108.35 40.35 107.4 40.35 107.4 41.3 L107.5 41.7" fill="#b3b3b3" fill-rule="evenodd" stroke="none"/>
    <path d="M107.5 41.7 L107.4 41.3 Q107.4 40.35 108.35 40.35 109.3 40.35 109.3 41.3 L109.1 41.85 Q108.85 42.25 108.35 42.25 107.75 42.25 107.5 41.7" fill="#505050" fill-rule="evenodd" stroke="none"/>
    <path d="M66.3 24.55 Q67.0 25.3 67.0 26.25 67.0 27.2 66.3 27.85 65.65 28.6 64.65 28.6 63.7 28.6 63.0 27.85 62.3 27.2 62.3 26.25 62.3 25.3 63.0 24.55 63.7 23.9 64.65 23.9 65.65 23.9 66.3 24.55 M65.55 26.85 L65.75 26.3 Q65.75 25.35 64.8 25.35 63.85 25.35 63.85 26.3 L63.95 26.7 Q64.15 27.25 64.8 27.25 65.25 27.25 65.55 26.85" fill="#b3b3b3" fill-rule="evenodd" stroke="none"/>
    <path d="M65.55 26.85 Q65.25 27.25 64.8 27.25 64.15 27.25 63.95 26.7 L63.85 26.3 Q63.85 25.35 64.8 25.35 65.75 25.35 65.75 26.3 L65.55 26.85" fill="#505050" fill-rule="evenodd" stroke="none"/>
    <path d="M29.75 58.55 Q29.75 59.5 29.1 60.15 28.4 60.9 27.4 60.9 26.45 60.9 25.75 60.15 25.05 59.5 25.05 58.55 25.05 57.6 25.75 56.85 26.45 56.2 27.4 56.2 28.4 56.2 29.1 56.85 29.75 57.6 29.75 58.55 M27.55 57.65 Q26.6 57.65 26.6 58.6 L26.7 59.0 Q26.95 59.55 27.55 59.55 28.05 59.55 28.3 59.15 L28.5 58.6 Q28.5 57.65 27.55 57.65" fill="#b3b3b3" fill-rule="evenodd" stroke="none"/>
    <path d="M27.55 57.65 Q28.5 57.65 28.5 58.6 L28.3 59.15 Q28.05 59.55 27.55 59.55 26.95 59.55 26.7 59.0 L26.6 58.6 Q26.6 57.65 27.55 57.65" fill="#505050" fill-rule="evenodd" stroke="none"/>
    <path d="M37.0 102.35 Q36.05 102.35 36.05 103.3 L36.15 103.7 Q36.35 104.25 37.0 104.25 L37.75 103.85 37.95 103.3 Q37.95 102.35 37.0 102.35 M38.5 104.85 Q37.85 105.6 36.85 105.6 35.9 105.6 35.15 104.85 34.5 104.2 34.5 103.25 34.5 102.3 35.15 101.55 35.9 100.9 36.85 100.9 37.85 100.9 38.5 101.55 39.2 102.3 39.2 103.25 39.2 104.2 38.5 104.85" fill="#b3b3b3" fill-rule="evenodd" stroke="none"/>
    <path d="M37.0 102.35 Q37.95 102.35 37.95 103.3 L37.75 103.85 37.0 104.25 Q36.35 104.25 36.15 103.7 L36.05 103.3 Q36.05 102.35 37.0 102.35" fill="#505050" fill-rule="evenodd" stroke="none"/>
  </g>
  <defs>
    <radialGradient cx="0" cy="0" gradientTransform="matrix(0.0698, 0.0, 0.0, 0.0698, 72.75, 74.1)" gradientUnits="userSpaceOnUse" id="gradient0" r="819.2" spreadMethod="pad">
      <stop offset="0.0" stop-color="#1d2726"/>
      <stop offset="0.25882352941176473" stop-color="#212322"/>
      <stop offset="0.37254901960784315" stop-color="#4c4c4c"/>
      <stop offset="1.0" stop-color="#404040"/>
    </radialGradient>
    <radialGradient cx="0" cy="0" gradientTransform="matrix(0.0905, 0.0, 0.0, 0.0905, 72.95, 72.95)" gradientUnits="userSpaceOnUse" id="gradient1" r="819.2" spreadMethod="pad">
      <stop offset="0.6627450980392157" stop-color="#171f1e"/>
      <stop offset="0.8549019607843137" stop-color="#222525"/>
      <stop offset="1.0" stop-color="#121818"/>
    </radialGradient>
  </defs>
</svg>
