<?xml version="1.0" encoding="UTF-8" standalone="no"?>
<svg xmlns:xlink="http://www.w3.org/1999/xlink" height="151.45px" width="151.45px" xmlns="http://www.w3.org/2000/svg">
  <g transform="matrix(1, 0, 0, 1, 0.0, 0.0)">
    <path d="M121.9 41.85 L122.35 42.15 131.05 51.65 131.25 52.1 131.2 52.55 130.85 52.95 89.4 76.25 132.85 102.75 133.1 103.1 133.2 103.5 133.1 103.9 126.4 114.25 125.9 114.6 125.3 114.5 83.5 89.25 83.9 140.15 83.7 140.75 83.15 141.0 71.2 141.95 70.7 141.9 70.4 141.6 70.25 141.15 69.95 87.1 23.55 113.1 23.15 113.2 22.75 113.1 22.4 112.8 16.95 102.4 16.9 101.8 Q16.95 101.4 17.3 101.25 L61.75 76.0 22.6 52.4 22.25 52.05 22.15 51.6 22.35 51.15 30.9 41.2 31.4 40.9 32.0 41.05 69.85 64.2 69.5 22.85 69.6 22.45 Q69.7 22.25 69.95 22.15 L70.4 22.05 82.3 22.25 Q82.6 22.25 82.85 22.5 L83.05 23.05 83.35 63.7 121.35 41.95 121.9 41.85 M82.9 65.8 L82.35 65.9 81.85 65.65 81.65 65.1 81.4 23.9 71.2 23.75 71.5 65.65 71.3 66.2 70.8 66.5 70.25 66.4 31.7 42.8 24.3 51.5 63.8 75.3 64.1 75.7 64.1 76.3 63.75 76.7 18.85 102.35 23.5 111.25 70.35 84.9 70.9 84.85 Q71.2 84.85 71.4 85.1 L71.6 85.65 71.9 140.25 82.25 139.4 81.8 87.75 82.05 87.25 82.55 86.95 83.1 87.1 125.45 112.7 131.25 103.7 87.3 76.9 86.95 76.45 86.95 75.95 87.3 75.45 129.1 52.0 121.6 43.8 82.9 65.8" fill="#5c5c5c" fill-rule="evenodd" stroke="none"/>
    <path d="M82.9 65.8 L121.6 43.8 129.1 52.0 87.3 75.45 86.95 75.95 86.95 76.45 87.3 76.9 131.25 103.7 125.45 112.7 83.1 87.1 82.55 86.95 82.05 87.25 81.8 87.75 82.25 139.4 71.9 140.25 71.6 85.65 71.4 85.1 Q71.2 84.85 70.9 84.85 L70.35 84.9 23.5 111.25 18.85 102.35 63.75 76.7 64.1 76.3 64.1 75.7 63.8 75.3 24.3 51.5 31.7 42.8 70.25 66.4 70.8 66.5 71.3 66.2 71.5 65.65 71.2 23.75 81.4 23.9 81.65 65.1 81.85 65.65 82.35 65.9 82.9 65.8" fill="url(#gradient0)" fill-rule="evenodd" stroke="none"/>
    <path d="M151.45 75.7 Q151.45 107.05 129.3 129.25 107.15 151.45 75.75 151.45 44.4 151.45 22.2 129.25 0.0 107.05 0.0 75.7 0.0 44.35 22.2 22.15 44.4 0.0 75.75 0.0 107.15 0.0 129.3 22.15 151.45 44.35 151.45 75.7 M125.25 75.7 Q125.25 55.2 110.75 40.65 96.3 26.25 75.75 26.25 55.25 26.25 40.75 40.65 26.25 55.2 26.25 75.7 26.25 96.2 40.75 110.75 55.25 125.25 75.75 125.25 96.3 125.25 110.75 110.75 125.25 96.2 125.25 75.7" fill="url(#gradient1)" fill-rule="evenodd" stroke="none"/>
    <path d="M113.85 37.75 Q129.5 53.5 129.55 75.75 129.5 98.05 113.85 113.8 98.1 129.5 75.75 129.55 53.55 129.5 37.75 113.8 L37.8 113.8 Q22.1 98.05 22.1 75.75 22.1 53.5 37.75 37.8 L37.8 37.75 Q53.55 22.05 75.75 22.05 98.1 22.05 113.85 37.8 L113.85 37.75 M110.15 41.4 Q95.9 27.2 75.75 27.2 55.65 27.2 41.45 41.4 27.2 55.7 27.2 75.75 27.2 95.95 41.45 110.2 55.65 124.4 75.75 124.4 95.9 124.4 110.15 110.2 124.35 95.95 124.35 75.75 124.35 55.7 110.15 41.4" fill="#323232" fill-rule="evenodd" stroke="none"/>
    <path d="M110.15 41.4 Q124.35 55.7 124.35 75.75 124.35 95.95 110.15 110.2 95.9 124.4 75.75 124.4 55.65 124.4 41.45 110.2 27.2 95.95 27.2 75.75 27.2 55.7 41.45 41.4 55.65 27.2 75.75 27.2 95.9 27.2 110.15 41.4 M122.8 75.75 Q122.8 56.35 109.0 42.55 95.25 28.75 75.75 28.75 56.35 28.75 42.55 42.55 28.75 56.35 28.75 75.75 28.75 95.25 42.55 109.1 56.35 122.85 75.75 122.85 95.25 122.85 109.0 109.1 122.8 95.25 122.8 75.75" fill="#666666" fill-rule="evenodd" stroke="none"/>
    <path d="M89.5 61.6 Q84.3 56.55 77.25 56.1 76.0 59.1 76.9 62.1 81.15 62.4 84.45 65.05 87.5 64.05 89.5 61.6 M93.2 66.2 Q90.2 67.45 88.25 69.75 89.65 72.55 89.65 75.95 89.65 78.25 89.05 80.35 L89.1 80.4 Q91.4 82.75 94.4 83.3 95.7 79.85 95.7 75.95 95.7 70.55 93.2 66.2 M85.55 85.8 Q82.8 88.55 79.35 89.45 78.4 92.5 79.7 95.5 85.45 94.4 89.85 90.05 L91.3 88.5 Q89.0 86.35 85.7 85.7 L85.55 85.8 M107.1 75.95 Q107.1 88.95 97.9 98.1 88.75 107.35 75.75 107.35 62.8 107.35 53.55 98.1 44.4 88.95 44.4 75.95 44.4 62.95 53.55 53.75 62.8 44.6 75.75 44.6 88.75 44.6 97.9 53.75 107.1 62.95 107.1 75.95 M64.7 67.5 L65.9 66.1 Q68.2 63.9 70.95 62.9 71.6 59.0 70.05 56.8 65.35 58.15 61.7 61.9 60.35 63.25 59.35 64.7 61.35 66.75 64.7 67.5 M57.4 83.75 Q60.7 83.2 62.4 80.2 L62.45 80.2 62.45 80.15 Q61.85 78.15 61.85 75.95 61.85 74.9 62.0 73.9 59.35 71.25 56.55 70.55 55.8 73.1 55.8 75.95 55.8 80.15 57.3 83.65 L57.4 83.75 M65.9 85.8 L65.4 85.3 Q62.0 86.1 60.9 89.2 L60.95 89.3 61.7 90.05 Q66.65 95.05 73.5 95.75 74.4 92.75 73.35 89.75 69.1 89.0 65.9 85.8" fill="#e8e8e8" fill-rule="evenodd" stroke="none"/>
    <path d="M84.7 49.4 Q84.7 50.45 83.55 50.45 82.75 50.45 82.5 49.85 L82.4 49.4 Q82.4 48.35 83.55 48.35 84.7 48.35 84.7 49.4 M104.6 70.8 Q104.3 71.2 103.8 71.2 103.1 71.2 102.85 70.6 L102.75 70.15 Q102.75 69.1 103.8 69.1 104.85 69.1 104.85 70.15 L104.6 70.8 M95.3 55.9 Q95.3 54.9 96.3 54.8 97.35 54.75 97.35 55.9 97.35 57.05 96.3 57.05 95.2 57.05 95.3 55.9 M92.6 52.3 Q92.6 53.35 91.45 53.35 90.65 53.35 90.4 52.75 L90.3 52.3 Q90.3 51.25 91.45 51.25 92.6 51.25 92.6 52.3 M91.75 58.95 Q91.45 59.35 90.9 59.35 90.25 59.35 90.0 58.8 L89.9 58.3 Q89.9 57.3 90.9 57.3 91.95 57.3 91.95 58.3 L91.75 58.95 M87.6 53.8 L87.4 54.55 Q87.05 55.0 86.55 55.0 85.45 55.0 85.5 53.8 85.5 52.8 86.55 52.7 87.6 52.65 87.6 53.8 M100.25 63.1 Q99.6 63.1 99.35 62.55 L99.2 62.05 Q99.2 61.0 100.25 61.0 101.3 61.0 101.3 62.05 L101.1 62.7 Q100.8 63.1 100.25 63.1 M98.6 67.95 L98.4 68.65 Q98.1 69.1 97.55 69.1 96.45 69.1 96.5 67.95 96.5 66.95 97.55 66.85 98.6 66.8 98.6 67.95 M93.8 63.1 Q93.8 62.05 94.85 62.05 95.9 62.05 95.9 63.1 L95.7 63.7 Q95.4 64.15 94.85 64.15 94.2 64.15 93.95 63.55 L93.8 63.1 M99.45 74.95 Q100.45 74.95 100.45 75.95 L100.25 76.6 Q99.95 77.0 99.45 77.0 98.75 77.0 98.5 76.45 L98.4 75.95 Q98.4 74.95 99.45 74.95 M98.6 83.65 L98.4 84.3 Q98.1 84.7 97.55 84.7 96.9 84.7 96.65 84.1 L96.5 83.65 Q96.5 82.6 97.55 82.6 98.6 82.6 98.6 83.65 M87.5 97.8 Q86.7 97.8 86.45 97.2 L86.35 96.75 Q86.35 95.7 87.5 95.7 88.65 95.7 88.65 96.75 88.65 97.8 87.5 97.8 M100.45 87.15 Q100.75 87.0 101.1 87.0 102.15 87.0 102.15 88.0 L101.9 88.65 Q101.6 89.05 101.1 89.05 L100.45 88.9 100.15 88.5 100.05 88.0 Q100.05 87.35 100.45 87.15 M93.95 90.75 L93.8 90.3 Q93.8 89.25 94.85 89.25 95.9 89.25 95.9 90.3 L95.7 90.95 Q95.4 91.35 94.85 91.35 94.2 91.35 93.95 90.75 M95.9 95.3 Q95.9 94.25 96.95 94.25 98.0 94.25 98.0 95.3 L97.75 95.9 Q97.45 96.3 96.95 96.3 96.25 96.3 96.0 95.75 L95.9 95.3 M105.25 81.8 L105.05 82.4 104.2 82.85 Q103.55 82.85 103.25 82.25 L103.15 81.8 Q103.15 80.75 104.2 80.75 105.25 80.75 105.25 81.8 M65.6 48.75 Q65.6 47.75 66.6 47.75 67.65 47.75 67.65 48.75 L67.45 49.4 Q67.15 49.8 66.6 49.8 65.95 49.8 65.7 49.25 L65.6 48.75 M74.3 47.5 Q75.35 47.5 75.35 48.55 L75.15 49.2 Q74.8 49.6 74.3 49.6 73.65 49.6 73.35 49.05 L73.25 48.55 Q73.25 47.5 74.3 47.5 M71.2 53.75 Q70.5 53.75 70.25 53.2 L70.15 52.7 Q70.15 51.65 71.2 51.65 72.2 51.65 72.2 52.7 L72.0 53.35 Q71.7 53.75 71.2 53.75 M78.15 54.15 Q77.35 54.15 77.1 53.6 L77.0 53.15 Q77.0 52.1 78.15 52.1 79.3 52.1 79.3 53.15 79.3 54.15 78.15 54.15 M63.4 54.65 L63.3 54.15 Q63.3 53.15 64.45 53.15 65.6 53.15 65.6 54.15 65.6 55.2 64.45 55.2 63.65 55.2 63.4 54.65 M59.85 51.65 Q61.0 51.65 61.0 52.7 61.0 53.75 59.85 53.75 59.1 53.75 58.85 53.2 L58.75 52.7 Q58.75 51.65 59.85 51.65 M54.35 58.55 L54.15 59.15 Q53.85 59.55 53.35 59.55 52.65 59.55 52.4 59.0 L52.3 58.55 Q52.3 57.5 53.35 57.5 54.35 57.5 54.35 58.55 M57.5 61.0 Q56.6 61.0 56.35 60.3 L56.25 59.7 Q56.25 58.8 57.4 58.75 58.5 58.7 58.5 59.85 58.5 61.0 57.5 61.0 M47.95 67.65 Q48.95 67.65 48.95 68.7 L48.75 69.35 Q48.45 69.75 47.95 69.75 47.25 69.75 47.0 69.15 L46.9 68.7 Q46.9 67.65 47.95 67.65 M53.95 66.2 L53.75 66.85 Q53.45 67.25 52.9 67.25 52.25 67.25 52.0 66.7 L51.85 66.2 Q51.85 65.15 52.9 65.15 53.95 65.15 53.95 66.2 M51.65 75.35 L51.45 75.95 Q51.15 76.4 50.65 76.4 49.95 76.4 49.7 75.8 L49.6 75.35 Q49.6 74.3 50.65 74.3 51.65 74.3 51.65 75.35 M51.75 84.95 L51.65 84.5 Q51.65 83.45 52.7 83.45 53.75 83.45 53.75 84.5 L53.55 85.1 Q53.2 85.55 52.7 85.55 52.05 85.55 51.75 84.95 M47.95 78.4 Q48.35 78.65 48.35 79.3 48.35 79.9 47.95 80.2 L47.2 80.35 Q46.4 80.35 46.15 79.75 L46.05 79.3 Q46.05 78.25 47.2 78.25 L47.95 78.4 M49.15 90.95 Q49.15 89.9 50.3 89.9 51.45 89.9 51.45 90.95 51.45 91.95 50.3 91.95 49.55 91.95 49.3 91.4 L49.15 90.95 M55.7 91.8 L55.6 91.35 Q55.6 90.3 56.65 90.3 57.7 90.3 57.7 91.35 L57.5 91.95 Q57.15 92.4 56.65 92.4 55.95 92.4 55.7 91.8 M57.15 96.55 Q58.3 96.5 58.3 97.55 L57.95 98.35 Q57.6 98.8 57.05 98.8 55.95 98.8 56.05 97.6 56.05 96.6 57.15 96.55 M64.15 96.3 L63.9 96.95 Q63.6 97.35 63.1 97.35 62.4 97.35 62.15 96.8 L62.05 96.3 Q62.05 95.3 63.1 95.3 64.15 95.3 64.15 96.3 M78.65 99.25 Q79.7 99.25 79.7 100.25 L79.5 100.9 Q79.2 101.3 78.65 101.3 78.0 101.3 77.75 100.75 L77.6 100.25 Q77.6 99.25 78.65 99.25 M75.15 104.2 Q75.15 105.25 74.0 105.25 73.2 105.25 72.95 104.7 L72.85 104.2 Q72.85 103.2 74.0 103.2 75.15 103.2 75.15 104.2 M71.6 101.1 Q70.7 101.1 70.45 100.35 L70.35 99.8 Q70.35 98.75 71.5 98.85 72.65 98.95 72.65 100.05 L72.35 100.8 71.6 101.1 M65.35 101.7 L65.15 102.35 Q64.85 102.75 64.35 102.75 63.65 102.75 63.4 102.2 L63.3 101.7 Q63.3 100.7 64.35 100.7 65.35 100.7 65.35 101.7 M92.8 100.3 Q92.8 101.5 91.75 101.5 90.65 101.5 90.7 100.3 90.7 99.35 91.75 99.25 92.8 99.2 92.8 100.3 M83.75 104.0 Q82.95 104.0 82.7 103.45 L82.6 102.95 Q82.6 101.95 83.75 101.95 84.9 101.95 84.9 102.95 84.9 104.0 83.75 104.0" fill="#a2a2a2" fill-rule="evenodd" stroke="none"/>
    <path d="M83.0 69.1 Q83.0 66.95 85.1 67.1 87.2 67.3 87.2 69.1 L86.75 70.35 Q86.2 71.2 85.1 71.2 83.9 71.2 83.35 70.2 83.0 69.65 83.0 69.1 M85.25 69.35 Q85.25 68.55 84.5 68.55 83.7 68.55 83.7 69.4 83.6 70.1 84.5 70.1 85.25 70.1 85.25 69.35 M83.85 82.6 Q83.85 80.45 85.95 80.6 88.0 80.8 88.0 82.6 88.0 83.3 87.6 83.85 87.0 84.7 85.95 84.7 84.0 84.7 83.85 82.6 M85.15 82.45 Q85.0 83.2 86.05 83.2 86.9 83.2 86.9 82.4 86.9 81.65 86.05 81.65 85.15 81.65 85.15 82.45 M64.15 72.15 Q64.15 70.0 66.3 69.95 68.5 69.9 68.5 72.05 68.5 72.7 67.9 73.45 67.2 74.3 66.2 74.3 64.95 74.3 64.45 73.3 64.15 72.75 64.15 72.15 M66.6 72.6 Q66.95 72.6 67.15 72.4 L67.4 71.8 Q67.4 71.05 66.6 71.05 65.85 71.05 65.85 71.85 65.75 72.6 66.6 72.6 M77.0 66.85 Q76.45 67.65 75.15 67.65 73.75 67.65 73.15 66.7 72.85 66.15 72.85 65.6 72.85 63.5 75.15 63.5 77.4 63.5 77.4 65.6 77.4 66.25 77.0 66.85 M75.65 65.95 L75.9 65.4 Q75.9 64.6 75.15 64.6 74.35 64.6 74.35 65.45 74.25 66.15 75.15 66.15 L75.65 65.95 M64.0 82.25 Q63.7 81.7 63.7 81.05 63.7 78.85 65.8 78.95 67.85 79.1 67.85 81.1 L67.45 82.35 Q66.9 83.25 65.8 83.25 64.6 83.25 64.0 82.25 M65.9 81.95 Q66.75 81.9 66.75 81.15 66.75 80.4 65.9 80.4 65.0 80.4 65.0 81.2 64.85 81.95 65.9 81.95 M75.8 86.8 Q75.7 87.55 76.6 87.55 77.35 87.55 77.35 86.75 77.35 86.0 76.6 86.0 75.8 86.0 75.8 86.8 M78.25 88.45 Q77.7 89.25 76.6 89.25 75.4 89.25 74.8 88.3 74.5 87.7 74.5 87.2 74.5 85.0 76.6 85.15 78.65 85.35 78.65 87.2 L78.25 88.45" fill="#d6d6d6" fill-rule="evenodd" stroke="none"/>
    <path d="M85.25 69.35 Q85.25 70.1 84.5 70.1 83.6 70.1 83.7 69.4 83.7 68.55 84.5 68.55 85.25 68.55 85.25 69.35 M85.15 82.45 Q85.15 81.65 86.05 81.65 86.9 81.65 86.9 82.4 86.9 83.2 86.05 83.2 85.0 83.2 85.15 82.45 M66.6 72.6 Q65.75 72.6 65.85 71.85 65.85 71.05 66.6 71.05 67.4 71.05 67.4 71.8 L67.15 72.4 Q66.95 72.6 66.6 72.6 M75.65 65.95 L75.15 66.15 Q74.25 66.15 74.35 65.45 74.35 64.6 75.15 64.6 75.9 64.6 75.9 65.4 L75.65 65.95 M65.9 81.95 Q64.85 81.95 65.0 81.2 65.0 80.4 65.9 80.4 66.75 80.4 66.75 81.15 66.75 81.9 65.9 81.95 M75.8 86.8 Q75.8 86.0 76.6 86.0 77.35 86.0 77.35 86.75 77.35 87.55 76.6 87.55 75.7 87.55 75.8 86.8" fill="#999999" fill-rule="evenodd" stroke="none"/>
  </g>
  <defs>
    <radialGradient cx="0" cy="0" gradientTransform="matrix(0.0775, 0.007, -0.007, 0.0775, 77.15, 78.75)" gradientUnits="userSpaceOnUse" id="gradient0" r="819.2" spreadMethod="pad">
      <stop offset="0.011764705882352941" stop-color="#282828"/>
      <stop offset="0.8627450980392157" stop-color="#1f1f1f"/>
      <stop offset="1.0" stop-color="#0d0d0d"/>
    </radialGradient>
    <radialGradient cx="0" cy="0" gradientTransform="matrix(0.094, 0.0, 0.0, 0.094, 75.75, 75.75)" gradientUnits="userSpaceOnUse" id="gradient1" r="819.2" spreadMethod="pad">
      <stop offset="0.6627450980392157" stop-color="#171f1e"/>
      <stop offset="0.8549019607843137" stop-color="#222525"/>
      <stop offset="1.0" stop-color="#121818"/>
    </radialGradient>
  </defs>
</svg>
