<?xml version="1.0" encoding="UTF-8" standalone="no"?>
<svg xmlns:xlink="http://www.w3.org/1999/xlink" height="14.9px" width="11.3px" xmlns="http://www.w3.org/2000/svg">
  <g transform="matrix(1, 0, 0, 1, 0.0, 0.0)">
    <path d="M0.0 1.9 Q0.0 1.1 0.65 0.55 1.4 0.0 2.4 0.0 L3.3 0.0 Q4.3 0.0 5.0 0.55 5.7 1.1 5.7 1.9 L5.7 13.0 Q5.7 13.8 5.0 14.35 4.3 14.9 3.3 14.9 L2.4 14.9 Q1.4 14.9 0.65 14.35 0.0 13.8 0.0 13.0 L0.0 1.9" fill="#000000" fill-rule="evenodd" stroke="none"/>
    <path d="M2.5 0.0 L3.3 0.0 Q4.2 0.0 4.85 0.55 5.45 1.1 5.45 1.9 L5.45 13.0 Q5.45 13.8 4.85 14.35 4.2 14.9 3.3 14.9 L2.5 14.9 Q1.6 14.9 0.95 14.35 0.35 13.8 0.35 13.0 L0.35 1.9 Q0.35 1.1 0.95 0.55 1.6 0.0 2.5 0.0" fill="url(#gradient0)" fill-rule="evenodd" stroke="none"/>
    <path d="M1.0 2.5 L0.7 1.95 0.85 1.7 Q1.05 1.6 1.35 1.85 L1.9 2.5 Q2.85 3.35 2.85 3.8 L2.6 4.15 1.55 3.05 1.0 2.5 M2.5 5.0 Q4.6 1.75 4.6 3.25 L2.8 5.4 2.5 5.2 2.5 5.0 M0.5 4.75 Q0.5 4.15 1.1 4.6 L1.75 5.25 Q3.1 6.15 3.1 6.5 3.1 6.85 2.7 6.85 2.35 6.85 2.3 6.65 L2.3 6.35 1.55 5.8 0.5 4.75 M5.05 5.7 L2.8 8.3 Q2.5 8.3 2.5 7.95 L3.0 7.2 3.6 6.4 4.4 5.5 Q5.05 4.95 5.05 5.7 M0.9 7.55 L1.85 8.35 2.65 8.95 3.3 9.55 2.95 9.9 1.4 8.8 0.6 8.0 0.6 7.4 0.9 7.55 M0.6 11.25 L0.6 10.4 1.75 11.55 2.0 11.9 2.5 12.2 Q3.1 12.4 3.1 12.8 3.1 13.15 2.8 13.15 2.25 13.15 0.6 11.25 M2.8 11.45 Q2.5 11.45 2.5 11.1 L3.9 9.3 Q5.25 7.75 5.25 8.75 L3.95 10.15 Q3.2 11.45 2.8 11.45" fill="#000000" fill-rule="evenodd" stroke="none"/>
    <path d="M10.6 0.55 Q11.3 1.1 11.3 1.9 L11.3 13.0 Q11.3 13.8 10.6 14.35 9.9 14.9 8.9 14.9 L8.0 14.9 Q7.0 14.9 6.25 14.35 5.6 13.8 5.6 13.0 L5.6 1.9 Q5.6 1.1 6.25 0.55 7.0 0.0 8.0 0.0 L8.9 0.0 Q9.9 0.0 10.6 0.55" fill="#000000" fill-rule="evenodd" stroke="none"/>
    <path d="M10.45 0.55 Q11.05 1.1 11.05 1.9 L11.05 13.0 Q11.05 13.8 10.45 14.35 9.8 14.9 8.9 14.9 L8.1 14.9 Q7.2 14.9 6.55 14.35 5.95 13.8 5.95 13.0 L5.95 1.9 Q5.95 1.1 6.55 0.55 7.2 0.0 8.1 0.0 L8.9 0.0 Q9.8 0.0 10.45 0.55" fill="url(#gradient1)" fill-rule="evenodd" stroke="none"/>
    <path d="M6.45 1.7 Q6.65 1.6 6.95 1.85 L7.5 2.5 Q8.45 3.35 8.45 3.8 L8.2 4.15 Q7.9 4.15 7.15 3.05 L6.6 2.5 6.3 1.95 6.45 1.7 M6.1 4.75 Q6.1 4.15 6.7 4.6 L7.35 5.25 Q8.7 6.15 8.7 6.5 8.7 6.85 8.3 6.85 7.95 6.85 7.9 6.65 L7.9 6.35 7.15 5.8 6.1 4.75 M8.1 5.2 L8.1 5.0 Q10.2 1.75 10.2 3.25 L8.4 5.4 8.1 5.2 M8.6 7.2 L9.2 6.4 10.0 5.5 Q10.65 4.95 10.65 5.7 L8.4 8.3 Q8.1 8.3 8.1 7.95 L8.6 7.2 M7.45 8.35 L8.25 8.95 8.9 9.55 8.55 9.9 7.0 8.8 6.2 8.0 6.2 7.4 6.5 7.55 7.45 8.35 M6.2 11.25 L6.2 10.4 7.35 11.55 7.6 11.9 8.1 12.2 Q8.7 12.4 8.7 12.8 8.7 13.15 8.4 13.15 7.85 13.15 6.2 11.25 M8.4 11.45 Q8.1 11.45 8.1 11.1 L9.5 9.3 Q10.85 7.75 10.85 8.75 L9.55 10.15 8.4 11.45" fill="#000000" fill-rule="evenodd" stroke="none"/>
  </g>
  <defs>
    <radialGradient cx="0" cy="0" gradientTransform="matrix(0.004, 0.0, 0.0, 0.0092, 2.9, 7.45)" gradientUnits="userSpaceOnUse" id="gradient0" r="819.2" spreadMethod="pad">
      <stop offset="0.0" stop-color="#7b7b7b"/>
      <stop offset="1.0" stop-color="#000000"/>
    </radialGradient>
    <radialGradient cx="0" cy="0" gradientTransform="matrix(0.004, 0.0, 0.0, 0.0092, 8.5, 7.45)" gradientUnits="userSpaceOnUse" id="gradient1" r="819.2" spreadMethod="pad">
      <stop offset="0.0" stop-color="#7b7b7b"/>
      <stop offset="1.0" stop-color="#000000"/>
    </radialGradient>
  </defs>
</svg>
