<?xml version="1.0" encoding="UTF-8" standalone="no"?>
<svg xmlns:xlink="http://www.w3.org/1999/xlink" height="91.5px" width="30.05px" xmlns="http://www.w3.org/2000/svg">
  <g transform="matrix(1, 0, 0, 1, 16.35, 47.7)">
    <path d="M6.2 -47.6 Q13.1 -47.6 13.1 -41.6 L13.1 37.15 Q13.1 43.15 6.2 43.15 L-6.45 43.15 Q-13.4 43.15 -13.4 37.15 L-13.4 -41.6 Q-13.4 -47.6 -6.45 -47.6 L6.2 -47.6" fill="#cccccc" fill-rule="evenodd" stroke="none"/>
    <path d="M6.2 -47.6 Q13.1 -47.6 13.1 -41.6 L13.1 37.15 Q13.1 43.15 6.2 43.15 L-6.45 43.15 Q-13.4 43.15 -13.4 37.15 L-13.4 -41.6 Q-13.4 -47.6 -6.45 -47.6 L6.2 -47.6" fill="url(#gradient0)" fill-rule="evenodd" stroke="none"/>
    <path d="M6.15 -47.6 Q13.1 -47.6 13.1 -41.6 L13.1 37.15 Q13.1 43.15 6.15 43.15 L-6.5 43.15 Q-13.4 43.15 -13.4 37.15 L-13.4 -41.6 Q-13.4 -47.6 -6.5 -47.6 L6.15 -47.6" fill="url(#gradient1)" fill-rule="evenodd" stroke="none"/>
    <path d="M5.65 -47.6 Q12.3 -47.5 12.3 -41.5 L12.3 37.25 Q12.3 43.25 5.65 43.15 L-6.4 43.05 Q-12.95 43.0 -12.95 37.0 L-12.95 -41.75 Q-12.95 -47.75 -6.4 -47.7 L5.65 -47.6" fill="url(#gradient2)" fill-rule="evenodd" stroke="none"/>
    <path d="M6.0 -47.3 Q12.55 -47.25 12.55 -41.25 L12.55 37.5 Q12.55 43.5 6.0 43.45 L-6.05 43.35 Q-12.7 43.25 -12.7 37.25 L-12.7 -41.5 Q-12.7 -47.5 -6.05 -47.4 L6.0 -47.3" fill="url(#gradient3)" fill-rule="evenodd" stroke="none"/>
    <path d="M-12.1 -12.55 L-12.0 -12.85 -11.8 -12.85 -11.75 -12.85 -11.6 -12.85 -11.25 -12.75 -11.1 -12.4 -11.1 -3.65 Q-11.1 -3.45 -11.25 -3.35 L-11.6 -3.35 -11.65 -3.35 -11.8 -3.35 -12.0 -3.5 -12.1 -3.8 -12.1 -12.55" fill="#4a4a4a" fill-rule="evenodd" stroke="none"/>
    <path d="M9.25 1.65 L9.2 28.35 Q9.2 43.15 7.95 43.15 L-8.6 43.15 Q-9.9 43.15 -9.85 28.35 L-9.85 1.65 Q-9.8 -12.85 -8.55 -12.85 L8.0 -12.85 Q9.25 -12.85 9.25 1.65" fill="url(#gradient4)" fill-rule="evenodd" stroke="none"/>
    <path d="M9.75 -40.55 L9.75 36.3 Q9.75 42.15 4.55 42.25 L-4.75 42.35 Q-9.8 42.4 -9.8 36.55 L-9.8 -40.3 Q-9.8 -46.15 -4.75 -46.2 L4.55 -46.3 Q9.75 -46.4 9.75 -40.55" fill="url(#gradient5)" fill-rule="evenodd" stroke="none"/>
    <path d="M7.15 -46.95 Q13.7 -46.9 13.7 -40.9 L13.7 37.85 Q13.7 43.85 7.15 43.8 L-4.9 43.7 Q-11.55 43.6 -11.55 37.6 L-11.55 -41.15 Q-11.55 -47.15 -4.9 -47.05 L7.15 -46.95" fill="url(#gradient6)" fill-rule="evenodd" stroke="none"/>
    <path d="M11.35 -41.2 L11.35 37.0 Q11.35 43.0 5.15 43.05 L-6.0 43.15 Q-12.1 43.2 -12.1 37.25 L-12.1 -40.95 Q-12.1 -46.95 -6.0 -47.0 L5.15 -47.1 Q11.35 -47.15 11.35 -41.2" fill="url(#gradient7)" fill-rule="evenodd" stroke="none"/>
    <path d="M8.45 -47.05 Q9.85 -47.05 9.8 -29.15 L9.8 3.1 Q9.75 20.7 8.4 20.7 L-9.45 20.7 Q-10.8 20.7 -10.8 3.1 L-10.75 -29.15 Q-10.75 -47.05 -9.4 -47.05 L8.45 -47.05" fill="url(#gradient8)" fill-rule="evenodd" stroke="none"/>
    <path d="M6.95 -26.3 Q7.95 -26.3 7.95 -8.75 L7.95 23.55 Q7.95 41.45 6.9 41.45 L-6.8 41.45 Q-7.85 41.45 -7.8 23.55 L-7.8 -8.75 Q-7.75 -26.3 -6.75 -26.3 L6.95 -26.3" fill="url(#gradient9)" fill-rule="evenodd" stroke="none"/>
    <path d="M7.2 -46.1 Q8.35 -46.1 8.3 -28.2 L8.3 4.05 Q8.25 21.65 7.15 21.65 L-7.95 21.65 Q-9.05 21.65 -9.05 4.05 L-9.05 -28.2 Q-9.05 -46.1 -7.9 -46.1 L7.2 -46.1" fill="url(#gradient10)" fill-rule="evenodd" stroke="none"/>
    <path d="M-7.3 -32.85 L-7.2 -31.85 -7.15 -29.45 -7.15 31.55 -7.2 33.25 -7.25 33.65 Q-7.3 33.95 -7.3 33.65 L-7.4 32.55 -7.45 30.55 -7.45 -30.85 -7.4 -32.55 -7.3 -32.85" fill="#525252" fill-rule="evenodd" stroke="none"/>
    <path d="M-7.25 33.65 L-7.2 33.25 -7.15 31.55 -7.15 -29.45 -7.2 -31.85 -7.3 -32.85 -7.2 -32.85 -7.05 -31.85 -6.95 -29.45 -6.95 31.55 -7.05 33.25 Q-7.1 33.95 -7.2 33.65 L-7.25 33.65" fill="#666666" fill-rule="evenodd" stroke="none"/>
    <path d="M-12.05 -12.6 L-11.55 -12.6 -11.55 4.55 -12.05 4.55 -12.05 -12.6 M-12.05 -31.25 L-11.55 -31.25 -11.55 -16.1 -12.05 -16.1 -12.05 -31.25 M-12.05 -34.75 L-12.05 -41.35 -11.55 -41.35 -11.55 -34.75 -12.05 -34.75 M-12.05 37.35 L-12.05 8.05 -11.55 8.05 -11.55 37.35 -12.05 37.35" fill="url(#gradient11)" fill-rule="evenodd" stroke="none"/>
    <path d="M-13.7 -4.4 L-13.7 -4.45 -13.7 -4.6 -13.65 -4.95 -13.4 -5.1 -7.3 -5.1 -7.1 -4.95 -7.1 -4.6 -7.1 -4.55 -7.1 -4.4 -7.2 -4.2 -7.4 -4.1 -13.5 -4.1 -13.7 -4.2 -13.7 -4.4" fill="#4a4a4a" fill-rule="evenodd" stroke="none"/>
    <path d="M5.65 -45.1 Q6.55 -45.1 6.55 -22.4 L6.55 18.4 Q6.5 40.65 5.65 40.65 L-6.15 40.65 Q-7.05 40.65 -7.05 18.4 L-7.05 -22.4 Q-7.05 -45.1 -6.15 -45.1 L5.65 -45.1" fill="#666666" fill-opacity="0.5411765" fill-rule="evenodd" stroke="none"/>
    <path d="M-13.4 -10.25 L-13.6 -10.35 -13.6 -10.55 -13.6 -10.6 -13.6 -10.75 -13.55 -11.1 -13.3 -11.25 -7.2 -11.25 -7.0 -11.1 -7.0 -10.75 -7.0 -10.7 -7.0 -10.55 -7.1 -10.35 -7.3 -10.25 -13.4 -10.25" fill="#4a4a4a" fill-rule="evenodd" stroke="none"/>
    <path d="M-11.2 -12.95 L-11.05 -12.8 -10.95 -12.45 -10.95 -3.55 Q-10.95 -3.35 -11.05 -3.3 L-11.1 -3.25 -11.25 -3.25 -11.45 -3.4 -11.55 -3.7 -11.55 -12.65 -11.45 -12.9 -11.25 -12.95 -11.2 -12.95" fill="#cccccc" fill-rule="evenodd" stroke="none"/>
    <path d="M-11.1 -3.25 L-11.05 -3.3 Q-10.95 -3.35 -10.95 -3.55 L-10.95 -12.45 -11.05 -12.8 -11.2 -12.95 -11.05 -12.95 -10.7 -12.8 -10.55 -12.45 -10.55 -3.55 Q-10.55 -3.35 -10.7 -3.3 L-11.05 -3.25 -11.1 -3.25" fill="#666666" fill-rule="evenodd" stroke="none"/>
    <path d="M-14.25 -12.85 L-14.1 -12.7 -14.0 -12.35 -14.0 -3.45 -14.1 -3.2 -14.15 -3.15 -14.3 -3.15 -14.5 -3.3 -14.6 -3.6 -14.6 -12.55 -14.5 -12.8 -14.3 -12.85 -14.25 -12.85" fill="#cccccc" fill-rule="evenodd" stroke="none"/>
    <path d="M-14.25 -12.85 L-14.1 -12.85 -13.75 -12.7 -13.6 -12.35 -13.6 -3.45 Q-13.6 -3.25 -13.75 -3.2 L-14.1 -3.15 -14.15 -3.15 -14.1 -3.2 -14.0 -3.45 -14.0 -12.35 -14.1 -12.7 -14.25 -12.85" fill="#666666" fill-rule="evenodd" stroke="none"/>
    <path d="M-15.7 -12.85 L-15.55 -12.7 -15.45 -12.35 -15.45 -3.45 Q-15.45 -3.25 -15.55 -3.2 L-15.6 -3.15 -15.75 -3.15 Q-15.85 -3.15 -15.95 -3.3 L-16.05 -3.6 -16.05 -12.55 -15.95 -12.8 -15.75 -12.85 -15.7 -12.85" fill="#cccccc" fill-rule="evenodd" stroke="none"/>
    <path d="M-15.6 -3.15 L-15.55 -3.2 Q-15.45 -3.25 -15.45 -3.45 L-15.45 -12.35 -15.55 -12.7 -15.7 -12.85 -15.55 -12.85 -15.2 -12.7 -15.05 -12.35 -15.05 -3.45 Q-15.05 -3.25 -15.2 -3.2 L-15.55 -3.15 -15.6 -3.15" fill="#666666" fill-rule="evenodd" stroke="none"/>
    <path d="M4.95 -44.6 Q5.8 -44.6 5.8 -22.2 L5.8 18.15 Q5.75 40.15 4.95 40.15 L-5.75 40.15 Q-6.55 40.15 -6.55 18.15 L-6.55 -22.2 Q-6.55 -44.6 -5.75 -44.6 L4.95 -44.6" fill="url(#gradient12)" fill-rule="evenodd" stroke="none"/>
    <path d="M4.3 -43.6 Q5.05 -43.6 5.05 -21.6 L5.05 18.05 Q5.0 39.65 4.3 39.65 L-4.9 39.65 Q-5.55 39.65 -5.55 18.05 L-5.55 -21.6 Q-5.55 -43.6 -4.9 -43.6 L4.3 -43.6" fill="url(#gradient13)" fill-rule="evenodd" stroke="none"/>
    <path d="M-8.55 -2.8 L-8.4 -2.95 -4.7 -2.95 -4.55 -2.8 -4.55 -2.45 -4.55 -2.4 -4.55 -2.25 -4.6 -2.05 -4.75 -1.95 -8.45 -1.95 -8.55 -2.05 -8.55 -2.25 -8.55 -2.3 -8.55 -2.45 -8.55 -2.8" fill="#4a4a4a" fill-rule="evenodd" stroke="none"/>
    <path d="M-16.35 -4.85 L-16.2 -5.0 -15.85 -5.1 -6.9 -5.1 -6.65 -5.0 -6.6 -4.95 -6.6 -4.8 -6.75 -4.6 -7.05 -4.5 -16.05 -4.5 Q-16.15 -4.5 -16.3 -4.6 L-16.35 -4.8 -16.35 -4.85" fill="#cccccc" fill-rule="evenodd" stroke="none"/>
    <path d="M-16.35 -4.85 L-16.35 -5.0 -16.2 -5.35 -15.85 -5.5 -6.9 -5.5 Q-6.7 -5.5 -6.65 -5.35 L-6.6 -5.0 -6.6 -4.95 -6.65 -5.0 -6.9 -5.1 -15.85 -5.1 -16.2 -5.0 -16.35 -4.85" fill="#666666" fill-rule="evenodd" stroke="none"/>
    <path d="M5.8 -9.9 L-6.0 -9.9 -6.0 -18.4 5.8 -18.4 5.8 -9.9" fill="url(#gradient14)" fill-rule="evenodd" stroke="none"/>
    <path d="M-8.5 -12.85 L-4.8 -12.85 -4.65 -12.7 -4.65 -12.35 -4.65 -12.3 -4.65 -12.15 -4.7 -11.95 -4.85 -11.85 -8.55 -11.85 -8.65 -11.95 -8.65 -12.15 -8.65 -12.2 -8.65 -12.35 -8.65 -12.7 -8.5 -12.85" fill="#4a4a4a" fill-rule="evenodd" stroke="none"/>
    <path d="M5.45 22.35 L-6.35 22.35 -6.35 13.85 5.45 13.85 5.45 22.35" fill="url(#gradient15)" fill-rule="evenodd" stroke="none"/>
    <path d="M2.35 -0.55 L2.4 -0.55 2.05 -0.35 2.35 -0.55" fill="url(#gradient16)" fill-rule="evenodd" stroke="none"/>
    <path d="M3.15 -7.3 L2.1 -8.15 3.15 -7.35 3.2 -7.3 4.2 -5.85 3.15 -7.3 M-2.65 -8.0 L-3.5 -7.3 -4.25 -6.25 -3.5 -7.35 -2.65 -8.0" fill="url(#gradient17)" fill-rule="evenodd" stroke="none"/>
    <path d="M3.7 -1.25 L3.2 -0.65 2.75 -0.25 2.7 -0.25 3.15 -0.65 3.7 -1.25" fill="url(#gradient18)" fill-rule="evenodd" stroke="none"/>
    <path d="M2.1 -8.15 L3.15 -7.3 4.2 -5.85 4.55 -4.2 4.55 -4.0 4.55 -3.95 4.55 -3.85 4.35 -2.55 4.25 -2.3 4.2 -2.05 3.15 -0.65 2.05 0.2 1.8 0.3 1.25 0.5 -0.05 0.7 -0.15 0.7 -0.25 0.7 -2.35 0.2 -3.5 -0.65 -4.55 -2.25 -4.85 -4.0 -4.85 -4.1 -4.65 -5.4 -4.5 -5.85 -4.25 -6.25 -3.5 -7.3 -2.05 -8.3 -1.6 -8.5 -0.25 -8.7 -0.15 -8.7 0.05 -8.7 2.1 -8.15" fill="url(#gradient19)" fill-rule="evenodd" stroke="none"/>
    <path d="M1.45 -8.25 L1.95 -8.05 3.05 -7.25 3.15 -7.15 3.2 -7.1 4.3 -5.2 4.55 -3.85 Q4.55 -2.85 4.15 -1.95 L3.1 -0.5 3.05 -0.45 1.95 0.35 1.55 0.55 1.15 0.65 -0.15 0.85 -1.9 0.6 -2.35 0.35 -3.45 -0.45 -3.5 -0.5 -3.65 -0.65 -4.75 -2.45 -4.85 -3.85 -4.6 -5.6 -3.7 -7.0 -3.55 -7.15 -3.5 -7.2 -3.4 -7.3 -2.4 -8.0 -2.1 -8.1 -1.95 -8.25 -0.15 -8.55 1.2 -8.3 1.45 -8.25" fill="url(#gradient20)" fill-rule="evenodd" stroke="none"/>
    <path d="M4.05 -3.9 Q4.05 -2.25 2.85 -1.0 1.55 0.2 -0.1 0.2 -1.8 0.2 -3.0 -1.0 -4.25 -2.25 -4.25 -3.9 -4.25 -5.6 -3.0 -6.8 -1.8 -8.05 -0.1 -8.05 1.55 -8.05 2.85 -6.8 4.05 -5.6 4.05 -3.9" fill="url(#gradient21)" fill-rule="evenodd" stroke="none"/>
    <path d="M2.9 -1.05 Q1.7 0.2 0.0 0.2 -1.65 0.2 -2.95 -1.05 -4.15 -2.25 -4.15 -3.95 -4.15 -5.6 -2.95 -6.85 -1.65 -8.05 0.0 -8.05 1.7 -8.05 2.9 -6.85 4.15 -5.6 4.15 -3.95 4.15 -2.25 2.9 -1.05" fill="url(#gradient22)" fill-rule="evenodd" stroke="none"/>
    <path d="M4.1 -3.7 Q4.1 -2.0 2.85 -0.75 1.65 0.45 -0.05 0.45 -1.75 0.45 -3.0 -0.75 -4.2 -2.0 -4.2 -3.7 -4.2 -5.35 -3.0 -6.55 -1.75 -7.8 -0.05 -7.8 1.65 -7.8 2.85 -6.55 4.1 -5.35 4.1 -3.7" fill="url(#gradient23)" fill-rule="evenodd" stroke="none"/>
    <path d="M3.4 -3.8 Q3.4 -2.35 2.4 -1.3 1.4 -0.3 -0.05 -0.3 -1.5 -0.3 -2.5 -1.3 -3.5 -2.35 -3.5 -3.8 -3.5 -5.2 -2.5 -6.3 -1.5 -7.25 -0.05 -7.25 1.4 -7.25 2.4 -6.3 3.4 -5.2 3.4 -3.8" fill="url(#gradient24)" fill-rule="evenodd" stroke="none"/>
    <path d="M3.4 -3.6 L3.4 -3.55 Q3.4 -2.65 3.05 -2.0 L2.4 -1.15 Q1.4 -0.1 -0.05 -0.1 -1.5 -0.1 -2.55 -1.15 -3.5 -2.15 -3.5 -3.6 -3.5 -5.05 -2.55 -6.05 -1.5 -7.05 -0.05 -7.05 1.4 -7.05 2.4 -6.05 3.4 -5.05 3.4 -3.6" fill="url(#gradient25)" fill-rule="evenodd" stroke="none"/>
    <path d="M3.15 -3.55 Q3.15 -2.1 2.15 -1.05 1.1 -0.05 -0.35 -0.05 -1.75 -0.05 -2.85 -1.05 -3.8 -2.1 -3.8 -3.55 -3.8 -4.95 -2.85 -6.05 -1.75 -7.0 -0.35 -7.0 1.1 -7.0 2.15 -6.05 3.15 -4.95 3.15 -3.55" fill="url(#gradient26)" fill-rule="evenodd" stroke="none"/>
    <path d="M-1.5 -9.6 L-1.4 -9.6 -1.2 -9.55 -1.05 -9.4 -1.05 -5.65 -1.2 -5.55 -1.4 -5.55 -1.35 -5.65 -1.35 -9.4 -1.4 -9.55 -1.5 -9.6" fill="#666666" fill-rule="evenodd" stroke="none"/>
    <path d="M-1.5 -9.6 L-1.4 -9.55 -1.35 -9.4 -1.35 -5.65 -1.4 -5.55 -1.45 -5.55 -1.55 -5.55 -1.7 -5.6 -1.75 -5.75 -1.75 -9.5 -1.7 -9.6 -1.55 -9.6 -1.5 -9.6" fill="#cccccc" fill-rule="evenodd" stroke="none"/>
    <path d="M0.9 -5.4 L0.85 -5.4 0.75 -5.4 0.6 -5.45 0.55 -5.6 0.55 -9.35 0.6 -9.45 0.75 -9.45 0.8 -9.45 0.9 -9.4 0.95 -9.25 0.95 -5.5 0.9 -5.4" fill="#cccccc" fill-rule="evenodd" stroke="none"/>
    <path d="M0.9 -5.4 L0.95 -5.5 0.95 -9.25 0.9 -9.4 0.8 -9.45 0.9 -9.45 1.15 -9.4 1.25 -9.25 1.25 -5.5 1.15 -5.4 0.9 -5.4" fill="#666666" fill-rule="evenodd" stroke="none"/>
    <path d="M-1.45 -9.4 L-1.35 -9.35 1.1 -9.35 1.2 -9.4 1.25 -9.5 1.25 -9.4 1.2 -9.15 1.1 -9.05 -1.35 -9.05 -1.45 -9.15 -1.45 -9.4" fill="#666666" fill-rule="evenodd" stroke="none"/>
    <path d="M-1.45 -9.4 L-1.45 -9.45 -1.45 -9.55 -1.4 -9.65 -1.3 -9.7 1.15 -9.7 1.25 -9.65 1.25 -9.55 1.25 -9.5 1.2 -9.4 1.1 -9.35 -1.35 -9.35 -1.45 -9.4" fill="#cccccc" fill-rule="evenodd" stroke="none"/>
    <path d="M1.05 -1.7 L1.1 -1.65 1.1 -1.5 1.1 -1.4 1.0 -1.35 -1.5 -1.35 -1.55 -1.4 -1.55 -1.5 -1.5 -1.65 -1.4 -1.7 1.05 -1.7" fill="#cccccc" fill-rule="evenodd" stroke="none"/>
    <path d="M-16.35 -11.0 L-16.2 -11.15 -15.85 -11.25 -6.9 -11.25 -6.65 -11.15 -6.6 -11.1 -6.6 -10.95 -6.75 -10.75 -7.05 -10.65 -16.05 -10.65 Q-16.15 -10.65 -16.3 -10.75 L-16.35 -10.95 -16.35 -11.0" fill="#cccccc" fill-rule="evenodd" stroke="none"/>
    <path d="M-16.35 -11.0 L-16.35 -11.15 -16.2 -11.5 -15.85 -11.65 -6.9 -11.65 Q-6.7 -11.65 -6.65 -11.5 L-6.6 -11.15 -6.6 -11.1 -6.65 -11.15 -6.9 -11.25 -15.85 -11.25 -16.2 -11.15 -16.35 -11.0" fill="#666666" fill-rule="evenodd" stroke="none"/>
    <path d="M-4.55 -12.95 L-4.55 -12.9 -4.55 -12.75 -4.6 -12.55 -4.75 -12.45 -8.7 -12.45 -8.8 -12.55 -8.8 -12.75 -8.8 -12.8 -8.75 -12.95 -8.6 -13.05 -4.65 -13.05 -4.55 -12.95" fill="#cccccc" fill-rule="evenodd" stroke="none"/>
    <path d="M-4.55 -12.95 L-4.65 -13.05 -8.6 -13.05 -8.75 -12.95 -8.8 -12.8 -8.8 -12.95 -8.75 -13.3 -8.6 -13.45 -4.65 -13.45 -4.55 -13.3 -4.55 -12.95" fill="#666666" fill-rule="evenodd" stroke="none"/>
    <path d="M-4.35 -3.0 L-4.35 -2.95 -4.35 -2.8 -4.4 -2.6 -4.55 -2.5 -8.5 -2.5 -8.6 -2.6 -8.6 -2.8 -8.6 -2.85 -8.55 -3.0 -8.4 -3.1 -4.45 -3.1 -4.35 -3.0" fill="#cccccc" fill-rule="evenodd" stroke="none"/>
    <path d="M-4.35 -3.0 L-4.45 -3.1 -8.4 -3.1 -8.55 -3.0 -8.6 -2.85 -8.6 -3.0 -8.55 -3.35 -8.4 -3.5 -4.45 -3.5 -4.35 -3.35 -4.35 -3.0" fill="#666666" fill-rule="evenodd" stroke="none"/>
    <path d="M6.0 13.25 L5.65 13.4 -5.85 13.4 -6.2 13.25 -6.35 12.9 -6.2 12.55 Q-6.05 12.4 -5.85 12.4 L5.65 12.4 6.0 12.55 6.15 12.9 6.0 13.25" fill="#666666" fill-opacity="0.36078432" fill-rule="evenodd" stroke="none"/>
    <path d="M6.0 -19.1 L5.65 -18.95 -5.85 -18.95 Q-6.05 -18.95 -6.2 -19.1 L-6.35 -19.45 -6.2 -19.8 -5.85 -19.95 5.65 -19.95 6.0 -19.8 6.15 -19.45 6.0 -19.1" fill="#666666" fill-opacity="0.36078432" fill-rule="evenodd" stroke="none"/>
    <path d="M6.5 -33.45 L6.6 -32.45 6.65 -30.05 6.65 30.95 6.6 32.65 6.55 33.05 Q6.5 33.35 6.5 33.05 L6.4 31.95 6.35 29.95 6.35 -31.45 6.4 -33.15 6.5 -33.45" fill="#4a4a4a" fill-rule="evenodd" stroke="none"/>
    <path d="M6.55 33.05 L6.6 32.65 6.65 30.95 6.65 -30.05 6.6 -32.45 6.5 -33.45 6.6 -33.45 6.75 -32.45 6.85 -30.05 6.85 30.95 6.75 32.65 6.6 33.05 6.55 33.05" fill="#666666" fill-rule="evenodd" stroke="none"/>
    <path d="M5.45 -34.7 L-6.35 -34.7 -6.35 -43.2 5.45 -43.2 5.45 -34.7" fill="url(#gradient27)" fill-rule="evenodd" stroke="none"/>
    <path d="M5.8 -20.4 L-6.0 -20.4 -6.0 -28.9 5.8 -28.9 5.8 -20.4" fill="url(#gradient28)" fill-rule="evenodd" stroke="none"/>
    <path d="M5.8 12.15 L-6.0 12.15 -6.0 3.65 5.8 3.65 5.8 12.15" fill="url(#gradient29)" fill-rule="evenodd" stroke="none"/>
    <path d="M5.85 39.35 L-5.95 39.35 -5.95 30.85 5.85 30.85 5.85 39.35" fill="url(#gradient30)" fill-rule="evenodd" stroke="none"/>
    <path d="M2.05 29.9 L2.1 29.9 1.8 30.1 2.05 29.9" fill="url(#gradient31)" fill-rule="evenodd" stroke="none"/>
    <path d="M3.9 24.6 L2.85 23.15 1.8 22.3 2.85 23.1 2.9 23.15 3.9 24.6 M-4.55 24.2 L-3.8 23.1 -2.95 22.45 -3.8 23.15 -4.55 24.2" fill="url(#gradient32)" fill-rule="evenodd" stroke="none"/>
    <path d="M2.4 30.2 L2.85 29.8 3.3 29.35 2.9 29.8 2.45 30.2 2.4 30.2" fill="url(#gradient33)" fill-rule="evenodd" stroke="none"/>
    <path d="M3.9 24.6 L4.25 26.25 4.25 26.45 4.25 26.5 4.25 26.6 4.05 27.9 3.95 28.15 3.9 28.4 2.85 29.8 1.75 30.65 1.5 30.75 0.95 30.95 -0.35 31.15 -0.45 31.15 -0.55 31.15 -2.65 30.65 -3.8 29.8 -4.85 28.2 -5.15 26.45 -5.15 26.35 -4.95 25.05 -4.8 24.6 -4.55 24.2 -3.8 23.15 Q-3.15 22.5 -2.35 22.15 L-1.9 21.95 -0.55 21.75 -0.45 21.75 -0.25 21.75 1.8 22.3 2.85 23.15 3.9 24.6" fill="url(#gradient34)" fill-rule="evenodd" stroke="none"/>
    <path d="M2.9 23.35 L4.0 25.25 4.25 26.6 Q4.25 27.6 3.85 28.5 L2.8 29.95 2.75 30.0 1.65 30.8 1.25 31.0 0.85 31.1 -0.45 31.3 -2.2 31.05 -2.65 30.8 -3.75 30.0 -3.8 29.95 -3.95 29.8 -5.05 28.0 -5.15 26.6 -4.9 24.85 -4.0 23.45 -3.85 23.3 -3.8 23.25 -3.7 23.15 -2.7 22.45 -2.4 22.35 -2.25 22.2 -0.45 21.9 0.9 22.15 1.15 22.2 1.65 22.4 2.75 23.2 2.85 23.3 2.9 23.35" fill="url(#gradient35)" fill-rule="evenodd" stroke="none"/>
    <path d="M2.55 29.45 Q1.25 30.65 -0.4 30.65 -2.1 30.65 -3.3 29.45 -4.55 28.2 -4.55 26.55 -4.55 24.85 -3.3 23.65 -2.1 22.4 -0.4 22.4 1.25 22.4 2.55 23.65 3.75 24.85 3.75 26.55 3.75 28.2 2.55 29.45" fill="url(#gradient36)" fill-rule="evenodd" stroke="none"/>
    <path d="M2.6 29.4 Q1.4 30.65 -0.3 30.65 -1.95 30.65 -3.25 29.4 -4.45 28.2 -4.45 26.5 -4.45 24.85 -3.25 23.6 -1.95 22.4 -0.3 22.4 1.4 22.4 2.6 23.6 3.85 24.85 3.85 26.5 3.85 28.2 2.6 29.4" fill="url(#gradient37)" fill-rule="evenodd" stroke="none"/>
    <path d="M2.55 29.7 Q1.35 30.9 -0.35 30.9 -2.05 30.9 -3.3 29.7 -4.5 28.45 -4.5 26.75 -4.5 25.1 -3.3 23.9 -2.05 22.65 -0.35 22.65 1.35 22.65 2.55 23.9 3.8 25.1 3.8 26.75 3.8 28.45 2.55 29.7" fill="url(#gradient38)" fill-rule="evenodd" stroke="none"/>
    <path d="M2.1 29.15 Q1.1 30.15 -0.35 30.15 -1.8 30.15 -2.8 29.15 -3.8 28.1 -3.8 26.65 -3.8 25.25 -2.8 24.15 -1.8 23.2 -0.35 23.2 1.1 23.2 2.1 24.15 3.1 25.25 3.1 26.65 3.1 28.1 2.1 29.15" fill="url(#gradient39)" fill-rule="evenodd" stroke="none"/>
    <path d="M3.1 26.9 L2.75 28.45 2.1 29.3 Q1.1 30.35 -0.35 30.35 -1.8 30.35 -2.85 29.3 -3.8 28.3 -3.8 26.85 -3.8 25.4 -2.85 24.4 -1.8 23.4 -0.35 23.4 1.1 23.4 2.1 24.4 3.1 25.4 3.1 26.85 L3.1 26.9" fill="url(#gradient40)" fill-rule="evenodd" stroke="none"/>
    <path d="M1.85 29.4 Q0.8 30.4 -0.65 30.4 -2.05 30.4 -3.15 29.4 -4.1 28.35 -4.1 26.9 -4.1 25.5 -3.15 24.4 -2.05 23.45 -0.65 23.45 0.8 23.45 1.85 24.4 2.85 25.5 2.85 26.9 2.85 28.35 1.85 29.4" fill="url(#gradient41)" fill-rule="evenodd" stroke="none"/>
    <path d="M-1.7 24.9 L-1.65 24.8 -1.65 21.0 -1.7 20.85 -1.8 20.8 -1.7 20.8 -1.5 20.85 -1.35 21.0 -1.35 24.8 -1.5 24.9 -1.7 24.9" fill="#666666" fill-rule="evenodd" stroke="none"/>
    <path d="M-1.7 24.9 L-1.75 24.9 -1.85 24.9 -2.0 24.85 -2.05 24.7 -2.05 20.9 -2.0 20.8 -1.85 20.8 -1.8 20.8 -1.7 20.85 -1.65 21.0 -1.65 24.8 -1.7 24.9" fill="#cccccc" fill-rule="evenodd" stroke="none"/>
    <path d="M0.5 20.95 L0.6 20.95 0.85 21.0 0.95 21.15 0.95 24.95 0.85 25.05 0.6 25.05 0.65 24.95 0.65 21.15 0.6 21.0 0.5 20.95" fill="#666666" fill-rule="evenodd" stroke="none"/>
    <path d="M0.5 20.95 L0.6 21.0 0.65 21.15 0.65 24.95 0.6 25.05 0.55 25.05 0.45 25.05 0.3 25.0 0.25 24.85 0.25 21.05 0.3 20.95 0.45 20.95 0.5 20.95" fill="#cccccc" fill-rule="evenodd" stroke="none"/>
    <path d="M-1.75 21.0 L-1.65 21.05 0.8 21.05 0.9 21.0 0.95 20.9 0.95 21.0 0.9 21.25 0.8 21.35 -1.65 21.35 -1.75 21.25 -1.75 21.0" fill="#666666" fill-rule="evenodd" stroke="none"/>
    <path d="M-1.75 21.0 L-1.75 20.95 -1.75 20.85 -1.7 20.75 -1.6 20.7 0.85 20.7 0.95 20.75 0.95 20.85 0.95 20.9 0.9 21.0 0.8 21.05 -1.65 21.05 -1.75 21.0" fill="#cccccc" fill-rule="evenodd" stroke="none"/>
    <path d="M0.8 28.95 L0.8 29.05 0.7 29.1 -1.8 29.1 -1.85 29.05 -1.85 28.95 -1.8 28.8 -1.7 28.75 0.75 28.75 0.8 28.8 0.8 28.95" fill="#cccccc" fill-rule="evenodd" stroke="none"/>
    <path d="M2.35 -27.7 L2.4 -27.7 2.1 -27.5 2.35 -27.7" fill="url(#gradient42)" fill-rule="evenodd" stroke="none"/>
    <path d="M4.2 -33.0 L3.15 -34.45 2.1 -35.3 3.15 -34.5 3.2 -34.45 4.2 -33.0 M-3.5 -34.45 L-4.25 -33.4 -3.5 -34.5 -2.65 -35.15 -3.5 -34.45" fill="url(#gradient43)" fill-rule="evenodd" stroke="none"/>
    <path d="M3.15 -27.8 L3.6 -28.25 3.2 -27.8 2.75 -27.4 2.7 -27.4 3.15 -27.8" fill="url(#gradient44)" fill-rule="evenodd" stroke="none"/>
    <path d="M4.55 -31.15 L4.55 -31.1 4.55 -31.0 4.35 -29.7 4.25 -29.45 4.2 -29.2 3.15 -27.8 2.05 -26.95 1.8 -26.85 1.25 -26.65 -0.05 -26.45 -0.15 -26.45 -0.25 -26.45 -2.35 -26.95 -3.5 -27.8 -4.55 -29.4 -4.85 -31.15 -4.85 -31.25 -4.65 -32.55 -4.5 -33.0 -4.25 -33.4 -3.5 -34.45 -2.05 -35.45 -1.6 -35.65 -0.25 -35.85 -0.15 -35.85 0.05 -35.85 2.1 -35.3 3.15 -34.45 4.2 -33.0 4.55 -31.35 4.55 -31.15" fill="url(#gradient45)" fill-rule="evenodd" stroke="none"/>
    <path d="M1.45 -35.4 L1.95 -35.2 3.05 -34.4 3.15 -34.3 3.2 -34.25 4.3 -32.35 4.55 -31.0 Q4.55 -30.0 4.15 -29.1 L3.1 -27.65 3.05 -27.6 1.95 -26.8 1.55 -26.6 1.15 -26.5 -0.15 -26.3 -1.9 -26.55 -2.35 -26.8 -3.45 -27.6 -3.5 -27.65 -3.65 -27.8 -4.75 -29.6 -4.85 -31.0 -4.6 -32.75 -3.7 -34.15 -3.55 -34.3 -3.5 -34.35 -3.4 -34.45 -2.4 -35.15 -2.1 -35.25 -1.95 -35.4 -0.15 -35.7 1.2 -35.45 1.45 -35.4" fill="url(#gradient46)" fill-rule="evenodd" stroke="none"/>
    <path d="M2.85 -28.15 Q1.55 -26.95 -0.1 -26.95 -1.8 -26.95 -3.0 -28.15 -4.25 -29.4 -4.25 -31.05 -4.25 -32.75 -3.0 -33.95 -1.8 -35.2 -0.1 -35.2 1.55 -35.2 2.85 -33.95 4.05 -32.75 4.05 -31.05 4.05 -29.4 2.85 -28.15" fill="url(#gradient47)" fill-rule="evenodd" stroke="none"/>
    <path d="M4.15 -31.1 Q4.15 -29.4 2.9 -28.2 1.7 -26.95 0.0 -26.95 -1.65 -26.95 -2.95 -28.2 -4.15 -29.4 -4.15 -31.1 -4.15 -32.75 -2.95 -34.0 -1.65 -35.2 0.0 -35.2 1.7 -35.2 2.9 -34.0 4.15 -32.75 4.15 -31.1" fill="url(#gradient48)" fill-rule="evenodd" stroke="none"/>
    <path d="M2.85 -27.9 Q1.65 -26.7 -0.05 -26.7 -1.75 -26.7 -3.0 -27.9 -4.2 -29.15 -4.2 -30.85 -4.2 -32.5 -3.0 -33.7 -1.75 -34.95 -0.05 -34.95 1.65 -34.95 2.85 -33.7 4.1 -32.5 4.1 -30.85 4.1 -29.15 2.85 -27.9" fill="url(#gradient49)" fill-rule="evenodd" stroke="none"/>
    <path d="M2.4 -28.45 Q1.4 -27.45 -0.05 -27.45 -1.5 -27.45 -2.5 -28.45 -3.5 -29.5 -3.5 -30.95 -3.5 -32.35 -2.5 -33.45 -1.5 -34.4 -0.05 -34.4 1.4 -34.4 2.4 -33.45 3.4 -32.35 3.4 -30.95 3.4 -29.5 2.4 -28.45" fill="url(#gradient50)" fill-rule="evenodd" stroke="none"/>
    <path d="M3.4 -30.7 Q3.4 -29.8 3.05 -29.15 L2.4 -28.3 Q1.4 -27.25 -0.05 -27.25 -1.5 -27.25 -2.55 -28.3 -3.5 -29.3 -3.5 -30.75 -3.5 -32.2 -2.55 -33.2 -1.5 -34.2 -0.05 -34.2 1.4 -34.2 2.4 -33.2 3.4 -32.2 3.4 -30.75 L3.4 -30.7" fill="url(#gradient51)" fill-rule="evenodd" stroke="none"/>
    <path d="M2.15 -28.2 Q1.1 -27.2 -0.35 -27.2 -1.75 -27.2 -2.85 -28.2 -3.8 -29.25 -3.8 -30.7 -3.8 -32.1 -2.85 -33.2 -1.75 -34.15 -0.35 -34.15 1.1 -34.15 2.15 -33.2 3.15 -32.1 3.15 -30.7 3.15 -29.25 2.15 -28.2" fill="url(#gradient52)" fill-rule="evenodd" stroke="none"/>
    <path d="M-1.5 -36.8 L-1.4 -36.75 -1.35 -36.6 -1.35 -32.8 -1.4 -32.7 -1.45 -32.7 -1.55 -32.7 -1.7 -32.75 -1.75 -32.9 -1.75 -36.7 -1.7 -36.8 -1.55 -36.8 -1.5 -36.8" fill="#cccccc" fill-rule="evenodd" stroke="none"/>
    <path d="M-1.5 -36.8 L-1.4 -36.8 -1.2 -36.75 -1.05 -36.6 -1.05 -32.8 -1.2 -32.7 -1.4 -32.7 -1.35 -32.8 -1.35 -36.6 -1.4 -36.75 -1.5 -36.8" fill="#666666" fill-rule="evenodd" stroke="none"/>
    <path d="M0.9 -32.55 L0.95 -32.65 0.95 -36.45 0.9 -36.6 0.8 -36.65 0.9 -36.65 1.15 -36.6 1.25 -36.45 1.25 -32.65 1.15 -32.55 0.9 -32.55" fill="#666666" fill-rule="evenodd" stroke="none"/>
    <path d="M0.9 -32.55 L0.85 -32.55 0.75 -32.55 0.6 -32.6 0.55 -32.75 0.55 -36.55 0.6 -36.65 0.75 -36.65 0.8 -36.65 0.9 -36.6 0.95 -36.45 0.95 -32.65 0.9 -32.55" fill="#cccccc" fill-rule="evenodd" stroke="none"/>
    <path d="M1.25 -36.7 L1.2 -36.6 1.1 -36.55 -1.35 -36.55 -1.45 -36.6 -1.45 -36.65 -1.45 -36.75 -1.4 -36.85 -1.3 -36.9 1.15 -36.9 1.25 -36.85 1.25 -36.75 1.25 -36.7" fill="#cccccc" fill-rule="evenodd" stroke="none"/>
    <path d="M1.25 -36.7 L1.25 -36.6 1.2 -36.35 1.1 -36.25 -1.35 -36.25 -1.45 -36.35 -1.45 -36.6 -1.35 -36.55 1.1 -36.55 1.2 -36.6 1.25 -36.7" fill="#666666" fill-rule="evenodd" stroke="none"/>
    <path d="M1.1 -28.65 L1.1 -28.55 1.0 -28.5 -1.5 -28.5 -1.55 -28.55 -1.55 -28.65 -1.5 -28.8 -1.4 -28.85 1.05 -28.85 1.1 -28.8 1.1 -28.65" fill="#cccccc" fill-rule="evenodd" stroke="none"/>
    <path d="M10.85 -12.65 L11.35 -12.65 11.35 4.65 10.85 4.65 10.85 -12.65 M10.85 -31.5 L11.35 -31.5 11.35 -16.15 10.85 -16.15 10.85 -31.5 M10.85 -35.0 L10.85 -41.35 11.35 -41.35 11.35 -35.0 10.85 -35.0 M10.85 37.35 L10.85 8.15 11.35 8.15 11.35 37.35 10.85 37.35" fill="url(#gradient53)" fill-rule="evenodd" stroke="none"/>
  </g>
  <defs>
    <linearGradient gradientTransform="matrix(-0.0162, 0.0, 0.0, -0.0554, -0.15, -2.25)" gradientUnits="userSpaceOnUse" id="gradient0" spreadMethod="pad" x1="-819.2" x2="819.2">
      <stop offset="0.0" stop-color="#ffffff" stop-opacity="0.0"/>
      <stop offset="1.0" stop-color="#919191"/>
    </linearGradient>
    <linearGradient gradientTransform="matrix(0.0162, 0.0, 0.0, 0.0554, -0.15, -2.25)" gradientUnits="userSpaceOnUse" id="gradient1" spreadMethod="pad" x1="-819.2" x2="819.2">
      <stop offset="0.0" stop-color="#ffffff" stop-opacity="0.0"/>
      <stop offset="1.0" stop-color="#999999"/>
    </linearGradient>
    <linearGradient gradientTransform="matrix(0.0154, 2.0E-4, 0.0, 0.0554, -0.35, -2.3)" gradientUnits="userSpaceOnUse" id="gradient2" spreadMethod="pad" x1="-819.2" x2="819.2">
      <stop offset="0.6196078431372549" stop-color="#ffffff" stop-opacity="0.0"/>
      <stop offset="1.0" stop-color="#b1b1b1"/>
    </linearGradient>
    <linearGradient gradientTransform="matrix(-0.0154, -2.0E-4, 0.0, -0.0554, -0.05, -2.0)" gradientUnits="userSpaceOnUse" id="gradient3" spreadMethod="pad" x1="-819.2" x2="819.2">
      <stop offset="0.6196078431372549" stop-color="#ffffff" stop-opacity="0.0"/>
      <stop offset="1.0" stop-color="#aaaaaa"/>
    </linearGradient>
    <linearGradient gradientTransform="matrix(0.0, 0.0342, -0.0116, 0.0, -0.3, 15.05)" gradientUnits="userSpaceOnUse" id="gradient4" spreadMethod="pad" x1="-819.2" x2="819.2">
      <stop offset="0.592156862745098" stop-color="#ffffff" stop-opacity="0.0"/>
      <stop offset="1.0" stop-color="#a2a2a2"/>
    </linearGradient>
    <linearGradient gradientTransform="matrix(0.0119, -2.0E-4, 0.0, -0.0541, -0.05, -2.0)" gradientUnits="userSpaceOnUse" id="gradient5" spreadMethod="pad" x1="-819.2" x2="819.2">
      <stop offset="0.0" stop-color="#e8e8e8" stop-opacity="0.70980394"/>
      <stop offset="1.0" stop-color="#e4e4e4" stop-opacity="0.7490196"/>
    </linearGradient>
    <linearGradient gradientTransform="matrix(-0.0154, -2.0E-4, 0.0, -0.0554, 1.1, -1.65)" gradientUnits="userSpaceOnUse" id="gradient6" spreadMethod="pad" x1="-819.2" x2="819.2">
      <stop offset="0.6196078431372549" stop-color="#ffffff" stop-opacity="0.0"/>
      <stop offset="1.0" stop-color="#c5c5c5"/>
    </linearGradient>
    <linearGradient gradientTransform="matrix(0.0143, -2.0E-4, 0.0, -0.055, -0.4, -2.0)" gradientUnits="userSpaceOnUse" id="gradient7" spreadMethod="pad" x1="-819.2" x2="819.2">
      <stop offset="0.6196078431372549" stop-color="#ffffff" stop-opacity="0.0"/>
      <stop offset="1.0" stop-color="#c5c5c5"/>
    </linearGradient>
    <linearGradient gradientTransform="matrix(0.0, -0.0414, 0.0125, 0.0, -0.5, -13.05)" gradientUnits="userSpaceOnUse" id="gradient8" spreadMethod="pad" x1="-819.2" x2="819.2">
      <stop offset="0.6196078431372549" stop-color="#ffffff" stop-opacity="0.0"/>
      <stop offset="1.0" stop-color="#b0b0b0"/>
    </linearGradient>
    <linearGradient gradientTransform="matrix(0.0, 0.0414, -0.0096, 0.0, 0.1, 7.45)" gradientUnits="userSpaceOnUse" id="gradient9" spreadMethod="pad" x1="-819.2" x2="819.2">
      <stop offset="0.6196078431372549" stop-color="#ffffff" stop-opacity="0.0"/>
      <stop offset="1.0" stop-color="#e8e8e8"/>
    </linearGradient>
    <linearGradient gradientTransform="matrix(0.0, -0.0414, 0.0106, 0.0, -0.4, -12.1)" gradientUnits="userSpaceOnUse" id="gradient10" spreadMethod="pad" x1="-819.2" x2="819.2">
      <stop offset="0.6196078431372549" stop-color="#ffffff" stop-opacity="0.0"/>
      <stop offset="1.0" stop-color="#e8e8e8"/>
    </linearGradient>
    <linearGradient gradientTransform="matrix(-3.0E-4, 0.0, 0.0, -0.048, -11.8, -2.0)" gradientUnits="userSpaceOnUse" id="gradient11" spreadMethod="pad" x1="-819.2" x2="819.2">
      <stop offset="0.0" stop-color="#990000" stop-opacity="0.9882353"/>
      <stop offset="1.0" stop-color="#660000"/>
    </linearGradient>
    <linearGradient gradientTransform="matrix(-0.0075, 0.0, 0.0, -0.0517, -0.35, -2.25)" gradientUnits="userSpaceOnUse" id="gradient12" spreadMethod="pad" x1="-819.2" x2="819.2">
      <stop offset="0.0" stop-color="#cccccc" stop-opacity="0.3647059"/>
      <stop offset="0.47058823529411764" stop-color="#666666"/>
      <stop offset="1.0" stop-color="#cccccc"/>
    </linearGradient>
    <linearGradient gradientTransform="matrix(-0.0065, 0.0, 0.0, -0.0508, -0.25, -2.0)" gradientUnits="userSpaceOnUse" id="gradient13" spreadMethod="pad" x1="-819.2" x2="819.2">
      <stop offset="0.0" stop-color="#e2e2e2"/>
      <stop offset="0.49411764705882355" stop-color="#c0c0c0"/>
      <stop offset="1.0" stop-color="#e8e8e8"/>
    </linearGradient>
    <linearGradient gradientTransform="matrix(0.0, -0.0052, 0.0072, 0.0, -0.1, -14.1)" gradientUnits="userSpaceOnUse" id="gradient14" spreadMethod="pad" x1="-819.2" x2="819.2">
      <stop offset="0.0" stop-color="#ffffff" stop-opacity="0.0"/>
      <stop offset="1.0" stop-color="#999999" stop-opacity="0.7882353"/>
    </linearGradient>
    <linearGradient gradientTransform="matrix(0.0, -0.0052, 0.0072, 0.0, -0.45, 18.15)" gradientUnits="userSpaceOnUse" id="gradient15" spreadMethod="pad" x1="-819.2" x2="819.2">
      <stop offset="0.0" stop-color="#ffffff" stop-opacity="0.0"/>
      <stop offset="1.0" stop-color="#999999" stop-opacity="0.7882353"/>
    </linearGradient>
    <linearGradient gradientTransform="matrix(-0.005, 0.0, 0.0, -0.005, -0.15, -3.85)" gradientUnits="userSpaceOnUse" id="gradient16" spreadMethod="pad" x1="-819.2" x2="819.2">
      <stop offset="0.0" stop-color="#ffffff" stop-opacity="0.0"/>
      <stop offset="1.0" stop-color="#666666" stop-opacity="0.7882353"/>
    </linearGradient>
    <linearGradient gradientTransform="matrix(0.0057, 0.0, 0.0, 0.0057, -0.15, -4.0)" gradientUnits="userSpaceOnUse" id="gradient17" spreadMethod="pad" x1="-819.2" x2="819.2">
      <stop offset="0.0" stop-color="#ffffff" stop-opacity="0.0"/>
      <stop offset="1.0" stop-color="#666666" stop-opacity="0.7882353"/>
    </linearGradient>
    <linearGradient gradientTransform="matrix(-0.0057, 0.0, 0.0, -0.0057, -0.15, -4.0)" gradientUnits="userSpaceOnUse" id="gradient18" spreadMethod="pad" x1="-819.2" x2="819.2">
      <stop offset="0.0" stop-color="#ffffff" stop-opacity="0.0"/>
      <stop offset="1.0" stop-color="#666666" stop-opacity="0.7882353"/>
    </linearGradient>
    <linearGradient gradientTransform="matrix(0.0, -0.0057, 0.0057, 0.0, -0.15, -4.0)" gradientUnits="userSpaceOnUse" id="gradient19" spreadMethod="pad" x1="-819.2" x2="819.2">
      <stop offset="0.0" stop-color="#ffffff" stop-opacity="0.0"/>
      <stop offset="1.0" stop-color="#666666" stop-opacity="0.7882353"/>
    </linearGradient>
    <linearGradient gradientTransform="matrix(-0.0041, 0.0041, -0.0041, -0.0041, -0.2, -3.8)" gradientUnits="userSpaceOnUse" id="gradient20" spreadMethod="pad" x1="-819.2" x2="819.2">
      <stop offset="0.0" stop-color="#ffffff" stop-opacity="0.0"/>
      <stop offset="1.0" stop-color="#666666" stop-opacity="0.7882353"/>
    </linearGradient>
    <linearGradient gradientTransform="matrix(-0.005, 0.0, 0.0, -0.005, -0.1, -3.9)" gradientUnits="userSpaceOnUse" id="gradient21" spreadMethod="pad" x1="-819.2" x2="819.2">
      <stop offset="0.0" stop-color="#ffffff" stop-opacity="0.0"/>
      <stop offset="1.0" stop-color="#999999" stop-opacity="0.7882353"/>
    </linearGradient>
    <linearGradient gradientTransform="matrix(0.005, 0.0, 0.0, 0.005, 0.0, -3.95)" gradientUnits="userSpaceOnUse" id="gradient22" spreadMethod="pad" x1="-819.2" x2="819.2">
      <stop offset="0.0" stop-color="#ffffff" stop-opacity="0.0"/>
      <stop offset="1.0" stop-color="#999999" stop-opacity="0.7882353"/>
    </linearGradient>
    <linearGradient gradientTransform="matrix(0.0, -0.005, 0.005, 0.0, -0.05, -3.7)" gradientUnits="userSpaceOnUse" id="gradient23" spreadMethod="pad" x1="-819.2" x2="819.2">
      <stop offset="0.0" stop-color="#ffffff" stop-opacity="0.0"/>
      <stop offset="1.0" stop-color="#737373"/>
    </linearGradient>
    <linearGradient gradientTransform="matrix(0.0, 0.0042, -0.0042, 0.0, -0.05, -3.8)" gradientUnits="userSpaceOnUse" id="gradient24" spreadMethod="pad" x1="-819.2" x2="819.2">
      <stop offset="0.0" stop-color="#ffffff" stop-opacity="0.0"/>
      <stop offset="0.9921568627450981" stop-color="#666666" stop-opacity="0.7882353"/>
    </linearGradient>
    <linearGradient gradientTransform="matrix(0.0, -0.0042, 0.0042, 0.0, -0.05, -3.6)" gradientUnits="userSpaceOnUse" id="gradient25" spreadMethod="pad" x1="-819.2" x2="819.2">
      <stop offset="0.0" stop-color="#ffffff" stop-opacity="0.0"/>
      <stop offset="0.9921568627450981" stop-color="#999999" stop-opacity="0.7882353"/>
    </linearGradient>
    <linearGradient gradientTransform="matrix(0.0042, 0.0, 0.0, 0.0042, -0.35, -3.55)" gradientUnits="userSpaceOnUse" id="gradient26" spreadMethod="pad" x1="-819.2" x2="819.2">
      <stop offset="0.0" stop-color="#ffffff" stop-opacity="0.0"/>
      <stop offset="1.0" stop-color="#999999" stop-opacity="0.7882353"/>
    </linearGradient>
    <linearGradient gradientTransform="matrix(0.0, -0.0052, 0.0072, 0.0, -0.45, -38.9)" gradientUnits="userSpaceOnUse" id="gradient27" spreadMethod="pad" x1="-819.2" x2="819.2">
      <stop offset="0.0" stop-color="#ffffff" stop-opacity="0.0"/>
      <stop offset="1.0" stop-color="#999999" stop-opacity="0.7882353"/>
    </linearGradient>
    <linearGradient gradientTransform="matrix(0.0, 0.0052, -0.0072, 0.0, -0.1, -24.7)" gradientUnits="userSpaceOnUse" id="gradient28" spreadMethod="pad" x1="-819.2" x2="819.2">
      <stop offset="0.0" stop-color="#ffffff" stop-opacity="0.0"/>
      <stop offset="1.0" stop-color="#999999" stop-opacity="0.7882353"/>
    </linearGradient>
    <linearGradient gradientTransform="matrix(0.0, 0.0052, -0.0072, 0.0, -0.1, 7.85)" gradientUnits="userSpaceOnUse" id="gradient29" spreadMethod="pad" x1="-819.2" x2="819.2">
      <stop offset="0.0" stop-color="#ffffff" stop-opacity="0.0"/>
      <stop offset="1.0" stop-color="#999999" stop-opacity="0.7882353"/>
    </linearGradient>
    <linearGradient gradientTransform="matrix(0.0, 0.0052, -0.0072, 0.0, -0.05, 35.05)" gradientUnits="userSpaceOnUse" id="gradient30" spreadMethod="pad" x1="-819.2" x2="819.2">
      <stop offset="0.0" stop-color="#ffffff" stop-opacity="0.0"/>
      <stop offset="1.0" stop-color="#999999" stop-opacity="0.7882353"/>
    </linearGradient>
    <linearGradient gradientTransform="matrix(-0.005, 0.0, 0.0, -0.005, -0.45, 26.6)" gradientUnits="userSpaceOnUse" id="gradient31" spreadMethod="pad" x1="-819.2" x2="819.2">
      <stop offset="0.0" stop-color="#ffffff" stop-opacity="0.0"/>
      <stop offset="1.0" stop-color="#666666" stop-opacity="0.7882353"/>
    </linearGradient>
    <linearGradient gradientTransform="matrix(0.0057, 0.0, 0.0, 0.0057, -0.45, 26.45)" gradientUnits="userSpaceOnUse" id="gradient32" spreadMethod="pad" x1="-819.2" x2="819.2">
      <stop offset="0.0" stop-color="#ffffff" stop-opacity="0.0"/>
      <stop offset="1.0" stop-color="#666666" stop-opacity="0.7882353"/>
    </linearGradient>
    <linearGradient gradientTransform="matrix(-0.0057, 0.0, 0.0, -0.0057, -0.45, 26.45)" gradientUnits="userSpaceOnUse" id="gradient33" spreadMethod="pad" x1="-819.2" x2="819.2">
      <stop offset="0.0" stop-color="#ffffff" stop-opacity="0.0"/>
      <stop offset="1.0" stop-color="#666666" stop-opacity="0.7882353"/>
    </linearGradient>
    <linearGradient gradientTransform="matrix(0.0, -0.0057, 0.0057, 0.0, -0.45, 26.45)" gradientUnits="userSpaceOnUse" id="gradient34" spreadMethod="pad" x1="-819.2" x2="819.2">
      <stop offset="0.0" stop-color="#ffffff" stop-opacity="0.0"/>
      <stop offset="1.0" stop-color="#666666" stop-opacity="0.7882353"/>
    </linearGradient>
    <linearGradient gradientTransform="matrix(-0.0041, 0.0041, -0.0041, -0.0041, -0.5, 26.65)" gradientUnits="userSpaceOnUse" id="gradient35" spreadMethod="pad" x1="-819.2" x2="819.2">
      <stop offset="0.0" stop-color="#ffffff" stop-opacity="0.0"/>
      <stop offset="1.0" stop-color="#666666" stop-opacity="0.7882353"/>
    </linearGradient>
    <linearGradient gradientTransform="matrix(-0.005, 0.0, 0.0, -0.005, -0.4, 26.55)" gradientUnits="userSpaceOnUse" id="gradient36" spreadMethod="pad" x1="-819.2" x2="819.2">
      <stop offset="0.0" stop-color="#ffffff" stop-opacity="0.0"/>
      <stop offset="1.0" stop-color="#999999" stop-opacity="0.7882353"/>
    </linearGradient>
    <linearGradient gradientTransform="matrix(0.005, 0.0, 0.0, 0.005, -0.3, 26.5)" gradientUnits="userSpaceOnUse" id="gradient37" spreadMethod="pad" x1="-819.2" x2="819.2">
      <stop offset="0.0" stop-color="#ffffff" stop-opacity="0.0"/>
      <stop offset="1.0" stop-color="#999999" stop-opacity="0.7882353"/>
    </linearGradient>
    <linearGradient gradientTransform="matrix(0.0, -0.005, 0.005, 0.0, -0.35, 26.75)" gradientUnits="userSpaceOnUse" id="gradient38" spreadMethod="pad" x1="-819.2" x2="819.2">
      <stop offset="0.0" stop-color="#ffffff" stop-opacity="0.0"/>
      <stop offset="1.0" stop-color="#737373"/>
    </linearGradient>
    <linearGradient gradientTransform="matrix(0.0, 0.0042, -0.0042, 0.0, -0.35, 26.65)" gradientUnits="userSpaceOnUse" id="gradient39" spreadMethod="pad" x1="-819.2" x2="819.2">
      <stop offset="0.0" stop-color="#ffffff" stop-opacity="0.0"/>
      <stop offset="0.9921568627450981" stop-color="#666666" stop-opacity="0.7882353"/>
    </linearGradient>
    <linearGradient gradientTransform="matrix(0.0, -0.0042, 0.0042, 0.0, -0.35, 26.85)" gradientUnits="userSpaceOnUse" id="gradient40" spreadMethod="pad" x1="-819.2" x2="819.2">
      <stop offset="0.0" stop-color="#ffffff" stop-opacity="0.0"/>
      <stop offset="0.9921568627450981" stop-color="#999999" stop-opacity="0.7882353"/>
    </linearGradient>
    <linearGradient gradientTransform="matrix(0.0042, 0.0, 0.0, 0.0042, -0.65, 26.9)" gradientUnits="userSpaceOnUse" id="gradient41" spreadMethod="pad" x1="-819.2" x2="819.2">
      <stop offset="0.0" stop-color="#ffffff" stop-opacity="0.0"/>
      <stop offset="1.0" stop-color="#999999" stop-opacity="0.7882353"/>
    </linearGradient>
    <linearGradient gradientTransform="matrix(-0.005, 0.0, 0.0, -0.005, -0.15, -31.0)" gradientUnits="userSpaceOnUse" id="gradient42" spreadMethod="pad" x1="-819.2" x2="819.2">
      <stop offset="0.0" stop-color="#ffffff" stop-opacity="0.0"/>
      <stop offset="1.0" stop-color="#666666" stop-opacity="0.7882353"/>
    </linearGradient>
    <linearGradient gradientTransform="matrix(0.0057, 0.0, 0.0, 0.0057, -0.15, -31.15)" gradientUnits="userSpaceOnUse" id="gradient43" spreadMethod="pad" x1="-819.2" x2="819.2">
      <stop offset="0.0" stop-color="#ffffff" stop-opacity="0.0"/>
      <stop offset="1.0" stop-color="#666666" stop-opacity="0.7882353"/>
    </linearGradient>
    <linearGradient gradientTransform="matrix(-0.0057, 0.0, 0.0, -0.0057, -0.15, -31.15)" gradientUnits="userSpaceOnUse" id="gradient44" spreadMethod="pad" x1="-819.2" x2="819.2">
      <stop offset="0.0" stop-color="#ffffff" stop-opacity="0.0"/>
      <stop offset="1.0" stop-color="#666666" stop-opacity="0.7882353"/>
    </linearGradient>
    <linearGradient gradientTransform="matrix(0.0, -0.0057, 0.0057, 0.0, -0.15, -31.15)" gradientUnits="userSpaceOnUse" id="gradient45" spreadMethod="pad" x1="-819.2" x2="819.2">
      <stop offset="0.0" stop-color="#ffffff" stop-opacity="0.0"/>
      <stop offset="1.0" stop-color="#666666" stop-opacity="0.7882353"/>
    </linearGradient>
    <linearGradient gradientTransform="matrix(-0.0041, 0.0041, -0.0041, -0.0041, -0.2, -30.95)" gradientUnits="userSpaceOnUse" id="gradient46" spreadMethod="pad" x1="-819.2" x2="819.2">
      <stop offset="0.0" stop-color="#ffffff" stop-opacity="0.0"/>
      <stop offset="1.0" stop-color="#666666" stop-opacity="0.7882353"/>
    </linearGradient>
    <linearGradient gradientTransform="matrix(-0.005, 0.0, 0.0, -0.005, -0.1, -31.05)" gradientUnits="userSpaceOnUse" id="gradient47" spreadMethod="pad" x1="-819.2" x2="819.2">
      <stop offset="0.0" stop-color="#ffffff" stop-opacity="0.0"/>
      <stop offset="1.0" stop-color="#999999" stop-opacity="0.7882353"/>
    </linearGradient>
    <linearGradient gradientTransform="matrix(0.005, 0.0, 0.0, 0.005, 0.0, -31.1)" gradientUnits="userSpaceOnUse" id="gradient48" spreadMethod="pad" x1="-819.2" x2="819.2">
      <stop offset="0.0" stop-color="#ffffff" stop-opacity="0.0"/>
      <stop offset="1.0" stop-color="#999999" stop-opacity="0.7882353"/>
    </linearGradient>
    <linearGradient gradientTransform="matrix(0.0, -0.005, 0.005, 0.0, -0.05, -30.85)" gradientUnits="userSpaceOnUse" id="gradient49" spreadMethod="pad" x1="-819.2" x2="819.2">
      <stop offset="0.0" stop-color="#ffffff" stop-opacity="0.0"/>
      <stop offset="1.0" stop-color="#737373"/>
    </linearGradient>
    <linearGradient gradientTransform="matrix(0.0, 0.0042, -0.0042, 0.0, -0.05, -30.95)" gradientUnits="userSpaceOnUse" id="gradient50" spreadMethod="pad" x1="-819.2" x2="819.2">
      <stop offset="0.0" stop-color="#ffffff" stop-opacity="0.0"/>
      <stop offset="0.9921568627450981" stop-color="#666666" stop-opacity="0.7882353"/>
    </linearGradient>
    <linearGradient gradientTransform="matrix(0.0, -0.0042, 0.0042, 0.0, -0.05, -30.75)" gradientUnits="userSpaceOnUse" id="gradient51" spreadMethod="pad" x1="-819.2" x2="819.2">
      <stop offset="0.0" stop-color="#ffffff" stop-opacity="0.0"/>
      <stop offset="0.9921568627450981" stop-color="#999999" stop-opacity="0.7882353"/>
    </linearGradient>
    <linearGradient gradientTransform="matrix(0.0042, 0.0, 0.0, 0.0042, -0.35, -30.7)" gradientUnits="userSpaceOnUse" id="gradient52" spreadMethod="pad" x1="-819.2" x2="819.2">
      <stop offset="0.0" stop-color="#ffffff" stop-opacity="0.0"/>
      <stop offset="1.0" stop-color="#999999" stop-opacity="0.7882353"/>
    </linearGradient>
    <linearGradient gradientTransform="matrix(-3.0E-4, 0.0, 0.0, -0.048, 11.1, -2.0)" gradientUnits="userSpaceOnUse" id="gradient53" spreadMethod="pad" x1="-819.2" x2="819.2">
      <stop offset="0.0" stop-color="#990000" stop-opacity="0.9882353"/>
      <stop offset="1.0" stop-color="#660000"/>
    </linearGradient>
  </defs>
</svg>
