<?xml version="1.0" encoding="UTF-8" standalone="no"?>
<svg xmlns:xlink="http://www.w3.org/1999/xlink" height="37.4px" width="32.65px" xmlns="http://www.w3.org/2000/svg">
  <g transform="matrix(1, 0, 0, 1, 16.0, -10.75)">
    <path d="M-16.0 45.3 L16.25 45.3 16.25 46.75 -16.0 46.75 -16.0 45.3" fill="#797576" fill-rule="evenodd" stroke="none"/>
    <path d="M-16.0 45.3 L-16.0 44.45 16.25 44.45 16.25 45.3 -16.0 45.3" fill="#a7a7a7" fill-rule="evenodd" stroke="none"/>
    <path d="M12.2 11.85 L12.2 14.4 -13.1 14.4 -13.1 11.85 12.2 11.85" fill="#262425" fill-rule="evenodd" stroke="none"/>
    <path d="M-13.1 11.85 L-13.1 10.75 12.2 10.75 12.2 11.85 -13.1 11.85" fill="#5b5758" fill-rule="evenodd" stroke="none"/>
    <path d="M16.65 13.8 L-15.6 13.8 -15.6 12.95 16.65 12.95 16.65 13.8" fill="#a7a7a7" fill-rule="evenodd" stroke="none"/>
    <path d="M16.65 13.8 L16.65 15.25 -15.6 15.25 -15.6 13.8 16.65 13.8" fill="#797576" fill-rule="evenodd" stroke="none"/>
    <path d="M-12.55 20.6 L-12.55 19.9 12.75 19.9 12.75 20.6 -12.55 20.6" fill="#5b5758" fill-rule="evenodd" stroke="none"/>
    <path d="M12.75 20.6 L12.75 22.35 -12.55 22.35 -12.55 20.6 12.75 20.6" fill="#262425" fill-rule="evenodd" stroke="none"/>
    <path d="M12.75 37.55 L12.75 39.35 -12.55 39.35 -12.55 37.55 12.75 37.55" fill="#262425" fill-rule="evenodd" stroke="none"/>
    <path d="M-12.55 37.55 L-12.55 36.85 12.75 36.85 12.75 37.55 -12.55 37.55" fill="#5b5758" fill-rule="evenodd" stroke="none"/>
    <path d="M7.2 47.2 L-7.25 47.2 -7.25 44.85 7.2 44.85 7.2 47.2" fill="#a7a7a7" fill-rule="evenodd" stroke="none"/>
    <path d="M7.2 47.2 L7.2 48.15 -7.25 48.15 -7.25 47.2 7.2 47.2" fill="#5b5758" fill-rule="evenodd" stroke="none"/>
    <path d="M-6.8 47.3 L-6.8 15.6 -5.55 15.6 -5.55 47.3 -6.8 47.3" fill="#a7a7a7" fill-rule="evenodd" stroke="none"/>
    <path d="M-6.8 47.3 L-7.35 47.3 -7.35 15.6 -6.8 15.6 -6.8 47.3" fill="#5b5758" fill-rule="evenodd" stroke="none"/>
    <path d="M6.7 15.6 L7.25 15.6 7.25 47.3 6.7 47.3 6.7 15.6" fill="#5b5758" fill-rule="evenodd" stroke="none"/>
    <path d="M6.7 47.3 L5.45 47.3 5.45 15.6 6.7 15.6 6.7 47.3" fill="#a7a7a7" fill-rule="evenodd" stroke="none"/>
    <path d="M-5.4 16.55 L-5.4 15.2 5.7 15.2 5.7 16.55 5.1 16.55 -4.7 16.55 -5.4 16.55" fill="#3f3b3c" fill-rule="evenodd" stroke="none"/>
    <path d="M5.7 16.55 L5.7 21.05 5.1 21.05 5.1 16.55 5.7 16.55 M5.7 22.1 L5.7 24.65 -5.4 24.65 -5.4 22.1 -4.7 22.1 -4.7 23.95 5.1 23.95 5.1 22.1 5.7 22.1 M-5.4 21.05 L-5.4 16.55 -4.7 16.55 -4.7 21.05 -5.4 21.05 M2.0 22.1 L-1.2 22.1 -1.2 21.05 2.0 21.05 2.0 22.1" fill="#5a5657" fill-rule="evenodd" stroke="none"/>
    <path d="M5.7 21.05 L5.7 22.1 5.1 22.1 5.1 23.95 -4.7 23.95 -4.7 22.1 -5.4 22.1 -5.4 21.05 -4.7 21.05 -4.7 16.55 5.1 16.55 5.1 21.05 5.7 21.05 M2.0 22.1 L2.0 21.05 -1.2 21.05 -1.2 22.1 2.0 22.1" fill="url(#gradient0)" fill-rule="evenodd" stroke="none"/>
    <path d="M-5.6 37.1 L-4.9 37.1 -4.9 38.75 4.95 38.75 4.95 37.1 5.6 37.1 5.6 39.35 -5.6 39.35 -5.6 37.1 M5.6 36.15 L4.95 36.15 4.95 32.2 5.6 32.2 5.6 36.15 M-4.9 32.2 L-4.9 36.15 -5.6 36.15 -5.6 32.2 -4.9 32.2 M1.9 37.1 L-1.35 37.1 -1.35 36.15 1.9 36.15 1.9 37.1" fill="#5a5657" fill-rule="evenodd" stroke="none"/>
    <path d="M4.95 32.2 L-4.9 32.2 -5.6 32.2 -5.6 30.95 5.6 30.95 5.6 32.2 4.95 32.2" fill="#3f3b3c" fill-rule="evenodd" stroke="none"/>
    <path d="M5.6 37.1 L4.95 37.1 4.95 38.75 -4.9 38.75 -4.9 37.1 -5.6 37.1 -5.6 36.15 -4.9 36.15 -4.9 32.2 4.95 32.2 4.95 36.15 5.6 36.15 5.6 37.1 M1.9 37.1 L1.9 36.15 -1.35 36.15 -1.35 37.1 1.9 37.1" fill="url(#gradient1)" fill-rule="evenodd" stroke="none"/>
    <path d="M5.2 42.75 L5.2 39.9 5.8 39.9 5.8 42.75 5.2 42.75 M-4.6 39.9 L-4.6 42.75 -5.3 42.75 -5.3 39.9 -4.6 39.9 M-4.6 43.45 L-4.6 44.6 5.2 44.6 5.2 43.45 5.8 43.45 5.8 45.05 -5.3 45.05 -5.3 43.45 -4.6 43.45" fill="#5a5657" fill-rule="evenodd" stroke="none"/>
    <path d="M5.2 39.9 L5.2 42.75 2.15 42.75 -1.1 42.75 -4.6 42.75 -4.6 39.9 5.2 39.9 M5.2 43.45 L5.2 44.6 -4.6 44.6 -4.6 43.45 -1.1 43.45 2.15 43.45 5.2 43.45" fill="url(#gradient2)" fill-rule="evenodd" stroke="none"/>
    <path d="M5.2 42.75 L5.8 42.75 5.8 43.45 5.2 43.45 2.15 43.45 2.15 42.75 5.2 42.75 M5.8 39.9 L5.2 39.9 -4.6 39.9 -5.3 39.9 -5.3 39.05 5.8 39.05 5.8 39.9 M-4.6 42.75 L-1.1 42.75 -1.1 43.45 -4.6 43.45 -5.3 43.45 -5.3 42.75 -4.6 42.75" fill="#3f3b3c" fill-rule="evenodd" stroke="none"/>
    <path d="M-1.1 42.75 L2.15 42.75 2.15 43.45 -1.1 43.45 -1.1 42.75" fill="#b2aeaf" fill-rule="evenodd" stroke="none"/>
    <path d="M-6.15 24.5 L-6.15 23.9 6.3 23.9 6.3 24.5 -6.15 24.5" fill="url(#gradient3)" fill-rule="evenodd" stroke="none"/>
    <path d="M6.3 30.35 L6.3 30.95 -6.15 30.95 -6.15 30.35 6.3 30.35" fill="url(#gradient4)" fill-rule="evenodd" stroke="none"/>
    <path d="M6.3 28.3 L6.3 30.35 -6.15 30.35 -6.15 28.3 6.3 28.3" fill="url(#gradient5)" fill-rule="evenodd" stroke="none"/>
    <path d="M6.3 26.4 L6.3 28.3 -6.15 28.3 -6.15 26.4 6.3 26.4" fill="url(#gradient6)" fill-rule="evenodd" stroke="none"/>
    <path d="M6.3 24.5 L6.3 26.4 -6.15 26.4 -6.15 24.5 6.3 24.5" fill="url(#gradient7)" fill-rule="evenodd" stroke="none"/>
    <path d="M-1.85 34.75 L-1.85 33.55 1.8 33.55 1.8 34.75 -1.85 34.75" fill="url(#gradient8)" fill-rule="evenodd" stroke="none"/>
    <path d="M-1.85 33.55 L-1.85 32.35 1.8 32.35 1.8 33.55 -1.85 33.55" fill="url(#gradient9)" fill-rule="evenodd" stroke="none"/>
    <path d="M-1.85 32.35 L-1.85 31.95 1.8 31.95 1.8 32.35 -1.85 32.35" fill="url(#gradient10)" fill-rule="evenodd" stroke="none"/>
    <path d="M1.8 36.1 L1.8 36.5 -1.85 36.5 -1.85 36.1 1.8 36.1" fill="url(#gradient11)" fill-rule="evenodd" stroke="none"/>
    <path d="M1.8 34.75 L1.8 36.1 -1.85 36.1 -1.85 34.75 1.8 34.75" fill="url(#gradient12)" fill-rule="evenodd" stroke="none"/>
    <path d="M-1.85 40.5 L-1.85 39.6 1.8 39.6 1.8 40.5 -1.85 40.5" fill="url(#gradient13)" fill-rule="evenodd" stroke="none"/>
    <path d="M-1.85 39.6 L-1.85 38.75 1.8 38.75 1.8 39.6 -1.85 39.6" fill="url(#gradient14)" fill-rule="evenodd" stroke="none"/>
    <path d="M-1.85 38.75 L-1.85 37.95 1.8 37.95 1.8 38.75 -1.85 38.75" fill="url(#gradient15)" fill-rule="evenodd" stroke="none"/>
    <path d="M-1.85 37.95 L-1.85 37.7 1.8 37.7 1.8 37.95 -1.85 37.95" fill="url(#gradient16)" fill-rule="evenodd" stroke="none"/>
    <path d="M1.8 40.5 L1.8 40.75 -1.85 40.75 -1.85 40.5 1.8 40.5" fill="url(#gradient17)" fill-rule="evenodd" stroke="none"/>
    <path d="M0.7 16.2 L3.45 16.2 3.45 18.6 0.7 18.6 0.7 16.2" fill="url(#gradient18)" fill-rule="evenodd" stroke="none"/>
    <path d="M3.45 16.2 L0.7 16.2 0.7 15.45 3.45 15.45 3.45 16.2" fill="url(#gradient19)" fill-rule="evenodd" stroke="none"/>
    <path d="M0.7 18.6 L3.45 18.6 3.45 21.0 0.7 21.0 0.7 18.6" fill="url(#gradient20)" fill-rule="evenodd" stroke="none"/>
    <path d="M3.45 23.55 L3.45 24.35 0.7 24.35 0.7 23.55 3.45 23.55" fill="url(#gradient21)" fill-rule="evenodd" stroke="none"/>
    <path d="M3.45 21.0 L3.45 23.55 0.7 23.55 0.7 21.0 3.45 21.0" fill="url(#gradient22)" fill-rule="evenodd" stroke="none"/>
    <path d="M-3.3 16.2 L-0.55 16.2 -0.55 18.6 -3.3 18.6 -3.3 16.2" fill="url(#gradient23)" fill-rule="evenodd" stroke="none"/>
    <path d="M-0.55 16.2 L-3.3 16.2 -3.3 15.45 -0.55 15.45 -0.55 16.2" fill="url(#gradient24)" fill-rule="evenodd" stroke="none"/>
    <path d="M-3.3 18.6 L-0.55 18.6 -0.55 21.0 -3.3 21.0 -3.3 18.6" fill="url(#gradient25)" fill-rule="evenodd" stroke="none"/>
    <path d="M-0.55 23.55 L-0.55 24.35 -3.3 24.35 -3.3 23.55 -0.55 23.55" fill="url(#gradient26)" fill-rule="evenodd" stroke="none"/>
    <path d="M-0.55 21.0 L-0.55 23.55 -3.3 23.55 -3.3 21.0 -0.55 21.0" fill="url(#gradient27)" fill-rule="evenodd" stroke="none"/>
  </g>
  <defs>
    <linearGradient gradientTransform="matrix(0.0, 0.009, -0.0041, 0.0, 1.0, 15.85)" gradientUnits="userSpaceOnUse" id="gradient0" spreadMethod="pad" x1="-819.2" x2="819.2">
      <stop offset="0.0" stop-color="#332f30"/>
      <stop offset="0.36470588235294116" stop-color="#dfdbdc"/>
      <stop offset="0.5176470588235295" stop-color="#a7a7a7"/>
      <stop offset="0.6901960784313725" stop-color="#dfdbdc"/>
      <stop offset="1.0" stop-color="#332f30"/>
    </linearGradient>
    <linearGradient gradientTransform="matrix(0.0, 0.0259, -0.0041, 0.0, 0.6, 16.0)" gradientUnits="userSpaceOnUse" id="gradient1" spreadMethod="pad" x1="-819.2" x2="819.2">
      <stop offset="0.0" stop-color="#332f30"/>
      <stop offset="0.36470588235294116" stop-color="#dfdbdc"/>
      <stop offset="0.5176470588235295" stop-color="#a7a7a7"/>
      <stop offset="0.6901960784313725" stop-color="#dfdbdc"/>
      <stop offset="1.0" stop-color="#332f30"/>
    </linearGradient>
    <linearGradient gradientTransform="matrix(0.0, 0.0185, -0.0041, 0.0, 0.65, 31.15)" gradientUnits="userSpaceOnUse" id="gradient2" spreadMethod="pad" x1="-819.2" x2="819.2">
      <stop offset="0.0" stop-color="#332f30"/>
      <stop offset="0.36470588235294116" stop-color="#dfdbdc"/>
      <stop offset="0.5176470588235295" stop-color="#a7a7a7"/>
      <stop offset="0.6901960784313725" stop-color="#dfdbdc"/>
      <stop offset="1.0" stop-color="#332f30"/>
    </linearGradient>
    <linearGradient gradientTransform="matrix(-1.0E-4, -0.0076, 0.0054, -1.0E-4, -4.0, 30.5)" gradientUnits="userSpaceOnUse" id="gradient3" spreadMethod="pad" x1="-819.2" x2="819.2">
      <stop offset="0.0" stop-color="#332f30"/>
      <stop offset="0.36470588235294116" stop-color="#dfdbdc"/>
      <stop offset="0.5176470588235295" stop-color="#a7a7a7"/>
      <stop offset="0.6901960784313725" stop-color="#dfdbdc"/>
      <stop offset="1.0" stop-color="#332f30"/>
    </linearGradient>
    <linearGradient gradientTransform="matrix(0.0, -0.0069, 0.0043, 0.0, 0.45, 25.3)" gradientUnits="userSpaceOnUse" id="gradient4" spreadMethod="pad" x1="-819.2" x2="819.2">
      <stop offset="0.0" stop-color="#332f30"/>
      <stop offset="0.36470588235294116" stop-color="#dfdbdc"/>
      <stop offset="0.5176470588235295" stop-color="#a7a7a7"/>
      <stop offset="0.6901960784313725" stop-color="#dfdbdc"/>
      <stop offset="1.0" stop-color="#332f30"/>
    </linearGradient>
    <linearGradient gradientTransform="matrix(-0.0076, 0.0, 0.0, -0.0056, 0.05, 27.3)" gradientUnits="userSpaceOnUse" id="gradient5" spreadMethod="pad" x1="-819.2" x2="819.2">
      <stop offset="0.0" stop-color="#332f30"/>
      <stop offset="0.36470588235294116" stop-color="#dfdbdc"/>
      <stop offset="0.5176470588235295" stop-color="#a7a7a7"/>
      <stop offset="0.6901960784313725" stop-color="#dfdbdc"/>
      <stop offset="1.0" stop-color="#332f30"/>
    </linearGradient>
    <linearGradient gradientTransform="matrix(-0.0058, 0.0, 0.0, -0.0056, 0.05, 27.55)" gradientUnits="userSpaceOnUse" id="gradient6" spreadMethod="pad" x1="-819.2" x2="819.2">
      <stop offset="0.0" stop-color="#332f30"/>
      <stop offset="0.36470588235294116" stop-color="#dfdbdc"/>
      <stop offset="0.5176470588235295" stop-color="#a7a7a7"/>
      <stop offset="0.6901960784313725" stop-color="#dfdbdc"/>
      <stop offset="1.0" stop-color="#332f30"/>
    </linearGradient>
    <linearGradient gradientTransform="matrix(-0.0076, 0.0, 0.0, -0.0055, 0.05, 27.85)" gradientUnits="userSpaceOnUse" id="gradient7" spreadMethod="pad" x1="-819.2" x2="819.2">
      <stop offset="0.0" stop-color="#332f30"/>
      <stop offset="0.36470588235294116" stop-color="#dfdbdc"/>
      <stop offset="0.5176470588235295" stop-color="#a7a7a7"/>
      <stop offset="0.6901960784313725" stop-color="#dfdbdc"/>
      <stop offset="1.0" stop-color="#332f30"/>
    </linearGradient>
    <linearGradient gradientTransform="matrix(-0.0017, 0.0, 0.0, -0.0036, -0.05, 34.3)" gradientUnits="userSpaceOnUse" id="gradient8" spreadMethod="pad" x1="-819.2" x2="819.2">
      <stop offset="0.0" stop-color="#332f30"/>
      <stop offset="0.36470588235294116" stop-color="#dfdbdc"/>
      <stop offset="0.5176470588235295" stop-color="#a7a7a7"/>
      <stop offset="0.6901960784313725" stop-color="#dfdbdc"/>
      <stop offset="1.0" stop-color="#332f30"/>
    </linearGradient>
    <linearGradient gradientTransform="matrix(-0.0022, 0.0, 0.0, -0.0035, -0.05, 34.5)" gradientUnits="userSpaceOnUse" id="gradient9" spreadMethod="pad" x1="-819.2" x2="819.2">
      <stop offset="0.0" stop-color="#332f30"/>
      <stop offset="0.36470588235294116" stop-color="#dfdbdc"/>
      <stop offset="0.5176470588235295" stop-color="#a7a7a7"/>
      <stop offset="0.6901960784313725" stop-color="#dfdbdc"/>
      <stop offset="1.0" stop-color="#332f30"/>
    </linearGradient>
    <linearGradient gradientTransform="matrix(0.0, -0.0049, 0.0016, 0.0, -1.25, 36.2)" gradientUnits="userSpaceOnUse" id="gradient10" spreadMethod="pad" x1="-819.2" x2="819.2">
      <stop offset="0.0" stop-color="#332f30"/>
      <stop offset="0.36470588235294116" stop-color="#dfdbdc"/>
      <stop offset="0.5176470588235295" stop-color="#a7a7a7"/>
      <stop offset="0.6901960784313725" stop-color="#dfdbdc"/>
      <stop offset="1.0" stop-color="#332f30"/>
    </linearGradient>
    <linearGradient gradientTransform="matrix(0.0, -0.0044, 0.0013, 0.0, 0.1, 32.85)" gradientUnits="userSpaceOnUse" id="gradient11" spreadMethod="pad" x1="-819.2" x2="819.2">
      <stop offset="0.0" stop-color="#332f30"/>
      <stop offset="0.36470588235294116" stop-color="#dfdbdc"/>
      <stop offset="0.5176470588235295" stop-color="#a7a7a7"/>
      <stop offset="0.6901960784313725" stop-color="#dfdbdc"/>
      <stop offset="1.0" stop-color="#332f30"/>
    </linearGradient>
    <linearGradient gradientTransform="matrix(-0.0022, 0.0, 0.0, -0.0036, -0.05, 34.15)" gradientUnits="userSpaceOnUse" id="gradient12" spreadMethod="pad" x1="-819.2" x2="819.2">
      <stop offset="0.0" stop-color="#332f30"/>
      <stop offset="0.36470588235294116" stop-color="#dfdbdc"/>
      <stop offset="0.5176470588235295" stop-color="#a7a7a7"/>
      <stop offset="0.6901960784313725" stop-color="#dfdbdc"/>
      <stop offset="1.0" stop-color="#332f30"/>
    </linearGradient>
    <linearGradient gradientTransform="matrix(-0.0022, 0.0, 0.0, -0.0025, -0.05, 39.2)" gradientUnits="userSpaceOnUse" id="gradient13" spreadMethod="pad" x1="-819.2" x2="819.2">
      <stop offset="0.0" stop-color="#332f30"/>
      <stop offset="0.36470588235294116" stop-color="#dfdbdc"/>
      <stop offset="0.5176470588235295" stop-color="#a7a7a7"/>
      <stop offset="0.6901960784313725" stop-color="#dfdbdc"/>
      <stop offset="1.0" stop-color="#332f30"/>
    </linearGradient>
    <linearGradient gradientTransform="matrix(-0.0017, 0.0, 0.0, -0.0024, -0.05, 39.3)" gradientUnits="userSpaceOnUse" id="gradient14" spreadMethod="pad" x1="-819.2" x2="819.2">
      <stop offset="0.0" stop-color="#332f30"/>
      <stop offset="0.36470588235294116" stop-color="#dfdbdc"/>
      <stop offset="0.5176470588235295" stop-color="#a7a7a7"/>
      <stop offset="0.6901960784313725" stop-color="#dfdbdc"/>
      <stop offset="1.0" stop-color="#332f30"/>
    </linearGradient>
    <linearGradient gradientTransform="matrix(-0.0022, 0.0, 0.0, -0.0024, -0.05, 39.4)" gradientUnits="userSpaceOnUse" id="gradient15" spreadMethod="pad" x1="-819.2" x2="819.2">
      <stop offset="0.0" stop-color="#332f30"/>
      <stop offset="0.36470588235294116" stop-color="#dfdbdc"/>
      <stop offset="0.5176470588235295" stop-color="#a7a7a7"/>
      <stop offset="0.6901960784313725" stop-color="#dfdbdc"/>
      <stop offset="1.0" stop-color="#332f30"/>
    </linearGradient>
    <linearGradient gradientTransform="matrix(0.0, -0.0033, 0.0016, 0.0, -1.25, 40.55)" gradientUnits="userSpaceOnUse" id="gradient16" spreadMethod="pad" x1="-819.2" x2="819.2">
      <stop offset="0.0" stop-color="#332f30"/>
      <stop offset="0.36470588235294116" stop-color="#dfdbdc"/>
      <stop offset="0.5176470588235295" stop-color="#a7a7a7"/>
      <stop offset="0.6901960784313725" stop-color="#dfdbdc"/>
      <stop offset="1.0" stop-color="#332f30"/>
    </linearGradient>
    <linearGradient gradientTransform="matrix(0.0, -0.003, 0.0013, 0.0, 0.1, 38.3)" gradientUnits="userSpaceOnUse" id="gradient17" spreadMethod="pad" x1="-819.2" x2="819.2">
      <stop offset="0.0" stop-color="#332f30"/>
      <stop offset="0.36470588235294116" stop-color="#dfdbdc"/>
      <stop offset="0.5176470588235295" stop-color="#a7a7a7"/>
      <stop offset="0.6901960784313725" stop-color="#dfdbdc"/>
      <stop offset="1.0" stop-color="#332f30"/>
    </linearGradient>
    <linearGradient gradientTransform="matrix(-0.0017, 0.0, 0.0, -0.007, 2.1, 20.4)" gradientUnits="userSpaceOnUse" id="gradient18" spreadMethod="pad" x1="-819.2" x2="819.2">
      <stop offset="0.0" stop-color="#332f30"/>
      <stop offset="0.36470588235294116" stop-color="#dfdbdc"/>
      <stop offset="0.5176470588235295" stop-color="#a7a7a7"/>
      <stop offset="0.6901960784313725" stop-color="#dfdbdc"/>
      <stop offset="1.0" stop-color="#332f30"/>
    </linearGradient>
    <linearGradient gradientTransform="matrix(0.0, -0.0096, 0.0012, -1.0E-4, 1.2, 23.7)" gradientUnits="userSpaceOnUse" id="gradient19" spreadMethod="pad" x1="-819.2" x2="819.2">
      <stop offset="0.0" stop-color="#332f30"/>
      <stop offset="0.36470588235294116" stop-color="#dfdbdc"/>
      <stop offset="0.5176470588235295" stop-color="#a7a7a7"/>
      <stop offset="0.6901960784313725" stop-color="#dfdbdc"/>
      <stop offset="1.0" stop-color="#332f30"/>
    </linearGradient>
    <linearGradient gradientTransform="matrix(-0.0013, 0.0, 0.0, -0.007, 2.1, 20.05)" gradientUnits="userSpaceOnUse" id="gradient20" spreadMethod="pad" x1="-819.2" x2="819.2">
      <stop offset="0.0" stop-color="#332f30"/>
      <stop offset="0.36470588235294116" stop-color="#dfdbdc"/>
      <stop offset="0.5176470588235295" stop-color="#a7a7a7"/>
      <stop offset="0.6901960784313725" stop-color="#dfdbdc"/>
      <stop offset="1.0" stop-color="#332f30"/>
    </linearGradient>
    <linearGradient gradientTransform="matrix(0.0, -0.0087, 0.001, 0.0, 2.15, 17.15)" gradientUnits="userSpaceOnUse" id="gradient21" spreadMethod="pad" x1="-819.2" x2="819.2">
      <stop offset="0.0" stop-color="#332f30"/>
      <stop offset="0.36470588235294116" stop-color="#dfdbdc"/>
      <stop offset="0.5176470588235295" stop-color="#a7a7a7"/>
      <stop offset="0.6901960784313725" stop-color="#dfdbdc"/>
      <stop offset="1.0" stop-color="#332f30"/>
    </linearGradient>
    <linearGradient gradientTransform="matrix(-0.0017, 0.0, 0.0, -0.0071, 2.1, 19.75)" gradientUnits="userSpaceOnUse" id="gradient22" spreadMethod="pad" x1="-819.2" x2="819.2">
      <stop offset="0.0" stop-color="#332f30"/>
      <stop offset="0.36470588235294116" stop-color="#dfdbdc"/>
      <stop offset="0.5176470588235295" stop-color="#a7a7a7"/>
      <stop offset="0.6901960784313725" stop-color="#dfdbdc"/>
      <stop offset="1.0" stop-color="#332f30"/>
    </linearGradient>
    <linearGradient gradientTransform="matrix(-0.0017, 0.0, 0.0, -0.007, -1.9, 20.4)" gradientUnits="userSpaceOnUse" id="gradient23" spreadMethod="pad" x1="-819.2" x2="819.2">
      <stop offset="0.0" stop-color="#332f30"/>
      <stop offset="0.36470588235294116" stop-color="#dfdbdc"/>
      <stop offset="0.5176470588235295" stop-color="#a7a7a7"/>
      <stop offset="0.6901960784313725" stop-color="#dfdbdc"/>
      <stop offset="1.0" stop-color="#332f30"/>
    </linearGradient>
    <linearGradient gradientTransform="matrix(0.0, -0.0096, 0.0012, -1.0E-4, -2.8, 23.7)" gradientUnits="userSpaceOnUse" id="gradient24" spreadMethod="pad" x1="-819.2" x2="819.2">
      <stop offset="0.0" stop-color="#332f30"/>
      <stop offset="0.36470588235294116" stop-color="#dfdbdc"/>
      <stop offset="0.5176470588235295" stop-color="#a7a7a7"/>
      <stop offset="0.6901960784313725" stop-color="#dfdbdc"/>
      <stop offset="1.0" stop-color="#332f30"/>
    </linearGradient>
    <linearGradient gradientTransform="matrix(-0.0013, 0.0, 0.0, -0.007, -1.9, 20.05)" gradientUnits="userSpaceOnUse" id="gradient25" spreadMethod="pad" x1="-819.2" x2="819.2">
      <stop offset="0.0" stop-color="#332f30"/>
      <stop offset="0.36470588235294116" stop-color="#dfdbdc"/>
      <stop offset="0.5176470588235295" stop-color="#a7a7a7"/>
      <stop offset="0.6901960784313725" stop-color="#dfdbdc"/>
      <stop offset="1.0" stop-color="#332f30"/>
    </linearGradient>
    <linearGradient gradientTransform="matrix(0.0, -0.0087, 0.001, 0.0, -1.85, 17.15)" gradientUnits="userSpaceOnUse" id="gradient26" spreadMethod="pad" x1="-819.2" x2="819.2">
      <stop offset="0.0" stop-color="#332f30"/>
      <stop offset="0.36470588235294116" stop-color="#dfdbdc"/>
      <stop offset="0.5176470588235295" stop-color="#a7a7a7"/>
      <stop offset="0.6901960784313725" stop-color="#dfdbdc"/>
      <stop offset="1.0" stop-color="#332f30"/>
    </linearGradient>
    <linearGradient gradientTransform="matrix(-0.0017, 0.0, 0.0, -0.0071, -1.9, 19.75)" gradientUnits="userSpaceOnUse" id="gradient27" spreadMethod="pad" x1="-819.2" x2="819.2">
      <stop offset="0.0" stop-color="#332f30"/>
      <stop offset="0.36470588235294116" stop-color="#dfdbdc"/>
      <stop offset="0.5176470588235295" stop-color="#a7a7a7"/>
      <stop offset="0.6901960784313725" stop-color="#dfdbdc"/>
      <stop offset="1.0" stop-color="#332f30"/>
    </linearGradient>
  </defs>
</svg>
