<?xml version="1.0" encoding="UTF-8" standalone="no"?>
<svg xmlns:xlink="http://www.w3.org/1999/xlink" height="20.95px" width="11.7px" xmlns="http://www.w3.org/2000/svg">
  <g transform="matrix(1, 0, 0, 1, -0.35, 8.9)">
    <path d="M10.0 11.8 L9.1 11.55 9.1 -8.55 10.0 -8.8 10.0 11.8" fill="#cb9b6b" fill-rule="evenodd" stroke="none"/>
    <path d="M9.1 11.55 L9.0 11.55 9.0 -8.55 9.1 -8.55 9.1 11.55" fill="#7c542c" fill-rule="evenodd" stroke="none"/>
    <path d="M10.15 -8.8 L10.65 -8.75 10.65 11.7 10.15 11.8 10.15 -8.8 M10.85 -8.75 L11.4 -8.65 11.4 11.55 10.85 11.6 10.85 -8.75 M11.6 -8.55 L12.05 -8.45 12.05 11.35 11.6 11.45 11.6 -8.55" fill="#333333" fill-rule="evenodd" stroke="none"/>
    <path d="M10.0 -8.8 L10.15 -8.8 10.15 11.8 10.0 11.8 10.0 -8.8 M10.65 -8.75 L10.85 -8.75 10.85 11.6 10.65 11.7 10.65 -8.75 M11.4 -8.65 L11.6 -8.55 11.6 11.45 11.4 11.55 11.4 -8.65" fill="#999999" fill-rule="evenodd" stroke="none"/>
    <path d="M2.4 -8.75 L2.4 11.9 1.9 11.8 1.9 -8.65 2.4 -8.75 M1.7 -8.65 L1.7 11.7 1.15 11.6 1.15 -8.55 1.7 -8.65 M0.95 11.55 L0.5 11.45 0.5 -8.4 0.95 -8.45 0.95 11.55" fill="#666666" fill-rule="evenodd" stroke="none"/>
    <path d="M2.4 -8.75 L2.55 -8.75 2.55 11.9 2.4 11.9 2.4 -8.75 M1.9 -8.65 L1.9 11.8 1.7 11.7 1.7 -8.65 1.9 -8.65 M0.95 11.55 L0.95 -8.45 1.15 -8.55 1.15 11.6 0.95 11.55" fill="#999999" fill-rule="evenodd" stroke="none"/>
    <path d="M3.45 -8.45 L3.55 -8.45 3.55 11.6 3.45 11.6 3.45 -8.45" fill="#7c542c" fill-rule="evenodd" stroke="none"/>
    <path d="M2.55 11.9 L2.55 -8.75 3.45 -8.45 3.45 11.6 2.55 11.9" fill="#cb9b6b" fill-rule="evenodd" stroke="none"/>
    <path d="M8.65 -8.05 L6.8 -8.05 6.8 11.45 8.65 11.45 8.65 12.05 6.45 12.05 6.45 -8.9 8.65 -8.9 8.65 -8.05 M9.0 -8.9 L11.05 -8.8 11.05 11.95 10.7 11.95 10.5 12.05 9.0 12.05 9.0 -8.9 M3.9 -8.9 L6.0 -8.9 6.0 12.05 3.9 12.05 3.9 -8.9 M3.5 12.05 L1.5 12.05 1.5 -8.9 3.5 -8.9 3.5 12.05 M1.95 -8.05 L1.95 11.45 3.35 11.45 3.35 -8.05 1.95 -8.05 M3.95 -8.05 L3.95 11.45 5.9 11.45 5.9 -8.05 3.95 -8.05 M9.2 -8.05 L9.2 11.45 10.7 11.45 10.7 -8.05 9.2 -8.05" fill="#666666" fill-rule="evenodd" stroke="none"/>
    <path d="M8.65 11.45 L6.8 11.45 6.8 -8.05 8.65 -8.05 8.65 11.45 M9.2 -8.05 L10.7 -8.05 10.7 11.45 9.2 11.45 9.2 -8.05 M3.95 -8.05 L5.9 -8.05 5.9 11.45 3.95 11.45 3.95 -8.05 M1.95 -8.05 L3.35 -8.05 3.35 11.45 1.95 11.45 1.95 -8.05" fill="#e3cab0" fill-rule="evenodd" stroke="none"/>
    <path d="M8.65 -8.05 L8.65 -8.9 9.0 -8.9 9.0 12.05 8.65 12.05 8.65 11.45 8.65 -8.05 M6.45 -8.9 L6.45 12.05 6.0 12.05 6.0 -8.9 6.45 -8.9 M3.5 -8.9 L3.9 -8.9 3.9 12.05 3.5 12.05 3.5 -8.9" fill="#333333" fill-rule="evenodd" stroke="none"/>
    <path d="M12.05 8.45 L12.05 9.3 0.5 9.3 0.5 8.45 12.05 8.45" fill="#2e231b" fill-rule="evenodd" stroke="none"/>
    <path d="M12.05 1.0 L12.05 1.85 0.35 1.85 0.35 1.0 12.05 1.0" fill="#2e231b" fill-rule="evenodd" stroke="none"/>
    <path d="M12.05 -5.25 L0.35 -5.25 0.35 -6.1 12.05 -6.1 12.05 -5.25" fill="#2e231b" fill-rule="evenodd" stroke="none"/>
  </g>
</svg>
