<?xml version="1.0" encoding="UTF-8" standalone="no"?>
<svg xmlns:xlink="http://www.w3.org/1999/xlink" height="12.05px" width="11.55px" xmlns="http://www.w3.org/2000/svg">
  <g transform="matrix(1, 0, 0, 1, -0.5, 0.0)">
    <path d="M10.15 0.05 L10.65 0.1 10.65 11.85 10.15 11.9 10.15 0.05 M10.85 0.1 L11.4 0.15 11.4 11.75 10.85 11.8 10.85 0.1 M11.6 0.2 L12.05 0.25 12.05 11.65 11.6 11.7 11.6 0.2" fill="#663300" fill-rule="evenodd" stroke="none"/>
    <path d="M10.65 0.1 L10.85 0.1 10.85 11.8 10.65 11.85 10.65 0.1 M11.4 0.15 L11.6 0.2 11.6 11.7 11.4 11.75 11.4 0.15 M10.15 11.9 L10.0 11.9 10.0 0.05 10.15 0.05 10.15 11.9 M9.1 11.75 L9.0 11.75 9.0 0.2 9.1 0.2 9.1 11.75" fill="#7c542c" fill-rule="evenodd" stroke="none"/>
    <path d="M10.0 11.9 L9.1 11.75 9.1 0.2 10.0 0.05 10.0 11.9" fill="#cb9b6b" fill-rule="evenodd" stroke="none"/>
    <path d="M1.15 0.2 L1.7 0.15 1.7 11.85 1.15 11.8 1.15 0.2 M1.9 0.15 L2.4 0.1 2.4 11.95 1.9 11.9 1.9 0.15 M0.95 0.25 L0.95 11.75 0.5 11.7 0.5 0.3 0.95 0.25" fill="#663300" fill-rule="evenodd" stroke="none"/>
    <path d="M1.15 0.2 L1.15 11.8 0.95 11.75 0.95 0.25 1.15 0.2 M1.7 11.85 L1.7 0.15 1.9 0.15 1.9 11.9 1.7 11.85 M2.4 0.1 L2.55 0.1 2.55 11.95 2.4 11.95 2.4 0.1 M3.45 0.25 L3.55 0.25 3.55 11.8 3.45 11.8 3.45 0.25" fill="#7c542c" fill-rule="evenodd" stroke="none"/>
    <path d="M2.55 0.1 L3.45 0.25 3.45 11.8 2.55 11.95 2.55 0.1" fill="#cb9b6b" fill-rule="evenodd" stroke="none"/>
    <path d="M10.7 0.5 L10.7 11.7 9.2 11.7 9.2 0.5 10.7 0.5 M8.65 11.7 L6.8 11.7 6.8 0.5 8.65 0.5 8.65 11.7 M1.95 0.5 L3.35 0.5 3.35 11.7 1.95 11.7 1.95 0.5 M5.9 11.7 L3.95 11.7 3.95 0.5 5.9 0.5 5.9 11.7" fill="#cb9b6b" fill-rule="evenodd" stroke="none"/>
    <path d="M9.0 0.0 L11.05 0.05 11.05 12.0 10.7 12.0 10.5 12.05 9.0 12.05 9.0 0.0 M8.65 12.05 L6.45 12.05 6.45 0.0 8.65 0.0 8.65 0.5 6.8 0.5 6.8 11.7 8.65 11.7 8.65 12.05 M6.0 12.05 L3.9 12.05 3.9 0.0 6.0 0.0 6.0 12.05 M3.5 12.05 L1.5 12.05 1.5 0.0 3.5 0.0 3.5 12.05 M10.7 0.5 L9.2 0.5 9.2 11.7 10.7 11.7 10.7 0.5 M1.95 0.5 L1.95 11.7 3.35 11.7 3.35 0.5 1.95 0.5 M5.9 11.7 L5.9 0.5 3.95 0.5 3.95 11.7 5.9 11.7" fill="#7c542c" fill-rule="evenodd" stroke="none"/>
    <path d="M9.0 12.05 L8.65 12.05 8.65 11.7 8.65 0.5 8.65 0.0 9.0 0.0 9.0 12.05 M6.45 12.05 L6.0 12.05 6.0 0.0 6.45 0.0 6.45 12.05 M3.9 12.05 L3.5 12.05 3.5 0.0 3.9 0.0 3.9 12.05" fill="#663300" fill-rule="evenodd" stroke="none"/>
    <path d="M10.6 10.25 L10.6 11.1 2.0 11.1 2.0 10.25 10.6 10.25" fill="#2e231b" fill-rule="evenodd" stroke="none"/>
    <path d="M10.6 1.1 L10.6 1.95 2.0 1.95 2.0 1.1 10.6 1.1" fill="#2e231b" fill-rule="evenodd" stroke="none"/>
  </g>
</svg>
