<?xml version="1.0" encoding="UTF-8" standalone="no"?>
<svg xmlns:xlink="http://www.w3.org/1999/xlink" height="62.1px" width="28.4px" xmlns="http://www.w3.org/2000/svg">
  <g transform="matrix(1, 0, 0, 1, 14.65, 2.95)">
    <path d="M-14.65 -0.45 L-14.65 -1.75 13.6 -1.75 13.6 -0.45 -14.65 -0.45" fill="#797576" fill-rule="evenodd" stroke="none"/>
    <path d="M-14.65 -0.45 L13.6 -0.45 13.6 0.3 -14.65 0.3 -14.65 -0.45" fill="#a7a7a7" fill-rule="evenodd" stroke="none"/>
    <path d="M10.95 28.5 L-11.2 28.5 -11.2 26.25 10.95 26.25 10.95 28.5" fill="#262425" fill-rule="evenodd" stroke="none"/>
    <path d="M10.95 28.5 L10.95 29.45 -11.2 29.45 -11.2 28.5 10.95 28.5" fill="#5b5758" fill-rule="evenodd" stroke="none"/>
    <path d="M-14.65 26.65 L13.6 26.65 13.6 27.45 -14.65 27.45 -14.65 26.65" fill="#a7a7a7" fill-rule="evenodd" stroke="none"/>
    <path d="M-14.65 26.65 L-14.65 25.4 13.6 25.4 13.6 26.65 -14.65 26.65" fill="#797576" fill-rule="evenodd" stroke="none"/>
    <path d="M10.95 20.85 L-11.2 20.85 -11.2 19.3 10.95 19.3 10.95 20.85" fill="#262425" fill-rule="evenodd" stroke="none"/>
    <path d="M10.95 20.85 L10.95 21.5 -11.2 21.5 -11.2 20.85 10.95 20.85" fill="#5b5758" fill-rule="evenodd" stroke="none"/>
    <path d="M10.95 6.3 L-11.2 6.3 -11.2 4.75 10.95 4.75 10.95 6.3" fill="#262425" fill-rule="evenodd" stroke="none"/>
    <path d="M10.95 6.3 L10.95 6.95 -11.2 6.95 -11.2 6.3 10.95 6.3" fill="#5b5758" fill-rule="evenodd" stroke="none"/>
    <path d="M6.15 -2.1 L-6.5 -2.1 -6.5 -2.95 6.15 -2.95 6.15 -2.1" fill="#5b5758" fill-rule="evenodd" stroke="none"/>
    <path d="M6.15 -2.1 L6.15 -0.1 -6.5 -0.1 -6.5 -2.1 6.15 -2.1" fill="#a7a7a7" fill-rule="evenodd" stroke="none"/>
    <path d="M5.75 -2.2 L5.75 25.5 4.65 25.5 4.65 -2.2 5.75 -2.2" fill="#a7a7a7" fill-rule="evenodd" stroke="none"/>
    <path d="M5.75 -2.2 L6.2 -2.2 6.2 25.5 5.75 25.5 5.75 -2.2" fill="#5b5758" fill-rule="evenodd" stroke="none"/>
    <path d="M-6.25 -2.2 L-6.25 25.5 -6.7 25.5 -6.7 -2.2 -6.25 -2.2" fill="#5b5758" fill-rule="evenodd" stroke="none"/>
    <path d="M-6.25 -2.2 L-5.15 -2.2 -5.15 25.5 -6.25 25.5 -6.25 -2.2" fill="#a7a7a7" fill-rule="evenodd" stroke="none"/>
    <path d="M4.65 20.35 L4.05 20.35 4.05 24.25 -4.55 24.25 -4.55 20.35 -5.05 20.35 -5.05 19.45 -4.55 19.45 -4.55 17.8 4.05 17.8 4.05 19.45 4.65 19.45 4.65 20.35 M1.0 20.35 L1.0 19.45 -1.85 19.45 -1.85 20.35 1.0 20.35" fill="url(#gradient0)" fill-rule="evenodd" stroke="none"/>
    <path d="M1.0 20.35 L-1.85 20.35 -1.85 19.45 1.0 19.45 1.0 20.35 M4.05 24.25 L4.05 20.35 4.65 20.35 4.65 24.25 4.05 24.25 M4.65 19.45 L4.05 19.45 4.05 17.8 -4.55 17.8 -4.55 19.45 -5.05 19.45 -5.05 17.2 4.65 17.2 4.65 19.45 M-5.05 20.35 L-4.55 20.35 -4.55 24.25 -5.05 24.25 -5.05 20.35" fill="#5a5657" fill-rule="evenodd" stroke="none"/>
    <path d="M-4.55 24.25 L4.05 24.25 4.65 24.25 4.65 25.45 -5.05 25.45 -5.05 24.25 -4.55 24.25" fill="#3f3b3c" fill-rule="evenodd" stroke="none"/>
    <path d="M4.45 7.1 L3.85 7.1 3.85 10.6 -4.75 10.6 -4.75 7.1 -5.3 7.1 -5.3 6.3 -4.75 6.3 -4.75 4.85 3.85 4.85 3.85 6.3 4.45 6.3 4.45 7.1 M0.75 7.1 L0.75 6.3 -2.05 6.3 -2.05 7.1 0.75 7.1" fill="url(#gradient1)" fill-rule="evenodd" stroke="none"/>
    <path d="M3.85 10.6 L3.85 7.1 4.45 7.1 4.45 10.6 3.85 10.6 M4.45 6.3 L3.85 6.3 3.85 4.85 -4.75 4.85 -4.75 6.3 -5.3 6.3 -5.3 4.3 4.45 4.3 4.45 6.3 M-5.3 7.1 L-4.75 7.1 -4.75 10.6 -5.3 10.6 -5.3 7.1 M0.75 7.1 L-2.05 7.1 -2.05 6.3 0.75 6.3 0.75 7.1" fill="#5a5657" fill-rule="evenodd" stroke="none"/>
    <path d="M-4.75 10.6 L3.85 10.6 4.45 10.6 4.45 11.65 -5.3 11.65 -5.3 10.6 -4.75 10.6" fill="#3f3b3c" fill-rule="evenodd" stroke="none"/>
    <path d="M-4.65 1.3 L-5.15 1.3 -5.15 -0.15 4.55 -0.15 4.55 1.3 3.95 1.3 3.95 0.25 -4.65 0.25 -4.65 1.3 M-5.15 1.9 L-4.65 1.9 -4.65 4.35 -5.15 4.35 -5.15 1.9 M3.95 4.35 L3.95 1.9 4.55 1.9 4.55 4.35 3.95 4.35" fill="#5a5657" fill-rule="evenodd" stroke="none"/>
    <path d="M-1.95 1.3 L-1.95 1.9 -4.65 1.9 -5.15 1.9 -5.15 1.3 -4.65 1.3 -1.95 1.3 M0.9 1.9 L0.9 1.3 3.95 1.3 4.55 1.3 4.55 1.9 3.95 1.9 0.9 1.9 M-4.65 4.35 L3.95 4.35 4.55 4.35 4.55 5.1 -5.15 5.1 -5.15 4.35 -4.65 4.35" fill="#3f3b3c" fill-rule="evenodd" stroke="none"/>
    <path d="M-1.95 1.3 L-4.65 1.3 -4.65 0.25 3.95 0.25 3.95 1.3 0.9 1.3 -1.95 1.3 M-4.65 1.9 L-1.95 1.9 0.9 1.9 3.95 1.9 3.95 4.35 -4.65 4.35 -4.65 1.9" fill="url(#gradient2)" fill-rule="evenodd" stroke="none"/>
    <path d="M-1.95 1.9 L-1.95 1.3 0.9 1.3 0.9 1.9 -1.95 1.9" fill="#b2aeaf" fill-rule="evenodd" stroke="none"/>
    <path d="M-5.8 14.3 L-5.8 12.5 5.1 12.5 5.1 14.3 -5.8 14.3" fill="url(#gradient3)" fill-rule="evenodd" stroke="none"/>
    <path d="M-5.8 12.5 L-5.8 11.95 5.1 11.95 5.1 12.5 -5.8 12.5" fill="url(#gradient4)" fill-rule="evenodd" stroke="none"/>
    <path d="M5.1 17.6 L5.1 18.1 -5.8 18.1 -5.8 17.6 5.1 17.6" fill="url(#gradient5)" fill-rule="evenodd" stroke="none"/>
    <path d="M5.1 15.95 L5.1 17.6 -5.8 17.6 -5.8 15.95 5.1 15.95" fill="url(#gradient6)" fill-rule="evenodd" stroke="none"/>
    <path d="M5.1 14.3 L5.1 15.95 -5.8 15.95 -5.8 14.3 5.1 14.3" fill="url(#gradient7)" fill-rule="evenodd" stroke="none"/>
    <path d="M-1.95 8.9 L-1.95 7.7 1.3 7.7 1.3 8.9 -1.95 8.9" fill="url(#gradient8)" fill-rule="evenodd" stroke="none"/>
    <path d="M-1.95 7.7 L-1.95 7.35 1.3 7.35 1.3 7.7 -1.95 7.7" fill="url(#gradient9)" fill-rule="evenodd" stroke="none"/>
    <path d="M1.3 11.0 L1.3 11.3 -1.95 11.3 -1.95 11.0 1.3 11.0" fill="url(#gradient10)" fill-rule="evenodd" stroke="none"/>
    <path d="M1.3 9.95 L1.3 11.0 -1.95 11.0 -1.95 9.95 1.3 9.95" fill="url(#gradient11)" fill-rule="evenodd" stroke="none"/>
    <path d="M1.3 8.9 L1.3 9.95 -1.95 9.95 -1.95 8.9 1.3 8.9" fill="url(#gradient12)" fill-rule="evenodd" stroke="none"/>
    <path d="M-1.95 6.1 L-1.95 5.4 1.3 5.4 1.3 6.1 -1.95 6.1" fill="url(#gradient13)" fill-rule="evenodd" stroke="none"/>
    <path d="M-1.95 5.4 L-1.95 4.65 1.3 4.65 1.3 5.4 -1.95 5.4" fill="url(#gradient14)" fill-rule="evenodd" stroke="none"/>
    <path d="M-1.95 4.65 L-1.95 3.85 1.3 3.85 1.3 4.65 -1.95 4.65" fill="url(#gradient15)" fill-rule="evenodd" stroke="none"/>
    <path d="M-1.95 3.85 L-1.95 3.65 1.3 3.65 1.3 3.85 -1.95 3.85" fill="url(#gradient16)" fill-rule="evenodd" stroke="none"/>
    <path d="M1.3 6.1 L1.3 6.35 -1.95 6.35 -1.95 6.1 1.3 6.1" fill="url(#gradient17)" fill-rule="evenodd" stroke="none"/>
    <path d="M-3.15 18.55 L-0.7 18.55 -0.7 20.85 -3.15 20.85 -3.15 18.55" fill="url(#gradient18)" fill-rule="evenodd" stroke="none"/>
    <path d="M-0.7 18.55 L-3.15 18.55 -3.15 17.9 -0.7 17.9 -0.7 18.55" fill="url(#gradient19)" fill-rule="evenodd" stroke="none"/>
    <path d="M-3.15 20.85 L-0.7 20.85 -0.7 22.9 -3.15 22.9 -3.15 20.85" fill="url(#gradient20)" fill-rule="evenodd" stroke="none"/>
    <path d="M-0.7 22.9 L-0.7 25.0 -3.15 25.0 -3.15 22.9 -0.7 22.9" fill="url(#gradient21)" fill-rule="evenodd" stroke="none"/>
    <path d="M-0.7 25.0 L-0.7 25.65 -3.15 25.65 -3.15 25.0 -0.7 25.0" fill="url(#gradient22)" fill-rule="evenodd" stroke="none"/>
    <path d="M0.35 18.55 L2.8 18.55 2.8 20.85 0.35 20.85 0.35 18.55" fill="url(#gradient23)" fill-rule="evenodd" stroke="none"/>
    <path d="M2.8 18.55 L0.35 18.55 0.35 17.9 2.8 17.9 2.8 18.55" fill="url(#gradient24)" fill-rule="evenodd" stroke="none"/>
    <path d="M0.35 20.85 L2.8 20.85 2.8 22.9 0.35 22.9 0.35 20.85" fill="url(#gradient25)" fill-rule="evenodd" stroke="none"/>
    <path d="M2.8 22.9 L2.8 25.0 0.35 25.0 0.35 22.9 2.8 22.9" fill="url(#gradient26)" fill-rule="evenodd" stroke="none"/>
    <path d="M2.8 25.0 L2.8 25.65 0.35 25.65 0.35 25.0 2.8 25.0" fill="url(#gradient27)" fill-rule="evenodd" stroke="none"/>
    <path d="M7.1 43.35 L7.25 43.3 7.8 43.25 13.0 43.25 13.5 43.35 13.55 43.35 13.6 43.45 13.6 43.5 13.75 43.95 13.75 57.45 13.6 57.65 13.35 57.75 13.25 57.8 7.15 57.8 7.05 57.75 6.95 57.55 6.85 57.25 6.85 44.4 6.95 43.6 7.1 43.35" fill="url(#gradient28)" fill-rule="evenodd" stroke="none"/>
    <path d="M11.5 55.05 L11.5 54.45 9.3 54.45 9.3 54.2 6.7 54.2 6.7 53.95 12.3 53.95 Q13.35 54.8 12.3 55.05 L11.5 55.05" fill="#6d6f5e" fill-rule="evenodd" stroke="none"/>
    <path d="M9.3 54.45 L11.5 54.45 11.5 55.05 9.3 55.05 9.3 54.45" fill="#c4c5ba" fill-rule="evenodd" stroke="none"/>
    <path d="M6.7 54.2 L9.3 54.2 9.3 54.45 9.3 55.05 6.7 55.05 6.7 54.2" fill="#ffffff" fill-rule="evenodd" stroke="none"/>
    <path d="M-13.65 43.7 L-13.35 43.3 -12.9 43.25 -7.1 43.25 -6.85 43.35 -6.8 43.45 -6.7 43.6 -6.65 44.05 -6.65 57.3 -6.75 57.5 -6.8 57.6 -7.25 57.8 -12.7 57.8 -12.9 57.75 -13.4 57.65 -13.45 57.6 -13.65 56.9 -13.65 43.7" fill="url(#gradient29)" fill-rule="evenodd" stroke="none"/>
    <path d="M-11.45 55.05 L-11.45 54.45 -9.2 54.45 -9.2 55.05 -11.45 55.05" fill="#c4c5ba" fill-rule="evenodd" stroke="none"/>
    <path d="M-9.2 54.45 L-9.2 54.2 -6.6 54.2 -6.6 55.05 -9.2 55.05 -9.2 54.45" fill="#ffffff" fill-rule="evenodd" stroke="none"/>
    <path d="M-11.45 55.05 L-12.25 55.05 Q-13.3 54.8 -12.25 53.95 L-6.6 53.95 -6.6 54.2 -9.2 54.2 -9.2 54.45 -11.45 54.45 -11.45 55.05" fill="#6d6f5e" fill-rule="evenodd" stroke="none"/>
    <path d="M-8.85 57.15 L-8.85 59.15 -11.3 59.15 -11.3 57.15 -8.85 57.15" fill="#ffff99" fill-rule="evenodd" stroke="none"/>
    <path d="M-11.3 57.15 L-11.3 56.1 -8.85 56.1 -8.85 57.15 -11.3 57.15" fill="#ff9900" fill-rule="evenodd" stroke="none"/>
    <path d="M11.45 57.15 L9.1 57.15 9.1 56.1 11.45 56.1 11.45 57.15" fill="#ff9900" fill-rule="evenodd" stroke="none"/>
    <path d="M9.1 57.15 L11.45 57.15 11.45 59.15 9.1 59.15 9.1 57.15" fill="#ffff99" fill-rule="evenodd" stroke="none"/>
    <path d="M-6.05 57.35 L-7.35 57.3 -9.85 44.5 10.05 44.5 7.5 57.3 6.2 57.35 6.2 57.1 -6.05 57.1 -6.05 57.35 M8.6 45.45 L-0.6 45.85 -8.55 45.45 -5.85 56.65 5.85 56.65 8.6 45.45" fill="#392e25" fill-rule="evenodd" stroke="none"/>
    <path d="M6.2 57.35 L6.2 57.9 -6.05 57.9 -6.05 57.35 -6.05 57.1 6.2 57.1 6.2 57.35" fill="#8d7e58" fill-rule="evenodd" stroke="none"/>
    <path d="M6.2 57.9 L6.2 58.25 -0.85 58.5 -0.85 58.4 -6.05 58.25 -6.05 57.9 6.2 57.9" fill="#2c3023" fill-rule="evenodd" stroke="none"/>
    <path d="M8.6 45.45 L5.85 56.65 -5.85 56.65 -8.55 45.45 -0.6 45.85 8.6 45.45" fill="url(#gradient30)" fill-rule="evenodd" stroke="none"/>
    <path d="M-3.65 57.55 L-7.25 57.55 -7.7 55.2 -6.85 55.1 Q-5.5 55.1 -4.6 55.8 -3.65 56.5 -3.65 57.45 L-3.65 57.55" fill="url(#gradient31)" fill-rule="evenodd" stroke="none"/>
    <path d="M4.15 57.55 L4.15 57.45 Q4.15 56.5 5.1 55.8 6.0 55.1 7.35 55.1 L8.2 55.2 7.75 57.55 4.15 57.55" fill="url(#gradient32)" fill-rule="evenodd" stroke="none"/>
    <path d="M9.9 45.55 L-9.6 45.55 -9.6 30.65 9.9 30.65 9.9 45.55" fill="#272019" fill-rule="evenodd" stroke="none"/>
    <path d="M-9.6 45.55 L-10.85 45.55 -10.85 34.0 -11.9 29.25 12.45 29.25 11.2 34.0 11.2 45.55 9.9 45.55 9.9 30.65 -9.6 30.65 -9.6 45.55" fill="#43372c" fill-rule="evenodd" stroke="none"/>
    <path d="M5.3 40.1 L5.75 43.05 2.55 43.05 2.1 40.1 5.3 40.1 M0.35 43.05 L0.55 45.55 -4.0 45.55 -4.35 43.05 0.35 43.05" fill="#999999" fill-rule="evenodd" stroke="none"/>
    <path d="M5.75 43.05 L5.3 40.1 8.2 40.1 8.2 45.55 6.1 45.55 5.75 43.05 M2.1 40.1 L2.55 43.05 2.95 45.55 0.55 45.55 0.35 43.05 -0.05 40.1 2.1 40.1 M-8.1 45.55 L-8.1 40.1 -4.8 40.1 -4.35 43.05 -4.0 45.55 -8.1 45.55" fill="#666666" fill-rule="evenodd" stroke="none"/>
    <path d="M5.3 40.1 L2.1 40.1 -0.05 40.1 -4.8 40.1 -8.1 40.1 -8.1 45.55 -9.2 45.55 -9.2 38.1 9.3 38.1 9.3 45.55 8.2 45.55 8.2 40.1 5.3 40.1" fill="#333333" fill-rule="evenodd" stroke="none"/>
    <path d="M2.55 43.05 L5.75 43.05 6.1 45.55 2.95 45.55 2.55 43.05 M-4.8 40.1 L-0.05 40.1 0.35 43.05 -4.35 43.05 -4.8 40.1" fill="#cccccc" fill-rule="evenodd" stroke="none"/>
    <path d="M1.55 37.65 L1.55 36.35 3.05 36.35 3.05 37.65 1.55 37.65 M0.95 37.65 L-0.55 37.65 -0.55 36.35 0.95 36.35 0.95 37.65 M-1.15 37.65 L-2.65 37.65 -2.65 36.35 -1.15 36.35 -1.15 37.65" fill="#ff9900" fill-rule="evenodd" stroke="none"/>
    <path d="M-6.25 36.55 L-4.75 36.55 -4.75 37.65 -6.25 37.65 -6.25 36.55" fill="#ffff66" fill-rule="evenodd" stroke="none"/>
    <path d="M-4.75 36.55 L-6.25 36.55 -6.25 34.2 -4.75 34.2 -4.75 36.55" fill="#ff9900" fill-rule="evenodd" stroke="none"/>
    <path d="M5.3 36.55 L6.8 36.55 6.8 37.45 5.3 37.45 5.3 36.55" fill="#ffff66" fill-rule="evenodd" stroke="none"/>
    <path d="M6.8 36.55 L5.3 36.55 5.3 34.0 6.8 34.0 6.8 36.55" fill="#ff9900" fill-rule="evenodd" stroke="none"/>
  </g>
  <defs>
    <linearGradient gradientTransform="matrix(0.0, -0.0078, 0.0036, 0.0, -0.95, 24.85)" gradientUnits="userSpaceOnUse" id="gradient0" spreadMethod="pad" x1="-819.2" x2="819.2">
      <stop offset="0.0" stop-color="#332f30"/>
      <stop offset="0.36470588235294116" stop-color="#dfdbdc"/>
      <stop offset="0.5176470588235295" stop-color="#a7a7a7"/>
      <stop offset="0.6901960784313725" stop-color="#dfdbdc"/>
      <stop offset="1.0" stop-color="#332f30"/>
    </linearGradient>
    <linearGradient gradientTransform="matrix(0.0, -0.0226, 0.0036, 0.0, -0.95, 24.75)" gradientUnits="userSpaceOnUse" id="gradient1" spreadMethod="pad" x1="-819.2" x2="819.2">
      <stop offset="0.0" stop-color="#332f30"/>
      <stop offset="0.36470588235294116" stop-color="#dfdbdc"/>
      <stop offset="0.5176470588235295" stop-color="#a7a7a7"/>
      <stop offset="0.6901960784313725" stop-color="#dfdbdc"/>
      <stop offset="1.0" stop-color="#332f30"/>
    </linearGradient>
    <linearGradient gradientTransform="matrix(0.0, -0.0162, 0.0036, 0.0, -0.65, 12.05)" gradientUnits="userSpaceOnUse" id="gradient2" spreadMethod="pad" x1="-819.2" x2="819.2">
      <stop offset="0.0" stop-color="#332f30"/>
      <stop offset="0.36470588235294116" stop-color="#dfdbdc"/>
      <stop offset="0.5176470588235295" stop-color="#a7a7a7"/>
      <stop offset="0.6901960784313725" stop-color="#dfdbdc"/>
      <stop offset="1.0" stop-color="#332f30"/>
    </linearGradient>
    <linearGradient gradientTransform="matrix(0.0067, 0.0, 0.0, 0.0049, -0.35, 15.15)" gradientUnits="userSpaceOnUse" id="gradient3" spreadMethod="pad" x1="-819.2" x2="819.2">
      <stop offset="0.0" stop-color="#332f30"/>
      <stop offset="0.36470588235294116" stop-color="#dfdbdc"/>
      <stop offset="0.5176470588235295" stop-color="#a7a7a7"/>
      <stop offset="0.6901960784313725" stop-color="#dfdbdc"/>
      <stop offset="1.0" stop-color="#332f30"/>
    </linearGradient>
    <linearGradient gradientTransform="matrix(0.0, 0.006, -0.0038, 0.0, -0.7, 16.95)" gradientUnits="userSpaceOnUse" id="gradient4" spreadMethod="pad" x1="-819.2" x2="819.2">
      <stop offset="0.0" stop-color="#332f30"/>
      <stop offset="0.36470588235294116" stop-color="#dfdbdc"/>
      <stop offset="0.5176470588235295" stop-color="#a7a7a7"/>
      <stop offset="0.6901960784313725" stop-color="#dfdbdc"/>
      <stop offset="1.0" stop-color="#332f30"/>
    </linearGradient>
    <linearGradient gradientTransform="matrix(1.0E-4, 0.0067, -0.0047, 1.0E-4, 3.2, 12.4)" gradientUnits="userSpaceOnUse" id="gradient5" spreadMethod="pad" x1="-819.2" x2="819.2">
      <stop offset="0.0" stop-color="#332f30"/>
      <stop offset="0.36470588235294116" stop-color="#dfdbdc"/>
      <stop offset="0.5176470588235295" stop-color="#a7a7a7"/>
      <stop offset="0.6901960784313725" stop-color="#dfdbdc"/>
      <stop offset="1.0" stop-color="#332f30"/>
    </linearGradient>
    <linearGradient gradientTransform="matrix(0.0067, 0.0, 0.0, 0.0048, -0.35, 14.7)" gradientUnits="userSpaceOnUse" id="gradient6" spreadMethod="pad" x1="-819.2" x2="819.2">
      <stop offset="0.0" stop-color="#332f30"/>
      <stop offset="0.36470588235294116" stop-color="#dfdbdc"/>
      <stop offset="0.5176470588235295" stop-color="#a7a7a7"/>
      <stop offset="0.6901960784313725" stop-color="#dfdbdc"/>
      <stop offset="1.0" stop-color="#332f30"/>
    </linearGradient>
    <linearGradient gradientTransform="matrix(0.005, 0.0, 0.0, 0.0049, -0.35, 14.95)" gradientUnits="userSpaceOnUse" id="gradient7" spreadMethod="pad" x1="-819.2" x2="819.2">
      <stop offset="0.0" stop-color="#332f30"/>
      <stop offset="0.36470588235294116" stop-color="#dfdbdc"/>
      <stop offset="0.5176470588235295" stop-color="#a7a7a7"/>
      <stop offset="0.6901960784313725" stop-color="#dfdbdc"/>
      <stop offset="1.0" stop-color="#332f30"/>
    </linearGradient>
    <linearGradient gradientTransform="matrix(0.002, 0.0, 0.0, 0.0032, -0.35, 9.4)" gradientUnits="userSpaceOnUse" id="gradient8" spreadMethod="pad" x1="-819.2" x2="819.2">
      <stop offset="0.0" stop-color="#332f30"/>
      <stop offset="0.36470588235294116" stop-color="#dfdbdc"/>
      <stop offset="0.5176470588235295" stop-color="#a7a7a7"/>
      <stop offset="0.6901960784313725" stop-color="#dfdbdc"/>
      <stop offset="1.0" stop-color="#332f30"/>
    </linearGradient>
    <linearGradient gradientTransform="matrix(0.0, 0.0038, -0.0011, 0.0, -0.45, 10.55)" gradientUnits="userSpaceOnUse" id="gradient9" spreadMethod="pad" x1="-819.2" x2="819.2">
      <stop offset="0.0" stop-color="#332f30"/>
      <stop offset="0.36470588235294116" stop-color="#dfdbdc"/>
      <stop offset="0.5176470588235295" stop-color="#a7a7a7"/>
      <stop offset="0.6901960784313725" stop-color="#dfdbdc"/>
      <stop offset="1.0" stop-color="#332f30"/>
    </linearGradient>
    <linearGradient gradientTransform="matrix(0.0, 0.0043, -0.0014, 0.0, 0.75, 7.65)" gradientUnits="userSpaceOnUse" id="gradient10" spreadMethod="pad" x1="-819.2" x2="819.2">
      <stop offset="0.0" stop-color="#332f30"/>
      <stop offset="0.36470588235294116" stop-color="#dfdbdc"/>
      <stop offset="0.5176470588235295" stop-color="#a7a7a7"/>
      <stop offset="0.6901960784313725" stop-color="#dfdbdc"/>
      <stop offset="1.0" stop-color="#332f30"/>
    </linearGradient>
    <linearGradient gradientTransform="matrix(0.002, 0.0, 0.0, 0.0031, -0.35, 9.1)" gradientUnits="userSpaceOnUse" id="gradient11" spreadMethod="pad" x1="-819.2" x2="819.2">
      <stop offset="0.0" stop-color="#332f30"/>
      <stop offset="0.36470588235294116" stop-color="#dfdbdc"/>
      <stop offset="0.5176470588235295" stop-color="#a7a7a7"/>
      <stop offset="0.6901960784313725" stop-color="#dfdbdc"/>
      <stop offset="1.0" stop-color="#332f30"/>
    </linearGradient>
    <linearGradient gradientTransform="matrix(0.0015, 0.0, 0.0, 0.0031, -0.35, 9.3)" gradientUnits="userSpaceOnUse" id="gradient12" spreadMethod="pad" x1="-819.2" x2="819.2">
      <stop offset="0.0" stop-color="#332f30"/>
      <stop offset="0.36470588235294116" stop-color="#dfdbdc"/>
      <stop offset="0.5176470588235295" stop-color="#a7a7a7"/>
      <stop offset="0.6901960784313725" stop-color="#dfdbdc"/>
      <stop offset="1.0" stop-color="#332f30"/>
    </linearGradient>
    <linearGradient gradientTransform="matrix(0.002, 0.0, 0.0, 0.0021, -0.35, 4.8)" gradientUnits="userSpaceOnUse" id="gradient13" spreadMethod="pad" x1="-819.2" x2="819.2">
      <stop offset="0.0" stop-color="#332f30"/>
      <stop offset="0.36470588235294116" stop-color="#dfdbdc"/>
      <stop offset="0.5176470588235295" stop-color="#a7a7a7"/>
      <stop offset="0.6901960784313725" stop-color="#dfdbdc"/>
      <stop offset="1.0" stop-color="#332f30"/>
    </linearGradient>
    <linearGradient gradientTransform="matrix(0.0015, 0.0, 0.0, 0.0021, -0.35, 4.95)" gradientUnits="userSpaceOnUse" id="gradient14" spreadMethod="pad" x1="-819.2" x2="819.2">
      <stop offset="0.0" stop-color="#332f30"/>
      <stop offset="0.36470588235294116" stop-color="#dfdbdc"/>
      <stop offset="0.5176470588235295" stop-color="#a7a7a7"/>
      <stop offset="0.6901960784313725" stop-color="#dfdbdc"/>
      <stop offset="1.0" stop-color="#332f30"/>
    </linearGradient>
    <linearGradient gradientTransform="matrix(0.002, 0.0, 0.0, 0.0022, -0.35, 5.0)" gradientUnits="userSpaceOnUse" id="gradient15" spreadMethod="pad" x1="-819.2" x2="819.2">
      <stop offset="0.0" stop-color="#332f30"/>
      <stop offset="0.36470588235294116" stop-color="#dfdbdc"/>
      <stop offset="0.5176470588235295" stop-color="#a7a7a7"/>
      <stop offset="0.6901960784313725" stop-color="#dfdbdc"/>
      <stop offset="1.0" stop-color="#332f30"/>
    </linearGradient>
    <linearGradient gradientTransform="matrix(0.0, 0.0026, -0.0011, 0.0, -0.45, 5.8)" gradientUnits="userSpaceOnUse" id="gradient16" spreadMethod="pad" x1="-819.2" x2="819.2">
      <stop offset="0.0" stop-color="#332f30"/>
      <stop offset="0.36470588235294116" stop-color="#dfdbdc"/>
      <stop offset="0.5176470588235295" stop-color="#a7a7a7"/>
      <stop offset="0.6901960784313725" stop-color="#dfdbdc"/>
      <stop offset="1.0" stop-color="#332f30"/>
    </linearGradient>
    <linearGradient gradientTransform="matrix(0.0, 0.0029, -0.0014, 0.0, 0.75, 3.8)" gradientUnits="userSpaceOnUse" id="gradient17" spreadMethod="pad" x1="-819.2" x2="819.2">
      <stop offset="0.0" stop-color="#332f30"/>
      <stop offset="0.36470588235294116" stop-color="#dfdbdc"/>
      <stop offset="0.5176470588235295" stop-color="#a7a7a7"/>
      <stop offset="0.6901960784313725" stop-color="#dfdbdc"/>
      <stop offset="1.0" stop-color="#332f30"/>
    </linearGradient>
    <linearGradient gradientTransform="matrix(0.0015, 0.0, 0.0, 0.0062, -1.95, 21.95)" gradientUnits="userSpaceOnUse" id="gradient18" spreadMethod="pad" x1="-819.2" x2="819.2">
      <stop offset="0.0" stop-color="#332f30"/>
      <stop offset="0.36470588235294116" stop-color="#dfdbdc"/>
      <stop offset="0.5176470588235295" stop-color="#a7a7a7"/>
      <stop offset="0.6901960784313725" stop-color="#dfdbdc"/>
      <stop offset="1.0" stop-color="#332f30"/>
    </linearGradient>
    <linearGradient gradientTransform="matrix(0.0, 0.0076, -8.0E-4, 0.0, -2.0, 24.15)" gradientUnits="userSpaceOnUse" id="gradient19" spreadMethod="pad" x1="-819.2" x2="819.2">
      <stop offset="0.0" stop-color="#332f30"/>
      <stop offset="0.36470588235294116" stop-color="#dfdbdc"/>
      <stop offset="0.5176470588235295" stop-color="#a7a7a7"/>
      <stop offset="0.6901960784313725" stop-color="#dfdbdc"/>
      <stop offset="1.0" stop-color="#332f30"/>
    </linearGradient>
    <linearGradient gradientTransform="matrix(0.0011, 0.0, 0.0, 0.0062, -1.95, 21.65)" gradientUnits="userSpaceOnUse" id="gradient20" spreadMethod="pad" x1="-819.2" x2="819.2">
      <stop offset="0.0" stop-color="#332f30"/>
      <stop offset="0.36470588235294116" stop-color="#dfdbdc"/>
      <stop offset="0.5176470588235295" stop-color="#a7a7a7"/>
      <stop offset="0.6901960784313725" stop-color="#dfdbdc"/>
      <stop offset="1.0" stop-color="#332f30"/>
    </linearGradient>
    <linearGradient gradientTransform="matrix(0.0015, 0.0, 0.0, 0.0061, -1.95, 21.35)" gradientUnits="userSpaceOnUse" id="gradient21" spreadMethod="pad" x1="-819.2" x2="819.2">
      <stop offset="0.0" stop-color="#332f30"/>
      <stop offset="0.36470588235294116" stop-color="#dfdbdc"/>
      <stop offset="0.5176470588235295" stop-color="#a7a7a7"/>
      <stop offset="0.6901960784313725" stop-color="#dfdbdc"/>
      <stop offset="1.0" stop-color="#332f30"/>
    </linearGradient>
    <linearGradient gradientTransform="matrix(0.0, 0.0084, -0.0011, 1.0E-4, -1.15, 18.4)" gradientUnits="userSpaceOnUse" id="gradient22" spreadMethod="pad" x1="-819.2" x2="819.2">
      <stop offset="0.0" stop-color="#332f30"/>
      <stop offset="0.36470588235294116" stop-color="#dfdbdc"/>
      <stop offset="0.5176470588235295" stop-color="#a7a7a7"/>
      <stop offset="0.6901960784313725" stop-color="#dfdbdc"/>
      <stop offset="1.0" stop-color="#332f30"/>
    </linearGradient>
    <linearGradient gradientTransform="matrix(0.0015, 0.0, 0.0, 0.0062, 1.55, 21.95)" gradientUnits="userSpaceOnUse" id="gradient23" spreadMethod="pad" x1="-819.2" x2="819.2">
      <stop offset="0.0" stop-color="#332f30"/>
      <stop offset="0.36470588235294116" stop-color="#dfdbdc"/>
      <stop offset="0.5176470588235295" stop-color="#a7a7a7"/>
      <stop offset="0.6901960784313725" stop-color="#dfdbdc"/>
      <stop offset="1.0" stop-color="#332f30"/>
    </linearGradient>
    <linearGradient gradientTransform="matrix(0.0, 0.0076, -8.0E-4, 0.0, 1.5, 24.15)" gradientUnits="userSpaceOnUse" id="gradient24" spreadMethod="pad" x1="-819.2" x2="819.2">
      <stop offset="0.0" stop-color="#332f30"/>
      <stop offset="0.36470588235294116" stop-color="#dfdbdc"/>
      <stop offset="0.5176470588235295" stop-color="#a7a7a7"/>
      <stop offset="0.6901960784313725" stop-color="#dfdbdc"/>
      <stop offset="1.0" stop-color="#332f30"/>
    </linearGradient>
    <linearGradient gradientTransform="matrix(0.0011, 0.0, 0.0, 0.0062, 1.55, 21.65)" gradientUnits="userSpaceOnUse" id="gradient25" spreadMethod="pad" x1="-819.2" x2="819.2">
      <stop offset="0.0" stop-color="#332f30"/>
      <stop offset="0.36470588235294116" stop-color="#dfdbdc"/>
      <stop offset="0.5176470588235295" stop-color="#a7a7a7"/>
      <stop offset="0.6901960784313725" stop-color="#dfdbdc"/>
      <stop offset="1.0" stop-color="#332f30"/>
    </linearGradient>
    <linearGradient gradientTransform="matrix(0.0015, 0.0, 0.0, 0.0061, 1.55, 21.35)" gradientUnits="userSpaceOnUse" id="gradient26" spreadMethod="pad" x1="-819.2" x2="819.2">
      <stop offset="0.0" stop-color="#332f30"/>
      <stop offset="0.36470588235294116" stop-color="#dfdbdc"/>
      <stop offset="0.5176470588235295" stop-color="#a7a7a7"/>
      <stop offset="0.6901960784313725" stop-color="#dfdbdc"/>
      <stop offset="1.0" stop-color="#332f30"/>
    </linearGradient>
    <linearGradient gradientTransform="matrix(0.0, 0.0084, -0.0011, 1.0E-4, 2.35, 18.4)" gradientUnits="userSpaceOnUse" id="gradient27" spreadMethod="pad" x1="-819.2" x2="819.2">
      <stop offset="0.0" stop-color="#332f30"/>
      <stop offset="0.36470588235294116" stop-color="#dfdbdc"/>
      <stop offset="0.5176470588235295" stop-color="#a7a7a7"/>
      <stop offset="0.6901960784313725" stop-color="#dfdbdc"/>
      <stop offset="1.0" stop-color="#332f30"/>
    </linearGradient>
    <linearGradient gradientTransform="matrix(-1.0E-4, -0.0082, -0.0089, 2.0E-4, 10.35, 50.5)" gradientUnits="userSpaceOnUse" id="gradient28" spreadMethod="pad" x1="-819.2" x2="819.2">
      <stop offset="0.00784313725490196" stop-color="#0b0a06"/>
      <stop offset="0.25098039215686274" stop-color="#43372c"/>
      <stop offset="0.8156862745098039" stop-color="#43372c"/>
      <stop offset="1.0" stop-color="#000000"/>
    </linearGradient>
    <linearGradient gradientTransform="matrix(1.0E-4, -0.0082, 0.0089, 2.0E-4, -10.15, 50.5)" gradientUnits="userSpaceOnUse" id="gradient29" spreadMethod="pad" x1="-819.2" x2="819.2">
      <stop offset="0.00784313725490196" stop-color="#0b0a06"/>
      <stop offset="0.25098039215686274" stop-color="#43372c"/>
      <stop offset="0.8156862745098039" stop-color="#43372c"/>
      <stop offset="1.0" stop-color="#000000"/>
    </linearGradient>
    <linearGradient gradientTransform="matrix(-1.0E-4, 0.0063, -0.0106, -1.0E-4, -0.25, 50.5)" gradientUnits="userSpaceOnUse" id="gradient30" spreadMethod="pad" x1="-819.2" x2="819.2">
      <stop offset="0.00784313725490196" stop-color="#0b0a06"/>
      <stop offset="0.25098039215686274" stop-color="#43372c"/>
      <stop offset="0.8156862745098039" stop-color="#43372c"/>
      <stop offset="1.0" stop-color="#000000"/>
    </linearGradient>
    <radialGradient cx="0" cy="0" gradientTransform="matrix(0.004, 0.0, 0.0, 0.003, -6.85, 57.45)" gradientUnits="userSpaceOnUse" id="gradient31" r="819.2" spreadMethod="pad">
      <stop offset="0.0" stop-color="#ffffff"/>
      <stop offset="1.0" stop-color="#ffffff" stop-opacity="0.0"/>
    </radialGradient>
    <radialGradient cx="0" cy="0" gradientTransform="matrix(-0.004, 0.0, 0.0, 0.003, 7.35, 57.45)" gradientUnits="userSpaceOnUse" id="gradient32" r="819.2" spreadMethod="pad">
      <stop offset="0.0" stop-color="#ffffff"/>
      <stop offset="1.0" stop-color="#ffffff" stop-opacity="0.0"/>
    </radialGradient>
  </defs>
</svg>
