<?xml version="1.0" encoding="UTF-8" standalone="no"?>
<svg xmlns:xlink="http://www.w3.org/1999/xlink" height="11.25px" width="30.15px" xmlns="http://www.w3.org/2000/svg">
  <g transform="matrix(1, 0, 0, 1, 15.05, -29.85)">
    <path d="M11.85 40.55 Q11.35 40.05 11.35 39.3 11.35 38.55 11.85 38.05 12.4 37.5 13.15 37.5 13.85 37.5 14.4 38.05 14.9 38.55 14.9 39.3 14.9 40.05 14.4 40.55 13.85 41.1 13.15 41.1 12.4 41.1 11.85 40.55" fill="#d1cbcf" fill-rule="evenodd" stroke="none"/>
    <path d="M12.75 40.25 Q12.4 39.9 12.4 39.45 12.4 38.95 12.75 38.65 13.1 38.3 13.55 38.3 14.0 38.3 14.35 38.65 14.7 38.95 14.7 39.45 L14.35 40.25 13.55 40.6 Q13.1 40.6 12.75 40.25" fill="#51454f" fill-rule="evenodd" stroke="none"/>
    <path d="M-14.15 40.55 Q-14.65 40.05 -14.65 39.3 -14.65 38.55 -14.15 38.05 -13.6 37.5 -12.85 37.5 -12.15 37.5 -11.6 38.05 -11.1 38.55 -11.1 39.3 -11.1 40.05 -11.6 40.55 -12.15 41.1 -12.85 41.1 -13.6 41.1 -14.15 40.55" fill="#d1cbcf" fill-rule="evenodd" stroke="none"/>
    <path d="M-13.25 40.25 L-13.6 39.45 Q-13.6 38.95 -13.25 38.65 -12.9 38.3 -12.45 38.3 -12.0 38.3 -11.65 38.65 -11.3 38.95 -11.3 39.45 -11.3 39.9 -11.65 40.25 -12.0 40.6 -12.45 40.6 -12.9 40.6 -13.25 40.25" fill="#51454f" fill-rule="evenodd" stroke="none"/>
    <path d="M12.85 34.45 Q11.9 34.45 11.25 33.8 10.55 33.15 10.55 32.2 10.55 31.25 11.25 30.6 11.9 29.9 12.85 29.9 13.8 29.9 14.45 30.6 15.1 31.25 15.1 32.2 15.1 33.15 14.45 33.8 13.8 34.45 12.85 34.45" fill="#d1cbcf" fill-rule="evenodd" stroke="none"/>
    <path d="M13.35 33.8 Q12.75 33.8 12.35 33.4 11.9 32.95 11.9 32.35 11.9 31.75 12.35 31.3 12.75 30.9 13.35 30.9 13.95 30.9 14.4 31.3 14.85 31.75 14.85 32.35 L14.4 33.4 Q13.95 33.8 13.35 33.8" fill="#51454f" fill-rule="evenodd" stroke="none"/>
    <path d="M-10.95 33.95 Q-11.65 34.65 -12.65 34.65 -13.65 34.65 -14.35 33.95 -15.05 33.25 -15.05 32.25 -15.05 31.3 -14.35 30.6 -13.65 29.85 -12.65 29.85 -11.65 29.85 -10.95 30.6 -10.25 31.3 -10.25 32.25 -10.25 33.25 -10.95 33.95" fill="#d1cbcf" fill-rule="evenodd" stroke="none"/>
    <path d="M-12.15 34.0 Q-12.75 34.0 -13.2 33.55 -13.65 33.1 -13.65 32.45 -13.65 31.85 -13.2 31.4 -12.75 30.9 -12.15 30.9 -11.5 30.9 -11.05 31.4 -10.6 31.85 -10.6 32.45 -10.6 33.1 -11.05 33.55 -11.5 34.0 -12.15 34.0" fill="#51454f" fill-rule="evenodd" stroke="none"/>
  </g>
</svg>
