<?xml version="1.0" encoding="UTF-8" standalone="no"?>
<svg xmlns:xlink="http://www.w3.org/1999/xlink" height="32.4px" width="28.3px" xmlns="http://www.w3.org/2000/svg">
  <g transform="matrix(1, 0, 0, 1, 14.5, 59.15)">
    <path d="M13.75 -56.65 L-14.5 -56.65 -14.5 -57.95 13.75 -57.95 13.75 -56.65" fill="#797576" fill-rule="evenodd" stroke="none"/>
    <path d="M13.75 -56.65 L13.75 -55.9 -14.5 -55.9 -14.5 -56.65 13.75 -56.65" fill="#a7a7a7" fill-rule="evenodd" stroke="none"/>
    <path d="M11.15 -27.7 L-11.0 -27.7 -11.0 -29.95 11.15 -29.95 11.15 -27.7" fill="#262425" fill-rule="evenodd" stroke="none"/>
    <path d="M11.15 -27.7 L11.15 -26.75 -11.0 -26.75 -11.0 -27.7 11.15 -27.7" fill="#5b5758" fill-rule="evenodd" stroke="none"/>
    <path d="M-14.45 -29.5 L13.8 -29.5 13.8 -28.7 -14.45 -28.7 -14.45 -29.5" fill="#a7a7a7" fill-rule="evenodd" stroke="none"/>
    <path d="M-14.45 -29.5 L-14.45 -30.75 13.8 -30.75 13.8 -29.5 -14.45 -29.5" fill="#797576" fill-rule="evenodd" stroke="none"/>
    <path d="M11.15 -35.35 L-11.0 -35.35 -11.0 -36.9 11.15 -36.9 11.15 -35.35" fill="#262425" fill-rule="evenodd" stroke="none"/>
    <path d="M11.15 -35.35 L11.15 -34.7 -11.0 -34.7 -11.0 -35.35 11.15 -35.35" fill="#5b5758" fill-rule="evenodd" stroke="none"/>
    <path d="M-11.0 -49.85 L-11.0 -51.4 11.15 -51.4 11.15 -49.85 -11.0 -49.85" fill="#262425" fill-rule="evenodd" stroke="none"/>
    <path d="M11.15 -49.85 L11.15 -49.2 -11.0 -49.2 -11.0 -49.85 11.15 -49.85" fill="#5b5758" fill-rule="evenodd" stroke="none"/>
    <path d="M6.3 -58.3 L-6.35 -58.3 -6.35 -59.15 6.3 -59.15 6.3 -58.3" fill="#5b5758" fill-rule="evenodd" stroke="none"/>
    <path d="M6.3 -58.3 L6.3 -56.3 -6.35 -56.3 -6.35 -58.3 6.3 -58.3" fill="#a7a7a7" fill-rule="evenodd" stroke="none"/>
    <path d="M5.9 -58.4 L5.9 -30.7 4.8 -30.7 4.8 -58.4 5.9 -58.4" fill="#a7a7a7" fill-rule="evenodd" stroke="none"/>
    <path d="M5.9 -58.4 L6.35 -58.4 6.35 -30.7 5.9 -30.7 5.9 -58.4" fill="#5b5758" fill-rule="evenodd" stroke="none"/>
    <path d="M-6.05 -58.4 L-6.05 -30.7 -6.5 -30.7 -6.5 -58.4 -6.05 -58.4" fill="#5b5758" fill-rule="evenodd" stroke="none"/>
    <path d="M-6.05 -58.4 L-4.95 -58.4 -4.95 -30.7 -6.05 -30.7 -6.05 -58.4" fill="#a7a7a7" fill-rule="evenodd" stroke="none"/>
    <path d="M-4.85 -35.8 L-4.85 -36.7 -4.35 -36.7 -4.35 -38.35 4.25 -38.35 4.25 -36.7 4.85 -36.7 4.85 -35.8 4.25 -35.8 4.25 -31.9 -4.35 -31.9 -4.35 -35.8 -4.85 -35.8 M1.2 -35.8 L1.2 -36.7 -1.65 -36.7 -1.65 -35.8 1.2 -35.8" fill="url(#gradient0)" fill-rule="evenodd" stroke="none"/>
    <path d="M4.85 -35.8 L4.85 -31.9 4.25 -31.9 4.25 -35.8 4.85 -35.8 M-4.85 -31.9 L-4.85 -35.8 -4.35 -35.8 -4.35 -31.9 -4.85 -31.9 M-4.85 -36.7 L-4.85 -38.95 4.85 -38.95 4.85 -36.7 4.25 -36.7 4.25 -38.35 -4.35 -38.35 -4.35 -36.7 -4.85 -36.7 M1.2 -35.8 L-1.65 -35.8 -1.65 -36.7 1.2 -36.7 1.2 -35.8" fill="#5a5657" fill-rule="evenodd" stroke="none"/>
    <path d="M4.85 -31.9 L4.85 -30.7 -4.85 -30.7 -4.85 -31.9 -4.35 -31.9 4.25 -31.9 4.85 -31.9" fill="#3f3b3c" fill-rule="evenodd" stroke="none"/>
    <path d="M4.6 -49.9 L4.0 -49.9 4.0 -51.35 -4.6 -51.35 -4.6 -49.9 -5.15 -49.9 -5.15 -51.9 4.6 -51.9 4.6 -49.9 M-5.15 -49.1 L-4.6 -49.1 -4.6 -45.6 -5.15 -45.6 -5.15 -49.1 M4.0 -45.6 L4.0 -49.1 4.6 -49.1 4.6 -45.6 4.0 -45.6 M0.9 -49.1 L-1.9 -49.1 -1.9 -49.9 0.9 -49.9 0.9 -49.1" fill="#5a5657" fill-rule="evenodd" stroke="none"/>
    <path d="M-5.15 -49.9 L-4.6 -49.9 -4.6 -51.35 4.0 -51.35 4.0 -49.9 4.6 -49.9 4.6 -49.1 4.0 -49.1 4.0 -45.6 -4.6 -45.6 -4.6 -49.1 -5.15 -49.1 -5.15 -49.9 M0.9 -49.1 L0.9 -49.9 -1.9 -49.9 -1.9 -49.1 0.9 -49.1" fill="url(#gradient1)" fill-rule="evenodd" stroke="none"/>
    <path d="M-4.6 -45.6 L4.0 -45.6 4.6 -45.6 4.6 -44.55 -5.15 -44.55 -5.15 -45.6 -4.6 -45.6" fill="#3f3b3c" fill-rule="evenodd" stroke="none"/>
    <path d="M4.75 -54.3 L4.15 -54.3 1.1 -54.3 1.1 -54.9 4.15 -54.9 4.75 -54.9 4.75 -54.3 M4.15 -51.85 L4.75 -51.85 4.75 -51.1 -4.95 -51.1 -4.95 -51.85 -4.45 -51.85 4.15 -51.85 M-4.95 -54.3 L-4.95 -54.9 -4.45 -54.9 -1.75 -54.9 -1.75 -54.3 -4.45 -54.3 -4.95 -54.3" fill="#3f3b3c" fill-rule="evenodd" stroke="none"/>
    <path d="M4.15 -54.3 L4.75 -54.3 4.75 -51.85 4.15 -51.85 4.15 -54.3 M4.75 -54.9 L4.15 -54.9 4.15 -55.95 -4.45 -55.95 -4.45 -54.9 -4.95 -54.9 -4.95 -56.35 4.75 -56.35 4.75 -54.9 M-4.95 -51.85 L-4.95 -54.3 -4.45 -54.3 -4.45 -51.85 -4.95 -51.85" fill="#5a5657" fill-rule="evenodd" stroke="none"/>
    <path d="M1.1 -54.9 L1.1 -54.3 -1.75 -54.3 -1.75 -54.9 1.1 -54.9" fill="#b2aeaf" fill-rule="evenodd" stroke="none"/>
    <path d="M4.15 -54.9 L1.1 -54.9 -1.75 -54.9 -4.45 -54.9 -4.45 -55.95 4.15 -55.95 4.15 -54.9 M1.1 -54.3 L4.15 -54.3 4.15 -51.85 -4.45 -51.85 -4.45 -54.3 -1.75 -54.3 1.1 -54.3" fill="url(#gradient2)" fill-rule="evenodd" stroke="none"/>
    <path d="M-5.6 -38.6 L-5.6 -40.25 5.3 -40.25 5.3 -38.6 -5.6 -38.6" fill="url(#gradient3)" fill-rule="evenodd" stroke="none"/>
    <path d="M-5.6 -40.25 L-5.6 -41.9 5.3 -41.9 5.3 -40.25 -5.6 -40.25" fill="url(#gradient4)" fill-rule="evenodd" stroke="none"/>
    <path d="M-5.6 -41.9 L-5.6 -43.7 5.3 -43.7 5.3 -41.9 -5.6 -41.9" fill="url(#gradient5)" fill-rule="evenodd" stroke="none"/>
    <path d="M-5.6 -43.7 L-5.6 -44.25 5.3 -44.25 5.3 -43.7 -5.6 -43.7" fill="url(#gradient6)" fill-rule="evenodd" stroke="none"/>
    <path d="M5.3 -38.6 L5.3 -38.1 -5.6 -38.1 -5.6 -38.6 5.3 -38.6" fill="url(#gradient7)" fill-rule="evenodd" stroke="none"/>
    <path d="M-1.8 -47.3 L-1.8 -48.5 1.45 -48.5 1.45 -47.3 -1.8 -47.3" fill="url(#gradient8)" fill-rule="evenodd" stroke="none"/>
    <path d="M-1.8 -48.5 L-1.8 -48.85 1.45 -48.85 1.45 -48.5 -1.8 -48.5" fill="url(#gradient9)" fill-rule="evenodd" stroke="none"/>
    <path d="M1.45 -45.2 L1.45 -44.9 -1.8 -44.9 -1.8 -45.2 1.45 -45.2" fill="url(#gradient10)" fill-rule="evenodd" stroke="none"/>
    <path d="M1.45 -46.25 L1.45 -45.2 -1.8 -45.2 -1.8 -46.25 1.45 -46.25" fill="url(#gradient11)" fill-rule="evenodd" stroke="none"/>
    <path d="M1.45 -47.3 L1.45 -46.25 -1.8 -46.25 -1.8 -47.3 1.45 -47.3" fill="url(#gradient12)" fill-rule="evenodd" stroke="none"/>
    <path d="M1.45 -50.1 L1.45 -49.85 -1.8 -49.85 -1.8 -50.1 1.45 -50.1" fill="url(#gradient13)" fill-rule="evenodd" stroke="none"/>
    <path d="M1.45 -50.8 L1.45 -50.1 -1.8 -50.1 -1.8 -50.8 1.45 -50.8" fill="url(#gradient14)" fill-rule="evenodd" stroke="none"/>
    <path d="M1.45 -51.55 L1.45 -50.8 -1.8 -50.8 -1.8 -51.55 1.45 -51.55" fill="url(#gradient15)" fill-rule="evenodd" stroke="none"/>
    <path d="M1.45 -52.35 L1.45 -51.55 -1.8 -51.55 -1.8 -52.35 1.45 -52.35" fill="url(#gradient16)" fill-rule="evenodd" stroke="none"/>
    <path d="M-1.8 -52.35 L-1.8 -52.55 1.45 -52.55 1.45 -52.35 -1.8 -52.35" fill="url(#gradient17)" fill-rule="evenodd" stroke="none"/>
    <path d="M-1.05 -37.65 L-1.05 -35.35 -3.5 -35.35 -3.5 -37.65 -1.05 -37.65" fill="url(#gradient18)" fill-rule="evenodd" stroke="none"/>
    <path d="M-3.5 -37.65 L-3.5 -38.3 -1.05 -38.3 -1.05 -37.65 -3.5 -37.65" fill="url(#gradient19)" fill-rule="evenodd" stroke="none"/>
    <path d="M-1.05 -33.3 L-1.05 -31.2 -3.5 -31.2 -3.5 -33.3 -1.05 -33.3" fill="url(#gradient20)" fill-rule="evenodd" stroke="none"/>
    <path d="M-1.05 -31.2 L-1.05 -30.55 -3.5 -30.55 -3.5 -31.2 -1.05 -31.2" fill="url(#gradient21)" fill-rule="evenodd" stroke="none"/>
    <path d="M-1.05 -35.35 L-1.05 -33.3 -3.5 -33.3 -3.5 -35.35 -1.05 -35.35" fill="url(#gradient22)" fill-rule="evenodd" stroke="none"/>
    <path d="M2.45 -37.65 L2.45 -35.35 0.0 -35.35 0.0 -37.65 2.45 -37.65" fill="url(#gradient23)" fill-rule="evenodd" stroke="none"/>
    <path d="M0.0 -37.65 L0.0 -38.3 2.45 -38.3 2.45 -37.65 0.0 -37.65" fill="url(#gradient24)" fill-rule="evenodd" stroke="none"/>
    <path d="M2.45 -33.3 L2.45 -31.2 0.0 -31.2 0.0 -33.3 2.45 -33.3" fill="url(#gradient25)" fill-rule="evenodd" stroke="none"/>
    <path d="M2.45 -35.35 L2.45 -33.3 0.0 -33.3 0.0 -35.35 2.45 -35.35" fill="url(#gradient26)" fill-rule="evenodd" stroke="none"/>
    <path d="M2.45 -31.2 L2.45 -30.55 0.0 -30.55 0.0 -31.2 2.45 -31.2" fill="url(#gradient27)" fill-rule="evenodd" stroke="none"/>
  </g>
  <defs>
    <linearGradient gradientTransform="matrix(0.0, -0.0078, 0.0036, 0.0, -0.75, -31.3)" gradientUnits="userSpaceOnUse" id="gradient0" spreadMethod="pad" x1="-819.2" x2="819.2">
      <stop offset="0.0" stop-color="#332f30"/>
      <stop offset="0.36470588235294116" stop-color="#dfdbdc"/>
      <stop offset="0.5176470588235295" stop-color="#a7a7a7"/>
      <stop offset="0.6901960784313725" stop-color="#dfdbdc"/>
      <stop offset="1.0" stop-color="#332f30"/>
    </linearGradient>
    <linearGradient gradientTransform="matrix(0.0, -0.0226, 0.0036, 0.0, -0.8, -31.45)" gradientUnits="userSpaceOnUse" id="gradient1" spreadMethod="pad" x1="-819.2" x2="819.2">
      <stop offset="0.0" stop-color="#332f30"/>
      <stop offset="0.36470588235294116" stop-color="#dfdbdc"/>
      <stop offset="0.5176470588235295" stop-color="#a7a7a7"/>
      <stop offset="0.6901960784313725" stop-color="#dfdbdc"/>
      <stop offset="1.0" stop-color="#332f30"/>
    </linearGradient>
    <linearGradient gradientTransform="matrix(0.0, -0.0162, 0.0036, 0.0, -0.45, -44.15)" gradientUnits="userSpaceOnUse" id="gradient2" spreadMethod="pad" x1="-819.2" x2="819.2">
      <stop offset="0.0" stop-color="#332f30"/>
      <stop offset="0.36470588235294116" stop-color="#dfdbdc"/>
      <stop offset="0.5176470588235295" stop-color="#a7a7a7"/>
      <stop offset="0.6901960784313725" stop-color="#dfdbdc"/>
      <stop offset="1.0" stop-color="#332f30"/>
    </linearGradient>
    <linearGradient gradientTransform="matrix(0.0067, 0.0, 0.0, 0.0048, -0.15, -41.5)" gradientUnits="userSpaceOnUse" id="gradient3" spreadMethod="pad" x1="-819.2" x2="819.2">
      <stop offset="0.0" stop-color="#332f30"/>
      <stop offset="0.36470588235294116" stop-color="#dfdbdc"/>
      <stop offset="0.5176470588235295" stop-color="#a7a7a7"/>
      <stop offset="0.6901960784313725" stop-color="#dfdbdc"/>
      <stop offset="1.0" stop-color="#332f30"/>
    </linearGradient>
    <linearGradient gradientTransform="matrix(0.005, 0.0, 0.0, 0.0049, -0.15, -41.25)" gradientUnits="userSpaceOnUse" id="gradient4" spreadMethod="pad" x1="-819.2" x2="819.2">
      <stop offset="0.0" stop-color="#332f30"/>
      <stop offset="0.36470588235294116" stop-color="#dfdbdc"/>
      <stop offset="0.5176470588235295" stop-color="#a7a7a7"/>
      <stop offset="0.6901960784313725" stop-color="#dfdbdc"/>
      <stop offset="1.0" stop-color="#332f30"/>
    </linearGradient>
    <linearGradient gradientTransform="matrix(0.0067, 0.0, 0.0, 0.0049, -0.15, -41.05)" gradientUnits="userSpaceOnUse" id="gradient5" spreadMethod="pad" x1="-819.2" x2="819.2">
      <stop offset="0.0" stop-color="#332f30"/>
      <stop offset="0.36470588235294116" stop-color="#dfdbdc"/>
      <stop offset="0.5176470588235295" stop-color="#a7a7a7"/>
      <stop offset="0.6901960784313725" stop-color="#dfdbdc"/>
      <stop offset="1.0" stop-color="#332f30"/>
    </linearGradient>
    <linearGradient gradientTransform="matrix(0.0, 0.006, -0.0038, 0.0, -0.5, -39.25)" gradientUnits="userSpaceOnUse" id="gradient6" spreadMethod="pad" x1="-819.2" x2="819.2">
      <stop offset="0.0" stop-color="#332f30"/>
      <stop offset="0.36470588235294116" stop-color="#dfdbdc"/>
      <stop offset="0.5176470588235295" stop-color="#a7a7a7"/>
      <stop offset="0.6901960784313725" stop-color="#dfdbdc"/>
      <stop offset="1.0" stop-color="#332f30"/>
    </linearGradient>
    <linearGradient gradientTransform="matrix(1.0E-4, 0.0067, -0.0047, 1.0E-4, 3.4, -43.8)" gradientUnits="userSpaceOnUse" id="gradient7" spreadMethod="pad" x1="-819.2" x2="819.2">
      <stop offset="0.0" stop-color="#332f30"/>
      <stop offset="0.36470588235294116" stop-color="#dfdbdc"/>
      <stop offset="0.5176470588235295" stop-color="#a7a7a7"/>
      <stop offset="0.6901960784313725" stop-color="#dfdbdc"/>
      <stop offset="1.0" stop-color="#332f30"/>
    </linearGradient>
    <linearGradient gradientTransform="matrix(0.002, 0.0, 0.0, 0.0032, -0.2, -46.8)" gradientUnits="userSpaceOnUse" id="gradient8" spreadMethod="pad" x1="-819.2" x2="819.2">
      <stop offset="0.0" stop-color="#332f30"/>
      <stop offset="0.36470588235294116" stop-color="#dfdbdc"/>
      <stop offset="0.5176470588235295" stop-color="#a7a7a7"/>
      <stop offset="0.6901960784313725" stop-color="#dfdbdc"/>
      <stop offset="1.0" stop-color="#332f30"/>
    </linearGradient>
    <linearGradient gradientTransform="matrix(0.0, 0.0038, -0.0011, 0.0, -0.3, -45.65)" gradientUnits="userSpaceOnUse" id="gradient9" spreadMethod="pad" x1="-819.2" x2="819.2">
      <stop offset="0.0" stop-color="#332f30"/>
      <stop offset="0.36470588235294116" stop-color="#dfdbdc"/>
      <stop offset="0.5176470588235295" stop-color="#a7a7a7"/>
      <stop offset="0.6901960784313725" stop-color="#dfdbdc"/>
      <stop offset="1.0" stop-color="#332f30"/>
    </linearGradient>
    <linearGradient gradientTransform="matrix(0.0, 0.0043, -0.0014, 0.0, 0.9, -48.55)" gradientUnits="userSpaceOnUse" id="gradient10" spreadMethod="pad" x1="-819.2" x2="819.2">
      <stop offset="0.0" stop-color="#332f30"/>
      <stop offset="0.36470588235294116" stop-color="#dfdbdc"/>
      <stop offset="0.5176470588235295" stop-color="#a7a7a7"/>
      <stop offset="0.6901960784313725" stop-color="#dfdbdc"/>
      <stop offset="1.0" stop-color="#332f30"/>
    </linearGradient>
    <linearGradient gradientTransform="matrix(0.002, 0.0, 0.0, 0.0031, -0.2, -47.1)" gradientUnits="userSpaceOnUse" id="gradient11" spreadMethod="pad" x1="-819.2" x2="819.2">
      <stop offset="0.0" stop-color="#332f30"/>
      <stop offset="0.36470588235294116" stop-color="#dfdbdc"/>
      <stop offset="0.5176470588235295" stop-color="#a7a7a7"/>
      <stop offset="0.6901960784313725" stop-color="#dfdbdc"/>
      <stop offset="1.0" stop-color="#332f30"/>
    </linearGradient>
    <linearGradient gradientTransform="matrix(0.0015, 0.0, 0.0, 0.0031, -0.2, -46.9)" gradientUnits="userSpaceOnUse" id="gradient12" spreadMethod="pad" x1="-819.2" x2="819.2">
      <stop offset="0.0" stop-color="#332f30"/>
      <stop offset="0.36470588235294116" stop-color="#dfdbdc"/>
      <stop offset="0.5176470588235295" stop-color="#a7a7a7"/>
      <stop offset="0.6901960784313725" stop-color="#dfdbdc"/>
      <stop offset="1.0" stop-color="#332f30"/>
    </linearGradient>
    <linearGradient gradientTransform="matrix(0.0, 0.0029, -0.0014, 0.0, 0.9, -52.4)" gradientUnits="userSpaceOnUse" id="gradient13" spreadMethod="pad" x1="-819.2" x2="819.2">
      <stop offset="0.0" stop-color="#332f30"/>
      <stop offset="0.36470588235294116" stop-color="#dfdbdc"/>
      <stop offset="0.5176470588235295" stop-color="#a7a7a7"/>
      <stop offset="0.6901960784313725" stop-color="#dfdbdc"/>
      <stop offset="1.0" stop-color="#332f30"/>
    </linearGradient>
    <linearGradient gradientTransform="matrix(0.002, 0.0, 0.0, 0.0021, -0.2, -51.4)" gradientUnits="userSpaceOnUse" id="gradient14" spreadMethod="pad" x1="-819.2" x2="819.2">
      <stop offset="0.0" stop-color="#332f30"/>
      <stop offset="0.36470588235294116" stop-color="#dfdbdc"/>
      <stop offset="0.5176470588235295" stop-color="#a7a7a7"/>
      <stop offset="0.6901960784313725" stop-color="#dfdbdc"/>
      <stop offset="1.0" stop-color="#332f30"/>
    </linearGradient>
    <linearGradient gradientTransform="matrix(0.0015, 0.0, 0.0, 0.0021, -0.2, -51.25)" gradientUnits="userSpaceOnUse" id="gradient15" spreadMethod="pad" x1="-819.2" x2="819.2">
      <stop offset="0.0" stop-color="#332f30"/>
      <stop offset="0.36470588235294116" stop-color="#dfdbdc"/>
      <stop offset="0.5176470588235295" stop-color="#a7a7a7"/>
      <stop offset="0.6901960784313725" stop-color="#dfdbdc"/>
      <stop offset="1.0" stop-color="#332f30"/>
    </linearGradient>
    <linearGradient gradientTransform="matrix(0.002, 0.0, 0.0, 0.0022, -0.2, -51.2)" gradientUnits="userSpaceOnUse" id="gradient16" spreadMethod="pad" x1="-819.2" x2="819.2">
      <stop offset="0.0" stop-color="#332f30"/>
      <stop offset="0.36470588235294116" stop-color="#dfdbdc"/>
      <stop offset="0.5176470588235295" stop-color="#a7a7a7"/>
      <stop offset="0.6901960784313725" stop-color="#dfdbdc"/>
      <stop offset="1.0" stop-color="#332f30"/>
    </linearGradient>
    <linearGradient gradientTransform="matrix(0.0, 0.0026, -0.0011, 0.0, -0.3, -50.4)" gradientUnits="userSpaceOnUse" id="gradient17" spreadMethod="pad" x1="-819.2" x2="819.2">
      <stop offset="0.0" stop-color="#332f30"/>
      <stop offset="0.36470588235294116" stop-color="#dfdbdc"/>
      <stop offset="0.5176470588235295" stop-color="#a7a7a7"/>
      <stop offset="0.6901960784313725" stop-color="#dfdbdc"/>
      <stop offset="1.0" stop-color="#332f30"/>
    </linearGradient>
    <linearGradient gradientTransform="matrix(0.0015, 0.0, 0.0, 0.0062, -2.3, -34.25)" gradientUnits="userSpaceOnUse" id="gradient18" spreadMethod="pad" x1="-819.2" x2="819.2">
      <stop offset="0.0" stop-color="#332f30"/>
      <stop offset="0.36470588235294116" stop-color="#dfdbdc"/>
      <stop offset="0.5176470588235295" stop-color="#a7a7a7"/>
      <stop offset="0.6901960784313725" stop-color="#dfdbdc"/>
      <stop offset="1.0" stop-color="#332f30"/>
    </linearGradient>
    <linearGradient gradientTransform="matrix(0.0, 0.0076, -8.0E-4, 0.0, -2.35, -32.05)" gradientUnits="userSpaceOnUse" id="gradient19" spreadMethod="pad" x1="-819.2" x2="819.2">
      <stop offset="0.0" stop-color="#332f30"/>
      <stop offset="0.36470588235294116" stop-color="#dfdbdc"/>
      <stop offset="0.5176470588235295" stop-color="#a7a7a7"/>
      <stop offset="0.6901960784313725" stop-color="#dfdbdc"/>
      <stop offset="1.0" stop-color="#332f30"/>
    </linearGradient>
    <linearGradient gradientTransform="matrix(0.0015, 0.0, 0.0, 0.0061, -2.3, -34.85)" gradientUnits="userSpaceOnUse" id="gradient20" spreadMethod="pad" x1="-819.2" x2="819.2">
      <stop offset="0.0" stop-color="#332f30"/>
      <stop offset="0.36470588235294116" stop-color="#dfdbdc"/>
      <stop offset="0.5176470588235295" stop-color="#a7a7a7"/>
      <stop offset="0.6901960784313725" stop-color="#dfdbdc"/>
      <stop offset="1.0" stop-color="#332f30"/>
    </linearGradient>
    <linearGradient gradientTransform="matrix(0.0, 0.0084, -0.0011, 1.0E-4, -1.5, -37.8)" gradientUnits="userSpaceOnUse" id="gradient21" spreadMethod="pad" x1="-819.2" x2="819.2">
      <stop offset="0.0" stop-color="#332f30"/>
      <stop offset="0.36470588235294116" stop-color="#dfdbdc"/>
      <stop offset="0.5176470588235295" stop-color="#a7a7a7"/>
      <stop offset="0.6901960784313725" stop-color="#dfdbdc"/>
      <stop offset="1.0" stop-color="#332f30"/>
    </linearGradient>
    <linearGradient gradientTransform="matrix(0.0011, 0.0, 0.0, 0.0062, -2.3, -34.55)" gradientUnits="userSpaceOnUse" id="gradient22" spreadMethod="pad" x1="-819.2" x2="819.2">
      <stop offset="0.0" stop-color="#332f30"/>
      <stop offset="0.36470588235294116" stop-color="#dfdbdc"/>
      <stop offset="0.5176470588235295" stop-color="#a7a7a7"/>
      <stop offset="0.6901960784313725" stop-color="#dfdbdc"/>
      <stop offset="1.0" stop-color="#332f30"/>
    </linearGradient>
    <linearGradient gradientTransform="matrix(0.0015, 0.0, 0.0, 0.0062, 1.2, -34.25)" gradientUnits="userSpaceOnUse" id="gradient23" spreadMethod="pad" x1="-819.2" x2="819.2">
      <stop offset="0.0" stop-color="#332f30"/>
      <stop offset="0.36470588235294116" stop-color="#dfdbdc"/>
      <stop offset="0.5176470588235295" stop-color="#a7a7a7"/>
      <stop offset="0.6901960784313725" stop-color="#dfdbdc"/>
      <stop offset="1.0" stop-color="#332f30"/>
    </linearGradient>
    <linearGradient gradientTransform="matrix(0.0, 0.0076, -8.0E-4, 0.0, 1.15, -32.05)" gradientUnits="userSpaceOnUse" id="gradient24" spreadMethod="pad" x1="-819.2" x2="819.2">
      <stop offset="0.0" stop-color="#332f30"/>
      <stop offset="0.36470588235294116" stop-color="#dfdbdc"/>
      <stop offset="0.5176470588235295" stop-color="#a7a7a7"/>
      <stop offset="0.6901960784313725" stop-color="#dfdbdc"/>
      <stop offset="1.0" stop-color="#332f30"/>
    </linearGradient>
    <linearGradient gradientTransform="matrix(0.0015, 0.0, 0.0, 0.0061, 1.2, -34.85)" gradientUnits="userSpaceOnUse" id="gradient25" spreadMethod="pad" x1="-819.2" x2="819.2">
      <stop offset="0.0" stop-color="#332f30"/>
      <stop offset="0.36470588235294116" stop-color="#dfdbdc"/>
      <stop offset="0.5176470588235295" stop-color="#a7a7a7"/>
      <stop offset="0.6901960784313725" stop-color="#dfdbdc"/>
      <stop offset="1.0" stop-color="#332f30"/>
    </linearGradient>
    <linearGradient gradientTransform="matrix(0.0011, 0.0, 0.0, 0.0062, 1.2, -34.55)" gradientUnits="userSpaceOnUse" id="gradient26" spreadMethod="pad" x1="-819.2" x2="819.2">
      <stop offset="0.0" stop-color="#332f30"/>
      <stop offset="0.36470588235294116" stop-color="#dfdbdc"/>
      <stop offset="0.5176470588235295" stop-color="#a7a7a7"/>
      <stop offset="0.6901960784313725" stop-color="#dfdbdc"/>
      <stop offset="1.0" stop-color="#332f30"/>
    </linearGradient>
    <linearGradient gradientTransform="matrix(0.0, 0.0084, -0.0011, 1.0E-4, 2.0, -37.8)" gradientUnits="userSpaceOnUse" id="gradient27" spreadMethod="pad" x1="-819.2" x2="819.2">
      <stop offset="0.0" stop-color="#332f30"/>
      <stop offset="0.36470588235294116" stop-color="#dfdbdc"/>
      <stop offset="0.5176470588235295" stop-color="#a7a7a7"/>
      <stop offset="0.6901960784313725" stop-color="#dfdbdc"/>
      <stop offset="1.0" stop-color="#332f30"/>
    </linearGradient>
  </defs>
</svg>
