<?xml version="1.0" encoding="UTF-8" standalone="no"?>
<svg xmlns:xlink="http://www.w3.org/1999/xlink" height="80.7px" width="22.85px" xmlns="http://www.w3.org/2000/svg">
  <g transform="matrix(1, 0, 0, 1, 11.7, 55.55)">
    <path d="M11.15 -55.55 L11.15 25.15 -11.7 25.15 -11.7 -55.55 11.15 -55.55" fill="url(#gradient0)" fill-rule="evenodd" stroke="none"/>
    <path d="M9.0 -4.0 L9.0 -26.8 -9.4 -26.8 -9.4 -4.0 9.0 -4.0 M9.85 -3.3 L-10.3 -3.3 -10.3 -27.5 9.85 -27.5 9.85 -3.3 M9.0 -30.25 L9.0 -53.0 -9.4 -53.0 -9.4 -30.25 9.0 -30.25 M9.85 -29.55 L-10.3 -29.55 -10.3 -53.7 9.85 -53.7 9.85 -29.55 M9.85 22.9 L-10.3 22.9 -10.3 -1.25 9.85 -1.25 9.85 22.9 M9.0 22.2 L9.0 -0.55 -9.4 -0.55 -9.4 22.2 9.0 22.2" fill="#ffff33" fill-rule="evenodd" stroke="none"/>
  </g>
  <defs>
    <linearGradient gradientTransform="matrix(1.0E-4, -0.0707, 0.0492, 0.0, 0.9, -9.95)" gradientUnits="userSpaceOnUse" id="gradient0" spreadMethod="pad" x1="-819.2" x2="819.2">
      <stop offset="0.00784313725490196" stop-color="#d8d81f"/>
      <stop offset="0.8156862745098039" stop-color="#707007"/>
      <stop offset="1.0" stop-color="#bda339"/>
    </linearGradient>
  </defs>
</svg>
