<?xml version="1.0" encoding="UTF-8" standalone="no"?>
<svg xmlns:xlink="http://www.w3.org/1999/xlink" height="67.25px" width="31.35px" xmlns="http://www.w3.org/2000/svg">
  <g transform="matrix(1, 0, 0, 1, 15.75, 33.85)">
    <path d="M-15.75 -31.1 L14.85 -31.1 14.85 -30.3 -15.75 -30.3 -15.75 -31.1" fill="#a7a7a7" fill-rule="evenodd" stroke="none"/>
    <path d="M-15.75 -31.1 L-15.75 -32.5 14.85 -32.5 14.85 -31.1 -15.75 -31.1" fill="#797576" fill-rule="evenodd" stroke="none"/>
    <path d="M11.95 0.25 L11.95 1.3 -12.0 1.3 -12.0 0.25 11.95 0.25" fill="#5b5758" fill-rule="evenodd" stroke="none"/>
    <path d="M-12.0 0.25 L-12.0 -2.15 11.95 -2.15 11.95 0.25 -12.0 0.25" fill="#262425" fill-rule="evenodd" stroke="none"/>
    <path d="M14.85 -1.7 L-15.75 -1.7 -15.75 -3.1 14.85 -3.1 14.85 -1.7" fill="#797576" fill-rule="evenodd" stroke="none"/>
    <path d="M14.85 -1.7 L14.85 -0.9 -15.75 -0.9 -15.75 -1.7 14.85 -1.7" fill="#a7a7a7" fill-rule="evenodd" stroke="none"/>
    <path d="M-12.0 -8.05 L-12.0 -9.7 11.95 -9.7 11.95 -8.05 -12.0 -8.05" fill="#262425" fill-rule="evenodd" stroke="none"/>
    <path d="M11.95 -8.05 L11.95 -7.35 -12.0 -7.35 -12.0 -8.05 11.95 -8.05" fill="#5b5758" fill-rule="evenodd" stroke="none"/>
    <path d="M11.95 -23.8 L11.95 -23.1 -12.0 -23.1 -12.0 -23.8 11.95 -23.8" fill="#5b5758" fill-rule="evenodd" stroke="none"/>
    <path d="M-12.0 -23.8 L-12.0 -25.45 11.95 -25.45 11.95 -23.8 -12.0 -23.8" fill="#262425" fill-rule="evenodd" stroke="none"/>
    <path d="M-6.95 -32.9 L6.75 -32.9 6.75 -30.7 -6.95 -30.7 -6.95 -32.9" fill="#a7a7a7" fill-rule="evenodd" stroke="none"/>
    <path d="M-6.95 -32.9 L-6.95 -33.85 6.75 -33.85 6.75 -32.9 -6.95 -32.9" fill="#5b5758" fill-rule="evenodd" stroke="none"/>
    <path d="M6.3 -3.0 L6.3 -33.05 6.8 -33.05 6.8 -3.0 6.3 -3.0" fill="#5b5758" fill-rule="evenodd" stroke="none"/>
    <path d="M6.3 -3.0 L5.1 -3.0 5.1 -33.05 6.3 -33.05 6.3 -3.0" fill="#a7a7a7" fill-rule="evenodd" stroke="none"/>
    <path d="M-6.65 -33.05 L-5.45 -33.05 -5.45 -3.0 -6.65 -3.0 -6.65 -33.05" fill="#a7a7a7" fill-rule="evenodd" stroke="none"/>
    <path d="M-6.65 -3.0 L-7.15 -3.0 -7.15 -33.05 -6.65 -33.05 -6.65 -3.0" fill="#5b5758" fill-rule="evenodd" stroke="none"/>
    <path d="M-5.35 -9.6 L-5.35 -12.0 5.1 -12.0 5.1 -9.6 4.5 -9.6 4.5 -11.35 -4.8 -11.35 -4.8 -9.6 -5.35 -9.6 M5.1 -8.55 L5.1 -4.35 4.5 -4.35 4.5 -8.55 5.1 -8.55 M-5.35 -4.35 L-5.35 -8.55 -4.8 -8.55 -4.8 -4.35 -5.35 -4.35 M1.2 -8.55 L-1.9 -8.55 -1.9 -9.6 1.2 -9.6 1.2 -8.55" fill="#5a5657" fill-rule="evenodd" stroke="none"/>
    <path d="M5.1 -9.6 L5.1 -8.55 4.5 -8.55 4.5 -4.35 -4.8 -4.35 -4.8 -8.55 -5.35 -8.55 -5.35 -9.6 -4.8 -9.6 -4.8 -11.35 4.5 -11.35 4.5 -9.6 5.1 -9.6 M1.2 -8.55 L1.2 -9.6 -1.9 -9.6 -1.9 -8.55 1.2 -8.55" fill="url(#gradient0)" fill-rule="evenodd" stroke="none"/>
    <path d="M5.1 -4.35 L5.1 -3.05 -5.35 -3.05 -5.35 -4.35 -4.8 -4.35 4.5 -4.35 5.1 -4.35" fill="#3f3b3c" fill-rule="evenodd" stroke="none"/>
    <path d="M0.95 -22.9 L0.95 -23.8 -2.15 -23.8 -2.15 -22.9 0.95 -22.9 M4.95 -22.9 L4.25 -22.9 4.25 -19.15 -5.05 -19.15 -5.05 -22.9 -5.65 -22.9 -5.65 -23.8 -5.05 -23.8 -5.05 -25.4 4.25 -25.4 4.25 -23.8 4.95 -23.8 4.95 -22.9" fill="url(#gradient1)" fill-rule="evenodd" stroke="none"/>
    <path d="M0.95 -22.9 L-2.15 -22.9 -2.15 -23.8 0.95 -23.8 0.95 -22.9 M4.95 -22.9 L4.95 -19.15 4.25 -19.15 4.25 -22.9 4.95 -22.9 M-5.65 -19.15 L-5.65 -22.9 -5.05 -22.9 -5.05 -19.15 -5.65 -19.15 M-5.65 -23.8 L-5.65 -25.95 4.95 -25.95 4.95 -23.8 4.25 -23.8 4.25 -25.4 -5.05 -25.4 -5.05 -23.8 -5.65 -23.8" fill="#5a5657" fill-rule="evenodd" stroke="none"/>
    <path d="M4.25 -19.15 L4.95 -19.15 4.95 -18.0 -5.65 -18.0 -5.65 -19.15 -5.05 -19.15 4.25 -19.15" fill="#3f3b3c" fill-rule="evenodd" stroke="none"/>
    <path d="M4.4 -29.2 L4.4 -30.3 -4.9 -30.3 -4.9 -29.2 -5.45 -29.2 -5.45 -30.75 5.05 -30.75 5.05 -29.2 4.4 -29.2 M4.4 -28.55 L5.05 -28.55 5.05 -25.85 4.4 -25.85 4.4 -28.55 M-5.45 -25.85 L-5.45 -28.55 -4.9 -28.55 -4.9 -25.85 -5.45 -25.85" fill="#5a5657" fill-rule="evenodd" stroke="none"/>
    <path d="M-4.9 -29.2 L-2.0 -29.2 -2.0 -28.55 -4.9 -28.55 -5.45 -28.55 -5.45 -29.2 -4.9 -29.2 M1.05 -29.2 L4.4 -29.2 5.05 -29.2 5.05 -28.55 4.4 -28.55 1.05 -28.55 1.05 -29.2 M5.05 -25.85 L5.05 -25.05 -5.45 -25.05 -5.45 -25.85 -4.9 -25.85 4.4 -25.85 5.05 -25.85" fill="#3f3b3c" fill-rule="evenodd" stroke="none"/>
    <path d="M-4.9 -29.2 L-4.9 -30.3 4.4 -30.3 4.4 -29.2 1.05 -29.2 -2.0 -29.2 -4.9 -29.2 M1.05 -28.55 L4.4 -28.55 4.4 -25.85 -4.9 -25.85 -4.9 -28.55 -2.0 -28.55 1.05 -28.55" fill="url(#gradient2)" fill-rule="evenodd" stroke="none"/>
    <path d="M-2.0 -29.2 L1.05 -29.2 1.05 -28.55 -2.0 -28.55 -2.0 -29.2" fill="#b2aeaf" fill-rule="evenodd" stroke="none"/>
    <path d="M-6.2 -11.6 L-6.2 -13.4 5.6 -13.4 5.6 -11.6 -6.2 -11.6" fill="url(#gradient3)" fill-rule="evenodd" stroke="none"/>
    <path d="M-6.2 -13.4 L-6.2 -15.15 5.6 -15.15 5.6 -13.4 -6.2 -13.4" fill="url(#gradient4)" fill-rule="evenodd" stroke="none"/>
    <path d="M-6.2 -15.15 L-6.2 -17.15 5.6 -17.15 5.6 -15.15 -6.2 -15.15" fill="url(#gradient5)" fill-rule="evenodd" stroke="none"/>
    <path d="M-6.2 -17.15 L-6.2 -17.7 5.6 -17.7 5.6 -17.15 -6.2 -17.15" fill="url(#gradient6)" fill-rule="evenodd" stroke="none"/>
    <path d="M5.6 -11.6 L5.6 -11.05 -6.2 -11.05 -6.2 -11.6 5.6 -11.6" fill="url(#gradient7)" fill-rule="evenodd" stroke="none"/>
    <path d="M-2.0 -18.7 L-2.0 -19.85 1.5 -19.85 1.5 -18.7 -2.0 -18.7" fill="url(#gradient8)" fill-rule="evenodd" stroke="none"/>
    <path d="M-2.0 -19.85 L-2.0 -21.0 1.5 -21.0 1.5 -19.85 -2.0 -19.85" fill="url(#gradient9)" fill-rule="evenodd" stroke="none"/>
    <path d="M-2.0 -21.0 L-2.0 -22.25 1.5 -22.25 1.5 -21.0 -2.0 -21.0" fill="url(#gradient10)" fill-rule="evenodd" stroke="none"/>
    <path d="M-2.0 -22.25 L-2.0 -22.6 1.5 -22.6 1.5 -22.25 -2.0 -22.25" fill="url(#gradient11)" fill-rule="evenodd" stroke="none"/>
    <path d="M1.5 -18.7 L1.5 -18.35 -2.0 -18.35 -2.0 -18.7 1.5 -18.7" fill="url(#gradient12)" fill-rule="evenodd" stroke="none"/>
    <path d="M-2.0 -24.0 L-2.0 -24.8 1.5 -24.8 1.5 -24.0 -2.0 -24.0" fill="url(#gradient13)" fill-rule="evenodd" stroke="none"/>
    <path d="M-2.0 -24.8 L-2.0 -25.55 1.5 -25.55 1.5 -24.8 -2.0 -24.8" fill="url(#gradient14)" fill-rule="evenodd" stroke="none"/>
    <path d="M-2.0 -25.55 L-2.0 -26.4 1.5 -26.4 1.5 -25.55 -2.0 -25.55" fill="url(#gradient15)" fill-rule="evenodd" stroke="none"/>
    <path d="M-2.0 -26.4 L-2.0 -26.65 1.5 -26.65 1.5 -26.4 -2.0 -26.4" fill="url(#gradient16)" fill-rule="evenodd" stroke="none"/>
    <path d="M1.5 -24.0 L1.5 -23.75 -2.0 -23.75 -2.0 -24.0 1.5 -24.0" fill="url(#gradient17)" fill-rule="evenodd" stroke="none"/>
    <path d="M-3.3 -10.55 L-0.7 -10.55 -0.7 -8.05 -3.3 -8.05 -3.3 -10.55" fill="url(#gradient18)" fill-rule="evenodd" stroke="none"/>
    <path d="M-0.7 -10.55 L-3.3 -10.55 -3.3 -11.25 -0.7 -11.25 -0.7 -10.55" fill="url(#gradient19)" fill-rule="evenodd" stroke="none"/>
    <path d="M-3.3 -8.05 L-0.7 -8.05 -0.7 -5.8 -3.3 -5.8 -3.3 -8.05" fill="url(#gradient20)" fill-rule="evenodd" stroke="none"/>
    <path d="M-3.3 -3.55 L-3.3 -5.8 -0.7 -5.8 -0.7 -3.55 -3.3 -3.55" fill="url(#gradient21)" fill-rule="evenodd" stroke="none"/>
    <path d="M-0.7 -3.55 L-0.7 -2.8 -3.3 -2.8 -3.3 -3.55 -0.7 -3.55" fill="url(#gradient22)" fill-rule="evenodd" stroke="none"/>
    <path d="M3.1 -8.05 L0.5 -8.05 0.5 -10.55 3.1 -10.55 3.1 -8.05" fill="url(#gradient23)" fill-rule="evenodd" stroke="none"/>
    <path d="M0.5 -8.05 L3.1 -8.05 3.1 -5.8 0.5 -5.8 0.5 -8.05" fill="url(#gradient24)" fill-rule="evenodd" stroke="none"/>
    <path d="M3.1 -10.55 L0.5 -10.55 0.5 -11.25 3.1 -11.25 3.1 -10.55" fill="url(#gradient25)" fill-rule="evenodd" stroke="none"/>
    <path d="M0.5 -5.8 L3.1 -5.8 3.1 -3.55 0.5 -3.55 0.5 -5.8" fill="url(#gradient26)" fill-rule="evenodd" stroke="none"/>
    <path d="M3.1 -3.55 L3.1 -2.8 0.5 -2.8 0.5 -3.55 3.1 -3.55" fill="url(#gradient27)" fill-rule="evenodd" stroke="none"/>
    <path d="M7.55 16.3 L7.7 16.25 8.3 16.2 13.7 16.2 14.2 16.3 14.3 16.3 14.35 16.4 14.35 16.45 14.5 16.95 14.5 31.55 14.35 31.75 14.05 31.9 13.95 31.95 7.6 31.95 7.5 31.9 7.4 31.65 7.3 31.35 7.3 17.45 7.4 16.6 7.55 16.3" fill="url(#gradient28)" fill-rule="evenodd" stroke="none"/>
    <path d="M7.1 28.05 L7.1 27.75 12.95 27.75 Q14.05 28.7 12.95 28.95 L12.15 28.95 12.15 28.3 9.8 28.3 9.8 28.05 7.1 28.05" fill="#6d6f5e" fill-rule="evenodd" stroke="none"/>
    <path d="M9.8 28.3 L12.15 28.3 12.15 28.95 9.8 28.95 9.8 28.3" fill="#c4c5ba" fill-rule="evenodd" stroke="none"/>
    <path d="M7.1 28.05 L9.8 28.05 9.8 28.3 9.8 28.95 7.1 28.95 7.1 28.05" fill="#ffffff" fill-rule="evenodd" stroke="none"/>
    <path d="M-6.7 16.6 L-6.65 17.05 -6.65 31.4 -6.75 31.6 -6.85 31.7 -7.3 31.95 -12.95 31.95 -13.15 31.9 -13.65 31.75 -13.7 31.7 -13.9 30.95 -13.9 16.7 -13.6 16.25 -13.15 16.2 -7.15 16.2 -6.9 16.3 -6.85 16.4 -6.7 16.6" fill="url(#gradient29)" fill-rule="evenodd" stroke="none"/>
    <path d="M-11.65 28.95 L-11.65 28.3 -9.3 28.3 -9.3 28.95 -11.65 28.95" fill="#c4c5ba" fill-rule="evenodd" stroke="none"/>
    <path d="M-9.3 28.3 L-9.3 28.05 -6.6 28.05 -6.6 28.95 -9.3 28.95 -9.3 28.3" fill="#ffffff" fill-rule="evenodd" stroke="none"/>
    <path d="M-6.6 28.05 L-9.3 28.05 -9.3 28.3 -11.65 28.3 -11.65 28.95 -12.45 28.95 Q-13.55 28.7 -12.45 27.75 L-6.6 27.75 -6.6 28.05" fill="#6d6f5e" fill-rule="evenodd" stroke="none"/>
    <path d="M-8.95 31.25 L-11.5 31.25 -11.5 30.1 -8.95 30.1 -8.95 31.25" fill="#ff9900" fill-rule="evenodd" stroke="none"/>
    <path d="M-11.5 31.25 L-8.95 31.25 -8.95 33.4 -11.5 33.4 -11.5 31.25" fill="#ffff99" fill-rule="evenodd" stroke="none"/>
    <path d="M12.1 31.25 L12.1 33.4 9.6 33.4 9.6 31.25 12.1 31.25" fill="#ffff99" fill-rule="evenodd" stroke="none"/>
    <path d="M9.6 31.25 L9.6 30.1 12.1 30.1 12.1 31.25 9.6 31.25" fill="#ff9900" fill-rule="evenodd" stroke="none"/>
    <path d="M9.95 18.6 L6.8 30.7 -6.65 30.7 -9.75 18.6 -0.6 19.0 9.95 18.6" fill="url(#gradient30)" fill-rule="evenodd" stroke="none"/>
    <path d="M-6.9 31.45 L-8.4 31.4 -11.2 17.55 11.6 17.55 8.65 31.4 7.15 31.45 7.15 31.2 -6.9 31.2 -6.9 31.45 M9.95 18.6 L-0.6 19.0 -9.75 18.6 -6.65 30.7 6.8 30.7 9.95 18.6" fill="#532e0b" fill-rule="evenodd" stroke="none"/>
    <path d="M7.15 31.45 L7.15 32.05 -6.9 32.05 -6.9 31.45 -6.9 31.2 7.15 31.2 7.15 31.45" fill="#8d7e58" fill-rule="evenodd" stroke="none"/>
    <path d="M7.15 32.05 L7.15 32.4 -0.95 32.7 -0.95 32.6 -6.9 32.4 -6.9 32.05 7.15 32.05" fill="#2c3023" fill-rule="evenodd" stroke="none"/>
    <path d="M-4.1 31.55 L-4.1 31.65 -8.25 31.65 -8.75 29.15 -7.75 29.0 Q-6.2 29.0 -5.2 29.75 -4.1 30.5 -4.1 31.55" fill="url(#gradient31)" fill-rule="evenodd" stroke="none"/>
    <path d="M4.8 31.55 Q4.8 30.5 5.9 29.75 6.9 29.0 8.45 29.0 L9.45 29.15 8.95 31.65 4.8 31.65 4.8 31.55" fill="url(#gradient32)" fill-rule="evenodd" stroke="none"/>
    <path d="M13.7 12.2 Q14.2 7.4 13.2 2.6 L-12.6 2.6 Q-13.55 7.25 -13.1 12.2 -12.85 16.1 -12.2 20.15 L12.7 20.15 Q13.45 16.2 13.7 12.2 M14.35 20.15 L14.1 21.4 -13.55 21.4 -13.75 20.15 Q-15.5 10.85 -14.85 1.05 L15.5 1.05 Q15.95 10.85 14.35 20.15" fill="#532e0b" fill-rule="evenodd" stroke="none"/>
    <path d="M13.7 12.2 Q13.45 16.2 12.7 20.15 L-12.2 20.15 Q-12.85 16.1 -13.1 12.2 -13.55 7.25 -12.6 2.6 L13.2 2.6 Q14.2 7.4 13.7 12.2" fill="#8c5818" fill-rule="evenodd" stroke="none"/>
    <path d="M8.1 13.55 L8.75 17.85 4.0 17.85 3.35 13.55 8.1 13.55 M0.7 17.85 L0.95 20.35 -5.9 20.35 -6.3 17.85 0.7 17.85" fill="#999999" fill-rule="evenodd" stroke="none"/>
    <path d="M8.75 17.85 L8.1 13.55 12.4 13.55 12.4 20.35 9.15 20.35 8.75 17.85 M3.35 13.55 L4.0 17.85 4.45 20.35 0.95 20.35 0.7 17.85 0.1 13.55 3.35 13.55 M-5.9 20.35 L-11.9 20.35 -11.9 13.55 -6.95 13.55 -6.3 17.85 -5.9 20.35" fill="#666666" fill-rule="evenodd" stroke="none"/>
    <path d="M8.1 13.55 L3.35 13.55 0.1 13.55 -6.95 13.55 -11.9 13.55 -11.9 20.35 -5.9 20.35 0.95 20.35 4.45 20.35 9.15 20.35 12.4 20.35 12.4 13.55 8.1 13.55 M14.05 10.7 L14.05 21.45 -13.5 21.45 -13.5 10.7 14.05 10.7" fill="#333333" fill-rule="evenodd" stroke="none"/>
    <path d="M4.0 17.85 L8.75 17.85 9.15 20.35 4.45 20.35 4.0 17.85 M0.1 13.55 L0.7 17.85 -6.3 17.85 -6.95 13.55 0.1 13.55" fill="#cccccc" fill-rule="evenodd" stroke="none"/>
    <path d="M1.75 8.75 L3.4 8.75 3.4 10.15 1.75 10.15 1.75 8.75 M1.1 10.15 L-0.5 10.15 -0.5 8.75 1.1 8.75 1.1 10.15 M-2.75 10.15 L-2.75 8.75 -1.15 8.75 -1.15 10.15 -2.75 10.15" fill="#ff9900" fill-rule="evenodd" stroke="none"/>
    <path d="M-6.65 8.95 L-6.65 6.4 -5.05 6.4 -5.05 8.95 -6.65 8.95" fill="#ff9900" fill-rule="evenodd" stroke="none"/>
    <path d="M-5.05 8.95 L-5.05 10.15 -6.65 10.15 -6.65 8.95 -5.05 8.95" fill="#ffff66" fill-rule="evenodd" stroke="none"/>
    <path d="M5.85 8.95 L5.85 6.2 7.45 6.2 7.45 8.95 5.85 8.95" fill="#ff9900" fill-rule="evenodd" stroke="none"/>
    <path d="M7.45 8.95 L7.45 9.95 5.85 9.95 5.85 8.95 7.45 8.95" fill="#ffff66" fill-rule="evenodd" stroke="none"/>
  </g>
  <defs>
    <linearGradient gradientTransform="matrix(0.0, -0.0085, 0.0039, 0.0, -0.95, -3.65)" gradientUnits="userSpaceOnUse" id="gradient0" spreadMethod="pad" x1="-819.2" x2="819.2">
      <stop offset="0.0" stop-color="#332f30"/>
      <stop offset="0.36470588235294116" stop-color="#dfdbdc"/>
      <stop offset="0.5176470588235295" stop-color="#a7a7a7"/>
      <stop offset="0.6901960784313725" stop-color="#dfdbdc"/>
      <stop offset="1.0" stop-color="#332f30"/>
    </linearGradient>
    <linearGradient gradientTransform="matrix(0.0, -0.0245, 0.0039, 0.0, -0.95, -3.8)" gradientUnits="userSpaceOnUse" id="gradient1" spreadMethod="pad" x1="-819.2" x2="819.2">
      <stop offset="0.0" stop-color="#332f30"/>
      <stop offset="0.36470588235294116" stop-color="#dfdbdc"/>
      <stop offset="0.5176470588235295" stop-color="#a7a7a7"/>
      <stop offset="0.6901960784313725" stop-color="#dfdbdc"/>
      <stop offset="1.0" stop-color="#332f30"/>
    </linearGradient>
    <linearGradient gradientTransform="matrix(0.0, -0.0175, 0.0039, 0.0, -0.55, -17.55)" gradientUnits="userSpaceOnUse" id="gradient2" spreadMethod="pad" x1="-819.2" x2="819.2">
      <stop offset="0.0" stop-color="#332f30"/>
      <stop offset="0.36470588235294116" stop-color="#dfdbdc"/>
      <stop offset="0.5176470588235295" stop-color="#a7a7a7"/>
      <stop offset="0.6901960784313725" stop-color="#dfdbdc"/>
      <stop offset="1.0" stop-color="#332f30"/>
    </linearGradient>
    <linearGradient gradientTransform="matrix(0.0072, 0.0, 0.0, 0.0052, -0.3, -14.75)" gradientUnits="userSpaceOnUse" id="gradient3" spreadMethod="pad" x1="-819.2" x2="819.2">
      <stop offset="0.0" stop-color="#332f30"/>
      <stop offset="0.36470588235294116" stop-color="#dfdbdc"/>
      <stop offset="0.5176470588235295" stop-color="#a7a7a7"/>
      <stop offset="0.6901960784313725" stop-color="#dfdbdc"/>
      <stop offset="1.0" stop-color="#332f30"/>
    </linearGradient>
    <linearGradient gradientTransform="matrix(0.0054, 0.0, 0.0, 0.0053, -0.3, -14.5)" gradientUnits="userSpaceOnUse" id="gradient4" spreadMethod="pad" x1="-819.2" x2="819.2">
      <stop offset="0.0" stop-color="#332f30"/>
      <stop offset="0.36470588235294116" stop-color="#dfdbdc"/>
      <stop offset="0.5176470588235295" stop-color="#a7a7a7"/>
      <stop offset="0.6901960784313725" stop-color="#dfdbdc"/>
      <stop offset="1.0" stop-color="#332f30"/>
    </linearGradient>
    <linearGradient gradientTransform="matrix(0.0072, 0.0, 0.0, 0.0053, -0.3, -14.25)" gradientUnits="userSpaceOnUse" id="gradient5" spreadMethod="pad" x1="-819.2" x2="819.2">
      <stop offset="0.0" stop-color="#332f30"/>
      <stop offset="0.36470588235294116" stop-color="#dfdbdc"/>
      <stop offset="0.5176470588235295" stop-color="#a7a7a7"/>
      <stop offset="0.6901960784313725" stop-color="#dfdbdc"/>
      <stop offset="1.0" stop-color="#332f30"/>
    </linearGradient>
    <linearGradient gradientTransform="matrix(0.0, 0.0065, -0.0041, 0.0, -0.65, -12.3)" gradientUnits="userSpaceOnUse" id="gradient6" spreadMethod="pad" x1="-819.2" x2="819.2">
      <stop offset="0.0" stop-color="#332f30"/>
      <stop offset="0.36470588235294116" stop-color="#dfdbdc"/>
      <stop offset="0.5176470588235295" stop-color="#a7a7a7"/>
      <stop offset="0.6901960784313725" stop-color="#dfdbdc"/>
      <stop offset="1.0" stop-color="#332f30"/>
    </linearGradient>
    <linearGradient gradientTransform="matrix(1.0E-4, 0.0072, -0.0051, 1.0E-4, 3.55, -17.25)" gradientUnits="userSpaceOnUse" id="gradient7" spreadMethod="pad" x1="-819.2" x2="819.2">
      <stop offset="0.0" stop-color="#332f30"/>
      <stop offset="0.36470588235294116" stop-color="#dfdbdc"/>
      <stop offset="0.5176470588235295" stop-color="#a7a7a7"/>
      <stop offset="0.6901960784313725" stop-color="#dfdbdc"/>
      <stop offset="1.0" stop-color="#332f30"/>
    </linearGradient>
    <linearGradient gradientTransform="matrix(0.0021, 0.0, 0.0, 0.0033, -0.25, -20.75)" gradientUnits="userSpaceOnUse" id="gradient8" spreadMethod="pad" x1="-819.2" x2="819.2">
      <stop offset="0.0" stop-color="#332f30"/>
      <stop offset="0.36470588235294116" stop-color="#dfdbdc"/>
      <stop offset="0.5176470588235295" stop-color="#a7a7a7"/>
      <stop offset="0.6901960784313725" stop-color="#dfdbdc"/>
      <stop offset="1.0" stop-color="#332f30"/>
    </linearGradient>
    <linearGradient gradientTransform="matrix(0.0016, 0.0, 0.0, 0.0034, -0.25, -20.55)" gradientUnits="userSpaceOnUse" id="gradient9" spreadMethod="pad" x1="-819.2" x2="819.2">
      <stop offset="0.0" stop-color="#332f30"/>
      <stop offset="0.36470588235294116" stop-color="#dfdbdc"/>
      <stop offset="0.5176470588235295" stop-color="#a7a7a7"/>
      <stop offset="0.6901960784313725" stop-color="#dfdbdc"/>
      <stop offset="1.0" stop-color="#332f30"/>
    </linearGradient>
    <linearGradient gradientTransform="matrix(0.0021, 0.0, 0.0, 0.0034, -0.25, -20.4)" gradientUnits="userSpaceOnUse" id="gradient10" spreadMethod="pad" x1="-819.2" x2="819.2">
      <stop offset="0.0" stop-color="#332f30"/>
      <stop offset="0.36470588235294116" stop-color="#dfdbdc"/>
      <stop offset="0.5176470588235295" stop-color="#a7a7a7"/>
      <stop offset="0.6901960784313725" stop-color="#dfdbdc"/>
      <stop offset="1.0" stop-color="#332f30"/>
    </linearGradient>
    <linearGradient gradientTransform="matrix(0.0, 0.0042, -0.0012, 0.0, -0.35, -19.15)" gradientUnits="userSpaceOnUse" id="gradient11" spreadMethod="pad" x1="-819.2" x2="819.2">
      <stop offset="0.0" stop-color="#332f30"/>
      <stop offset="0.36470588235294116" stop-color="#dfdbdc"/>
      <stop offset="0.5176470588235295" stop-color="#a7a7a7"/>
      <stop offset="0.6901960784313725" stop-color="#dfdbdc"/>
      <stop offset="1.0" stop-color="#332f30"/>
    </linearGradient>
    <linearGradient gradientTransform="matrix(0.0, 0.0046, -0.0015, 0.0, 0.9, -22.35)" gradientUnits="userSpaceOnUse" id="gradient12" spreadMethod="pad" x1="-819.2" x2="819.2">
      <stop offset="0.0" stop-color="#332f30"/>
      <stop offset="0.36470588235294116" stop-color="#dfdbdc"/>
      <stop offset="0.5176470588235295" stop-color="#a7a7a7"/>
      <stop offset="0.6901960784313725" stop-color="#dfdbdc"/>
      <stop offset="1.0" stop-color="#332f30"/>
    </linearGradient>
    <linearGradient gradientTransform="matrix(0.0021, 0.0, 0.0, 0.0023, -0.25, -25.35)" gradientUnits="userSpaceOnUse" id="gradient13" spreadMethod="pad" x1="-819.2" x2="819.2">
      <stop offset="0.0" stop-color="#332f30"/>
      <stop offset="0.36470588235294116" stop-color="#dfdbdc"/>
      <stop offset="0.5176470588235295" stop-color="#a7a7a7"/>
      <stop offset="0.6901960784313725" stop-color="#dfdbdc"/>
      <stop offset="1.0" stop-color="#332f30"/>
    </linearGradient>
    <linearGradient gradientTransform="matrix(0.0016, 0.0, 0.0, 0.0023, -0.25, -25.25)" gradientUnits="userSpaceOnUse" id="gradient14" spreadMethod="pad" x1="-819.2" x2="819.2">
      <stop offset="0.0" stop-color="#332f30"/>
      <stop offset="0.36470588235294116" stop-color="#dfdbdc"/>
      <stop offset="0.5176470588235295" stop-color="#a7a7a7"/>
      <stop offset="0.6901960784313725" stop-color="#dfdbdc"/>
      <stop offset="1.0" stop-color="#332f30"/>
    </linearGradient>
    <linearGradient gradientTransform="matrix(0.0021, 0.0, 0.0, 0.0023, -0.25, -25.15)" gradientUnits="userSpaceOnUse" id="gradient15" spreadMethod="pad" x1="-819.2" x2="819.2">
      <stop offset="0.0" stop-color="#332f30"/>
      <stop offset="0.36470588235294116" stop-color="#dfdbdc"/>
      <stop offset="0.5176470588235295" stop-color="#a7a7a7"/>
      <stop offset="0.6901960784313725" stop-color="#dfdbdc"/>
      <stop offset="1.0" stop-color="#332f30"/>
    </linearGradient>
    <linearGradient gradientTransform="matrix(0.0, 0.0028, -0.0012, 0.0, -0.35, -24.3)" gradientUnits="userSpaceOnUse" id="gradient16" spreadMethod="pad" x1="-819.2" x2="819.2">
      <stop offset="0.0" stop-color="#332f30"/>
      <stop offset="0.36470588235294116" stop-color="#dfdbdc"/>
      <stop offset="0.5176470588235295" stop-color="#a7a7a7"/>
      <stop offset="0.6901960784313725" stop-color="#dfdbdc"/>
      <stop offset="1.0" stop-color="#332f30"/>
    </linearGradient>
    <linearGradient gradientTransform="matrix(0.0, 0.0032, -0.0015, 0.0, 0.9, -26.45)" gradientUnits="userSpaceOnUse" id="gradient17" spreadMethod="pad" x1="-819.2" x2="819.2">
      <stop offset="0.0" stop-color="#332f30"/>
      <stop offset="0.36470588235294116" stop-color="#dfdbdc"/>
      <stop offset="0.5176470588235295" stop-color="#a7a7a7"/>
      <stop offset="0.6901960784313725" stop-color="#dfdbdc"/>
      <stop offset="1.0" stop-color="#332f30"/>
    </linearGradient>
    <linearGradient gradientTransform="matrix(0.0016, 0.0, 0.0, 0.0067, -2.0, -6.9)" gradientUnits="userSpaceOnUse" id="gradient18" spreadMethod="pad" x1="-819.2" x2="819.2">
      <stop offset="0.0" stop-color="#332f30"/>
      <stop offset="0.36470588235294116" stop-color="#dfdbdc"/>
      <stop offset="0.5176470588235295" stop-color="#a7a7a7"/>
      <stop offset="0.6901960784313725" stop-color="#dfdbdc"/>
      <stop offset="1.0" stop-color="#332f30"/>
    </linearGradient>
    <linearGradient gradientTransform="matrix(0.0, 0.0082, -9.0E-4, 0.0, -2.1, -4.45)" gradientUnits="userSpaceOnUse" id="gradient19" spreadMethod="pad" x1="-819.2" x2="819.2">
      <stop offset="0.0" stop-color="#332f30"/>
      <stop offset="0.36470588235294116" stop-color="#dfdbdc"/>
      <stop offset="0.5176470588235295" stop-color="#a7a7a7"/>
      <stop offset="0.6901960784313725" stop-color="#dfdbdc"/>
      <stop offset="1.0" stop-color="#332f30"/>
    </linearGradient>
    <linearGradient gradientTransform="matrix(0.0012, 0.0, 0.0, 0.0067, -2.0, -7.2)" gradientUnits="userSpaceOnUse" id="gradient20" spreadMethod="pad" x1="-819.2" x2="819.2">
      <stop offset="0.0" stop-color="#332f30"/>
      <stop offset="0.36470588235294116" stop-color="#dfdbdc"/>
      <stop offset="0.5176470588235295" stop-color="#a7a7a7"/>
      <stop offset="0.6901960784313725" stop-color="#dfdbdc"/>
      <stop offset="1.0" stop-color="#332f30"/>
    </linearGradient>
    <linearGradient gradientTransform="matrix(0.0016, 0.0, 0.0, 0.0066, -2.0, -7.5)" gradientUnits="userSpaceOnUse" id="gradient21" spreadMethod="pad" x1="-819.2" x2="819.2">
      <stop offset="0.0" stop-color="#332f30"/>
      <stop offset="0.36470588235294116" stop-color="#dfdbdc"/>
      <stop offset="0.5176470588235295" stop-color="#a7a7a7"/>
      <stop offset="0.6901960784313725" stop-color="#dfdbdc"/>
      <stop offset="1.0" stop-color="#332f30"/>
    </linearGradient>
    <linearGradient gradientTransform="matrix(0.0, 0.0091, -0.0011, 1.0E-4, -1.15, -10.7)" gradientUnits="userSpaceOnUse" id="gradient22" spreadMethod="pad" x1="-819.2" x2="819.2">
      <stop offset="0.0" stop-color="#332f30"/>
      <stop offset="0.36470588235294116" stop-color="#dfdbdc"/>
      <stop offset="0.5176470588235295" stop-color="#a7a7a7"/>
      <stop offset="0.6901960784313725" stop-color="#dfdbdc"/>
      <stop offset="1.0" stop-color="#332f30"/>
    </linearGradient>
    <linearGradient gradientTransform="matrix(0.0016, 0.0, 0.0, 0.0067, 1.8, -6.9)" gradientUnits="userSpaceOnUse" id="gradient23" spreadMethod="pad" x1="-819.2" x2="819.2">
      <stop offset="0.0" stop-color="#332f30"/>
      <stop offset="0.36470588235294116" stop-color="#dfdbdc"/>
      <stop offset="0.5176470588235295" stop-color="#a7a7a7"/>
      <stop offset="0.6901960784313725" stop-color="#dfdbdc"/>
      <stop offset="1.0" stop-color="#332f30"/>
    </linearGradient>
    <linearGradient gradientTransform="matrix(0.0012, 0.0, 0.0, 0.0067, 1.8, -7.2)" gradientUnits="userSpaceOnUse" id="gradient24" spreadMethod="pad" x1="-819.2" x2="819.2">
      <stop offset="0.0" stop-color="#332f30"/>
      <stop offset="0.36470588235294116" stop-color="#dfdbdc"/>
      <stop offset="0.5176470588235295" stop-color="#a7a7a7"/>
      <stop offset="0.6901960784313725" stop-color="#dfdbdc"/>
      <stop offset="1.0" stop-color="#332f30"/>
    </linearGradient>
    <linearGradient gradientTransform="matrix(0.0, 0.0082, -9.0E-4, 0.0, 1.7, -4.45)" gradientUnits="userSpaceOnUse" id="gradient25" spreadMethod="pad" x1="-819.2" x2="819.2">
      <stop offset="0.0" stop-color="#332f30"/>
      <stop offset="0.36470588235294116" stop-color="#dfdbdc"/>
      <stop offset="0.5176470588235295" stop-color="#a7a7a7"/>
      <stop offset="0.6901960784313725" stop-color="#dfdbdc"/>
      <stop offset="1.0" stop-color="#332f30"/>
    </linearGradient>
    <linearGradient gradientTransform="matrix(0.0016, 0.0, 0.0, 0.0066, 1.8, -7.5)" gradientUnits="userSpaceOnUse" id="gradient26" spreadMethod="pad" x1="-819.2" x2="819.2">
      <stop offset="0.0" stop-color="#332f30"/>
      <stop offset="0.36470588235294116" stop-color="#dfdbdc"/>
      <stop offset="0.5176470588235295" stop-color="#a7a7a7"/>
      <stop offset="0.6901960784313725" stop-color="#dfdbdc"/>
      <stop offset="1.0" stop-color="#332f30"/>
    </linearGradient>
    <linearGradient gradientTransform="matrix(0.0, 0.0091, -0.0011, 1.0E-4, 2.65, -10.7)" gradientUnits="userSpaceOnUse" id="gradient27" spreadMethod="pad" x1="-819.2" x2="819.2">
      <stop offset="0.0" stop-color="#332f30"/>
      <stop offset="0.36470588235294116" stop-color="#dfdbdc"/>
      <stop offset="0.5176470588235295" stop-color="#a7a7a7"/>
      <stop offset="0.6901960784313725" stop-color="#dfdbdc"/>
      <stop offset="1.0" stop-color="#332f30"/>
    </linearGradient>
    <linearGradient gradientTransform="matrix(-1.0E-4, -0.0089, -0.0092, 2.0E-4, 10.9, 24.05)" gradientUnits="userSpaceOnUse" id="gradient28" spreadMethod="pad" x1="-819.2" x2="819.2">
      <stop offset="0.00784313725490196" stop-color="#794d20"/>
      <stop offset="0.7294117647058823" stop-color="#b06d0b"/>
      <stop offset="1.0" stop-color="#532e0b"/>
    </linearGradient>
    <linearGradient gradientTransform="matrix(1.0E-4, -0.0089, 0.0092, 2.0E-4, -10.3, 24.05)" gradientUnits="userSpaceOnUse" id="gradient29" spreadMethod="pad" x1="-819.2" x2="819.2">
      <stop offset="0.00784313725490196" stop-color="#794d20"/>
      <stop offset="0.7294117647058823" stop-color="#b06d0b"/>
      <stop offset="1.0" stop-color="#532e0b"/>
    </linearGradient>
    <linearGradient gradientTransform="matrix(-1.0E-4, 0.0069, -0.0122, -1.0E-4, -0.25, 24.05)" gradientUnits="userSpaceOnUse" id="gradient30" spreadMethod="pad" x1="-819.2" x2="819.2">
      <stop offset="0.00784313725490196" stop-color="#794d20"/>
      <stop offset="0.7294117647058823" stop-color="#b06d0b"/>
      <stop offset="1.0" stop-color="#532e0b"/>
    </linearGradient>
    <radialGradient cx="0" cy="0" gradientTransform="matrix(0.0046, 0.0, 0.0, 0.0032, -7.75, 31.55)" gradientUnits="userSpaceOnUse" id="gradient31" r="819.2" spreadMethod="pad">
      <stop offset="0.0" stop-color="#ffffff"/>
      <stop offset="1.0" stop-color="#ffffff" stop-opacity="0.0"/>
    </radialGradient>
    <radialGradient cx="0" cy="0" gradientTransform="matrix(-0.0046, 0.0, 0.0, 0.0032, 8.45, 31.55)" gradientUnits="userSpaceOnUse" id="gradient32" r="819.2" spreadMethod="pad">
      <stop offset="0.0" stop-color="#ffffff"/>
      <stop offset="1.0" stop-color="#ffffff" stop-opacity="0.0"/>
    </radialGradient>
  </defs>
</svg>
