<?xml version="1.0" encoding="UTF-8" standalone="no"?>
<svg xmlns:xlink="http://www.w3.org/1999/xlink" height="9.35px" width="37.1px" xmlns="http://www.w3.org/2000/svg">
  <g transform="matrix(1, 0, 0, 1, 18.55, -0.35)">
    <path d="M16.85 9.15 Q16.3 9.7 15.5 9.7 14.7 9.7 14.15 9.15 13.6 8.6 13.6 7.8 13.6 7.0 14.15 6.4 14.7 5.85 15.5 5.85 16.3 5.85 16.85 6.4 17.45 7.0 17.45 7.8 17.45 8.6 16.85 9.15" fill="#d1cbcf" fill-rule="evenodd" stroke="none"/>
    <path d="M16.8 8.8 Q16.45 9.15 15.95 9.15 15.45 9.15 15.05 8.8 14.7 8.45 14.7 7.9 14.7 7.4 15.05 7.05 15.45 6.7 15.95 6.7 16.45 6.7 16.8 7.05 17.2 7.4 17.2 7.9 17.2 8.45 16.8 8.8" fill="#51454f" fill-rule="evenodd" stroke="none"/>
    <path d="M-13.95 8.75 Q-14.5 9.3 -15.3 9.3 -16.1 9.3 -16.65 8.75 -17.2 8.2 -17.2 7.4 -17.2 6.6 -16.65 6.0 -16.1 5.45 -15.3 5.45 -14.5 5.45 -13.95 6.0 -13.35 6.6 -13.35 7.4 -13.35 8.2 -13.95 8.75" fill="#d1cbcf" fill-rule="evenodd" stroke="none"/>
    <path d="M-13.95 8.45 Q-14.3 8.8 -14.8 8.8 -15.3 8.8 -15.7 8.45 -16.05 8.1 -16.05 7.55 -16.05 7.05 -15.7 6.7 -15.3 6.35 -14.8 6.35 -14.3 6.35 -13.95 6.7 -13.55 7.05 -13.55 7.55 -13.55 8.1 -13.95 8.45" fill="#51454f" fill-rule="evenodd" stroke="none"/>
    <path d="M17.85 4.55 Q17.1 5.25 16.1 5.25 15.1 5.25 14.35 4.55 13.65 3.8 13.65 2.8 13.65 1.8 14.35 1.05 15.1 0.35 16.1 0.35 17.1 0.35 17.85 1.05 18.55 1.8 18.55 2.8 18.55 3.8 17.85 4.55" fill="#d1cbcf" fill-rule="evenodd" stroke="none"/>
    <path d="M17.75 4.1 Q17.3 4.55 16.65 4.55 16.0 4.55 15.5 4.1 15.05 3.6 15.05 2.95 15.05 2.3 15.5 1.85 16.0 1.4 16.65 1.4 17.3 1.4 17.75 1.85 18.25 2.3 18.25 2.95 18.25 3.6 17.75 4.1" fill="#51454f" fill-rule="evenodd" stroke="none"/>
    <path d="M-14.1 4.95 Q-14.9 5.7 -15.95 5.7 -17.0 5.7 -17.8 4.95 -18.55 4.2 -18.55 3.1 -18.55 2.05 -17.8 1.3 -17.0 0.5 -15.95 0.5 -14.9 0.5 -14.1 1.3 -13.35 2.05 -13.35 3.1 -13.35 4.2 -14.1 4.95" fill="#d1cbcf" fill-rule="evenodd" stroke="none"/>
    <path d="M-14.2 4.45 Q-14.7 4.95 -15.4 4.95 -16.05 4.95 -16.55 4.45 -17.05 3.95 -17.05 3.3 -17.05 2.6 -16.55 2.1 -16.05 1.6 -15.4 1.6 -14.7 1.6 -14.2 2.1 -13.7 2.6 -13.7 3.3 -13.7 3.95 -14.2 4.45" fill="#51454f" fill-rule="evenodd" stroke="none"/>
  </g>
</svg>
