<?xml version="1.0" encoding="UTF-8" standalone="no"?>
<svg xmlns:xlink="http://www.w3.org/1999/xlink" height="67.25px" width="31.35px" xmlns="http://www.w3.org/2000/svg">
  <g transform="matrix(1, 0, 0, 1, 15.75, 0.4)">
    <path d="M-15.75 2.35 L14.85 2.35 14.85 3.15 -15.75 3.15 -15.75 2.35" fill="#a7a7a7" fill-rule="evenodd" stroke="none"/>
    <path d="M-15.75 2.35 L-15.75 0.95 14.85 0.95 14.85 2.35 -15.75 2.35" fill="#797576" fill-rule="evenodd" stroke="none"/>
    <path d="M12.0 33.75 L12.0 34.75 -12.0 34.75 -12.0 33.75 12.0 33.75" fill="#5b5758" fill-rule="evenodd" stroke="none"/>
    <path d="M-12.0 33.75 L-12.0 31.3 12.0 31.3 12.0 33.75 -12.0 33.75" fill="#262425" fill-rule="evenodd" stroke="none"/>
    <path d="M14.85 31.75 L-15.7 31.75 -15.7 30.4 14.85 30.4 14.85 31.75" fill="#797576" fill-rule="evenodd" stroke="none"/>
    <path d="M14.85 31.75 L14.85 32.6 -15.7 32.6 -15.7 31.75 14.85 31.75" fill="#a7a7a7" fill-rule="evenodd" stroke="none"/>
    <path d="M-12.0 25.45 L-12.0 23.75 12.0 23.75 12.0 25.45 -12.0 25.45" fill="#262425" fill-rule="evenodd" stroke="none"/>
    <path d="M12.0 25.45 L12.0 26.15 -12.0 26.15 -12.0 25.45 12.0 25.45" fill="#5b5758" fill-rule="evenodd" stroke="none"/>
    <path d="M12.0 9.7 L12.0 10.4 -12.0 10.4 -12.0 9.7 12.0 9.7" fill="#5b5758" fill-rule="evenodd" stroke="none"/>
    <path d="M-12.0 9.7 L-12.0 8.0 12.0 8.0 12.0 9.7 -12.0 9.7" fill="#262425" fill-rule="evenodd" stroke="none"/>
    <path d="M6.75 0.55 L-6.95 0.55 -6.95 -0.4 6.75 -0.4 6.75 0.55" fill="#5b5758" fill-rule="evenodd" stroke="none"/>
    <path d="M6.75 0.55 L6.75 2.75 -6.95 2.75 -6.95 0.55 6.75 0.55" fill="#a7a7a7" fill-rule="evenodd" stroke="none"/>
    <path d="M6.3 30.45 L6.3 0.45 6.8 0.45 6.8 30.45 6.3 30.45" fill="#5b5758" fill-rule="evenodd" stroke="none"/>
    <path d="M6.3 30.45 L5.1 30.45 5.1 0.45 6.3 0.45 6.3 30.45" fill="#a7a7a7" fill-rule="evenodd" stroke="none"/>
    <path d="M-6.65 0.45 L-5.45 0.45 -5.45 30.45 -6.65 30.45 -6.65 0.45" fill="#a7a7a7" fill-rule="evenodd" stroke="none"/>
    <path d="M-6.65 30.45 L-7.15 30.45 -7.15 0.45 -6.65 0.45 -6.65 30.45" fill="#5b5758" fill-rule="evenodd" stroke="none"/>
    <path d="M-5.35 23.85 L-4.8 23.85 -4.8 22.1 4.5 22.1 4.5 23.85 5.15 23.85 5.15 24.9 4.5 24.9 4.5 29.15 -4.8 29.15 -4.8 24.9 -5.35 24.9 -5.35 23.85 M1.2 24.9 L1.2 23.85 -1.85 23.85 -1.85 24.9 1.2 24.9" fill="url(#gradient0)" fill-rule="evenodd" stroke="none"/>
    <path d="M5.15 23.85 L4.5 23.85 4.5 22.1 -4.8 22.1 -4.8 23.85 -5.35 23.85 -5.35 21.45 5.15 21.45 5.15 23.85 M-5.35 24.9 L-4.8 24.9 -4.8 29.15 -5.35 29.15 -5.35 24.9 M4.5 29.15 L4.5 24.9 5.15 24.9 5.15 29.15 4.5 29.15 M1.2 24.9 L-1.85 24.9 -1.85 23.85 1.2 23.85 1.2 24.9" fill="#5a5657" fill-rule="evenodd" stroke="none"/>
    <path d="M-4.8 29.15 L4.5 29.15 5.15 29.15 5.15 30.4 -5.35 30.4 -5.35 29.15 -4.8 29.15" fill="#3f3b3c" fill-rule="evenodd" stroke="none"/>
    <path d="M4.95 9.65 L4.95 10.55 4.3 10.55 4.3 14.3 -5.05 14.3 -5.05 10.55 -5.65 10.55 -5.65 9.65 -5.05 9.65 -5.05 8.05 4.3 8.05 4.3 9.65 4.95 9.65 M0.95 10.55 L0.95 9.65 -2.15 9.65 -2.15 10.55 0.95 10.55" fill="url(#gradient1)" fill-rule="evenodd" stroke="none"/>
    <path d="M4.95 10.55 L4.95 14.3 4.3 14.3 4.3 10.55 4.95 10.55 M-5.65 14.3 L-5.65 10.55 -5.05 10.55 -5.05 14.3 -5.65 14.3 M-5.65 9.65 L-5.65 7.5 4.95 7.5 4.95 9.65 4.3 9.65 4.3 8.05 -5.05 8.05 -5.05 9.65 -5.65 9.65 M0.95 10.55 L-2.15 10.55 -2.15 9.65 0.95 9.65 0.95 10.55" fill="#5a5657" fill-rule="evenodd" stroke="none"/>
    <path d="M4.95 14.3 L4.95 15.45 -5.65 15.45 -5.65 14.3 -5.05 14.3 4.3 14.3 4.95 14.3" fill="#3f3b3c" fill-rule="evenodd" stroke="none"/>
    <path d="M5.0 4.9 L4.35 4.9 1.05 4.9 1.05 4.25 4.35 4.25 5.0 4.25 5.0 4.9 M4.35 7.6 L5.0 7.6 5.0 8.4 -5.5 8.4 -5.5 7.6 -4.9 7.6 4.35 7.6 M-4.9 4.25 L-2.0 4.25 -2.0 4.9 -4.9 4.9 -5.5 4.9 -5.5 4.25 -4.9 4.25" fill="#3f3b3c" fill-rule="evenodd" stroke="none"/>
    <path d="M4.35 4.9 L5.0 4.9 5.0 7.6 4.35 7.6 4.35 4.9 M5.0 4.25 L4.35 4.25 4.35 3.15 -4.9 3.15 -4.9 4.25 -5.5 4.25 -5.5 2.7 5.0 2.7 5.0 4.25 M-5.5 7.6 L-5.5 4.9 -4.9 4.9 -4.9 7.6 -5.5 7.6" fill="#5a5657" fill-rule="evenodd" stroke="none"/>
    <path d="M4.35 4.25 L1.05 4.25 -2.0 4.25 -4.9 4.25 -4.9 3.15 4.35 3.15 4.35 4.25 M1.05 4.9 L4.35 4.9 4.35 7.6 -4.9 7.6 -4.9 4.9 -2.0 4.9 1.05 4.9" fill="url(#gradient2)" fill-rule="evenodd" stroke="none"/>
    <path d="M1.05 4.25 L1.05 4.9 -2.0 4.9 -2.0 4.25 1.05 4.25" fill="#b2aeaf" fill-rule="evenodd" stroke="none"/>
    <path d="M5.65 21.85 L5.65 22.45 -6.15 22.45 -6.15 21.85 5.65 21.85" fill="url(#gradient3)" fill-rule="evenodd" stroke="none"/>
    <path d="M5.65 20.1 L5.65 21.85 -6.15 21.85 -6.15 20.1 5.65 20.1" fill="url(#gradient4)" fill-rule="evenodd" stroke="none"/>
    <path d="M5.65 18.3 L5.65 20.1 -6.15 20.1 -6.15 18.3 5.65 18.3" fill="url(#gradient5)" fill-rule="evenodd" stroke="none"/>
    <path d="M5.65 16.35 L5.65 18.3 -6.15 18.3 -6.15 16.35 5.65 16.35" fill="url(#gradient6)" fill-rule="evenodd" stroke="none"/>
    <path d="M-6.15 16.35 L-6.15 15.75 5.65 15.75 5.65 16.35 -6.15 16.35" fill="url(#gradient7)" fill-rule="evenodd" stroke="none"/>
    <path d="M-2.0 12.45 L-2.0 11.2 1.5 11.2 1.5 12.45 -2.0 12.45" fill="url(#gradient8)" fill-rule="evenodd" stroke="none"/>
    <path d="M-2.0 11.2 L-2.0 10.85 1.5 10.85 1.5 11.2 -2.0 11.2" fill="url(#gradient9)" fill-rule="evenodd" stroke="none"/>
    <path d="M1.5 14.75 L1.5 15.1 -2.0 15.1 -2.0 14.75 1.5 14.75" fill="url(#gradient10)" fill-rule="evenodd" stroke="none"/>
    <path d="M1.5 13.6 L1.5 14.75 -2.0 14.75 -2.0 13.6 1.5 13.6" fill="url(#gradient11)" fill-rule="evenodd" stroke="none"/>
    <path d="M1.5 12.45 L1.5 13.6 -2.0 13.6 -2.0 12.45 1.5 12.45" fill="url(#gradient12)" fill-rule="evenodd" stroke="none"/>
    <path d="M1.5 7.05 L-2.0 7.05 -2.0 6.8 1.5 6.8 1.5 7.05" fill="url(#gradient13)" fill-rule="evenodd" stroke="none"/>
    <path d="M1.5 8.7 L1.5 9.45 -2.0 9.45 -2.0 8.7 1.5 8.7" fill="url(#gradient14)" fill-rule="evenodd" stroke="none"/>
    <path d="M-2.0 7.9 L1.5 7.9 1.5 8.7 -2.0 8.7 -2.0 7.9" fill="url(#gradient15)" fill-rule="evenodd" stroke="none"/>
    <path d="M1.5 9.45 L1.5 9.7 -2.0 9.7 -2.0 9.45 1.5 9.45" fill="url(#gradient16)" fill-rule="evenodd" stroke="none"/>
    <path d="M1.5 7.05 L1.5 7.9 -2.0 7.9 -2.0 7.05 1.5 7.05" fill="url(#gradient17)" fill-rule="evenodd" stroke="none"/>
    <path d="M-3.3 22.9 L-0.7 22.9 -0.7 25.4 -3.3 25.4 -3.3 22.9" fill="url(#gradient18)" fill-rule="evenodd" stroke="none"/>
    <path d="M-0.7 22.9 L-3.3 22.9 -3.3 22.2 -0.7 22.2 -0.7 22.9" fill="url(#gradient19)" fill-rule="evenodd" stroke="none"/>
    <path d="M-3.3 25.4 L-0.7 25.4 -0.7 27.65 -3.3 27.65 -3.3 25.4" fill="url(#gradient20)" fill-rule="evenodd" stroke="none"/>
    <path d="M-0.7 29.95 L-0.7 30.65 -3.3 30.65 -3.3 29.95 -0.7 29.95" fill="url(#gradient21)" fill-rule="evenodd" stroke="none"/>
    <path d="M-0.7 27.65 L-0.7 29.95 -3.3 29.95 -3.3 27.65 -0.7 27.65" fill="url(#gradient22)" fill-rule="evenodd" stroke="none"/>
    <path d="M0.5 22.9 L3.1 22.9 3.1 25.4 0.5 25.4 0.5 22.9" fill="url(#gradient23)" fill-rule="evenodd" stroke="none"/>
    <path d="M3.1 22.9 L0.5 22.9 0.5 22.2 3.1 22.2 3.1 22.9" fill="url(#gradient24)" fill-rule="evenodd" stroke="none"/>
    <path d="M0.5 25.4 L3.1 25.4 3.1 27.65 0.5 27.65 0.5 25.4" fill="url(#gradient25)" fill-rule="evenodd" stroke="none"/>
    <path d="M3.1 29.95 L3.1 30.65 0.5 30.65 0.5 29.95 3.1 29.95" fill="url(#gradient26)" fill-rule="evenodd" stroke="none"/>
    <path d="M3.1 27.65 L3.1 29.95 0.5 29.95 0.5 27.65 3.1 27.65" fill="url(#gradient27)" fill-rule="evenodd" stroke="none"/>
    <path d="M7.3 58.8 L7.3 50.9 7.4 50.05 7.55 49.8 7.75 49.75 8.25 49.7 13.75 49.7 14.25 49.8 14.35 49.9 14.35 49.95 14.5 50.45 14.5 58.8 7.3 58.8" fill="url(#gradient28)" fill-rule="evenodd" stroke="none"/>
    <path d="M7.3 58.8 L14.5 58.8 14.5 65.05 14.35 65.25 14.1 65.35 14.0 65.4 7.6 65.4 7.5 65.35 7.4 65.15 7.3 64.8 7.3 58.8" fill="url(#gradient29)" fill-rule="evenodd" stroke="none"/>
    <path d="M7.15 61.5 L7.15 61.25 13.0 61.25 Q14.05 62.15 13.0 62.45 L12.15 62.45 12.15 61.8 9.85 61.8 9.85 61.5 7.15 61.5" fill="#ea7051" fill-rule="evenodd" stroke="none"/>
    <path d="M7.15 61.5 L9.85 61.5 9.85 61.8 9.85 62.45 7.15 62.45 7.15 61.5" fill="#ffffff" fill-rule="evenodd" stroke="none"/>
    <path d="M9.85 61.8 L12.15 61.8 12.15 62.45 9.85 62.45 9.85 61.8" fill="#f19f8b" fill-rule="evenodd" stroke="none"/>
    <path d="M-13.9 58.65 L-13.9 50.15 -13.6 49.75 -13.15 49.7 -7.15 49.7 -6.85 49.8 -6.8 49.9 -6.7 50.05 -6.65 50.55 -6.65 58.65 -13.9 58.65" fill="url(#gradient30)" fill-rule="evenodd" stroke="none"/>
    <path d="M-13.9 58.65 L-6.65 58.65 -6.65 64.85 -6.75 65.1 -6.8 65.2 Q-7.1 65.2 -7.25 65.4 L-12.95 65.4 -13.15 65.35 -13.65 65.25 -13.7 65.2 -13.9 64.45 -13.9 58.65" fill="url(#gradient31)" fill-rule="evenodd" stroke="none"/>
    <path d="M-6.6 61.5 L-9.3 61.5 -9.3 61.8 -11.65 61.8 -11.65 62.45 -12.45 62.45 Q-13.5 62.15 -12.45 61.25 L-6.6 61.25 -6.6 61.5" fill="#ea7051" fill-rule="evenodd" stroke="none"/>
    <path d="M-9.3 61.8 L-9.3 61.5 -6.6 61.5 -6.6 62.45 -9.3 62.45 -9.3 61.8" fill="#ffffff" fill-rule="evenodd" stroke="none"/>
    <path d="M-11.65 62.45 L-11.65 61.8 -9.3 61.8 -9.3 62.45 -11.65 62.45" fill="#f19f8b" fill-rule="evenodd" stroke="none"/>
    <path d="M-8.95 64.7 L-11.5 64.7 -11.5 63.55 -8.95 63.55 -8.95 64.7" fill="#ff9900" fill-rule="evenodd" stroke="none"/>
    <path d="M-11.5 64.7 L-8.95 64.7 -8.95 66.85 -11.5 66.85 -11.5 64.7" fill="#ffff99" fill-rule="evenodd" stroke="none"/>
    <path d="M12.1 64.7 L12.1 66.85 9.65 66.85 9.65 64.7 12.1 64.7" fill="#ffff99" fill-rule="evenodd" stroke="none"/>
    <path d="M9.65 64.7 L9.65 63.55 12.1 63.55 12.1 64.7 9.65 64.7" fill="#ff9900" fill-rule="evenodd" stroke="none"/>
    <path d="M-6.85 64.95 L-6.85 64.65 7.15 64.65 7.15 64.95 7.15 65.5 -6.85 65.5 -6.85 64.95" fill="#8d7e58" fill-rule="evenodd" stroke="none"/>
    <path d="M7.15 65.5 L7.15 65.9 -0.9 66.15 -0.9 66.05 -6.85 65.9 -6.85 65.5 7.15 65.5" fill="#2c3023" fill-rule="evenodd" stroke="none"/>
    <path d="M9.95 52.05 L-0.6 52.5 -9.75 52.05 -6.65 64.15 6.8 64.15 9.95 52.05 M-6.85 64.95 L-8.4 64.85 -11.2 51.05 11.6 51.05 8.65 64.85 7.15 64.95 7.15 64.65 -6.85 64.65 -6.85 64.95" fill="#d7b953" fill-rule="evenodd" stroke="none"/>
    <path d="M9.95 52.05 L6.8 64.15 -6.65 64.15 -9.75 52.05 -0.6 52.5 9.95 52.05" fill="url(#gradient32)" fill-rule="evenodd" stroke="none"/>
    <path d="M-4.1 65.15 L-8.2 65.15 -8.75 62.6 -7.75 62.5 Q-6.2 62.5 -5.15 63.2 -4.1 64.0 -4.1 65.05 L-4.1 65.15" fill="url(#gradient33)" fill-rule="evenodd" stroke="none"/>
    <path d="M4.8 65.15 L4.8 65.05 Q4.8 64.0 5.85 63.2 6.9 62.5 8.45 62.5 L9.45 62.6 8.9 65.15 4.8 65.15" fill="url(#gradient34)" fill-rule="evenodd" stroke="none"/>
    <path d="M13.25 36.05 Q14.25 40.85 13.75 45.65 13.45 49.7 12.7 53.6 L-12.15 53.6 -13.1 45.65 Q-13.5 40.7 -12.6 36.05 L13.25 36.05" fill="#f4e871" fill-rule="evenodd" stroke="none"/>
    <path d="M13.25 36.05 L-12.6 36.05 Q-13.5 40.7 -13.1 45.65 L-12.15 53.6 12.7 53.6 Q13.45 49.7 13.75 45.65 14.25 40.85 13.25 36.05 M14.15 54.85 L-13.5 54.85 -13.75 53.6 Q-15.45 44.3 -14.8 34.55 L15.5 34.55 Q16.0 44.3 14.4 53.6 L14.15 54.85" fill="#d7b953" fill-rule="evenodd" stroke="none"/>
    <path d="M8.1 50.05 L12.45 50.05 12.45 55.6 9.15 55.6 8.8 53.55 8.1 50.05 M4.45 55.6 L0.95 55.6 0.75 53.55 0.15 50.05 3.35 50.05 4.0 53.55 4.45 55.6 M-5.9 55.6 L-11.9 55.6 -11.9 50.05 -6.95 50.05 -6.3 53.55 -5.9 55.6" fill="#666666" fill-rule="evenodd" stroke="none"/>
    <path d="M9.15 55.6 L12.45 55.6 12.45 50.05 8.1 50.05 3.35 50.05 0.15 50.05 -6.95 50.05 -11.9 50.05 -11.9 55.6 -5.9 55.6 0.95 55.6 4.45 55.6 9.15 55.6 M14.1 47.75 L14.1 56.45 -13.5 56.45 -13.5 47.75 14.1 47.75" fill="#333333" fill-rule="evenodd" stroke="none"/>
    <path d="M8.1 50.05 L8.8 53.55 4.0 53.55 3.35 50.05 8.1 50.05 M0.95 55.6 L-5.9 55.6 -6.3 53.55 0.75 53.55 0.95 55.6" fill="#999999" fill-rule="evenodd" stroke="none"/>
    <path d="M8.8 53.55 L9.15 55.6 4.45 55.6 4.0 53.55 8.8 53.55 M-6.95 50.05 L0.15 50.05 0.75 53.55 -6.3 53.55 -6.95 50.05" fill="#cccccc" fill-rule="evenodd" stroke="none"/>
    <path d="M1.65 46.45 L1.65 45.05 3.25 45.05 3.25 46.45 1.65 46.45 M1.0 46.45 L-0.65 46.45 -0.65 45.05 1.0 45.05 1.0 46.45 M-2.9 45.05 L-1.3 45.05 -1.3 46.45 -2.9 46.45 -2.9 45.05" fill="#ff9900" fill-rule="evenodd" stroke="none"/>
    <path d="M-6.8 45.3 L-6.8 42.75 -5.2 42.75 -5.2 45.3 -6.8 45.3" fill="#ff9900" fill-rule="evenodd" stroke="none"/>
    <path d="M-5.2 45.3 L-5.2 46.45 -6.8 46.45 -6.8 45.3 -5.2 45.3" fill="#ffffff" fill-rule="evenodd" stroke="none"/>
    <path d="M5.7 45.3 L5.7 42.5 7.3 42.5 7.3 45.3 5.7 45.3" fill="#ff9900" fill-rule="evenodd" stroke="none"/>
    <path d="M7.3 45.3 L7.3 46.25 5.7 46.25 5.7 45.3 7.3 45.3" fill="#ffffff" fill-rule="evenodd" stroke="none"/>
  </g>
  <defs>
    <linearGradient gradientTransform="matrix(0.0, -0.0085, 0.0039, 0.0, -0.9, 29.8)" gradientUnits="userSpaceOnUse" id="gradient0" spreadMethod="pad" x1="-819.2" x2="819.2">
      <stop offset="0.0" stop-color="#332f30"/>
      <stop offset="0.36470588235294116" stop-color="#dfdbdc"/>
      <stop offset="0.5176470588235295" stop-color="#a7a7a7"/>
      <stop offset="0.6901960784313725" stop-color="#dfdbdc"/>
      <stop offset="1.0" stop-color="#332f30"/>
    </linearGradient>
    <linearGradient gradientTransform="matrix(0.0, -0.0245, 0.0039, 0.0, -0.9, 29.65)" gradientUnits="userSpaceOnUse" id="gradient1" spreadMethod="pad" x1="-819.2" x2="819.2">
      <stop offset="0.0" stop-color="#332f30"/>
      <stop offset="0.36470588235294116" stop-color="#dfdbdc"/>
      <stop offset="0.5176470588235295" stop-color="#a7a7a7"/>
      <stop offset="0.6901960784313725" stop-color="#dfdbdc"/>
      <stop offset="1.0" stop-color="#332f30"/>
    </linearGradient>
    <linearGradient gradientTransform="matrix(0.0, -0.0175, 0.0039, 0.0, -0.6, 15.9)" gradientUnits="userSpaceOnUse" id="gradient2" spreadMethod="pad" x1="-819.2" x2="819.2">
      <stop offset="0.0" stop-color="#332f30"/>
      <stop offset="0.36470588235294116" stop-color="#dfdbdc"/>
      <stop offset="0.5176470588235295" stop-color="#a7a7a7"/>
      <stop offset="0.6901960784313725" stop-color="#dfdbdc"/>
      <stop offset="1.0" stop-color="#332f30"/>
    </linearGradient>
    <linearGradient gradientTransform="matrix(1.0E-4, 0.0072, -0.0051, 1.0E-4, 3.6, 16.2)" gradientUnits="userSpaceOnUse" id="gradient3" spreadMethod="pad" x1="-819.2" x2="819.2">
      <stop offset="0.0" stop-color="#332f30"/>
      <stop offset="0.36470588235294116" stop-color="#dfdbdc"/>
      <stop offset="0.5176470588235295" stop-color="#a7a7a7"/>
      <stop offset="0.6901960784313725" stop-color="#dfdbdc"/>
      <stop offset="1.0" stop-color="#332f30"/>
    </linearGradient>
    <linearGradient gradientTransform="matrix(0.0072, 0.0, 0.0, 0.0052, -0.25, 18.7)" gradientUnits="userSpaceOnUse" id="gradient4" spreadMethod="pad" x1="-819.2" x2="819.2">
      <stop offset="0.0" stop-color="#332f30"/>
      <stop offset="0.36470588235294116" stop-color="#dfdbdc"/>
      <stop offset="0.5176470588235295" stop-color="#a7a7a7"/>
      <stop offset="0.6901960784313725" stop-color="#dfdbdc"/>
      <stop offset="1.0" stop-color="#332f30"/>
    </linearGradient>
    <linearGradient gradientTransform="matrix(0.0054, 0.0, 0.0, 0.0053, -0.25, 19.0)" gradientUnits="userSpaceOnUse" id="gradient5" spreadMethod="pad" x1="-819.2" x2="819.2">
      <stop offset="0.0" stop-color="#332f30"/>
      <stop offset="0.36470588235294116" stop-color="#dfdbdc"/>
      <stop offset="0.5176470588235295" stop-color="#a7a7a7"/>
      <stop offset="0.6901960784313725" stop-color="#dfdbdc"/>
      <stop offset="1.0" stop-color="#332f30"/>
    </linearGradient>
    <linearGradient gradientTransform="matrix(0.0072, 0.0, 0.0, 0.0053, -0.25, 19.2)" gradientUnits="userSpaceOnUse" id="gradient6" spreadMethod="pad" x1="-819.2" x2="819.2">
      <stop offset="0.0" stop-color="#332f30"/>
      <stop offset="0.36470588235294116" stop-color="#dfdbdc"/>
      <stop offset="0.5176470588235295" stop-color="#a7a7a7"/>
      <stop offset="0.6901960784313725" stop-color="#dfdbdc"/>
      <stop offset="1.0" stop-color="#332f30"/>
    </linearGradient>
    <linearGradient gradientTransform="matrix(0.0, 0.0065, -0.0041, 0.0, -0.65, 21.15)" gradientUnits="userSpaceOnUse" id="gradient7" spreadMethod="pad" x1="-819.2" x2="819.2">
      <stop offset="0.0" stop-color="#332f30"/>
      <stop offset="0.36470588235294116" stop-color="#dfdbdc"/>
      <stop offset="0.5176470588235295" stop-color="#a7a7a7"/>
      <stop offset="0.6901960784313725" stop-color="#dfdbdc"/>
      <stop offset="1.0" stop-color="#332f30"/>
    </linearGradient>
    <linearGradient gradientTransform="matrix(0.0021, 0.0, 0.0, 0.0034, -0.25, 13.05)" gradientUnits="userSpaceOnUse" id="gradient8" spreadMethod="pad" x1="-819.2" x2="819.2">
      <stop offset="0.0" stop-color="#332f30"/>
      <stop offset="0.36470588235294116" stop-color="#dfdbdc"/>
      <stop offset="0.5176470588235295" stop-color="#a7a7a7"/>
      <stop offset="0.6901960784313725" stop-color="#dfdbdc"/>
      <stop offset="1.0" stop-color="#332f30"/>
    </linearGradient>
    <linearGradient gradientTransform="matrix(0.0, 0.0042, -0.0012, 0.0, -0.35, 14.3)" gradientUnits="userSpaceOnUse" id="gradient9" spreadMethod="pad" x1="-819.2" x2="819.2">
      <stop offset="0.0" stop-color="#332f30"/>
      <stop offset="0.36470588235294116" stop-color="#dfdbdc"/>
      <stop offset="0.5176470588235295" stop-color="#a7a7a7"/>
      <stop offset="0.6901960784313725" stop-color="#dfdbdc"/>
      <stop offset="1.0" stop-color="#332f30"/>
    </linearGradient>
    <linearGradient gradientTransform="matrix(0.0, 0.0046, -0.0015, 0.0, 0.9, 11.15)" gradientUnits="userSpaceOnUse" id="gradient10" spreadMethod="pad" x1="-819.2" x2="819.2">
      <stop offset="0.0" stop-color="#332f30"/>
      <stop offset="0.36470588235294116" stop-color="#dfdbdc"/>
      <stop offset="0.5176470588235295" stop-color="#a7a7a7"/>
      <stop offset="0.6901960784313725" stop-color="#dfdbdc"/>
      <stop offset="1.0" stop-color="#332f30"/>
    </linearGradient>
    <linearGradient gradientTransform="matrix(0.0021, 0.0, 0.0, 0.0033, -0.25, 12.75)" gradientUnits="userSpaceOnUse" id="gradient11" spreadMethod="pad" x1="-819.2" x2="819.2">
      <stop offset="0.0" stop-color="#332f30"/>
      <stop offset="0.36470588235294116" stop-color="#dfdbdc"/>
      <stop offset="0.5176470588235295" stop-color="#a7a7a7"/>
      <stop offset="0.6901960784313725" stop-color="#dfdbdc"/>
      <stop offset="1.0" stop-color="#332f30"/>
    </linearGradient>
    <linearGradient gradientTransform="matrix(0.0016, 0.0, 0.0, 0.0034, -0.25, 12.9)" gradientUnits="userSpaceOnUse" id="gradient12" spreadMethod="pad" x1="-819.2" x2="819.2">
      <stop offset="0.0" stop-color="#332f30"/>
      <stop offset="0.36470588235294116" stop-color="#dfdbdc"/>
      <stop offset="0.5176470588235295" stop-color="#a7a7a7"/>
      <stop offset="0.6901960784313725" stop-color="#dfdbdc"/>
      <stop offset="1.0" stop-color="#332f30"/>
    </linearGradient>
    <linearGradient gradientTransform="matrix(0.0, 0.0028, -0.0012, 0.0, -0.35, 9.15)" gradientUnits="userSpaceOnUse" id="gradient13" spreadMethod="pad" x1="-819.2" x2="819.2">
      <stop offset="0.0" stop-color="#332f30"/>
      <stop offset="0.36470588235294116" stop-color="#dfdbdc"/>
      <stop offset="0.5176470588235295" stop-color="#a7a7a7"/>
      <stop offset="0.6901960784313725" stop-color="#dfdbdc"/>
      <stop offset="1.0" stop-color="#332f30"/>
    </linearGradient>
    <linearGradient gradientTransform="matrix(0.0021, 0.0, 0.0, 0.0023, -0.25, 8.1)" gradientUnits="userSpaceOnUse" id="gradient14" spreadMethod="pad" x1="-819.2" x2="819.2">
      <stop offset="0.0" stop-color="#332f30"/>
      <stop offset="0.36470588235294116" stop-color="#dfdbdc"/>
      <stop offset="0.5176470588235295" stop-color="#a7a7a7"/>
      <stop offset="0.6901960784313725" stop-color="#dfdbdc"/>
      <stop offset="1.0" stop-color="#332f30"/>
    </linearGradient>
    <linearGradient gradientTransform="matrix(0.0016, 0.0, 0.0, 0.0023, -0.25, 8.2)" gradientUnits="userSpaceOnUse" id="gradient15" spreadMethod="pad" x1="-819.2" x2="819.2">
      <stop offset="0.0" stop-color="#332f30"/>
      <stop offset="0.36470588235294116" stop-color="#dfdbdc"/>
      <stop offset="0.5176470588235295" stop-color="#a7a7a7"/>
      <stop offset="0.6901960784313725" stop-color="#dfdbdc"/>
      <stop offset="1.0" stop-color="#332f30"/>
    </linearGradient>
    <linearGradient gradientTransform="matrix(0.0, 0.0032, -0.0015, 0.0, 0.9, 7.0)" gradientUnits="userSpaceOnUse" id="gradient16" spreadMethod="pad" x1="-819.2" x2="819.2">
      <stop offset="0.0" stop-color="#332f30"/>
      <stop offset="0.36470588235294116" stop-color="#dfdbdc"/>
      <stop offset="0.5176470588235295" stop-color="#a7a7a7"/>
      <stop offset="0.6901960784313725" stop-color="#dfdbdc"/>
      <stop offset="1.0" stop-color="#332f30"/>
    </linearGradient>
    <linearGradient gradientTransform="matrix(0.0021, 0.0, 0.0, 0.0023, -0.25, 8.3)" gradientUnits="userSpaceOnUse" id="gradient17" spreadMethod="pad" x1="-819.2" x2="819.2">
      <stop offset="0.0" stop-color="#332f30"/>
      <stop offset="0.36470588235294116" stop-color="#dfdbdc"/>
      <stop offset="0.5176470588235295" stop-color="#a7a7a7"/>
      <stop offset="0.6901960784313725" stop-color="#dfdbdc"/>
      <stop offset="1.0" stop-color="#332f30"/>
    </linearGradient>
    <linearGradient gradientTransform="matrix(0.0016, 0.0, 0.0, 0.0067, -2.0, 26.55)" gradientUnits="userSpaceOnUse" id="gradient18" spreadMethod="pad" x1="-819.2" x2="819.2">
      <stop offset="0.0" stop-color="#332f30"/>
      <stop offset="0.36470588235294116" stop-color="#dfdbdc"/>
      <stop offset="0.5176470588235295" stop-color="#a7a7a7"/>
      <stop offset="0.6901960784313725" stop-color="#dfdbdc"/>
      <stop offset="1.0" stop-color="#332f30"/>
    </linearGradient>
    <linearGradient gradientTransform="matrix(0.0, 0.0082, -9.0E-4, 0.0, -2.1, 29.0)" gradientUnits="userSpaceOnUse" id="gradient19" spreadMethod="pad" x1="-819.2" x2="819.2">
      <stop offset="0.0" stop-color="#332f30"/>
      <stop offset="0.36470588235294116" stop-color="#dfdbdc"/>
      <stop offset="0.5176470588235295" stop-color="#a7a7a7"/>
      <stop offset="0.6901960784313725" stop-color="#dfdbdc"/>
      <stop offset="1.0" stop-color="#332f30"/>
    </linearGradient>
    <linearGradient gradientTransform="matrix(0.0012, 0.0, 0.0, 0.0067, -2.0, 26.3)" gradientUnits="userSpaceOnUse" id="gradient20" spreadMethod="pad" x1="-819.2" x2="819.2">
      <stop offset="0.0" stop-color="#332f30"/>
      <stop offset="0.36470588235294116" stop-color="#dfdbdc"/>
      <stop offset="0.5176470588235295" stop-color="#a7a7a7"/>
      <stop offset="0.6901960784313725" stop-color="#dfdbdc"/>
      <stop offset="1.0" stop-color="#332f30"/>
    </linearGradient>
    <linearGradient gradientTransform="matrix(0.0, 0.0091, -0.0011, 1.0E-4, -1.15, 22.75)" gradientUnits="userSpaceOnUse" id="gradient21" spreadMethod="pad" x1="-819.2" x2="819.2">
      <stop offset="0.0" stop-color="#332f30"/>
      <stop offset="0.36470588235294116" stop-color="#dfdbdc"/>
      <stop offset="0.5176470588235295" stop-color="#a7a7a7"/>
      <stop offset="0.6901960784313725" stop-color="#dfdbdc"/>
      <stop offset="1.0" stop-color="#332f30"/>
    </linearGradient>
    <linearGradient gradientTransform="matrix(0.0016, 0.0, 0.0, 0.0066, -2.0, 25.95)" gradientUnits="userSpaceOnUse" id="gradient22" spreadMethod="pad" x1="-819.2" x2="819.2">
      <stop offset="0.0" stop-color="#332f30"/>
      <stop offset="0.36470588235294116" stop-color="#dfdbdc"/>
      <stop offset="0.5176470588235295" stop-color="#a7a7a7"/>
      <stop offset="0.6901960784313725" stop-color="#dfdbdc"/>
      <stop offset="1.0" stop-color="#332f30"/>
    </linearGradient>
    <linearGradient gradientTransform="matrix(0.0016, 0.0, 0.0, 0.0067, 1.8, 26.55)" gradientUnits="userSpaceOnUse" id="gradient23" spreadMethod="pad" x1="-819.2" x2="819.2">
      <stop offset="0.0" stop-color="#332f30"/>
      <stop offset="0.36470588235294116" stop-color="#dfdbdc"/>
      <stop offset="0.5176470588235295" stop-color="#a7a7a7"/>
      <stop offset="0.6901960784313725" stop-color="#dfdbdc"/>
      <stop offset="1.0" stop-color="#332f30"/>
    </linearGradient>
    <linearGradient gradientTransform="matrix(0.0, 0.0082, -9.0E-4, 0.0, 1.7, 29.0)" gradientUnits="userSpaceOnUse" id="gradient24" spreadMethod="pad" x1="-819.2" x2="819.2">
      <stop offset="0.0" stop-color="#332f30"/>
      <stop offset="0.36470588235294116" stop-color="#dfdbdc"/>
      <stop offset="0.5176470588235295" stop-color="#a7a7a7"/>
      <stop offset="0.6901960784313725" stop-color="#dfdbdc"/>
      <stop offset="1.0" stop-color="#332f30"/>
    </linearGradient>
    <linearGradient gradientTransform="matrix(0.0012, 0.0, 0.0, 0.0067, 1.8, 26.3)" gradientUnits="userSpaceOnUse" id="gradient25" spreadMethod="pad" x1="-819.2" x2="819.2">
      <stop offset="0.0" stop-color="#332f30"/>
      <stop offset="0.36470588235294116" stop-color="#dfdbdc"/>
      <stop offset="0.5176470588235295" stop-color="#a7a7a7"/>
      <stop offset="0.6901960784313725" stop-color="#dfdbdc"/>
      <stop offset="1.0" stop-color="#332f30"/>
    </linearGradient>
    <linearGradient gradientTransform="matrix(0.0, 0.0091, -0.0011, 1.0E-4, 2.65, 22.75)" gradientUnits="userSpaceOnUse" id="gradient26" spreadMethod="pad" x1="-819.2" x2="819.2">
      <stop offset="0.0" stop-color="#332f30"/>
      <stop offset="0.36470588235294116" stop-color="#dfdbdc"/>
      <stop offset="0.5176470588235295" stop-color="#a7a7a7"/>
      <stop offset="0.6901960784313725" stop-color="#dfdbdc"/>
      <stop offset="1.0" stop-color="#332f30"/>
    </linearGradient>
    <linearGradient gradientTransform="matrix(0.0016, 0.0, 0.0, 0.0066, 1.8, 25.95)" gradientUnits="userSpaceOnUse" id="gradient27" spreadMethod="pad" x1="-819.2" x2="819.2">
      <stop offset="0.0" stop-color="#332f30"/>
      <stop offset="0.36470588235294116" stop-color="#dfdbdc"/>
      <stop offset="0.5176470588235295" stop-color="#a7a7a7"/>
      <stop offset="0.6901960784313725" stop-color="#dfdbdc"/>
      <stop offset="1.0" stop-color="#332f30"/>
    </linearGradient>
    <linearGradient gradientTransform="matrix(-2.0E-4, -0.0089, -0.0092, 2.0E-4, 10.9, 57.5)" gradientUnits="userSpaceOnUse" id="gradient28" spreadMethod="pad" x1="-819.2" x2="819.2">
      <stop offset="0.00784313725490196" stop-color="#eeda2b"/>
      <stop offset="0.7294117647058823" stop-color="#f4e871"/>
      <stop offset="1.0" stop-color="#eeda2b"/>
    </linearGradient>
    <linearGradient gradientTransform="matrix(-2.0E-4, -0.0089, -0.0092, 2.0E-4, 10.9, 57.5)" gradientUnits="userSpaceOnUse" id="gradient29" spreadMethod="pad" x1="-819.2" x2="819.2">
      <stop offset="0.00784313725490196" stop-color="#dc411b"/>
      <stop offset="0.8156862745098039" stop-color="#6f1209"/>
      <stop offset="1.0" stop-color="#dc411b"/>
    </linearGradient>
    <linearGradient gradientTransform="matrix(2.0E-4, -0.0089, 0.0092, 2.0E-4, -10.3, 57.5)" gradientUnits="userSpaceOnUse" id="gradient30" spreadMethod="pad" x1="-819.2" x2="819.2">
      <stop offset="0.00784313725490196" stop-color="#eeda2b"/>
      <stop offset="0.7294117647058823" stop-color="#f4e871"/>
      <stop offset="1.0" stop-color="#eeda2b"/>
    </linearGradient>
    <linearGradient gradientTransform="matrix(2.0E-4, -0.0089, 0.0092, 2.0E-4, -10.3, 57.5)" gradientUnits="userSpaceOnUse" id="gradient31" spreadMethod="pad" x1="-819.2" x2="819.2">
      <stop offset="0.00784313725490196" stop-color="#dc411b"/>
      <stop offset="0.8156862745098039" stop-color="#6f1209"/>
      <stop offset="1.0" stop-color="#dc411b"/>
    </linearGradient>
    <linearGradient gradientTransform="matrix(-1.0E-4, 0.0069, -0.0122, -1.0E-4, -0.2, 57.5)" gradientUnits="userSpaceOnUse" id="gradient32" spreadMethod="pad" x1="-819.2" x2="819.2">
      <stop offset="0.00784313725490196" stop-color="#dc411b"/>
      <stop offset="0.8156862745098039" stop-color="#6f1209"/>
      <stop offset="1.0" stop-color="#dc411b"/>
    </linearGradient>
    <radialGradient cx="0" cy="0" gradientTransform="matrix(0.0046, 0.0, 0.0, 0.0032, -7.75, 65.05)" gradientUnits="userSpaceOnUse" id="gradient33" r="819.2" spreadMethod="pad">
      <stop offset="0.0" stop-color="#ffffff"/>
      <stop offset="1.0" stop-color="#ffffff" stop-opacity="0.0"/>
    </radialGradient>
    <radialGradient cx="0" cy="0" gradientTransform="matrix(-0.0046, 0.0, 0.0, 0.0032, 8.45, 65.05)" gradientUnits="userSpaceOnUse" id="gradient34" r="819.2" spreadMethod="pad">
      <stop offset="0.0" stop-color="#ffffff"/>
      <stop offset="1.0" stop-color="#ffffff" stop-opacity="0.0"/>
    </radialGradient>
  </defs>
</svg>
