<?xml version="1.0" encoding="UTF-8" standalone="no"?>
<svg xmlns:xlink="http://www.w3.org/1999/xlink" height="9.45px" width="37.1px" xmlns="http://www.w3.org/2000/svg">
  <g transform="matrix(1, 0, 0, 1, 18.55, -33.75)">
    <path d="M15.5 43.2 Q14.7 43.2 14.15 42.6 13.55 42.05 13.55 41.25 13.55 40.45 14.15 39.9 14.7 39.35 15.5 39.35 16.3 39.35 16.85 39.9 17.45 40.45 17.45 41.25 17.45 42.05 16.85 42.6 16.3 43.2 15.5 43.2" fill="#d1cbcf" fill-rule="evenodd" stroke="none"/>
    <path d="M15.95 42.6 L15.1 42.25 Q14.75 41.9 14.75 41.4 14.75 40.85 15.1 40.5 15.45 40.15 15.95 40.15 16.5 40.15 16.85 40.5 L17.2 41.4 Q17.2 41.9 16.85 42.25 16.5 42.6 15.95 42.6" fill="#51454f" fill-rule="evenodd" stroke="none"/>
    <path d="M-15.25 42.8 Q-16.05 42.8 -16.6 42.2 -17.2 41.65 -17.2 40.85 -17.2 40.05 -16.6 39.5 -16.05 38.95 -15.25 38.95 -14.45 38.95 -13.9 39.5 -13.3 40.05 -13.3 40.85 -13.3 41.65 -13.9 42.2 -14.45 42.8 -15.25 42.8" fill="#d1cbcf" fill-rule="evenodd" stroke="none"/>
    <path d="M-14.85 42.25 Q-15.35 42.25 -15.7 41.9 L-16.05 41.05 Q-16.05 40.5 -15.7 40.15 -15.35 39.8 -14.85 39.8 -14.3 39.8 -13.95 40.15 -13.6 40.5 -13.6 41.05 -13.6 41.55 -13.95 41.9 L-14.85 42.25" fill="#51454f" fill-rule="evenodd" stroke="none"/>
    <path d="M16.1 38.7 Q15.1 38.7 14.35 37.95 13.65 37.25 13.65 36.25 13.65 35.2 14.35 34.5 15.1 33.75 16.1 33.75 17.1 33.75 17.85 34.5 18.55 35.2 18.55 36.25 18.55 37.25 17.85 37.95 17.1 38.7 16.1 38.7" fill="#d1cbcf" fill-rule="evenodd" stroke="none"/>
    <path d="M16.7 38.0 Q16.05 38.0 15.55 37.55 15.1 37.1 15.1 36.45 15.1 35.8 15.55 35.3 16.05 34.85 16.7 34.85 17.35 34.85 17.8 35.3 18.25 35.8 18.25 36.45 18.25 37.1 17.8 37.55 L16.7 38.0" fill="#51454f" fill-rule="evenodd" stroke="none"/>
    <path d="M-15.95 39.15 Q-17.0 39.15 -17.75 38.35 -18.55 37.6 -18.55 36.55 -18.55 35.45 -17.75 34.7 -17.0 33.95 -15.95 33.95 -14.85 33.95 -14.1 34.7 -13.35 35.45 -13.35 36.55 -13.35 37.6 -14.1 38.35 -14.85 39.15 -15.95 39.15" fill="#d1cbcf" fill-rule="evenodd" stroke="none"/>
    <path d="M-15.4 38.4 L-16.55 37.95 Q-17.05 37.45 -17.05 36.75 -17.05 36.05 -16.55 35.6 -16.1 35.1 -15.4 35.1 -14.7 35.1 -14.2 35.6 -13.75 36.05 -13.75 36.75 -13.75 37.45 -14.2 37.95 -14.7 38.4 -15.4 38.4" fill="#51454f" fill-rule="evenodd" stroke="none"/>
  </g>
</svg>
