<?xml version="1.0" encoding="UTF-8" standalone="no"?>
<svg xmlns:xlink="http://www.w3.org/1999/xlink" height="37.55px" width="32.8px" xmlns="http://www.w3.org/2000/svg">
  <g transform="matrix(1, 0, 0, 1, 16.65, 66.85)">
    <path d="M16.1 -63.95 L-16.65 -63.95 -16.65 -65.4 16.1 -65.4 16.1 -63.95" fill="#797576" fill-rule="evenodd" stroke="none"/>
    <path d="M16.1 -63.95 L16.1 -63.05 -16.65 -63.05 -16.65 -63.95 16.1 -63.95" fill="#a7a7a7" fill-rule="evenodd" stroke="none"/>
    <path d="M-12.55 -30.4 L-12.55 -33.0 13.1 -33.0 13.1 -30.4 -12.55 -30.4" fill="#262425" fill-rule="evenodd" stroke="none"/>
    <path d="M13.1 -30.4 L13.1 -29.3 -12.55 -29.3 -12.55 -30.4 13.1 -30.4" fill="#5b5758" fill-rule="evenodd" stroke="none"/>
    <path d="M-16.55 -32.5 L16.15 -32.5 16.15 -31.6 -16.55 -31.6 -16.55 -32.5" fill="#a7a7a7" fill-rule="evenodd" stroke="none"/>
    <path d="M-16.55 -32.5 L-16.55 -33.95 16.15 -33.95 16.15 -32.5 -16.55 -32.5" fill="#797576" fill-rule="evenodd" stroke="none"/>
    <path d="M13.1 -39.3 L13.1 -38.55 -12.55 -38.55 -12.55 -39.3 13.1 -39.3" fill="#5b5758" fill-rule="evenodd" stroke="none"/>
    <path d="M-12.55 -39.3 L-12.55 -41.1 13.1 -41.1 13.1 -39.3 -12.55 -39.3" fill="#262425" fill-rule="evenodd" stroke="none"/>
    <path d="M-12.55 -56.1 L-12.55 -57.9 13.1 -57.9 13.1 -56.1 -12.55 -56.1" fill="#262425" fill-rule="evenodd" stroke="none"/>
    <path d="M13.1 -56.1 L13.1 -55.35 -12.55 -55.35 -12.55 -56.1 13.1 -56.1" fill="#5b5758" fill-rule="evenodd" stroke="none"/>
    <path d="M7.45 -65.85 L-7.25 -65.85 -7.25 -66.85 7.45 -66.85 7.45 -65.85" fill="#5b5758" fill-rule="evenodd" stroke="none"/>
    <path d="M7.45 -65.85 L7.45 -63.5 -7.25 -63.5 -7.25 -65.85 7.45 -65.85" fill="#a7a7a7" fill-rule="evenodd" stroke="none"/>
    <path d="M6.95 -66.05 L6.95 -33.9 5.65 -33.9 5.65 -66.05 6.95 -66.05" fill="#a7a7a7" fill-rule="evenodd" stroke="none"/>
    <path d="M6.95 -66.05 L7.45 -66.05 7.45 -33.9 6.95 -33.9 6.95 -66.05" fill="#5b5758" fill-rule="evenodd" stroke="none"/>
    <path d="M-6.8 -33.9 L-7.3 -33.9 -7.3 -66.05 -6.8 -66.05 -6.8 -33.9" fill="#5b5758" fill-rule="evenodd" stroke="none"/>
    <path d="M-6.8 -66.05 L-5.5 -66.05 -5.5 -33.9 -6.8 -33.9 -6.8 -66.05" fill="#a7a7a7" fill-rule="evenodd" stroke="none"/>
    <path d="M-5.45 -40.9 L-4.85 -40.9 -4.85 -42.8 5.1 -42.8 5.1 -40.9 5.75 -40.9 5.75 -39.8 5.1 -39.8 5.1 -35.25 -4.85 -35.25 -4.85 -39.8 -5.45 -39.8 -5.45 -40.9 M1.55 -39.8 L1.55 -40.9 -1.7 -40.9 -1.7 -39.8 1.55 -39.8" fill="url(#gradient0)" fill-rule="evenodd" stroke="none"/>
    <path d="M5.75 -40.9 L5.1 -40.9 5.1 -42.8 -4.85 -42.8 -4.85 -40.9 -5.45 -40.9 -5.45 -43.5 5.75 -43.5 5.75 -40.9 M-5.45 -39.8 L-4.85 -39.8 -4.85 -35.25 -5.45 -35.25 -5.45 -39.8 M5.1 -35.25 L5.1 -39.8 5.75 -39.8 5.75 -35.25 5.1 -35.25 M1.55 -39.8 L-1.7 -39.8 -1.7 -40.9 1.55 -40.9 1.55 -39.8" fill="#5a5657" fill-rule="evenodd" stroke="none"/>
    <path d="M-4.85 -35.25 L5.1 -35.25 5.75 -35.25 5.75 -33.9 -5.45 -33.9 -5.45 -35.25 -4.85 -35.25" fill="#3f3b3c" fill-rule="evenodd" stroke="none"/>
    <path d="M-5.8 -56.1 L-5.8 -58.45 5.5 -58.45 5.5 -56.1 4.8 -56.1 4.8 -57.8 -5.2 -57.8 -5.2 -56.1 -5.8 -56.1 M5.5 -55.15 L5.5 -51.15 4.8 -51.15 4.8 -55.15 5.5 -55.15 M-5.8 -51.15 L-5.8 -55.15 -5.2 -55.15 -5.2 -51.15 -5.8 -51.15 M1.25 -55.15 L-2.05 -55.15 -2.05 -56.1 1.25 -56.1 1.25 -55.15" fill="#5a5657" fill-rule="evenodd" stroke="none"/>
    <path d="M5.5 -56.1 L5.5 -55.15 4.8 -55.15 4.8 -51.15 -5.2 -51.15 -5.2 -55.15 -5.8 -55.15 -5.8 -56.1 -5.2 -56.1 -5.2 -57.8 4.8 -57.8 4.8 -56.1 5.5 -56.1 M1.25 -55.15 L1.25 -56.1 -2.05 -56.1 -2.05 -55.15 1.25 -55.15" fill="url(#gradient1)" fill-rule="evenodd" stroke="none"/>
    <path d="M5.5 -51.15 L5.5 -49.9 -5.8 -49.9 -5.8 -51.15 -5.2 -51.15 4.8 -51.15 5.5 -51.15" fill="#3f3b3c" fill-rule="evenodd" stroke="none"/>
    <path d="M5.0 -61.9 L1.45 -61.9 -1.85 -61.9 -4.95 -61.9 -4.95 -63.1 5.0 -63.1 5.0 -61.9 M1.45 -61.2 L5.0 -61.2 5.0 -58.35 -4.95 -58.35 -4.95 -61.2 -1.85 -61.2 1.45 -61.2" fill="url(#gradient2)" fill-rule="evenodd" stroke="none"/>
    <path d="M5.0 -61.2 L5.7 -61.2 5.7 -58.35 5.0 -58.35 5.0 -61.2 M5.7 -61.9 L5.0 -61.9 5.0 -63.1 -4.95 -63.1 -4.95 -61.9 -5.55 -61.9 -5.55 -63.55 5.7 -63.55 5.7 -61.9 M-5.55 -58.35 L-5.55 -61.2 -4.95 -61.2 -4.95 -58.35 -5.55 -58.35" fill="#5a5657" fill-rule="evenodd" stroke="none"/>
    <path d="M1.45 -61.9 L5.0 -61.9 5.7 -61.9 5.7 -61.2 5.0 -61.2 1.45 -61.2 1.45 -61.9 M-4.95 -61.9 L-1.85 -61.9 -1.85 -61.2 -4.95 -61.2 -5.55 -61.2 -5.55 -61.9 -4.95 -61.9 M5.7 -58.35 L5.7 -57.5 -5.55 -57.5 -5.55 -58.35 -4.95 -58.35 5.0 -58.35 5.7 -58.35" fill="#3f3b3c" fill-rule="evenodd" stroke="none"/>
    <path d="M1.45 -61.9 L1.45 -61.2 -1.85 -61.2 -1.85 -61.9 1.45 -61.9" fill="#b2aeaf" fill-rule="evenodd" stroke="none"/>
    <path d="M-6.35 -43.1 L-6.35 -45.0 6.25 -45.0 6.25 -43.1 -6.35 -43.1" fill="url(#gradient3)" fill-rule="evenodd" stroke="none"/>
    <path d="M-6.35 -45.0 L-6.35 -46.9 6.25 -46.9 6.25 -45.0 -6.35 -45.0" fill="url(#gradient4)" fill-rule="evenodd" stroke="none"/>
    <path d="M-6.35 -46.9 L-6.35 -49.0 6.25 -49.0 6.25 -46.9 -6.35 -46.9" fill="url(#gradient5)" fill-rule="evenodd" stroke="none"/>
    <path d="M6.25 -43.1 L6.25 -42.5 -6.35 -42.5 -6.35 -43.1 6.25 -43.1" fill="url(#gradient6)" fill-rule="evenodd" stroke="none"/>
    <path d="M-6.35 -49.0 L-6.35 -49.6 6.25 -49.6 6.25 -49.0 -6.35 -49.0" fill="url(#gradient7)" fill-rule="evenodd" stroke="none"/>
    <path d="M-1.95 -50.7 L-1.95 -51.9 1.8 -51.9 1.8 -50.7 -1.95 -50.7" fill="url(#gradient8)" fill-rule="evenodd" stroke="none"/>
    <path d="M-1.95 -51.9 L-1.95 -53.15 1.8 -53.15 1.8 -51.9 -1.95 -51.9" fill="url(#gradient9)" fill-rule="evenodd" stroke="none"/>
    <path d="M-1.95 -53.15 L-1.95 -54.5 1.8 -54.5 1.8 -53.15 -1.95 -53.15" fill="url(#gradient10)" fill-rule="evenodd" stroke="none"/>
    <path d="M-1.95 -54.5 L-1.95 -54.9 1.8 -54.9 1.8 -54.5 -1.95 -54.5" fill="url(#gradient11)" fill-rule="evenodd" stroke="none"/>
    <path d="M1.8 -50.7 L1.8 -50.3 -1.95 -50.3 -1.95 -50.7 1.8 -50.7" fill="url(#gradient12)" fill-rule="evenodd" stroke="none"/>
    <path d="M-1.95 -56.35 L-1.95 -57.2 1.8 -57.2 1.8 -56.35 -1.95 -56.35" fill="url(#gradient13)" fill-rule="evenodd" stroke="none"/>
    <path d="M-1.95 -57.2 L-1.95 -58.0 1.8 -58.0 1.8 -57.2 -1.95 -57.2" fill="url(#gradient14)" fill-rule="evenodd" stroke="none"/>
    <path d="M-1.95 -58.0 L-1.95 -58.95 1.8 -58.95 1.8 -58.0 -1.95 -58.0" fill="url(#gradient15)" fill-rule="evenodd" stroke="none"/>
    <path d="M-1.95 -58.95 L-1.95 -59.2 1.8 -59.2 1.8 -58.95 -1.95 -58.95" fill="url(#gradient16)" fill-rule="evenodd" stroke="none"/>
    <path d="M1.8 -56.35 L1.8 -56.1 -1.95 -56.1 -1.95 -56.35 1.8 -56.35" fill="url(#gradient17)" fill-rule="evenodd" stroke="none"/>
    <path d="M-1.1 -41.95 L-1.1 -39.25 -3.9 -39.25 -3.9 -41.95 -1.1 -41.95" fill="url(#gradient18)" fill-rule="evenodd" stroke="none"/>
    <path d="M-1.1 -39.25 L-1.1 -36.85 -3.9 -36.85 -3.9 -39.25 -1.1 -39.25" fill="url(#gradient19)" fill-rule="evenodd" stroke="none"/>
    <path d="M-3.9 -41.95 L-3.9 -42.7 -1.1 -42.7 -1.1 -41.95 -3.9 -41.95" fill="url(#gradient20)" fill-rule="evenodd" stroke="none"/>
    <path d="M-1.1 -36.85 L-1.1 -34.45 -3.9 -34.45 -3.9 -36.85 -1.1 -36.85" fill="url(#gradient21)" fill-rule="evenodd" stroke="none"/>
    <path d="M-1.1 -34.45 L-1.1 -33.65 -3.9 -33.65 -3.9 -34.45 -1.1 -34.45" fill="url(#gradient22)" fill-rule="evenodd" stroke="none"/>
    <path d="M2.95 -41.95 L2.95 -39.25 0.15 -39.25 0.15 -41.95 2.95 -41.95" fill="url(#gradient23)" fill-rule="evenodd" stroke="none"/>
    <path d="M2.95 -39.25 L2.95 -36.85 0.15 -36.85 0.15 -39.25 2.95 -39.25" fill="url(#gradient24)" fill-rule="evenodd" stroke="none"/>
    <path d="M0.15 -41.95 L0.15 -42.7 2.95 -42.7 2.95 -41.95 0.15 -41.95" fill="url(#gradient25)" fill-rule="evenodd" stroke="none"/>
    <path d="M2.95 -36.85 L2.95 -34.45 0.15 -34.45 0.15 -36.85 2.95 -36.85" fill="url(#gradient26)" fill-rule="evenodd" stroke="none"/>
    <path d="M2.95 -34.45 L2.95 -33.65 0.15 -33.65 0.15 -34.45 2.95 -34.45" fill="url(#gradient27)" fill-rule="evenodd" stroke="none"/>
  </g>
  <defs>
    <linearGradient gradientTransform="matrix(0.0, -0.0091, 0.0041, 0.0, -0.7, -34.55)" gradientUnits="userSpaceOnUse" id="gradient0" spreadMethod="pad" x1="-819.2" x2="819.2">
      <stop offset="0.0" stop-color="#332f30"/>
      <stop offset="0.36470588235294116" stop-color="#dfdbdc"/>
      <stop offset="0.5176470588235295" stop-color="#a7a7a7"/>
      <stop offset="0.6901960784313725" stop-color="#dfdbdc"/>
      <stop offset="1.0" stop-color="#332f30"/>
    </linearGradient>
    <linearGradient gradientTransform="matrix(0.0, -0.0262, 0.0042, 0.0, -0.8, -34.75)" gradientUnits="userSpaceOnUse" id="gradient1" spreadMethod="pad" x1="-819.2" x2="819.2">
      <stop offset="0.0" stop-color="#332f30"/>
      <stop offset="0.36470588235294116" stop-color="#dfdbdc"/>
      <stop offset="0.5176470588235295" stop-color="#a7a7a7"/>
      <stop offset="0.6901960784313725" stop-color="#dfdbdc"/>
      <stop offset="1.0" stop-color="#332f30"/>
    </linearGradient>
    <linearGradient gradientTransform="matrix(0.0, -0.0187, 0.0042, 0.0, -0.3, -49.45)" gradientUnits="userSpaceOnUse" id="gradient2" spreadMethod="pad" x1="-819.2" x2="819.2">
      <stop offset="0.0" stop-color="#332f30"/>
      <stop offset="0.36470588235294116" stop-color="#dfdbdc"/>
      <stop offset="0.5176470588235295" stop-color="#a7a7a7"/>
      <stop offset="0.6901960784313725" stop-color="#dfdbdc"/>
      <stop offset="1.0" stop-color="#332f30"/>
    </linearGradient>
    <linearGradient gradientTransform="matrix(0.0077, 0.0, 0.0, 0.0056, -0.05, -46.45)" gradientUnits="userSpaceOnUse" id="gradient3" spreadMethod="pad" x1="-819.2" x2="819.2">
      <stop offset="0.0" stop-color="#332f30"/>
      <stop offset="0.36470588235294116" stop-color="#dfdbdc"/>
      <stop offset="0.5176470588235295" stop-color="#a7a7a7"/>
      <stop offset="0.6901960784313725" stop-color="#dfdbdc"/>
      <stop offset="1.0" stop-color="#332f30"/>
    </linearGradient>
    <linearGradient gradientTransform="matrix(0.0058, 0.0, 0.0, 0.0056, -0.05, -46.15)" gradientUnits="userSpaceOnUse" id="gradient4" spreadMethod="pad" x1="-819.2" x2="819.2">
      <stop offset="0.0" stop-color="#332f30"/>
      <stop offset="0.36470588235294116" stop-color="#dfdbdc"/>
      <stop offset="0.5176470588235295" stop-color="#a7a7a7"/>
      <stop offset="0.6901960784313725" stop-color="#dfdbdc"/>
      <stop offset="1.0" stop-color="#332f30"/>
    </linearGradient>
    <linearGradient gradientTransform="matrix(0.0077, 0.0, 0.0, 0.0057, -0.05, -45.9)" gradientUnits="userSpaceOnUse" id="gradient5" spreadMethod="pad" x1="-819.2" x2="819.2">
      <stop offset="0.0" stop-color="#332f30"/>
      <stop offset="0.36470588235294116" stop-color="#dfdbdc"/>
      <stop offset="0.5176470588235295" stop-color="#a7a7a7"/>
      <stop offset="0.6901960784313725" stop-color="#dfdbdc"/>
      <stop offset="1.0" stop-color="#332f30"/>
    </linearGradient>
    <linearGradient gradientTransform="matrix(1.0E-4, 0.0077, -0.0055, 1.0E-4, 4.1, -49.1)" gradientUnits="userSpaceOnUse" id="gradient6" spreadMethod="pad" x1="-819.2" x2="819.2">
      <stop offset="0.0" stop-color="#332f30"/>
      <stop offset="0.36470588235294116" stop-color="#dfdbdc"/>
      <stop offset="0.5176470588235295" stop-color="#a7a7a7"/>
      <stop offset="0.6901960784313725" stop-color="#dfdbdc"/>
      <stop offset="1.0" stop-color="#332f30"/>
    </linearGradient>
    <linearGradient gradientTransform="matrix(0.0, 0.0069, -0.0044, 0.0, -0.45, -43.85)" gradientUnits="userSpaceOnUse" id="gradient7" spreadMethod="pad" x1="-819.2" x2="819.2">
      <stop offset="0.0" stop-color="#332f30"/>
      <stop offset="0.36470588235294116" stop-color="#dfdbdc"/>
      <stop offset="0.5176470588235295" stop-color="#a7a7a7"/>
      <stop offset="0.6901960784313725" stop-color="#dfdbdc"/>
      <stop offset="1.0" stop-color="#332f30"/>
    </linearGradient>
    <linearGradient gradientTransform="matrix(0.0023, 0.0, 0.0, 0.0036, -0.05, -52.85)" gradientUnits="userSpaceOnUse" id="gradient8" spreadMethod="pad" x1="-819.2" x2="819.2">
      <stop offset="0.0" stop-color="#332f30"/>
      <stop offset="0.36470588235294116" stop-color="#dfdbdc"/>
      <stop offset="0.5176470588235295" stop-color="#a7a7a7"/>
      <stop offset="0.6901960784313725" stop-color="#dfdbdc"/>
      <stop offset="1.0" stop-color="#332f30"/>
    </linearGradient>
    <linearGradient gradientTransform="matrix(0.0017, 0.0, 0.0, 0.0036, -0.05, -52.65)" gradientUnits="userSpaceOnUse" id="gradient9" spreadMethod="pad" x1="-819.2" x2="819.2">
      <stop offset="0.0" stop-color="#332f30"/>
      <stop offset="0.36470588235294116" stop-color="#dfdbdc"/>
      <stop offset="0.5176470588235295" stop-color="#a7a7a7"/>
      <stop offset="0.6901960784313725" stop-color="#dfdbdc"/>
      <stop offset="1.0" stop-color="#332f30"/>
    </linearGradient>
    <linearGradient gradientTransform="matrix(0.0023, 0.0, 0.0, 0.0036, -0.05, -52.5)" gradientUnits="userSpaceOnUse" id="gradient10" spreadMethod="pad" x1="-819.2" x2="819.2">
      <stop offset="0.0" stop-color="#332f30"/>
      <stop offset="0.36470588235294116" stop-color="#dfdbdc"/>
      <stop offset="0.5176470588235295" stop-color="#a7a7a7"/>
      <stop offset="0.6901960784313725" stop-color="#dfdbdc"/>
      <stop offset="1.0" stop-color="#332f30"/>
    </linearGradient>
    <linearGradient gradientTransform="matrix(0.0, 0.0045, -0.0013, 0.0, -0.2, -51.2)" gradientUnits="userSpaceOnUse" id="gradient11" spreadMethod="pad" x1="-819.2" x2="819.2">
      <stop offset="0.0" stop-color="#332f30"/>
      <stop offset="0.36470588235294116" stop-color="#dfdbdc"/>
      <stop offset="0.5176470588235295" stop-color="#a7a7a7"/>
      <stop offset="0.6901960784313725" stop-color="#dfdbdc"/>
      <stop offset="1.0" stop-color="#332f30"/>
    </linearGradient>
    <linearGradient gradientTransform="matrix(0.0, 0.0049, -0.0016, 0.0, 1.15, -54.55)" gradientUnits="userSpaceOnUse" id="gradient12" spreadMethod="pad" x1="-819.2" x2="819.2">
      <stop offset="0.0" stop-color="#332f30"/>
      <stop offset="0.36470588235294116" stop-color="#dfdbdc"/>
      <stop offset="0.5176470588235295" stop-color="#a7a7a7"/>
      <stop offset="0.6901960784313725" stop-color="#dfdbdc"/>
      <stop offset="1.0" stop-color="#332f30"/>
    </linearGradient>
    <linearGradient gradientTransform="matrix(0.0023, 0.0, 0.0, 0.0024, -0.05, -57.85)" gradientUnits="userSpaceOnUse" id="gradient13" spreadMethod="pad" x1="-819.2" x2="819.2">
      <stop offset="0.0" stop-color="#332f30"/>
      <stop offset="0.36470588235294116" stop-color="#dfdbdc"/>
      <stop offset="0.5176470588235295" stop-color="#a7a7a7"/>
      <stop offset="0.6901960784313725" stop-color="#dfdbdc"/>
      <stop offset="1.0" stop-color="#332f30"/>
    </linearGradient>
    <linearGradient gradientTransform="matrix(0.0017, 0.0, 0.0, 0.0025, -0.05, -57.7)" gradientUnits="userSpaceOnUse" id="gradient14" spreadMethod="pad" x1="-819.2" x2="819.2">
      <stop offset="0.0" stop-color="#332f30"/>
      <stop offset="0.36470588235294116" stop-color="#dfdbdc"/>
      <stop offset="0.5176470588235295" stop-color="#a7a7a7"/>
      <stop offset="0.6901960784313725" stop-color="#dfdbdc"/>
      <stop offset="1.0" stop-color="#332f30"/>
    </linearGradient>
    <linearGradient gradientTransform="matrix(0.0023, 0.0, 0.0, 0.0025, -0.05, -57.6)" gradientUnits="userSpaceOnUse" id="gradient15" spreadMethod="pad" x1="-819.2" x2="819.2">
      <stop offset="0.0" stop-color="#332f30"/>
      <stop offset="0.36470588235294116" stop-color="#dfdbdc"/>
      <stop offset="0.5176470588235295" stop-color="#a7a7a7"/>
      <stop offset="0.6901960784313725" stop-color="#dfdbdc"/>
      <stop offset="1.0" stop-color="#332f30"/>
    </linearGradient>
    <linearGradient gradientTransform="matrix(0.0, 0.003, -0.0013, 0.0, -0.2, -56.7)" gradientUnits="userSpaceOnUse" id="gradient16" spreadMethod="pad" x1="-819.2" x2="819.2">
      <stop offset="0.0" stop-color="#332f30"/>
      <stop offset="0.36470588235294116" stop-color="#dfdbdc"/>
      <stop offset="0.5176470588235295" stop-color="#a7a7a7"/>
      <stop offset="0.6901960784313725" stop-color="#dfdbdc"/>
      <stop offset="1.0" stop-color="#332f30"/>
    </linearGradient>
    <linearGradient gradientTransform="matrix(0.0, 0.0034, -0.0016, 0.0, 1.15, -59.0)" gradientUnits="userSpaceOnUse" id="gradient17" spreadMethod="pad" x1="-819.2" x2="819.2">
      <stop offset="0.0" stop-color="#332f30"/>
      <stop offset="0.36470588235294116" stop-color="#dfdbdc"/>
      <stop offset="0.5176470588235295" stop-color="#a7a7a7"/>
      <stop offset="0.6901960784313725" stop-color="#dfdbdc"/>
      <stop offset="1.0" stop-color="#332f30"/>
    </linearGradient>
    <linearGradient gradientTransform="matrix(0.0017, 0.0, 0.0, 0.0072, -2.5, -38.05)" gradientUnits="userSpaceOnUse" id="gradient18" spreadMethod="pad" x1="-819.2" x2="819.2">
      <stop offset="0.0" stop-color="#332f30"/>
      <stop offset="0.36470588235294116" stop-color="#dfdbdc"/>
      <stop offset="0.5176470588235295" stop-color="#a7a7a7"/>
      <stop offset="0.6901960784313725" stop-color="#dfdbdc"/>
      <stop offset="1.0" stop-color="#332f30"/>
    </linearGradient>
    <linearGradient gradientTransform="matrix(0.0013, 0.0, 0.0, 0.0071, -2.5, -38.35)" gradientUnits="userSpaceOnUse" id="gradient19" spreadMethod="pad" x1="-819.2" x2="819.2">
      <stop offset="0.0" stop-color="#332f30"/>
      <stop offset="0.36470588235294116" stop-color="#dfdbdc"/>
      <stop offset="0.5176470588235295" stop-color="#a7a7a7"/>
      <stop offset="0.6901960784313725" stop-color="#dfdbdc"/>
      <stop offset="1.0" stop-color="#332f30"/>
    </linearGradient>
    <linearGradient gradientTransform="matrix(0.0, 0.0088, -0.001, 0.0, -2.6, -35.4)" gradientUnits="userSpaceOnUse" id="gradient20" spreadMethod="pad" x1="-819.2" x2="819.2">
      <stop offset="0.0" stop-color="#332f30"/>
      <stop offset="0.36470588235294116" stop-color="#dfdbdc"/>
      <stop offset="0.5176470588235295" stop-color="#a7a7a7"/>
      <stop offset="0.6901960784313725" stop-color="#dfdbdc"/>
      <stop offset="1.0" stop-color="#332f30"/>
    </linearGradient>
    <linearGradient gradientTransform="matrix(0.0017, 0.0, 0.0, 0.007, -2.5, -38.7)" gradientUnits="userSpaceOnUse" id="gradient21" spreadMethod="pad" x1="-819.2" x2="819.2">
      <stop offset="0.0" stop-color="#332f30"/>
      <stop offset="0.36470588235294116" stop-color="#dfdbdc"/>
      <stop offset="0.5176470588235295" stop-color="#a7a7a7"/>
      <stop offset="0.6901960784313725" stop-color="#dfdbdc"/>
      <stop offset="1.0" stop-color="#332f30"/>
    </linearGradient>
    <linearGradient gradientTransform="matrix(0.0, 0.0098, -0.0012, 1.0E-4, -1.55, -42.1)" gradientUnits="userSpaceOnUse" id="gradient22" spreadMethod="pad" x1="-819.2" x2="819.2">
      <stop offset="0.0" stop-color="#332f30"/>
      <stop offset="0.36470588235294116" stop-color="#dfdbdc"/>
      <stop offset="0.5176470588235295" stop-color="#a7a7a7"/>
      <stop offset="0.6901960784313725" stop-color="#dfdbdc"/>
      <stop offset="1.0" stop-color="#332f30"/>
    </linearGradient>
    <linearGradient gradientTransform="matrix(0.0017, 0.0, 0.0, 0.0072, 1.55, -38.05)" gradientUnits="userSpaceOnUse" id="gradient23" spreadMethod="pad" x1="-819.2" x2="819.2">
      <stop offset="0.0" stop-color="#332f30"/>
      <stop offset="0.36470588235294116" stop-color="#dfdbdc"/>
      <stop offset="0.5176470588235295" stop-color="#a7a7a7"/>
      <stop offset="0.6901960784313725" stop-color="#dfdbdc"/>
      <stop offset="1.0" stop-color="#332f30"/>
    </linearGradient>
    <linearGradient gradientTransform="matrix(0.0013, 0.0, 0.0, 0.0071, 1.55, -38.35)" gradientUnits="userSpaceOnUse" id="gradient24" spreadMethod="pad" x1="-819.2" x2="819.2">
      <stop offset="0.0" stop-color="#332f30"/>
      <stop offset="0.36470588235294116" stop-color="#dfdbdc"/>
      <stop offset="0.5176470588235295" stop-color="#a7a7a7"/>
      <stop offset="0.6901960784313725" stop-color="#dfdbdc"/>
      <stop offset="1.0" stop-color="#332f30"/>
    </linearGradient>
    <linearGradient gradientTransform="matrix(0.0, 0.0088, -0.001, 0.0, 1.45, -35.4)" gradientUnits="userSpaceOnUse" id="gradient25" spreadMethod="pad" x1="-819.2" x2="819.2">
      <stop offset="0.0" stop-color="#332f30"/>
      <stop offset="0.36470588235294116" stop-color="#dfdbdc"/>
      <stop offset="0.5176470588235295" stop-color="#a7a7a7"/>
      <stop offset="0.6901960784313725" stop-color="#dfdbdc"/>
      <stop offset="1.0" stop-color="#332f30"/>
    </linearGradient>
    <linearGradient gradientTransform="matrix(0.0017, 0.0, 0.0, 0.007, 1.55, -38.7)" gradientUnits="userSpaceOnUse" id="gradient26" spreadMethod="pad" x1="-819.2" x2="819.2">
      <stop offset="0.0" stop-color="#332f30"/>
      <stop offset="0.36470588235294116" stop-color="#dfdbdc"/>
      <stop offset="0.5176470588235295" stop-color="#a7a7a7"/>
      <stop offset="0.6901960784313725" stop-color="#dfdbdc"/>
      <stop offset="1.0" stop-color="#332f30"/>
    </linearGradient>
    <linearGradient gradientTransform="matrix(0.0, 0.0098, -0.0012, 1.0E-4, 2.5, -42.1)" gradientUnits="userSpaceOnUse" id="gradient27" spreadMethod="pad" x1="-819.2" x2="819.2">
      <stop offset="0.0" stop-color="#332f30"/>
      <stop offset="0.36470588235294116" stop-color="#dfdbdc"/>
      <stop offset="0.5176470588235295" stop-color="#a7a7a7"/>
      <stop offset="0.6901960784313725" stop-color="#dfdbdc"/>
      <stop offset="1.0" stop-color="#332f30"/>
    </linearGradient>
  </defs>
</svg>
