<?xml version="1.0" encoding="UTF-8" standalone="no"?>
<svg xmlns:xlink="http://www.w3.org/1999/xlink" height="93.45px" width="26.5px" xmlns="http://www.w3.org/2000/svg">
  <g transform="matrix(1, 0, 0, 1, 13.4, 62.7)">
    <path d="M13.1 -62.7 L13.1 30.75 -13.4 30.75 -13.4 -62.7 13.1 -62.7" fill="url(#gradient0)" fill-rule="evenodd" stroke="none"/>
    <path d="M11.55 -17.05 L-11.8 -17.05 -11.8 -60.6 11.55 -60.6 11.55 -17.05 M10.55 -18.35 L10.55 -59.35 -10.75 -59.35 -10.75 -18.35 10.55 -18.35 M11.55 28.2 L-11.8 28.2 -11.8 -15.9 11.55 -15.9 11.55 28.2 M10.55 26.95 L10.55 -14.65 -10.75 -14.65 -10.75 26.95 10.55 26.95" fill="#7b7b7b" fill-rule="evenodd" stroke="none"/>
  </g>
  <defs>
    <linearGradient gradientTransform="matrix(1.0E-4, -0.0819, 0.057, 0.0, 1.2, -9.9)" gradientUnits="userSpaceOnUse" id="gradient0" spreadMethod="pad" x1="-819.2" x2="819.2">
      <stop offset="0.00784313725490196" stop-color="#dc411b"/>
      <stop offset="0.8156862745098039" stop-color="#6f1209"/>
      <stop offset="1.0" stop-color="#dc411b"/>
    </linearGradient>
  </defs>
</svg>
