<?xml version="1.0" encoding="UTF-8" standalone="no"?>
<svg xmlns:xlink="http://www.w3.org/1999/xlink" height="34.95px" width="152.6px" xmlns="http://www.w3.org/2000/svg">
  <g transform="matrix(1, 0, 0, 1, 0.0, 0.0)">
    <path d="M150.25 5.55 Q152.6 6.3 152.6 7.55 L148.5 27.05 Q148.2 28.45 145.8 29.3 143.8 30.0 141.95 30.0 L118.0 30.0 Q116.45 30.0 114.75 29.4 112.65 28.65 112.65 27.35 L116.85 7.95 Q117.1 6.5 119.8 5.65 121.8 5.0 123.8 5.0 L146.85 5.0 Q148.55 5.0 150.25 5.55 M139.3 25.2 L142.6 9.75 126.05 9.75 122.75 25.2 139.3 25.2" fill="url(#gradient0)" fill-rule="evenodd" stroke="none"/>
    <path d="M114.75 9.75 L102.05 9.75 97.75 29.95 88.3 29.95 92.6 9.75 79.05 9.75 80.05 5.0 115.75 5.0 114.75 9.75" fill="url(#gradient1)" fill-rule="evenodd" stroke="none"/>
    <path d="M75.45 5.55 Q77.8 6.3 77.8 7.55 L73.7 27.05 Q73.4 28.45 71.0 29.3 69.0 30.0 67.15 30.0 L43.2 30.0 Q41.65 30.0 39.95 29.4 37.85 28.65 37.85 27.35 L42.05 7.95 Q42.3 6.5 45.0 5.65 47.0 5.0 49.0 5.0 L72.05 5.0 Q73.75 5.0 75.45 5.55 M64.5 25.2 L67.8 9.75 51.25 9.75 47.95 25.2 64.5 25.2" fill="url(#gradient2)" fill-rule="evenodd" stroke="none"/>
    <path d="M40.45 3.6 L40.4 4.05 35.7 34.95 26.2 34.95 30.5 6.65 27.3 6.65 23.0 34.95 13.55 34.95 17.85 6.65 13.75 6.65 9.45 34.95 0.0 34.95 5.3 0.0 34.65 0.0 Q36.55 0.0 38.3 0.85 40.45 1.9 40.45 3.6" fill="url(#gradient3)" fill-rule="evenodd" stroke="none"/>
  </g>
  <defs>
    <radialGradient cx="0" cy="0" gradientTransform="matrix(0.0284, 0.0, 0.0, 0.0284, 132.65, 17.5)" gradientUnits="userSpaceOnUse" id="gradient0" r="819.2" spreadMethod="pad">
      <stop offset="0.5098039215686274" stop-color="#7e9290"/>
      <stop offset="0.8549019607843137" stop-color="#39464c"/>
    </radialGradient>
    <radialGradient cx="0" cy="0" gradientTransform="matrix(0.0271, 0.0, 0.0, 0.0271, 97.4, 17.5)" gradientUnits="userSpaceOnUse" id="gradient1" r="819.2" spreadMethod="pad">
      <stop offset="0.5098039215686274" stop-color="#7e9290"/>
      <stop offset="0.8549019607843137" stop-color="#39464c"/>
    </radialGradient>
    <radialGradient cx="0" cy="0" gradientTransform="matrix(0.0284, 0.0, 0.0, 0.0284, 57.85, 17.5)" gradientUnits="userSpaceOnUse" id="gradient2" r="819.2" spreadMethod="pad">
      <stop offset="0.5098039215686274" stop-color="#7e9290"/>
      <stop offset="0.8549019607843137" stop-color="#39464c"/>
    </radialGradient>
    <radialGradient cx="0" cy="0" gradientTransform="matrix(0.0327, 0.0, 0.0, 0.0327, 20.25, 17.5)" gradientUnits="userSpaceOnUse" id="gradient3" r="819.2" spreadMethod="pad">
      <stop offset="0.5098039215686274" stop-color="#7e9290"/>
      <stop offset="0.8549019607843137" stop-color="#39464c"/>
    </radialGradient>
  </defs>
</svg>
