<?xml version="1.0" encoding="UTF-8" standalone="no"?>
<svg xmlns:xlink="http://www.w3.org/1999/xlink" height="87.35px" width="33.05px" xmlns="http://www.w3.org/2000/svg">
  <g transform="matrix(1, 0, 0, 1, 16.9, 23.9)">
    <path d="M-16.8 59.95 L15.95 59.95 15.95 61.4 -16.8 61.4 -16.8 59.95" fill="#797576" fill-rule="evenodd" stroke="none"/>
    <path d="M-16.8 59.95 L-16.8 59.05 15.95 59.05 15.95 59.95 -16.8 59.95" fill="#a7a7a7" fill-rule="evenodd" stroke="none"/>
    <path d="M11.85 8.2 L11.85 10.8 -13.8 10.8 -13.8 8.2 11.85 8.2" fill="#262425" fill-rule="evenodd" stroke="none"/>
    <path d="M-13.8 8.2 L-13.8 7.1 11.85 7.1 11.85 8.2 -13.8 8.2" fill="#5b5758" fill-rule="evenodd" stroke="none"/>
    <path d="M15.85 10.3 L-16.85 10.3 -16.85 9.4 15.85 9.4 15.85 10.3" fill="#a7a7a7" fill-rule="evenodd" stroke="none"/>
    <path d="M15.85 10.3 L15.85 11.75 -16.85 11.75 -16.85 10.3 15.85 10.3" fill="#797576" fill-rule="evenodd" stroke="none"/>
    <path d="M-13.8 17.1 L-13.8 16.35 11.85 16.35 11.85 17.1 -13.8 17.1" fill="#5b5758" fill-rule="evenodd" stroke="none"/>
    <path d="M11.85 17.1 L11.85 18.9 -13.8 18.9 -13.8 17.1 11.85 17.1" fill="#262425" fill-rule="evenodd" stroke="none"/>
    <path d="M11.85 33.9 L11.85 35.7 -13.8 35.7 -13.8 33.9 11.85 33.9" fill="#262425" fill-rule="evenodd" stroke="none"/>
    <path d="M-13.8 33.9 L-13.8 33.15 11.85 33.15 11.85 33.9 -13.8 33.9" fill="#5b5758" fill-rule="evenodd" stroke="none"/>
    <path d="M-8.15 43.65 L6.55 43.65 6.55 44.65 -8.15 44.65 -8.15 43.65" fill="#5b5758" fill-rule="evenodd" stroke="none"/>
    <path d="M-8.15 43.65 L-8.15 41.3 6.55 41.3 6.55 43.65 -8.15 43.65" fill="#a7a7a7" fill-rule="evenodd" stroke="none"/>
    <path d="M-7.65 43.85 L-7.65 11.7 -6.35 11.7 -6.35 43.85 -7.65 43.85" fill="#a7a7a7" fill-rule="evenodd" stroke="none"/>
    <path d="M-7.65 43.85 L-8.15 43.85 -8.15 11.7 -7.65 11.7 -7.65 43.85" fill="#5b5758" fill-rule="evenodd" stroke="none"/>
    <path d="M6.1 11.7 L6.6 11.7 6.6 43.85 6.1 43.85 6.1 11.7" fill="#5b5758" fill-rule="evenodd" stroke="none"/>
    <path d="M6.1 43.85 L4.8 43.85 4.8 11.7 6.1 11.7 6.1 43.85" fill="#a7a7a7" fill-rule="evenodd" stroke="none"/>
    <path d="M4.15 13.05 L4.75 13.05 4.75 17.6 4.15 17.6 4.15 13.05 M-6.45 13.05 L-5.8 13.05 -5.8 17.6 -6.45 17.6 -6.45 13.05 M-6.45 18.7 L-5.8 18.7 -5.8 20.6 4.15 20.6 4.15 18.7 4.75 18.7 4.75 21.3 -6.45 21.3 -6.45 18.7 M1.0 18.7 L-2.25 18.7 -2.25 17.6 1.0 17.6 1.0 18.7" fill="#5a5657" fill-rule="evenodd" stroke="none"/>
    <path d="M4.75 13.05 L4.15 13.05 -5.8 13.05 -6.45 13.05 -6.45 11.7 4.75 11.7 4.75 13.05" fill="#3f3b3c" fill-rule="evenodd" stroke="none"/>
    <path d="M4.15 13.05 L4.15 17.6 4.75 17.6 4.75 18.7 4.15 18.7 4.15 20.6 -5.8 20.6 -5.8 18.7 -6.45 18.7 -6.45 17.6 -5.8 17.6 -5.8 13.05 4.15 13.05 M1.0 18.7 L1.0 17.6 -2.25 17.6 -2.25 18.7 1.0 18.7" fill="url(#gradient0)" fill-rule="evenodd" stroke="none"/>
    <path d="M-6.2 28.95 L-6.2 27.7 5.1 27.7 5.1 28.95 4.5 28.95 -5.5 28.95 -6.2 28.95" fill="#3f3b3c" fill-rule="evenodd" stroke="none"/>
    <path d="M5.1 32.95 L5.1 33.9 4.5 33.9 4.5 35.6 -5.5 35.6 -5.5 33.9 -6.2 33.9 -6.2 32.95 -5.5 32.95 -5.5 28.95 4.5 28.95 4.5 32.95 5.1 32.95 M1.35 33.9 L1.35 32.95 -1.95 32.95 -1.95 33.9 1.35 33.9" fill="url(#gradient1)" fill-rule="evenodd" stroke="none"/>
    <path d="M5.1 28.95 L5.1 32.95 4.5 32.95 4.5 28.95 5.1 28.95 M5.1 33.9 L5.1 36.25 -6.2 36.25 -6.2 33.9 -5.5 33.9 -5.5 35.6 4.5 35.6 4.5 33.9 5.1 33.9 M-6.2 32.95 L-6.2 28.95 -5.5 28.95 -5.5 32.95 -6.2 32.95 M1.35 33.9 L-1.95 33.9 -1.95 32.95 1.35 32.95 1.35 33.9" fill="#5a5657" fill-rule="evenodd" stroke="none"/>
    <path d="M4.85 36.15 L4.25 36.15 -5.7 36.15 -6.4 36.15 -6.4 35.3 4.85 35.3 4.85 36.15 M4.25 39.0 L4.85 39.0 4.85 39.7 4.25 39.7 1.15 39.7 1.15 39.0 4.25 39.0 M-6.4 39.7 L-6.4 39.0 -5.7 39.0 -2.15 39.0 -2.15 39.7 -5.7 39.7 -6.4 39.7" fill="#3f3b3c" fill-rule="evenodd" stroke="none"/>
    <path d="M4.25 36.15 L4.85 36.15 4.85 39.0 4.25 39.0 4.25 36.15 M-6.4 36.15 L-5.7 36.15 -5.7 39.0 -6.4 39.0 -6.4 36.15 M4.25 39.7 L4.85 39.7 4.85 41.35 -6.4 41.35 -6.4 39.7 -5.7 39.7 -5.7 40.9 4.25 40.9 4.25 39.7" fill="#5a5657" fill-rule="evenodd" stroke="none"/>
    <path d="M4.25 36.15 L4.25 39.0 1.15 39.0 -2.15 39.0 -5.7 39.0 -5.7 36.15 4.25 36.15 M1.15 39.7 L4.25 39.7 4.25 40.9 -5.7 40.9 -5.7 39.7 -2.15 39.7 1.15 39.7" fill="url(#gradient2)" fill-rule="evenodd" stroke="none"/>
    <path d="M1.15 39.0 L1.15 39.7 -2.15 39.7 -2.15 39.0 1.15 39.0" fill="#b2aeaf" fill-rule="evenodd" stroke="none"/>
    <path d="M-6.95 24.7 L-6.95 22.8 5.65 22.8 5.65 24.7 -6.95 24.7" fill="url(#gradient3)" fill-rule="evenodd" stroke="none"/>
    <path d="M-6.95 22.8 L-6.95 20.9 5.65 20.9 5.65 22.8 -6.95 22.8" fill="url(#gradient4)" fill-rule="evenodd" stroke="none"/>
    <path d="M-6.95 20.9 L-6.95 20.3 5.65 20.3 5.65 20.9 -6.95 20.9" fill="url(#gradient5)" fill-rule="evenodd" stroke="none"/>
    <path d="M5.65 26.8 L5.65 27.4 -6.95 27.4 -6.95 26.8 5.65 26.8" fill="url(#gradient6)" fill-rule="evenodd" stroke="none"/>
    <path d="M5.65 24.7 L5.65 26.8 -6.95 26.8 -6.95 24.7 5.65 24.7" fill="url(#gradient7)" fill-rule="evenodd" stroke="none"/>
    <path d="M-2.5 30.95 L-2.5 29.7 1.25 29.7 1.25 30.95 -2.5 30.95" fill="url(#gradient8)" fill-rule="evenodd" stroke="none"/>
    <path d="M-2.5 29.7 L-2.5 28.5 1.25 28.5 1.25 29.7 -2.5 29.7" fill="url(#gradient9)" fill-rule="evenodd" stroke="none"/>
    <path d="M-2.5 28.5 L-2.5 28.1 1.25 28.1 1.25 28.5 -2.5 28.5" fill="url(#gradient10)" fill-rule="evenodd" stroke="none"/>
    <path d="M1.25 32.3 L1.25 32.7 -2.5 32.7 -2.5 32.3 1.25 32.3" fill="url(#gradient11)" fill-rule="evenodd" stroke="none"/>
    <path d="M1.25 30.95 L1.25 32.3 -2.5 32.3 -2.5 30.95 1.25 30.95" fill="url(#gradient12)" fill-rule="evenodd" stroke="none"/>
    <path d="M-2.5 36.75 L-2.5 35.8 1.25 35.8 1.25 36.75 -2.5 36.75" fill="url(#gradient13)" fill-rule="evenodd" stroke="none"/>
    <path d="M-2.5 35.8 L-2.5 35.0 1.25 35.0 1.25 35.8 -2.5 35.8" fill="url(#gradient14)" fill-rule="evenodd" stroke="none"/>
    <path d="M-2.5 35.0 L-2.5 34.15 1.25 34.15 1.25 35.0 -2.5 35.0" fill="url(#gradient15)" fill-rule="evenodd" stroke="none"/>
    <path d="M-2.5 34.15 L-2.5 33.9 1.25 33.9 1.25 34.15 -2.5 34.15" fill="url(#gradient16)" fill-rule="evenodd" stroke="none"/>
    <path d="M1.25 36.75 L1.25 37.0 -2.5 37.0 -2.5 36.75 1.25 36.75" fill="url(#gradient17)" fill-rule="evenodd" stroke="none"/>
    <path d="M3.2 12.25 L0.4 12.25 0.4 11.45 3.2 11.45 3.2 12.25" fill="url(#gradient18)" fill-rule="evenodd" stroke="none"/>
    <path d="M0.4 12.25 L3.2 12.25 3.2 14.65 0.4 14.65 0.4 12.25" fill="url(#gradient19)" fill-rule="evenodd" stroke="none"/>
    <path d="M0.4 14.65 L3.2 14.65 3.2 17.05 0.4 17.05 0.4 14.65" fill="url(#gradient20)" fill-rule="evenodd" stroke="none"/>
    <path d="M0.4 17.05 L3.2 17.05 3.2 19.75 0.4 19.75 0.4 17.05" fill="url(#gradient21)" fill-rule="evenodd" stroke="none"/>
    <path d="M0.4 19.75 L3.2 19.75 3.2 20.5 0.4 20.5 0.4 19.75" fill="url(#gradient22)" fill-rule="evenodd" stroke="none"/>
    <path d="M-0.85 12.25 L-0.85 14.65 -3.65 14.65 -3.65 12.25 -0.85 12.25" fill="url(#gradient23)" fill-rule="evenodd" stroke="none"/>
    <path d="M-3.65 12.25 L-3.65 11.45 -0.85 11.45 -0.85 12.25 -3.65 12.25" fill="url(#gradient24)" fill-rule="evenodd" stroke="none"/>
    <path d="M-0.85 14.65 L-0.85 17.05 -3.65 17.05 -3.65 14.65 -0.85 14.65" fill="url(#gradient25)" fill-rule="evenodd" stroke="none"/>
    <path d="M-0.85 17.05 L-0.85 19.75 -3.65 19.75 -3.65 17.05 -0.85 17.05" fill="url(#gradient26)" fill-rule="evenodd" stroke="none"/>
    <path d="M-0.85 19.75 L-0.85 20.5 -3.65 20.5 -3.65 19.75 -0.85 19.75" fill="url(#gradient27)" fill-rule="evenodd" stroke="none"/>
    <path d="M-16.8 43.85 L-16.8 25.25 -11.65 25.25 -11.65 43.85 -16.8 43.85" fill="#cccccc" fill-rule="evenodd" stroke="none"/>
    <path d="M-16.25 41.85 L-16.25 27.25 -12.2 27.25 -12.2 41.85 -16.25 41.85" fill="#ffffff" fill-rule="evenodd" stroke="none"/>
    <path d="M16.15 43.85 L11.0 43.85 11.0 25.25 16.15 25.25 16.15 43.85" fill="#cccccc" fill-rule="evenodd" stroke="none"/>
    <path d="M11.55 41.85 L11.55 27.25 15.6 27.25 15.6 41.85 11.55 41.85" fill="#ffffff" fill-rule="evenodd" stroke="none"/>
    <path d="M14.55 58.75 L-14.85 58.75 -14.85 -7.05 14.55 -7.05 14.55 58.75" fill="url(#gradient28)" fill-rule="evenodd" stroke="none"/>
    <path d="M-15.05 -6.75 L-15.05 -8.6 14.6 -8.6 14.6 -6.75 -15.05 -6.75" fill="#5b5758" fill-rule="evenodd" stroke="none"/>
    <path d="M14.6 -6.75 L14.6 -2.25 -15.05 -2.25 -15.05 -6.75 14.6 -6.75" fill="#262425" fill-rule="evenodd" stroke="none"/>
    <path d="M-16.6 -0.9 L-16.6 -3.6 16.1 -3.6 16.1 -0.9 -16.6 -0.9" fill="#a7a7a7" fill-rule="evenodd" stroke="none"/>
    <path d="M-16.6 -0.9 L16.1 -0.9 16.1 3.55 -16.6 3.55 -16.6 -0.9" fill="#797576" fill-rule="evenodd" stroke="none"/>
    <path d="M14.65 4.15 L14.65 5.9 -14.95 5.9 -14.95 4.15 14.65 4.15" fill="#262425" fill-rule="evenodd" stroke="none"/>
    <path d="M-14.95 4.15 L-14.95 3.4 14.65 3.4 14.65 4.15 -14.95 4.15" fill="#5b5758" fill-rule="evenodd" stroke="none"/>
    <path d="M-14.85 20.9 L-14.85 20.15 14.6 20.15 14.6 20.9 -14.85 20.9" fill="#5b5758" fill-rule="evenodd" stroke="none"/>
    <path d="M14.6 20.9 L14.6 22.7 -14.85 22.7 -14.85 20.9 14.6 20.9" fill="#262425" fill-rule="evenodd" stroke="none"/>
    <path d="M4.1 57.6 L5.25 59.4 3.3 59.4 2.15 57.6 4.1 57.6" fill="#e4e4e4" fill-rule="evenodd" stroke="none"/>
    <path d="M5.7 57.6 L6.85 59.4 4.95 59.4 3.8 57.6 5.7 57.6" fill="#bc100d" fill-rule="evenodd" stroke="none"/>
    <path d="M7.65 57.6 L8.8 59.4 6.85 59.4 5.7 57.6 7.65 57.6" fill="#e4e4e4" fill-rule="evenodd" stroke="none"/>
    <path d="M9.45 57.6 L10.6 59.4 8.7 59.4 7.55 57.6 9.45 57.6" fill="#bc100d" fill-rule="evenodd" stroke="none"/>
    <path d="M11.45 57.6 L12.6 59.4 10.65 59.4 9.5 57.6 11.45 57.6" fill="#e4e4e4" fill-rule="evenodd" stroke="none"/>
    <path d="M13.0 57.6 L14.15 59.4 12.25 59.4 11.1 57.6 13.0 57.6" fill="#bc100d" fill-rule="evenodd" stroke="none"/>
    <path d="M14.95 57.6 L16.1 59.4 14.15 59.4 13.0 57.6 14.95 57.6" fill="#e4e4e4" fill-rule="evenodd" stroke="none"/>
    <path d="M-7.25 57.6 L-6.1 59.4 -8.05 59.4 -9.2 57.6 -7.25 57.6" fill="#e4e4e4" fill-rule="evenodd" stroke="none"/>
    <path d="M-5.65 57.6 L-4.5 59.4 -6.4 59.4 -7.55 57.6 -5.65 57.6" fill="#bc100d" fill-rule="evenodd" stroke="none"/>
    <path d="M-3.7 57.6 L-2.55 59.4 -4.5 59.4 -5.65 57.6 -3.7 57.6" fill="#e4e4e4" fill-rule="evenodd" stroke="none"/>
    <path d="M-1.9 57.6 L-0.75 59.4 -2.65 59.4 -3.8 57.6 -1.9 57.6" fill="#bc100d" fill-rule="evenodd" stroke="none"/>
    <path d="M0.1 57.6 L1.25 59.4 -0.7 59.4 -1.85 57.6 0.1 57.6" fill="#e4e4e4" fill-rule="evenodd" stroke="none"/>
    <path d="M1.65 57.6 L2.8 59.4 0.9 59.4 -0.25 57.6 1.65 57.6" fill="#bc100d" fill-rule="evenodd" stroke="none"/>
    <path d="M3.6 57.6 L4.75 59.4 2.8 59.4 1.65 57.6 3.6 57.6" fill="#e4e4e4" fill-rule="evenodd" stroke="none"/>
    <path d="M-14.95 57.6 L-13.8 59.4 -15.75 59.4 -16.9 57.6 -14.95 57.6" fill="#e4e4e4" fill-rule="evenodd" stroke="none"/>
    <path d="M-13.15 57.6 L-12.0 59.4 -13.9 59.4 -15.05 57.6 -13.15 57.6" fill="#bc100d" fill-rule="evenodd" stroke="none"/>
    <path d="M-11.2 57.6 L-10.05 59.4 -12.0 59.4 -13.15 57.6 -11.2 57.6" fill="#e4e4e4" fill-rule="evenodd" stroke="none"/>
    <path d="M-9.6 57.6 L-8.45 59.4 -10.35 59.4 -11.5 57.6 -9.6 57.6" fill="#bc100d" fill-rule="evenodd" stroke="none"/>
    <path d="M-7.65 57.6 L-6.5 59.4 -8.45 59.4 -9.6 57.6 -7.65 57.6" fill="#e4e4e4" fill-rule="evenodd" stroke="none"/>
    <path d="M-14.4 47.05 L-14.4 46.45 13.95 46.45 13.95 47.05 -14.4 47.05" fill="url(#gradient29)" fill-rule="evenodd" stroke="none"/>
    <path d="M13.95 47.05 L13.95 48.95 -14.4 48.95 -14.4 47.05 13.95 47.05" fill="url(#gradient30)" fill-rule="evenodd" stroke="none"/>
    <path d="M13.95 52.95 L13.95 53.55 -14.4 53.55 -14.4 52.95 13.95 52.95" fill="url(#gradient31)" fill-rule="evenodd" stroke="none"/>
    <path d="M13.95 50.85 L13.95 52.95 -14.4 52.95 -14.4 50.85 13.95 50.85" fill="url(#gradient32)" fill-rule="evenodd" stroke="none"/>
    <path d="M13.95 48.95 L13.95 50.85 -14.4 50.85 -14.4 48.95 13.95 48.95" fill="url(#gradient33)" fill-rule="evenodd" stroke="none"/>
    <path d="M-12.2 36.25 L-12.2 32.05 11.9 32.05 11.9 36.25 -12.2 36.25" fill="url(#gradient34)" fill-rule="evenodd" stroke="none"/>
    <path d="M-12.2 32.05 L-12.2 30.7 11.9 30.7 11.9 32.05 -12.2 32.05" fill="url(#gradient35)" fill-rule="evenodd" stroke="none"/>
    <path d="M11.9 45.05 L11.9 46.4 -12.2 46.4 -12.2 45.05 11.9 45.05" fill="url(#gradient36)" fill-rule="evenodd" stroke="none"/>
    <path d="M11.9 40.45 L11.9 45.05 -12.2 45.05 -12.2 40.45 11.9 40.45" fill="url(#gradient37)" fill-rule="evenodd" stroke="none"/>
    <path d="M11.9 36.25 L11.9 40.45 -12.2 40.45 -12.2 36.25 11.9 36.25" fill="url(#gradient38)" fill-rule="evenodd" stroke="none"/>
    <path d="M13.95 30.7 L13.95 31.3 -14.4 31.3 -14.4 30.7 13.95 30.7" fill="url(#gradient39)" fill-rule="evenodd" stroke="none"/>
    <path d="M13.95 28.6 L13.95 30.7 -14.4 30.7 -14.4 28.6 13.95 28.6" fill="url(#gradient40)" fill-rule="evenodd" stroke="none"/>
    <path d="M13.95 26.7 L13.95 28.6 -14.4 28.6 -14.4 26.7 13.95 26.7" fill="url(#gradient41)" fill-rule="evenodd" stroke="none"/>
    <path d="M13.95 24.8 L13.95 26.7 -14.4 26.7 -14.4 24.8 13.95 24.8" fill="url(#gradient42)" fill-rule="evenodd" stroke="none"/>
    <path d="M-14.4 24.8 L-14.4 24.2 13.95 24.2 13.95 24.8 -14.4 24.8" fill="url(#gradient43)" fill-rule="evenodd" stroke="none"/>
    <path d="M6.6 -23.9 L6.6 63.45 4.2 63.45 4.2 -23.9 6.6 -23.9" fill="url(#gradient44)" fill-rule="evenodd" stroke="none"/>
    <path d="M-4.15 -23.9 L-4.15 63.45 -6.55 63.45 -6.55 -23.9 -4.15 -23.9" fill="url(#gradient45)" fill-rule="evenodd" stroke="none"/>
  </g>
  <defs>
    <linearGradient gradientTransform="matrix(0.0, 0.0091, -0.0041, 0.0, 0.0, 12.35)" gradientUnits="userSpaceOnUse" id="gradient0" spreadMethod="pad" x1="-819.2" x2="819.2">
      <stop offset="0.0" stop-color="#332f30"/>
      <stop offset="0.36470588235294116" stop-color="#dfdbdc"/>
      <stop offset="0.5176470588235295" stop-color="#a7a7a7"/>
      <stop offset="0.6901960784313725" stop-color="#dfdbdc"/>
      <stop offset="1.0" stop-color="#332f30"/>
    </linearGradient>
    <linearGradient gradientTransform="matrix(0.0, 0.0262, -0.0042, 0.0, 0.1, 12.55)" gradientUnits="userSpaceOnUse" id="gradient1" spreadMethod="pad" x1="-819.2" x2="819.2">
      <stop offset="0.0" stop-color="#332f30"/>
      <stop offset="0.36470588235294116" stop-color="#dfdbdc"/>
      <stop offset="0.5176470588235295" stop-color="#a7a7a7"/>
      <stop offset="0.6901960784313725" stop-color="#dfdbdc"/>
      <stop offset="1.0" stop-color="#332f30"/>
    </linearGradient>
    <linearGradient gradientTransform="matrix(0.0, 0.0187, -0.0042, 0.0, -0.4, 27.25)" gradientUnits="userSpaceOnUse" id="gradient2" spreadMethod="pad" x1="-819.2" x2="819.2">
      <stop offset="0.0" stop-color="#332f30"/>
      <stop offset="0.36470588235294116" stop-color="#dfdbdc"/>
      <stop offset="0.5176470588235295" stop-color="#a7a7a7"/>
      <stop offset="0.6901960784313725" stop-color="#dfdbdc"/>
      <stop offset="1.0" stop-color="#332f30"/>
    </linearGradient>
    <linearGradient gradientTransform="matrix(-0.0058, 0.0, 0.0, -0.0056, -0.65, 23.95)" gradientUnits="userSpaceOnUse" id="gradient3" spreadMethod="pad" x1="-819.2" x2="819.2">
      <stop offset="0.0" stop-color="#332f30"/>
      <stop offset="0.36470588235294116" stop-color="#dfdbdc"/>
      <stop offset="0.5176470588235295" stop-color="#a7a7a7"/>
      <stop offset="0.6901960784313725" stop-color="#dfdbdc"/>
      <stop offset="1.0" stop-color="#332f30"/>
    </linearGradient>
    <linearGradient gradientTransform="matrix(-0.0077, 0.0, 0.0, -0.0056, -0.65, 24.25)" gradientUnits="userSpaceOnUse" id="gradient4" spreadMethod="pad" x1="-819.2" x2="819.2">
      <stop offset="0.0" stop-color="#332f30"/>
      <stop offset="0.36470588235294116" stop-color="#dfdbdc"/>
      <stop offset="0.5176470588235295" stop-color="#a7a7a7"/>
      <stop offset="0.6901960784313725" stop-color="#dfdbdc"/>
      <stop offset="1.0" stop-color="#332f30"/>
    </linearGradient>
    <linearGradient gradientTransform="matrix(-1.0E-4, -0.0077, 0.0055, -1.0E-4, -4.8, 26.9)" gradientUnits="userSpaceOnUse" id="gradient5" spreadMethod="pad" x1="-819.2" x2="819.2">
      <stop offset="0.0" stop-color="#332f30"/>
      <stop offset="0.36470588235294116" stop-color="#dfdbdc"/>
      <stop offset="0.5176470588235295" stop-color="#a7a7a7"/>
      <stop offset="0.6901960784313725" stop-color="#dfdbdc"/>
      <stop offset="1.0" stop-color="#332f30"/>
    </linearGradient>
    <linearGradient gradientTransform="matrix(0.0, -0.0069, 0.0044, 0.0, -0.25, 21.65)" gradientUnits="userSpaceOnUse" id="gradient6" spreadMethod="pad" x1="-819.2" x2="819.2">
      <stop offset="0.0" stop-color="#332f30"/>
      <stop offset="0.36470588235294116" stop-color="#dfdbdc"/>
      <stop offset="0.5176470588235295" stop-color="#a7a7a7"/>
      <stop offset="0.6901960784313725" stop-color="#dfdbdc"/>
      <stop offset="1.0" stop-color="#332f30"/>
    </linearGradient>
    <linearGradient gradientTransform="matrix(-0.0077, 0.0, 0.0, -0.0057, -0.65, 23.7)" gradientUnits="userSpaceOnUse" id="gradient7" spreadMethod="pad" x1="-819.2" x2="819.2">
      <stop offset="0.0" stop-color="#332f30"/>
      <stop offset="0.36470588235294116" stop-color="#dfdbdc"/>
      <stop offset="0.5176470588235295" stop-color="#a7a7a7"/>
      <stop offset="0.6901960784313725" stop-color="#dfdbdc"/>
      <stop offset="1.0" stop-color="#332f30"/>
    </linearGradient>
    <linearGradient gradientTransform="matrix(-0.0017, 0.0, 0.0, -0.0036, -0.65, 30.45)" gradientUnits="userSpaceOnUse" id="gradient8" spreadMethod="pad" x1="-819.2" x2="819.2">
      <stop offset="0.0" stop-color="#332f30"/>
      <stop offset="0.36470588235294116" stop-color="#dfdbdc"/>
      <stop offset="0.5176470588235295" stop-color="#a7a7a7"/>
      <stop offset="0.6901960784313725" stop-color="#dfdbdc"/>
      <stop offset="1.0" stop-color="#332f30"/>
    </linearGradient>
    <linearGradient gradientTransform="matrix(-0.0023, 0.0, 0.0, -0.0036, -0.65, 30.65)" gradientUnits="userSpaceOnUse" id="gradient9" spreadMethod="pad" x1="-819.2" x2="819.2">
      <stop offset="0.0" stop-color="#332f30"/>
      <stop offset="0.36470588235294116" stop-color="#dfdbdc"/>
      <stop offset="0.5176470588235295" stop-color="#a7a7a7"/>
      <stop offset="0.6901960784313725" stop-color="#dfdbdc"/>
      <stop offset="1.0" stop-color="#332f30"/>
    </linearGradient>
    <linearGradient gradientTransform="matrix(0.0, -0.0049, 0.0016, 0.0, -1.85, 32.35)" gradientUnits="userSpaceOnUse" id="gradient10" spreadMethod="pad" x1="-819.2" x2="819.2">
      <stop offset="0.0" stop-color="#332f30"/>
      <stop offset="0.36470588235294116" stop-color="#dfdbdc"/>
      <stop offset="0.5176470588235295" stop-color="#a7a7a7"/>
      <stop offset="0.6901960784313725" stop-color="#dfdbdc"/>
      <stop offset="1.0" stop-color="#332f30"/>
    </linearGradient>
    <linearGradient gradientTransform="matrix(0.0, -0.0045, 0.0013, 0.0, -0.5, 29.0)" gradientUnits="userSpaceOnUse" id="gradient11" spreadMethod="pad" x1="-819.2" x2="819.2">
      <stop offset="0.0" stop-color="#332f30"/>
      <stop offset="0.36470588235294116" stop-color="#dfdbdc"/>
      <stop offset="0.5176470588235295" stop-color="#a7a7a7"/>
      <stop offset="0.6901960784313725" stop-color="#dfdbdc"/>
      <stop offset="1.0" stop-color="#332f30"/>
    </linearGradient>
    <linearGradient gradientTransform="matrix(-0.0023, 0.0, 0.0, -0.0036, -0.65, 30.3)" gradientUnits="userSpaceOnUse" id="gradient12" spreadMethod="pad" x1="-819.2" x2="819.2">
      <stop offset="0.0" stop-color="#332f30"/>
      <stop offset="0.36470588235294116" stop-color="#dfdbdc"/>
      <stop offset="0.5176470588235295" stop-color="#a7a7a7"/>
      <stop offset="0.6901960784313725" stop-color="#dfdbdc"/>
      <stop offset="1.0" stop-color="#332f30"/>
    </linearGradient>
    <linearGradient gradientTransform="matrix(-0.0023, 0.0, 0.0, -0.0025, -0.65, 35.4)" gradientUnits="userSpaceOnUse" id="gradient13" spreadMethod="pad" x1="-819.2" x2="819.2">
      <stop offset="0.0" stop-color="#332f30"/>
      <stop offset="0.36470588235294116" stop-color="#dfdbdc"/>
      <stop offset="0.5176470588235295" stop-color="#a7a7a7"/>
      <stop offset="0.6901960784313725" stop-color="#dfdbdc"/>
      <stop offset="1.0" stop-color="#332f30"/>
    </linearGradient>
    <linearGradient gradientTransform="matrix(-0.0017, 0.0, 0.0, -0.0025, -0.65, 35.5)" gradientUnits="userSpaceOnUse" id="gradient14" spreadMethod="pad" x1="-819.2" x2="819.2">
      <stop offset="0.0" stop-color="#332f30"/>
      <stop offset="0.36470588235294116" stop-color="#dfdbdc"/>
      <stop offset="0.5176470588235295" stop-color="#a7a7a7"/>
      <stop offset="0.6901960784313725" stop-color="#dfdbdc"/>
      <stop offset="1.0" stop-color="#332f30"/>
    </linearGradient>
    <linearGradient gradientTransform="matrix(-0.0023, 0.0, 0.0, -0.0024, -0.65, 35.65)" gradientUnits="userSpaceOnUse" id="gradient15" spreadMethod="pad" x1="-819.2" x2="819.2">
      <stop offset="0.0" stop-color="#332f30"/>
      <stop offset="0.36470588235294116" stop-color="#dfdbdc"/>
      <stop offset="0.5176470588235295" stop-color="#a7a7a7"/>
      <stop offset="0.6901960784313725" stop-color="#dfdbdc"/>
      <stop offset="1.0" stop-color="#332f30"/>
    </linearGradient>
    <linearGradient gradientTransform="matrix(0.0, -0.0034, 0.0016, 0.0, -1.85, 36.8)" gradientUnits="userSpaceOnUse" id="gradient16" spreadMethod="pad" x1="-819.2" x2="819.2">
      <stop offset="0.0" stop-color="#332f30"/>
      <stop offset="0.36470588235294116" stop-color="#dfdbdc"/>
      <stop offset="0.5176470588235295" stop-color="#a7a7a7"/>
      <stop offset="0.6901960784313725" stop-color="#dfdbdc"/>
      <stop offset="1.0" stop-color="#332f30"/>
    </linearGradient>
    <linearGradient gradientTransform="matrix(0.0, -0.003, 0.0013, 0.0, -0.5, 34.5)" gradientUnits="userSpaceOnUse" id="gradient17" spreadMethod="pad" x1="-819.2" x2="819.2">
      <stop offset="0.0" stop-color="#332f30"/>
      <stop offset="0.36470588235294116" stop-color="#dfdbdc"/>
      <stop offset="0.5176470588235295" stop-color="#a7a7a7"/>
      <stop offset="0.6901960784313725" stop-color="#dfdbdc"/>
      <stop offset="1.0" stop-color="#332f30"/>
    </linearGradient>
    <linearGradient gradientTransform="matrix(0.0, -0.0098, 0.0012, -1.0E-4, 0.85, 19.9)" gradientUnits="userSpaceOnUse" id="gradient18" spreadMethod="pad" x1="-819.2" x2="819.2">
      <stop offset="0.0" stop-color="#332f30"/>
      <stop offset="0.36470588235294116" stop-color="#dfdbdc"/>
      <stop offset="0.5176470588235295" stop-color="#a7a7a7"/>
      <stop offset="0.6901960784313725" stop-color="#dfdbdc"/>
      <stop offset="1.0" stop-color="#332f30"/>
    </linearGradient>
    <linearGradient gradientTransform="matrix(-0.0017, 0.0, 0.0, -0.007, 1.8, 16.5)" gradientUnits="userSpaceOnUse" id="gradient19" spreadMethod="pad" x1="-819.2" x2="819.2">
      <stop offset="0.0" stop-color="#332f30"/>
      <stop offset="0.36470588235294116" stop-color="#dfdbdc"/>
      <stop offset="0.5176470588235295" stop-color="#a7a7a7"/>
      <stop offset="0.6901960784313725" stop-color="#dfdbdc"/>
      <stop offset="1.0" stop-color="#332f30"/>
    </linearGradient>
    <linearGradient gradientTransform="matrix(-0.0013, 0.0, 0.0, -0.0071, 1.8, 16.15)" gradientUnits="userSpaceOnUse" id="gradient20" spreadMethod="pad" x1="-819.2" x2="819.2">
      <stop offset="0.0" stop-color="#332f30"/>
      <stop offset="0.36470588235294116" stop-color="#dfdbdc"/>
      <stop offset="0.5176470588235295" stop-color="#a7a7a7"/>
      <stop offset="0.6901960784313725" stop-color="#dfdbdc"/>
      <stop offset="1.0" stop-color="#332f30"/>
    </linearGradient>
    <linearGradient gradientTransform="matrix(-0.0017, 0.0, 0.0, -0.0072, 1.8, 15.85)" gradientUnits="userSpaceOnUse" id="gradient21" spreadMethod="pad" x1="-819.2" x2="819.2">
      <stop offset="0.0" stop-color="#332f30"/>
      <stop offset="0.36470588235294116" stop-color="#dfdbdc"/>
      <stop offset="0.5176470588235295" stop-color="#a7a7a7"/>
      <stop offset="0.6901960784313725" stop-color="#dfdbdc"/>
      <stop offset="1.0" stop-color="#332f30"/>
    </linearGradient>
    <linearGradient gradientTransform="matrix(0.0, -0.0088, 0.001, 0.0, 1.9, 13.2)" gradientUnits="userSpaceOnUse" id="gradient22" spreadMethod="pad" x1="-819.2" x2="819.2">
      <stop offset="0.0" stop-color="#332f30"/>
      <stop offset="0.36470588235294116" stop-color="#dfdbdc"/>
      <stop offset="0.5176470588235295" stop-color="#a7a7a7"/>
      <stop offset="0.6901960784313725" stop-color="#dfdbdc"/>
      <stop offset="1.0" stop-color="#332f30"/>
    </linearGradient>
    <linearGradient gradientTransform="matrix(-0.0017, 0.0, 0.0, -0.007, -2.25, 16.5)" gradientUnits="userSpaceOnUse" id="gradient23" spreadMethod="pad" x1="-819.2" x2="819.2">
      <stop offset="0.0" stop-color="#332f30"/>
      <stop offset="0.36470588235294116" stop-color="#dfdbdc"/>
      <stop offset="0.5176470588235295" stop-color="#a7a7a7"/>
      <stop offset="0.6901960784313725" stop-color="#dfdbdc"/>
      <stop offset="1.0" stop-color="#332f30"/>
    </linearGradient>
    <linearGradient gradientTransform="matrix(0.0, -0.0098, 0.0012, -1.0E-4, -3.2, 19.9)" gradientUnits="userSpaceOnUse" id="gradient24" spreadMethod="pad" x1="-819.2" x2="819.2">
      <stop offset="0.0" stop-color="#332f30"/>
      <stop offset="0.36470588235294116" stop-color="#dfdbdc"/>
      <stop offset="0.5176470588235295" stop-color="#a7a7a7"/>
      <stop offset="0.6901960784313725" stop-color="#dfdbdc"/>
      <stop offset="1.0" stop-color="#332f30"/>
    </linearGradient>
    <linearGradient gradientTransform="matrix(-0.0013, 0.0, 0.0, -0.0071, -2.25, 16.15)" gradientUnits="userSpaceOnUse" id="gradient25" spreadMethod="pad" x1="-819.2" x2="819.2">
      <stop offset="0.0" stop-color="#332f30"/>
      <stop offset="0.36470588235294116" stop-color="#dfdbdc"/>
      <stop offset="0.5176470588235295" stop-color="#a7a7a7"/>
      <stop offset="0.6901960784313725" stop-color="#dfdbdc"/>
      <stop offset="1.0" stop-color="#332f30"/>
    </linearGradient>
    <linearGradient gradientTransform="matrix(-0.0017, 0.0, 0.0, -0.0072, -2.25, 15.85)" gradientUnits="userSpaceOnUse" id="gradient26" spreadMethod="pad" x1="-819.2" x2="819.2">
      <stop offset="0.0" stop-color="#332f30"/>
      <stop offset="0.36470588235294116" stop-color="#dfdbdc"/>
      <stop offset="0.5176470588235295" stop-color="#a7a7a7"/>
      <stop offset="0.6901960784313725" stop-color="#dfdbdc"/>
      <stop offset="1.0" stop-color="#332f30"/>
    </linearGradient>
    <linearGradient gradientTransform="matrix(0.0, -0.0088, 0.001, 0.0, -2.15, 13.2)" gradientUnits="userSpaceOnUse" id="gradient27" spreadMethod="pad" x1="-819.2" x2="819.2">
      <stop offset="0.0" stop-color="#332f30"/>
      <stop offset="0.36470588235294116" stop-color="#dfdbdc"/>
      <stop offset="0.5176470588235295" stop-color="#a7a7a7"/>
      <stop offset="0.6901960784313725" stop-color="#dfdbdc"/>
      <stop offset="1.0" stop-color="#332f30"/>
    </linearGradient>
    <linearGradient gradientTransform="matrix(-1.0E-4, 0.0577, -0.0632, 0.0, -1.65, 21.5)" gradientUnits="userSpaceOnUse" id="gradient28" spreadMethod="pad" x1="-819.2" x2="819.2">
      <stop offset="0.0" stop-color="#e71010"/>
      <stop offset="0.8156862745098039" stop-color="#6f1209"/>
      <stop offset="1.0" stop-color="#d12525"/>
    </linearGradient>
    <linearGradient gradientTransform="matrix(-2.0E-4, -0.0077, 0.0123, -1.0E-4, -9.45, 53.05)" gradientUnits="userSpaceOnUse" id="gradient29" spreadMethod="pad" x1="-819.2" x2="819.2">
      <stop offset="0.0" stop-color="#332f30"/>
      <stop offset="0.36470588235294116" stop-color="#dfdbdc"/>
      <stop offset="0.5176470588235295" stop-color="#a7a7a7"/>
      <stop offset="0.6901960784313725" stop-color="#dfdbdc"/>
      <stop offset="1.0" stop-color="#332f30"/>
    </linearGradient>
    <linearGradient gradientTransform="matrix(-0.0173, 0.0, 0.0, -0.0056, -0.2, 50.4)" gradientUnits="userSpaceOnUse" id="gradient30" spreadMethod="pad" x1="-819.2" x2="819.2">
      <stop offset="0.0" stop-color="#a09a9c"/>
      <stop offset="0.36470588235294116" stop-color="#fbfbfb"/>
      <stop offset="0.5176470588235295" stop-color="#e6e6e6"/>
      <stop offset="0.6901960784313725" stop-color="#ffffff"/>
      <stop offset="1.0" stop-color="#ada7a9"/>
    </linearGradient>
    <linearGradient gradientTransform="matrix(-1.0E-4, -0.0069, 0.0098, 0.0, 0.7, 47.8)" gradientUnits="userSpaceOnUse" id="gradient31" spreadMethod="pad" x1="-819.2" x2="819.2">
      <stop offset="0.0" stop-color="#332f30"/>
      <stop offset="0.36470588235294116" stop-color="#dfdbdc"/>
      <stop offset="0.5176470588235295" stop-color="#a7a7a7"/>
      <stop offset="0.6901960784313725" stop-color="#dfdbdc"/>
      <stop offset="1.0" stop-color="#332f30"/>
    </linearGradient>
    <linearGradient gradientTransform="matrix(-0.0173, 0.0, 0.0, -0.0057, -0.2, 49.85)" gradientUnits="userSpaceOnUse" id="gradient32" spreadMethod="pad" x1="-819.2" x2="819.2">
      <stop offset="0.0" stop-color="#a09a9c"/>
      <stop offset="0.36470588235294116" stop-color="#fbfbfb"/>
      <stop offset="0.5176470588235295" stop-color="#e6e6e6"/>
      <stop offset="0.6901960784313725" stop-color="#ffffff"/>
      <stop offset="1.0" stop-color="#ada7a9"/>
    </linearGradient>
    <linearGradient gradientTransform="matrix(-0.0131, 0.0, 0.0, -0.0056, -0.2, 50.1)" gradientUnits="userSpaceOnUse" id="gradient33" spreadMethod="pad" x1="-819.2" x2="819.2">
      <stop offset="0.0" stop-color="#a09a9c"/>
      <stop offset="0.36470588235294116" stop-color="#fbfbfb"/>
      <stop offset="0.5176470588235295" stop-color="#e6e6e6"/>
      <stop offset="0.6901960784313725" stop-color="#ffffff"/>
      <stop offset="1.0" stop-color="#ada7a9"/>
    </linearGradient>
    <linearGradient gradientTransform="matrix(-0.0147, 0.0, 0.0, -0.0123, -0.15, 39.45)" gradientUnits="userSpaceOnUse" id="gradient34" spreadMethod="pad" x1="-819.2" x2="819.2">
      <stop offset="0.0" stop-color="#332f30"/>
      <stop offset="0.36470588235294116" stop-color="#dfdbdc"/>
      <stop offset="0.5176470588235295" stop-color="#a7a7a7"/>
      <stop offset="0.6901960784313725" stop-color="#dfdbdc"/>
      <stop offset="1.0" stop-color="#332f30"/>
    </linearGradient>
    <linearGradient gradientTransform="matrix(-2.0E-4, -0.017, 0.0105, -2.0E-4, -8.05, 45.35)" gradientUnits="userSpaceOnUse" id="gradient35" spreadMethod="pad" x1="-819.2" x2="819.2">
      <stop offset="0.0" stop-color="#332f30"/>
      <stop offset="0.36470588235294116" stop-color="#dfdbdc"/>
      <stop offset="0.5176470588235295" stop-color="#a7a7a7"/>
      <stop offset="0.6901960784313725" stop-color="#dfdbdc"/>
      <stop offset="1.0" stop-color="#332f30"/>
    </linearGradient>
    <linearGradient gradientTransform="matrix(-1.0E-4, -0.0153, 0.0084, -1.0E-4, 0.6, 33.75)" gradientUnits="userSpaceOnUse" id="gradient36" spreadMethod="pad" x1="-819.2" x2="819.2">
      <stop offset="0.0" stop-color="#332f30"/>
      <stop offset="0.36470588235294116" stop-color="#dfdbdc"/>
      <stop offset="0.5176470588235295" stop-color="#a7a7a7"/>
      <stop offset="0.6901960784313725" stop-color="#dfdbdc"/>
      <stop offset="1.0" stop-color="#332f30"/>
    </linearGradient>
    <linearGradient gradientTransform="matrix(-0.0147, 0.0, 0.0, -0.0125, -0.15, 38.3)" gradientUnits="userSpaceOnUse" id="gradient37" spreadMethod="pad" x1="-819.2" x2="819.2">
      <stop offset="0.0" stop-color="#332f30"/>
      <stop offset="0.36470588235294116" stop-color="#dfdbdc"/>
      <stop offset="0.5176470588235295" stop-color="#a7a7a7"/>
      <stop offset="0.6901960784313725" stop-color="#dfdbdc"/>
      <stop offset="1.0" stop-color="#332f30"/>
    </linearGradient>
    <linearGradient gradientTransform="matrix(-0.0111, 0.0, 0.0, -0.0124, -0.15, 38.85)" gradientUnits="userSpaceOnUse" id="gradient38" spreadMethod="pad" x1="-819.2" x2="819.2">
      <stop offset="0.0" stop-color="#332f30"/>
      <stop offset="0.36470588235294116" stop-color="#dfdbdc"/>
      <stop offset="0.5176470588235295" stop-color="#a7a7a7"/>
      <stop offset="0.6901960784313725" stop-color="#dfdbdc"/>
      <stop offset="1.0" stop-color="#332f30"/>
    </linearGradient>
    <linearGradient gradientTransform="matrix(-1.0E-4, -0.0069, 0.0098, 0.0, 0.7, 25.55)" gradientUnits="userSpaceOnUse" id="gradient39" spreadMethod="pad" x1="-819.2" x2="819.2">
      <stop offset="0.0" stop-color="#332f30"/>
      <stop offset="0.36470588235294116" stop-color="#dfdbdc"/>
      <stop offset="0.5176470588235295" stop-color="#a7a7a7"/>
      <stop offset="0.6901960784313725" stop-color="#dfdbdc"/>
      <stop offset="1.0" stop-color="#332f30"/>
    </linearGradient>
    <linearGradient gradientTransform="matrix(-0.0173, 0.0, 0.0, -0.0057, -0.2, 27.6)" gradientUnits="userSpaceOnUse" id="gradient40" spreadMethod="pad" x1="-819.2" x2="819.2">
      <stop offset="0.0" stop-color="#a09a9c"/>
      <stop offset="0.36470588235294116" stop-color="#fbfbfb"/>
      <stop offset="0.5176470588235295" stop-color="#e6e6e6"/>
      <stop offset="0.6901960784313725" stop-color="#ffffff"/>
      <stop offset="1.0" stop-color="#ada7a9"/>
    </linearGradient>
    <linearGradient gradientTransform="matrix(-0.0131, 0.0, 0.0, -0.0056, -0.2, 27.85)" gradientUnits="userSpaceOnUse" id="gradient41" spreadMethod="pad" x1="-819.2" x2="819.2">
      <stop offset="0.0" stop-color="#a09a9c"/>
      <stop offset="0.36470588235294116" stop-color="#fbfbfb"/>
      <stop offset="0.5176470588235295" stop-color="#e6e6e6"/>
      <stop offset="0.6901960784313725" stop-color="#ffffff"/>
      <stop offset="1.0" stop-color="#ada7a9"/>
    </linearGradient>
    <linearGradient gradientTransform="matrix(-0.0173, 0.0, 0.0, -0.0056, -0.2, 28.15)" gradientUnits="userSpaceOnUse" id="gradient42" spreadMethod="pad" x1="-819.2" x2="819.2">
      <stop offset="0.0" stop-color="#a09a9c"/>
      <stop offset="0.36470588235294116" stop-color="#fbfbfb"/>
      <stop offset="0.5176470588235295" stop-color="#e6e6e6"/>
      <stop offset="0.6901960784313725" stop-color="#ffffff"/>
      <stop offset="1.0" stop-color="#ada7a9"/>
    </linearGradient>
    <linearGradient gradientTransform="matrix(-2.0E-4, -0.0077, 0.0123, -1.0E-4, -9.45, 30.8)" gradientUnits="userSpaceOnUse" id="gradient43" spreadMethod="pad" x1="-819.2" x2="819.2">
      <stop offset="0.0" stop-color="#332f30"/>
      <stop offset="0.36470588235294116" stop-color="#dfdbdc"/>
      <stop offset="0.5176470588235295" stop-color="#a7a7a7"/>
      <stop offset="0.6901960784313725" stop-color="#dfdbdc"/>
      <stop offset="1.0" stop-color="#332f30"/>
    </linearGradient>
    <linearGradient gradientTransform="matrix(-0.0015, 0.0, 0.0, -0.0533, 5.4, 19.8)" gradientUnits="userSpaceOnUse" id="gradient44" spreadMethod="pad" x1="-819.2" x2="819.2">
      <stop offset="0.0" stop-color="#332f30"/>
      <stop offset="0.36470588235294116" stop-color="#dfdbdc"/>
      <stop offset="0.5176470588235295" stop-color="#a7a7a7"/>
      <stop offset="0.6901960784313725" stop-color="#dfdbdc"/>
      <stop offset="1.0" stop-color="#332f30"/>
    </linearGradient>
    <linearGradient gradientTransform="matrix(-0.0015, 0.0, 0.0, -0.0533, -5.35, 19.8)" gradientUnits="userSpaceOnUse" id="gradient45" spreadMethod="pad" x1="-819.2" x2="819.2">
      <stop offset="0.0" stop-color="#332f30"/>
      <stop offset="0.36470588235294116" stop-color="#dfdbdc"/>
      <stop offset="0.5176470588235295" stop-color="#a7a7a7"/>
      <stop offset="0.6901960784313725" stop-color="#dfdbdc"/>
      <stop offset="1.0" stop-color="#332f30"/>
    </linearGradient>
  </defs>
</svg>
