<?xml version="1.0" encoding="UTF-8" standalone="no"?>
<svg xmlns:xlink="http://www.w3.org/1999/xlink" height="91.5px" width="15.2px" xmlns="http://www.w3.org/2000/svg">
  <g transform="matrix(1, 0, 0, 1, 7.65, 26.95)">
    <path d="M7.55 60.05 L6.65 64.55 4.55 64.55 5.45 60.05 7.55 60.05" fill="#e4e4e4" fill-rule="evenodd" stroke="none"/>
    <path d="M5.75 60.05 L4.85 64.55 2.75 64.55 3.65 60.05 5.75 60.05" fill="#bc100d" fill-rule="evenodd" stroke="none"/>
    <path d="M3.7 60.05 L2.8 64.55 0.7 64.55 1.6 60.05 3.7 60.05" fill="#e4e4e4" fill-rule="evenodd" stroke="none"/>
    <path d="M0.75 64.55 L-1.35 64.55 -0.45 60.05 1.65 60.05 0.75 64.55" fill="#bc100d" fill-rule="evenodd" stroke="none"/>
    <path d="M-0.4 60.05 L-1.3 64.55 -3.4 64.55 -2.5 60.05 -0.4 60.05" fill="#e4e4e4" fill-rule="evenodd" stroke="none"/>
    <path d="M-2.2 60.05 L-3.1 64.55 -5.2 64.55 -4.3 60.05 -2.2 60.05" fill="#bc100d" fill-rule="evenodd" stroke="none"/>
    <path d="M-4.25 60.05 L-5.15 64.55 -7.25 64.55 -6.35 60.05 -4.25 60.05" fill="#e4e4e4" fill-rule="evenodd" stroke="none"/>
    <path d="M-5.55 -26.95 L-4.25 -23.25 -6.35 -23.25 -7.65 -26.95 -5.55 -26.95" fill="#e4e4e4" fill-rule="evenodd" stroke="none"/>
    <path d="M-3.7 -26.95 L-2.4 -23.25 -4.5 -23.25 -5.8 -26.95 -3.7 -26.95" fill="#bc100d" fill-rule="evenodd" stroke="none"/>
    <path d="M-1.7 -26.95 L-0.4 -23.25 -2.5 -23.25 -3.8 -26.95 -1.7 -26.95" fill="#e4e4e4" fill-rule="evenodd" stroke="none"/>
    <path d="M0.4 -26.95 L1.7 -23.25 -0.4 -23.25 -1.7 -26.95 0.4 -26.95" fill="#bc100d" fill-rule="evenodd" stroke="none"/>
    <path d="M2.4 -26.95 L3.7 -23.25 1.6 -23.25 0.3 -26.95 2.4 -26.95" fill="#e4e4e4" fill-rule="evenodd" stroke="none"/>
    <path d="M4.25 -26.95 L5.55 -23.25 3.45 -23.25 2.15 -26.95 4.25 -26.95" fill="#bc100d" fill-rule="evenodd" stroke="none"/>
    <path d="M6.25 -26.95 L7.55 -23.25 5.45 -23.25 4.15 -26.95 6.25 -26.95" fill="#e4e4e4" fill-rule="evenodd" stroke="none"/>
  </g>
</svg>
