<?xml version="1.0" encoding="UTF-8" standalone="no"?>
<svg xmlns:xlink="http://www.w3.org/1999/xlink" height="103.6px" width="33.05px" xmlns="http://www.w3.org/2000/svg">
  <g transform="matrix(1, 0, 0, 1, 16.9, 20.15)">
    <path d="M-11.65 45.25 L-11.65 63.85 -16.8 63.85 -16.8 45.25 -11.65 45.25" fill="#cccccc" fill-rule="evenodd" stroke="none"/>
    <path d="M-12.2 47.25 L-12.2 61.85 -16.25 61.85 -16.25 47.25 -12.2 47.25" fill="#ffffff" fill-rule="evenodd" stroke="none"/>
    <path d="M16.15 45.25 L16.15 63.85 11.0 63.85 11.0 45.25 16.15 45.25" fill="#cccccc" fill-rule="evenodd" stroke="none"/>
    <path d="M15.6 47.25 L15.6 61.85 11.55 61.85 11.55 47.25 15.6 47.25" fill="#ffffff" fill-rule="evenodd" stroke="none"/>
    <path d="M14.55 78.7 L-14.85 78.7 -14.85 -10.45 14.55 -10.45 14.55 78.7" fill="url(#gradient0)" fill-rule="evenodd" stroke="none"/>
    <path d="M11.8 76.3 L11.8 30.55 -12.0 30.55 -12.0 76.3 11.8 76.3 M12.85 76.95 L-13.0 76.95 -13.0 29.85 12.85 29.85 12.85 76.95" fill="#7b7b7b" fill-rule="evenodd" stroke="none"/>
    <path d="M14.6 40.9 L14.6 42.7 -14.85 42.7 -14.85 40.9 14.6 40.9" fill="#262425" fill-rule="evenodd" stroke="none"/>
    <path d="M-14.85 40.9 L-14.85 40.15 14.6 40.15 14.6 40.9 -14.85 40.9" fill="#5b5758" fill-rule="evenodd" stroke="none"/>
    <path d="M4.1 77.6 L5.25 79.4 3.3 79.4 2.15 77.6 4.1 77.6" fill="#e4e4e4" fill-rule="evenodd" stroke="none"/>
    <path d="M5.7 77.6 L6.85 79.4 4.95 79.4 3.8 77.6 5.7 77.6" fill="#bc100d" fill-rule="evenodd" stroke="none"/>
    <path d="M7.65 77.6 L8.8 79.4 6.85 79.4 5.7 77.6 7.65 77.6" fill="#e4e4e4" fill-rule="evenodd" stroke="none"/>
    <path d="M9.45 77.6 L10.6 79.4 8.7 79.4 7.55 77.6 9.45 77.6" fill="#bc100d" fill-rule="evenodd" stroke="none"/>
    <path d="M11.45 77.6 L12.6 79.4 10.65 79.4 9.5 77.6 11.45 77.6" fill="#e4e4e4" fill-rule="evenodd" stroke="none"/>
    <path d="M13.0 77.6 L14.15 79.4 12.25 79.4 11.1 77.6 13.0 77.6" fill="#bc100d" fill-rule="evenodd" stroke="none"/>
    <path d="M14.95 77.6 L16.1 79.4 14.15 79.4 13.0 77.6 14.95 77.6" fill="#e4e4e4" fill-rule="evenodd" stroke="none"/>
    <path d="M-7.25 77.6 L-6.1 79.4 -8.05 79.4 -9.2 77.6 -7.25 77.6" fill="#e4e4e4" fill-rule="evenodd" stroke="none"/>
    <path d="M-5.65 77.6 L-4.5 79.4 -6.4 79.4 -7.55 77.6 -5.65 77.6" fill="#bc100d" fill-rule="evenodd" stroke="none"/>
    <path d="M-3.7 77.6 L-2.55 79.4 -4.5 79.4 -5.65 77.6 -3.7 77.6" fill="#e4e4e4" fill-rule="evenodd" stroke="none"/>
    <path d="M-1.9 77.6 L-0.75 79.4 -2.65 79.4 -3.8 77.6 -1.9 77.6" fill="#bc100d" fill-rule="evenodd" stroke="none"/>
    <path d="M0.1 77.6 L1.25 79.4 -0.7 79.4 -1.85 77.6 0.1 77.6" fill="#e4e4e4" fill-rule="evenodd" stroke="none"/>
    <path d="M1.65 77.6 L2.8 79.4 0.9 79.4 -0.25 77.6 1.65 77.6" fill="#bc100d" fill-rule="evenodd" stroke="none"/>
    <path d="M3.6 77.6 L4.75 79.4 2.8 79.4 1.65 77.6 3.6 77.6" fill="#e4e4e4" fill-rule="evenodd" stroke="none"/>
    <path d="M-14.95 77.6 L-13.8 79.4 -15.75 79.4 -16.9 77.6 -14.95 77.6" fill="#e4e4e4" fill-rule="evenodd" stroke="none"/>
    <path d="M-13.15 77.6 L-12.0 79.4 -13.9 79.4 -15.05 77.6 -13.15 77.6" fill="#bc100d" fill-rule="evenodd" stroke="none"/>
    <path d="M-11.2 77.6 L-10.05 79.4 -12.0 79.4 -13.15 77.6 -11.2 77.6" fill="#e4e4e4" fill-rule="evenodd" stroke="none"/>
    <path d="M-9.6 77.6 L-8.45 79.4 -10.35 79.4 -11.5 77.6 -9.6 77.6" fill="#bc100d" fill-rule="evenodd" stroke="none"/>
    <path d="M-7.65 77.6 L-6.5 79.4 -8.45 79.4 -9.6 77.6 -7.65 77.6" fill="#e4e4e4" fill-rule="evenodd" stroke="none"/>
    <path d="M-14.4 72.95 L-14.4 70.85 13.95 70.85 13.95 72.95 -14.4 72.95" fill="url(#gradient1)" fill-rule="evenodd" stroke="none"/>
    <path d="M-14.4 70.85 L-14.4 68.95 13.95 68.95 13.95 70.85 -14.4 70.85" fill="url(#gradient2)" fill-rule="evenodd" stroke="none"/>
    <path d="M-14.4 68.95 L-14.4 67.05 13.95 67.05 13.95 68.95 -14.4 68.95" fill="url(#gradient3)" fill-rule="evenodd" stroke="none"/>
    <path d="M-14.4 67.05 L-14.4 66.45 13.95 66.45 13.95 67.05 -14.4 67.05" fill="url(#gradient4)" fill-rule="evenodd" stroke="none"/>
    <path d="M13.95 72.95 L13.95 73.55 -14.4 73.55 -14.4 72.95 13.95 72.95" fill="url(#gradient5)" fill-rule="evenodd" stroke="none"/>
    <path d="M-12.2 56.25 L-12.2 52.05 11.9 52.05 11.9 56.25 -12.2 56.25" fill="url(#gradient6)" fill-rule="evenodd" stroke="none"/>
    <path d="M-12.2 52.05 L-12.2 50.7 11.9 50.7 11.9 52.05 -12.2 52.05" fill="url(#gradient7)" fill-rule="evenodd" stroke="none"/>
    <path d="M11.9 65.05 L11.9 66.4 -12.2 66.4 -12.2 65.05 11.9 65.05" fill="url(#gradient8)" fill-rule="evenodd" stroke="none"/>
    <path d="M11.9 60.45 L11.9 65.05 -12.2 65.05 -12.2 60.45 11.9 60.45" fill="url(#gradient9)" fill-rule="evenodd" stroke="none"/>
    <path d="M11.9 56.25 L11.9 60.45 -12.2 60.45 -12.2 56.25 11.9 56.25" fill="url(#gradient10)" fill-rule="evenodd" stroke="none"/>
    <path d="M-14.4 46.7 L-14.4 44.8 13.95 44.8 13.95 46.7 -14.4 46.7" fill="url(#gradient11)" fill-rule="evenodd" stroke="none"/>
    <path d="M-14.4 44.8 L-14.4 44.2 13.95 44.2 13.95 44.8 -14.4 44.8" fill="url(#gradient12)" fill-rule="evenodd" stroke="none"/>
    <path d="M13.95 46.7 L13.95 48.6 -14.4 48.6 -14.4 46.7 13.95 46.7" fill="url(#gradient13)" fill-rule="evenodd" stroke="none"/>
    <path d="M13.95 50.7 L13.95 51.3 -14.4 51.3 -14.4 50.7 13.95 50.7" fill="url(#gradient14)" fill-rule="evenodd" stroke="none"/>
    <path d="M13.95 48.6 L13.95 50.7 -14.4 50.7 -14.4 48.6 13.95 48.6" fill="url(#gradient15)" fill-rule="evenodd" stroke="none"/>
    <path d="M7.2 -20.15 L7.2 83.45 4.8 83.45 4.8 -20.15 7.2 -20.15" fill="url(#gradient16)" fill-rule="evenodd" stroke="none"/>
    <path d="M-3.55 -20.15 L-3.55 83.45 -5.95 83.45 -5.95 -20.15 -3.55 -20.15" fill="url(#gradient17)" fill-rule="evenodd" stroke="none"/>
  </g>
  <defs>
    <linearGradient gradientTransform="matrix(-1.0E-4, 0.0781, -0.0632, 0.0, -1.65, 28.35)" gradientUnits="userSpaceOnUse" id="gradient0" spreadMethod="pad" x1="-819.2" x2="819.2">
      <stop offset="0.0" stop-color="#e71010"/>
      <stop offset="0.8156862745098039" stop-color="#6f1209"/>
      <stop offset="1.0" stop-color="#d12525"/>
    </linearGradient>
    <linearGradient gradientTransform="matrix(-0.0173, 0.0, 0.0, -0.0057, -0.2, 69.85)" gradientUnits="userSpaceOnUse" id="gradient1" spreadMethod="pad" x1="-819.2" x2="819.2">
      <stop offset="0.0" stop-color="#a09a9c"/>
      <stop offset="0.36470588235294116" stop-color="#fbfbfb"/>
      <stop offset="0.5176470588235295" stop-color="#e6e6e6"/>
      <stop offset="0.6901960784313725" stop-color="#ffffff"/>
      <stop offset="1.0" stop-color="#ada7a9"/>
    </linearGradient>
    <linearGradient gradientTransform="matrix(-0.0131, 0.0, 0.0, -0.0056, -0.2, 70.1)" gradientUnits="userSpaceOnUse" id="gradient2" spreadMethod="pad" x1="-819.2" x2="819.2">
      <stop offset="0.0" stop-color="#a09a9c"/>
      <stop offset="0.36470588235294116" stop-color="#fbfbfb"/>
      <stop offset="0.5176470588235295" stop-color="#e6e6e6"/>
      <stop offset="0.6901960784313725" stop-color="#ffffff"/>
      <stop offset="1.0" stop-color="#ada7a9"/>
    </linearGradient>
    <linearGradient gradientTransform="matrix(-0.0173, 0.0, 0.0, -0.0056, -0.2, 70.4)" gradientUnits="userSpaceOnUse" id="gradient3" spreadMethod="pad" x1="-819.2" x2="819.2">
      <stop offset="0.0" stop-color="#a09a9c"/>
      <stop offset="0.36470588235294116" stop-color="#fbfbfb"/>
      <stop offset="0.5176470588235295" stop-color="#e6e6e6"/>
      <stop offset="0.6901960784313725" stop-color="#ffffff"/>
      <stop offset="1.0" stop-color="#ada7a9"/>
    </linearGradient>
    <linearGradient gradientTransform="matrix(-2.0E-4, -0.0077, 0.0123, -1.0E-4, -9.45, 73.05)" gradientUnits="userSpaceOnUse" id="gradient4" spreadMethod="pad" x1="-819.2" x2="819.2">
      <stop offset="0.0" stop-color="#332f30"/>
      <stop offset="0.36470588235294116" stop-color="#dfdbdc"/>
      <stop offset="0.5176470588235295" stop-color="#a7a7a7"/>
      <stop offset="0.6901960784313725" stop-color="#dfdbdc"/>
      <stop offset="1.0" stop-color="#332f30"/>
    </linearGradient>
    <linearGradient gradientTransform="matrix(-1.0E-4, -0.0069, 0.0098, 0.0, 0.7, 67.8)" gradientUnits="userSpaceOnUse" id="gradient5" spreadMethod="pad" x1="-819.2" x2="819.2">
      <stop offset="0.0" stop-color="#332f30"/>
      <stop offset="0.36470588235294116" stop-color="#dfdbdc"/>
      <stop offset="0.5176470588235295" stop-color="#a7a7a7"/>
      <stop offset="0.6901960784313725" stop-color="#dfdbdc"/>
      <stop offset="1.0" stop-color="#332f30"/>
    </linearGradient>
    <linearGradient gradientTransform="matrix(-0.0147, 0.0, 0.0, -0.0123, -0.15, 59.45)" gradientUnits="userSpaceOnUse" id="gradient6" spreadMethod="pad" x1="-819.2" x2="819.2">
      <stop offset="0.0" stop-color="#332f30"/>
      <stop offset="0.36470588235294116" stop-color="#dfdbdc"/>
      <stop offset="0.5176470588235295" stop-color="#a7a7a7"/>
      <stop offset="0.6901960784313725" stop-color="#dfdbdc"/>
      <stop offset="1.0" stop-color="#332f30"/>
    </linearGradient>
    <linearGradient gradientTransform="matrix(-2.0E-4, -0.017, 0.0105, -2.0E-4, -8.05, 65.35)" gradientUnits="userSpaceOnUse" id="gradient7" spreadMethod="pad" x1="-819.2" x2="819.2">
      <stop offset="0.0" stop-color="#332f30"/>
      <stop offset="0.36470588235294116" stop-color="#dfdbdc"/>
      <stop offset="0.5176470588235295" stop-color="#a7a7a7"/>
      <stop offset="0.6901960784313725" stop-color="#dfdbdc"/>
      <stop offset="1.0" stop-color="#332f30"/>
    </linearGradient>
    <linearGradient gradientTransform="matrix(-1.0E-4, -0.0153, 0.0084, -1.0E-4, 0.6, 53.75)" gradientUnits="userSpaceOnUse" id="gradient8" spreadMethod="pad" x1="-819.2" x2="819.2">
      <stop offset="0.0" stop-color="#332f30"/>
      <stop offset="0.36470588235294116" stop-color="#dfdbdc"/>
      <stop offset="0.5176470588235295" stop-color="#a7a7a7"/>
      <stop offset="0.6901960784313725" stop-color="#dfdbdc"/>
      <stop offset="1.0" stop-color="#332f30"/>
    </linearGradient>
    <linearGradient gradientTransform="matrix(-0.0147, 0.0, 0.0, -0.0125, -0.15, 58.3)" gradientUnits="userSpaceOnUse" id="gradient9" spreadMethod="pad" x1="-819.2" x2="819.2">
      <stop offset="0.0" stop-color="#332f30"/>
      <stop offset="0.36470588235294116" stop-color="#dfdbdc"/>
      <stop offset="0.5176470588235295" stop-color="#a7a7a7"/>
      <stop offset="0.6901960784313725" stop-color="#dfdbdc"/>
      <stop offset="1.0" stop-color="#332f30"/>
    </linearGradient>
    <linearGradient gradientTransform="matrix(-0.0111, 0.0, 0.0, -0.0124, -0.15, 58.85)" gradientUnits="userSpaceOnUse" id="gradient10" spreadMethod="pad" x1="-819.2" x2="819.2">
      <stop offset="0.0" stop-color="#332f30"/>
      <stop offset="0.36470588235294116" stop-color="#dfdbdc"/>
      <stop offset="0.5176470588235295" stop-color="#a7a7a7"/>
      <stop offset="0.6901960784313725" stop-color="#dfdbdc"/>
      <stop offset="1.0" stop-color="#332f30"/>
    </linearGradient>
    <linearGradient gradientTransform="matrix(-0.0173, 0.0, 0.0, -0.0056, -0.2, 48.15)" gradientUnits="userSpaceOnUse" id="gradient11" spreadMethod="pad" x1="-819.2" x2="819.2">
      <stop offset="0.0" stop-color="#a09a9c"/>
      <stop offset="0.36470588235294116" stop-color="#fbfbfb"/>
      <stop offset="0.5176470588235295" stop-color="#e6e6e6"/>
      <stop offset="0.6901960784313725" stop-color="#ffffff"/>
      <stop offset="1.0" stop-color="#ada7a9"/>
    </linearGradient>
    <linearGradient gradientTransform="matrix(-2.0E-4, -0.0077, 0.0123, -1.0E-4, -9.45, 50.8)" gradientUnits="userSpaceOnUse" id="gradient12" spreadMethod="pad" x1="-819.2" x2="819.2">
      <stop offset="0.0" stop-color="#332f30"/>
      <stop offset="0.36470588235294116" stop-color="#dfdbdc"/>
      <stop offset="0.5176470588235295" stop-color="#a7a7a7"/>
      <stop offset="0.6901960784313725" stop-color="#dfdbdc"/>
      <stop offset="1.0" stop-color="#332f30"/>
    </linearGradient>
    <linearGradient gradientTransform="matrix(-0.0131, 0.0, 0.0, -0.0056, -0.2, 47.85)" gradientUnits="userSpaceOnUse" id="gradient13" spreadMethod="pad" x1="-819.2" x2="819.2">
      <stop offset="0.0" stop-color="#a09a9c"/>
      <stop offset="0.36470588235294116" stop-color="#fbfbfb"/>
      <stop offset="0.5176470588235295" stop-color="#e6e6e6"/>
      <stop offset="0.6901960784313725" stop-color="#ffffff"/>
      <stop offset="1.0" stop-color="#ada7a9"/>
    </linearGradient>
    <linearGradient gradientTransform="matrix(-1.0E-4, -0.0069, 0.0098, 0.0, 0.7, 45.55)" gradientUnits="userSpaceOnUse" id="gradient14" spreadMethod="pad" x1="-819.2" x2="819.2">
      <stop offset="0.0" stop-color="#332f30"/>
      <stop offset="0.36470588235294116" stop-color="#dfdbdc"/>
      <stop offset="0.5176470588235295" stop-color="#a7a7a7"/>
      <stop offset="0.6901960784313725" stop-color="#dfdbdc"/>
      <stop offset="1.0" stop-color="#332f30"/>
    </linearGradient>
    <linearGradient gradientTransform="matrix(-0.0173, 0.0, 0.0, -0.0057, -0.2, 47.6)" gradientUnits="userSpaceOnUse" id="gradient15" spreadMethod="pad" x1="-819.2" x2="819.2">
      <stop offset="0.0" stop-color="#a09a9c"/>
      <stop offset="0.36470588235294116" stop-color="#fbfbfb"/>
      <stop offset="0.5176470588235295" stop-color="#e6e6e6"/>
      <stop offset="0.6901960784313725" stop-color="#ffffff"/>
      <stop offset="1.0" stop-color="#ada7a9"/>
    </linearGradient>
    <linearGradient gradientTransform="matrix(-0.0015, 0.0, 0.0, -0.0632, 6.0, 31.7)" gradientUnits="userSpaceOnUse" id="gradient16" spreadMethod="pad" x1="-819.2" x2="819.2">
      <stop offset="0.0" stop-color="#332f30"/>
      <stop offset="0.36470588235294116" stop-color="#dfdbdc"/>
      <stop offset="0.5176470588235295" stop-color="#a7a7a7"/>
      <stop offset="0.6901960784313725" stop-color="#dfdbdc"/>
      <stop offset="1.0" stop-color="#332f30"/>
    </linearGradient>
    <linearGradient gradientTransform="matrix(-0.0015, 0.0, 0.0, -0.0632, -4.75, 31.7)" gradientUnits="userSpaceOnUse" id="gradient17" spreadMethod="pad" x1="-819.2" x2="819.2">
      <stop offset="0.0" stop-color="#332f30"/>
      <stop offset="0.36470588235294116" stop-color="#dfdbdc"/>
      <stop offset="0.5176470588235295" stop-color="#a7a7a7"/>
      <stop offset="0.6901960784313725" stop-color="#dfdbdc"/>
      <stop offset="1.0" stop-color="#332f30"/>
    </linearGradient>
  </defs>
</svg>
