<?xml version="1.0" encoding="UTF-8" standalone="no"?>
<svg xmlns:xlink="http://www.w3.org/1999/xlink" height="115.8px" width="17.0px" xmlns="http://www.w3.org/2000/svg">
  <g transform="matrix(1, 0, 0, 1, 8.85, 31.25)">
    <path d="M8.15 80.05 L7.25 84.55 5.15 84.55 6.05 80.05 8.15 80.05" fill="#e4e4e4" fill-rule="evenodd" stroke="none"/>
    <path d="M6.35 80.05 L5.45 84.55 3.35 84.55 4.25 80.05 6.35 80.05" fill="#bc100d" fill-rule="evenodd" stroke="none"/>
    <path d="M4.3 80.05 L3.4 84.55 1.3 84.55 2.2 80.05 4.3 80.05" fill="#e4e4e4" fill-rule="evenodd" stroke="none"/>
    <path d="M2.25 80.05 L1.35 84.55 -0.75 84.55 0.15 80.05 2.25 80.05" fill="#bc100d" fill-rule="evenodd" stroke="none"/>
    <path d="M-2.8 84.55 L-1.9 80.05 0.2 80.05 -0.7 84.55 -2.8 84.55" fill="#e4e4e4" fill-rule="evenodd" stroke="none"/>
    <path d="M-1.6 80.05 L-2.5 84.55 -4.6 84.55 -3.7 80.05 -1.6 80.05" fill="#bc100d" fill-rule="evenodd" stroke="none"/>
    <path d="M-3.65 80.05 L-4.55 84.55 -6.65 84.55 -5.75 80.05 -3.65 80.05" fill="#e4e4e4" fill-rule="evenodd" stroke="none"/>
    <path d="M-5.25 -23.85 L-3.95 -20.15 -6.05 -20.15 -7.35 -23.85 -5.25 -23.85" fill="#e4e4e4" fill-rule="evenodd" stroke="none"/>
    <path d="M-3.4 -23.85 L-2.1 -20.15 -4.2 -20.15 -5.5 -23.85 -3.4 -23.85" fill="#bc100d" fill-rule="evenodd" stroke="none"/>
    <path d="M-1.4 -23.85 L-0.1 -20.15 -2.2 -20.15 -3.5 -23.85 -1.4 -23.85" fill="#e4e4e4" fill-rule="evenodd" stroke="none"/>
    <path d="M0.7 -23.85 L2.0 -20.15 -0.1 -20.15 -1.4 -23.85 0.7 -23.85" fill="#bc100d" fill-rule="evenodd" stroke="none"/>
    <path d="M2.7 -23.85 L4.0 -20.15 1.9 -20.15 0.6 -23.85 2.7 -23.85" fill="#e4e4e4" fill-rule="evenodd" stroke="none"/>
    <path d="M4.55 -23.85 L5.85 -20.15 3.75 -20.15 2.45 -23.85 4.55 -23.85" fill="#bc100d" fill-rule="evenodd" stroke="none"/>
    <path d="M6.55 -23.85 L7.85 -20.15 5.75 -20.15 4.45 -23.85 6.55 -23.85" fill="#e4e4e4" fill-rule="evenodd" stroke="none"/>
    <path d="M4.3 -31.25 L4.3 80.95 1.9 80.95 1.9 -31.25 4.3 -31.25" fill="url(#gradient0)" fill-rule="evenodd" stroke="none"/>
    <path d="M-6.45 -31.25 L-6.45 80.95 -8.85 80.95 -8.85 -31.25 -6.45 -31.25" fill="url(#gradient1)" fill-rule="evenodd" stroke="none"/>
  </g>
  <defs>
    <linearGradient gradientTransform="matrix(-0.0015, 0.0, 0.0, -0.0685, 3.1, 24.9)" gradientUnits="userSpaceOnUse" id="gradient0" spreadMethod="pad" x1="-819.2" x2="819.2">
      <stop offset="0.0" stop-color="#332f30"/>
      <stop offset="0.36470588235294116" stop-color="#dfdbdc"/>
      <stop offset="0.5176470588235295" stop-color="#a7a7a7"/>
      <stop offset="0.6901960784313725" stop-color="#dfdbdc"/>
      <stop offset="1.0" stop-color="#332f30"/>
    </linearGradient>
    <linearGradient gradientTransform="matrix(-0.0015, 0.0, 0.0, -0.0685, -7.65, 24.9)" gradientUnits="userSpaceOnUse" id="gradient1" spreadMethod="pad" x1="-819.2" x2="819.2">
      <stop offset="0.0" stop-color="#332f30"/>
      <stop offset="0.36470588235294116" stop-color="#dfdbdc"/>
      <stop offset="0.5176470588235295" stop-color="#a7a7a7"/>
      <stop offset="0.6901960784313725" stop-color="#dfdbdc"/>
      <stop offset="1.0" stop-color="#332f30"/>
    </linearGradient>
  </defs>
</svg>
