<?xml version="1.0" encoding="UTF-8" standalone="no"?>
<svg xmlns:xlink="http://www.w3.org/1999/xlink" height="117.35px" width="15.4px" xmlns="http://www.w3.org/2000/svg">
  <g transform="matrix(1, 0, 0, 1, 9.7, 33.35)">
    <path d="M3.6 -33.35 L5.7 -33.35 4.65 -29.95 2.55 -29.95 3.6 -33.35" fill="#e4e4e4" fill-rule="evenodd" stroke="none"/>
    <path d="M1.75 -33.3 L3.85 -33.3 2.8 -29.9 0.7 -29.9 1.75 -33.3" fill="#bc100d" fill-rule="evenodd" stroke="none"/>
    <path d="M0.8 -29.95 L-1.3 -29.95 -0.25 -33.35 1.85 -33.35 0.8 -29.95" fill="#e4e4e4" fill-rule="evenodd" stroke="none"/>
    <path d="M-2.35 -33.3 L-0.25 -33.3 -1.3 -29.9 -3.4 -29.9 -2.35 -33.3" fill="#bc100d" fill-rule="evenodd" stroke="none"/>
    <path d="M-4.35 -33.35 L-2.25 -33.35 -3.3 -29.95 -5.4 -29.95 -4.35 -33.35" fill="#e4e4e4" fill-rule="evenodd" stroke="none"/>
    <path d="M-6.2 -33.3 L-4.1 -33.3 -5.15 -29.9 -7.25 -29.9 -6.2 -33.3" fill="#bc100d" fill-rule="evenodd" stroke="none"/>
    <path d="M-8.2 -33.35 L-6.1 -33.35 -7.15 -29.95 -9.25 -29.95 -8.2 -33.35" fill="#e4e4e4" fill-rule="evenodd" stroke="none"/>
    <path d="M-9.7 79.5 L-7.6 79.5 -6.9 84.0 -9.0 84.0 -9.7 79.5" fill="#e4e4e4" fill-rule="evenodd" stroke="none"/>
    <path d="M-7.9 79.5 L-5.8 79.5 -5.1 84.0 -7.2 84.0 -7.9 79.5" fill="#bc100d" fill-rule="evenodd" stroke="none"/>
    <path d="M-5.85 79.5 L-3.75 79.5 -3.05 84.0 -5.15 84.0 -5.85 79.5" fill="#e4e4e4" fill-rule="evenodd" stroke="none"/>
    <path d="M-3.8 79.5 L-1.7 79.5 -1.0 84.0 -3.1 84.0 -3.8 79.5" fill="#bc100d" fill-rule="evenodd" stroke="none"/>
    <path d="M0.35 79.5 L1.05 84.0 -1.05 84.0 -1.75 79.5 0.35 79.5" fill="#e4e4e4" fill-rule="evenodd" stroke="none"/>
    <path d="M0.05 79.5 L2.15 79.5 2.85 84.0 0.75 84.0 0.05 79.5" fill="#bc100d" fill-rule="evenodd" stroke="none"/>
    <path d="M2.1 79.5 L4.2 79.5 4.9 84.0 2.8 84.0 2.1 79.5" fill="#e4e4e4" fill-rule="evenodd" stroke="none"/>
  </g>
</svg>
