<?xml version="1.0" encoding="UTF-8" standalone="no"?>
<svg xmlns:xlink="http://www.w3.org/1999/xlink" height="10.95px" width="19.6px" xmlns="http://www.w3.org/2000/svg">
  <g transform="matrix(1, 0, 0, 1, -0.1, 0.0)">
    <path d="M4.7 0.35 Q10.5 -0.25 14.6 0.25 16.3 0.55 16.8 0.95 19.7 3.0 19.7 5.85 19.7 8.35 16.05 9.85 10.15 11.9 5.15 10.15 0.15 8.35 0.1 5.7 0.0 3.0 2.85 0.95 3.35 0.55 4.7 0.35" fill="#283e46" fill-rule="evenodd" stroke="none"/>
    <path d="M15.8 5.1 Q15.8 6.7 14.1 7.8 12.5 9.05 10.1 9.05 7.65 9.05 5.95 7.8 4.35 6.7 4.35 5.1 4.35 3.5 5.95 2.4 7.65 1.2 10.1 1.2 12.5 1.2 14.1 2.4 15.8 3.5 15.8 5.1" fill="#1a272d" fill-rule="evenodd" stroke="none"/>
  </g>
</svg>
