<?xml version="1.0" encoding="UTF-8" standalone="no"?>
<svg xmlns:xlink="http://www.w3.org/1999/xlink" height="35.0px" width="114.8px" xmlns="http://www.w3.org/2000/svg">
  <g transform="matrix(1, 0, 0, 1, 0.0, 0.0)">
    <path d="M114.2 10.9 L113.35 14.4 Q113.1 15.7 110.7 16.55 108.85 17.2 107.0 17.25 112.2 17.5 112.2 19.8 L110.05 29.95 100.55 29.95 102.75 19.6 86.0 19.6 83.8 29.95 74.35 29.95 79.65 5.0 109.0 5.0 112.45 5.5 Q114.8 6.2 114.8 7.55 L114.2 10.9 M104.8 9.75 L88.2 9.75 87.1 14.85 103.65 14.85 104.8 9.75" fill="url(#gradient0)" fill-rule="evenodd" stroke="none"/>
    <path d="M75.05 5.5 Q77.4 6.25 77.4 7.55 L72.65 29.95 63.15 29.95 65.35 19.6 48.6 19.6 46.4 29.95 36.9 29.95 41.6 7.95 Q41.9 6.45 44.55 5.6 46.55 4.95 48.55 4.95 L71.6 4.95 Q73.35 4.95 75.05 5.5 M67.35 9.75 L50.75 9.75 49.7 14.85 66.25 14.85 67.35 9.75" fill="url(#gradient1)" fill-rule="evenodd" stroke="none"/>
    <path d="M37.8 0.85 Q39.95 1.9 39.95 3.6 L39.2 9.1 29.65 9.1 30.05 6.65 13.25 6.65 10.0 28.3 26.7 28.3 27.1 25.85 36.6 25.85 35.85 30.85 Q35.55 32.75 33.1 34.0 31.1 35.0 29.3 35.0 L5.35 35.0 Q3.55 35.0 1.95 34.05 0.0 33.0 0.0 31.3 L0.05 30.8 4.2 4.15 Q4.45 2.15 6.9 1.0 8.85 0.0 11.15 0.0 L34.2 0.0 Q36.1 0.0 37.8 0.85" fill="url(#gradient2)" fill-rule="evenodd" stroke="none"/>
  </g>
  <defs>
    <radialGradient cx="0" cy="0" gradientTransform="matrix(0.029, 0.0, 0.0, 0.029, 94.6, 17.5)" gradientUnits="userSpaceOnUse" id="gradient0" r="819.2" spreadMethod="pad">
      <stop offset="0.5098039215686274" stop-color="#7e9290"/>
      <stop offset="0.8549019607843137" stop-color="#39464c"/>
    </radialGradient>
    <radialGradient cx="0" cy="0" gradientTransform="matrix(0.0291, 0.0, 0.0, 0.0291, 57.15, 17.45)" gradientUnits="userSpaceOnUse" id="gradient1" r="819.2" spreadMethod="pad">
      <stop offset="0.5098039215686274" stop-color="#7e9290"/>
      <stop offset="0.8549019607843137" stop-color="#39464c"/>
    </radialGradient>
    <radialGradient cx="0" cy="0" gradientTransform="matrix(0.0307, 0.0, 0.0, 0.0307, 20.0, 17.5)" gradientUnits="userSpaceOnUse" id="gradient2" r="819.2" spreadMethod="pad">
      <stop offset="0.5098039215686274" stop-color="#7e9290"/>
      <stop offset="0.8549019607843137" stop-color="#39464c"/>
    </radialGradient>
  </defs>
</svg>
