<?xml version="1.0" encoding="UTF-8" standalone="no"?>
<svg xmlns:xlink="http://www.w3.org/1999/xlink" height="5.95px" width="5.55px" xmlns="http://www.w3.org/2000/svg">
  <g transform="matrix(1, 0, 0, 1, 0.25, 1.2)">
    <path d="M2.15 -0.85 L2.8 -1.2 3.25 -1.05 Q3.6 -0.85 3.6 -0.45 L3.4 0.4 3.85 0.3 Q4.55 0.3 4.55 1.05 L4.4 1.35 5.05 1.8 5.2 2.2 5.1 2.55 5.3 3.1 4.65 3.8 4.7 4.0 Q4.7 4.5 3.85 4.5 L3.7 4.7 3.7 4.75 3.5 4.75 Q1.45 4.8 0.45 4.05 L-0.15 2.6 Q-0.45 1.65 0.0 1.1 0.35 0.6 1.65 -0.05 L1.65 -0.25 2.15 -0.85" fill="#b6793d" fill-rule="evenodd" stroke="none"/>
  </g>
</svg>
