<?xml version="1.0" encoding="UTF-8" standalone="no"?>
<svg xmlns:xlink="http://www.w3.org/1999/xlink" height="4.4px" width="13.2px" xmlns="http://www.w3.org/2000/svg">
  <g transform="matrix(1, 0, 0, 1, 6.7, 1.85)">
    <path d="M5.5 -1.2 L6.3 -0.25 Q6.65 0.45 6.45 0.95 6.25 1.45 5.4 1.5 L4.4 1.55 4.1 0.8 Q3.85 0.0 4.05 -0.85 L5.5 -1.2" fill="#1a272d" fill-rule="evenodd" stroke="none"/>
    <path d="M3.9 -1.55 L5.35 -1.85 5.6 -1.15 4.15 -0.85 3.9 -1.55" fill="#283e46" fill-rule="evenodd" stroke="none"/>
    <path d="M-5.85 -0.75 L-4.3 -0.65 Q-3.55 -0.5 -3.4 0.3 L-2.85 1.65 Q-2.55 2.25 -3.75 2.5 -4.9 2.7 -5.8 2.1 -6.6 1.35 -6.7 0.35 -6.8 -0.75 -5.85 -0.75" fill="#1a272d" fill-rule="evenodd" stroke="none"/>
  </g>
</svg>
