<?xml version="1.0" encoding="UTF-8" standalone="no"?>
<svg xmlns:xlink="http://www.w3.org/1999/xlink" height="9.65px" width="3.9px" xmlns="http://www.w3.org/2000/svg">
  <g transform="matrix(1, 0, 0, 1, 0.0, 0.0)">
    <path d="M3.75 1.95 L3.7 2.65 Q1.95 3.1 0.2 2.65 L0.15 1.6 Q0.15 0.9 0.7 0.45 1.2 0.0 1.95 0.0 2.65 0.0 3.2 0.55 3.7 1.05 3.75 1.95 M0.55 3.85 L1.95 3.55 3.3 3.75 Q3.85 3.9 3.9 5.9 3.95 7.85 3.1 8.75 2.25 9.65 1.65 9.65 1.05 9.65 0.5 8.75 -0.05 7.85 0.0 6.05 0.0 4.25 0.55 3.85" fill="#8c6a53" fill-rule="evenodd" stroke="none"/>
  </g>
</svg>
