<?xml version="1.0" encoding="UTF-8" standalone="no"?>
<svg xmlns:xlink="http://www.w3.org/1999/xlink" height="35.0px" width="189.55px" xmlns="http://www.w3.org/2000/svg">
  <g transform="matrix(1, 0, 0, 1, 0.0, 0.0)">
    <path d="M187.45 17.5 L185.45 27.05 Q185.15 28.45 182.75 29.3 L178.9 30.0 154.95 30.0 Q153.45 30.0 151.75 29.4 149.65 28.65 149.65 27.35 L150.5 23.45 160.0 23.45 159.65 25.2 176.35 25.2 177.55 19.65 157.15 19.65 153.95 19.05 Q151.8 18.3 151.8 17.05 L153.8 7.95 Q154.05 6.5 156.75 5.65 L160.75 5.0 183.8 5.0 Q185.45 5.0 187.2 5.55 189.55 6.3 189.55 7.55 L188.8 11.5 179.2 11.5 179.65 9.75 162.9 9.75 161.85 14.9 182.1 14.9 Q183.65 14.9 185.3 15.5 187.45 16.25 187.45 17.5" fill="url(#gradient0)" fill-rule="evenodd" stroke="none"/>
    <path d="M151.75 9.75 L125.5 9.75 124.35 14.9 141.1 14.9 140.1 19.65 123.35 19.65 122.25 25.2 148.45 25.2 147.45 29.95 111.75 29.95 117.05 5.0 152.75 5.0 151.75 9.75" fill="url(#gradient1)" fill-rule="evenodd" stroke="none"/>
    <path d="M114.8 7.55 L110.05 29.95 100.55 29.95 104.85 9.75 101.65 9.75 97.35 29.95 87.9 29.95 92.2 9.75 88.1 9.75 83.8 29.95 74.35 29.95 79.65 5.0 109.0 5.0 112.45 5.55 Q114.8 6.3 114.8 7.55" fill="url(#gradient2)" fill-rule="evenodd" stroke="none"/>
    <path d="M75.05 5.5 Q77.4 6.25 77.4 7.55 L72.65 29.95 63.15 29.95 65.35 19.6 48.6 19.6 46.4 29.95 36.9 29.95 41.6 7.95 Q41.9 6.45 44.55 5.6 46.55 4.95 48.55 4.95 L71.6 4.95 Q73.35 4.95 75.05 5.5 M67.35 9.75 L50.75 9.75 49.7 14.85 66.25 14.85 67.35 9.75" fill="url(#gradient3)" fill-rule="evenodd" stroke="none"/>
    <path d="M39.95 3.6 L39.2 9.1 29.65 9.1 30.05 6.65 13.25 6.65 10.0 28.3 26.7 28.3 27.95 20.5 21.25 20.5 22.25 13.85 38.45 13.85 35.85 30.85 Q35.6 32.65 33.35 33.9 31.3 35.0 29.3 35.0 L5.35 35.0 Q3.55 35.0 1.95 34.05 0.0 33.0 0.0 31.3 L0.05 30.8 4.2 4.15 Q4.45 2.15 6.9 1.0 8.85 0.0 11.15 0.0 L34.2 0.0 Q36.1 0.0 37.8 0.85 39.95 1.9 39.95 3.6" fill="url(#gradient4)" fill-rule="evenodd" stroke="none"/>
  </g>
  <defs>
    <radialGradient cx="0" cy="0" gradientTransform="matrix(0.0284, 0.0, 0.0, 0.0284, 169.6, 17.5)" gradientUnits="userSpaceOnUse" id="gradient0" r="819.2" spreadMethod="pad">
      <stop offset="0.5098039215686274" stop-color="#7e9290"/>
      <stop offset="0.8549019607843137" stop-color="#39464c"/>
    </radialGradient>
    <radialGradient cx="0" cy="0" gradientTransform="matrix(0.0293, 0.0, 0.0, 0.0293, 132.25, 17.5)" gradientUnits="userSpaceOnUse" id="gradient1" r="819.2" spreadMethod="pad">
      <stop offset="0.5098039215686274" stop-color="#7e9290"/>
      <stop offset="0.8549019607843137" stop-color="#39464c"/>
    </radialGradient>
    <radialGradient cx="0" cy="0" gradientTransform="matrix(0.029, 0.0, 0.0, 0.029, 94.6, 17.5)" gradientUnits="userSpaceOnUse" id="gradient2" r="819.2" spreadMethod="pad">
      <stop offset="0.5098039215686274" stop-color="#7e9290"/>
      <stop offset="0.8549019607843137" stop-color="#39464c"/>
    </radialGradient>
    <radialGradient cx="0" cy="0" gradientTransform="matrix(0.0291, 0.0, 0.0, 0.0291, 57.15, 17.45)" gradientUnits="userSpaceOnUse" id="gradient3" r="819.2" spreadMethod="pad">
      <stop offset="0.5098039215686274" stop-color="#7e9290"/>
      <stop offset="0.8549019607843137" stop-color="#39464c"/>
    </radialGradient>
    <radialGradient cx="0" cy="0" gradientTransform="matrix(0.0307, 0.0, 0.0, 0.0307, 20.0, 17.5)" gradientUnits="userSpaceOnUse" id="gradient4" r="819.2" spreadMethod="pad">
      <stop offset="0.5098039215686274" stop-color="#7e9290"/>
      <stop offset="0.8549019607843137" stop-color="#39464c"/>
    </radialGradient>
  </defs>
</svg>
