<?xml version="1.0" encoding="UTF-8" standalone="no"?>
<svg xmlns:xlink="http://www.w3.org/1999/xlink" height="8.3px" width="7.05px" xmlns="http://www.w3.org/2000/svg">
  <g transform="matrix(1, 0, 0, 1, 1.8, 2.4)">
    <path d="M1.25 -1.65 L1.2 -1.35 0.85 0.25 Q1.8 -2.25 2.25 -2.4 2.7 -2.55 2.6 -1.4 2.95 -2.25 3.3 -2.25 L3.75 -2.0 3.95 -1.6 2.5 1.25 4.35 -0.4 Q4.9 -1.1 5.05 -0.85 L5.15 -0.5 Q5.15 0.0 3.55 2.0 L3.15 3.0 Q4.0 2.25 4.45 2.25 5.25 2.25 5.25 2.45 L2.5 4.8 2.1 4.7 1.8 4.75 Q1.45 5.0 0.95 5.9 L-1.8 4.55 Q-0.4 3.3 -0.75 3.0 L-0.9 2.5 -0.65 1.85 -0.5 1.3 0.0 0.1 0.95 -1.75 0.95 -1.8 1.25 -1.65 M2.25 -0.5 L2.2 -0.5 1.6 1.0 1.8 0.55 2.15 -0.35 2.25 -0.5" fill="#b6793d" fill-rule="evenodd" stroke="none"/>
  </g>
</svg>
