<?xml version="1.0" encoding="UTF-8" standalone="no"?>
<svg xmlns:xlink="http://www.w3.org/1999/xlink" height="6.95px" width="5.6px" xmlns="http://www.w3.org/2000/svg">
  <g transform="matrix(1, 0, 0, 1, 7.05, 11.0)">
    <path d="M-4.4 -8.85 L-4.3 -8.75 Q-3.85 -7.8 -3.85 -7.1 -3.75 -6.4 -4.7 -5.9 -5.7 -5.4 -5.95 -5.9 L-6.55 -7.45 -6.7 -9.1 -5.3 -9.95 Q-4.75 -9.7 -4.4 -8.85" fill="#1a272d" fill-rule="evenodd" stroke="none"/>
    <path d="M-5.05 -10.0 L-6.7 -9.1 -7.05 -10.0 -5.35 -11.0 -5.05 -10.0" fill="#283e46" fill-rule="evenodd" stroke="none"/>
    <path d="M-1.95 -6.95 L-1.55 -5.65 Q-1.2 -4.2 -2.1 -4.1 -3.0 -3.95 -4.45 -4.55 -5.8 -5.2 -5.9 -6.15 -6.0 -7.1 -5.3 -7.35 L-3.6 -7.5 Q-2.5 -7.5 -1.95 -6.95" fill="#1a272d" fill-rule="evenodd" stroke="none"/>
  </g>
</svg>
