<?xml version="1.0" encoding="UTF-8" standalone="no"?>
<svg xmlns:xlink="http://www.w3.org/1999/xlink" height="24.15px" width="10.85px" xmlns="http://www.w3.org/2000/svg">
  <g transform="matrix(1, 0, 0, 1, 4.2, 12.25)">
    <path d="M3.8 -9.9 Q3.7 -10.8 4.05 -11.3 L5.7 -11.25 Q6.15 -10.8 6.4 -9.75 L6.65 -8.15 Q6.65 -7.6 5.55 -7.5 4.5 -7.45 4.2 -8.1 3.9 -8.75 3.8 -9.75 L3.8 -9.9" fill="#1a272d" fill-rule="evenodd" stroke="none"/>
    <path d="M3.8 -11.2 L3.6 -12.25 5.55 -12.25 5.7 -11.25 3.8 -11.2" fill="#283e46" fill-rule="evenodd" stroke="none"/>
    <path d="M3.8 -8.35 Q4.75 -8.9 5.4 -9.05 6.05 -9.2 6.5 -8.35 6.9 -7.45 6.0 -6.2 5.05 -5.0 4.2 -4.65 3.35 -4.3 2.95 -5.7 L2.65 -7.05 Q2.85 -7.8 3.8 -8.35" fill="#1a272d" fill-rule="evenodd" stroke="none"/>
    <path d="M3.85 -6.35 Q4.1 -5.45 3.6 -3.65 L3.25 -2.35 2.9 -2.1 2.9 -2.15 Q0.75 -0.95 -0.8 -1.05 -2.35 -1.2 -2.35 -1.65 L-2.95 -1.7 -2.5 -2.95 -2.5 -4.9 Q-2.6 -5.95 -2.2 -7.05 L-2.35 -7.1 -2.1 -7.5 -1.95 -7.45 -1.9 -7.5 -1.25 -7.85 Q0.85 -8.2 2.35 -7.9 L3.15 -7.5 3.65 -6.8 3.9 -6.35 3.85 -6.35" fill="#283e46" fill-rule="evenodd" stroke="none"/>
    <path d="M2.6 -7.9 Q3.4 -7.55 3.4 -7.05 3.4 -6.55 2.6 -6.2 1.85 -5.85 0.8 -5.85 L-1.15 -6.2 Q-1.85 -6.55 -1.85 -7.05 -1.85 -7.55 -1.15 -7.9 L0.8 -8.3 2.6 -7.9" fill="#1a272d" fill-rule="evenodd" stroke="none"/>
    <path d="M1.4 -1.6 L2.55 -0.3 Q3.6 0.9 3.3 4.9 L3.15 7.05 1.0 6.75 Q0.8 6.55 0.45 4.6 -0.2 1.45 -2.1 4.35 L-3.4 5.0 -3.4 5.1 Q-4.85 4.9 -3.6 1.35 -3.1 0.6 -3.15 0.25 L-2.4 -0.6 Q-1.75 -1.1 -0.3 -1.35 L1.4 -1.6" fill="#99bbb7" fill-rule="evenodd" stroke="none"/>
    <path d="M0.45 8.25 L0.9 6.35 Q2.6 5.65 3.15 6.9 L2.7 8.7 2.1 9.75 Q1.65 10.1 0.85 9.75 0.05 9.4 0.45 8.25" fill="#99bbb7" fill-rule="evenodd" stroke="none"/>
    <path d="M1.75 11.1 L1.05 11.75 Q0.55 12.05 -0.1 11.75 -0.7 11.45 -0.2 10.4 L0.35 9.1 Q1.75 8.55 2.3 9.75 L1.75 11.1" fill="#0d0f0f" fill-rule="evenodd" stroke="none"/>
  </g>
</svg>
