<?xml version="1.0" encoding="UTF-8" standalone="no"?>
<svg xmlns:xlink="http://www.w3.org/1999/xlink" height="12.75px" width="7.15px" xmlns="http://www.w3.org/2000/svg">
  <g transform="matrix(1, 0, 0, 1, 4.0, 3.25)">
    <path d="M-3.15 -1.05 L-2.85 -2.1 Q-2.15 -3.55 0.4 -3.2 2.95 -2.9 3.1 -1.35 L3.15 -0.85 -3.15 -1.05" fill="#283e46" fill-rule="evenodd" stroke="none"/>
    <path d="M3.15 -0.85 L3.1 1.1 Q-0.05 -0.35 -3.25 0.15 L-3.15 -1.05 3.15 -0.85" fill="#62938d" fill-rule="evenodd" stroke="none"/>
    <path d="M-3.65 6.35 L-4.0 4.55 Q-3.1 2.95 -1.9 4.05 L-1.4 5.9 Q-1.0 7.05 -1.7 7.4 L-2.9 7.45 -3.65 6.35" fill="#99bbb7" fill-rule="evenodd" stroke="none"/>
    <path d="M-0.65 9.35 Q-1.25 9.7 -1.85 9.35 -2.4 9.1 -2.55 8.7 L-3.05 7.4 Q-2.55 6.15 -1.2 6.8 L-0.55 8.0 Q-0.05 9.0 -0.65 9.35" fill="#0d0f0f" fill-rule="evenodd" stroke="none"/>
  </g>
</svg>
