<?xml version="1.0" encoding="UTF-8" standalone="no"?>
<svg xmlns:xlink="http://www.w3.org/1999/xlink" height="3.15px" width="3.65px" xmlns="http://www.w3.org/2000/svg">
  <g transform="matrix(1, 0, 0, 1, 2.0, 12.1)">
    <path d="M0.5 -11.05 L0.65 -11.15 0.75 -11.05 0.75 -10.8 0.65 -10.75 0.45 -10.55 0.15 -10.55 -0.1 -10.6 0.2 -10.95 0.5 -11.05 M-0.85 -11.05 L-0.85 -10.85 -0.7 -10.8 -0.6 -10.75 -0.65 -10.55 -0.55 -10.4 Q-0.45 -10.25 -1.4 -9.35 L-1.45 -9.45 -1.5 -9.65 -1.6 -9.7 -1.4 -10.2 -1.15 -10.65 -1.2 -11.0 -1.15 -11.1 -0.85 -11.05 M-0.65 -11.4 L-0.9 -11.5 -0.85 -11.6 -0.8 -11.7 -0.15 -11.6 Q-0.1 -11.55 -0.2 -11.45 L-0.65 -11.4" fill="#663300" fill-rule="evenodd" stroke="none"/>
    <path d="M0.5 -11.05 L0.2 -10.95 -0.1 -10.6 0.15 -10.55 0.45 -10.55 0.65 -10.75 0.75 -10.8 0.75 -11.05 0.65 -11.15 0.5 -11.05 M1.65 -10.9 L1.55 -10.35 Q1.35 -9.55 -0.55 -9.05 -2.45 -8.55 -1.85 -10.9 -1.55 -12.1 -0.55 -12.1 L0.8 -11.7 1.65 -10.9 M-0.65 -11.4 L-0.2 -11.45 Q-0.1 -11.55 -0.15 -11.6 L-0.8 -11.7 -0.85 -11.6 -0.9 -11.5 -0.65 -11.4 M-0.85 -11.05 L-1.15 -11.1 -1.2 -11.0 -1.15 -10.65 -1.4 -10.2 -1.6 -9.7 -1.5 -9.65 -1.45 -9.45 -1.4 -9.35 Q-0.45 -10.25 -0.55 -10.4 L-0.65 -10.55 -0.6 -10.75 -0.7 -10.8 -0.85 -10.85 -0.85 -11.05" fill="#e7ad6d" fill-rule="evenodd" stroke="none"/>
  </g>
</svg>
