<?xml version="1.0" encoding="UTF-8" standalone="no"?>
<svg xmlns:xlink="http://www.w3.org/1999/xlink" height="6.25px" width="14.25px" xmlns="http://www.w3.org/2000/svg">
  <g transform="matrix(1, 0, 0, 1, 6.95, 3.05)">
    <path d="M4.6 -1.7 L6.2 -2.15 7.05 -0.85 Q7.4 0.1 7.25 0.8 7.0 1.45 6.05 1.55 L5.05 1.65 4.65 0.6 Q4.4 -0.55 4.6 -1.7" fill="#ccff66" fill-rule="evenodd" stroke="none"/>
    <path d="M6.3 -2.1 L4.7 -1.7 4.45 -2.65 6.0 -3.05 6.3 -2.1" fill="#666633" fill-rule="evenodd" stroke="none"/>
    <path d="M-6.05 -1.0 L-4.35 -0.9 Q-3.5 -0.65 -3.4 0.35 L-2.75 2.05 Q-2.45 2.8 -3.75 3.1 -5.0 3.4 -5.95 2.6 -6.85 1.7 -6.95 0.35 -7.05 -1.0 -6.05 -1.0" fill="#ccff66" fill-rule="evenodd" stroke="none"/>
  </g>
</svg>
