<?xml version="1.0" encoding="UTF-8" standalone="no"?>
<svg xmlns:xlink="http://www.w3.org/1999/xlink" height="6.95px" width="15.8px" xmlns="http://www.w3.org/2000/svg">
  <g transform="matrix(1, 0, 0, 1, 2.1, -3.95)">
    <path d="M12.5 4.95 L13.45 6.4 Q13.85 7.45 13.65 8.2 13.4 8.95 12.35 9.05 L11.2 9.15 Q11.05 9.15 10.8 8.0 10.5 6.75 10.75 5.45 L12.5 4.95" fill="#ccff66" fill-rule="evenodd" stroke="none"/>
    <path d="M10.85 5.45 L10.55 4.4 12.3 3.95 12.6 5.0 10.85 5.45" fill="#666633" fill-rule="evenodd" stroke="none"/>
    <path d="M1.85 7.7 Q2.05 8.8 2.55 9.6 2.9 10.45 1.45 10.8 0.05 11.1 -1.0 10.25 -2.0 9.2 -2.1 7.75 -2.25 6.2 -1.1 6.2 L0.8 6.35 Q1.7 6.6 1.85 7.7" fill="#ccff66" fill-rule="evenodd" stroke="none"/>
  </g>
</svg>
