<?xml version="1.0" encoding="UTF-8" standalone="no"?>
<svg xmlns:xlink="http://www.w3.org/1999/xlink" height="39.7px" width="543.05px" xmlns="http://www.w3.org/2000/svg">
  <g transform="matrix(1, 0, 0, 1, 33.25, 16.3)">
    <path d="M0.35 -6.0 L0.8 -8.8 -18.25 -8.8 -21.9 15.8 -3.0 15.8 -2.5 13.0 8.25 13.0 7.4 18.65 Q7.05 20.85 4.3 22.25 2.0 23.4 -0.05 23.4 L-27.2 23.4 Q-29.25 23.4 -31.05 22.3 -33.25 21.1 -33.25 19.2 L-33.2 18.6 -28.5 -11.6 Q-28.2 -13.9 -25.45 -15.2 -23.2 -16.3 -20.6 -16.3 L5.55 -16.3 Q7.7 -16.3 9.6 -15.35 12.05 -14.15 12.05 -12.25 L11.2 -6.0 0.35 -6.0 M21.8 -10.7 L47.95 -10.7 51.85 -10.1 Q54.55 -9.25 54.55 -7.75 L49.15 17.65 38.35 17.65 40.85 5.9 21.85 5.9 19.35 17.65 8.6 17.65 13.95 -7.3 Q14.25 -9.0 17.25 -9.95 19.55 -10.7 21.8 -10.7 M24.3 -5.25 L23.1 0.5 41.9 0.5 43.15 -5.25 24.3 -5.25 M96.3 -3.95 L95.3 0.0 Q95.05 1.5 92.3 2.45 L88.1 3.25 Q94.0 3.55 94.0 6.15 L91.55 17.65 80.8 17.65 83.3 5.9 64.3 5.9 61.8 17.65 51.1 17.65 57.1 -10.65 90.4 -10.65 94.3 -10.1 Q96.95 -9.3 96.95 -7.75 L96.3 -3.95 M124.65 -8.8 L119.75 23.3 109.05 23.3 115.05 -16.3 148.35 -16.3 Q150.5 -16.3 152.5 -15.35 154.95 -14.15 154.95 -12.25 L154.85 -11.75 149.55 23.3 138.75 23.3 143.65 -8.8 140.0 -8.8 135.15 23.3 124.4 23.3 129.3 -8.8 124.65 -8.8 M160.1 -9.9 Q162.35 -10.65 164.65 -10.65 L190.75 -10.65 194.65 -10.05 Q197.3 -9.2 197.3 -7.75 L192.65 14.35 Q192.3 15.95 189.6 16.9 187.3 17.7 185.2 17.7 L158.05 17.7 154.35 17.05 Q152.0 16.2 152.0 14.7 L156.75 -7.3 Q157.05 -8.95 160.1 -9.9 M66.8 -5.25 L65.55 0.5 84.3 0.5 85.6 -5.25 66.8 -5.25 M167.2 -5.25 L163.45 12.25 182.2 12.25 185.95 -5.25 167.2 -5.25 M199.85 -10.65 L240.35 -10.65 239.2 -5.25 224.8 -5.25 219.95 17.65 209.2 17.65 214.1 -5.25 198.7 -5.25 199.85 -10.65 M279.5 -10.05 Q282.15 -9.2 282.15 -7.75 L277.5 14.35 Q277.15 15.95 274.45 16.9 272.15 17.7 270.05 17.7 L242.9 17.7 239.2 17.05 Q236.85 16.2 236.85 14.7 L241.6 -7.3 Q241.9 -8.95 244.95 -9.9 247.2 -10.65 249.5 -10.65 L275.65 -10.65 279.5 -10.05 M252.05 -5.25 L248.3 12.25 267.05 12.25 270.8 -5.25 252.05 -5.25 M307.45 -16.3 L333.6 -16.3 Q335.75 -16.3 337.7 -15.35 340.1 -14.15 340.1 -12.25 L339.25 -6.0 328.45 -6.0 328.9 -8.8 309.85 -8.8 306.15 15.8 325.1 15.8 326.5 6.95 318.9 6.95 320.05 -0.6 338.4 -0.6 335.45 18.65 Q335.2 20.7 332.65 22.15 330.3 23.4 328.05 23.4 L300.85 23.4 Q298.8 23.4 297.0 22.3 294.8 21.1 294.8 19.2 L294.85 18.6 299.55 -11.6 Q299.85 -13.9 302.6 -15.2 304.85 -16.3 307.45 -16.3 M345.35 -9.95 Q347.6 -10.7 349.85 -10.7 L376.0 -10.7 Q378.0 -10.7 379.95 -10.1 382.6 -9.25 382.6 -7.75 L377.2 17.65 366.45 17.65 368.95 5.9 349.95 5.9 347.45 17.65 336.65 17.65 342.0 -7.3 Q342.35 -9.0 345.35 -9.95 M394.75 -5.25 L389.85 17.65 379.15 17.65 385.15 -10.65 418.45 -10.65 422.35 -10.05 Q425.0 -9.2 425.0 -7.75 L419.65 17.65 408.85 17.65 413.75 -5.25 410.1 -5.25 405.25 17.65 394.5 17.65 399.4 -5.25 394.75 -5.25 M352.35 -5.25 L351.15 0.5 369.95 0.5 371.2 -5.25 352.35 -5.25 M477.15 -10.65 L503.3 -10.65 507.15 -10.05 Q509.8 -9.2 509.8 -7.75 L508.95 -3.3 498.05 -3.3 498.6 -5.25 479.6 -5.25 478.4 0.6 501.35 0.6 Q503.1 0.6 505.0 1.25 507.45 2.1 507.45 3.55 L505.15 14.35 Q504.8 15.95 502.1 16.9 499.85 17.7 497.75 17.7 L470.55 17.7 466.95 17.05 Q464.55 16.2 464.55 14.7 L465.5 10.3 476.3 10.3 475.9 12.25 494.85 12.25 496.2 5.95 473.05 5.95 469.45 5.3 Q467.0 4.45 467.0 3.0 L469.25 -7.3 Q469.55 -8.95 472.6 -9.9 474.9 -10.65 477.15 -10.65 M466.95 -5.25 L437.15 -5.25 435.85 0.6 454.85 0.6 453.7 5.95 434.7 5.95 433.45 12.25 463.2 12.25 462.05 17.65 421.55 17.65 427.55 -10.65 468.05 -10.65 466.95 -5.25" fill="#990000" fill-rule="evenodd" stroke="none"/>
  </g>
</svg>
