<?xml version="1.0" encoding="UTF-8" standalone="no"?>
<svg xmlns:xlink="http://www.w3.org/1999/xlink" height="8.4px" width="14.0px" xmlns="http://www.w3.org/2000/svg">
  <g transform="matrix(1, 0, 0, 1, 1.5, -4.0)">
    <path d="M11.35 8.4 Q12.4 8.75 12.45 9.65 12.6 10.5 12.25 11.55 12.05 12.7 10.6 12.3 9.15 12.0 8.3 10.8 7.65 9.65 8.2 8.3 8.75 6.9 9.55 7.4 L11.35 8.4" fill="#ccff66" fill-rule="evenodd" stroke="none"/>
    <path d="M2.3 9.15 Q2.3 10.3 0.9 10.1 -0.55 9.95 -1.15 8.65 -1.75 7.15 -1.3 5.45 -0.9 3.65 0.15 4.1 1.2 4.3 1.85 4.9 2.55 5.45 2.35 6.75 2.15 8.05 2.3 9.15" fill="#ccff66" fill-rule="evenodd" stroke="none"/>
  </g>
</svg>
