<?xml version="1.0" encoding="UTF-8" standalone="no"?>
<svg xmlns:xlink="http://www.w3.org/1999/xlink" height="11.2px" width="12.2px" xmlns="http://www.w3.org/2000/svg">
  <g transform="matrix(1, 0, 0, 1, 5.7, 12.45)">
    <path d="M3.9 -11.5 L5.55 -11.45 Q6.0 -11.0 6.25 -9.95 L6.5 -8.35 Q6.5 -7.8 5.4 -7.7 4.35 -7.65 4.05 -8.3 L3.65 -9.95 3.65 -10.1 Q3.55 -11.0 3.9 -11.5" fill="#ccff66" fill-rule="evenodd" stroke="none"/>
    <path d="M5.4 -12.45 L5.55 -11.45 3.65 -11.4 3.45 -12.45 5.4 -12.45" fill="#666633" fill-rule="evenodd" stroke="none"/>
    <path d="M2.8 -5.9 L2.5 -7.25 Q2.7 -8.0 3.65 -8.55 4.6 -9.1 5.25 -9.25 5.9 -9.4 6.35 -8.55 6.75 -7.65 5.85 -6.4 4.9 -5.2 4.05 -4.85 3.2 -4.5 2.8 -5.9" fill="#ccff66" fill-rule="evenodd" stroke="none"/>
    <path d="M-3.05 -4.65 Q-4.05 -3.8 -4.7 -3.7 -5.35 -3.6 -5.65 -4.55 -5.9 -5.5 -4.5 -6.4 -3.15 -7.35 -2.1 -7.55 -1.05 -7.7 -1.65 -6.35 L-2.1 -5.3 -3.05 -4.65" fill="#ccff66" fill-rule="evenodd" stroke="none"/>
    <path d="M3.7 -6.55 Q3.95 -5.65 3.45 -3.85 L3.1 -2.55 2.75 -2.3 2.75 -2.35 Q0.6 -1.15 -0.95 -1.25 -2.5 -1.4 -2.5 -1.85 L-3.1 -1.9 -2.65 -3.15 -2.65 -5.1 Q-2.75 -6.15 -2.35 -7.25 L-2.5 -7.3 -2.25 -7.7 -2.1 -7.65 -2.05 -7.7 -1.4 -8.05 Q0.7 -8.4 2.2 -8.1 L3.0 -7.7 3.5 -7.0 3.75 -6.55 3.7 -6.55" fill="#ccff66" fill-rule="evenodd" stroke="none"/>
  </g>
</svg>
