<?xml version="1.0" encoding="UTF-8" standalone="no"?>
<svg xmlns:xlink="http://www.w3.org/1999/xlink" height="13.2px" width="7.9px" xmlns="http://www.w3.org/2000/svg">
  <g transform="matrix(1, 0, 0, 1, 3.55, 2.5)">
    <path d="M2.3 -1.6 Q2.4 -1.25 3.05 -0.65 5.15 2.45 3.8 3.0 L3.8 2.9 2.35 2.65 Q-0.2 0.3 0.0 3.5 L0.05 5.75 -1.95 6.55 -2.7 4.55 Q-4.0 0.75 -3.3 -0.65 L-2.55 -2.25 -0.85 -2.45 1.4 -2.25 2.3 -1.6" fill="#687c2c" fill-rule="evenodd" stroke="none"/>
    <path d="M0.9 7.05 Q1.6 8.05 0.95 8.6 0.25 9.15 -0.25 8.9 L-1.15 8.05 -2.0 6.4 Q-1.8 5.05 0.0 5.35 L0.9 7.05" fill="#687c2c" fill-rule="evenodd" stroke="none"/>
    <path d="M2.15 9.0 Q2.85 9.85 2.35 10.3 1.85 10.8 1.25 10.65 0.65 10.45 0.45 10.15 L-0.45 9.0 Q-0.25 7.7 1.25 7.9 L2.15 9.0" fill="#0d0f0f" fill-rule="evenodd" stroke="none"/>
  </g>
</svg>
