<?xml version="1.0" encoding="UTF-8" standalone="no"?>
<svg xmlns:xlink="http://www.w3.org/1999/xlink" height="11.35px" width="8.05px" xmlns="http://www.w3.org/2000/svg">
  <g transform="matrix(1, 0, 0, 1, 3.65, 3.45)">
    <path d="M2.95 -1.55 L3.1 -0.7 -3.65 0.9 Q-3.45 -1.3 -3.0 -2.3 -2.3 -3.75 0.25 -3.4 2.8 -3.1 2.95 -1.55" fill="#ccff66" fill-rule="evenodd" stroke="none"/>
    <path d="M2.1 4.3 L2.1 2.4 4.3 2.35 4.4 4.15 Q4.4 4.85 4.0 5.4 3.65 5.85 2.8 5.7 2.0 5.55 2.1 4.3" fill="#687c2c" fill-rule="evenodd" stroke="none"/>
    <path d="M4.1 5.35 L3.95 6.75 Q3.9 7.15 3.45 7.55 3.0 8.05 2.3 7.85 1.65 7.7 1.85 6.6 L2.15 5.25 Q3.3 4.25 4.1 5.35" fill="#0d0f0f" fill-rule="evenodd" stroke="none"/>
  </g>
</svg>
