<?xml version="1.0" encoding="UTF-8" standalone="no"?>
<svg xmlns:xlink="http://www.w3.org/1999/xlink" height="40.5px" width="484.25px" xmlns="http://www.w3.org/2000/svg">
  <g transform="matrix(1, 0, 0, 1, 2.75, 1.95)">
    <path d="M476.65 18.3 L474.65 27.85 Q474.35 29.25 471.95 30.1 469.95 30.8 468.1 30.8 L444.15 30.8 Q442.65 30.8 440.95 30.2 438.85 29.45 438.85 28.15 L439.7 24.25 449.2 24.25 448.85 26.0 465.55 26.0 466.75 20.45 446.35 20.45 443.15 19.85 Q441.0 19.1 441.0 17.85 L443.0 8.75 Q443.25 7.3 445.95 6.45 L449.95 5.8 473.0 5.8 Q474.65 5.8 476.4 6.35 478.75 7.1 478.75 8.35 L478.0 12.3 468.4 12.3 468.85 10.55 452.1 10.55 451.05 15.7 471.3 15.7 Q472.85 15.7 474.5 16.3 476.65 17.05 476.65 18.3" fill="url(#gradient0)" fill-rule="evenodd" stroke="none"/>
    <path d="M429.3 20.45 L412.55 20.45 411.45 26.0 437.65 26.0 436.65 30.75 400.95 30.75 406.25 5.8 441.95 5.8 440.95 10.55 414.7 10.55 413.55 15.7 430.3 15.7 429.3 20.45" fill="url(#gradient1)" fill-rule="evenodd" stroke="none"/>
    <path d="M390.85 10.55 L386.55 30.75 377.1 30.75 381.4 10.55 377.3 10.55 373.0 30.75 363.55 30.75 368.85 5.8 398.2 5.8 Q399.9 5.8 401.65 6.35 404.0 7.1 404.0 8.35 L399.25 30.75 389.75 30.75 394.05 10.55 390.85 10.55" fill="url(#gradient2)" fill-rule="evenodd" stroke="none"/>
    <path d="M356.55 10.55 L339.95 10.55 338.9 15.65 355.45 15.65 356.55 10.55 M364.25 6.3 Q366.6 7.05 366.6 8.35 L361.85 30.75 352.35 30.75 354.55 20.4 337.8 20.4 335.6 30.75 326.1 30.75 330.8 8.75 Q331.1 7.25 333.75 6.4 335.75 5.75 337.75 5.75 L360.8 5.75 Q362.55 5.75 364.25 6.3" fill="url(#gradient3)" fill-rule="evenodd" stroke="none"/>
    <path d="M329.15 4.4 L328.4 9.9 318.85 9.9 319.25 7.45 302.45 7.45 299.2 29.1 315.9 29.1 317.15 21.3 310.45 21.3 311.45 14.65 327.65 14.65 325.05 31.65 Q324.8 33.45 322.55 34.7 320.5 35.8 318.5 35.8 L294.55 35.8 Q292.75 35.8 291.15 34.85 289.2 33.8 289.2 32.1 L289.25 31.6 293.4 4.95 Q293.65 2.95 296.1 1.8 298.05 0.8 300.35 0.8 L323.4 0.8 Q325.3 0.8 327.0 1.65 329.15 2.7 329.15 4.4" fill="url(#gradient4)" fill-rule="evenodd" stroke="none"/>
    <path d="M278.05 8.35 L273.95 27.85 Q273.65 29.25 271.25 30.1 269.25 30.8 267.4 30.8 L243.45 30.8 240.2 30.2 Q238.1 29.45 238.1 28.15 L242.3 8.75 Q242.55 7.3 245.25 6.45 247.25 5.8 249.25 5.8 L272.3 5.8 Q274.0 5.8 275.7 6.35 278.05 7.1 278.05 8.35 M248.2 26.0 L264.75 26.0 268.05 10.55 251.5 10.55 248.2 26.0" fill="url(#gradient5)" fill-rule="evenodd" stroke="none"/>
    <path d="M227.5 10.55 L223.2 30.75 213.75 30.75 218.05 10.55 204.5 10.55 205.5 5.8 241.2 5.8 240.2 10.55 227.5 10.55" fill="url(#gradient6)" fill-rule="evenodd" stroke="none"/>
    <path d="M200.9 6.35 Q203.25 7.1 203.25 8.35 L199.15 27.85 Q198.85 29.25 196.45 30.1 194.45 30.8 192.6 30.8 L168.65 30.8 Q167.1 30.8 165.4 30.2 163.3 29.45 163.3 28.15 L167.5 8.75 Q167.75 7.3 170.45 6.45 172.45 5.8 174.45 5.8 L197.5 5.8 Q199.2 5.8 200.9 6.35 M193.25 10.55 L176.7 10.55 173.4 26.0 189.95 26.0 193.25 10.55" fill="url(#gradient7)" fill-rule="evenodd" stroke="none"/>
    <path d="M165.9 4.4 L165.85 4.85 161.15 35.75 151.65 35.75 155.95 7.45 152.75 7.45 148.45 35.75 139.0 35.75 143.3 7.45 139.2 7.45 134.9 35.75 125.45 35.75 130.75 0.8 160.1 0.8 Q162.0 0.8 163.75 1.65 165.9 2.7 165.9 4.4" fill="url(#gradient8)" fill-rule="evenodd" stroke="none"/>
    <path d="M104.8 10.55 L88.2 10.55 87.1 15.65 103.65 15.65 104.8 10.55 M114.8 8.35 L114.2 11.7 113.35 15.2 Q113.1 16.5 110.7 17.35 108.85 18.0 107.0 18.05 112.2 18.3 112.2 20.6 L110.05 30.75 100.55 30.75 102.75 20.4 86.0 20.4 83.8 30.75 74.35 30.75 79.65 5.8 109.0 5.8 112.45 6.3 Q114.8 7.0 114.8 8.35" fill="url(#gradient9)" fill-rule="evenodd" stroke="none"/>
    <path d="M67.35 10.55 L50.75 10.55 49.7 15.65 66.25 15.65 67.35 10.55 M75.05 6.3 Q77.4 7.05 77.4 8.35 L72.65 30.75 63.15 30.75 65.35 20.4 48.6 20.4 46.4 30.75 36.9 30.75 41.6 8.75 Q41.9 7.25 44.55 6.4 46.55 5.75 48.55 5.75 L71.6 5.75 Q73.35 5.75 75.05 6.3" fill="url(#gradient10)" fill-rule="evenodd" stroke="none"/>
    <path d="M30.05 7.45 L13.25 7.45 10.0 29.1 26.7 29.1 27.1 26.65 36.6 26.65 35.85 31.65 Q35.55 33.55 33.1 34.8 31.1 35.8 29.3 35.8 L5.35 35.8 Q3.55 35.8 1.95 34.85 0.0 33.8 0.0 32.1 L0.05 31.6 4.2 4.95 Q4.45 2.95 6.9 1.8 8.85 0.8 11.15 0.8 L34.2 0.8 Q36.1 0.8 37.8 1.65 39.95 2.7 39.95 4.4 L39.2 9.9 29.65 9.9 30.05 7.45" fill="url(#gradient11)" fill-rule="evenodd" stroke="none"/>
    <path d="M476.65 18.3 L474.65 27.85 Q474.35 29.25 471.95 30.1 469.95 30.8 468.1 30.8 L444.15 30.8 Q442.65 30.8 440.95 30.2 438.85 29.45 438.85 28.15 L439.7 24.25 449.2 24.25 448.85 26.0 465.55 26.0 466.75 20.45 446.35 20.45 443.15 19.85 Q441.0 19.1 441.0 17.85 L443.0 8.75 Q443.25 7.3 445.95 6.45 L449.95 5.8 473.0 5.8 Q474.65 5.8 476.4 6.35 478.75 7.1 478.75 8.35 L478.0 12.3 468.4 12.3 468.85 10.55 452.1 10.55 451.05 15.7 471.3 15.7 Q472.85 15.7 474.5 16.3 476.65 17.05 476.65 18.3 M429.3 20.45 L412.55 20.45 411.45 26.0 437.65 26.0 436.65 30.75 400.95 30.75 406.25 5.8 441.95 5.8 440.95 10.55 414.7 10.55 413.55 15.7 430.3 15.7 429.3 20.45 M390.85 10.55 L386.55 30.75 377.1 30.75 381.4 10.55 377.3 10.55 373.0 30.75 363.55 30.75 368.85 5.8 398.2 5.8 Q399.9 5.8 401.65 6.35 404.0 7.1 404.0 8.35 L399.25 30.75 389.75 30.75 394.05 10.55 390.85 10.55 M356.55 10.55 L339.95 10.55 338.9 15.65 355.45 15.65 356.55 10.55 M364.25 6.3 Q366.6 7.05 366.6 8.35 L361.85 30.75 352.35 30.75 354.55 20.4 337.8 20.4 335.6 30.75 326.1 30.75 330.8 8.75 Q331.1 7.25 333.75 6.4 335.75 5.75 337.75 5.75 L360.8 5.75 Q362.55 5.75 364.25 6.3 M329.15 4.4 L328.4 9.9 318.85 9.9 319.25 7.45 302.45 7.45 299.2 29.1 315.9 29.1 317.15 21.3 310.45 21.3 311.45 14.65 327.65 14.65 325.05 31.65 Q324.8 33.45 322.55 34.7 320.5 35.8 318.5 35.8 L294.55 35.8 Q292.75 35.8 291.15 34.85 289.2 33.8 289.2 32.1 L289.25 31.6 293.4 4.95 Q293.65 2.95 296.1 1.8 298.05 0.8 300.35 0.8 L323.4 0.8 Q325.3 0.8 327.0 1.65 329.15 2.7 329.15 4.4 M278.05 8.35 L273.95 27.85 Q273.65 29.25 271.25 30.1 269.25 30.8 267.4 30.8 L243.45 30.8 240.2 30.2 Q238.1 29.45 238.1 28.15 L242.3 8.75 Q242.55 7.3 245.25 6.45 247.25 5.8 249.25 5.8 L272.3 5.8 Q274.0 5.8 275.7 6.35 278.05 7.1 278.05 8.35 M248.2 26.0 L264.75 26.0 268.05 10.55 251.5 10.55 248.2 26.0 M227.5 10.55 L223.2 30.75 213.75 30.75 218.05 10.55 204.5 10.55 205.5 5.8 241.2 5.8 240.2 10.55 227.5 10.55 M200.9 6.35 Q203.25 7.1 203.25 8.35 L199.15 27.85 Q198.85 29.25 196.45 30.1 194.45 30.8 192.6 30.8 L168.65 30.8 Q167.1 30.8 165.4 30.2 163.3 29.45 163.3 28.15 L167.5 8.75 Q167.75 7.3 170.45 6.45 172.45 5.8 174.45 5.8 L197.5 5.8 Q199.2 5.8 200.9 6.35 M165.9 4.4 L165.85 4.85 161.15 35.75 151.65 35.75 155.95 7.45 152.75 7.45 148.45 35.75 139.0 35.75 143.3 7.45 139.2 7.45 134.9 35.75 125.45 35.75 130.75 0.8 160.1 0.8 Q162.0 0.8 163.75 1.65 165.9 2.7 165.9 4.4 M193.25 10.55 L176.7 10.55 173.4 26.0 189.95 26.0 193.25 10.55 M104.8 10.55 L88.2 10.55 87.1 15.65 103.65 15.65 104.8 10.55 M114.8 8.35 L114.2 11.7 113.35 15.2 Q113.1 16.5 110.7 17.35 108.85 18.0 107.0 18.05 112.2 18.3 112.2 20.6 L110.05 30.75 100.55 30.75 102.75 20.4 86.0 20.4 83.8 30.75 74.35 30.75 79.65 5.8 109.0 5.8 112.45 6.3 Q114.8 7.0 114.8 8.35 M67.35 10.55 L50.75 10.55 49.7 15.65 66.25 15.65 67.35 10.55 M75.05 6.3 Q77.4 7.05 77.4 8.35 L72.65 30.75 63.15 30.75 65.35 20.4 48.6 20.4 46.4 30.75 36.9 30.75 41.6 8.75 Q41.9 7.25 44.55 6.4 46.55 5.75 48.55 5.75 L71.6 5.75 Q73.35 5.75 75.05 6.3 M30.05 7.45 L13.25 7.45 10.0 29.1 26.7 29.1 27.1 26.65 36.6 26.65 35.85 31.65 Q35.55 33.55 33.1 34.8 31.1 35.8 29.3 35.8 L5.35 35.8 Q3.55 35.8 1.95 34.85 0.0 33.8 0.0 32.1 L0.05 31.6 4.2 4.95 Q4.45 2.95 6.9 1.8 8.85 0.8 11.15 0.8 L34.2 0.8 Q36.1 0.8 37.8 1.65 39.95 2.7 39.95 4.4 L39.2 9.9 29.65 9.9 30.05 7.45" fill="none" stroke="#ffffff" stroke-linecap="round" stroke-linejoin="round" stroke-width="5.5"/>
    <path d="M477.45 17.5 L475.45 27.05 Q475.15 28.45 472.75 29.3 470.75 30.0 468.9 30.0 L444.95 30.0 Q443.45 30.0 441.75 29.4 439.65 28.65 439.65 27.35 L440.5 23.45 450.0 23.45 449.65 25.2 466.35 25.2 467.55 19.65 447.15 19.65 Q445.7 19.65 443.95 19.05 441.8 18.3 441.8 17.05 L443.8 7.95 Q444.05 6.5 446.75 5.65 448.75 5.0 450.75 5.0 L473.8 5.0 477.2 5.55 Q479.55 6.3 479.55 7.55 L478.8 11.5 469.2 11.5 469.65 9.75 452.9 9.75 451.85 14.9 472.1 14.9 Q473.65 14.9 475.3 15.5 477.45 16.25 477.45 17.5" fill="url(#gradient12)" fill-rule="evenodd" stroke="none"/>
    <path d="M441.75 9.75 L415.5 9.75 414.35 14.9 431.1 14.9 430.1 19.65 413.35 19.65 412.25 25.2 438.45 25.2 437.45 29.95 401.75 29.95 407.05 5.0 442.75 5.0 441.75 9.75" fill="url(#gradient13)" fill-rule="evenodd" stroke="none"/>
    <path d="M404.8 7.55 L400.05 29.95 390.55 29.95 394.85 9.75 391.65 9.75 387.35 29.95 377.9 29.95 382.2 9.75 378.1 9.75 373.8 29.95 364.35 29.95 369.65 5.0 399.0 5.0 402.45 5.55 Q404.8 6.3 404.8 7.55" fill="url(#gradient14)" fill-rule="evenodd" stroke="none"/>
    <path d="M367.4 7.55 L362.65 29.95 353.15 29.95 355.35 19.6 338.6 19.6 336.4 29.95 326.9 29.95 331.6 7.95 Q331.9 6.45 334.55 5.6 L338.55 4.95 361.6 4.95 365.05 5.5 Q367.4 6.25 367.4 7.55 M357.35 9.75 L340.75 9.75 339.7 14.85 356.25 14.85 357.35 9.75" fill="url(#gradient15)" fill-rule="evenodd" stroke="none"/>
    <path d="M329.2 9.1 L319.65 9.1 320.05 6.65 303.25 6.65 300.0 28.3 316.7 28.3 317.95 20.5 311.25 20.5 312.25 13.85 328.45 13.85 325.85 30.85 Q325.6 32.65 323.35 33.9 321.3 35.0 319.3 35.0 L295.35 35.0 Q293.55 35.0 291.95 34.05 290.0 33.0 290.0 31.3 L290.05 30.8 294.2 4.15 Q294.45 2.15 296.9 1.0 298.85 0.0 301.15 0.0 L324.2 0.0 Q326.1 0.0 327.8 0.85 329.95 1.9 329.95 3.6 L329.2 9.1" fill="url(#gradient16)" fill-rule="evenodd" stroke="none"/>
    <path d="M276.5 5.55 Q278.85 6.3 278.85 7.55 L274.75 27.05 Q274.45 28.45 272.05 29.3 270.05 30.0 268.2 30.0 L244.25 30.0 Q242.7 30.0 241.0 29.4 238.9 28.65 238.9 27.35 L243.1 7.95 Q243.35 6.5 246.05 5.65 248.05 5.0 250.05 5.0 L273.1 5.0 Q274.8 5.0 276.5 5.55 M268.85 9.75 L252.3 9.75 249.0 25.2 265.55 25.2 268.85 9.75" fill="url(#gradient17)" fill-rule="evenodd" stroke="none"/>
    <path d="M241.0 9.75 L228.3 9.75 224.0 29.95 214.55 29.95 218.85 9.75 205.3 9.75 206.3 5.0 242.0 5.0 241.0 9.75" fill="url(#gradient18)" fill-rule="evenodd" stroke="none"/>
    <path d="M201.7 5.55 Q204.05 6.3 204.05 7.55 L199.95 27.05 Q199.65 28.45 197.25 29.3 195.25 30.0 193.4 30.0 L169.45 30.0 Q167.9 30.0 166.2 29.4 164.1 28.65 164.1 27.35 L168.3 7.95 Q168.55 6.5 171.25 5.65 173.25 5.0 175.25 5.0 L198.3 5.0 Q200.0 5.0 201.7 5.55 M194.05 9.75 L177.5 9.75 174.2 25.2 190.75 25.2 194.05 9.75" fill="url(#gradient19)" fill-rule="evenodd" stroke="none"/>
    <path d="M166.65 4.05 L161.95 34.95 152.45 34.95 156.75 6.65 153.55 6.65 149.25 34.95 139.8 34.95 144.1 6.65 140.0 6.65 135.7 34.95 126.25 34.95 131.55 0.0 160.9 0.0 Q162.8 0.0 164.55 0.85 166.7 1.9 166.7 3.6 L166.65 4.05" fill="url(#gradient20)" fill-rule="evenodd" stroke="none"/>
    <path d="M105.6 9.75 L89.0 9.75 87.9 14.85 104.45 14.85 105.6 9.75 M115.6 7.55 L115.0 10.9 114.15 14.4 Q113.9 15.7 111.5 16.55 L107.8 17.25 Q113.0 17.5 113.0 19.8 L110.85 29.95 101.35 29.95 103.55 19.6 86.8 19.6 84.6 29.95 75.15 29.95 80.45 5.0 109.8 5.0 113.25 5.5 Q115.6 6.2 115.6 7.55" fill="url(#gradient21)" fill-rule="evenodd" stroke="none"/>
    <path d="M75.85 5.5 Q78.2 6.25 78.2 7.55 L73.45 29.95 63.95 29.95 66.15 19.6 49.4 19.6 47.2 29.95 37.7 29.95 42.4 7.95 Q42.7 6.45 45.35 5.6 47.35 4.95 49.35 4.95 L72.4 4.95 Q74.15 4.95 75.85 5.5 M68.15 9.75 L51.55 9.75 50.5 14.85 67.05 14.85 68.15 9.75" fill="url(#gradient22)" fill-rule="evenodd" stroke="none"/>
    <path d="M38.6 0.85 Q40.75 1.9 40.75 3.6 L40.0 9.1 30.45 9.1 30.85 6.65 14.05 6.65 10.8 28.3 27.5 28.3 27.9 25.85 37.4 25.85 36.65 30.85 Q36.35 32.75 33.9 34.0 31.9 35.0 30.1 35.0 L6.15 35.0 Q4.35 35.0 2.75 34.05 0.8 33.0 0.8 31.3 L0.85 30.8 5.0 4.15 Q5.25 2.15 7.7 1.0 9.65 0.0 11.95 0.0 L35.0 0.0 Q36.9 0.0 38.6 0.85" fill="url(#gradient23)" fill-rule="evenodd" stroke="none"/>
  </g>
  <defs>
    <radialGradient cx="0" cy="0" gradientTransform="matrix(0.0284, 0.0, 0.0, 0.0284, 458.8, 18.3)" gradientUnits="userSpaceOnUse" id="gradient0" r="819.2" spreadMethod="pad">
      <stop offset="0.3411764705882353" stop-color="#ffffff"/>
      <stop offset="0.6" stop-color="#7e9290"/>
      <stop offset="0.8549019607843137" stop-color="#39464c"/>
      <stop offset="1.0" stop-color="#e4e8e8"/>
    </radialGradient>
    <radialGradient cx="0" cy="0" gradientTransform="matrix(0.0293, 0.0, 0.0, 0.0293, 421.45, 18.3)" gradientUnits="userSpaceOnUse" id="gradient1" r="819.2" spreadMethod="pad">
      <stop offset="0.3411764705882353" stop-color="#ffffff"/>
      <stop offset="0.6" stop-color="#7e9290"/>
      <stop offset="0.8549019607843137" stop-color="#39464c"/>
      <stop offset="1.0" stop-color="#e4e8e8"/>
    </radialGradient>
    <radialGradient cx="0" cy="0" gradientTransform="matrix(0.029, 0.0, 0.0, 0.029, 383.8, 18.3)" gradientUnits="userSpaceOnUse" id="gradient2" r="819.2" spreadMethod="pad">
      <stop offset="0.3411764705882353" stop-color="#ffffff"/>
      <stop offset="0.6" stop-color="#7e9290"/>
      <stop offset="0.8549019607843137" stop-color="#39464c"/>
      <stop offset="1.0" stop-color="#e4e8e8"/>
    </radialGradient>
    <radialGradient cx="0" cy="0" gradientTransform="matrix(0.0291, 0.0, 0.0, 0.0291, 346.35, 18.25)" gradientUnits="userSpaceOnUse" id="gradient3" r="819.2" spreadMethod="pad">
      <stop offset="0.3411764705882353" stop-color="#ffffff"/>
      <stop offset="0.6" stop-color="#7e9290"/>
      <stop offset="0.8549019607843137" stop-color="#39464c"/>
      <stop offset="1.0" stop-color="#e4e8e8"/>
    </radialGradient>
    <radialGradient cx="0" cy="0" gradientTransform="matrix(0.0307, 0.0, 0.0, 0.0307, 309.2, 18.3)" gradientUnits="userSpaceOnUse" id="gradient4" r="819.2" spreadMethod="pad">
      <stop offset="0.3411764705882353" stop-color="#ffffff"/>
      <stop offset="0.6" stop-color="#7e9290"/>
      <stop offset="0.8549019607843137" stop-color="#39464c"/>
      <stop offset="1.0" stop-color="#e4e8e8"/>
    </radialGradient>
    <radialGradient cx="0" cy="0" gradientTransform="matrix(0.0284, 0.0, 0.0, 0.0284, 258.1, 18.3)" gradientUnits="userSpaceOnUse" id="gradient5" r="819.2" spreadMethod="pad">
      <stop offset="0.3411764705882353" stop-color="#ffffff"/>
      <stop offset="0.6" stop-color="#7e9290"/>
      <stop offset="0.8549019607843137" stop-color="#39464c"/>
      <stop offset="1.0" stop-color="#e4e8e8"/>
    </radialGradient>
    <radialGradient cx="0" cy="0" gradientTransform="matrix(0.0271, 0.0, 0.0, 0.0271, 222.85, 18.3)" gradientUnits="userSpaceOnUse" id="gradient6" r="819.2" spreadMethod="pad">
      <stop offset="0.3411764705882353" stop-color="#ffffff"/>
      <stop offset="0.6" stop-color="#7e9290"/>
      <stop offset="0.8549019607843137" stop-color="#39464c"/>
      <stop offset="1.0" stop-color="#e4e8e8"/>
    </radialGradient>
    <radialGradient cx="0" cy="0" gradientTransform="matrix(0.0284, 0.0, 0.0, 0.0284, 183.3, 18.3)" gradientUnits="userSpaceOnUse" id="gradient7" r="819.2" spreadMethod="pad">
      <stop offset="0.3411764705882353" stop-color="#ffffff"/>
      <stop offset="0.6" stop-color="#7e9290"/>
      <stop offset="0.8549019607843137" stop-color="#39464c"/>
      <stop offset="1.0" stop-color="#e4e8e8"/>
    </radialGradient>
    <radialGradient cx="0" cy="0" gradientTransform="matrix(0.0327, 0.0, 0.0, 0.0327, 145.7, 18.3)" gradientUnits="userSpaceOnUse" id="gradient8" r="819.2" spreadMethod="pad">
      <stop offset="0.3411764705882353" stop-color="#ffffff"/>
      <stop offset="0.6" stop-color="#7e9290"/>
      <stop offset="0.8549019607843137" stop-color="#39464c"/>
      <stop offset="1.0" stop-color="#e4e8e8"/>
    </radialGradient>
    <radialGradient cx="0" cy="0" gradientTransform="matrix(0.029, 0.0, 0.0, 0.029, 94.6, 18.3)" gradientUnits="userSpaceOnUse" id="gradient9" r="819.2" spreadMethod="pad">
      <stop offset="0.3411764705882353" stop-color="#ffffff"/>
      <stop offset="0.6" stop-color="#7e9290"/>
      <stop offset="0.8549019607843137" stop-color="#39464c"/>
      <stop offset="1.0" stop-color="#e4e8e8"/>
    </radialGradient>
    <radialGradient cx="0" cy="0" gradientTransform="matrix(0.0291, 0.0, 0.0, 0.0291, 57.15, 18.25)" gradientUnits="userSpaceOnUse" id="gradient10" r="819.2" spreadMethod="pad">
      <stop offset="0.3411764705882353" stop-color="#ffffff"/>
      <stop offset="0.6" stop-color="#7e9290"/>
      <stop offset="0.8549019607843137" stop-color="#39464c"/>
      <stop offset="1.0" stop-color="#e4e8e8"/>
    </radialGradient>
    <radialGradient cx="0" cy="0" gradientTransform="matrix(0.0307, 0.0, 0.0, 0.0307, 20.0, 18.3)" gradientUnits="userSpaceOnUse" id="gradient11" r="819.2" spreadMethod="pad">
      <stop offset="0.3411764705882353" stop-color="#ffffff"/>
      <stop offset="0.6" stop-color="#7e9290"/>
      <stop offset="0.8549019607843137" stop-color="#39464c"/>
      <stop offset="1.0" stop-color="#e4e8e8"/>
    </radialGradient>
    <radialGradient cx="0" cy="0" gradientTransform="matrix(0.0284, 0.0, 0.0, 0.0284, 459.6, 17.5)" gradientUnits="userSpaceOnUse" id="gradient12" r="819.2" spreadMethod="pad">
      <stop offset="0.11764705882352941" stop-color="#ccd4d3"/>
      <stop offset="0.2980392156862745" stop-color="#98a8a7"/>
      <stop offset="0.6" stop-color="#7e9290"/>
      <stop offset="0.8549019607843137" stop-color="#39464c"/>
      <stop offset="1.0" stop-color="#687a7b"/>
    </radialGradient>
    <radialGradient cx="0" cy="0" gradientTransform="matrix(0.0293, 0.0, 0.0, 0.0293, 422.25, 17.5)" gradientUnits="userSpaceOnUse" id="gradient13" r="819.2" spreadMethod="pad">
      <stop offset="0.11764705882352941" stop-color="#ccd4d3"/>
      <stop offset="0.2980392156862745" stop-color="#98a8a7"/>
      <stop offset="0.6" stop-color="#7e9290"/>
      <stop offset="0.8549019607843137" stop-color="#39464c"/>
      <stop offset="1.0" stop-color="#687a7b"/>
    </radialGradient>
    <radialGradient cx="0" cy="0" gradientTransform="matrix(0.029, 0.0, 0.0, 0.029, 384.6, 17.5)" gradientUnits="userSpaceOnUse" id="gradient14" r="819.2" spreadMethod="pad">
      <stop offset="0.11764705882352941" stop-color="#ccd4d3"/>
      <stop offset="0.2980392156862745" stop-color="#98a8a7"/>
      <stop offset="0.6" stop-color="#7e9290"/>
      <stop offset="0.8549019607843137" stop-color="#39464c"/>
      <stop offset="1.0" stop-color="#687a7b"/>
    </radialGradient>
    <radialGradient cx="0" cy="0" gradientTransform="matrix(0.0291, 0.0, 0.0, 0.0291, 347.15, 17.45)" gradientUnits="userSpaceOnUse" id="gradient15" r="819.2" spreadMethod="pad">
      <stop offset="0.11764705882352941" stop-color="#ccd4d3"/>
      <stop offset="0.2980392156862745" stop-color="#98a8a7"/>
      <stop offset="0.6" stop-color="#7e9290"/>
      <stop offset="0.8549019607843137" stop-color="#39464c"/>
      <stop offset="1.0" stop-color="#687a7b"/>
    </radialGradient>
    <radialGradient cx="0" cy="0" gradientTransform="matrix(0.0307, 0.0, 0.0, 0.0307, 310.0, 17.5)" gradientUnits="userSpaceOnUse" id="gradient16" r="819.2" spreadMethod="pad">
      <stop offset="0.11764705882352941" stop-color="#ccd4d3"/>
      <stop offset="0.2980392156862745" stop-color="#98a8a7"/>
      <stop offset="0.6" stop-color="#7e9290"/>
      <stop offset="0.8549019607843137" stop-color="#39464c"/>
      <stop offset="1.0" stop-color="#687a7b"/>
    </radialGradient>
    <radialGradient cx="0" cy="0" gradientTransform="matrix(0.0284, 0.0, 0.0, 0.0284, 258.9, 17.5)" gradientUnits="userSpaceOnUse" id="gradient17" r="819.2" spreadMethod="pad">
      <stop offset="0.11764705882352941" stop-color="#ccd4d3"/>
      <stop offset="0.2980392156862745" stop-color="#98a8a7"/>
      <stop offset="0.6" stop-color="#7e9290"/>
      <stop offset="0.8549019607843137" stop-color="#39464c"/>
      <stop offset="1.0" stop-color="#687a7b"/>
    </radialGradient>
    <radialGradient cx="0" cy="0" gradientTransform="matrix(0.0271, 0.0, 0.0, 0.0271, 223.65, 17.5)" gradientUnits="userSpaceOnUse" id="gradient18" r="819.2" spreadMethod="pad">
      <stop offset="0.11764705882352941" stop-color="#ccd4d3"/>
      <stop offset="0.2980392156862745" stop-color="#98a8a7"/>
      <stop offset="0.6" stop-color="#7e9290"/>
      <stop offset="0.8549019607843137" stop-color="#39464c"/>
      <stop offset="1.0" stop-color="#687a7b"/>
    </radialGradient>
    <radialGradient cx="0" cy="0" gradientTransform="matrix(0.0284, 0.0, 0.0, 0.0284, 184.1, 17.5)" gradientUnits="userSpaceOnUse" id="gradient19" r="819.2" spreadMethod="pad">
      <stop offset="0.11764705882352941" stop-color="#ccd4d3"/>
      <stop offset="0.2980392156862745" stop-color="#98a8a7"/>
      <stop offset="0.6" stop-color="#7e9290"/>
      <stop offset="0.8549019607843137" stop-color="#39464c"/>
      <stop offset="1.0" stop-color="#687a7b"/>
    </radialGradient>
    <radialGradient cx="0" cy="0" gradientTransform="matrix(0.0327, 0.0, 0.0, 0.0327, 146.5, 17.5)" gradientUnits="userSpaceOnUse" id="gradient20" r="819.2" spreadMethod="pad">
      <stop offset="0.11764705882352941" stop-color="#ccd4d3"/>
      <stop offset="0.2980392156862745" stop-color="#98a8a7"/>
      <stop offset="0.6" stop-color="#7e9290"/>
      <stop offset="0.8549019607843137" stop-color="#39464c"/>
      <stop offset="1.0" stop-color="#687a7b"/>
    </radialGradient>
    <radialGradient cx="0" cy="0" gradientTransform="matrix(0.029, 0.0, 0.0, 0.029, 95.4, 17.5)" gradientUnits="userSpaceOnUse" id="gradient21" r="819.2" spreadMethod="pad">
      <stop offset="0.11764705882352941" stop-color="#ccd4d3"/>
      <stop offset="0.2980392156862745" stop-color="#98a8a7"/>
      <stop offset="0.6" stop-color="#7e9290"/>
      <stop offset="0.8549019607843137" stop-color="#39464c"/>
      <stop offset="1.0" stop-color="#687a7b"/>
    </radialGradient>
    <radialGradient cx="0" cy="0" gradientTransform="matrix(0.0291, 0.0, 0.0, 0.0291, 57.95, 17.45)" gradientUnits="userSpaceOnUse" id="gradient22" r="819.2" spreadMethod="pad">
      <stop offset="0.11764705882352941" stop-color="#ccd4d3"/>
      <stop offset="0.2980392156862745" stop-color="#98a8a7"/>
      <stop offset="0.6" stop-color="#7e9290"/>
      <stop offset="0.8549019607843137" stop-color="#39464c"/>
      <stop offset="1.0" stop-color="#687a7b"/>
    </radialGradient>
    <radialGradient cx="0" cy="0" gradientTransform="matrix(0.0307, 0.0, 0.0, 0.0307, 20.8, 17.5)" gradientUnits="userSpaceOnUse" id="gradient23" r="819.2" spreadMethod="pad">
      <stop offset="0.11764705882352941" stop-color="#ccd4d3"/>
      <stop offset="0.2980392156862745" stop-color="#98a8a7"/>
      <stop offset="0.6" stop-color="#7e9290"/>
      <stop offset="0.8549019607843137" stop-color="#39464c"/>
      <stop offset="1.0" stop-color="#687a7b"/>
    </radialGradient>
  </defs>
</svg>
