<?xml version="1.0" encoding="UTF-8" standalone="no"?>
<svg xmlns:xlink="http://www.w3.org/1999/xlink" height="8.8px" width="3.55px" xmlns="http://www.w3.org/2000/svg">
  <g transform="matrix(1, 0, 0, 1, -8.65, -7.3)">
    <path d="M11.7 14.05 L10.35 16.0 Q9.7 16.3 8.9 15.8 8.55 15.5 8.7 14.65 L9.25 12.3 Q9.45 10.9 9.95 10.65 10.5 10.5 11.55 11.45 12.65 12.35 11.7 14.05" fill="#361610" fill-rule="evenodd" stroke="none"/>
    <path d="M10.6 13.8 L9.3 11.8 Q8.9 10.95 9.0 9.9 L9.05 7.9 Q8.9 6.95 10.0 7.45 11.0 7.85 11.7 9.6 12.55 11.3 12.0 13.2 11.5 15.1 10.6 13.8" fill="#361610" fill-rule="evenodd" stroke="none"/>
  </g>
</svg>
