<?xml version="1.0" encoding="UTF-8" standalone="no"?>
<svg xmlns:xlink="http://www.w3.org/1999/xlink" height="6.95px" width="5.6px" xmlns="http://www.w3.org/2000/svg">
  <g transform="matrix(1, 0, 0, 1, 7.6, 9.9)">
    <path d="M-7.1 -6.35 L-7.25 -8.0 -5.85 -8.85 Q-5.3 -8.6 -4.95 -7.75 L-4.85 -7.65 Q-4.4 -6.7 -4.4 -6.0 -4.3 -5.3 -5.25 -4.8 -6.25 -4.3 -6.5 -4.8 L-7.1 -6.35" fill="#361610" fill-rule="evenodd" stroke="none"/>
    <path d="M-7.25 -8.0 L-7.6 -8.9 -5.9 -9.9 -5.6 -8.9 -7.25 -8.0" fill="#55241a" fill-rule="evenodd" stroke="none"/>
    <path d="M-2.65 -3.0 Q-3.55 -2.85 -5.0 -3.45 -6.35 -4.1 -6.45 -5.05 -6.55 -6.0 -5.85 -6.25 L-4.15 -6.4 Q-3.05 -6.4 -2.5 -5.85 L-2.1 -4.55 Q-1.75 -3.1 -2.65 -3.0" fill="#361610" fill-rule="evenodd" stroke="none"/>
  </g>
</svg>
