<?xml version="1.0" encoding="UTF-8" standalone="no"?>
<svg xmlns:xlink="http://www.w3.org/1999/xlink" height="24.15px" width="10.85px" xmlns="http://www.w3.org/2000/svg">
  <g transform="matrix(1, 0, 0, 1, 4.75, 11.15)">
    <path d="M5.85 -8.65 L6.1 -7.05 Q6.1 -6.5 5.0 -6.4 3.95 -6.35 3.65 -7.0 L3.25 -8.65 3.25 -8.8 Q3.15 -9.7 3.5 -10.2 L5.15 -10.15 Q5.6 -9.7 5.85 -8.65" fill="#361610" fill-rule="evenodd" stroke="none"/>
    <path d="M5.15 -10.15 L3.25 -10.1 3.05 -11.15 5.0 -11.15 5.15 -10.15" fill="#55241a" fill-rule="evenodd" stroke="none"/>
    <path d="M3.65 -3.55 Q2.8 -3.2 2.4 -4.6 L2.1 -5.95 Q2.3 -6.7 3.25 -7.25 L4.85 -7.95 Q5.5 -8.1 5.95 -7.25 6.35 -6.35 5.45 -5.1 4.5 -3.9 3.65 -3.55" fill="#361610" fill-rule="evenodd" stroke="none"/>
    <path d="M2.6 -6.4 L3.1 -5.7 3.35 -5.25 3.3 -5.25 Q3.55 -4.35 3.05 -2.55 L2.7 -1.25 2.35 -1.0 2.35 -1.05 Q0.2 0.15 -1.35 0.05 -2.9 -0.1 -2.9 -0.55 L-3.5 -0.6 -3.05 -1.85 -3.05 -3.8 Q-3.15 -4.85 -2.75 -5.95 L-2.9 -6.0 -2.65 -6.4 -2.5 -6.35 -2.45 -6.4 -1.8 -6.75 Q0.3 -7.1 1.8 -6.8 L2.6 -6.4" fill="#55241a" fill-rule="evenodd" stroke="none"/>
    <path d="M2.85 -5.95 Q2.85 -5.45 2.05 -5.1 1.3 -4.75 0.25 -4.75 -0.9 -4.75 -1.7 -5.1 -2.4 -5.45 -2.4 -5.95 -2.4 -6.45 -1.7 -6.8 L0.25 -7.2 2.05 -6.8 Q2.85 -6.45 2.85 -5.95" fill="#361610" fill-rule="evenodd" stroke="none"/>
    <path d="M4.2 -6.4 L3.05 -5.9 2.55 -5.85 2.1 -5.95 2.35 -6.35 2.6 -6.65 3.85 -7.05 4.05 -7.0 4.25 -6.7 4.2 -6.4 M-1.9 -6.6 Q-1.85 -6.45 -2.15 -6.2 L-2.55 -5.9 -3.7 -5.45 Q-3.85 -5.45 -3.95 -5.6 L-4.05 -5.95 -3.95 -6.1 -2.7 -6.7 -2.35 -6.7 -1.9 -6.6" fill="#55241a" fill-rule="evenodd" stroke="none"/>
    <path d="M2.0 0.8 Q3.05 2.0 2.75 6.0 L2.6 8.15 0.45 7.85 Q0.25 7.65 -0.1 5.7 -0.75 2.55 -2.65 5.45 L-3.95 6.1 -3.95 6.2 Q-5.4 6.0 -4.15 2.45 -3.65 1.7 -3.7 1.35 -3.6 0.95 -2.95 0.5 -2.3 0.0 -0.85 -0.25 L0.85 -0.5 2.0 0.8" fill="#663f37" fill-rule="evenodd" stroke="none"/>
    <path d="M2.15 9.8 L1.55 10.85 Q1.1 11.2 0.3 10.85 -0.5 10.5 -0.1 9.35 L0.35 7.45 Q2.05 6.75 2.6 8.0 L2.15 9.8" fill="#663f37" fill-rule="evenodd" stroke="none"/>
    <path d="M1.75 10.85 L1.2 12.2 0.5 12.85 Q0.0 13.15 -0.65 12.85 -1.25 12.55 -0.75 11.5 L-0.2 10.2 Q1.2 9.65 1.75 10.85" fill="#0d0f0f" fill-rule="evenodd" stroke="none"/>
  </g>
</svg>
