<?xml version="1.0" encoding="UTF-8" standalone="no"?>
<svg xmlns:xlink="http://www.w3.org/1999/xlink" height="12.75px" width="7.15px" xmlns="http://www.w3.org/2000/svg">
  <g transform="matrix(1, 0, 0, 1, 4.55, 2.15)">
    <path d="M2.55 2.2 Q-0.6 0.75 -3.8 1.25 -3.85 0.0 -3.4 -1.0 -2.7 -2.45 -0.15 -2.1 2.4 -1.8 2.55 -0.25 L2.55 2.2" fill="#55241a" fill-rule="evenodd" stroke="none"/>
    <path d="M-1.95 7.0 Q-1.55 8.15 -2.25 8.5 L-3.45 8.55 Q-4.0 8.15 -4.2 7.45 L-4.55 5.65 Q-3.65 4.05 -2.45 5.15 L-1.95 7.0" fill="#663f37" fill-rule="evenodd" stroke="none"/>
    <path d="M-3.6 8.5 Q-3.1 7.25 -1.75 7.9 -1.55 8.15 -1.1 9.1 -0.6 10.1 -1.2 10.45 -1.8 10.8 -2.4 10.45 L-3.1 9.8 -3.6 8.5" fill="#0d0f0f" fill-rule="evenodd" stroke="none"/>
  </g>
</svg>
