<?xml version="1.0" encoding="UTF-8" standalone="no"?>
<svg xmlns:xlink="http://www.w3.org/1999/xlink" height="9.05px" width="13.2px" xmlns="http://www.w3.org/2000/svg">
  <g transform="matrix(1, 0, 0, 1, 0.0, -1.1)">
    <path d="M2.35 2.9 Q4.2 1.45 4.6 1.8 L5.95 2.3 Q6.05 2.85 5.35 3.7 4.45 4.55 3.35 6.15 2.2 7.7 1.65 7.65 1.1 7.55 0.8 5.95 0.45 4.35 2.35 2.9" fill="#755026" fill-rule="evenodd" stroke="none"/>
    <path d="M5.6 3.3 L4.5 1.95 5.6 1.1 6.65 2.45 5.6 3.3" fill="#5b3e1e" fill-rule="evenodd" stroke="none"/>
    <path d="M1.6 3.65 Q3.0 2.25 3.1 3.8 L3.25 6.25 Q3.15 7.15 2.55 8.0 L1.5 9.7 0.45 9.65 Q-0.2 8.75 0.05 6.9 0.2 5.0 1.6 3.65" fill="#755026" fill-rule="evenodd" stroke="none"/>
    <path d="M10.75 4.15 Q11.3 4.3 12.25 5.05 13.05 5.8 13.2 6.6 13.3 7.35 12.4 7.9 L11.4 8.55 10.5 7.65 Q9.75 6.65 9.4 5.35 L10.75 4.15" fill="#755026" fill-rule="evenodd" stroke="none"/>
    <path d="M9.45 5.3 L8.75 4.5 10.15 3.3 10.85 4.15 9.45 5.3" fill="#5b3e1e" fill-rule="evenodd" stroke="none"/>
  </g>
</svg>
