<?xml version="1.0" encoding="UTF-8" standalone="no"?>
<svg xmlns:xlink="http://www.w3.org/1999/xlink" height="11.75px" width="23.1px" xmlns="http://www.w3.org/2000/svg">
  <g transform="matrix(1, 0, 0, 1, -14.65, 6.25)">
    <path d="M26.1 -5.7 Q21.75 -5.65 18.75 -4.1 15.75 -2.45 15.8 -0.25 15.85 1.95 19.0 3.45 22.2 5.0 26.5 4.95 30.8 4.9 33.8 3.3 36.85 1.75 36.75 -0.5 36.7 -2.65 33.55 -4.2 30.4 -5.75 26.1 -5.7 M26.0 -6.25 Q30.75 -6.3 34.2 -4.6 37.7 -2.9 37.75 -0.5 37.85 1.95 34.5 3.7 31.2 5.45 26.45 5.5 21.7 5.55 18.2 3.85 14.75 2.2 14.65 -0.25 14.6 -2.65 17.9 -4.45 21.25 -6.2 26.0 -6.25" fill="#ff99cc" fill-rule="evenodd" stroke="none"/>
    <path d="M26.1 -5.7 Q30.4 -5.75 33.55 -4.2 36.7 -2.65 36.75 -0.5 36.85 1.75 33.8 3.3 30.8 4.9 26.5 4.95 22.2 5.0 19.0 3.45 15.85 1.95 15.8 -0.25 15.75 -2.45 18.75 -4.1 21.75 -5.65 26.1 -5.7" fill="#c4e9f4" fill-rule="evenodd" stroke="none"/>
    <path d="M26.0 4.15 L25.85 4.05 25.35 4.05 24.95 4.2 25.1 4.45 25.8 4.45 26.0 4.15 M25.65 3.75 L27.1 4.05 26.4 4.7 25.55 4.75 24.55 4.5 24.35 4.6 24.1 4.5 24.0 4.4 24.15 4.2 24.05 4.2 Q23.35 4.4 22.8 4.0 22.75 4.0 22.65 4.1 L22.4 3.9 Q22.9 3.4 23.45 3.4 24.55 3.4 24.7 3.9 L25.65 3.75 M25.45 2.55 L25.5 2.35 25.4 2.3 25.0 2.25 25.2 2.55 25.45 2.55 M26.35 0.4 L26.3 0.5 25.6 0.65 25.55 0.75 25.05 1.0 24.6 1.1 Q23.5 1.1 23.7 0.7 24.0 0.35 25.05 0.35 L25.4 0.4 26.05 0.25 26.35 0.4 M31.2 1.55 L30.55 1.7 29.7 1.6 29.7 2.1 30.35 2.4 31.15 2.6 31.55 2.45 31.95 2.15 31.95 1.65 31.6 1.35 31.2 1.55 M30.6 1.45 Q30.95 1.45 31.0 1.25 L30.7 1.15 30.15 1.25 30.1 1.25 Q30.25 1.45 30.6 1.45 M33.35 -1.75 L32.95 -1.75 33.35 -1.7 33.35 -1.75 M29.4 -0.15 L29.4 -0.5 30.4 -1.1 28.1 -1.2 25.0 -0.65 Q22.0 0.2 22.0 1.7 22.0 2.6 23.75 2.85 L25.55 3.0 26.95 2.85 Q28.35 2.5 28.35 2.15 28.35 1.35 27.1 1.35 24.95 1.3 24.95 2.1 L25.35 2.0 Q25.8 2.0 26.05 2.3 L26.05 2.65 25.5 2.8 24.9 2.75 Q24.5 2.7 24.35 2.15 L24.35 1.65 Q24.75 1.25 25.6 1.1 L27.1 1.0 28.1 1.2 Q28.95 1.55 28.95 2.15 28.95 2.8 27.35 3.1 L25.6 3.3 23.25 3.15 22.9 3.4 22.3 3.6 21.9 3.35 22.45 3.1 22.3 3.0 22.4 2.9 Q20.75 2.35 21.7 0.9 23.25 -1.5 28.15 -1.5 L30.8 -1.3 32.2 -1.6 Q32.25 -2.0 32.65 -2.05 L33.1 -2.05 34.4 -1.75 35.05 -1.75 Q35.6 -1.75 35.6 -1.4 35.6 -0.9 35.1 -0.9 L34.6 -1.2 Q34.45 -1.5 34.0 -1.5 L33.55 -1.45 33.85 -1.25 33.8 -1.1 33.45 -1.1 32.65 -1.4 31.45 -1.15 Q33.1 -0.8 34.1 0.0 L34.1 0.35 33.8 0.55 33.5 0.35 33.5 -0.05 30.95 -1.0 30.4 -0.65 29.8 0.35 29.8 0.95 30.15 0.95 31.15 0.75 Q32.8 1.2 32.6 2.1 L31.85 2.7 31.1 2.9 30.05 2.65 Q29.1 2.25 29.1 1.55 L29.45 1.2 29.3 1.05 29.25 0.75 29.4 -0.15 M29.25 -2.6 L29.55 -2.75 30.2 -2.55 30.5 -2.6 Q30.65 -2.6 30.65 -2.95 30.65 -3.25 30.0 -3.25 L27.75 -2.75 Q27.8 -2.3 28.35 -2.1 L29.1 -1.85 Q29.05 -1.7 28.65 -1.7 28.1 -1.7 27.5 -2.2 26.9 -2.75 27.6 -3.1 L29.9 -3.55 Q31.0 -3.55 31.2 -3.05 31.25 -2.45 30.75 -2.3 L30.15 -2.25 Q29.4 -2.25 29.25 -2.6 M24.65 -2.1 L24.6 -2.15 24.45 -2.15 24.5 -1.95 24.65 -1.95 24.65 -2.1 M21.7 -2.4 Q21.85 -2.15 22.2 -2.1 L22.95 -2.35 Q22.8 -2.4 22.75 -2.6 L22.8 -2.65 25.4 -3.15 25.4 -3.4 25.35 -3.45 23.55 -3.1 22.55 -2.7 21.7 -2.4 M23.6 -4.2 L23.05 -4.45 21.85 -4.2 21.25 -3.95 Q20.9 -3.7 21.25 -2.85 L22.6 -3.45 Q23.6 -3.85 23.6 -4.2 M24.15 -4.1 L23.75 -3.65 23.3 -3.4 23.4 -3.4 25.3 -3.7 Q26.0 -3.7 26.0 -3.3 26.0 -2.7 24.6 -2.5 L24.4 -2.45 Q25.25 -2.5 25.25 -2.0 25.25 -1.6 24.15 -1.6 L23.7 -1.6 Q23.5 -1.7 23.45 -2.1 L22.95 -1.95 22.9 -1.95 22.45 -1.75 22.4 -1.55 22.45 -1.5 23.65 -1.25 24.05 -1.4 24.4 -1.15 Q24.3 -0.95 23.7 -0.95 21.65 -0.95 21.85 -1.65 L21.95 -1.85 Q21.45 -2.1 20.65 -2.7 L20.5 -3.75 21.65 -4.35 23.1 -4.7 Q24.15 -4.9 24.15 -4.1 M20.0 -1.9 Q19.15 -1.9 18.8 -1.45 L19.9 -1.25 20.65 -1.35 20.9 -1.1 20.7 -0.85 20.4 -0.75 20.45 -0.7 21.25 -0.7 21.6 -0.95 21.9 -0.7 20.8 -0.45 19.8 -0.5 19.75 -0.7 19.85 -0.95 Q17.7 -1.35 18.35 -1.75 18.9 -2.2 20.0 -2.2 21.65 -2.3 21.65 -1.8 L21.5 -1.55 21.2 -1.55 Q20.9 -1.55 20.75 -1.75 L20.9 -1.85 20.0 -1.9" fill="#be2962" fill-rule="evenodd" stroke="none"/>
    <path d="M20.3 -1.3 L20.45 -1.2 20.25 -1.1 20.0 -1.2 19.75 -0.8 19.75 -0.75 19.8 -0.65 19.75 -0.55 19.5 -0.5 Q18.55 -0.5 18.55 -0.95 18.6 -1.45 19.85 -1.45 L20.3 -1.3 M19.9 0.1 L20.1 0.2 19.75 0.4 19.75 0.6 19.8 0.6 20.0 0.75 19.95 0.8 19.5 0.9 18.85 0.65 18.85 0.4 19.25 0.2 19.55 0.1 19.65 0.15 19.9 0.1 M21.0 1.2 L21.0 1.15 21.25 1.1 21.6 1.15 22.2 0.95 22.55 0.7 23.0 0.75 23.1 0.75 23.15 0.8 23.25 0.9 23.35 1.05 22.9 1.35 22.25 1.55 Q21.25 1.55 21.0 1.2 M24.6 -0.95 L24.45 -1.05 24.1 -1.25 23.4 -1.3 22.3 -1.05 21.75 -0.85 21.6 -0.8 Q21.45 -0.8 21.45 -1.0 L21.45 -1.05 21.5 -1.1 21.35 -1.2 21.5 -1.35 21.9 -1.8 22.5 -2.0 23.15 -1.75 24.0 -1.9 24.4 -1.9 24.85 -1.4 25.1 -1.2 25.1 -1.1 24.65 -0.95 24.6 -0.95 M20.25 -0.2 L20.25 -0.45 20.7 -0.55 21.2 -0.4 Q21.45 -0.25 21.55 -0.25 L22.2 -0.45 22.95 -0.7 Q23.65 -0.65 23.65 -0.25 L23.0 0.15 22.25 0.25 21.8 0.2 21.55 0.45 20.95 0.65 20.2 0.4 20.2 -0.05 20.3 -0.15 20.25 -0.2" fill="#ff99cc" fill-rule="evenodd" stroke="none"/>
    <path d="M19.75 -0.55 L19.8 -0.65 19.75 -0.75 19.75 -0.8 20.0 -1.2 20.25 -1.1 20.45 -1.2 20.3 -1.3 20.85 -1.35 21.25 -1.25 21.45 -1.0 Q21.45 -0.8 21.6 -0.8 L21.75 -0.85 22.3 -1.05 23.4 -1.3 24.1 -1.25 24.45 -1.05 24.6 -0.95 24.7 -0.55 Q24.7 -0.2 24.5 -0.1 L24.1 0.0 24.35 0.25 Q24.35 0.8 23.2 0.8 L23.15 0.8 23.1 0.75 23.0 0.75 22.55 0.7 22.2 0.95 21.6 1.15 21.25 1.1 21.0 1.15 21.0 1.2 20.6 1.1 20.0 0.75 19.8 0.6 19.75 0.6 19.75 0.4 20.1 0.2 19.9 0.1 19.9 0.0 19.8 -0.05 19.85 -0.3 20.0 -0.4 19.8 -0.45 19.75 -0.55 M20.25 -0.2 L20.3 -0.15 20.2 -0.05 20.2 0.4 20.95 0.65 21.55 0.45 21.8 0.2 22.25 0.25 23.0 0.15 23.65 -0.25 Q23.65 -0.65 22.95 -0.7 L22.2 -0.45 21.55 -0.25 Q21.45 -0.25 21.2 -0.4 L20.7 -0.55 20.25 -0.45 20.25 -0.2" fill="#ff6666" fill-rule="evenodd" stroke="none"/>
    <path d="M28.25 0.4 L28.3 0.4 28.5 0.25 28.45 0.2 28.85 0.1 29.25 0.25 29.4 0.05 29.55 0.05 29.7 -0.05 30.1 -0.15 30.25 -0.1 30.35 -0.25 30.5 -0.35 30.7 -0.35 30.8 -0.45 30.85 -0.45 31.65 -0.45 31.55 -0.25 31.65 -0.15 31.75 -0.2 31.85 -0.35 32.05 0.05 32.0 0.35 Q31.7 0.5 31.55 0.6 31.25 0.7 31.25 0.8 L31.35 0.85 31.85 1.15 32.4 1.75 32.45 2.25 32.2 2.55 32.0 2.75 31.35 3.0 30.5 3.05 30.3 2.8 30.25 2.9 29.9 3.15 Q29.0 3.4 28.8 2.6 L28.8 2.55 28.8 2.15 28.3 2.0 27.85 1.7 27.95 1.4 27.75 1.3 27.7 1.3 27.75 1.0 28.25 0.4 M30.65 0.3 L30.35 0.05 29.95 0.15 29.85 0.2 29.75 0.2 28.95 0.4 28.65 1.0 Q28.7 1.3 29.1 1.35 L29.55 1.4 29.5 1.7 29.85 2.2 30.65 2.4 Q31.35 2.2 31.3 1.75 L30.75 1.35 30.3 1.05 30.5 0.7 30.65 0.3" fill="#ff6666" fill-rule="evenodd" stroke="none"/>
    <path d="M28.25 0.4 L28.2 0.45 28.0 0.15 Q27.9 -0.1 28.3 -0.4 L28.65 -0.5 29.1 -0.35 29.35 -0.2 29.25 -0.05 29.4 0.05 29.25 0.25 28.85 0.1 28.45 0.2 28.5 0.25 28.3 0.4 28.25 0.4 M30.5 -0.35 L30.4 -0.5 Q30.2 -1.15 30.95 -1.35 31.8 -1.5 32.05 -0.65 L31.85 -0.35 31.75 -0.2 31.65 -0.15 31.55 -0.25 31.65 -0.45 30.85 -0.45 30.8 -0.45 30.7 -0.35 30.5 -0.35 M31.55 0.6 L31.65 0.6 31.8 0.55 31.85 0.45 32.2 0.45 33.0 0.55 33.5 0.85 33.15 1.35 33.6 1.9 33.65 2.15 32.9 2.65 32.6 2.95 32.4 2.95 32.0 2.75 32.2 2.55 32.45 2.25 32.4 1.75 31.85 1.15 31.35 0.85 31.25 0.8 Q31.25 0.7 31.55 0.6 M28.8 2.55 L28.65 2.65 28.35 2.8 27.8 2.65 Q27.35 2.5 27.3 2.35 27.15 1.65 27.7 1.3 L27.75 1.3 27.95 1.4 27.85 1.7 28.3 2.0 28.8 2.15 28.8 2.55 M30.65 0.3 L30.5 0.7 30.3 1.05 30.75 1.35 31.3 1.75 Q31.35 2.2 30.65 2.4 L29.85 2.2 29.5 1.7 29.55 1.4 29.1 1.35 Q28.7 1.3 28.65 1.0 L28.95 0.4 29.75 0.2 29.85 0.2 29.95 0.15 30.35 0.05 30.65 0.3" fill="#ff99cc" fill-rule="evenodd" stroke="none"/>
  </g>
</svg>
