<?xml version="1.0" encoding="UTF-8" standalone="no"?>
<svg xmlns:xlink="http://www.w3.org/1999/xlink" height="12.3px" width="10.7px" xmlns="http://www.w3.org/2000/svg">
  <g transform="matrix(1, 0, 0, 1, 0.0, 1.1)">
    <path d="M9.15 1.75 Q10.4 3.45 10.65 5.85 10.9 8.25 9.25 9.75 7.6 11.2 5.35 11.2 3.1 11.2 1.5 9.75 -0.15 8.25 0.0 5.9 0.1 3.55 1.5 1.75 2.85 -0.05 5.4 0.0 7.9 0.05 9.15 1.75" fill="url(#gradient0)" fill-rule="evenodd" stroke="none"/>
    <path d="M6.35 -0.1 L5.65 2.4 5.65 2.45 6.7 -0.15 Q7.05 0.05 7.05 0.35 L6.6 2.6 6.0 4.85 6.4 5.0 7.75 1.35 8.1 1.7 7.65 3.3 7.95 3.7 7.35 5.6 Q6.65 7.35 6.1 7.35 L5.8 7.3 Q5.8 6.8 5.95 6.35 5.45 6.3 5.0 5.85 4.9 6.6 4.4 6.95 4.15 6.55 4.2 5.95 L4.3 4.8 4.05 4.65 3.75 5.55 3.6 5.6 3.3 5.55 3.3 4.75 Q4.3 -1.0 5.65 -1.1 L5.7 -0.85 5.25 -0.2 5.85 -0.35 6.0 -0.5 6.3 -0.45 6.35 -0.1 M5.6 4.3 L5.65 4.0 5.5 4.25 5.6 4.3 M5.0 0.75 L5.25 -0.05 4.95 0.7 5.0 0.75 M4.55 1.8 L4.65 1.45 4.6 1.5 4.55 1.8" fill="#3a2822" fill-rule="evenodd" stroke="none"/>
    <path d="M2.9 2.9 L3.2 2.95 3.25 3.3 2.55 5.8 2.55 5.85 3.6 3.25 3.95 3.75 3.5 6.0 2.9 8.25 3.3 8.4 4.65 4.75 5.0 5.1 4.55 6.7 4.85 7.1 4.25 9.0 Q3.55 10.75 3.0 10.75 L2.7 10.7 Q2.7 10.2 2.85 9.75 2.35 9.7 1.9 9.25 1.8 10.0 1.3 10.35 1.05 9.95 1.1 9.35 L1.2 8.2 0.95 8.05 0.65 8.95 0.5 9.0 0.2 8.95 0.2 8.15 Q1.2 2.4 2.55 2.3 L2.6 2.55 2.15 3.2 2.75 3.05 2.9 2.9 M1.45 5.2 L1.55 4.85 1.5 4.9 1.45 5.2 M2.15 3.35 L1.85 4.1 1.9 4.15 2.15 3.35 M2.5 7.7 L2.55 7.4 2.4 7.65 2.5 7.7" fill="#3a2822" fill-rule="evenodd" stroke="none"/>
    <path d="M7.4 3.0 L6.95 3.65 7.55 3.5 7.7 3.35 8.0 3.4 8.05 3.75 7.35 6.25 7.35 6.3 8.4 3.7 Q8.75 3.9 8.75 4.2 L8.3 6.45 7.7 8.7 8.1 8.85 9.45 5.2 9.8 5.55 9.35 7.15 9.65 7.55 9.05 9.45 Q8.35 11.2 7.8 11.2 L7.5 11.15 Q7.5 10.65 7.65 10.2 7.15 10.15 6.7 9.7 6.6 10.45 6.1 10.8 5.85 10.4 5.9 9.8 L6.0 8.65 5.75 8.5 5.45 9.4 5.3 9.45 5.0 9.4 5.0 8.6 Q6.0 2.85 7.35 2.75 L7.4 3.0 M6.95 3.8 L6.65 4.55 6.7 4.6 6.95 3.8 M6.35 5.3 L6.3 5.35 6.25 5.65 6.35 5.3 M7.2 8.1 L7.3 8.15 7.35 7.85 7.2 8.1" fill="#3a2822" fill-rule="evenodd" stroke="none"/>
  </g>
  <defs>
    <radialGradient cx="0" cy="0" gradientTransform="matrix(0.0074, 0.0, 0.0, 0.0074, 5.35, 5.6)" gradientUnits="userSpaceOnUse" id="gradient0" r="819.2" spreadMethod="pad">
      <stop offset="0.0" stop-color="#6f564d"/>
      <stop offset="0.807843137254902" stop-color="#2d1d17"/>
      <stop offset="1.0" stop-color="#6f564d"/>
    </radialGradient>
  </defs>
</svg>
