<?xml version="1.0" encoding="UTF-8" standalone="no"?>
<svg xmlns:xlink="http://www.w3.org/1999/xlink" height="11.2px" width="12.2px" xmlns="http://www.w3.org/2000/svg">
  <g transform="matrix(1, 0, 0, 1, 5.6, 9.55)">
    <path d="M3.75 -7.05 L3.75 -7.2 Q3.65 -8.1 4.0 -8.6 L5.65 -8.55 Q6.1 -8.1 6.35 -7.05 L6.6 -5.45 Q6.6 -4.9 5.5 -4.8 4.45 -4.75 4.15 -5.4 L3.75 -7.05" fill="#755026" fill-rule="evenodd" stroke="none"/>
    <path d="M5.65 -8.55 L3.75 -8.5 3.55 -9.55 5.5 -9.55 5.65 -8.55" fill="#666633" fill-rule="evenodd" stroke="none"/>
    <path d="M3.75 -5.65 Q4.7 -6.2 5.35 -6.35 6.0 -6.5 6.45 -5.65 6.85 -4.75 5.95 -3.5 5.0 -2.3 4.15 -1.95 3.3 -1.6 2.9 -3.0 L2.6 -4.35 Q2.8 -5.1 3.75 -5.65" fill="#755026" fill-rule="evenodd" stroke="none"/>
    <path d="M-5.55 -1.65 Q-5.8 -2.6 -4.4 -3.5 -3.05 -4.45 -2.0 -4.65 -0.95 -4.8 -1.55 -3.45 L-2.0 -2.4 -2.95 -1.75 Q-3.95 -0.9 -4.6 -0.8 -5.25 -0.7 -5.55 -1.65" fill="#755026" fill-rule="evenodd" stroke="none"/>
    <path d="M3.85 -3.65 L3.8 -3.65 Q4.05 -2.75 3.55 -0.95 L3.2 0.35 2.85 0.6 2.85 0.55 Q0.7 1.75 -0.85 1.65 -2.4 1.5 -2.4 1.05 L-3.0 1.0 -2.55 -0.25 -2.55 -2.2 Q-2.65 -3.25 -2.25 -4.35 L-2.4 -4.4 -2.15 -4.8 -2.0 -4.75 -1.95 -4.8 -1.3 -5.15 Q0.8 -5.5 2.3 -5.2 L3.1 -4.8 3.6 -4.1 3.85 -3.65" fill="#755026" fill-rule="evenodd" stroke="none"/>
  </g>
</svg>
