<?xml version="1.0" encoding="UTF-8" standalone="no"?>
<svg xmlns:xlink="http://www.w3.org/1999/xlink" height="20.15px" width="10.4px" xmlns="http://www.w3.org/2000/svg">
  <g transform="matrix(1, 0, 0, 1, 5.65, 5.6)">
    <path d="M-3.4 -0.65 L-3.4 -0.5 Q-3.3 0.2 -3.6 0.6 L-4.9 0.55 Q-5.3 0.2 -5.5 -0.65 L-5.65 -1.85 Q-5.65 -2.25 -4.8 -2.35 -3.95 -2.4 -3.7 -1.9 L-3.4 -0.65" fill="#755026" fill-rule="evenodd" stroke="none"/>
    <path d="M-3.35 0.5 L-3.25 1.3 -4.8 1.35 -4.95 0.55 -3.35 0.5" fill="#666633" fill-rule="evenodd" stroke="none"/>
    <path d="M3.35 -4.35 Q3.35 -3.85 2.55 -3.5 L0.75 -3.15 Q-0.4 -3.15 -1.2 -3.5 -1.9 -3.85 -1.9 -4.35 -1.9 -4.85 -1.2 -5.2 L0.75 -5.6 Q1.8 -5.6 2.55 -5.2 3.35 -4.85 3.35 -4.35" fill="#a77236" fill-rule="evenodd" stroke="none"/>
    <path d="M4.55 -5.4 L4.75 -5.1 4.7 -4.8 3.55 -4.3 3.05 -4.25 2.6 -4.35 2.85 -4.75 3.1 -5.05 4.35 -5.45 4.55 -5.4 M-1.6 -4.6 Q-1.55 -4.45 -1.85 -4.2 L-2.25 -3.9 -3.4 -3.45 -3.65 -3.6 -3.75 -3.95 -3.65 -4.1 -2.4 -4.7 -2.05 -4.7 -1.6 -4.6" fill="#3f6437" fill-rule="evenodd" stroke="none"/>
    <path d="M2.45 1.6 L3.2 3.2 Q3.9 4.6 2.6 8.4 L1.85 10.4 -0.15 9.6 -0.1 7.35 Q0.1 4.15 -2.45 6.5 L-3.9 6.75 -3.9 6.85 Q-5.25 6.3 -3.15 3.2 L-2.4 2.25 -1.5 1.6 0.75 1.4 2.45 1.6" fill="#101b3a" fill-rule="evenodd" stroke="none"/>
    <path d="M1.05 11.9 L0.15 12.75 Q-0.35 13.0 -1.05 12.45 -1.7 11.9 -1.0 10.9 L-0.1 9.2 Q1.7 8.9 1.9 10.25 L1.05 11.9" fill="#101b3a" fill-rule="evenodd" stroke="none"/>
    <path d="M-2.45 14.15 Q-2.95 13.7 -2.25 12.85 L-1.35 11.75 Q0.15 11.55 0.35 12.85 L-0.55 14.0 Q-0.75 14.3 -1.35 14.5 -1.95 14.65 -2.45 14.15" fill="#0d0f0f" fill-rule="evenodd" stroke="none"/>
  </g>
</svg>
