<?xml version="1.0" encoding="UTF-8" standalone="no"?>
<svg xmlns:xlink="http://www.w3.org/1999/xlink" height="12.3px" width="7.6px" xmlns="http://www.w3.org/2000/svg">
  <g transform="matrix(1, 0, 0, 1, 4.5, 0.55)">
    <path d="M3.05 3.8 Q-0.1 2.35 -3.3 2.85 -3.35 1.6 -2.9 0.6 -2.2 -0.85 0.35 -0.5 2.9 -0.2 3.05 1.35 L3.05 3.8" fill="#755026" fill-rule="evenodd" stroke="none"/>
    <path d="M-4.1 9.25 Q-4.5 8.7 -4.5 8.0 L-4.4 6.2 -2.2 6.25 -2.2 8.15 Q-2.1 9.4 -2.9 9.55 -3.75 9.7 -4.1 9.25" fill="#101b3a" fill-rule="evenodd" stroke="none"/>
    <path d="M-1.95 10.45 Q-1.75 11.55 -2.4 11.7 -3.1 11.9 -3.55 11.4 L-4.05 10.6 -4.2 9.2 Q-3.4 8.1 -2.25 9.1 L-1.95 10.45" fill="#0d0f0f" fill-rule="evenodd" stroke="none"/>
  </g>
</svg>
