<?xml version="1.0" encoding="UTF-8" standalone="no"?>
<svg xmlns:xlink="http://www.w3.org/1999/xlink" height="4.45px" width="4.65px" xmlns="http://www.w3.org/2000/svg">
  <g transform="matrix(1, 0, 0, 1, 0.0, 0.0)">
    <path d="M2.3 0.6 Q2.3 1.1 1.9 1.6 L1.75 1.8 Q2.15 2.05 2.4 3.45 L2.05 3.75 2.0 3.75 1.9 3.75 1.1 3.5 0.7 3.2 0.45 3.25 Q0.05 3.25 0.0 2.9 L0.0 2.45 Q0.0 2.05 0.15 1.6 0.35 1.0 0.7 1.0 L0.95 0.8 1.15 0.55 1.55 0.15 Q1.6 0.0 1.9 0.0 2.3 0.0 2.3 0.6" fill="#996633" fill-rule="evenodd" stroke="none"/>
    <path d="M2.25 2.4 L2.3 2.4 2.95 2.6 Q3.55 2.7 3.65 3.1 3.7 3.5 2.75 4.45 2.0 4.45 1.2 3.9 0.45 3.4 0.45 3.05 0.45 2.55 0.7 2.55 L0.65 2.5 1.05 2.45 2.05 2.4 2.25 2.4" fill="#996633" fill-rule="evenodd" stroke="none"/>
    <path d="M3.15 0.75 Q3.5 0.45 3.65 1.1 L3.65 1.45 Q4.1 0.95 4.3 1.55 L4.3 1.9 Q4.55 1.8 4.65 2.1 L4.4 2.65 3.85 3.1 Q3.65 3.15 3.55 3.0 L3.55 2.9 3.15 2.65 3.15 2.4 3.05 2.4 Q2.6 2.55 2.45 2.1 L2.45 1.95 2.35 1.95 2.0 1.9 2.0 1.8 2.15 1.1 2.75 0.4 Q3.0 0.3 3.1 0.65 L3.15 0.75" fill="#b6793d" fill-rule="evenodd" stroke="none"/>
  </g>
</svg>
