<?xml version="1.0" encoding="UTF-8" standalone="no"?>
<svg xmlns:xlink="http://www.w3.org/1999/xlink" height="12.05px" width="11.55px" xmlns="http://www.w3.org/2000/svg">
  <g transform="matrix(1, 0, 0, 1, -21.9, 6.1)">
    <path d="M33.0 5.6 L32.8 5.65 32.8 -5.95 33.0 -5.9 33.0 5.6 M32.25 5.7 L32.05 5.75 32.05 -6.0 32.25 -6.0 32.25 5.7 M31.55 5.8 L31.4 5.8 31.4 -6.05 31.55 -6.05 31.55 5.8 M30.5 5.65 L30.4 5.65 30.4 -5.9 30.5 -5.9 30.5 5.65" fill="#7c542c" fill-rule="evenodd" stroke="none"/>
    <path d="M33.0 -5.9 L33.45 -5.85 33.45 5.55 33.0 5.6 33.0 -5.9 M32.8 5.65 L32.25 5.7 32.25 -6.0 32.8 -5.95 32.8 5.65 M32.05 5.75 L31.55 5.8 31.55 -6.05 32.05 -6.0 32.05 5.75" fill="#663300" fill-rule="evenodd" stroke="none"/>
    <path d="M31.4 5.8 L30.5 5.65 30.5 -5.9 31.4 -6.05 31.4 5.8" fill="#cb9b6b" fill-rule="evenodd" stroke="none"/>
    <path d="M22.35 5.65 L21.9 5.6 21.9 -5.8 22.35 -5.85 22.35 5.65 M22.55 -5.9 L23.1 -5.95 23.1 5.75 22.55 5.7 22.55 -5.9 M23.3 -5.95 L23.8 -6.0 23.8 5.85 23.3 5.8 23.3 -5.95" fill="#663300" fill-rule="evenodd" stroke="none"/>
    <path d="M22.35 5.65 L22.35 -5.85 22.55 -5.9 22.55 5.7 22.35 5.65 M23.1 -5.95 L23.3 -5.95 23.3 5.8 23.1 5.75 23.1 -5.95 M23.8 -6.0 L23.95 -6.0 23.95 5.85 23.8 5.85 23.8 -6.0 M24.85 -5.85 L24.95 -5.85 24.95 5.7 24.85 5.7 24.85 -5.85" fill="#7c542c" fill-rule="evenodd" stroke="none"/>
    <path d="M23.95 -6.0 L24.85 -5.85 24.85 5.7 23.95 5.85 23.95 -6.0" fill="#cb9b6b" fill-rule="evenodd" stroke="none"/>
    <path d="M24.9 -6.1 L25.3 -6.1 25.3 5.95 24.9 5.95 24.9 -6.1 M27.4 -6.1 L27.85 -6.1 27.85 5.95 27.4 5.95 27.4 -6.1 M30.05 -6.1 L30.4 -6.1 30.4 5.95 30.05 5.95 30.05 5.6 30.05 -5.6 30.05 -6.1" fill="#663300" fill-rule="evenodd" stroke="none"/>
    <path d="M23.35 -5.6 L24.75 -5.6 24.75 5.6 23.35 5.6 23.35 -5.6 M30.05 5.6 L28.2 5.6 28.2 -5.6 30.05 -5.6 30.05 5.6 M30.6 -5.6 L32.1 -5.6 32.1 5.6 30.6 5.6 30.6 -5.6 M25.35 -5.6 L27.3 -5.6 27.3 5.6 25.35 5.6 25.35 -5.6" fill="#cb9b6b" fill-rule="evenodd" stroke="none"/>
    <path d="M24.9 -6.1 L24.9 5.95 22.9 5.95 22.9 -6.1 24.9 -6.1 M25.3 5.95 L25.3 -6.1 27.4 -6.1 27.4 5.95 25.3 5.95 M27.85 -6.1 L30.05 -6.1 30.05 -5.6 28.2 -5.6 28.2 5.6 30.05 5.6 30.05 5.95 27.85 5.95 27.85 -6.1 M30.4 -6.1 L32.45 -6.05 32.45 5.9 32.1 5.9 31.9 5.95 30.4 5.95 30.4 -6.1 M23.35 -5.6 L23.35 5.6 24.75 5.6 24.75 -5.6 23.35 -5.6 M25.35 -5.6 L25.35 5.6 27.3 5.6 27.3 -5.6 25.35 -5.6 M30.6 -5.6 L30.6 5.6 32.1 5.6 32.1 -5.6 30.6 -5.6" fill="#7c542c" fill-rule="evenodd" stroke="none"/>
    <path d="M32.0 5.0 L23.4 5.0 23.4 4.15 32.0 4.15 32.0 5.0" fill="#2e231b" fill-rule="evenodd" stroke="none"/>
    <path d="M32.0 -4.15 L23.4 -4.15 23.4 -5.0 32.0 -5.0 32.0 -4.15" fill="#2e231b" fill-rule="evenodd" stroke="none"/>
  </g>
</svg>
