<?xml version="1.0" encoding="UTF-8" standalone="no"?>
<svg xmlns:xlink="http://www.w3.org/1999/xlink" height="58.2px" width="25.8px" xmlns="http://www.w3.org/2000/svg">
  <g transform="matrix(1, 0, 0, 1, 3.1, 3.25)">
    <path d="M16.95 -0.9 L16.95 -2.85 17.95 -2.85 Q19.4 -2.85 19.95 -1.9 L19.35 -0.9 16.95 -0.9 M3.0 -2.85 L3.0 -0.9 -0.2 -0.9 -0.6 -2.2 Q-0.1 -2.85 1.1 -2.85 L3.0 -2.85" fill="#775006" fill-rule="evenodd" stroke="none"/>
    <path d="M16.95 -0.9 L10.95 -0.9 10.25 7.55 9.65 -0.9 3.0 -0.9 3.0 -2.85 16.95 -2.85 16.95 -0.9 M-0.2 -0.9 L-0.2 53.4 -1.05 53.4 -1.15 52.45 -1.15 -0.65 Q-1.15 -1.7 -0.6 -2.2 L-0.2 -0.9 M2.4 53.4 L1.7 34.65 3.0 33.45 2.75 53.4 2.4 53.4 M9.6 54.15 L9.2 35.2 10.4 35.2 9.8 53.4 9.6 54.15 M16.0 53.4 L15.5 32.95 16.95 34.5 16.1 53.4 16.0 53.4 M19.3 53.4 L19.35 -0.9 19.95 -1.9 20.2 -0.65 20.2 52.45 20.05 53.4 19.3 53.4" fill="#ae7409" fill-rule="evenodd" stroke="none"/>
    <path d="M3.0 -0.9 L9.65 -0.9 10.25 7.55 10.95 -0.9 16.95 -0.9 19.35 -0.9 19.3 53.4 16.1 53.4 16.95 34.5 15.5 32.95 16.0 53.4 9.8 53.4 10.4 35.2 9.2 35.2 9.6 54.15 2.75 53.4 3.0 33.45 1.7 34.65 2.4 53.4 -0.2 53.4 -0.2 -0.9 3.0 -0.9" fill="#eca412" fill-rule="evenodd" stroke="none"/>
    <path d="M20.25 53.4 L20.65 53.7 Q20.85 53.85 20.55 54.2 20.25 54.5 19.65 54.65 L17.25 54.65 13.05 54.65 6.2 54.65 1.1 54.65 -0.45 54.65 -1.15 54.3 -1.5 54.05 -1.55 53.8 -1.55 53.7 Q-1.7 52.8 -0.65 53.4 L-0.25 54.15 1.1 54.15 1.1 54.1 6.2 54.1 6.2 54.15 13.05 54.1 13.05 54.05 17.25 54.05 17.25 54.1 19.6 54.1 19.65 53.95 20.25 53.4" fill="#999999" fill-rule="evenodd" stroke="none"/>
    <path d="M19.65 54.65 L19.55 54.7 18.95 54.95 18.4 54.95 17.25 54.95 17.25 54.65 19.65 54.65 M13.05 54.65 L13.05 54.85 6.2 54.85 6.2 54.65 13.05 54.65 M1.1 54.65 L1.1 54.85 0.5 54.85 0.05 54.85 -0.25 54.7 -0.45 54.65 1.1 54.65" fill="#333333" fill-rule="evenodd" stroke="none"/>
    <path d="M-0.65 53.4 L20.25 53.4 19.65 53.95 19.6 54.1 17.25 54.1 17.25 54.05 13.05 54.05 13.05 54.1 6.2 54.15 6.2 54.1 1.1 54.1 1.1 54.15 -0.25 54.15 -0.65 53.4" fill="#ffffff" fill-rule="evenodd" stroke="none"/>
    <path d="M-0.15 -1.7 L0.2 -2.45 1.5 -2.45 1.5 -2.4 6.35 -2.4 6.35 -2.45 12.85 -2.4 12.85 -2.35 16.8 -2.35 16.8 -2.4 19.05 -2.4 19.1 -2.25 19.65 -1.7 -0.15 -1.7" fill="#ffffff" fill-rule="evenodd" stroke="none"/>
    <path d="M19.65 -1.7 L19.1 -2.25 19.05 -2.4 16.8 -2.4 16.8 -2.35 12.85 -2.35 12.85 -2.4 6.35 -2.45 6.35 -2.4 1.5 -2.4 1.5 -2.45 0.2 -2.45 -0.15 -1.7 -1.2 -1.7 -1.0 -2.0 -0.95 -2.05 -0.85 -2.25 -0.55 -2.55 Q-0.35 -2.85 0.05 -2.95 L1.5 -2.95 6.35 -2.95 12.85 -2.95 16.8 -2.95 19.1 -2.95 19.55 -2.55 19.65 -2.4 19.7 -2.25 19.9 -2.05 20.05 -1.7 19.65 -1.7" fill="#999999" fill-rule="evenodd" stroke="none"/>
    <path d="M19.1 -2.95 L16.8 -2.95 16.8 -3.25 17.9 -3.25 18.45 -3.25 19.0 -3.0 19.1 -2.95 M12.85 -2.95 L6.35 -2.95 6.35 -3.15 12.85 -3.15 12.85 -2.95 M1.5 -2.95 L0.05 -2.95 0.2 -3.0 Q0.35 -3.0 0.5 -3.15 L0.95 -3.15 1.5 -3.15 1.5 -2.95" fill="#333333" fill-rule="evenodd" stroke="none"/>
    <path d="M1.55 10.1 L1.9 9.4 Q10.4 7.7 18.15 9.4 18.4 12.55 16.15 14.2 L3.4 14.2 2.0 12.85 Q2.0 12.15 1.65 11.85 L1.65 11.55 1.55 10.1" fill="#f0cf88" fill-rule="evenodd" stroke="none"/>
    <path d="M14.5 11.5 Q14.5 11.65 14.85 11.6 L15.35 11.55 16.25 11.6 16.35 10.45 15.7 10.25 15.2 10.2 10.55 9.95 10.4 9.95 10.3 9.7 Q10.3 9.45 11.4 9.45 L13.75 9.6 15.5 9.7 16.75 9.75 16.8 9.8 17.15 9.75 Q17.65 9.75 17.75 10.0 L17.8 10.0 17.75 10.1 17.75 10.5 17.05 12.35 16.0 13.75 15.75 13.8 15.45 13.75 13.35 13.75 13.4 13.6 13.15 13.6 12.9 13.4 13.0 13.15 13.65 13.1 13.7 13.0 14.5 11.5 M10.55 13.1 L12.4 13.05 12.6 13.3 12.55 13.5 10.5 13.6 10.25 13.6 4.8 13.6 4.9 13.75 4.35 13.75 4.0 13.8 3.75 13.75 3.7 13.75 Q2.85 13.25 2.0 10.45 L2.05 10.2 2.0 10.05 2.2 10.05 2.3 9.95 2.35 10.0 3.45 9.75 4.95 9.6 5.85 9.45 Q5.85 10.0 6.0 10.25 L5.75 10.05 5.6 10.05 5.3 10.05 5.25 10.05 4.6 10.15 4.35 10.2 4.1 10.25 3.5 10.45 Q3.6 11.35 3.95 12.1 L4.55 13.15 10.55 13.1" fill="#201a26" fill-rule="evenodd" stroke="none"/>
    <path d="M15.2 10.2 L15.7 10.25 16.35 10.45 16.25 11.6 15.35 11.55 14.85 11.6 Q14.5 11.65 14.5 11.5 L15.2 10.2" fill="#a9bbbd" fill-rule="evenodd" stroke="none"/>
    <path d="M14.5 11.5 L13.7 13.0 13.65 13.1 13.0 13.15 12.9 13.4 13.15 13.6 13.4 13.6 13.35 13.75 10.2 13.75 10.25 13.6 10.5 13.6 12.55 13.5 12.6 13.3 12.4 13.05 10.55 13.1 Q11.4 11.55 12.4 10.55 L10.95 10.55 8.9 10.45 6.0 10.25 Q5.85 10.0 5.85 9.45 10.25 9.0 15.5 9.7 L13.75 9.6 11.4 9.45 Q10.3 9.45 10.3 9.7 L10.4 9.95 10.55 9.95 15.2 10.2 14.5 11.5" fill="#383c45" fill-rule="evenodd" stroke="none"/>
    <path d="M6.0 10.25 L8.9 10.45 10.95 10.55 12.4 10.55 Q11.4 11.55 10.55 13.1 L4.55 13.15 3.95 12.1 Q3.6 11.35 3.5 10.45 L4.1 10.25 4.35 10.2 4.6 10.15 5.25 10.05 5.3 10.05 5.6 10.05 5.75 10.05 6.0 10.25 M10.25 13.6 L10.2 13.75 4.9 13.75 4.8 13.6 10.25 13.6" fill="#576b86" fill-rule="evenodd" stroke="none"/>
    <path d="M1.15 38.65 L0.75 37.75 0.85 36.6 0.85 36.55 2.75 32.45 Q9.45 32.95 16.35 32.3 18.7 34.45 18.45 38.55 10.2 40.8 1.15 38.65" fill="#f0cf88" fill-rule="evenodd" stroke="none"/>
    <path d="M14.55 35.85 L13.7 33.9 13.65 33.75 12.9 33.7 12.85 33.35 Q12.85 33.05 13.15 33.05 L13.4 33.05 13.35 32.95 14.65 32.95 14.7 32.9 15.8 32.8 15.85 32.85 16.15 32.95 17.3 34.75 Q18.05 36.35 18.05 37.1 L18.05 37.6 18.1 37.8 18.05 37.8 Q17.95 38.1 17.4 38.1 L17.05 38.0 17.0 38.1 16.9 38.15 15.85 38.35 13.15 38.85 12.4 38.85 12.35 38.6 12.7 38.45 11.3 38.5 11.3 38.65 11.1 38.85 9.85 38.85 8.45 38.75 4.95 38.65 4.95 38.6 2.7 38.3 1.55 37.95 1.5 37.8 1.2 37.8 1.35 37.6 1.2 37.25 1.7 35.8 2.15 34.4 Q2.65 33.35 3.05 33.05 L3.1 33.05 3.4 32.95 3.8 32.8 4.65 32.95 5.95 33.05 6.0 33.05 6.5 33.2 10.0 33.15 10.3 33.15 10.6 33.2 12.5 33.25 12.55 33.45 12.35 33.8 10.9 33.9 10.4 33.8 3.95 33.8 3.7 34.35 3.35 35.15 3.25 35.5 2.85 37.25 3.5 37.5 3.75 37.6 4.0 37.7 4.7 37.8 4.75 37.8 5.05 37.8 5.3 37.8 5.55 37.5 Q5.4 37.8 5.4 38.2 L7.05 38.25 7.55 38.3 8.65 38.35 9.45 38.35 10.3 38.35 10.15 38.2 10.2 37.9 10.4 37.9 13.05 37.7 15.35 37.5 15.8 37.4 16.5 37.15 16.4 35.7 15.45 35.8 15.0 35.7 Q14.55 35.6 14.55 35.85" fill="#201a26" fill-rule="evenodd" stroke="none"/>
    <path d="M13.35 32.95 L13.4 33.05 13.15 33.05 Q12.85 33.05 12.85 33.35 L12.9 33.7 13.65 33.75 13.7 33.9 14.55 35.85 15.35 37.5 13.05 37.7 12.25 36.35 11.55 35.1 Q11.4 34.95 11.05 35.1 L10.4 33.8 10.9 33.9 12.35 33.8 12.55 33.45 12.5 33.25 10.6 33.2 10.3 33.15 10.0 33.15 9.95 33.0 13.35 32.95 M9.45 38.35 L8.65 38.35 7.55 38.3 7.05 37.35 8.6 37.2 8.8 37.2 9.45 38.35" fill="#383c45" fill-rule="evenodd" stroke="none"/>
    <path d="M13.05 37.7 L10.4 37.9 10.2 37.9 10.15 38.2 10.3 38.35 9.45 38.35 8.8 37.2 8.3 36.35 7.55 34.85 10.95 35.1 11.05 35.1 Q11.4 34.95 11.55 35.1 L12.25 36.35 13.05 37.7 M7.55 38.3 L7.05 38.25 5.4 38.2 Q5.4 37.8 5.55 37.5 L5.3 37.8 5.05 37.8 4.75 37.8 4.7 37.8 4.0 37.7 3.75 37.6 3.5 37.5 2.85 37.25 3.25 35.5 4.3 35.65 6.4 36.05 6.55 36.3 7.05 37.35 7.55 38.3 M11.3 38.65 L11.3 38.5 12.7 38.45 12.35 38.6 11.3 38.65" fill="#8091a3" fill-rule="evenodd" stroke="none"/>
    <path d="M3.25 35.5 L3.35 35.15 3.7 34.35 3.95 33.8 10.4 33.8 11.05 35.1 10.95 35.1 7.55 34.85 8.3 36.35 8.8 37.2 8.6 37.2 7.05 37.35 6.55 36.3 6.4 36.05 4.3 35.65 3.25 35.5 M10.0 33.15 L6.5 33.2 6.0 33.05 9.95 33.0 10.0 33.15" fill="#576b86" fill-rule="evenodd" stroke="none"/>
    <path d="M14.55 35.85 Q14.55 35.6 15.0 35.7 L15.45 35.8 16.4 35.7 16.5 37.15 15.8 37.4 15.35 37.5 14.55 35.85" fill="#a9bbbd" fill-rule="evenodd" stroke="none"/>
    <path d="M0.65 13.3 L1.05 14.0 1.05 16.65 0.9 18.35 0.9 23.3 0.9 28.25 0.95 31.3 Q0.95 33.15 0.65 33.15 L0.5 33.05 0.3 32.95 0.3 13.75 Q0.5 13.5 0.65 13.55 L0.65 13.3" fill="#fdc556" fill-rule="evenodd" stroke="none"/>
    <path d="M2.15 23.1 L1.05 23.1 1.05 14.4 2.85 17.2 2.85 23.1 2.6 23.1 2.75 22.6 2.8 21.9 2.75 21.6 2.7 21.6 2.7 21.55 2.75 20.6 Q2.75 19.9 2.35 20.35 L2.0 21.2 Q1.85 21.35 1.85 21.65 L2.05 22.4 2.15 23.1 M1.05 23.95 L2.95 23.95 2.95 29.35 1.05 33.45 1.05 23.95 M2.0 24.85 Q2.0 26.35 2.45 26.35 2.75 26.35 2.75 25.2 2.75 24.55 2.35 24.2 2.0 23.8 2.0 24.85 M2.75 28.35 L2.65 28.0 2.65 27.45 Q2.05 27.45 1.85 28.4 2.05 29.4 2.3 29.4 L2.65 29.2 2.65 29.15 2.8 28.7 2.75 28.35" fill="#0b0600" fill-rule="evenodd" stroke="none"/>
    <path d="M2.15 23.1 L2.05 22.4 2.4 22.75 2.75 22.4 2.75 22.0 2.7 21.6 2.75 21.6 2.8 21.9 2.75 22.6 2.6 23.1 2.4 23.25 2.15 23.1 M2.0 21.2 L2.35 20.35 Q2.75 19.9 2.75 20.6 L2.7 21.55 2.3 21.15 2.0 21.2 M2.0 24.85 Q2.0 23.8 2.35 24.2 2.75 24.55 2.75 25.2 2.75 26.35 2.45 26.35 2.0 26.35 2.0 24.85 M2.65 29.15 L2.65 29.2 2.3 29.4 Q2.05 29.4 1.85 28.4 2.05 27.45 2.65 27.45 L2.65 28.0 2.75 28.35 2.45 28.25 Q2.15 28.3 2.15 28.7 2.15 29.2 2.45 29.2 L2.65 29.15" fill="#383c45" fill-rule="evenodd" stroke="none"/>
    <path d="M2.05 22.4 L1.85 21.65 Q1.85 21.35 2.0 21.2 L2.3 21.15 2.7 21.55 2.7 21.6 2.75 22.0 2.75 22.4 2.4 22.75 2.05 22.4 M2.65 29.15 L2.45 29.2 Q2.15 29.2 2.15 28.7 2.15 28.3 2.45 28.25 L2.75 28.35 2.8 28.7 2.65 29.15" fill="#9c807c" fill-rule="evenodd" stroke="none"/>
    <path d="M18.65 13.3 L18.65 13.55 Q18.8 13.5 18.95 13.75 L18.95 32.95 18.75 33.05 18.65 33.15 Q18.35 33.15 18.35 31.3 L18.4 28.25 18.4 23.3 18.4 18.35 18.25 16.65 18.25 14.0 18.65 13.3" fill="#fdc556" fill-rule="evenodd" stroke="none"/>
    <path d="M16.75 23.1 L16.5 23.1 16.5 17.2 18.2 14.4 18.2 23.1 17.15 23.1 17.25 22.4 17.4 21.65 17.3 21.2 16.95 20.35 Q16.6 19.9 16.6 20.6 L16.65 21.55 16.65 21.6 16.6 21.6 16.55 21.9 16.6 22.6 16.75 23.1 M18.2 23.95 L18.2 33.45 16.4 29.35 16.4 23.95 18.2 23.95 M17.3 24.85 Q17.3 23.8 16.95 24.2 16.6 24.55 16.6 25.2 16.6 26.35 16.85 26.35 17.3 26.35 17.3 24.85 M16.6 28.35 L16.55 28.7 16.7 29.15 16.7 29.2 17.0 29.4 Q17.25 29.4 17.4 28.4 17.25 27.45 16.7 27.45 L16.7 28.0 16.6 28.35" fill="#0b0600" fill-rule="evenodd" stroke="none"/>
    <path d="M17.15 23.1 L16.9 23.25 16.75 23.1 16.6 22.6 16.55 21.9 16.6 21.6 16.65 21.6 16.6 22.0 16.6 22.4 16.9 22.75 17.25 22.4 17.15 23.1 M16.65 21.55 L16.6 20.6 Q16.6 19.9 16.95 20.35 L17.3 21.2 17.0 21.15 16.65 21.55 M17.3 24.85 Q17.3 26.35 16.85 26.35 16.6 26.35 16.6 25.2 16.6 24.55 16.95 24.2 17.3 23.8 17.3 24.85 M16.7 29.15 L16.85 29.2 17.15 28.7 Q17.15 28.3 16.85 28.25 L16.6 28.35 16.7 28.0 16.7 27.45 Q17.25 27.45 17.4 28.4 17.25 29.4 17.0 29.4 L16.7 29.2 16.7 29.15" fill="#383c45" fill-rule="evenodd" stroke="none"/>
    <path d="M16.65 21.6 L16.65 21.55 17.0 21.15 17.3 21.2 17.4 21.65 17.25 22.4 16.9 22.75 16.6 22.4 16.6 22.0 16.65 21.6 M16.6 28.35 L16.85 28.25 Q17.15 28.3 17.15 28.7 L16.85 29.2 16.7 29.15 16.55 28.7 16.6 28.35" fill="#9c807c" fill-rule="evenodd" stroke="none"/>
    <path d="M18.95 39.1 L19.05 40.0 19.05 50.75 Q19.05 52.95 16.8 52.95 L16.6 52.95 16.6 39.6 18.95 39.1 M10.55 40.05 L15.1 39.75 15.75 39.7 15.75 52.95 9.95 52.95 9.95 40.05 10.55 40.05 M2.6 39.35 L9.5 40.05 9.5 52.95 2.6 52.95 2.6 39.35 M0.1 38.85 L1.65 39.15 1.65 52.9 Q0.1 52.55 0.1 50.75 L0.1 38.85 M3.45 17.55 Q3.45 15.35 6.0 15.35 L13.4 15.35 Q15.75 15.4 15.75 17.55 L15.75 29.75 Q15.75 31.4 14.3 31.8 L13.2 31.9 6.0 31.9 5.0 31.8 Q3.45 31.4 3.45 29.75 L3.45 17.55 M11.3 -0.6 L16.45 -0.6 Q18.7 -0.6 18.7 1.6 L18.7 8.9 14.15 8.3 10.5 7.95 10.45 7.95 1.3 9.0 Q0.8 9.25 0.8 8.9 L0.8 1.6 Q0.8 -0.6 3.05 -0.6 L9.9 -0.6 10.5 7.6 11.3 -0.6" fill="#fac251" fill-rule="evenodd" stroke="none"/>
    <path d="M13.2 25.05 L13.2 27.85 6.75 27.85 6.75 25.05 13.2 25.05" fill="#383c45" fill-rule="evenodd" stroke="none"/>
    <path d="M11.9 25.65 L8.3 25.65 8.3 27.5 11.9 27.5 11.9 25.65 M12.9 27.65 L7.15 27.65 7.15 25.3 12.9 25.3 12.9 27.65" fill="#e4e4e7" fill-rule="evenodd" stroke="none"/>
    <path d="M11.9 25.65 L11.9 27.5 8.3 27.5 8.3 25.65 11.9 25.65" fill="#c5c6cb" fill-rule="evenodd" stroke="none"/>
    <path d="M1.15 34.75 L1.0 35.2 Q0.9 35.55 0.2 35.6 L-1.45 35.45 Q-2.3 35.15 -2.55 34.9 L-2.9 34.4 -3.05 33.8 -2.55 33.8 -2.55 34.0 -2.35 34.15 -1.6 34.15 -1.5 34.25 -0.1 34.55 0.0 34.4 0.0 34.35 0.15 34.35 0.25 34.2 0.25 34.15 0.6 34.4 1.15 34.75" fill="#eca412" fill-rule="evenodd" stroke="none"/>
    <path d="M1.15 34.75 L0.6 34.4 0.25 34.15 -0.15 33.8 -1.1 33.6 -2.55 33.8 -3.05 33.8 -3.05 33.55 Q-3.0 33.15 -2.4 33.0 L-0.95 33.1 0.55 33.7 Q1.1 34.1 1.1 34.45 L1.15 34.75" fill="#303030" fill-rule="evenodd" stroke="none"/>
    <path d="M0.25 34.15 L0.25 34.2 0.15 34.35 0.0 34.35 0.0 34.4 -0.1 34.55 -1.5 34.25 -1.6 34.15 -2.35 34.15 -2.55 34.0 -2.55 33.8 -1.1 33.6 -0.15 33.8 0.25 34.15" fill="#fac251" fill-rule="evenodd" stroke="none"/>
    <path d="M19.4 33.85 L19.8 33.5 20.75 33.35 22.15 33.5 22.15 33.75 22.0 33.85 21.25 33.85 21.15 33.95 19.75 34.25 19.65 34.15 19.65 34.1 19.5 34.1 19.4 33.9 19.4 33.85" fill="#fac251" fill-rule="evenodd" stroke="none"/>
    <path d="M19.4 33.85 L19.4 33.9 19.5 34.1 19.65 34.1 19.65 34.15 19.75 34.25 21.15 33.95 21.25 33.85 22.0 33.85 22.15 33.75 22.15 33.5 22.7 33.5 22.5 34.15 22.15 34.65 21.05 35.15 19.45 35.3 Q18.75 35.25 18.65 34.9 L18.45 34.45 19.05 34.15 19.4 33.85" fill="#eca412" fill-rule="evenodd" stroke="none"/>
    <path d="M22.15 33.5 L20.75 33.35 19.8 33.5 19.4 33.85 19.05 34.15 18.45 34.45 18.55 34.2 Q18.55 33.8 19.1 33.4 19.75 33.0 20.6 32.85 L22.05 32.7 Q22.65 32.9 22.7 33.3 L22.7 33.5 22.15 33.5" fill="#303030" fill-rule="evenodd" stroke="none"/>
  </g>
</svg>
