<?xml version="1.0" encoding="UTF-8" standalone="no"?>
<svg xmlns:xlink="http://www.w3.org/1999/xlink" height="11.2px" width="12.2px" xmlns="http://www.w3.org/2000/svg">
  <g transform="matrix(1, 0, 0, 1, 5.55, 12.3)">
    <path d="M3.8 -9.8 L3.8 -9.95 Q3.7 -10.85 4.05 -11.35 L5.7 -11.3 Q6.15 -10.85 6.4 -9.8 L6.65 -8.2 Q6.65 -7.65 5.55 -7.55 4.5 -7.5 4.2 -8.15 3.9 -8.8 3.8 -9.8" fill="#2b4525" fill-rule="evenodd" stroke="none"/>
    <path d="M5.7 -11.3 L3.8 -11.25 3.6 -12.3 5.55 -12.3 5.7 -11.3" fill="#666633" fill-rule="evenodd" stroke="none"/>
    <path d="M3.8 -8.4 Q4.75 -8.95 5.4 -9.1 6.05 -9.25 6.5 -8.4 6.9 -7.5 6.0 -6.25 5.05 -5.05 4.2 -4.7 3.35 -4.35 2.95 -5.75 L2.65 -7.1 Q2.85 -7.85 3.8 -8.4" fill="#2b4525" fill-rule="evenodd" stroke="none"/>
    <path d="M-5.5 -4.4 Q-5.75 -5.35 -4.35 -6.25 -3.0 -7.2 -1.95 -7.4 -0.9 -7.55 -1.5 -6.2 L-1.95 -5.15 -2.9 -4.5 Q-3.9 -3.65 -4.55 -3.55 -5.2 -3.45 -5.5 -4.4" fill="#2b4525" fill-rule="evenodd" stroke="none"/>
    <path d="M3.85 -6.4 Q4.1 -5.5 3.6 -3.7 L3.25 -2.4 2.9 -2.15 2.9 -2.2 Q0.75 -1.0 -0.8 -1.1 -2.35 -1.25 -2.35 -1.7 L-2.95 -1.75 -2.5 -3.0 -2.5 -4.95 Q-2.6 -6.0 -2.2 -7.1 L-2.35 -7.15 -2.1 -7.55 -1.95 -7.5 -1.9 -7.55 -1.25 -7.9 Q0.85 -8.25 2.35 -7.95 L3.15 -7.55 3.65 -6.85 3.9 -6.4 3.85 -6.4" fill="#3f6437" fill-rule="evenodd" stroke="none"/>
  </g>
</svg>
