<?xml version="1.0" encoding="UTF-8" standalone="no"?>
<svg xmlns:xlink="http://www.w3.org/1999/xlink" height="20.15px" width="10.4px" xmlns="http://www.w3.org/2000/svg">
  <g transform="matrix(1, 0, 0, 1, 5.6, 8.35)">
    <path d="M-4.85 -2.2 Q-5.25 -2.55 -5.45 -3.4 L-5.6 -4.6 Q-5.6 -5.0 -4.75 -5.1 -3.9 -5.15 -3.65 -4.65 L-3.35 -3.4 -3.35 -3.25 Q-3.25 -2.55 -3.55 -2.15 L-4.85 -2.2" fill="#2b4525" fill-rule="evenodd" stroke="none"/>
    <path d="M-3.3 -2.25 L-3.2 -1.45 -4.75 -1.4 -4.9 -2.2 -3.3 -2.25" fill="#666633" fill-rule="evenodd" stroke="none"/>
    <path d="M2.6 -7.95 Q3.4 -7.6 3.4 -7.1 3.4 -6.6 2.6 -6.25 1.85 -5.9 0.8 -5.9 L-1.15 -6.25 Q-1.85 -6.6 -1.85 -7.1 -1.85 -7.6 -1.15 -7.95 L0.8 -8.35 2.6 -7.95" fill="#2b4525" fill-rule="evenodd" stroke="none"/>
    <path d="M4.6 -8.15 L4.8 -7.85 4.75 -7.55 3.6 -7.05 3.1 -7.0 2.65 -7.1 2.9 -7.5 3.15 -7.8 4.4 -8.2 4.6 -8.15 M-3.6 -6.35 L-3.7 -6.7 -3.6 -6.85 -2.35 -7.45 -2.0 -7.45 -1.55 -7.35 Q-1.5 -7.2 -1.8 -6.95 L-2.2 -6.65 -3.35 -6.2 Q-3.5 -6.2 -3.6 -6.35" fill="#3f6437" fill-rule="evenodd" stroke="none"/>
    <path d="M0.8 -1.35 L2.5 -1.15 3.25 0.45 Q3.95 1.85 2.65 5.65 L1.9 7.65 -0.1 6.85 -0.05 4.6 Q0.15 1.4 -2.4 3.75 L-3.85 4.0 -3.85 4.1 Q-5.2 3.55 -3.1 0.45 -2.45 -0.15 -2.35 -0.5 -2.2 -0.85 -1.45 -1.15 L0.8 -1.35" fill="#431616" fill-rule="evenodd" stroke="none"/>
    <path d="M1.1 9.15 L0.2 10.0 Q-0.3 10.25 -1.0 9.7 -1.65 9.15 -0.95 8.15 L-0.05 6.45 Q1.75 6.15 1.95 7.5 L1.1 9.15" fill="#431616" fill-rule="evenodd" stroke="none"/>
    <path d="M-2.2 10.1 L-1.3 9.0 Q0.2 8.8 0.4 10.1 L-0.5 11.25 -1.3 11.75 Q-1.9 11.9 -2.4 11.4 -2.9 10.95 -2.2 10.1" fill="#0d0f0f" fill-rule="evenodd" stroke="none"/>
  </g>
</svg>
