<?xml version="1.0" encoding="UTF-8" standalone="no"?>
<svg xmlns:xlink="http://www.w3.org/1999/xlink" height="12.3px" width="7.6px" xmlns="http://www.w3.org/2000/svg">
  <g transform="matrix(1, 0, 0, 1, 4.45, 3.3)">
    <path d="M3.1 -1.4 L3.1 1.05 Q-0.05 -0.4 -3.25 0.1 -3.3 -1.15 -2.85 -2.15 -2.15 -3.6 0.4 -3.25 2.95 -2.95 3.1 -1.4" fill="#3f6437" fill-rule="evenodd" stroke="none"/>
    <path d="M-4.05 6.5 Q-4.45 5.95 -4.45 5.25 L-4.35 3.45 -2.15 3.5 -2.15 5.4 Q-2.05 6.65 -2.85 6.8 -3.7 6.95 -4.05 6.5" fill="#431616" fill-rule="evenodd" stroke="none"/>
    <path d="M-1.9 7.7 Q-1.7 8.8 -2.35 8.95 -3.05 9.15 -3.5 8.65 L-4.0 7.85 -4.15 6.45 Q-3.35 5.35 -2.2 6.35 L-1.9 7.7" fill="#0d0f0f" fill-rule="evenodd" stroke="none"/>
  </g>
</svg>
