<?xml version="1.0" encoding="UTF-8" standalone="no"?>
<svg xmlns:xlink="http://www.w3.org/1999/xlink" height="21.6px" width="20.8px" xmlns="http://www.w3.org/2000/svg">
  <g transform="matrix(1, 0, 0, 1, 4.8, 10.55)">
    <path d="M2.7 -3.75 L6.5 -5.1 Q9.8 -6.3 10.35 -6.3 11.25 -6.3 11.6 -5.7 L11.75 -5.05 Q11.75 -4.4 11.2 -3.8 L10.15 -2.45 Q11.25 -2.6 11.75 -2.0 12.1 -1.55 12.1 -1.1 12.1 0.2 9.4 0.4 L9.55 0.9 8.8 2.2 9.2 2.85 9.35 3.5 9.15 4.25 Q8.6 4.8 6.95 4.8 L2.95 4.45 Q3.35 4.9 3.35 5.45 3.35 6.85 1.8 6.85 1.0 6.85 0.05 6.15 -0.85 5.45 -1.85 5.45 -3.05 5.45 -3.25 4.5 L-3.25 3.5 -4.45 2.5 -4.8 1.75 Q-4.8 1.25 -4.25 0.6 -3.75 -0.05 -3.75 -0.85 L-4.0 -1.45 -4.3 -1.95 Q-4.3 -3.5 -2.25 -3.35 -2.55 -4.45 -1.85 -5.45 -1.2 -6.35 -0.1 -6.65 2.7 -7.4 2.7 -3.8 L2.7 -3.75 M7.4 -8.85 L7.05 -7.8 Q6.6 -7.15 5.7 -7.15 4.55 -7.15 4.15 -8.1 L4.0 -8.85 Q4.0 -10.55 5.7 -10.55 7.4 -10.55 7.4 -8.85 M16.0 2.75 L15.65 3.85 Q15.2 4.55 14.3 4.55 13.15 4.55 12.75 3.55 L12.55 2.75 Q12.55 1.1 14.3 1.1 16.0 1.1 16.0 2.75 M6.4 9.3 Q6.4 7.6 8.1 7.6 9.8 7.6 9.8 9.3 L9.45 10.4 Q9.05 11.05 8.1 11.05 6.95 11.05 6.55 10.05 L6.4 9.3" fill="#ff0000" fill-rule="evenodd" stroke="none"/>
  </g>
</svg>
