<?xml version="1.0" encoding="UTF-8" standalone="no"?>
<svg xmlns:xlink="http://www.w3.org/1999/xlink" height="38.4px" width="71.55px" xmlns="http://www.w3.org/2000/svg">
  <g transform="matrix(1, 0, 0, 1, -5.7, 19.45)">
    <path d="M6.95 -1.65 L5.75 -1.85 5.7 -3.0 Q5.7 -5.25 7.2 -5.5 8.75 -5.75 8.75 -3.95 8.75 -3.15 8.4 -2.45 7.85 -1.65 6.95 -1.65 M14.25 -2.3 Q13.4 -3.3 11.75 -6.25 10.1 -9.25 17.35 -3.5 L22.0 -5.75 37.05 -13.0 Q50.5 -19.3 27.2 -5.4 L32.8 -6.45 Q29.25 -4.35 32.65 -4.6 L37.7 -5.1 40.25 -5.6 59.0 -8.05 Q76.75 -10.25 56.45 -6.7 36.15 -3.2 35.75 -2.6 37.4 -2.75 38.1 -2.2 38.65 -1.8 64.5 1.05 90.3 3.85 34.6 0.1 L46.0 3.05 Q52.5 4.75 33.7 1.8 L34.3 2.4 Q34.55 2.75 38.3 4.1 L59.45 10.55 Q76.95 15.6 31.05 4.2 L33.45 6.7 Q25.7 4.3 40.55 11.3 55.4 18.3 41.0 13.0 26.5 7.7 22.95 6.25 19.4 4.85 17.9 4.85 16.15 4.85 14.3 5.9 L15.85 3.0 12.35 2.0 Q9.7 1.6 9.95 1.1 10.2 0.7 12.65 0.2 15.1 -0.35 15.1 -1.1 L14.25 -2.3 M57.45 -19.3 L57.7 -18.65 Q57.7 -18.0 50.45 -13.65 43.2 -9.35 42.3 -9.35 41.65 -9.35 41.2 -9.75 L41.2 -10.25 47.65 -13.7 Q54.55 -17.55 57.0 -19.45 L57.45 -19.3 M60.35 -3.5 L76.55 -3.5 77.0 -3.3 77.25 -2.55 77.2 -2.0 77.15 -1.75 76.75 -1.65 76.15 -1.75 60.35 -1.75 Q59.9 -1.45 59.45 -1.95 L59.35 -2.45 59.85 -3.05 60.35 -3.5 M63.65 8.1 Q65.5 8.1 71.1 9.15 L70.75 9.9 70.25 10.15 68.85 10.05 63.15 9.85 62.6 9.65 62.4 8.95 Q62.4 8.15 63.65 8.1 M62.15 18.5 L62.0 18.7 61.45 18.95 Q59.75 18.95 57.25 17.25 L54.6 15.25 54.6 14.85 Q54.6 12.65 58.1 14.85 L62.1 17.85 62.15 18.5 M14.6 12.05 L9.85 10.15 Q8.4 10.15 7.25 8.55 L6.45 6.95 6.45 6.6 6.6 6.45 8.6 6.3 Q9.05 5.35 9.75 5.55 10.45 5.7 10.45 6.45 L9.7 7.8 10.55 8.5 11.2 9.35 Q11.2 9.95 14.6 12.05" fill="#ff0000" fill-rule="evenodd" stroke="none"/>
  </g>
</svg>
