<?xml version="1.0" encoding="UTF-8" standalone="no"?>
<svg xmlns:xlink="http://www.w3.org/1999/xlink" height="54.0px" width="90.25px" xmlns="http://www.w3.org/2000/svg">
  <g transform="matrix(1, 0, 0, 1, -7.25, 29.8)">
    <path d="M17.65 -9.5 Q17.65 -10.9 24.0 -14.45 28.85 -17.2 30.9 -17.75 32.0 -18.6 32.8 -18.6 L32.9 -18.5 33.0 -18.0 Q33.0 -17.25 29.55 -13.0 25.85 -8.5 25.55 -7.7 L24.95 -7.55 Q24.0 -8.3 24.0 -8.75 24.0 -9.75 27.05 -13.7 L18.65 -8.55 17.95 -8.75 Q17.65 -8.95 17.65 -9.5 M13.45 -1.85 Q12.4 -2.2 10.55 -3.8 8.65 -5.4 17.65 -3.8 L24.1 -6.15 Q26.35 -7.15 45.3 -13.7 61.95 -19.55 38.55 -8.95 L41.85 -9.75 45.35 -9.9 46.05 -9.75 46.35 -9.1 Q46.35 -8.55 46.0 -8.35 L45.35 -8.2 37.05 -6.95 Q36.1 -6.5 34.5 -6.15 L39.3 -6.9 Q34.35 -4.65 39.2 -4.9 L46.25 -5.45 49.85 -6.0 76.15 -8.5 Q101.15 -10.8 72.55 -7.15 44.05 -3.45 43.45 -2.85 L46.8 -2.4 83.85 0.95 Q120.15 3.9 41.9 -0.05 L57.85 3.1 Q67.05 4.9 40.6 1.75 L41.45 2.4 Q41.8 2.8 47.05 4.2 L76.85 10.9 Q101.3 16.25 36.85 4.3 L40.25 6.9 Q29.3 4.4 50.2 11.75 71.05 19.05 50.85 13.5 L25.6 6.65 Q20.75 5.35 19.2 6.35 L13.35 6.1 15.45 3.05 Q14.3 2.5 10.65 2.0 6.9 1.55 7.3 1.1 7.65 0.6 11.05 0.05 14.5 -0.5 14.5 -1.3 L13.45 -1.85 M31.45 -5.75 L34.35 -6.15 33.65 -6.4 33.5 -6.65 31.45 -5.75 M66.05 -29.25 Q66.05 -28.7 62.6 -25.8 58.9 -22.8 55.6 -20.85 L54.95 -21.05 Q54.65 -21.2 54.65 -21.75 54.65 -23.6 59.0 -26.45 63.05 -29.15 65.8 -29.6 66.05 -30.1 66.05 -29.25 M48.65 -22.05 Q47.5 -20.5 45.75 -19.8 L45.1 -20.1 Q44.8 -20.3 44.8 -20.9 44.8 -22.15 46.2 -23.45 47.75 -24.9 49.35 -24.15 49.5 -24.65 49.5 -23.8 49.5 -23.25 48.65 -22.05 M58.75 -11.3 L73.35 -12.95 84.7 -14.55 84.85 -14.45 84.9 -13.9 Q84.9 -13.1 73.3 -11.3 L59.95 -9.6 Q58.3 -9.6 57.85 -10.05 L57.75 -10.5 Q57.75 -11.05 58.15 -11.2 L58.75 -11.3 M80.3 -2.95 L92.95 -2.75 Q94.45 -2.2 94.75 -1.55 94.45 -0.9 93.75 -0.7 L80.8 -1.05 79.9 -1.35 Q79.05 -1.7 78.6 -1.95 L78.95 -2.8 80.3 -2.95 M94.15 11.35 Q91.35 10.35 83.1 11.25 L82.4 11.0 Q82.15 10.8 82.15 10.25 82.15 9.2 89.8 9.55 97.5 9.95 97.5 11.45 L97.35 12.25 97.3 12.4 96.45 12.6 Q96.0 12.6 95.5 12.2 L94.15 11.35 M87.5 20.1 Q83.95 20.1 77.8 17.55 72.95 15.55 69.95 13.6 70.55 12.5 76.55 14.7 L88.45 19.25 88.3 19.75 87.5 20.1 M65.7 19.65 Q67.0 19.6 68.0 20.95 L67.85 21.45 Q67.65 21.8 67.05 21.8 L65.55 21.5 Q64.85 21.25 64.55 21.0 64.45 21.35 64.45 20.5 64.45 19.7 65.7 19.65 M56.45 10.9 Q56.25 11.25 55.6 11.25 L43.65 7.0 43.65 6.5 Q43.65 5.25 49.85 7.35 55.85 9.45 56.6 10.4 L56.45 10.9 M43.25 19.5 Q43.25 17.4 49.4 19.7 54.2 21.55 56.5 23.0 L56.6 23.5 56.35 23.9 Q56.2 24.2 55.6 24.2 54.15 24.2 50.15 22.8 46.3 21.45 43.3 19.95 L43.25 19.5 M29.3 10.45 L34.75 12.95 35.0 13.35 34.65 14.05 33.2 14.3 Q31.9 14.3 28.35 13.05 25.05 11.85 24.35 11.25 25.5 8.9 29.3 10.45 M16.7 11.55 Q17.3 12.95 17.3 14.05 17.3 14.9 17.15 14.45 L17.0 14.8 16.25 15.0 Q15.5 15.0 14.6 12.7 13.75 10.6 13.75 9.4 15.7 9.25 16.7 11.55" fill="#ff0000" fill-rule="evenodd" stroke="none"/>
  </g>
</svg>
