<?xml version="1.0" encoding="UTF-8" standalone="no"?>
<svg xmlns:xlink="http://www.w3.org/1999/xlink" height="43.1px" width="42.55px" xmlns="http://www.w3.org/2000/svg">
  <g transform="matrix(1, 0, 0, 1, 21.3, 21.55)">
    <path d="M17.15 -12.8 Q21.25 -7.15 21.25 -0.25 L14.65 -0.25 Q14.65 -5.05 11.8 -8.9 8.95 -12.75 4.4 -14.25 -0.15 -15.65 -4.65 -14.15 -9.2 -12.6 -12.0 -8.7 -14.75 -4.75 -14.65 0.0 L-21.3 0.1 Q-21.4 -6.8 -17.4 -12.5 -13.35 -18.2 -6.8 -20.4 -0.2 -22.65 6.4 -20.55 13.0 -18.45 17.15 -12.8" fill="url(#gradient0)" fill-rule="evenodd" stroke="none"/>
    <path d="M14.6 0.0 L21.25 -0.1 Q21.35 6.8 17.35 12.5 13.3 18.2 6.75 20.4 0.15 22.65 -6.45 20.55 -13.05 18.45 -17.2 12.8 -21.3 7.15 -21.3 0.25 L-14.7 0.25 Q-14.7 5.05 -11.85 8.9 -9.0 12.75 -4.45 14.25 0.1 15.65 4.6 14.15 9.15 12.6 11.95 8.7 14.7 4.75 14.6 0.0" fill="url(#gradient1)" fill-rule="evenodd" stroke="none"/>
  </g>
  <defs>
    <radialGradient cx="0" cy="0" gradientTransform="matrix(0.048, 0.0, 0.0, 0.048, 17.95, -3.05)" gradientUnits="userSpaceOnUse" id="gradient0" r="819.2" spreadMethod="pad">
      <stop offset="0.0" stop-color="#ffffff"/>
      <stop offset="1.0" stop-color="#000000"/>
    </radialGradient>
    <radialGradient cx="0" cy="0" gradientTransform="matrix(-0.048, 0.0, 0.0, -0.048, -18.0, 3.05)" gradientUnits="userSpaceOnUse" id="gradient1" r="819.2" spreadMethod="pad">
      <stop offset="0.0" stop-color="#ffffff"/>
      <stop offset="1.0" stop-color="#000000"/>
    </radialGradient>
  </defs>
</svg>
