<?xml version="1.0" encoding="UTF-8" standalone="no"?>
<svg xmlns:xlink="http://www.w3.org/1999/xlink" height="33.95px" width="152.0px" xmlns="http://www.w3.org/2000/svg">
  <g transform="matrix(1, 0, 0, 1, 76.0, 17.0)">
    <path d="M70.3 11.25 Q65.65 15.95 59.05 15.95 L-59.05 15.95 Q-65.65 15.95 -70.35 11.25 -75.0 6.6 -75.0 0.0 L-75.0 -0.05 Q-75.0 -6.65 -70.35 -11.35 -65.65 -16.0 -59.05 -16.0 L59.05 -16.0 Q65.65 -16.0 70.3 -11.35 75.0 -6.65 75.0 -0.05 L75.0 0.0 Q75.0 6.6 70.3 11.25" fill="#000000" fill-opacity="0.4862745" fill-rule="evenodd" stroke="none"/>
    <path d="M70.3 11.25 Q75.0 6.6 75.0 0.0 L75.0 -0.05 Q75.0 -6.65 70.3 -11.35 65.65 -16.0 59.05 -16.0 L-59.05 -16.0 Q-65.65 -16.0 -70.35 -11.35 -75.0 -6.65 -75.0 -0.05 L-75.0 0.0 Q-75.0 6.6 -70.35 11.25 -65.65 15.95 -59.05 15.95 L59.05 15.95 Q65.65 15.95 70.3 11.25" fill="none" stroke="#ffffff" stroke-linecap="round" stroke-linejoin="round" stroke-width="2.0"/>
  </g>
</svg>
