<?xml version="1.0" encoding="UTF-8" standalone="no"?>
<svg xmlns:xlink="http://www.w3.org/1999/xlink" height="2820.15px" width="2805.5px" xmlns="http://www.w3.org/2000/svg">
  <g transform="matrix(1, 0, 0, 1, 2.85, 11.6)">
    <path xmlns="http://www.w3.org/2000/svg" d="M2660.9 -47.1 2666.9 39.05 2803.1 39.05 2803.1 -47.1 2660.9 -47.1M2290.4 -4 2290.4 97.15 2237.3 97.15 2237.3 124.15 2337.45 124.15 2337.45 -4 2290.4 -4M2412.5 -2 2412.5 56.05 2440.55 56.05 2440.55 -2 2412.5 -2M2337.4 252.35 2337.4 835.2 2203.2 835.2 2201.2 802.15 2286.35 802.15 2286.35 722.05 2033.95 722.05 2033.95 801.15 2149.15 801.15 2149.15 837.2 2034.95 837.2 1811.65 607.9 2275.3 607.9 2275.3 252.35 2337.4 252.35M2273.3 299.4 2217.25 300.4 1955.85 561.8 1760.55 561.8 1676.45 477.7 1699.5 454.65 1756.55 511.7 1950.85 511.7 2062 400.55 1942.85 281.4 1641.4 280.4 1701.5 340.5 1644.4 397.6 1664.45 417.65 1641.4 440.7 1459.15 254.35 2273.3 252.35 2273.3 299.4M2441.6 334.5 2441.6 777.15 2412.55 777.15 2413.55 334.5 2441.6 334.5M2184.2 98.15 2094.1 98.15 1989.95 -6 1897.8 -4 2029 127.2 2184.2 127.2 2184.2 98.15M1946.85 126.15 1521.2 126.15 1521.2 98.15 1736.55 98.15 1736.55 -13.05 1817.65 -13.05 1946.85 116.15 1946.85 126.15M2515.65 254.4 2678.9 255.4 2680.9 294.45 2630.85 295.45 2628.85 394.6 2648.85 396.6 2653.85 433.65 2690.9 435.65 2691.9 533.8 2514.65 531.8 2515.65 254.4M2806.1 83.1 2732 84.1 2732 126.15 2806.1 126.15 2806.1 83.1M2681.9 85.1 2628.85 85.1 2628.85 -15.05 2512.65 -2 2512.65 126.15 2681.9 126.15 2681.9 85.1M2734 255.4 2803.1 252.4 2803.1 534.8 2747 534.8 2746 434.65 2769.05 434.65 2769.05 296.45 2733 297.45 2734 255.4M2601.8 727.05 2601.8 926.35 2694.95 926.35 2694.95 1051.55 2514.65 1051.55 2515.65 587.85 2693.95 587.85 2693.95 685 2633.85 685 2633.85 727.05 2601.8 727.05M2747 585.85 2802.1 585.85 2802.1 1052.55 2748 1052.55 2746 974.4 2769.05 972.4 2769.05 684 2747 685 2747 585.85M2655.9 1137.65 2571.75 1136.65 2570.75 1543.25 2617.85 1544.25 2615.85 1667.45 2515.7 1667.45 2515.7 1106.6 2655.9 1107.6 2655.9 1137.65M2710.5 1138.2 2792.6 1138.2 2792.6 1344.5 2631.9 1344.5 2631.9 1278.35 2575.3 1278.35 2574.3 1404.05 2603.35 1403.55 2603.85 1364.5 2775.6 1364.5 2775.6 1633.9 2667.95 1633.9 2667.95 1666.45 2803.15 1666.45 2803.15 1105.65 2710.5 1105.65 2710.5 1138.2M2440.6 1180.75 2439.6 1640.4 2414.55 1640.4 2413.55 1179.75 2440.6 1180.75M1303.9 811.2 1369 811.2 1371 716.05 1472.15 613.9 1735.55 613.9 1947.85 826.2 1947.85 838.2 1533.25 836.2 1532.25 721.05 1631.4 720.05 1631.4 674 1754.6 674 1712.5 635.95 1463.15 636.95 1385.05 716.05 1384.05 804.15 1479.15 804.15 1481.15 836.2 1304.9 837.2M1977.9 1040.5 1936.8 997.45 1913.75 1020.5 1845.7 962.4 1718.5 962.4 1718.5 1013.45 1418.05 1013.45 1378 991.45 1357.95 954.4 1358.95 890.3 2151.15 891.3 2152.15 1056.55 2082.05 1126.65 2058 1102.6 2112.1 1048.5 2112.1 996.45 2022.95 996.45 1977.9 1040.5M2019.95 1140.65 2042 1163.7 1934.85 1273.9 1933.85 1473.15 2335.4 1477.2 2335.4 1668.45 1980.9 1669.45 1979.9 1636.4 2222.25 1636.4 2222.25 1505.2 1882.75 1505.2 1882.75 1543.3 1925.8 1543.3 1926.8 1669.45 1826.7 1667.45 1823.65 1112.65 1816.65 1067.6 1773.6 1027.5 1723.4 1013.5 1722.55 984.4 1776.6 996.45 1815.65 1024.5 1845.7 1071.55 1852.7 1152.65 1921.8 1086.55 1999.95 1164.7 2019.95 1140.65M2204.25 891.3 2336.4 891.3 2336.4 1421.05 2266.3 1421.05 2266.3 1388 2294.35 1388 2294.35 1280.85 2185.2 1280.85 2185.2 1388 2211.25 1388 2211.25 1419.05 2151.15 1419.05 2151.15 1285.85 1998.95 1284.9 2204.25 1079.6 2204.25 891.3M2581.8 1862.7 2581.8 1822.65 2640.9 1822.65 2640.9 1723.5 2514.7 1723.5 2514.7 2205.2 2641.9 2205.2 2641.9 2080.05 2557.75 2080.05 2557.75 1862.7 2581.8 1862.7M2440.6 1797.6 2440.6 2137.15 2412.55 2136.15 2415.55 1798.6 2440.6 1797.6M2093.05 1841.7 1887.75 2048 1865.7 2021.95 2162.15 1723.5 2335.4 1723.5 2337.4 2204.2 1692.45 2206.25 1687.45 2198.2 1824.65 2061 1850.7 2084.05 1751.55 2182.2 1859.7 2183.2 1897.75 2148.15 1911.8 2159.15 1985.9 2086.05 2138.1 2085.05 2138.1 1999.95 2075.05 1999.95 2074.05 1932.85 2132.1 1877.75 2093.05 1841.7M2099.05 2368.5 2061 2366.5 2059 2598.85 2213.25 2599.85 2213.25 2363.5 2150.15 2367.5 2151.15 2335.45 2335.4 2333.45 2337.4 2806.15 2093.05 2806.15 2030.95 2640.9 2031.95 2333.45 2096.05 2335.45 2099.05 2368.5M2693.95 1722.5 2693.95 1820.65 2811.15 1820.65 2811.15 1720.5 2693.95 1722.5M2693.95 2128.15 2810.15 2128.15 2810.15 2206.25 2693.95 2207.25 2693.95 2128.15M2514.7 2334.45 2514.7 2407.55 2808.1 2407.55 2808.1 2334.45 2514.7 2334.45M1492.2 -11.05 1494.2 15 1620.35 15 1620.35 -11.05 1492.2 -11.05M1233.8 -4 1363 126.15 1470.15 127.15 1470.15 99.15 1379.05 99.15 1258.85 -21.05 1233.8 -4M1065.55 -3 1065.55 127.15 1279.9 127.15 1279.9 120.15 1154.7 -5.05 1065.55 -3M1245.8 254.4 1377 254.4 1670.45 549.8 1669.45 558.8 1163.7 558.85 1163.7 528.75 1524.2 528.75 1559.25 488.7 1352.95 282.4 1243.8 278.4 1245.8 254.4M1194.75 285.45 1097.6 286.45 1098.6 410.6 1158.7 413.6 1158.7 588.85 1100.6 588.85 1100.6 804.15 1252.8 806.15 1251.8 837.2 1065.55 834.2 1068.55 254.4 1191.75 255.4 1194.75 285.45M846.25 97.15 631.95 97.15 631.95 127.15 939.4 127.15 939.4 -2 276.4 -6 276.4 126.15 580.85 126.15 580.85 98.15 393.6 98.15 393.6 44.05 846.25 44.05 846.25 97.15M675.95 253.4 937.85 253.4 937.85 783.15 877.75 783.15 816.2 779.6 758.1 763.6 685 728.05 643.45 693.5 663.45 670.45 725.55 720.05 918.35 720.05 918.35 576.3 751.6 576.35 750.6 281.9 675.95 282.95 675.95 253.4M623.45 254.4 525.8 253.9 525.8 445.15 530.8 498.75 555.35 575.85 603.9 650.45 626.45 632.95 594.9 601.9 594.9 281.9 623.45 281.9 623.45 254.4M277.4 254.35 471.65 254.35 471.65 448.65 478.7 518.75 504.7 593.9 541.8 658 567.8 689.05 546.8 713.05 383.55 549.8 233.3 549.8 276.4 382.6 277.4 254.35M233.35 551.8 144.25 891.3 144.7 1415.1 263.05 1871.1 288.45 1870.25 289.45 1763.55 500.75 1764.55 500.75 1722.5 274.4 1722.5 274.4 1533.25 346.55 1533.25 346.55 1028.5 274.4 1028.5 274.4 807.15 258.85 807.7 258.4 551.8 233.35 551.8M584.85 750.1 641.45 805.2 277.45 807.2 277.45 838.25 863.25 838.25 787.15 828.25 697 797.2 623.9 748.1 607.4 731.1 584.85 750.1M150.2 364.55 18 876.25 18 1430.1 151.2 1941.85 151.2 2205.2 -6.05 2205.2 -6.05 -6 150.2 -6 150.2 364.55M620.9 1027 620.9 890.8 938.35 890.8 938.35 1123.65 773.1 1123.65 773.1 1447.65 939.85 1447.65 939.85 1597.3 621.9 1597.3 621.9 1533.2 400.55 1533.2 399.1 1027.5 620.9 1027M552.8 1722.55 938.9 1723.05 938.9 1869.75 552.8 1868.75 552.8 1722.55M264.4 1873.75 938.9 1873.25 938.9 2205.25 629.95 2205.25 629.95 2062 640.95 2062 640.95 2020.45 876.3 2020.45 876.3 1907.8 762.65 1907.8 762.65 1887.75 577.35 1887.75 577.35 2207.25 559.35 2207.25 559.35 1888.25 308.45 1888.25 308.45 2031.95 435.65 2031.95 435.65 2117.6 505.25 2117.6 505.25 2206.75 278.9 2205.25 277.4 1922.3 264.4 1873.75M150.2 2334.45 150.2 2710 118.15 2710 116.15 2615.85 46.05 2613.85 44.05 2545.75 -7 2545.75 -2 2333.45 150.2 2334.45M1771.6 1149.65 1771.6 1429.1 1669.45 1429.1 1557.25 1397.05 1481.15 1348 1418.05 1274.9 1366 1159.7 1379 1109.6 1425.05 1080.55 1547.25 1081.55 1548.25 1115.6 1519.2 1115.6 1519.2 1325.9 1716.5 1325.9 1716.5 1115.6 1600.35 1115.6 1602.35 1081.55 1712.5 1081.55 1754.55 1107.6 1771.6 1149.65M1068.55 891.3 1301.9 891.3 1304.9 1101.65 1322.9 1211.8 1388 1330.95 1382 1408.05 1381 1667.45 1066.55 1669.45 1067.55 1494.15 1193.75 1495.15 1193.75 1632.4 1357.95 1638.4 1357.95 1362 1096.6 1360 1096.6 1442.1 1067.55 1442.1 1067.55 1340.95 1276.85 1340.95 1276.85 1018.5 1145.65 1018.5 1145.65 1190.75 1193.75 1190.75 1193.75 1285.9 1066.55 1285.9M1387 1399.05 1392 1333.95 1491.15 1424.1 1580.3 1466.15 1672.45 1487.2 1767.55 1485.2 1771.6 1666.45 1434.1 1668.45 1433.1 1641.4 1729.5 1641.4 1729.5 1515.2 1575.3 1485.2 1496.2 1452.15 1418.05 1393.05 1387 1399.05M1259.9 1947.85 1234.9 1922.85 1132.7 1922.85 1132.7 2121.1 1204.8 2054 1280.9 2130.15 1316.95 2093.1 1339 2118.1 1251.85 2205.25 1068.6 2205.25 1066.55 1723.55 1726.55 1723.55 1728.55 1732.55 1583.35 1877.75 1557.3 1851.7 1654.45 1754.55 1194.75 1754.55 1194.75 1903.8 1350 1903.8 1429.1 1982.9 1521.2 1890.8 1544.2 1913.8 1375.95 2082.05 1352.95 2059.05 1412.05 1999.95 1331.95 1919.85 1299.95 1959.9 1273.9 1933.85 1259.9 1947.85M937.35 2334.4 940.4 2435.55 894.3 2445.6 894.3 2365.45 804.2 2371.5 707.05 2412.55 650.95 2459.6 631.95 2433.55 710.05 2376.5 814.2 2339.45 937.35 2334.4M1236.8 2351.45 1323.9 2394.5 1367 2433.55 1346.95 2458.6 1284.85 2410.55 1193.75 2374.5 1103.6 2365.45 1103.6 2806.1 1066.55 2806.1 1066.55 2333.4 1147.65 2333.4 1236.8 2351.45M1901.8 1855.75 2003.95 1756.6 1894.75 1755.6 1856.7 1791.65 1828.65 1770.6 1590.3 2019.95 1658.4 2099.05 1866.7 1891.75 1888.75 1917.8 1604.35 2207.25 1337 2205.25 1807.65 1721.55 2080.05 1724.55 1930.8 1879.75 1901.8 1855.75M1327.95 2331.4 1615.35 2331.4 1620.35 2599.8 1847.7 2593.8 1847.7 2442.55 1743.55 2437.55 1745.55 2369.45 1671.45 2367.45 1671.45 2335.4 1901.75 2335.4 1903.75 2640.85 1841.7 2804.1 1574.3 2815.1 1571.3 2664.9 1544.25 2567.75 1500.2 2482.65 1439.1 2410.55 1374 2355.45 1327.95 2331.4M663.95 2333.4 586.85 2381.5 504.75 2472.65 431.65 2617.85 421.6 2809.15 277.4 2808.1 277.4 2651.9 406.6 2647.9 417.6 2601.8 457.65 2506.7 507.75 2432.55 383.55 2433.55 382.55 2501.65 311.45 2501.65 311.45 2596.8 278.4 2596.8 277.4 2334.45 663.95 2333.4M1384 2494.65 1407.05 2472.65 1446.1 2513.7 1490.15 2605.8 1503.2 2669.9 1471.15 2674.9 1461.1 2609.85 1412.05 2529.7 1384 2494.65M1389 2675.95 1405.05 2798.1 1109.6 2800.1 1107.6 2452.6 1203.75 2471.65 1274.85 2509.7 1344.95 2583.8 1389 2675.95M1476.15 2728 1510.2 2724 1512.2 2804.1 1413.05 2803.1 1404.05 2757.05 1477.15 2755.05 1476.15 2728M803.2 2469.65 940.4 2443.6 938.4 2804.15 602.9 2803.15 600.9 2709 648.95 2579.8 724.05 2507.7 803.2 2469.65M570.85 2554.75 537.8 2624.85 526.75 2675.9 493.7 2669.9 509.75 2595.8 548.8 2519.7 588.85 2474.6 614.9 2495.65 570.85 2554.75M518.75 2756.05 595.85 2757.05 598.9 2803.15 484.7 2807.15 486.7 2724 520.75 2727 518.75 2756.05M151.2 2807.1 -9 2807.1 -10 2761.05 151.2 2761.05 151.2 2807.1M2706.95 2806.1 2510.7 2803.1 2514.7 2756.05 2704.95 2754.05 2706.95 2806.1M2439.6 2762.05 2441.6 2817.15 2412.55 2809.1 2413.55 2762.05 2439.6 2762.05M1915.8 2805.1 1966.85 2673.9 2016.95 2802.1" style="fill:green"/>
    <path xmlns="http://www.w3.org/2000/svg" d="M1579.35 -33.05 1677.45 64.05 1699.5 44.05 1736.55 78.1 1759.6 57.05 1795.65 89.1 1837.7 48.05 1739.55 -50.1 1579.35 -33.05M1509.2 -2 1430.1 77.1 1393.05 40.05 1347 86.1 1264.85 -2 1509.2 -2M853.25 -43.1 853.25 30.05 384.55 30.05 382.55 -43.1 853.25 -43.1M2016.95 -65.1 2123.1 39.05 2059 99.15 1950.85 -5.15 2016.95 -65.1M2726 -19.05 2729 21.05 2665.85 24.2 2666.9 57.1 2554.75 61.1 2552.7 -22.05 2726 -19.05M2631.85 408.6 2632.85 444.65 2671.9 449.65 2670.9 503.75 2552.7 503.75 2552.7 409.6 2557.75 373.55 2602.8 372.55 2604.8 409.6 2631.85 408.6M2657.9 776.15 2657.9 894.3 2619.85 894.3 2619.85 1017.5 2557.75 1017.5 2557.75 990.45 2541.7 990.45 2541.7 939.35 2555.75 939.35 2555.75 897.3 2547.75 897.3 2546.75 778.15 2553.75 778.15 2553.75 691 2547.75 691 2547.75 638.95 2555.75 638.95 2555.75 608.9 2619.85 608.9 2619.85 776.15 2657.9 776.15M2306.35 316.45 2174.15 448.65 2159.15 433.65 2048 544.8 1993.9 493.75 2073 414.65 2084.05 425.7 2216.25 293.5 2233.25 313.45 2268.3 278.4 2306.35 316.45M2037.95 355.5 1945.85 355.5 1945.85 399.6 1814.65 399.6 1814.65 359.55 1713.5 361.55 1713.5 280.65 1744.55 280.75 1744.55 269.4 2037.95 269.4 2037.95 355.5M1994.9 629.9 2174.15 629.9 2174.15 613.9 2298.35 613.9 2298.35 750.1 2141.1 750.1 2141.1 691 1994.9 691 1994.9 629.9M2320.4 1123.65 2321.4 1239.85 2306.35 1241.85 2306.35 1289.9 2249.3 1289.9 2249.3 1246.85 2210.2 1242.85 2210.2 1125.65 2249.3 1122.65 2249.3 933.4 2305.35 933.4 2305.35 1120.65 2320.4 1123.65M2130.1 980.45 1907.8 980.45 1904.75 970.45 1774.6 970.45 1774.6 909.35 1910.8 909.35 1915.8 936.4 1985.9 936.4 1985.9 914.35 2129.1 913.35 2130.1 980.45M1999.95 1505.2 2186.2 1505.2 2196.2 1495.2 2302.4 1495.2 2302.4 1609.4 2189.2 1609.4 2189.2 1588.35 2001.95 1588.35 2001.95 1575.35 1974.9 1572.3 1974.9 1519.25 1999.95 1519.25 1999.95 1505.2M2561.75 1150.7 2647.85 1150.7 2647.85 1217.8 2696.95 1217.8 2696.95 1289.9 2559.75 1289.9 2561.75 1150.7M2704.95 1387.05 2723 1387.05 2723 1374 2786.1 1374 2786.1 1611.35 2723 1611.35 2723 1597.35 2705.95 1597.35 2705.95 1527.25 2720 1527.25 2720 1457.15 2705.95 1457.15 2704.95 1387.05M2728 1830.7 2728 1754.6 2790.1 1754.6 2790.1 2175.2 2728 2175.2 2728 2118.1 2705.95 2118.1 2705.95 2052 2691.95 2052 2672.9 2022.95 2672.9 1923.85 2700.95 1905.8 2704.95 1832.7 2728 1830.7M2808.1 2368.5 2808.1 2799.1 2736 2799.1 2702.95 2750.05 2702.95 2414.55 2727 2368.5 2808.1 2368.5M2210.25 1789.65 2296.35 1789.65 2296.35 2022.95 2175.2 2022.95 2172.15 1985.9 2097.05 1983.9 2097.05 1930.85 2204.2 1930.85 2210.25 1789.65M2173.2 2080.05 2173.2 2062 2297.35 2062 2297.35 2164.15 2235.25 2164.15 2235.25 2182.2 2151.15 2182.2 2151.15 2175.2 1984.9 2175.2 1983.9 2100.05 2147.15 2100.05 2149.15 2080.05 2173.2 2080.05M2302.35 2410.55 2302.35 2732 2249.3 2732 2249.3 2637.85 2198.2 2635.85 2198.2 2496.65 2222.25 2496.65 2222.25 2469.6 2207.25 2469.6 2207.25 2382.5 2294.35 2382.5 2294.35 2407.5 2302.35 2410.55M1365 268.4 1549.25 452.65 1476.15 525.75 1416.1 465.7 1443.1 440.65 1419.05 416.6 1401 434.65 1296.9 336.5 1365 268.4M1371 602.85 1200.75 602.85 1200.75 664.95 1084.6 664.95 1083.6 553.8 1097.6 538.8 1371 538.8 1371 602.85M1656.4 748.1 1831.65 748.1 1831.65 813.2 1706.5 813.2 1703.5 802.15 1545.25 803.15 1545.25 736.05 1656.4 736.05 1656.4 748.1M904.35 281.4 909.35 414.6 909.35 501.75 904.35 506.75 904.35 641.95 725.1 641.95 725.1 523.75 666 523.75 666 409.6 766.15 409.6 768.15 281.4 904.35 281.4M1158.7 1126.65 1158.7 911.35 1090.6 911.35 1090.6 1259.85 1178.7 1259.85 1178.7 1126.65 1158.7 1126.65M919.35 912.35 919.35 1090.6 840.25 1090.6 840.25 912.35 919.35 912.35M747.1 1161.7 780.15 1161.7 780.15 1358.95 763.15 1358.95 763.15 1379 747.1 1379 747.1 1460.1 419.65 1460.1 419.65 1363 402.05 1363 401.4 1124.65 422.65 1124.65 422.65 1105.6 747.1 1105.6 747.1 1161.7M757.1 1500.2 910.35 1500.2 910.35 1560.3 758.1 1560.3 757.1 1500.2M1176.7 1571.3 1217.8 1571.3 1217.8 1542.25 1323.95 1542.25 1323.95 1648.4 1085.6 1646.4 1085.6 1515.2 1176.7 1515.2 1176.7 1571.3M1715.5 971.45 1578.3 971.45 1576.3 953.4 1406.05 953.4 1407.05 912.35 1715.5 912.35 1715.5 971.45M1736.55 1179.75 1736.55 1291.9 1743.55 1299.9 1743.55 1390.05 1614.35 1390.05 1614.35 1355 1561.25 1355 1560.25 1300.9 1614.35 1300.9 1647.4 1290.9 1647.4 1179.75 1736.55 1179.75M1537.25 1531.25 1600.35 1531.25 1600.35 1508.2 1753.55 1508.2 1753.55 1645.4 1649.4 1645.4 1649.4 1570.3 1537.25 1569.3 1537.25 1531.25M300.45 737.05 300.45 591.85 358.55 592.85 359.55 604.85 382.6 608.9 383.6 671.95 358.55 672.95 360.55 737.05 384.6 738.05 384.6 814.2 277.45 814.2 277.45 737.05 300.45 737.05M384.6 274.4 384.6 520.75 304.45 520.75 303.45 274.4 384.6 274.4M250.4 822.2 250.4 1073.55 296.45 1073.55 296.45 1329.95 252.4 1329.95 252.4 1496.15 191.3 1496.15 183.3 1468.15 183.3 1330.95 175.3 1322.95 175.3 1081.6 186.3 1074.6 190.3 822.2 250.4 822.2M302.45 1129.65 326.5 1144.65 326.5 1260.85 302.45 1278.85 302.45 1129.65M427.65 1926.85 427.65 2031.95 458.7 2032 458.7 2057 471.7 2062.05 471.7 2176.2 367.55 2176.2 367.55 2112.1 355.55 2112.1 355.55 1926.85 427.65 1926.85M584.9 1739.55 914.35 1739.55 914.35 1824.7 761.15 1824.7 761.15 1793.65 584.9 1799.65 584.9 1739.55M117.15 2350.45 117.15 2416.55 128.15 2418.55 128.15 2497.65 109.15 2497.65 109.15 2602.85 55.05 2602.85 55.05 2501.7 22 2501.7 22 2471.65 10 2471.65 8 2350.45 117.15 2350.45M533.75 2353.45 533.75 2399.55 372.55 2399.55 372.55 2472.65 298.4 2472.65 298.4 2353.45 533.75 2353.45M641.9 2691.95 783.15 2684.9 785.15 2635.85 816.15 2633.85 826.2 2502.65 890.3 2500.65 892.3 2546.7 906.3 2546.7 906.3 2636.85 915.3 2641.85 915.3 2771.05 688 2771.05 687 2761.05 641.9 2756 641.9 2691.95M295.4 2795.1 295.4 2673.9 332.45 2673.9 332.45 2795.1 295.4 2795.1M1774.6 1867.75 1730.55 1911.8 1751.55 1932.8 1631.35 2053 1613.3 2034.95 1581.25 2067 1593.3 2079.05 1515.2 2157.15 1464.15 2106.1 1738.55 1831.7 1774.6 1867.75M1328.95 1719.55 1440.15 1719.55 1440.15 1830.7 1330.95 1830.7 1330.95 1815.7 1135.7 1815.7 1135.7 1798.65 1115.65 1798.65 1113.65 1743.6 1138.7 1743.6 1138.7 1729.55 1328.95 1729.55 1328.95 1719.55M1579.3 2353.45 1579.3 2406.5 1475.15 2405.5 1475.15 2353.45 1579.3 2353.45M1872.75 2358.45 1872.75 2418.55 1883.75 2429.55 1883.75 2607.8 1813.65 2609.8 1813.65 2506.65 1779.6 2506.65 1779.6 2474.6 1764.6 2474.6 1764.6 2358.45 1872.75 2358.45M1203.8 1958.9 1285.9 1958.9 1285.9 2022.95 1159.7 2022.95 1159.7 2171.2 1093.6 2172.2 1093.6 1917.8 1200.8 1917.8 1203.8 1958.9M805.2 2040 919.35 2040 919.35 2181.2 722.1 2182.2 722.1 2119.1 805.2 2119.1 805.2 2040M1184.75 2562.75 1184.75 2633.85 1208.75 2633.85 1208.75 2683.9 1356 2692.95 1356 2756 1314.9 2765.05 1078.55 2767.05 1078.55 2633.85 1093.6 2633.85 1093.6 2544.7 1108.1 2544.7 1108.1 2503.65 1172.7 2503.65 1172.7 2562.75 1184.75 2562.75M1857.75 2679.9 1811.65 2820.1 1761.6 2799.1 1810.65 2666.9 1857.75 2679.9M1601.35 2698.95 1655.4 2698.95 1655.4 2802.1 1603.35 2802.1 1601.35 2698.95" style="fill:red"/>
    <path xmlns="http://www.w3.org/2000/svg" d="M-17 1397.05 27.05 1582.3 63.1 1782.6 73.1 1863.75 73.1 1988.9 48.1 2080.05 -15 2166.2 -17 1397.05M2613.85 106.2 2561.75 105.2 2561.75 74.15 2613.85 74.15 2613.85 106.2M2606.85 351.55 2561.75 351.55 2561.75 279.45 2606.85 279.45 2606.85 351.55M2680.85 946.5 2680.85 1018.6 2635.75 1018.6 2635.75 946.5 2680.85 946.5M2642.85 1351 2570.75 1351 2570.75 1305.9 2642.85 1305.9 2642.85 1351M2620.4 2172.2 2575.3 2172.2 2575.3 2100.1 2620.4 2100.1 2620.4 2172.2M2596.8 1635.35 2551.7 1635.35 2551.7 1563.25 2596.8 1563.25 2596.8 1635.35M1952 720.95 1901 670 1932.9 638.1 1983.9 689.05 1952 720.95M1623.55 392.2 1591.65 360.3 1642.65 309.3 1674.55 341.2 1623.55 392.2M1761.6 682 1761.6 727.1 1689.5 727.1 1689.5 682 1761.6 682M1921.8 1118.65 1971.9 1169.7 1941.85 1198.75 1890.75 1148.7 1921.8 1118.65M1497.2 1141.65 1443.1 1195.75 1411.05 1161.7 1464.15 1108.6 1497.2 1141.65M1406.65 1395.1 1460.1 1440.1 1432.05 1476.15 1377 1425.05 1406.65 1395.1M1905.8 1568.3 1905.8 1640.4 1860.7 1640.4 1860.7 1568.3 1905.8 1568.3M2137.15 1246.85 2105.1 1215.8 2156.15 1162.7 2186.2 1196.75 2137.15 1246.85M1144.65 513.75 1097.6 513.75 1097.6 438.65 1144.65 439.65 1144.65 513.75M1112.6 715.05 1155.65 715.05 1156.65 785.15 1111.6 787.15 1112.6 715.05M97.15 384.55 67.1 560.8 -12 876.3 -16 -9 109.15 -14.05 111.15 159.2 97.15 384.55M258.7 730.05 263.4 803.15 218.35 802.2 218.35 730.05 258.7 730.05M1189.7 934.4 1261.8 934.4 1261.8 983.45 1189.7 981.45 1189.7 934.4M1097.6 1830.7 1169.7 1830.7 1169.7 1875.8 1097.6 1875.8 1097.6 1830.7M775.1 2047 775.1 2092.1 703 2092.1 703 2047 775.1 2047M1211.45 2084.35 1262.45 2135.3 1230.55 2167.2 1179.55 2116.25 1211.45 2084.35M547.3 1976.4 502.2 1976.4 502.2 1904.3 547.3 1904.3 547.3 1976.4M392.55 2717.95 392.55 2790.05 347.45 2790.05 347.45 2717.95 392.55 2717.95M2109.55 1829.3 2160.5 1778.3 2192.4 1810.2 2141.45 1861.2 2109.55 1829.3M1564.4 2140.3 1615.35 2089.3 1647.25 2121.2 1596.3 2172.2 1564.4 2140.3M1602.35 2445.6 1602.35 2517.7 1557.25 2517.7 1557.25 2445.6 1602.35 2445.6M2172.15 2688.95 2217.25 2688.95 2217.25 2761.05 2172.15 2761.05 2172.15 2688.95" style="fill:blue"/>
</g>
</svg>
